<svg width="24" height="25" viewBox="0 0 24 25" fill="none" xmlns="http://www.w3.org/2000/svg">
<path fill-rule="evenodd" clip-rule="evenodd" d="M16.9394 3.57031C18.2804 3.57031 19.5704 4.10031 20.5194 5.05131C21.4694 6.00031 22.0004 7.28031 22.0004 8.62031V16.5203C22.0004 19.3103 19.7304 21.5703 16.9394 21.5703H7.06037C4.26937 21.5703 2.00037 19.3103 2.00037 16.5203V8.62031C2.00037 5.83031 4.25937 3.57031 7.06037 3.57031H16.9394ZM18.5304 10.1103L18.6104 10.0303C18.8494 9.74031 18.8494 9.32031 18.5994 9.03031C18.4604 8.88131 18.2694 8.79031 18.0704 8.77031C17.8604 8.75931 17.6604 8.83031 17.5094 8.97031L13.0004 12.5703C12.4204 13.0513 11.5894 13.0513 11.0004 12.5703L6.50037 8.97031C6.18937 8.74031 5.75937 8.77031 5.50037 9.04031C5.23037 9.31031 5.20037 9.74031 5.42937 10.0403L5.56037 10.1703L10.1104 13.7203C10.6704 14.1603 11.3494 14.4003 12.0604 14.4003C12.7694 14.4003 13.4604 14.1603 14.0194 13.7203L18.5304 10.1103Z" fill="#4BAC99"/>
</svg>
