<svg width="20" height="21" viewBox="0 0 20 21" fill="none" xmlns="http://www.w3.org/2000/svg">
<path fill-rule="evenodd" clip-rule="evenodd" d="M6.5671 10.6679L12.0121 7.3416C12.2242 7.2137 12.4783 7.17494 12.7189 7.23379C12.9595 7.29264 13.1671 7.44431 13.2962 7.65569C13.4253 7.86706 13.4656 8.12094 13.4081 8.36189C13.3507 8.60283 13.2002 8.81124 12.9896 8.9416L8.2321 11.8479L12.2121 15.8291C12.3899 16.007 12.6096 16.1373 12.851 16.2079C13.0924 16.2786 13.3477 16.2874 13.5934 16.2334C13.839 16.1795 14.0672 16.0647 14.2568 15.8994C14.4464 15.7342 14.5914 15.5238 14.6783 15.2879L18.0433 6.15285C18.1165 5.95534 18.1408 5.74306 18.1142 5.53412C18.0876 5.32517 18.0109 5.12576 17.8906 4.95288C17.7702 4.78 17.6099 4.63879 17.4232 4.54127C17.2365 4.44376 17.029 4.39284 16.8183 4.39285H16.6871C16.5621 4.39285 16.4358 4.4091 16.3146 4.44285L2.5271 8.15285C2.33523 8.20524 2.16663 8.32081 2.04859 8.48088C1.93054 8.64096 1.86994 8.83617 1.87659 9.03495C1.88324 9.23374 1.95675 9.42446 2.08523 9.57629C2.21371 9.72812 2.38965 9.83216 2.5846 9.8716L6.5671 10.6679ZM2.2171 11.7104L6.2496 12.5166L10.8871 17.1541C11.2876 17.5538 11.7823 17.8464 12.3254 18.0049C12.8686 18.1634 13.443 18.1829 13.9956 18.0614C14.5483 17.9399 15.0615 17.6814 15.4882 17.3097C15.9148 16.938 16.2411 16.4649 16.4371 15.9341L19.8033 6.7991C19.9812 6.31806 20.04 5.80115 19.9748 5.29245C19.9096 4.78376 19.7224 4.29837 19.429 3.8777C19.1357 3.45702 18.7449 3.11353 18.2901 2.87653C17.8353 2.63953 17.33 2.51604 16.8171 2.5166H16.6871C16.3971 2.5166 16.1071 2.5541 15.8271 2.63035L2.0396 6.34285C1.43955 6.50535 0.911973 6.86575 0.542398 7.36562C0.172823 7.8655 -0.0170855 8.47555 0.00346121 9.09687C0.0240079 9.71819 0.253805 10.3144 0.655598 10.7887C1.05739 11.2631 1.60763 11.5879 2.2171 11.7104Z" fill="#4BAC99"/>
</svg>
