<svg width="20" height="21" viewBox="0 0 20 21" fill="none" xmlns="http://www.w3.org/2000/svg">
<path fill-rule="evenodd" clip-rule="evenodd" d="M10 20.5703C4.48 20.5703 0 16.1003 0 10.5703C0 5.05031 4.48 0.570312 10 0.570312C15.53 0.570312 20 5.05031 20 10.5703C20 16.1003 15.53 20.5703 10 20.5703ZM13.19 14.2803C13.31 14.3503 13.44 14.3903 13.58 14.3903C13.83 14.3903 14.08 14.2603 14.22 14.0203C14.43 13.6703 14.32 13.2103 13.96 12.9903L10.4 10.8703V6.25031C10.4 5.83031 10.06 5.50031 9.65 5.50031C9.24 5.50031 8.9 5.83031 8.9 6.25031V11.3003C8.9 11.5603 9.04 11.8003 9.27 11.9403L13.19 14.2803Z" fill="#4BAC99"/>
</svg>
