<svg width="160" height="161" viewBox="0 0 160 161" fill="none" xmlns="http://www.w3.org/2000/svg">
<circle cx="80" cy="80.2378" r="80" fill="#DBFFF5"/>
<mask id="mask0_17066_24772" style="mask-type:alpha" maskUnits="userSpaceOnUse" x="0" y="0" width="160" height="161">
<circle cx="80" cy="80.2378" r="80" fill="#D9D9D9"/>
</mask>
<g mask="url(#mask0_17066_24772)">
<path fill-rule="evenodd" clip-rule="evenodd" d="M175.231 72.5083C175.737 76.6035 176 80.7754 176 85.0093C176 97.0793 125.882 171.648 122 182.356H28.5C24.7998 172.15 -20.8113 98.1616 -21 86.7029C-21 86.7029 -18.4943 118.653 5.91896 111.717C30.3319 104.781 25.6118 69.1396 51.6043 50.015C77.5968 30.8907 95.6548 50.6299 103.572 75.7359C111.488 100.842 133.838 112.15 153.255 105.214C170.507 99.0506 174.852 84.5244 175.231 72.5083Z" fill="#D0FAEE"/>
<path fill-rule="evenodd" clip-rule="evenodd" d="M175.231 72.5083C175.737 76.6035 176 80.7754 176 85.0093C176 97.0793 125.882 171.648 122 182.356H28.5C24.7998 172.15 -20.8113 98.1616 -21 86.7029C-21 86.7029 -18.4943 118.653 5.91896 111.717C30.3319 104.781 25.6118 69.1396 51.6043 50.015C77.5968 30.8907 95.6548 50.6299 103.572 75.7359C111.488 100.842 133.838 112.15 153.255 105.214C170.507 99.0506 174.852 84.5244 175.231 72.5083Z" fill="#D0FAEE"/>
<path fill-rule="evenodd" clip-rule="evenodd" d="M175.231 131.508C175.737 135.603 176 139.775 176 144.009C176 156.079 125.882 230.648 122 241.356H28.5C24.7998 231.15 -20.8113 157.162 -21 145.703C-21 145.703 -18.4943 177.653 5.91896 170.717C30.3319 163.781 25.6118 128.14 51.6043 109.015C77.5968 89.8907 95.6548 109.63 103.572 134.736C111.488 159.842 133.838 171.15 153.255 164.214C170.507 158.051 174.852 143.524 175.231 131.508Z" fill="#DBFFF5"/>
<path d="M67.114 28.2378V33.2204C67.114 30.4684 64.8834 28.2378 62.1313 28.2378H67.114Z" fill="white"/>
<path d="M110.601 61.5845C110.601 61.5845 115.448 58.6257 115.097 52.4225C114.746 46.2193 109.323 47.8904 109.323 47.8904L110.601 61.5845Z" fill="#FFB1D0"/>
<path d="M35.9612 106.827C40.9393 83.9421 44.2953 78.0046 45.586 73.6161C46.8768 69.2276 57.7191 43.6822 62.3658 44.3219C67.0125 44.9615 66.238 48.7941 64.431 56.3003C62.6239 63.8065 58.5192 73.6161 58.5192 73.6161L58.9928 92.8219L35.9612 106.827Z" fill="#FFB1D0"/>
<path d="M36.4751 105.005L58.7456 82.8055L58.519 73.6158C58.519 73.6158 59.9424 70.2138 61.4818 65.8841L58.519 47.2603C58.519 47.2603 56.7715 70.8601 56.0128 76.1325L47.7577 80.0632C47.7577 80.0632 42.202 86.4737 39.5313 92.6772C38.6693 95.449 37.5449 100.767 36.4751 105.005Z" fill="#FE7592"/>
<path d="M111.031 95.7361C111.031 95.7361 115.728 90.6016 117.294 85.3091C118.859 80.0165 119.587 77.9187 116.511 75.5693C114.649 74.1471 108.096 86.4747 108.096 86.4747V98.6082L111.031 95.7361Z" fill="#FFB1D0"/>
<path d="M110.26 65.9262C110.26 65.9262 114.47 64.3144 116.035 67.5771C117.601 70.8397 117.448 73.5788 114.162 77.919C110.877 82.2592 108.096 86.4749 108.096 86.4749L110.26 65.9262Z" fill="#FFB1D0"/>
<path d="M115.097 76.0007C115.097 76.0007 111.722 78.9413 111.442 83.0087C111.161 87.0761 112.547 93.8999 112.547 93.8999L106.105 101.54L108.774 66.8811L110.26 65.9253C110.26 65.9253 110.459 76.19 111.301 76.5777C112.144 76.9654 115.097 76.0007 115.097 76.0007Z" fill="#FE7592"/>
<path d="M57.9776 135.83L66.7546 141.51C66.7546 141.51 81.211 135.83 86.8902 128.86C92.5695 121.89 104.186 105.369 104.186 105.369L66.4964 83.6323L56.0133 84.569L51.2656 109.499L57.9776 135.83Z" fill="#FFB1D0"/>
<path d="M104.014 105.27L70.9452 86.1982L59.1914 89.9105L54.3131 93.4958L52.7144 101.891L55.2284 112.571L62.2167 125.493C62.2167 125.493 64.933 123.742 65.8434 121.354L94.9248 118.274C98.8812 112.868 102.651 107.544 103.818 105.892L104.014 105.27Z" fill="#FE7592"/>
<path d="M34.9593 129.377L18.1804 159.184H60.8189L66.7542 141.51L58.5192 129.377H34.9593Z" fill="#FFB1D0"/>
<path d="M106.412 117.598H62.5953C60.3339 117.598 58.5007 115.765 58.5007 113.504V21.3165C58.5007 19.0551 60.3339 17.2219 62.5953 17.2219H106.412C108.674 17.2219 110.507 19.0551 110.507 21.3165V113.504C110.507 115.765 108.674 117.598 106.412 117.598Z" stroke="#231F20" stroke-width="1.2386" stroke-miterlimit="10"/>
<path d="M60.8123 110.663V24.1565C60.8123 23.5182 61.3297 23.0007 61.968 23.0007H107.039C107.678 23.0007 108.195 23.5182 108.195 24.1565V110.663C108.195 111.302 107.678 111.819 107.039 111.819H61.968C61.3297 111.819 60.8123 111.302 60.8123 110.663Z" stroke="#231F20" stroke-width="1.2386" stroke-miterlimit="10"/>
<path d="M106.412 117.598H62.5953C60.3339 117.598 58.5007 115.765 58.5007 113.504V21.3165C58.5007 19.0551 60.3339 17.2219 62.5953 17.2219H106.412C108.674 17.2219 110.507 19.0551 110.507 21.3165V113.504C110.507 115.765 108.674 117.598 106.412 117.598Z" fill="url(#paint0_linear_17066_24772)"/>
<path d="M60.8123 110.663V24.1565C60.8123 23.5182 61.3297 23.0007 61.968 23.0007H107.039C107.678 23.0007 108.195 23.5182 108.195 24.1565V110.663C108.195 111.302 107.678 111.819 107.039 111.819H61.968C61.3297 111.819 60.8123 111.302 60.8123 110.663Z" fill="#D6E3FF"/>
<path d="M84.2053 21.258C84.9214 21.258 85.5019 20.6775 85.5019 19.9614C85.5019 19.2453 84.9214 18.6648 84.2053 18.6648C83.4892 18.6648 82.9087 19.2453 82.9087 19.9614C82.9087 20.6775 83.4892 21.258 84.2053 21.258Z" stroke="#231F20" stroke-width="1.2386" stroke-miterlimit="10"/>
<path d="M84.2053 21.258C84.9214 21.258 85.5019 20.6775 85.5019 19.9614C85.5019 19.2453 84.9214 18.6648 84.2053 18.6648C83.4892 18.6648 82.9087 19.2453 82.9087 19.9614C82.9087 20.6775 83.4892 21.258 84.2053 21.258Z" fill="#221473"/>
<path opacity="0.2" d="M110.507 21.3166C110.507 19.4372 109.24 17.8546 107.515 17.3733L68.9128 116.417L86.1715 117.235L110.507 40.4986L110.507 21.3166Z" fill="white"/>
<path opacity="0.2" d="M98.6659 17.2222H94.9218L94.8275 17.363L58.5007 110.569V113.504C58.5007 114.802 59.1056 115.958 60.0481 116.709L66.9484 117.235L98.6659 17.2222Z" fill="white"/>
<path d="M101.002 81.1098H68.006C64.8667 81.1098 62.3218 78.5649 62.3218 75.4256C62.3218 72.2864 64.8667 69.7415 68.006 69.7415H101.002C104.141 69.7415 106.686 72.2864 106.686 75.4256C106.686 78.5649 104.141 81.1098 101.002 81.1098Z" fill="#FEAB00"/>
<path d="M75.7161 77.1917C75.2401 77.1917 74.8361 77.1017 74.5041 76.9217C74.1761 76.7417 73.9261 76.4897 73.7541 76.1657C73.5821 75.8417 73.4961 75.4617 73.4961 75.0257C73.4961 74.5777 73.5841 74.1897 73.7601 73.8617C73.9401 73.5337 74.1981 73.2797 74.5341 73.0997C74.8701 72.9197 75.2741 72.8297 75.7461 72.8297C76.0421 72.8297 76.3221 72.8717 76.5861 72.9557C76.8541 73.0397 77.0721 73.1517 77.2401 73.2917L76.9401 74.0177C76.7561 73.8817 76.5681 73.7857 76.3761 73.7297C76.1841 73.6697 75.9761 73.6397 75.7521 73.6397C75.3241 73.6397 75.0021 73.7597 74.7861 73.9997C74.5741 74.2357 74.4681 74.5777 74.4681 75.0257C74.4681 75.4777 74.5761 75.8197 74.7921 76.0517C75.0121 76.2837 75.3361 76.3997 75.7641 76.3997C75.9921 76.3997 76.2321 76.3637 76.4841 76.2917V75.4637H75.5721V74.7917H77.2521V76.8677C77.0441 76.9717 76.8041 77.0517 76.5321 77.1077C76.2601 77.1637 75.9881 77.1917 75.7161 77.1917ZM78.9933 77.1917C78.7733 77.1917 78.5793 77.1497 78.4113 77.0657C78.2433 76.9817 78.1093 76.8677 78.0093 76.7237C77.9133 76.5797 77.8653 76.4177 77.8653 76.2377C77.8653 76.0257 77.9213 75.8557 78.0333 75.7277C78.1453 75.5997 78.3273 75.5097 78.5793 75.4577C78.8313 75.4017 79.1653 75.3737 79.5813 75.3737H79.7973V75.2717C79.7973 75.0957 79.7573 74.9717 79.6773 74.8997C79.5973 74.8237 79.4613 74.7857 79.2693 74.7857C79.1093 74.7857 78.9393 74.8117 78.7593 74.8637C78.5833 74.9117 78.4073 74.9857 78.2313 75.0857L77.9853 74.4797C78.0893 74.4117 78.2153 74.3497 78.3633 74.2937C78.5153 74.2377 78.6733 74.1957 78.8373 74.1677C79.0013 74.1357 79.1573 74.1197 79.3053 74.1197C79.7613 74.1197 80.1013 74.2237 80.3253 74.4317C80.5493 74.6357 80.6613 74.9537 80.6613 75.3857V77.1257H79.8153V76.6817C79.7553 76.8377 79.6533 76.9617 79.5093 77.0537C79.3693 77.1457 79.1973 77.1917 78.9933 77.1917ZM79.1973 76.5857C79.3653 76.5857 79.5073 76.5277 79.6233 76.4117C79.7393 76.2957 79.7973 76.1457 79.7973 75.9617V75.8417H79.5873C79.2793 75.8417 79.0613 75.8697 78.9333 75.9257C78.8053 75.9777 78.7413 76.0697 78.7413 76.2017C78.7413 76.3137 78.7793 76.4057 78.8553 76.4777C78.9353 76.5497 79.0493 76.5857 79.1973 76.5857ZM83.1551 77.1917C82.9471 77.1917 82.7591 77.1457 82.5911 77.0537C82.4271 76.9617 82.3051 76.8397 82.2251 76.6877V77.1257H81.3371V72.8957H82.2431V74.5757C82.3311 74.4357 82.4551 74.3257 82.6151 74.2457C82.7791 74.1617 82.9591 74.1197 83.1551 74.1197C83.4111 74.1197 83.6351 74.1817 83.8271 74.3057C84.0231 74.4297 84.1751 74.6057 84.2831 74.8337C84.3911 75.0617 84.4451 75.3337 84.4451 75.6497C84.4451 75.9657 84.3911 76.2397 84.2831 76.4717C84.1751 76.6997 84.0231 76.8777 83.8271 77.0057C83.6351 77.1297 83.4111 77.1917 83.1551 77.1917ZM82.8851 76.5137C83.0771 76.5137 83.2331 76.4437 83.3531 76.3037C83.4731 76.1637 83.5331 75.9457 83.5331 75.6497C83.5331 75.3577 83.4731 75.1437 83.3531 75.0077C83.2331 74.8677 83.0771 74.7977 82.8851 74.7977C82.6891 74.7977 82.5311 74.8677 82.4111 75.0077C82.2911 75.1437 82.2311 75.3577 82.2311 75.6497C82.2311 75.9457 82.2911 76.1637 82.4111 76.3037C82.5311 76.4437 82.6891 76.5137 82.8851 76.5137ZM86.0852 77.1917C85.7092 77.1917 85.4312 77.0877 85.2512 76.8797C85.0752 76.6717 84.9872 76.3597 84.9872 75.9437V74.1797H85.8932V75.9677C85.8932 76.3157 86.0432 76.4897 86.3432 76.4897C86.5152 76.4897 86.6552 76.4297 86.7632 76.3097C86.8752 76.1857 86.9312 76.0237 86.9312 75.8237V74.1797H87.8372V77.1257H86.9552V76.7237C86.7592 77.0357 86.4692 77.1917 86.0852 77.1917ZM88.5383 77.1257V74.1797H89.4263V74.6117C89.5263 74.4517 89.6603 74.3297 89.8283 74.2457C89.9963 74.1617 90.1843 74.1197 90.3923 74.1197C90.7403 74.1197 91.0003 74.2217 91.1723 74.4257C91.3443 74.6257 91.4303 74.9357 91.4303 75.3557V77.1257H90.5243V75.3977C90.5243 75.1937 90.4863 75.0477 90.4103 74.9597C90.3343 74.8677 90.2223 74.8217 90.0743 74.8217C89.8823 74.8217 89.7283 74.8817 89.6123 75.0017C89.5003 75.1217 89.4443 75.2817 89.4443 75.4817V77.1257H88.5383ZM93.5226 78.2717C93.2386 78.2717 92.9726 78.2417 92.7246 78.1817C92.4806 78.1217 92.2666 78.0277 92.0826 77.8997L92.3286 77.2817C92.4886 77.3817 92.6686 77.4577 92.8686 77.5097C93.0726 77.5657 93.2646 77.5937 93.4446 77.5937C93.9566 77.5937 94.2126 77.3577 94.2126 76.8857V76.5497C94.1326 76.7017 94.0066 76.8237 93.8346 76.9157C93.6626 77.0077 93.4746 77.0537 93.2706 77.0537C93.0066 77.0537 92.7766 76.9937 92.5806 76.8737C92.3846 76.7497 92.2326 76.5777 92.1246 76.3577C92.0166 76.1377 91.9626 75.8797 91.9626 75.5837C91.9626 75.2917 92.0166 75.0357 92.1246 74.8157C92.2326 74.5957 92.3846 74.4257 92.5806 74.3057C92.7766 74.1817 93.0066 74.1197 93.2706 74.1197C93.4826 74.1197 93.6726 74.1657 93.8406 74.2577C94.0086 74.3497 94.1326 74.4717 94.2126 74.6237V74.1797H95.0946V76.7837C95.0946 77.2797 94.9606 77.6517 94.6926 77.8997C94.4246 78.1477 94.0346 78.2717 93.5226 78.2717ZM93.5406 76.3757C93.7406 76.3757 93.9006 76.3057 94.0206 76.1657C94.1446 76.0257 94.2066 75.8317 94.2066 75.5837C94.2066 75.3357 94.1446 75.1437 94.0206 75.0077C93.9006 74.8677 93.7406 74.7977 93.5406 74.7977C93.3366 74.7977 93.1746 74.8677 93.0546 75.0077C92.9346 75.1437 92.8746 75.3357 92.8746 75.5837C92.8746 75.8317 92.9346 76.0257 93.0546 76.1657C93.1746 76.3057 93.3366 76.3757 93.5406 76.3757Z" fill="white"/>
<path d="M93.1622 57.6738C98.431 52.405 98.431 43.8626 93.1622 38.5938C87.8934 33.325 79.351 33.325 74.0822 38.5938C68.8134 43.8626 68.8134 52.405 74.0822 57.6738C79.351 62.9426 87.8934 62.9426 93.1622 57.6738Z" fill="white"/>
<path d="M83.7103 45.7186C84.5886 45.7186 85.4309 45.3697 86.0519 44.7487C86.673 44.1276 87.0219 43.2853 87.0219 42.407C87.0219 41.5287 86.673 40.6864 86.0519 40.0654C85.4309 39.4444 84.5886 39.0955 83.7103 39.0955C82.832 39.0955 81.9897 39.4444 81.3687 40.0654C80.7476 40.6864 80.3987 41.5287 80.3987 42.407C80.3987 43.2853 80.7476 44.1276 81.3687 44.7487C81.9897 45.3697 82.832 45.7186 83.7103 45.7186ZM79.2949 44.6147C79.2949 45.2003 79.0623 45.7618 78.6483 46.1758C78.2342 46.5898 77.6727 46.8224 77.0872 46.8224C76.5016 46.8224 75.9401 46.5898 75.5261 46.1758C75.1121 45.7618 74.8795 45.2003 74.8795 44.6147C74.8795 44.0292 75.1121 43.4677 75.5261 43.0536C75.9401 42.6396 76.5016 42.407 77.0872 42.407C77.6727 42.407 78.2342 42.6396 78.6483 43.0536C79.0623 43.4677 79.2949 44.0292 79.2949 44.6147ZM74.3165 52.7016C74.128 52.5945 73.9869 52.4203 73.9213 52.2137C73.7268 51.5837 73.7248 50.9101 73.9155 50.279C74.1061 49.6479 74.4808 49.088 74.9916 48.6712C75.5024 48.2543 76.1259 47.9994 76.7824 47.9391C77.439 47.8787 78.0985 48.0157 78.6767 48.3325C77.4886 49.5001 76.7449 51.0456 76.5739 52.7027C76.5485 52.9477 76.5584 53.1906 76.6015 53.4246C75.7958 53.3549 75.0156 53.108 74.3165 52.7016ZM90.8191 53.4235C91.6247 53.3542 92.405 53.1077 93.1041 52.7016C93.2921 52.5943 93.4328 52.4201 93.4982 52.2137C93.693 51.5837 93.6953 50.9098 93.5047 50.2785C93.3142 49.6472 92.9395 49.0872 92.4287 48.6701C91.9178 48.2531 91.2941 47.9981 90.6375 47.9377C89.9808 47.8774 89.3211 48.0145 88.7428 48.3314C89.932 49.499 90.6765 51.045 90.8478 52.7027C90.8724 52.9435 90.8628 53.1865 90.8191 53.4246V53.4235ZM92.5411 44.6147C92.5411 45.2003 92.3085 45.7618 91.8945 46.1758C91.4805 46.5898 90.919 46.8224 90.3334 46.8224C89.7479 46.8224 89.1864 46.5898 88.7723 46.1758C88.3583 45.7618 88.1257 45.2003 88.1257 44.6147C88.1257 44.0292 88.3583 43.4677 88.7723 43.0536C89.1864 42.6396 89.7479 42.407 90.3334 42.407C90.919 42.407 91.4805 42.6396 91.8945 43.0536C92.3085 43.4677 92.5411 44.0292 92.5411 44.6147ZM78.5266 53.6553C78.4177 53.5578 78.3333 53.4361 78.2802 53.2999C78.2271 53.1638 78.2068 53.017 78.2208 52.8716C78.3612 51.5133 79.0002 50.2552 80.0142 49.3406C81.0282 48.426 82.3453 47.9198 83.7109 47.9198C85.0764 47.9198 86.3935 48.426 87.4075 49.3406C88.4215 50.2552 89.0605 51.5133 89.2009 52.8716C89.215 53.017 89.1947 53.1638 89.1416 53.3C89.0885 53.4361 89.004 53.5579 88.8951 53.6553C87.4758 54.9435 85.627 55.6559 83.7103 55.6533C81.7939 55.6557 79.9456 54.9433 78.5266 53.6553Z" fill="#00BA88"/>
<path d="M34.9595 129.377C34.9595 129.377 33.1951 111.823 37.3255 102.787C41.4559 93.752 46.3607 83.6842 48.4259 81.619C50.4911 79.5538 56.9448 80.3283 63.6567 79.5538C70.3686 78.7794 76.9848 75.6816 77.4198 80.3283C77.8549 84.975 71.6593 90.4943 64.9475 91.2196C58.2356 91.945 57.365 94.306 57.365 94.306L55.047 102.013C55.047 102.013 69.336 121.374 57.9775 135.83L34.9595 129.377Z" fill="#FFB1D0"/>
<path d="M72.805 77.9182C72.805 77.9182 73.3275 81.1322 71.8994 82.1209C71.01 82.7367 69.1331 83.1716 67.8434 83.412C67.0806 83.5543 66.3409 83.0686 66.1746 82.3106C65.9483 81.2789 65.7079 79.91 65.8432 79.2301L72.805 77.9182Z" fill="#FFD4E5"/>
<path d="M68.7506 165.185C68.4608 162.311 66.216 146.7 51.4111 142.731C35.0853 138.355 18.0267 143.093 18.0267 143.093L12.2421 146.227C11.5143 146.621 10.8915 147.184 10.4259 147.869L-1.35742 165.185H68.7506Z" fill="#FFC31B"/>
<path d="M49.1771 146.964C62.2188 152.145 67.5636 162.851 68.5972 165.184H68.9957L73.381 155.458C73.381 155.458 72.9106 144.986 55.2037 134.687C37.4968 124.389 23.3252 132.39 23.3252 132.39L18.0271 143.092C18.0271 143.092 34.4907 141.129 49.1771 146.964Z" fill="white"/>
<path d="M28.2289 135.108C26.3376 134.674 23.4039 140.494 26.4053 140.93C29.4067 141.366 31.1784 135.787 28.2289 135.108Z" fill="#FFC31B"/>
</g>
<defs>
<linearGradient id="paint0_linear_17066_24772" x1="72.4458" y1="126.991" x2="95.5669" y2="12.7451" gradientUnits="userSpaceOnUse">
<stop stop-color="#333366"/>
<stop offset="1" stop-color="#5959B3"/>
</linearGradient>
</defs>
</svg>
