<svg width="160" height="161" viewBox="0 0 160 161" fill="none" xmlns="http://www.w3.org/2000/svg">
<circle cx="80" cy="80.2378" r="80" fill="#DBFFF5"/>
<mask id="mask0_17066_24954" style="mask-type:alpha" maskUnits="userSpaceOnUse" x="0" y="0" width="160" height="161">
<circle cx="80" cy="80.2378" r="80" fill="#DBFFF5"/>
</mask>
<g mask="url(#mask0_17066_24954)">
<path fill-rule="evenodd" clip-rule="evenodd" d="M176.231 55.5083C176.737 59.6035 177 63.7754 177 68.0093C177 80.0793 126.882 154.648 123 165.356H29.5C25.7998 155.15 -19.8113 81.1616 -20 69.7029C-20 69.7029 -17.4943 101.653 6.91896 94.7167C31.3319 87.7806 26.6118 52.1396 52.6043 33.015C78.5968 13.8907 96.6548 33.6299 104.572 58.7359C112.488 83.842 134.838 95.15 154.255 88.2139C171.507 82.0506 175.852 67.5244 176.231 55.5083Z" fill="#D0FAEE"/>
<path fill-rule="evenodd" clip-rule="evenodd" d="M176.231 55.5083C176.737 59.6035 177 63.7754 177 68.0093C177 80.0793 126.882 154.648 123 165.356H29.5C25.7998 155.15 -19.8113 81.1616 -20 69.7029C-20 69.7029 -17.4943 101.653 6.91896 94.7167C31.3319 87.7806 26.6118 52.1396 52.6043 33.015C78.5968 13.8907 96.6548 33.6299 104.572 58.7359C112.488 83.842 134.838 95.15 154.255 88.2139C171.507 82.0506 175.852 67.5244 176.231 55.5083Z" fill="#D0FAEE"/>
<path fill-rule="evenodd" clip-rule="evenodd" d="M176.231 114.508C176.737 118.603 177 122.775 177 127.009C177 139.079 126.882 213.648 123 224.356H29.5C25.7998 214.15 -19.8113 140.162 -20 128.703C-20 128.703 -17.4943 160.653 6.91896 153.717C31.3319 146.781 26.6118 111.14 52.6043 92.015C78.5968 72.8907 96.6548 92.6299 104.572 117.736C112.488 142.842 134.838 154.15 154.255 147.214C171.507 141.051 175.852 126.524 176.231 114.508Z" fill="#DBFFF5"/>
<path d="M67.114 28.2378V33.2204C67.114 30.4684 64.8834 28.2378 62.1313 28.2378H67.114Z" fill="white"/>
<path d="M110.601 61.5845C110.601 61.5845 115.448 58.6257 115.097 52.4225C114.746 46.2193 109.323 47.8904 109.323 47.8904L110.601 61.5845Z" fill="#FFB1D0"/>
<path d="M35.9612 106.827C40.9393 83.9421 44.2953 78.0046 45.586 73.6161C46.8768 69.2276 57.7191 43.6822 62.3658 44.3219C67.0125 44.9615 66.238 48.7941 64.431 56.3003C62.6239 63.8065 58.5192 73.6161 58.5192 73.6161L58.9928 92.8219L35.9612 106.827Z" fill="#FFB1D0"/>
<path d="M36.4751 105.005L58.7456 82.8055L58.519 73.6158C58.519 73.6158 59.9424 70.2138 61.4818 65.8841L58.519 47.2603C58.519 47.2603 56.7715 70.8601 56.0128 76.1325L47.7577 80.0632C47.7577 80.0632 42.202 86.4737 39.5313 92.6772C38.6693 95.449 37.5449 100.767 36.4751 105.005Z" fill="#FE7592"/>
<path d="M111.031 95.7361C111.031 95.7361 115.728 90.6016 117.294 85.3091C118.859 80.0165 119.587 77.9187 116.511 75.5693C114.649 74.1471 108.096 86.4747 108.096 86.4747V98.6082L111.031 95.7361Z" fill="#FFB1D0"/>
<path d="M110.26 65.9262C110.26 65.9262 114.47 64.3144 116.035 67.5771C117.601 70.8397 117.448 73.5788 114.162 77.919C110.877 82.2592 108.096 86.4749 108.096 86.4749L110.26 65.9262Z" fill="#FFB1D0"/>
<path d="M115.097 76.0007C115.097 76.0007 111.722 78.9413 111.442 83.0087C111.161 87.0761 112.547 93.8999 112.547 93.8999L106.105 101.54L108.774 66.8811L110.26 65.9253C110.26 65.9253 110.459 76.19 111.301 76.5777C112.144 76.9654 115.097 76.0007 115.097 76.0007Z" fill="#FE7592"/>
<path d="M57.9776 135.83L66.7546 141.51C66.7546 141.51 81.211 135.83 86.8902 128.86C92.5695 121.89 104.186 105.369 104.186 105.369L66.4964 83.6323L56.0133 84.569L51.2656 109.499L57.9776 135.83Z" fill="#FFB1D0"/>
<path d="M104.014 105.27L70.9452 86.1982L59.1914 89.9105L54.3131 93.4958L52.7144 101.891L55.2284 112.571L62.2167 125.493C62.2167 125.493 64.933 123.742 65.8434 121.354L94.9248 118.274C98.8812 112.868 102.651 107.544 103.818 105.892L104.014 105.27Z" fill="#FE7592"/>
<path d="M34.9593 129.377L18.1804 159.184H60.8189L66.7542 141.51L58.5192 129.377H34.9593Z" fill="#FFB1D0"/>
<path d="M106.412 117.598H62.5953C60.3339 117.598 58.5007 115.765 58.5007 113.504V21.3165C58.5007 19.0551 60.3339 17.2219 62.5953 17.2219H106.412C108.674 17.2219 110.507 19.0551 110.507 21.3165V113.504C110.507 115.765 108.674 117.598 106.412 117.598Z" stroke="#231F20" stroke-width="1.2386" stroke-miterlimit="10"/>
<path d="M60.8123 110.663V24.1565C60.8123 23.5182 61.3297 23.0007 61.968 23.0007H107.039C107.678 23.0007 108.195 23.5182 108.195 24.1565V110.663C108.195 111.302 107.678 111.819 107.039 111.819H61.968C61.3297 111.819 60.8123 111.302 60.8123 110.663Z" stroke="#231F20" stroke-width="1.2386" stroke-miterlimit="10"/>
<path d="M106.412 117.598H62.5953C60.3339 117.598 58.5007 115.765 58.5007 113.504V21.3165C58.5007 19.0551 60.3339 17.2219 62.5953 17.2219H106.412C108.674 17.2219 110.507 19.0551 110.507 21.3165V113.504C110.507 115.765 108.674 117.598 106.412 117.598Z" fill="url(#paint0_linear_17066_24954)"/>
<path d="M60.8123 110.663V24.1565C60.8123 23.5182 61.3297 23.0007 61.968 23.0007H107.039C107.678 23.0007 108.195 23.5182 108.195 24.1565V110.663C108.195 111.302 107.678 111.819 107.039 111.819H61.968C61.3297 111.819 60.8123 111.302 60.8123 110.663Z" fill="#D6E3FF"/>
<path d="M84.2053 21.258C84.9214 21.258 85.5019 20.6775 85.5019 19.9614C85.5019 19.2453 84.9214 18.6648 84.2053 18.6648C83.4892 18.6648 82.9087 19.2453 82.9087 19.9614C82.9087 20.6775 83.4892 21.258 84.2053 21.258Z" stroke="#231F20" stroke-width="1.2386" stroke-miterlimit="10"/>
<path d="M84.2053 21.258C84.9214 21.258 85.5019 20.6775 85.5019 19.9614C85.5019 19.2453 84.9214 18.6648 84.2053 18.6648C83.4892 18.6648 82.9087 19.2453 82.9087 19.9614C82.9087 20.6775 83.4892 21.258 84.2053 21.258Z" fill="#221473"/>
<path opacity="0.2" d="M110.507 21.3166C110.507 19.4372 109.24 17.8546 107.515 17.3733L68.9128 116.417L86.1715 117.235L110.507 40.4986L110.507 21.3166Z" fill="white"/>
<path opacity="0.2" d="M98.6659 17.2222H94.9218L94.8275 17.363L58.5007 110.569V113.504C58.5007 114.802 59.1056 115.958 60.0481 116.709L66.9484 117.235L98.6659 17.2222Z" fill="white"/>
<rect x="65" y="92.356" width="40" height="3" rx="1.5" fill="#FFD06F"/>
<rect x="65" y="92.356" width="20" height="3" rx="1.5" fill="#FEAB00"/>
<rect x="65" y="92.356" width="20" height="3" rx="1.5" fill="#FEAB00"/>
<path d="M34.9595 129.377C34.9595 129.377 33.1951 111.823 37.3255 102.787C41.4559 93.752 46.3607 83.6842 48.4259 81.619C50.4911 79.5538 56.9448 80.3283 63.6567 79.5538C70.3686 78.7794 76.9848 75.6816 77.4198 80.3283C77.8549 84.975 71.6593 90.4943 64.9475 91.2196C58.2356 91.945 57.365 94.306 57.365 94.306L55.047 102.013C55.047 102.013 69.336 121.374 57.9775 135.83L34.9595 129.377Z" fill="#FFB1D0"/>
<path d="M72.805 77.9182C72.805 77.9182 73.3275 81.1322 71.8994 82.1209C71.01 82.7367 69.1331 83.1716 67.8434 83.412C67.0806 83.5543 66.3409 83.0686 66.1746 82.3106C65.9483 81.2789 65.7079 79.91 65.8432 79.2301L72.805 77.9182Z" fill="#FFD4E5"/>
<path d="M68.7506 165.185C68.4608 162.311 66.216 146.7 51.4111 142.731C35.0853 138.355 18.0267 143.093 18.0267 143.093L12.2421 146.227C11.5143 146.621 10.8915 147.184 10.4259 147.869L-1.35742 165.185H68.7506Z" fill="#FFC31B"/>
<path d="M49.1771 146.964C62.2188 152.145 67.5636 162.851 68.5972 165.184H68.9957L73.381 155.458C73.381 155.458 72.9106 144.986 55.2037 134.687C37.4968 124.389 23.3252 132.39 23.3252 132.39L18.0271 143.092C18.0271 143.092 34.4907 141.129 49.1771 146.964Z" fill="white"/>
<path d="M28.2289 135.108C26.3376 134.674 23.4039 140.494 26.4053 140.93C29.4067 141.366 31.1784 135.787 28.2289 135.108Z" fill="#FFC31B"/>
<path fill-rule="evenodd" clip-rule="evenodd" d="M100.755 41.2785C102.557 44.635 102.334 48.5839 100.533 52.0392C101.471 49.349 101.397 46.486 100.039 43.9933C98.1141 40.4393 94.1405 38.613 89.8955 38.8351L91.0308 40.9329L87.4027 40.4393L83.7747 39.9457L85.3542 36.6385L86.9091 33.356L88.1678 35.6759C93.3754 34.9355 98.4103 36.984 100.755 41.2785Z" fill="#EA718B"/>
<path fill-rule="evenodd" clip-rule="evenodd" d="M69.2453 69.4724C67.4436 66.1158 67.6658 62.1669 69.4675 58.7117C68.5296 61.3772 68.6283 64.2648 69.961 66.7575C71.8861 70.3116 75.8597 72.1379 80.1048 71.8911L78.9694 69.818L82.5975 70.3116L86.2255 70.8052L84.646 74.0877L83.0911 77.3949L81.8324 75.0749C76.6248 75.8153 71.59 73.7668 69.2453 69.4724Z" fill="#84B2FE"/>
<path fill-rule="evenodd" clip-rule="evenodd" d="M84.8584 68.1767C91.9789 68.1767 97.7866 62.3691 97.7866 55.2485C97.7866 48.1279 91.9789 42.3203 84.8584 42.3203C77.7378 42.3203 71.9302 48.1279 71.9302 55.2485C71.9302 62.3691 77.7378 68.1767 84.8584 68.1767Z" fill="#00BA88"/>
<path fill-rule="evenodd" clip-rule="evenodd" d="M84.8583 65.4503C90.4783 65.4503 95.0601 60.8685 95.0601 55.2484C95.0601 49.635 90.4783 45.0532 84.8583 45.0532C79.2449 45.0532 74.6631 49.635 74.6631 55.2484C74.6631 60.8685 79.2449 65.4503 84.8583 65.4503Z" fill="white"/>
<path fill-rule="evenodd" clip-rule="evenodd" d="M84.557 45.77C84.7445 45.77 84.8919 45.9241 84.8919 46.1116V48.4427C84.8919 48.6303 84.7445 48.7844 84.557 48.7844C84.3694 48.7844 84.2153 48.6303 84.2153 48.4427V46.1116C84.2153 45.9241 84.3694 45.77 84.557 45.77Z" fill="#2C7EFE"/>
<path fill-rule="evenodd" clip-rule="evenodd" d="M84.557 61.4907C84.7445 61.4907 84.8919 61.6448 84.8919 61.8323V64.1634C84.8919 64.351 84.7445 64.5051 84.557 64.5051C84.3694 64.5051 84.2153 64.351 84.2153 64.1634V61.8323C84.2153 61.6448 84.3694 61.4907 84.557 61.4907Z" fill="#2C7EFE"/>
<path fill-rule="evenodd" clip-rule="evenodd" d="M75.1858 55.1414C75.1858 54.9539 75.3398 54.7998 75.5274 54.7998H77.8585C78.0461 54.7998 78.2001 54.9539 78.2001 55.1414C78.2001 55.329 78.0461 55.4763 77.8585 55.4763H75.5274C75.3399 55.4764 75.1858 55.329 75.1858 55.1414Z" fill="#2C7EFE"/>
<path fill-rule="evenodd" clip-rule="evenodd" d="M90.907 55.1414C90.907 54.9539 91.0611 54.7998 91.2486 54.7998H93.5797C93.7673 54.7998 93.9213 54.9539 93.9213 55.1414C93.9213 55.329 93.7673 55.4763 93.5797 55.4763H91.2486C91.0611 55.4764 90.907 55.329 90.907 55.1414Z" fill="#2C7EFE"/>
<path fill-rule="evenodd" clip-rule="evenodd" d="M92.8162 51.3768V51.3701C92.7358 51.2026 92.5281 51.1356 92.3607 51.216L91.6172 51.5777C91.4497 51.6581 91.3827 51.8658 91.4631 52.0333C91.5435 52.2007 91.7512 52.2744 91.9186 52.194L92.6621 51.8323C92.8296 51.7452 92.8966 51.5443 92.8162 51.3768Z" fill="#2C7EFE"/>
<path fill-rule="evenodd" clip-rule="evenodd" d="M78.2535 58.4634C78.1731 58.2959 77.9722 58.2222 77.798 58.3093L77.0612 58.671C76.8871 58.7514 76.8201 58.9524 76.9005 59.1265C76.9808 59.294 77.1885 59.361 77.356 59.2806L78.0995 58.9189C78.2669 58.8385 78.3406 58.6308 78.2535 58.4634Z" fill="#2C7EFE"/>
<path fill-rule="evenodd" clip-rule="evenodd" d="M89.4536 47.6854C89.2928 47.5849 89.0852 47.6385 88.9847 47.7993L88.556 48.5027C88.4622 48.6634 88.5091 48.8778 88.6699 48.9716C88.8306 49.0721 89.045 49.0185 89.1387 48.8577L89.5675 48.1544C89.6679 47.9936 89.6143 47.7792 89.4536 47.6854Z" fill="#2C7EFE"/>
<path fill-rule="evenodd" clip-rule="evenodd" d="M81.0469 61.5245C80.8861 61.4307 80.6785 61.4776 80.578 61.6384L80.1493 62.3484C80.0488 62.5092 80.1024 62.7168 80.2632 62.8173C80.4239 62.9111 80.6383 62.8575 80.7321 62.6967L81.1608 61.9934C81.2613 61.8326 81.2077 61.625 81.0469 61.5245Z" fill="#2C7EFE"/>
<path fill-rule="evenodd" clip-rule="evenodd" d="M76.9004 51.3768V51.3701C76.9808 51.2026 77.1885 51.1356 77.356 51.216L78.0995 51.5777C78.267 51.6581 78.3407 51.8658 78.2536 52.0333C78.1732 52.2007 77.9722 52.2744 77.7981 52.194L77.0612 51.8323C76.8871 51.7452 76.8201 51.5443 76.9004 51.3768Z" fill="#2C7EFE"/>
<path fill-rule="evenodd" clip-rule="evenodd" d="M91.4631 58.4634C91.5435 58.2959 91.7511 58.2222 91.9186 58.3093L92.6621 58.671C92.8296 58.7514 92.8966 58.9524 92.8162 59.1265C92.7358 59.294 92.5281 59.361 92.3607 59.2806L91.6172 58.9189C91.4497 58.8385 91.376 58.6308 91.4631 58.4634Z" fill="#2C7EFE"/>
<path fill-rule="evenodd" clip-rule="evenodd" d="M80.2632 47.6854C80.4239 47.5849 80.6383 47.6385 80.7321 47.7993L81.1608 48.5027C81.2613 48.6634 81.2077 48.8778 81.0469 48.9716C80.8861 49.0721 80.6785 49.0185 80.578 48.8577L80.1493 48.1544C80.0488 47.9936 80.1024 47.7792 80.2632 47.6854Z" fill="#2C7EFE"/>
<path fill-rule="evenodd" clip-rule="evenodd" d="M88.6699 61.5245C88.8306 61.4307 89.045 61.4776 89.1387 61.6384L89.5675 62.3484C89.6679 62.5092 89.6143 62.7168 89.4536 62.8173C89.2928 62.9111 89.0852 62.8575 88.9847 62.6967L88.556 61.9934C88.4622 61.8326 88.5091 61.625 88.6699 61.5245Z" fill="#2C7EFE"/>
<path fill-rule="evenodd" clip-rule="evenodd" d="M81.3552 49.3605C81.5763 49.2265 81.8643 49.3002 81.9983 49.5212L85.2806 55.0944C85.4145 55.3154 85.3342 55.6035 85.1131 55.7307C84.8921 55.8647 84.6107 55.7911 84.4768 55.57L81.1945 49.9968C81.0605 49.7758 81.1342 49.4877 81.3552 49.3605Z" fill="#8183F1"/>
<path fill-rule="evenodd" clip-rule="evenodd" d="M89.2926 53.1181C89.4065 53.3459 89.3127 53.6272 89.085 53.7411L85.6084 55.4693C85.3739 55.5899 85.0926 55.4894 84.9787 55.2617C84.8649 55.0339 84.9586 54.7526 85.1931 54.6387L88.6697 52.9038C88.8974 52.7899 89.1787 52.8837 89.2926 53.1181Z" fill="#BE96F8"/>
<path fill-rule="evenodd" clip-rule="evenodd" d="M84.8585 56.7555C85.6891 56.7555 86.3657 56.079 86.3657 55.2484C86.3657 54.4178 85.6891 53.7412 84.8585 53.7412C84.0279 53.7412 83.3513 54.4178 83.3513 55.2484C83.3513 56.079 84.0279 56.7555 84.8585 56.7555Z" fill="#BE96F8"/>
<path fill-rule="evenodd" clip-rule="evenodd" d="M84.8583 56.0722C85.3138 56.0722 85.6823 55.7037 85.6823 55.2483C85.6823 54.7928 85.3138 54.4243 84.8583 54.4243C84.4028 54.4243 84.0344 54.7927 84.0344 55.2483C84.0344 55.7037 84.4028 56.0722 84.8583 56.0722Z" fill="white"/>
</g>
<defs>
<linearGradient id="paint0_linear_17066_24954" x1="72.4458" y1="126.991" x2="95.5669" y2="12.7451" gradientUnits="userSpaceOnUse">
<stop stop-color="#333366"/>
<stop offset="1" stop-color="#5959B3"/>
</linearGradient>
</defs>
</svg>
