<svg width="24" height="24" viewBox="0 0 24 24" fill="none" xmlns="http://www.w3.org/2000/svg">
<path d="M11.2957 4.4541C11.4006 4.55862 11.4838 4.68281 11.5406 4.81956C11.5974 4.9563 11.6266 5.10291 11.6266 5.25098C11.6266 5.39904 11.5974 5.54565 11.5406 5.6824C11.4838 5.81914 11.4006 5.94334 11.2957 6.04785L6.46854 10.875H20.2498C20.5482 10.875 20.8343 10.9936 21.0453 11.2045C21.2563 11.4155 21.3748 11.7017 21.3748 12C21.3748 12.2984 21.2563 12.5846 21.0453 12.7955C20.8343 13.0065 20.5482 13.125 20.2498 13.125H6.46854L11.2957 17.9541C11.5071 18.1654 11.6258 18.4521 11.6258 18.751C11.6258 19.0499 11.5071 19.3365 11.2957 19.5479C11.0844 19.7592 10.7977 19.8779 10.4989 19.8779C10.2 19.8779 9.91333 19.7592 9.70198 19.5479L2.95198 12.7979C2.8471 12.6933 2.76388 12.5691 2.7071 12.4324C2.65032 12.2957 2.62109 12.149 2.62109 12.001C2.62109 11.8529 2.65032 11.7063 2.7071 11.5696C2.76388 11.4328 2.8471 11.3086 2.95198 11.2041L9.70198 4.4541C9.8065 4.34923 9.93069 4.26601 10.0674 4.20923C10.2042 4.15245 10.3508 4.12322 10.4989 4.12322C10.6469 4.12322 10.7935 4.15245 10.9303 4.20923C11.067 4.26601 11.1912 4.34923 11.2957 4.4541Z" fill="#2D2D2D"/>
</svg>
