<svg width="16" height="16" viewBox="0 0 16 16" fill="none" xmlns="http://www.w3.org/2000/svg">
<path fill-rule="evenodd" clip-rule="evenodd" d="M14.6668 7.99992C14.6668 11.6819 11.6822 14.6666 8.00016 14.6666C4.31816 14.6666 1.3335 11.6819 1.3335 7.99992C1.3335 4.31792 4.31816 1.33325 8.00016 1.33325C11.6822 1.33325 14.6668 4.31792 14.6668 7.99992ZM10.6868 5.97992C10.7805 6.07367 10.8331 6.20075 10.8331 6.33325C10.8331 6.46575 10.7805 6.59283 10.6868 6.68659L7.3535 10.0199C7.25975 10.1136 7.13266 10.1661 7.00016 10.1661C6.86766 10.1661 6.74058 10.1136 6.64683 10.0199L5.3135 8.68659C5.26437 8.64081 5.22497 8.58561 5.19764 8.52428C5.17031 8.46294 5.15562 8.39674 5.15444 8.3296C5.15325 8.26247 5.1656 8.19578 5.19075 8.13352C5.21589 8.07126 5.25332 8.01471 5.3008 7.96723C5.34828 7.91975 5.40484 7.88232 5.4671 7.85717C5.52936 7.83202 5.59604 7.81967 5.66318 7.82086C5.73031 7.82204 5.79652 7.83674 5.85785 7.86406C5.91919 7.89139 5.97439 7.93079 6.02016 7.97992L7.00016 8.95992L8.49016 7.46925L9.98016 5.97992C10.0739 5.88629 10.201 5.83369 10.3335 5.83369C10.466 5.83369 10.5931 5.88629 10.6868 5.97992Z" fill="#08A081"/>
</svg>
