<svg width="20" height="20" viewBox="0 0 20 20" fill="none" xmlns="http://www.w3.org/2000/svg">
<path d="M10 20C15.5228 20 20 15.5228 20 10C20 4.47715 15.5228 0 10 0C4.47715 0 0 4.47715 0 10C0 15.5228 4.47715 20 10 20Z" fill="#3EBF5E"/>
<path d="M19.9992 9.99967C19.9992 14.6597 16.8109 18.5761 12.4957 19.6844L4.48389 11.6726L10.3733 11.9997L15.4451 5.33496L19.998 9.8879C19.9992 9.92437 19.9992 9.96202 19.9992 9.99967Z" fill="#26AB47"/>
<path d="M4.59755 11.7685C4.03141 11.3428 3.91716 10.5358 4.34278 9.9697C4.58775 9.64395 4.96239 9.45702 5.37049 9.45702C5.65049 9.45702 5.91716 9.54617 6.14147 9.71493L8.6097 11.5707L13.6387 5.51388C13.883 5.21584 14.2459 5.04395 14.6327 5.04395C14.9327 5.04395 15.2142 5.1446 15.4464 5.33519C15.9943 5.78434 16.0744 6.59532 15.6254 7.14316L9.03428 15.1045L4.59755 11.7685Z" fill="white"/>
</svg>
