<svg width="10" height="10" viewBox="0 0 10 10" fill="none" xmlns="http://www.w3.org/2000/svg">
<path d="M4.99935 2.70833C6.57852 2.70833 7.98685 3.59583 8.67435 5C7.98685 6.40417 6.58268 7.29167 4.99935 7.29167C3.41602 7.29167 2.01185 6.40417 1.32435 5C2.01185 3.59583 3.42018 2.70833 4.99935 2.70833ZM4.99935 1.875C2.91602 1.875 1.13685 3.17083 0.416016 5C1.13685 6.82917 2.91602 8.125 4.99935 8.125C7.08268 8.125 8.86185 6.82917 9.58268 5C8.86185 3.17083 7.08268 1.875 4.99935 1.875ZM4.99935 3.95833C5.57435 3.95833 6.04102 4.425 6.04102 5C6.04102 5.575 5.57435 6.04167 4.99935 6.04167C4.42435 6.04167 3.95768 5.575 3.95768 5C3.95768 4.425 4.42435 3.95833 4.99935 3.95833ZM4.99935 3.125C3.96602 3.125 3.12435 3.96667 3.12435 5C3.12435 6.03333 3.96602 6.875 4.99935 6.875C6.03268 6.875 6.87435 6.03333 6.87435 5C6.87435 3.96667 6.03268 3.125 4.99935 3.125Z" fill="#4BAC99"/>
</svg>
