<svg width="30" height="30" viewBox="0 0 30 30" fill="none" xmlns="http://www.w3.org/2000/svg">
<path d="M14.9999 29.9999C6.71561 29.9999 -0.00012207 23.2842 -0.00012207 14.9999C-0.00012207 6.71561 6.71561 -0.00012207 14.9999 -0.00012207C23.2842 -0.00012207 29.9999 6.71561 29.9999 14.9999C29.9908 23.2804 23.2804 29.9908 14.9999 29.9999ZM2.99988 15.2579C3.07085 21.8597 8.46154 27.1642 15.0637 27.1289C21.6658 27.0932 26.9992 21.7311 26.9992 15.1289C26.9992 8.52664 21.6658 3.16454 15.0637 3.12887C8.46154 3.09356 3.07085 8.39802 2.99988 14.9999V15.2579ZM17.9999 22.4999H13.4999V16.4999H11.9999V13.4999H16.4999V19.4999H17.9999V22.4999ZM16.4999 10.4999H13.4999V7.49988H16.4999V10.4999Z" fill="#8DCABE"/>
</svg>
