<svg width="24" height="18" viewBox="0 0 24 18" fill="none" xmlns="http://www.w3.org/2000/svg">
<path d="M24 13.9695C24 14.6412 23.8524 15.2366 23.5571 15.7557C23.2913 16.2443 22.937 16.6565 22.4941 16.9924C22.0512 17.3282 21.564 17.5878 21.0325 17.771C20.5306 17.9237 20.0581 18 19.6152 18C18.9361 18 18.2422 17.8473 17.5336 17.542C16.8544 17.2061 16.2344 16.7328 15.6734 16.1221C15.1123 15.5115 14.6547 14.7786 14.3003 13.9237C13.946 13.0687 13.7689 12.1221 13.7689 11.084C13.7689 9.28244 14.0937 7.74046 14.7433 6.45802C15.4224 5.17557 16.2196 4.10687 17.1349 3.25191C18.0798 2.36641 19.0394 1.67939 20.0138 1.19084C21.0178 0.671756 21.8445 0.305344 22.4941 0.0916031V1.55725C21.9036 1.92366 21.2687 2.32061 20.5896 2.74809C19.94 3.17557 19.3347 3.67939 18.7737 4.25954C18.2422 4.83969 17.7993 5.49618 17.445 6.22901C17.0907 6.96183 16.9135 7.78626 16.9135 8.70229C16.9135 9.16031 16.9578 9.52672 17.0464 9.80153C17.1349 10.0763 17.2383 10.2901 17.3564 10.4427C17.504 10.5954 17.6369 10.7023 17.755 10.7634C17.9027 10.8244 18.0208 10.855 18.1093 10.855C18.4341 10.855 18.8328 10.7634 19.3052 10.5802C19.7776 10.3664 20.2205 10.2595 20.6339 10.2595C21.0178 10.2595 21.4016 10.3511 21.7855 10.5344C22.1988 10.687 22.5679 10.9313 22.8927 11.2672C23.2175 11.5725 23.4833 11.9542 23.69 12.4122C23.8967 12.8702 24 13.3893 24 13.9695ZM10.1869 13.8779C10.1869 14.5496 10.0392 15.145 9.74394 15.6641C9.4782 16.1832 9.12387 16.6107 8.68097 16.9466C8.23806 17.2519 7.75086 17.4962 7.21938 17.6794C6.71742 17.8321 6.23022 17.9084 5.75779 17.9084C5.07866 17.9084 4.39954 17.7557 3.72042 17.4504C3.04129 17.1145 2.42122 16.6565 1.86021 16.0763C1.29919 15.4656 0.841522 14.7328 0.487197 13.8779C0.162399 13.0229 0 12.0763 0 11.0382C0 9.23664 0.324798 7.69466 0.974394 6.41221C1.65352 5.09924 2.45075 4.01527 3.36609 3.16031C4.31096 2.27481 5.27059 1.58779 6.24498 1.09924C7.21938 0.580153 8.03137 0.21374 8.68097 0V1.51145C8.09043 1.87786 7.45559 2.27481 6.77647 2.70229C6.12687 3.12977 5.52157 3.63359 4.96055 4.21374C4.42907 4.79389 3.9714 5.45038 3.58754 6.18321C3.23322 6.8855 3.05606 7.70992 3.05606 8.65649C3.05606 9.51145 3.21845 10.0763 3.54325 10.3511C3.89758 10.626 4.16332 10.7634 4.34048 10.7634C4.63576 10.7634 5.01961 10.6718 5.49204 10.4886C5.96447 10.3053 6.40738 10.2137 6.82076 10.2137C7.20461 10.2137 7.58847 10.3053 7.97232 10.4886C8.3857 10.6412 8.75479 10.8855 9.07958 11.2214C9.40438 11.5267 9.67013 11.9084 9.87682 12.3664C10.0835 12.7939 10.1869 13.2977 10.1869 13.8779Z" fill="#8DCABE"/>
</svg>
