<svg width="20" height="21" viewBox="0 0 20 21" fill="none" xmlns="http://www.w3.org/2000/svg">
<path d="M10 4.25C8.3424 4.25 6.75269 4.90848 5.58058 6.08058C4.40848 7.25269 3.75 8.8424 3.75 10.5C3.75 12.1576 4.40848 13.7473 5.58058 14.9194C6.75269 16.0915 8.3424 16.75 10 16.75C11.6576 16.75 13.2473 16.0915 14.4194 14.9194C15.5915 13.7473 16.25 12.1576 16.25 10.5C16.25 8.8424 15.5915 7.25269 14.4194 6.08058C13.2473 4.90848 11.6576 4.25 10 4.25ZM2.5 10.5C2.5 9.51509 2.69399 8.53982 3.0709 7.62987C3.44781 6.71993 4.00026 5.89314 4.6967 5.1967C5.39314 4.50026 6.21993 3.94781 7.12987 3.5709C8.03982 3.19399 9.01509 3 10 3C10.9849 3 11.9602 3.19399 12.8701 3.5709C13.7801 3.94781 14.6069 4.50026 15.3033 5.1967C15.9997 5.89314 16.5522 6.71993 16.9291 7.62987C17.306 8.53982 17.5 9.51509 17.5 10.5C17.5 12.4891 16.7098 14.3968 15.3033 15.8033C13.8968 17.2098 11.9891 18 10 18C8.01088 18 6.10322 17.2098 4.6967 15.8033C3.29018 14.3968 2.5 12.4891 2.5 10.5Z" fill="#66738F"/>
</svg>
