<svg width="120" height="30" viewBox="0 0 120 30" fill="none" xmlns="http://www.w3.org/2000/svg">
<g clip-path="url(#clip0_15325_3598)">
<path d="M37.3965 12.9329C37.3965 12.2764 37.9303 11.8892 38.9029 11.8892C40.0671 11.8892 40.7703 12.4958 40.8936 13.4195H44.7331C44.4664 10.7489 42.5205 8.80829 39.0258 8.80829C35.531 8.80829 33.5123 10.7018 33.5123 13.0062C33.5123 17.9836 40.8922 16.4062 40.8922 18.593C40.8922 19.1996 40.3351 19.6838 39.2653 19.6838C38.1226 19.6838 37.2746 19.0535 37.178 18.1041H33.0757C33.2695 20.7275 35.6991 22.7415 39.3162 22.7415C42.7162 22.7415 44.8035 20.9679 44.8035 18.614C44.7302 13.5671 37.3965 15.0936 37.3965 12.9329Z" fill="#08A081"/>
<path d="M59.3958 15.5563C59.3958 11.4288 56.6048 8.80829 52.6448 8.80829C48.6848 8.80829 45.7976 11.4788 45.7976 15.7763C45.7976 20.0738 48.6615 22.7444 52.6453 22.7444C56.0218 22.7444 58.4257 20.7042 59.0819 18.0598H54.6616C54.4794 18.4737 54.1744 18.8214 53.7878 19.0559C53.4012 19.2903 52.9523 19.4 52.5009 19.3701C51.1677 19.3701 50.0763 18.5464 49.9299 16.7728H59.3275C59.3747 16.3692 59.3993 15.9632 59.4007 15.5568L59.3958 15.5563ZM49.951 14.4655C50.01 13.8127 50.3175 13.2073 50.8092 12.7739C51.3009 12.3405 51.9399 12.1118 52.5952 12.1349C53.9528 12.1349 55.1455 12.9848 55.1455 14.4655H49.951Z" fill="#08A081"/>
<path d="M70.1772 9.00526V10.9207C69.4473 9.73037 68.0165 8.81006 66.0001 8.81006C62.6707 8.81006 60.0261 11.4806 60.0261 15.7519C60.0261 20.0232 62.6707 22.7457 65.978 22.7457C66.8002 22.7838 67.6186 22.6097 68.3544 22.24C69.0897 21.8704 69.718 21.3177 70.1782 20.635V22.5523H74.3289V9.00526H70.1772ZM67.2138 19.13C65.6602 19.13 64.2504 17.914 64.2504 15.7533C64.2504 13.5927 65.6602 12.4262 67.2138 12.4262C68.7675 12.4262 70.1772 13.6165 70.1772 15.7766C70.1772 17.9368 68.7935 19.1271 67.2138 19.1271V19.13Z" fill="#08A081"/>
<path d="M84.3536 15.8027L89.9877 9.00506H84.8635L80.76 14.5162V4.58189H76.6089V22.5507H80.76V16.8697L84.8876 22.5507H90.0348L84.3536 15.8027Z" fill="#08A081"/>
<path d="M100.112 9.00443V16.3595C100.112 18.206 99.0897 19.2234 97.4889 19.2234C95.8881 19.2234 94.8885 18.206 94.8885 16.3595V9.00443H90.7639V16.9166C90.7639 20.5351 92.8746 22.6972 96.0055 22.6972C96.8003 22.7201 97.5881 22.5508 98.3033 22.2038C99.018 21.8569 99.6389 21.3424 100.112 20.7042V22.5506H104.263V9.00443H100.112Z" fill="#08A081"/>
<path d="M114.778 8.85781C113.989 8.83315 113.205 8.99623 112.491 9.33359C111.777 9.67099 111.153 10.173 110.671 10.7985V9.00448H106.521V22.5487H110.671V15.1955C110.671 13.3491 111.694 12.3316 113.271 12.3316C114.848 12.3316 115.868 13.3491 115.868 15.1955V22.5487H119.996V14.6332C119.996 10.9923 117.908 8.85545 114.775 8.85545L114.778 8.85781Z" fill="#08A081"/>
<path d="M14.7331 0.483643C11.8188 0.484208 8.97023 1.34887 6.54734 2.96829C4.12445 4.58772 2.23615 6.88918 1.12117 9.58173C0.00619246 12.2742 -0.285388 15.2369 0.283294 18.0952C0.851975 20.9534 2.25538 23.5789 4.31608 25.6395C6.37675 27.7002 9.00221 29.1036 11.8604 29.6723C14.7187 30.241 17.6814 29.9494 20.3739 28.8344C23.0664 27.7195 25.3679 25.8312 26.9873 23.4083C28.6068 20.9854 29.4714 18.1368 29.472 15.2225C29.472 13.287 29.0907 11.3704 28.35 9.58218C27.6093 7.79397 26.5237 6.16918 25.1551 4.80055C23.7864 3.43192 22.1616 2.34627 20.3734 1.60557C18.5852 0.864874 16.6687 0.483643 14.7331 0.483643ZM24.0365 11.6625C24.0341 11.6913 24.0259 11.7194 24.0124 11.745C23.9989 11.7706 23.9804 11.7933 23.958 11.8115C23.917 11.8429 23.8667 11.8596 23.8152 11.8591C23.8047 11.8591 23.4595 11.8172 23.4595 11.8172C23.431 11.8146 23.4034 11.8063 23.3782 11.7928C23.353 11.7794 23.3307 11.761 23.3127 11.7388C23.2946 11.7167 23.2812 11.6911 23.2731 11.6637C23.2651 11.6363 23.2626 11.6076 23.2657 11.5792C23.2657 11.5792 23.3076 11.0926 23.3076 10.8441C23.3081 9.28043 22.721 7.77373 21.6626 6.62275C21.4872 6.42578 21.2561 6.28672 20.9999 6.22399C20.7436 6.16122 20.4745 6.17767 20.2278 6.27125C19.9812 6.36482 19.7688 6.53104 19.6187 6.74796C19.4686 6.96482 19.3879 7.22221 19.3872 7.48598L19.382 19.5909C19.3806 20.8979 19.0162 22.1789 18.3293 23.2909C17.6425 24.4029 16.6602 25.3022 15.4921 25.8886C14.5392 26.3695 13.4835 26.611 12.4163 26.5923H12.3849C11.4653 26.593 10.5546 26.4124 9.70487 26.061C8.85515 25.7096 8.08293 25.1942 7.43248 24.5442C6.78199 23.8942 6.26598 23.1224 5.91394 22.2729C5.56185 21.4234 5.38065 20.5128 5.38065 19.5933C5.38065 19.3185 5.42829 18.7772 5.42829 18.7772C5.42952 18.7477 5.43718 18.7188 5.45079 18.6926C5.46435 18.6664 5.48345 18.6434 5.50684 18.6253C5.54756 18.5935 5.598 18.5766 5.64968 18.5777C5.65493 18.5777 6.00535 18.6168 6.00535 18.6168C6.06204 18.6239 6.11381 18.6527 6.14991 18.697C6.18597 18.7413 6.2036 18.7978 6.19913 18.8548C6.19913 18.8572 6.15483 19.3438 6.15483 19.5923C6.15458 21.1564 6.74284 22.6634 7.8027 23.8136C7.97835 24.0101 8.20946 24.1487 8.46548 24.2111C8.72149 24.2736 8.99047 24.257 9.23686 24.1635C9.48329 24.0701 9.69554 23.9041 9.84575 23.6875C9.99591 23.4709 10.0769 23.2139 10.0781 22.9504V10.8488C10.0798 9.53767 10.4466 8.25299 11.1376 7.13866C11.8285 6.02437 12.8162 5.1246 13.9899 4.5402C14.4579 4.29672 14.9568 4.11812 15.473 4.00933C15.9891 3.89704 16.516 3.8418 17.0442 3.84459C17.7864 3.84147 18.5244 3.95539 19.231 4.18216C20.341 4.54027 21.3435 5.17062 22.1473 6.01573C23.4006 7.3397 24.094 9.09668 24.0827 10.9198C24.0809 11.1683 24.0365 11.6625 24.0365 11.6625Z" fill="#08A081"/>
</g>
<defs>
<clipPath id="clip0_15325_3598">
<rect width="120" height="29.472" fill="white" transform="translate(0 0.483643)"/>
</clipPath>
</defs>
</svg>
