<svg width="73" height="89" viewBox="0 0 73 89" fill="none" xmlns="http://www.w3.org/2000/svg">
<path d="M0 0H25.7159L73 59.4824V89L34.8409 43.3819L0 0Z" fill="#FFEFC0"/>
<path d="M19.6052 13.5581C19.0676 12.8919 18.7449 12.2117 18.6371 11.5175C18.5292 10.8233 18.6244 10.1451 18.9228 9.48294C19.2323 8.82195 19.7327 8.21264 20.4237 7.655C21.1148 7.09737 21.813 6.73961 22.5182 6.58172C23.2285 6.43006 23.9115 6.48029 24.5672 6.73241C25.223 6.98453 25.8196 7.44368 26.3572 8.10985C26.7189 8.55812 26.9839 9.03303 27.1522 9.53458C27.3317 10.0373 27.3962 10.525 27.3457 10.9974L26.2993 11.2867C26.3235 10.7943 26.2685 10.3504 26.1344 9.9549C26.0116 9.56061 25.807 9.18602 25.5206 8.83115C24.9479 8.12139 24.2929 7.75557 23.5557 7.73368C22.8185 7.71179 22.0483 8.02488 21.2451 8.67294C20.442 9.321 19.9701 10.0102 19.8295 10.7404C19.6951 11.4656 19.9143 12.1831 20.487 12.8929C20.7733 13.2477 21.0931 13.5294 21.4463 13.7378C21.8108 13.9474 22.2362 14.0924 22.7225 14.1728L22.2187 15.1345C21.7524 15.079 21.2894 14.9129 20.8298 14.6362C20.3751 14.3657 19.9669 14.0064 19.6052 13.5581ZM23.5661 18.4669C23.1943 18.0061 22.9693 17.5298 22.891 17.0379C22.8128 16.5459 22.8726 16.0659 23.0705 15.5978C23.2797 15.1309 23.6271 14.7015 24.1127 14.3097C24.5984 13.9178 25.0883 13.6715 25.5827 13.5707C26.0883 13.4711 26.5732 13.5116 27.0375 13.6921C27.5018 13.8725 27.9198 14.1931 28.2916 14.6538C28.6533 15.1021 28.8733 15.5722 28.9515 16.0641C29.0298 16.5561 28.9669 17.0386 28.7627 17.5117C28.5648 17.9798 28.223 18.4098 27.7374 18.8017C27.2518 19.1935 26.7562 19.4392 26.2506 19.5388C25.7512 19.6334 25.2694 19.5904 24.8051 19.4099C24.3408 19.2295 23.9278 18.9151 23.5661 18.4669ZM24.2945 17.8791C24.606 18.2651 24.9973 18.4633 25.4683 18.4739C25.9394 18.4844 26.4395 18.2761 26.9687 17.8491C27.498 17.4221 27.8041 16.9798 27.8871 16.5221C27.9764 16.0595 27.8653 15.6351 27.5538 15.2491C27.2373 14.8569 26.8435 14.6555 26.3724 14.645C25.9076 14.6295 25.4106 14.8352 24.8814 15.2622C24.3522 15.6893 24.0429 16.1341 23.9537 16.5967C23.8644 17.0594 23.978 17.4868 24.2945 17.8791ZM26.3285 21.7183L30.8859 18.0409L31.6244 18.9562L30.8866 19.5515C31.2586 19.4774 31.6142 19.5041 31.9533 19.6313C32.2924 19.7586 32.5926 19.9841 32.8539 20.3078C33.4165 21.0051 33.4757 21.7027 33.0313 22.4005C33.4333 22.3126 33.8232 22.3372 34.2011 22.4743C34.579 22.6114 34.9061 22.8511 35.1824 23.1935C36.0063 24.2146 35.8081 25.2175 34.5878 26.2021L31.7768 28.4703L31.0157 27.5271L33.78 25.2966C34.166 24.9851 34.394 24.688 34.4641 24.4054C34.5391 24.1289 34.4536 23.8382 34.2074 23.5331C33.9311 23.1907 33.5911 23.0178 33.1876 23.0145C32.7902 23.0062 32.3861 23.1678 31.9752 23.4994L29.4257 25.5566L28.6646 24.6134L31.4289 22.3828C31.8149 22.0714 32.0454 21.7774 32.1205 21.501C32.1955 21.2245 32.11 20.9338 31.8638 20.6287C31.5875 20.2863 31.2476 20.1134 30.844 20.1101C30.4517 20.108 30.0501 20.2728 29.6391 20.6043L27.0896 22.6616L26.3285 21.7183ZM38.3857 25.1761L39.3663 24.3849L40.2555 25.4869L39.275 26.2781L38.3857 25.1761ZM32.8409 29.7891L37.3983 26.1117L38.1594 27.0549L33.602 30.7323L32.8409 29.7891ZM34.6733 32.06L39.2307 28.3826L39.9692 29.2978L39.2127 29.9082C39.6122 29.8428 39.9916 29.8861 40.3508 30.0383C40.7151 30.1967 41.0328 30.444 41.3041 30.7802C42.1732 31.8573 41.9977 32.8882 40.7774 33.8728L37.9664 36.141L37.2053 35.1978L39.9602 32.9748C40.3525 32.6583 40.5761 32.3494 40.631 32.048C40.691 31.7529 40.5904 31.4435 40.3291 31.1198C40.0227 30.74 39.6551 30.5329 39.2264 30.4984C38.809 30.4652 38.4042 30.6068 38.0119 30.9233L35.4344 33.0032L34.6733 32.06ZM38.9155 40.9289C38.5839 40.518 38.3247 40.0949 38.138 39.6596C37.945 39.2294 37.8408 38.7944 37.8252 38.3547L38.7312 38.1016C38.7654 38.5263 38.8545 38.917 38.9985 39.2737C39.1424 39.6304 39.34 39.9644 39.5911 40.2757C40.2945 41.1473 41.0819 41.2315 41.9536 40.5282L42.6727 39.9479C42.2932 40.0382 41.9126 40.0061 41.5309 39.8515C41.1542 39.7032 40.8277 39.4578 40.5514 39.1154C40.2199 38.7044 40.0244 38.2711 39.965 37.8153C39.9118 37.3545 39.9855 36.9044 40.1861 36.465C40.3929 36.0206 40.7235 35.6151 41.178 35.2483C41.6263 34.8866 42.0863 34.6542 42.5582 34.551C43.0362 34.4428 43.4917 34.4659 43.9247 34.6202C44.3638 34.7695 44.7492 35.0497 45.0808 35.4606C45.3621 35.8092 45.5355 36.1833 45.6009 36.5829C45.6663 36.9824 45.6147 37.358 45.4463 37.7098L46.2401 37.0693L46.9786 37.9845L42.8041 41.3529C42.0881 41.9307 41.4045 42.1791 40.7532 42.0981C40.0957 42.0221 39.4831 41.6324 38.9155 40.9289ZM41.4701 38.7442C41.7916 39.1426 42.1848 39.3496 42.6496 39.3652C43.1144 39.3807 43.5834 39.1976 44.0566 38.8158C44.5298 38.434 44.8048 38.0168 44.8816 37.5642C44.9646 37.1065 44.8454 36.6785 44.5239 36.28C44.2023 35.8816 43.8092 35.6746 43.3443 35.659C42.8857 35.6385 42.4198 35.8191 41.9466 36.2009C41.4735 36.5827 41.1954 37.0024 41.1123 37.46C41.0293 37.9177 41.1485 38.3457 41.4701 38.7442ZM46.6735 47.1037C46.3721 46.7302 46.1375 46.3438 45.9696 45.9447C45.808 45.5406 45.7264 45.1593 45.7249 44.8007L46.5785 44.5591C46.6025 44.9201 46.6815 45.2727 46.8153 45.617C46.9542 45.9675 47.1367 46.2828 47.3628 46.563C47.6291 46.8929 47.8892 47.0942 48.1431 47.1669C48.397 47.2395 48.6236 47.1955 48.8228 47.0347C48.9847 46.9041 49.064 46.7476 49.0607 46.5652C49.0637 46.3778 48.9997 46.1519 48.8686 45.8876L48.3302 44.8572C47.859 43.9421 47.9472 43.2234 48.5947 42.7009C49.0243 42.3542 49.5049 42.2492 50.0365 42.3856C50.568 42.5221 51.0574 42.8673 51.5045 43.4214C51.7607 43.739 51.9577 44.0786 52.0954 44.4403C52.2381 44.8083 52.2939 45.1642 52.2629 45.5079L51.4093 45.7495C51.4205 45.4321 51.3717 45.1168 51.2629 44.8037C51.1541 44.4905 51.0043 44.2157 50.8134 43.9791C50.5522 43.6553 50.2915 43.4596 50.0313 43.392C49.7774 43.3194 49.5477 43.3659 49.3422 43.5317C49.0309 43.7829 48.9975 44.1491 49.2419 44.6304L49.7803 45.6607C50.026 46.1307 50.1351 46.5463 50.1079 46.9075C50.0857 47.2749 49.9097 47.5918 49.5797 47.858C49.1439 48.2097 48.6633 48.3148 48.1379 48.1733C47.6188 48.0268 47.1307 47.6703 46.6735 47.1037ZM50.6326 52.0101C50.2608 51.5494 50.0358 51.0731 49.9575 50.5811C49.8792 50.0892 49.9391 49.6092 50.137 49.1411C50.3462 48.6742 50.6936 48.2448 51.1792 47.8529C51.6648 47.4611 52.1548 47.2148 52.6491 47.114C53.1547 47.0144 53.6397 47.0549 54.104 47.2353C54.5682 47.4158 54.9863 47.7364 55.358 48.1971C55.7197 48.6454 55.9397 49.1155 56.018 49.6074C56.0963 50.0993 56.0333 50.5819 55.8292 51.055C55.6312 51.5231 55.2895 51.9531 54.8038 52.3449C54.3182 52.7368 53.8226 52.9825 53.317 53.0821C52.8177 53.1766 52.3358 53.1337 51.8716 52.9532C51.4073 52.7728 50.9943 52.4584 50.6326 52.0101ZM51.361 51.4223C51.6725 51.8084 52.0637 52.0066 52.5348 52.0171C53.0059 52.0276 53.506 51.8194 54.0352 51.3924C54.5644 50.9654 54.8705 50.523 54.9536 50.0654C55.0428 49.6027 54.9317 49.1784 54.6203 48.7924C54.3038 48.4002 53.91 48.1988 53.4389 48.1883C52.9741 48.1728 52.477 48.3785 51.9478 48.8055C51.4186 49.2325 51.1094 49.6774 51.0201 50.14C50.9309 50.6027 51.0445 51.0301 51.361 51.4223ZM54.8934 57.2906C54.5217 56.8299 54.2967 56.3536 54.2184 55.8616C54.1401 55.3697 54.1999 54.8897 54.3979 54.4216C54.607 53.9546 54.9545 53.5253 55.4401 53.1334C55.9257 52.7416 56.4157 52.4952 56.91 52.3945C57.4156 52.2949 57.9005 52.3353 58.3648 52.5158C58.8291 52.6963 59.2471 53.0168 59.6189 53.4776C59.9806 53.9258 60.2006 54.3959 60.2789 54.8879C60.3572 55.3798 60.2942 55.8623 60.09 56.3355C59.8921 56.8036 59.5503 57.2336 59.0647 57.6254C58.5791 58.0173 58.0835 58.263 57.5779 58.3625C57.0785 58.4571 56.5967 58.4141 56.1324 58.2337C55.6681 58.0532 55.2551 57.7389 54.8934 57.2906ZM55.6219 56.7028C55.9333 57.0888 56.3246 57.2871 56.7957 57.2976C57.2667 57.3081 57.7669 57.0999 58.2961 56.6728C58.8253 56.2458 59.1314 55.8035 59.2144 55.3459C59.3037 54.8832 59.1926 54.4589 58.8811 54.0729C58.5646 53.6806 58.1708 53.4793 57.6998 53.4688C57.2349 53.4532 56.7379 53.659 56.2087 54.086C55.6795 54.513 55.3703 54.9578 55.281 55.4205C55.1917 55.8831 55.3054 56.3106 55.6219 56.7028ZM57.6408 60.5234L62.1982 56.846L62.9366 57.7612L62.1802 58.3716C62.5797 58.3062 62.9591 58.3496 63.3183 58.5018C63.6826 58.6602 64.0003 58.9075 64.2716 59.2437C65.1407 60.3207 64.9651 61.3516 63.7449 62.3363L60.9339 64.6045L60.1728 63.6613L62.9277 61.4382C63.32 61.1218 63.5436 60.8128 63.5985 60.5115C63.6585 60.2164 63.5579 59.907 63.2966 59.5832C62.9902 59.2034 62.6226 58.9963 62.1939 58.9619C61.7765 58.9287 61.3716 59.0703 60.9794 59.3868L58.4019 61.4666L57.6408 60.5234Z" fill="#E5B223"/>
</svg>
