<svg version="1.2" xmlns="http://www.w3.org/2000/svg" viewBox="0 0 1540 1386" width="1540" height="1386">
	<title>776364e6419216ffd84ddf8d8815711b-svg</title>
	<style>
		.s0 { fill: #f49000 } 
		.s1 { fill: #58cc02 } 
		.s2 { fill: #89e219 } 
		.s3 { fill: #ffc200 } 
		.s4 { fill: #ffde00 } 
		.s5 { fill: #ffffff } 
		.s6 { fill: #4b4b4b } 
	</style>
	<g id="feet">
		<path id="left_foot" fill-rule="evenodd" class="s0" d="m488.8 1314.6c0-39.3 32.1-71.3 71.3-71.3h111.6c39.3 0 71.3 32 71.3 71.3 0 39.3-32 71.3-71.3 71.3h-111.6c-39.2 0-71.3-32-71.3-71.3z"/>
		<path id="right_foot" fill-rule="evenodd" class="s0" d="m796.8 1314.6c0-39.3 32-71.3 71.3-71.3h111.6c39.2 0 71.3 32 71.3 71.3 0 39.3-32.1 71.3-71.3 71.3h-111.6c-39.3 0-71.3-32-71.3-71.3z"/>
	</g>
	<g id="wings">
		<path id="left_wing" class="s1" d="m8.3 1044.9l402-727.5c21.7-38.2 74.4-44.4 104.4-12.4 145.7 156.1 174.6 392.7 69.2 584.9-105.4 192.2-321.4 292.4-531.1 251.1-43.4-8.3-66.2-56.8-44.5-96.1z"/>
		<path id="right_wing" class="s1" d="m1486 1140c-209.8 41.3-425.7-58.9-531.1-251.1-105.4-192.2-76.5-428.9 69.2-584.9 31-32 83.7-25.8 105.4 13.4l402 727.5c21.7 39.3-1.1 87.8-45.5 95.1z"/>
	</g>
	<path id="torso" fill-rule="evenodd" class="s1" d="m473.3 14.7c144.7 60.9 243.9 91.9 297.6 91.9 53.8 0 150.9-29.9 293.5-90.9 94-40.3 203.6 4.1 243.9 98.2 9.3 22.7 14.4 47.5 14.4 72.3v577.6c0 305.9-248 553.9-553.8 553.9-305.9-1-553.9-248-553.9-553.9v-578.6c0-102.3 82.7-185 186-185 24.8 0 48.6 5.2 72.3 14.5z"/>
	<path id="belly" class="s2" d="m646.9 994.3c-36.1 0-68.2-22.8-79.5-54.8-2.1-6.2 3.1-13.4 10.3-13.4h139.5c7.2 0 12.4 6.2 10.3 13.4-11.3 32-44.4 54.8-80.6 54.8zm323.5-54.8c-11.4 32-44.5 54.8-80.6 54.8-36.2 0-68.2-22.8-79.6-54.8-2.1-6.2 3.1-13.4 10.3-13.4h139.5c7.3 0 12.4 7.2 10.4 13.4zm-122 116.8c-11.3 32-44.4 54.7-80.6 54.7-36.1 0-68.2-22.7-79.5-54.7-2.1-6.2 3.1-13.5 10.3-13.5h139.5c8.3 0 13.4 7.3 10.3 13.5z"/>
	<g id="face">
		<g id="mask">
			<path id="Combined-Shape-Copy-57" class="s2" d="m505.4 101.5l167.4 181.8c9.3 9.3 5.1 24.8-6.2 31-57.9 25.9-126.1 11.4-169.5-37.2-43.4-48.5-50.6-117.8-19.6-172.5 7.2-11.4 18.6-12.4 27.9-3.1z"/>
			<path id="Path-12" fill-rule="evenodd" class="s2" d="m650 260.6c61 62 168.5 62 235.6 0 67.2-62-10.3 359.6-10.3 357.5 0 0-36.2-1-108.5 0-19.6 0-54.8 0-104.4 0-48.5-279-52.7-398.8-12.4-357.5z"/>
			<path id="Combined-Shape-Copy-58" class="s2" d="m413.4 144.9l163.3 182.9c9.3 9.3 5.1 24.8-6.2 31-57.9 25.8-126.1 11.3-169.5-37.2-43.4-48.6-50.6-117.8-18.6-172.6 6.2-12.4 21.7-13.4 31-4.1z"/>
			<path id="Rectangle-130-Copy-36" fill-rule="evenodd" class="s2" d="m271.8 414.5c0-121 98.1-219 219-219h4.3c121 0 219 98 219 219v113.8c0 121-98 219-219 219h-4.3c-120.9 0-219-98-219-219z"/>
			<path id="Combined-Shape-Copy-59" class="s2" d="m1060.3 104.6c32 54.7 24.8 124-18.6 172.5-43.4 48.6-111.6 63.1-169.5 37.2-11.4-6.2-15.5-21.7-6.2-31l164.3-181.8c8.3-9.3 23.8-8.3 30 3.1z"/>
			<path id="Combined-Shape-Copy-60" class="s2" d="m1155.3 149c32.1 54.8 24.8 124-18.6 172.6-43.4 48.5-111.6 63-169.4 37.2-11.4-6.2-15.5-21.7-6.2-31l164.3-182.9c9.3-9.3 24.8-8.3 29.9 4.1z"/>
			<path id="Rectangle-130-Copy-37" fill-rule="evenodd" class="s2" d="m1040.6 195.5h6.2c120.9 0 218.1 98.2 218.1 218v115.8c0 120.9-98.2 218-218.1 218h-5.1c-119.9 0-217-97.1-218.1-217l-1-115.7c-1-120.9 96.1-219.1 218-219.1-1 0 0 0 0 0z"/>
		</g>
		<g id="mouth">
			<path id="lower_beak" fill-rule="evenodd" class="s0" d="m769.9 530.3c42.4 0 77.5 35.1 77.5 77.5v24.8c0 42.4-35.1 77.5-77.5 77.5-42.4 0-77.5-35.1-77.5-77.5v-24.8c0-42.4 35.1-77.5 77.5-77.5z"/>
			<g id="upper_beak">
				<path id="glare_2_" class="s3" d="m662.4 613c9.3-47.6 54.8-82.7 108.5-82.7 50.7 0 95.1 36.2 104.4 82.7v4.1c0 3.1-1 5.2-4.1 4.1l-100.3 17.6c-2 0-2 0-4.1 0l-100.2-17.6c-3.1 0-4.2-1-4.2-4.1z"/>
				<path id="Layer" class="s4" d="m792.6 580.9c-2 0-3.1 0-5.1-1q-20.2-7.7-37.2 0c-8.3 3.1-16.6-1-19.7-8.3-3.1-8.2 1.1-16.5 8.3-19.6q27.9-10.8 58.9 0c8.3 3.1 12.4 11.4 9.3 19.6-2.1 5.2-8.3 9.3-14.5 9.3z"/>
			</g>
		</g>
		<g id="left_eye">
			<path id="eye_ball_1_" fill-rule="evenodd" class="s5" d="m501.2 274c83.7 0 151.9 68.2 151.9 151.9v92c0 83.7-68.2 151.9-151.9 151.9-83.7 0-151.9-68.2-151.9-151.9v-92c0-83.7 68.2-151.9 151.9-151.9z"/>
			<path id="pupil_1_" fill-rule="evenodd" class="s6" d="m525 360.8c39.3 0 71.3 32.1 71.3 71.3v78.6c0 39.2-32 71.3-71.3 71.3-39.3 0-71.3-32.1-71.3-71.3v-78.6c0-39.2 32-71.3 71.3-71.3z"/>
			<path id="glare_1_" class="s5" d="m465.1 449.7c-25.7 0-46.5-20.8-46.5-46.5 0-25.7 20.8-46.5 46.5-46.5 25.7 0 46.5 20.8 46.5 46.5 0 25.7-20.8 46.5-46.5 46.5z"/>
		</g>
		<g id="right_eye">
			<path id="eye_ball" fill-rule="evenodd" class="s5" d="m1035.5 274c83.7 0 151.9 68.2 151.9 151.9v92c0 83.7-68.2 151.9-151.9 151.9-83.7 0-151.9-68.2-151.9-151.9v-92c0-83.7 68.2-151.9 151.9-151.9z"/>
			<path id="pupil" fill-rule="evenodd" class="s6" d="m1011.7 360.8c39.3 0 71.3 32.1 71.3 71.3v78.6c0 39.2-32 71.3-71.3 71.3-39.3 0-71.3-32.1-71.3-71.3v-78.6c0-39.2 32-71.3 71.3-71.3z"/>
			<path id="glare" class="s5" d="m943.5 449.7c-25.7 0-46.5-20.8-46.5-46.5 0-25.7 20.8-46.5 46.5-46.5 25.7 0 46.5 20.8 46.5 46.5 0 25.7-20.8 46.5-46.5 46.5z"/>
		</g>
	</g>
</svg>