<svg width="24" height="28" viewBox="0 0 24 28" fill="none" xmlns="http://www.w3.org/2000/svg">
<path d="M6.66667 16.6667C6.28889 16.6667 5.972 16.5387 5.716 16.2827C5.46 16.0267 5.33245 15.7102 5.33334 15.3334C5.33334 14.9556 5.46134 14.6387 5.71734 14.3827C5.97334 14.1267 6.28978 13.9991 6.66667 14C7.04445 14 7.36134 14.128 7.61734 14.384C7.87334 14.64 8.00089 14.9565 8 15.3334C8 15.7111 7.872 16.028 7.616 16.284C7.36 16.54 7.04356 16.6676 6.66667 16.6667ZM12 16.6667C11.6222 16.6667 11.3053 16.5387 11.0493 16.2827C10.7933 16.0267 10.6658 15.7102 10.6667 15.3334C10.6667 14.9556 10.7947 14.6387 11.0507 14.3827C11.3067 14.1267 11.6231 13.9991 12 14C12.3778 14 12.6947 14.128 12.9507 14.384C13.2067 14.64 13.3342 14.9565 13.3333 15.3334C13.3333 15.7111 13.2053 16.028 12.9493 16.284C12.6933 16.54 12.3769 16.6676 12 16.6667ZM17.3333 16.6667C16.9556 16.6667 16.6387 16.5387 16.3827 16.2827C16.1267 16.0267 15.9991 15.7102 16 15.3334C16 14.9556 16.128 14.6387 16.384 14.3827C16.64 14.1267 16.9564 13.9991 17.3333 14C17.7111 14 18.028 14.128 18.284 14.384C18.54 14.64 18.6676 14.9565 18.6667 15.3334C18.6667 15.7111 18.5387 16.028 18.2827 16.284C18.0267 16.54 17.7102 16.6676 17.3333 16.6667ZM2.66667 27.3334C1.93334 27.3334 1.30534 27.072 0.782669 26.5494C0.260002 26.0267 -0.000886625 25.3991 2.26373e-06 24.6667V6.00002C2.26373e-06 5.26669 0.261336 4.63869 0.784002 4.11602C1.30667 3.59336 1.93422 3.33247 2.66667 3.33336H4V2.00002C4 1.62225 4.128 1.30536 4.384 1.04936C4.64 0.793358 4.95645 0.665803 5.33334 0.666692C5.71111 0.666692 6.028 0.794692 6.284 1.05069C6.54 1.30669 6.66756 1.62314 6.66667 2.00002V3.33336H17.3333V2.00002C17.3333 1.62225 17.4613 1.30536 17.7173 1.04936C17.9733 0.793358 18.2898 0.665803 18.6667 0.666692C19.0444 0.666692 19.3613 0.794692 19.6173 1.05069C19.8733 1.30669 20.0009 1.62314 20 2.00002V3.33336H21.3333C22.0667 3.33336 22.6947 3.59469 23.2173 4.11736C23.74 4.64002 24.0009 5.26758 24 6.00002V24.6667C24 25.4 23.7387 26.028 23.216 26.5507C22.6933 27.0734 22.0658 27.3342 21.3333 27.3334H2.66667ZM2.66667 24.6667H21.3333V11.3334H2.66667V24.6667Z" fill="#0BA37A"/>
</svg>
