<svg width="28" height="20" viewBox="0 0 28 20" fill="none" xmlns="http://www.w3.org/2000/svg">
<path d="M19.5141 2.75064C19.0674 2.63731 18.6174 2.45597 18.2941 2.21731C17.4474 1.59464 16.9561 0.341973 18.0394 0.479306C18.3547 0.519306 18.5821 0.527306 18.7681 0.533973C19.2201 0.549306 19.4214 0.55664 20.0214 0.99864C20.2504 1.16599 20.4628 1.35509 20.6554 1.56331C21.5881 0.869973 22.8287 0.559973 24.9987 0.66664C25.0871 0.66664 25.1719 0.701758 25.2344 0.76427C25.297 0.826783 25.3321 0.911567 25.3321 0.999973C25.3321 1.08838 25.297 1.17316 25.2344 1.23568C25.1719 1.29819 25.0871 1.33331 24.9987 1.33331H23.8407C23.6501 1.45597 23.4874 1.57064 23.3427 1.67997L25.7321 4.66664H25.8734C26.0813 4.66659 26.2863 4.71516 26.4721 4.80847C26.6579 4.90178 26.8193 5.03724 26.9434 5.20403C27.0675 5.37082 27.1509 5.56433 27.1869 5.76909C27.2229 5.97384 27.2105 6.18419 27.1507 6.38331L26.9507 7.04997C26.8683 7.32463 26.6995 7.56538 26.4694 7.73651C26.2393 7.90765 25.9602 8.00004 25.6734 7.99997H23.4321C23.1503 8.00011 22.8759 8.0895 22.6481 8.25531L21.1881 9.31664C21.1441 9.34864 21.0987 9.37797 21.0527 9.40331C20.0081 12.0966 18.9061 14.194 17.6727 15.2493L17.4427 18.0093C17.6075 18.0372 17.7558 18.1259 17.8583 18.2579C17.9607 18.39 18.0098 18.5556 17.9959 18.7222C17.982 18.8887 17.9061 19.0439 17.7831 19.1571C17.6602 19.2703 17.4992 19.3332 17.3321 19.3333H15.3321V13.3333H8.79207C7.8054 14.294 6.69874 15.0473 4.99874 15.3333L4.77607 18.0093C4.94085 18.0372 5.08914 18.1259 5.1916 18.2579C5.29405 18.39 5.34318 18.5556 5.32926 18.7222C5.31534 18.8887 5.23938 19.0439 5.11644 19.1571C4.99349 19.2703 4.83252 19.3332 4.66541 19.3333H2.66541V7.33331C2.66224 6.42827 2.96008 5.54787 3.51207 4.83064C3.09541 4.94264 2.80407 5.10597 2.59874 5.30397C2.22741 5.66064 1.99874 6.26131 1.99874 7.33331L1.74074 10.9466C1.8974 11.19 1.99874 11.5713 1.99874 12C1.99874 12.7366 1.70007 13.3333 1.33207 13.3333C0.964071 13.3333 0.665405 12.7366 0.665405 12C0.665405 11.5713 0.766739 11.19 0.923405 10.9466L0.665405 7.33331C0.665405 6.11064 0.920738 5.06664 1.67474 4.34197C2.4194 3.62664 3.51207 3.35731 4.85674 3.33464C4.9074 3.33331 6.29474 3.33331 6.33207 3.33331V3.33797C6.3938 3.33491 6.4556 3.33335 6.5174 3.33331H16.3321C17.6214 3.33331 18.5954 3.14131 19.4121 2.88797L19.5141 2.75064Z" fill="#0BA37A"/>
</svg>
