<svg width="28" height="24" viewBox="0 0 28 24" fill="none" xmlns="http://www.w3.org/2000/svg">
<path d="M14.0013 0C15.4158 0 16.7723 0.561903 17.7725 1.5621C18.7727 2.56229 19.3346 3.91885 19.3346 5.33333C19.3346 6.30667 19.0813 7.21333 18.6146 8H22.0013C23.268 8 24.3346 8.89333 24.6013 10.08C27.2813 20.76 27.3346 21.04 27.3346 21.3333C27.3346 22.0406 27.0537 22.7189 26.5536 23.219C26.0535 23.719 25.3752 24 24.668 24H3.33464C2.62739 24 1.94911 23.719 1.44902 23.219C0.94892 22.7189 0.667969 22.0406 0.667969 21.3333C0.667969 21.04 0.721302 20.76 3.4013 10.08C3.66797 8.89333 4.73464 8 6.0013 8H9.38797C8.91134 7.19253 8.66252 6.27096 8.66797 5.33333C8.66797 3.91885 9.22987 2.56229 10.2301 1.5621C11.2303 0.561903 12.5868 0 14.0013 0ZM14.0013 2.66667C13.2941 2.66667 12.6158 2.94762 12.1157 3.44772C11.6156 3.94781 11.3346 4.62609 11.3346 5.33333C11.3346 6.04058 11.6156 6.71885 12.1157 7.21895C12.6158 7.71905 13.2941 8 14.0013 8C14.7085 8 15.3868 7.71905 15.8869 7.21895C16.387 6.71885 16.668 6.04058 16.668 5.33333C16.668 4.62609 16.387 3.94781 15.8869 3.44772C15.3868 2.94762 14.7085 2.66667 14.0013 2.66667ZM6.0013 10.6667V21.3333H8.66797V18L10.0013 19.3333V21.3333H12.668V18.6667L10.0013 16L12.668 13.3333V10.6667H10.0013V12.6667L8.66797 14V10.6667H6.0013ZM18.0013 10.6667C16.5213 10.6667 15.3346 11.8533 15.3346 13.3333V18.6667C15.3346 20.1467 16.5213 21.3333 18.0013 21.3333H22.0013V14.6667H19.3346V18.6667H18.0013V13.3333H22.0013V10.6667H18.0013Z" fill="#0BA37A"/>
</svg>
