<svg width="452" height="345" viewBox="0 0 452 345" fill="none" xmlns="http://www.w3.org/2000/svg">
<path d="M110.449 43.7271C80.2719 54.174 63.9578 79.0156 58.6674 104.019C50.7539 141.424 74.6176 176.096 61.2439 213.818C49.5596 246.772 22.3791 286.269 60.1754 315.22C76.032 327.365 98.8586 333.509 120.324 335.307C150.702 337.853 181.572 334.088 211.835 337.403C242.236 340.733 268.886 344.012 300 343C340.744 341.675 369.68 323.979 373.328 292.352C378.5 247.503 342.125 212.759 300.792 187.036C278.246 173.005 264.103 160.968 254.448 139.022C234.161 92.9068 190.327 17.143 111.454 43.386C111.118 43.498 110.783 43.6115 110.449 43.7271Z" fill="#CCF0E9"/>
<path d="M444.557 259.054C439.804 248.872 432.315 239.575 422.154 234.778C410.625 229.365 395.734 230.762 387.276 240.912C378.621 251.3 379.778 265.949 381.031 278.529C381.985 288.114 383.184 296.664 379.959 306.003C374.768 321.036 369.173 330.128 361.5 344H399C399 344 429 347 440.812 331.687C452.971 309.658 455.201 281.854 444.557 259.054Z" fill="#CCF0E9"/>
<path d="M163.662 70.0519C163.662 70.0519 153.732 82.3477 140.475 74.6788C133.661 70.7386 140.444 57.1333 140.444 57.1333C140.444 57.1333 141.014 57.3871 141.859 57.3232C143.349 57.1963 145.694 56.0452 147.289 50.647L165.764 52.5586C165.764 52.5586 163.989 56.9533 163.133 61.537C162.542 64.7599 162.405 68.0764 163.662 70.0519Z" fill="#F69887"/>
<path d="M165.764 52.5595C165.764 52.5595 163.989 56.9542 163.133 61.5379C157.197 63.2596 146.792 64.8868 141.858 57.3124C143.348 57.1855 145.693 56.0344 147.288 50.6362L165.764 52.5595Z" fill="#D46766"/>
<path d="M139.375 38.4871C140.626 36.3397 144.023 35.9878 146.962 37.6996C149.901 39.4123 151.269 42.5407 150.018 44.6881C148.767 46.8355 145.369 47.1874 142.431 45.4756C139.492 43.7629 138.124 40.6336 139.375 38.4871Z" fill="#D46766"/>
<path d="M148.705 29.8264C156.195 21.4393 167.782 19.5583 174.585 25.6324C181.388 31.7065 181.293 43.8754 173.339 51.8296C165.12 60.0484 152.75 61.1995 147.184 56.2981C139.155 49.2421 141.215 38.2144 148.705 29.8264Z" fill="#F69887"/>
<path d="M173.486 47.8371C173.665 43.9608 173.835 40.0836 173.941 36.471C172.081 36.3018 170.19 35.9427 168.585 34.9923C166.979 34.0311 165.701 31.8342 165.564 29.9433C161.697 31.6227 158.031 29.4996 155.296 27.1965C153.849 27.1227 153.405 27.0273 152.433 27.0912C151.599 27.408 150.701 27.9471 149.898 28.2846C150.88 26.5737 152.148 25.0311 153.901 23.6154C162.384 23.4993 170.877 25.3686 178.747 29.1297C179.433 33.6927 179.244 38.3835 178.345 42.9681C177.384 45.1227 175.356 46.5798 173.486 47.8371Z" fill="#D46766"/>
<path d="M185.127 37.823C183.912 44.9537 176.475 53.9744 176.475 53.9744C176.475 53.9744 174.225 54.0374 170.348 53.7629C172.629 47.7626 174.045 41.4356 174.669 34.5479C172.841 34.8017 170.94 34.3364 169.429 33.2798C167.929 32.2232 166.851 30.5753 166.302 28.7375C162.901 29.5187 159.13 28.5053 156.225 26.0438C155.063 26.0231 153.89 25.9907 152.887 26.1284C151.767 27.0581 150.648 27.9662 149.464 29.1389C148.904 27.4703 149.116 25.547 151.017 23.4131C150.827 22.9586 150.785 22.5149 150.858 22.0613C151.07 20.5088 152.569 19.0823 154.165 18.5117C156.214 17.7827 158.507 17.8466 160.471 16.9592C162.563 16.0088 164.274 14.0333 166.556 13.9379C169.145 13.8533 171.056 16.1879 173.327 17.4236C175.313 18.5117 177.637 18.7655 179.781 19.4729C181.46 20.0327 183.182 21.047 184.038 22.5473C184.281 22.9487 184.45 23.3816 184.544 23.8568C183.287 23.6138 180.573 22.7903 180.457 24.1106C180.372 25.1033 181.946 25.9061 184.45 27.4802C186.997 29.0768 185.634 34.8863 185.127 37.823Z" fill="#17194D"/>
<path d="M184.05 22.5589C183.109 22.0729 181.503 21.2278 180.468 21.0379C178.261 20.668 176.508 20.9533 174.416 20.1397C172.451 19.3684 170.201 17.0653 168.12 16.8016C165.607 16.4848 163.832 18.8086 161.36 19.3576C159.163 19.8436 156.849 19.3045 154.641 19.7905C153.363 20.0758 151.884 21.1954 150.87 22.072C151.082 20.5195 152.581 19.093 154.177 18.5224C156.226 17.7934 158.518 17.8564 160.483 16.9699C162.575 16.0195 164.286 14.044 166.568 13.9486C169.156 13.864 171.068 16.1986 173.339 17.4343C175.324 18.5224 177.649 18.7762 179.793 19.4836C181.472 20.0452 183.194 21.0586 184.05 22.5589Z" fill="#2E396E"/>
<path d="M172.229 48.3864C175.63 48.3864 178.387 50.4015 178.387 52.8864C178.387 55.3713 175.63 57.3864 172.229 57.3864C168.828 57.3864 166.07 55.3713 166.07 52.8864C166.07 50.4015 168.828 48.3864 172.229 48.3864Z" fill="#F69887"/>
<path d="M152.412 37.9496C151.651 38.6363 151.154 39.6083 151.038 40.6325" stroke="#A33E4F" stroke-miterlimit="10" stroke-linecap="round"/>
<path d="M150.077 50.4778C149.274 49.3789 149.042 47.6887 149.285 46.3477C149.433 45.5449 149.749 44.6791 150.489 44.3092C150.996 44.0554 151.609 44.0977 152.126 44.3299C152.644 44.5621 153.056 44.9743 153.384 45.4387C154.44 46.939 154.556 49.0621 153.68 50.6677C153.278 51.376 151.398 52.2841 150.077 50.4778Z" fill="white"/>
<path d="M159.975 34.95C161.285 33.8619 163.039 33.3336 164.729 33.5136C166.419 33.6927 168.025 34.5801 169.071 35.922C166.092 35.6151 163.091 35.4882 159.975 34.95Z" fill="#17194D"/>
<path d="M161.433 41.3095C162.169 41.3095 162.764 40.7135 162.764 39.9784C162.764 39.2432 162.169 38.6473 161.433 38.6473C160.698 38.6473 160.102 39.2432 160.102 39.9784C160.102 40.7135 160.698 41.3095 161.433 41.3095Z" fill="#222D4D"/>
<path d="M153.236 33.3967C153.405 32.0971 152.782 30.7138 151.684 29.9956C150.585 29.2774 149.074 29.2351 147.944 29.911C149.602 30.883 151.261 31.8658 153.236 33.3967Z" fill="#17194D"/>
<path d="M147.943 37.3585C148.678 37.3585 149.274 36.7625 149.274 36.0274C149.274 35.2922 148.678 34.6963 147.943 34.6963C147.208 34.6963 146.612 35.2922 146.612 36.0274C146.612 36.7625 147.208 37.3585 147.943 37.3585Z" fill="#222D4D"/>
<path d="M117.923 36.5766L106.694 50.6787C106.694 50.6787 103.747 47.2245 100.335 43.2627C97.293 39.7131 93.8703 35.763 91.8417 33.5022C87.5739 28.7484 70.7151 2.81578 70.7151 2.81578L83 0C83 0 89.0742 7.13667 94.2816 11.9004C99.489 16.6749 103.324 25.1466 105.014 27.312C105.806 28.3371 108.7 30.4386 111.543 32.4033C114.775 34.5804 117.923 36.5766 117.923 36.5766Z" fill="#F69887"/>
<path d="M117.923 36.5767L106.694 50.6788C106.694 50.6788 103.747 47.2246 100.335 43.2628C102.913 38.6674 106.873 34.8334 111.543 32.4034C114.775 34.5805 117.923 36.5767 117.923 36.5767Z" fill="#D46766"/>
<path d="M66 6.10352e-05C67.6155 1.56336 69.9695 4.50006 72.7078 3.43945C75.0523 2.53135 81.4855 2.01606 83.2171 6.10352e-05H66Z" fill="#EF8F7E"/>
<path d="M141.712 258.81C139.694 262.211 140.592 266.3 138.31 274.433C136.779 279.873 128.581 284.859 125.972 281.489C125.698 281.13 125.486 280.39 125.35 279.387C124.304 272.119 126.374 250.506 126.374 250.506L133.113 243.25C133.113 243.25 139.482 243.778 142.63 245.384C142.63 245.394 142.63 245.394 142.63 245.394C143.465 245.807 144.078 246.313 144.278 246.895C145.313 249.777 144.68 253.771 141.712 258.81Z" fill="#CF3045"/>
<path d="M141.712 258.81C139.694 262.211 140.592 266.3 138.311 274.433C136.779 279.873 128.582 284.859 125.972 281.489C125.698 281.13 125.486 280.39 125.35 279.386C127.62 279.767 130.156 278.974 131.952 277.442C134.456 275.33 135.787 272.15 136.59 268.96C137.403 265.791 137.762 262.506 138.777 259.389C139.738 256.41 141.29 253.643 142.146 250.643C142.632 248.964 142.844 247.136 142.632 245.403C143.467 245.816 144.08 246.322 144.28 246.904C145.313 249.777 144.68 253.771 141.712 258.81Z" fill="#F0979A"/>
<path d="M125.465 256.824C127.26 256.306 129.236 256.454 130.937 257.225" stroke="#F0979A" stroke-width="3" stroke-miterlimit="10" stroke-linecap="round"/>
<path d="M125.032 261.577C126.775 260.912 128.771 260.944 130.493 261.673" stroke="#F0979A" stroke-width="3" stroke-miterlimit="10" stroke-linecap="round"/>
<path d="M124.883 265.707C126.415 265.243 128.095 265.264 129.616 265.76" stroke="#F0979A" stroke-width="3" stroke-miterlimit="10" stroke-linecap="round"/>
<path d="M135.785 243.883C134.169 256.538 126.078 254.447 126.078 254.447C122.729 245.267 95.222 206.521 92.0531 201.312C90.7013 199.094 90.5213 193.2 90.7751 187.179C91.1135 179.151 92.2007 170.922 92.2007 170.922L117.933 187.19L115.905 196.074L114.711 201.313C114.711 201.313 123.215 203.775 125.634 213.335C129.859 230.056 135.785 243.883 135.785 243.883Z" fill="#F69887"/>
<path d="M117.923 187.19L115.895 196.074C103.832 194.479 95.1168 189.936 90.7644 187.179C91.1028 179.151 92.1909 170.922 92.1909 170.922L117.923 187.19Z" fill="#D46766"/>
<path d="M173.729 220.444C173.729 228.873 166.916 233.828 161.623 229.95C160.524 229.148 159.574 227.404 158.782 225.261C156.511 219.218 155.401 210.028 155.401 210.028L165.141 195.714C165.141 195.714 170.676 206.215 172.874 214.718C173.38 216.81 173.729 218.785 173.729 220.444Z" fill="#CF3045"/>
<path d="M173.729 220.444C173.729 228.873 166.916 233.828 161.623 229.95C160.524 229.148 159.574 227.404 158.782 225.261C158.866 225.387 158.962 225.514 159.056 225.641C160.778 227.891 163.704 229.465 166.429 228.726C168.753 228.102 170.38 226 171.341 223.803C172.599 220.941 172.989 217.867 172.873 214.719C173.38 216.81 173.729 218.785 173.729 220.444Z" fill="#F0979A"/>
<path d="M158.771 213.007C160.334 211.644 162.415 210.895 164.486 210.926" stroke="#F0979A" stroke-width="3" stroke-miterlimit="10" stroke-linecap="round"/>
<path d="M159.838 216.747C161.571 215.69 163.546 215.014 165.563 214.782" stroke="#F0979A" stroke-width="3" stroke-miterlimit="10" stroke-linecap="round"/>
<path d="M160.63 221.024C162.648 220.433 164.666 219.852 166.694 219.26" stroke="#F0979A" stroke-width="3" stroke-miterlimit="10" stroke-linecap="round"/>
<path d="M159.193 190.802C159.193 190.802 168.425 193.993 166.165 201.313C163.905 208.633 159.342 212.214 155.148 211.421C150.954 210.629 144.743 206.774 144.743 206.774L159.193 190.802Z" fill="#D46766"/>
<path d="M161.687 192.514C161.645 200.838 158.761 206.859 151.863 208.19C145.441 209.437 140.085 203.637 136.419 197.806C134.412 194.626 132.923 191.436 132.036 189.366C131.433 187.95 131.117 187.053 131.117 187.053L132.046 186.915L160.641 182.478C161.327 186.049 161.697 189.44 161.687 192.514Z" fill="#F69887"/>
<path d="M161.687 192.514C151.43 198.557 141.669 198.483 136.42 197.806C134.413 194.626 132.923 191.436 132.036 189.366L132.046 186.915L160.641 182.478C161.327 186.049 161.697 189.44 161.687 192.514Z" fill="#D46766"/>
<path d="M164.032 183.007C160.102 195.545 130.904 195.715 130.904 195.715L124.482 174.82L121.091 192.314C110.496 194.342 87.2139 182.87 87.2139 182.87C87.2139 170.162 96.9114 140.258 100.999 128.215C102.098 125.003 102.785 123.05 102.785 123.05L154.08 139.169L155.474 145.307L164.032 183.007Z" fill="white"/>
<path d="M155.465 145.327C120.626 145.633 105.975 133.834 100.999 128.225C102.098 125.014 102.785 123.059 102.785 123.059L154.08 139.179L155.465 145.327Z" fill="#C5D1DE"/>
<path d="M123.722 172.115C119.402 165.978 116.465 158.879 115.155 151.496C115.302 155.309 115.461 159.154 116.401 162.851C117.352 166.538 119.148 170.13 123.722 172.115Z" fill="#C5D1DE"/>
<path d="M122.201 172.443C115.641 168.207 109.757 162.936 104.834 156.872C106.651 164.943 113.951 171.461 122.201 172.443Z" fill="#C5D1DE"/>
<path d="M141.838 56.4889C141.838 56.4889 140.032 69.6406 142.039 70.2742C144.817 71.1616 163.62 68.7217 163.62 68.7217C163.62 68.7217 174.881 77.1934 176.888 80.806C178.906 84.4186 180.744 102.366 178.98 109.813C178.98 109.813 167.244 123.302 160.377 123.059L158.349 116.246L155.751 129.461C155.751 129.461 158.021 134.077 155.708 140.859C155.708 140.859 116.169 140.616 101.275 125.721C101.275 125.721 105.036 96.5659 116.519 71.8906L103.398 52.834C103.398 52.834 103.83 38.119 116.264 29.7319C116.264 29.7319 121.081 35.6053 127.556 40.4221C132.732 44.2669 135.986 47.2144 141.838 56.4889Z" fill="#CF3045"/>
<path d="M158.887 114.556C158.38 103.855 162.415 93.0172 169.789 85.2529C165.077 88.2634 161.349 92.7949 159.299 98.0032C157.25 103.2 156.891 109.053 158.887 114.556Z" fill="#A1223B"/>
<path d="M157.83 111.196C155.728 102.957 154.556 94.136 157.197 86.0558C153.056 94.8236 153.753 105.704 157.83 111.196Z" fill="#A1223B"/>
<path d="M117.299 71.0977C120.69 63.3865 125.358 56.2351 131.053 50.0242C123.584 54.5026 118.229 62.3299 117.299 71.0977Z" fill="#A1223B"/>
<path d="M117.087 69.8827C117.014 62.0446 118.292 54.1858 120.858 46.7698C116.222 53.5306 114.5 62.2138 117.087 69.8827Z" fill="#A1223B"/>
<path d="M152.528 130.337C144.848 131.109 137.084 131.679 129.446 130.57C121.809 129.461 114.245 126.534 108.731 121.137C122.243 126.672 136.915 129.365 152.528 130.337Z" fill="#A1223B"/>
<path d="M119.532 76.1261C120.38 73.1642 122.726 71.2391 124.773 71.825C126.821 72.4109 127.793 75.2873 126.945 78.2483C126.097 81.2093 123.75 83.1353 121.704 82.5494C119.657 81.9635 118.684 79.088 119.532 76.1261Z" fill="white"/>
<path d="M168.416 72.1858C167.887 69.0592 165.986 66.1963 163.303 64.5061C157.324 68.3194 149.021 70.3156 142.345 70.2733C147.627 71.7313 152.909 75.8929 154.757 81.0373C159.712 78.9358 164.201 75.7138 168.416 72.1858Z" fill="#FCCCD0"/>
<path d="M128.549 62.2987C130.725 57.0805 133.947 54.0385 138.943 51.397C141.256 52.0306 143.548 53.2771 144.69 55.4749C142.894 59.2882 141.204 65.3308 141.911 70.2745C139.355 65.9329 134.962 61.9612 128.549 62.2987Z" fill="#FCCCD0"/>
<path d="M204.246 101.51L204.151 112.865C204.151 112.865 174.595 135.492 170.432 135.111C168.193 134.911 165.795 129.439 164.063 124.453C162.594 120.227 161.612 116.372 161.612 116.372C161.612 116.372 171.436 111.111 175.451 111.111C176.095 111.111 177.268 110.868 178.778 110.456C186.743 108.292 204.246 101.51 204.246 101.51Z" fill="#F69887"/>
<path d="M178.778 110.458C176.433 114.239 171.384 121.19 164.063 124.464C162.594 120.239 161.612 116.383 161.612 116.383C161.612 116.383 171.436 111.123 175.451 111.123C176.095 111.112 177.268 110.869 178.778 110.458Z" fill="#D46766"/>
<path d="M201.637 104.87C204.309 100.591 206.369 95.4367 210.923 92.4784C214.113 90.4084 220.229 91.5487 222.743 92.1616C223.261 92.2885 223.842 98.2672 224.391 101.331C224.507 101.975 224.592 102.725 224.126 103.179C223.62 103.697 222.69 103.496 222.193 102.968C221.696 102.44 221.528 101.701 221.38 100.992C221.147 99.862 220.915 98.6794 220.207 97.7704C219.5 96.8623 218.158 96.3232 217.123 97.3897C220.376 99.9457 221.971 104.457 221.031 108.492C220.894 109.105 220.672 109.739 220.175 110.129C219.689 110.52 218.855 110.541 218.507 110.013C218.708 111.492 217.049 112.876 215.634 112.422C215.391 113.637 213.828 114.175 212.655 113.795C211.482 113.414 210.617 112.422 209.825 111.471C207.902 113.52 204.585 114.091 202.082 112.813C202.123 109.898 202.145 106.961 201.637 104.87Z" fill="#F69887"/>
<path d="M231.12 52.6337L218.348 92.69" stroke="#A5B0CF" stroke-width="3" stroke-miterlimit="10"/>
<path d="M208.293 109.591L214.494 90.2707C214.864 89.1295 216.078 88.5067 217.208 88.8766L221.94 90.3976C223.082 90.7675 223.704 91.9825 223.334 93.1129L217.133 112.433C216.764 113.574 215.549 114.197 214.418 113.827L209.686 112.306C208.546 111.947 207.923 110.732 208.293 109.591Z" fill="#222736"/>
<path d="M230.032 20.0661C235.462 17.1825 240.892 14.2881 246.321 11.4045" stroke="#D1D8F0" stroke-miterlimit="10"/>
<path d="M227.687 27.1329C235.155 23.0973 242.623 19.0518 250.092 15.0171" stroke="#D1D8F0" stroke-miterlimit="10"/>
<path d="M226.007 34.2843C234.426 29.6889 242.856 25.0944 251.275 20.499" stroke="#D1D8F0" stroke-miterlimit="10"/>
<path d="M227.381 39.9572C235.261 35.8379 243.131 31.7285 251.011 27.6083" stroke="#D1D8F0" stroke-miterlimit="10"/>
<path d="M228.193 46.2318C235.324 42.4716 242.443 38.7006 249.574 34.9395" stroke="#D1D8F0" stroke-miterlimit="10"/>
<path d="M236.591 12.5872C236.275 24.5023 236.549 36.439 237.405 48.3334" stroke="#D1D8F0" stroke-miterlimit="10"/>
<path d="M232.441 14.7949C230.793 26.4355 230.719 38.3092 232.24 49.9714" stroke="#D1D8F0" stroke-miterlimit="10"/>
<path d="M242.085 10.2318C242.317 21.3864 242.539 32.5419 242.772 43.6965" stroke="#D1D8F0" stroke-miterlimit="10"/>
<path d="M247.504 9.37592C247.789 19.4217 248.075 29.4675 248.349 39.5025" stroke="#D1D8F0" stroke-miterlimit="10"/>
<path d="M246.427 7.78132C239.719 5.44672 230.898 13.2641 226.726 25.253C222.553 37.232 224.602 48.8411 231.31 51.1649C238.018 53.5103 246.839 45.6821 251 33.7031C255.184 21.725 253.134 10.1267 246.427 7.78132ZM248.677 32.9012C245.244 42.7463 238.082 49.1903 232.652 47.2994C227.233 45.4085 225.617 35.9018 229.05 26.0666C232.473 16.2215 239.645 9.77752 245.075 11.6585C250.493 13.5485 252.12 23.0561 248.677 32.9012Z" fill="#222736"/>
<path d="M229.419 48.1968L227.645 54.0594C227.645 54.0594 229.979 56.6478 233.581 55.602L235.693 50.0877L229.419 48.1968Z" fill="#222736"/>
<path d="M208.673 97.2528C211.313 96.144 214.038 95.235 216.807 94.5168C217.377 94.3692 217.98 94.2315 218.56 94.3269C219.141 94.4223 219.711 94.8237 219.838 95.4042C219.986 96.1224 219.426 96.7776 218.888 97.2735C217.578 98.4885 216.131 99.5442 214.578 100.432C213.912 104.097 210.68 107.139 206.982 107.572" fill="#F69887"/>
<path d="M208.673 97.2528C211.313 96.144 214.038 95.235 216.807 94.5168C217.377 94.3692 217.98 94.2315 218.56 94.3269C219.141 94.4223 219.711 94.8237 219.838 95.4042C219.986 96.1224 219.426 96.7776 218.888 97.2735C217.578 98.4885 216.131 99.5442 214.578 100.432C213.912 104.097 210.68 107.139 206.982 107.572" stroke="#A33E4F" stroke-miterlimit="10" stroke-linecap="round"/>
<path d="M267.563 146.525L261.564 142.378C261.564 142.378 258.908 143.293 258.092 148.021C257.276 152.75 255.12 174.52 258.921 182.173L265.727 179.021L267.563 146.525Z" fill="#C47123"/>
<path d="M269.047 206.883L270.193 213.361L326.751 212.154L326.408 206.405C309.696 181.285 290.219 185.196 269.047 206.883Z" fill="#3A424F"/>
<path d="M287.051 153.945C275.656 157.367 268.602 143.54 268.602 143.54C270.833 142.562 270.451 138.583 269.672 135.252C269.042 132.592 268.163 130.33 268.163 130.33L287.532 129.819C287.532 129.819 288.089 133.287 289.626 134.984C289.956 135.363 290.333 135.645 290.767 135.797C291.418 136.03 292.824 135.274 293.967 134.544C294.91 133.942 295.667 133.357 295.667 133.357C296.936 138.777 298.436 150.523 287.051 153.945Z" fill="#BF6565"/>
<path d="M293.967 134.544C289.37 143.115 275.078 140.512 269.672 135.252C269.042 132.592 268.163 130.33 268.163 130.33L287.532 129.819C287.532 129.819 288.089 133.287 289.626 134.984C289.956 135.363 290.333 135.645 290.767 135.797C291.419 136.03 292.825 135.274 293.967 134.544Z" fill="#91474C"/>
<path d="M291.962 115.343C295.519 113.683 299.309 114.279 300.429 116.675C301.548 119.071 299.572 122.36 296.015 124.022C292.458 125.682 288.668 125.086 287.549 122.69C286.43 120.293 288.406 117.004 291.962 115.343Z" fill="#91474C"/>
<path d="M256.872 122.643C250.802 111.331 253.202 98.7527 262.91 93.5435C272.616 88.3343 284.146 89.2019 291.471 104.588C296.989 116.172 296.756 130.636 286.509 134.531C276.219 138.438 262.943 133.944 256.872 122.643Z" fill="#BF6565"/>
<path d="M294.902 116.563C293.998 109.456 290.345 102.595 286.159 97.0452C283.231 97.4394 280.532 96.3297 277.797 96.3459C275.97 96.3603 274.198 96.8787 272.449 97.3863C270.192 98.0469 267.902 98.7291 265.97 100.042C264.482 101.048 262.973 102.48 261.209 102.19C261.557 107.217 261.475 110.398 261.212 111.868C260.975 113.208 259.709 119.983 259.646 125.275C257.762 124.434 258.097 126.585 256.02 126.517C255.059 126.463 253.864 126.109 253.213 125.362C252.574 124.604 252.355 123.593 252.191 122.627C252.026 121.649 251.874 120.64 251.334 119.819C250.582 118.676 249.142 118.031 248.679 116.742C248.071 115.044 249.477 113.282 249.484 111.478C249.492 110.11 248.712 108.825 248.029 107.574C247.314 106.246 246.687 104.953 247.187 103.596C247.757 102.067 249.545 101.362 250.396 99.9711C251.576 98.0505 250.718 95.2974 252.136 93.546C253.688 91.6119 256.825 92.2068 258.973 90.9747C260.723 89.9748 261.689 87.8193 263.585 87.1398C265.669 86.3982 267.924 87.75 270.137 87.5691C272.416 87.39 274.534 85.5774 276.764 86.1192C278.342 86.5044 279.468 88.0056 281.045 88.4124C282.675 88.8309 284.737 88.101 285.891 89.3295C286.499 89.9883 286.576 90.9855 287.007 91.782C287.679 93.0438 289.109 93.6549 290.283 94.4577C291.166 95.0679 291.986 96.0705 292.081 97.2099C292.116 97.5825 292.075 97.9749 291.935 98.3664C291.489 99.2754 291.935 100.379 292.507 101.222C293.09 102.055 293.816 102.847 294.013 103.847C294.199 104.803 293.849 105.812 294.024 106.779C294.18 107.657 294.743 108.413 295.107 109.23C296.119 111.505 295.513 114.149 294.902 116.563Z" fill="#372247"/>
<path d="M292.083 97.2092C291.279 95.9771 290.12 94.9781 288.755 94.4228C286.88 93.6488 284.66 93.665 283.035 92.4473C281.917 91.613 281.18 90.263 279.891 89.7419C277.756 88.8743 275.483 90.7049 273.175 90.7634C271.03 90.8255 268.952 89.3351 266.874 89.8472C264.576 90.4088 263.423 93.1169 261.247 94.0421C258.885 95.0393 255.598 93.8405 253.968 95.816C253.17 96.7826 253.14 98.138 252.785 99.344C252.134 101.593 250.336 103.292 249.067 105.266C248.625 105.956 248.246 106.757 248.032 107.573C247.317 106.244 246.69 104.951 247.19 103.595C247.76 102.066 249.547 101.361 250.399 99.9695C251.579 98.0489 250.721 95.2958 252.137 93.5444C253.69 91.6103 256.826 92.2052 258.975 90.9731C260.725 89.9732 261.691 87.8177 263.587 87.1382C265.671 86.3966 267.926 87.7484 270.139 87.5675C272.418 87.3884 274.536 85.5758 276.766 86.1176C278.344 86.5028 279.47 88.004 281.046 88.4108C282.677 88.8293 284.739 88.0994 285.893 89.3279C286.501 89.9867 286.578 90.9839 287.009 91.7804C287.681 93.0422 289.111 93.6533 290.285 94.4561C291.168 95.0672 291.988 96.0698 292.083 97.2092Z" fill="#5F436E"/>
<path d="M251.992 125.119C252.582 122.54 256.161 121.161 259.988 122.036C263.814 122.911 266.438 125.711 265.848 128.29C265.259 130.868 261.678 132.248 257.852 131.372C254.025 130.496 251.401 127.697 251.992 125.119Z" fill="#BF6565"/>
<path d="M274.379 103.488C272.544 102.397 270.485 101.553 268.351 101.593C266.217 101.634 264.006 102.743 263.132 104.682C267.208 103.854 269.576 103.589 274.379 103.488Z" fill="#372247"/>
<path d="M282.745 102.547C282.697 101.726 282.782 100.875 283.137 100.128C283.493 99.3811 284.152 98.7511 284.965 98.572C286.119 98.3128 287.264 98.995 288.255 99.6403C286.256 100.088 284.184 101.288 282.745 102.547Z" fill="#372247"/>
<path d="M283.226 105.981C284.159 107.303 284.702 108.966 284.762 110.663" stroke="#6E2B39" stroke-miterlimit="10" stroke-linecap="round"/>
<path d="M288.505 113.568C288.505 113.568 279.22 112.552 277.411 114.721C275.602 116.89 275.587 127.433 276.282 128.684C276.976 129.935 289.252 128.206 290.287 126.392C290.788 125.517 288.505 113.568 288.505 113.568Z" fill="white"/>
<path d="M271.388 105.718C272.064 105.733 272.598 106.396 272.58 107.198C272.562 108.001 272 108.64 271.324 108.625C270.648 108.61 270.114 107.947 270.132 107.144C270.149 106.342 270.712 105.704 271.388 105.718Z" fill="#313A47"/>
<path d="M286.873 104.312C287.549 104.328 288.083 104.99 288.065 105.793C288.047 106.596 287.484 107.235 286.808 107.219C286.132 107.204 285.599 106.542 285.616 105.738C285.634 104.936 286.196 104.297 286.873 104.312Z" fill="#313A47"/>
<path d="M394.416 165.261C394.416 165.261 366.093 168.613 351.927 168.726C349.411 168.747 347.335 168.668 345.951 168.451C332.721 166.343 318.106 161.086 318.106 161.086C318.106 161.086 317.565 165.755 315.932 167.873L301.002 134.907L300.095 132.897C300.095 132.897 310.007 127.769 315.613 130.441C321.23 133.114 324.516 136.828 325.728 137.938C326.928 139.047 345.711 148.191 347.92 148.699C350.128 149.208 354.575 147.917 362.083 149.648C375.88 152.819 393.778 154.068 393.778 154.068L394.416 165.261Z" fill="#BF6565"/>
<path d="M351.927 168.726C349.411 168.747 347.335 168.668 345.951 168.452C332.721 166.343 318.106 161.086 318.106 161.086C318.106 161.086 317.565 165.755 315.932 167.873L301.002 134.908C308.948 140.039 315.288 147.605 318.746 156.868C328.844 163.097 340.317 167.069 351.927 168.726Z" fill="#91474C"/>
<path d="M390.131 155.312C394.505 151.888 401.046 145.428 403.636 145.025C405.249 144.777 411.005 145.627 414.725 147.021C417.231 147.962 420.117 149.962 420.782 152.022C420.997 152.683 420.326 153.379 419.654 153.561C418.983 153.743 418.255 153.541 417.65 153.199C417.045 152.857 416.531 152.376 415.971 151.959C414.207 150.651 412.103 150.309 410.02 150.58C413.052 151.446 415.599 153.493 417.835 155.707C418.338 156.2 418.83 156.714 419.144 157.344C419.458 157.974 419.616 158.765 419.252 159.37C418.547 160.557 417.404 160.313 417.404 160.313C417.404 160.313 417.222 161.643 416.743 162.015C415.629 162.887 414.811 162.332 414.358 162.564C413.889 163.493 413.298 163.524 412.262 163.403C411.226 163.282 410.284 162.791 409.32 162.398C408.356 162.005 407.29 161.719 406.433 162.4C402.48 165.571 396.945 166.63 392.079 165.133C391.374 161.858 390.659 158.583 390.131 155.312Z" fill="#BF6565"/>
<path d="M416.946 159.767C415.254 157.641 412.872 156.079 410.241 155.375" stroke="#6E2B39" stroke-miterlimit="10" stroke-linecap="round"/>
<path d="M413.478 161.812C411.604 159.999 409.305 158.614 406.819 157.815" stroke="#6E2B39" stroke-miterlimit="10" stroke-linecap="round"/>
<path d="M397.296 151.271C400.989 150.423 404.683 149.565 408.376 148.717C409.498 148.458 410.912 148.303 411.57 149.236C412.09 149.959 411.825 151.025 411.21 151.678C409.878 153.07 407.553 153.828 406.657 154.257C406.104 157.515 403.136 160.194 399.839 160.416" fill="#BF6565"/>
<path d="M397.296 151.271C400.989 150.423 404.683 149.565 408.376 148.717C409.498 148.458 410.912 148.303 411.57 149.236C412.09 149.959 411.825 151.025 411.21 151.678C409.878 153.07 407.553 153.828 406.657 154.257C406.104 157.515 403.136 160.194 399.839 160.416" stroke="#6E2B39" stroke-miterlimit="10" stroke-linecap="round"/>
<path d="M262.672 179.674C260.686 178.023 259.068 176.488 257.278 174.83C255.499 173.205 253.558 171.478 250.88 169.417C247.465 169.057 243.768 168.581 240.005 168.093C233.757 167.277 227.323 166.456 221.62 166.176C210.371 164.997 192.255 159.302 177.033 152.304C175.636 151.661 174.262 151.007 172.921 150.343C173.728 147.026 168.212 137.323 168.562 136.827C169.894 137.36 179.445 140.7 180.925 141.038C189.334 143.018 199.802 142.452 207.759 144.182C213.636 145.461 217.422 147.404 221.568 148.305C224.049 148.852 234.59 148.933 240.591 148.562C242.683 148.433 244.229 148.238 244.684 147.997C248.125 146.159 253.883 144.931 259.013 144.4C261.294 144.155 263.45 144.05 265.222 144.089C271.025 154.661 271.252 170.568 262.672 179.674Z" fill="#BF6565"/>
<path d="M262.672 179.675C260.685 178.023 259.068 176.489 257.278 174.831C258.642 173.953 259.798 172.655 260.551 171.218C262.059 168.32 262.309 164.936 262.513 161.67C262.742 158.274 262.949 154.844 262.323 151.495C261.834 148.903 260.765 146.342 259.014 144.4C261.295 144.155 263.451 144.05 265.222 144.089C271.025 154.662 271.251 170.568 262.672 179.675Z" fill="#91474C"/>
<path d="M240.006 168.093C233.758 167.277 227.323 166.456 221.621 166.176C210.372 164.997 192.256 159.302 177.034 152.304C179.259 150.626 181.021 145.634 180.926 141.038C189.335 143.018 199.803 142.452 207.76 144.182C213.637 145.461 217.423 147.404 221.569 148.305C224.05 148.852 234.591 148.933 240.592 148.562C243.959 155.057 243.202 163.537 240.006 168.093Z" fill="white"/>
<path d="M334.199 275.73L337.792 282.371C337.792 282.371 315.921 287.212 299.053 276.524L295.071 267.72L332.407 266.283L334.199 275.73Z" fill="#C47123"/>
<path d="M334.93 303.951C333.805 307.327 328.014 316.462 321.093 326.731C308.96 344.715 309.5 344 309.5 344H287.5C287.5 344 290.749 336.896 292.521 330.482C294.828 322.134 296.527 317.043 299.4 312.732C301.877 309.014 305.227 305.883 310.58 301.748L304.485 284.114L299.798 270.58L332.261 270.425C332.261 270.425 333.761 276.736 334.821 284.164C335.834 291.274 336.441 299.403 334.93 303.951Z" fill="#BF6565"/>
<path d="M334.822 284.165C328.806 281.724 316.956 278.541 304.486 284.115L299.798 270.581L332.261 270.426C332.261 270.426 333.762 276.737 334.822 284.165Z" fill="#91474C"/>
<path d="M321.093 326.731C308.96 344.715 310 344 310 344H287C287 344 290.749 336.896 292.521 330.482C294.828 322.134 296.527 317.042 299.4 312.731C301.72 317.081 305.225 320.812 309.5 323.279C313.02 325.328 317.03 326.477 321.093 326.731Z" fill="white"/>
<path d="M337.792 282.371C337.792 282.371 311.978 271.19 298.89 276.488L287.985 265.234C287.985 265.234 270.106 261.72 268.262 249.19C267.749 245.679 267.553 242.667 267.556 240.064C267.53 233.348 268.734 229.34 268.795 226.585C268.88 222.77 264.882 216.152 269.445 211.07C269.445 211.07 283.336 203.613 303.413 205.206C320.029 206.527 327.292 209.924 327.292 209.924C327.292 209.924 334.741 237.956 337.094 268.007C337.481 272.773 337.723 277.601 337.792 282.371Z" fill="#FFC061"/>
<path d="M337.792 282.371C337.792 282.371 311.978 271.19 298.89 276.488L287.985 265.234C287.985 265.234 270.106 261.72 268.262 249.19C267.749 245.679 267.553 242.667 267.556 240.064C269.52 242.24 274.172 250.94 283.745 245.334C289.718 241.835 292.121 231.586 297.808 227.644C301.917 224.794 307.136 224.221 313.766 223.132C307.392 216.636 299.408 211.723 290.742 208.95C296.72 209.148 302.623 211.248 307.387 214.875C310.323 217.117 312.929 219.963 316.412 221.21C319.884 222.457 324.68 221.197 325.536 217.607C325.181 221.262 323.223 224.741 320.287 226.94C322.837 228.844 325.792 230.2 328.905 230.871C325.77 232.715 322.096 233.64 318.458 233.483C318.82 243.815 324.899 253.77 333.93 258.793C330.777 260.396 327.05 260.839 323.612 260.008C327.278 263.819 332.008 266.57 337.094 268.007C337.481 272.773 337.723 277.601 337.792 282.371Z" fill="#F0A04A"/>
<path d="M289.423 298.501C289.423 298.501 287.244 316.87 284.826 325.817C284.803 325.904 284.778 326.002 284.754 326.089C284.315 327.654 283.882 328.902 283.438 329.691C278.551 338.506 258.015 335.908 260.702 317.857C260.716 317.714 260.741 317.562 260.766 317.421C260.804 317.214 260.841 317.018 260.878 316.811C262.926 306.292 273.249 293.058 273.249 293.058L289.423 298.501Z" fill="#8B94B0"/>
<path d="M284.754 326.089C284.315 327.654 283.882 328.902 283.438 329.691C278.551 338.506 258.015 335.908 260.702 317.857C260.716 317.715 260.741 317.562 260.766 317.421C260.804 317.214 260.841 317.018 260.878 316.811C261.272 319.259 262.248 321.61 263.769 323.568C267.002 327.73 272.563 329.954 277.775 329.161C280.332 328.78 282.739 327.685 284.754 326.089Z" fill="#D1DBE8"/>
<path d="M309.302 227.669L312.386 220.76C312.386 220.76 303.497 214.767 296.112 216.353C288.244 218.037 275.409 230.198 281.248 257.384L309.302 227.669Z" fill="#B55C62"/>
<path d="M315.99 226.92C315.261 233.171 313.789 235.884 313.789 235.884C313.789 235.884 312.186 245.549 304.564 260.778C299.22 271.476 293.904 286.309 291.213 294.2C290.068 297.543 289.398 299.639 289.398 299.639C285.9 307.971 272.13 305.523 271.992 295.972C271.992 295.972 274.822 283.764 276.464 275.303C276.984 272.569 277.386 270.227 277.527 268.808C278.103 263.036 279.999 238.23 290.592 229.026C296.48 223.907 298.448 217.05 306.827 218.483C306.827 218.483 316.719 220.67 315.99 226.92Z" fill="#BF6565"/>
<path d="M291.214 294.199C290.069 297.542 289.398 299.638 289.398 299.638C285.9 307.97 272.13 305.522 271.992 295.971C271.992 295.971 274.822 283.764 276.464 275.302C277.322 279.05 278.631 282.667 280.725 285.884C283.177 289.669 286.991 292.793 291.214 294.199Z" fill="#B55C62"/>
<path d="M301.871 221.981C301.349 225.305 301.939 228.785 303.514 231.751C301.511 231.323 299.843 229.613 299.461 227.604C299.079 225.605 299.991 223.405 301.871 221.981Z" fill="#91474C"/>
<path d="M272.863 303.526C273.158 300.11 273.452 296.693 273.746 293.287C273.806 292.577 273.877 291.846 274.154 291.185C274.442 290.535 274.991 289.957 275.66 289.862C276.647 289.72 277.469 290.591 278.243 291.243C279.713 292.478 281.613 293.133 283.496 293.054C284.317 293.018 285.13 292.85 285.949 292.89C286.769 292.919 287.627 293.2 288.136 293.868C288.912 294.891 288.605 296.393 288.206 297.643C287.653 299.391 286.981 301.115 286.221 302.783C285.612 304.103 284.849 305.497 283.557 306.037C282.574 306.453 281.484 306.297 280.438 306.143C277.791 305.746 274.968 305.257 272.863 303.526Z" fill="#8B94B0"/>
<path d="M273.028 304.504C276.224 303.908 279.607 304.726 282.405 306.779" stroke="#D1DBE8" stroke-width="3" stroke-miterlimit="10" stroke-linecap="round"/>
<path d="M271.574 309.403C274.77 308.806 278.153 309.625 280.951 311.678" stroke="#D1DBE8" stroke-width="3" stroke-miterlimit="10" stroke-linecap="round"/>
<path d="M270.27 314.952C273.465 314.356 276.849 315.174 279.647 317.227" stroke="#D1DBE8" stroke-width="3" stroke-miterlimit="10" stroke-linecap="round"/>
<path d="M326.84 207.629C326.84 207.629 315.489 203.637 304.594 202.761C292.213 201.776 273.274 205.61 268.804 209.886C268.804 209.886 266.662 208.832 266.735 206.034C266.752 205.279 266.924 204.408 267.352 203.389C268.761 199.986 267.232 197.929 265.454 195.287C264.712 194.199 263.941 193.001 263.305 191.575C261.795 188.173 260.259 184.935 259.464 183.299C259.12 182.591 258.921 182.182 258.921 182.182C258.921 182.182 269.794 166.805 261.214 142.369L262.508 142.212L266.95 141.676L268.595 141.472C268.595 141.472 275.605 151.854 287.091 149.757C297.599 147.835 295.895 140.842 294.936 132.804L296.201 132.46L299.161 131.673L301.009 131.178C301.009 131.178 307.549 140.542 310.601 148.418C312.339 152.886 315.731 158.725 318.347 163.584C320.331 167.303 321.869 170.443 321.836 171.93C321.76 175.362 322.908 188.195 322.908 188.195C322.908 188.195 327.55 203.226 326.84 207.629Z" fill="#FFC061"/>
<path d="M272.371 147.681C284.075 160.441 299.899 169.366 316.873 172.772C299.44 173.304 282.081 163.546 272.371 147.681Z" fill="#F0A04A"/>
<path d="M282.771 200.003C282.299 201.075 280.885 201.219 279.714 201.28C275.071 201.538 270.28 203.116 266.736 206.034C266.753 205.279 266.925 204.408 267.353 203.389C268.762 199.987 267.233 197.929 265.455 195.287C269.015 197.498 273.368 198.458 277.488 197.642C278.674 197.417 279.885 197.05 281.06 197.339C282.223 197.628 283.255 198.898 282.771 200.003Z" fill="#F0A04A"/>
<path d="M259.464 183.3C259.119 182.592 258.921 182.183 258.921 182.183C258.921 182.183 269.794 166.806 261.215 142.37L262.509 142.213C268.497 155.218 267.255 171.3 259.464 183.3Z" fill="#3A424F"/>
<path d="M295.947 146.367C293.89 149.351 290.35 150.695 287.558 151.31C283.294 152.254 278.681 151.639 274.821 149.628C271.437 147.869 268.645 145.029 266.948 141.677L268.593 141.473C268.593 141.473 275.603 151.855 287.089 149.758C297.597 147.836 295.894 140.843 294.934 132.805L296.2 132.461C296.73 134.747 298.682 142.403 295.947 146.367Z" fill="#3A424F"/>
<path d="M318.346 163.585C314.72 159.415 311.987 154.4 309.495 149.423C306.416 143.296 303.495 136.942 299.161 131.673L301.009 131.178C301.009 131.178 307.55 140.542 310.601 148.418C312.338 152.888 315.731 158.726 318.346 163.585Z" fill="#3A424F"/>
<path d="M290.078 174.322C289.64 175.799 288.54 177.076 287.019 177.634C287.141 178.522 287.263 179.399 287.523 180.532C288.388 180.453 289.243 180.362 290.499 180.478C290.704 184.563 291.335 188.623 292.351 192.615C291.528 192.782 290.703 192.939 289.857 193.128C289.987 194.192 290.116 195.266 290.494 196.456C292.979 195.855 295.524 195.496 298.195 195.402C298.011 194.316 297.828 193.229 297.659 191.945C296.883 191.95 296.106 191.954 295.288 191.881C294.075 186.933 293.195 182.189 293.37 174.308C291.772 174.327 291.776 174.151 290.078 174.322Z" fill="#3A424F"/>
<path d="M300.645 191.431L299.283 178.408C299.021 175.909 300.874 173.709 303.281 173.674L307.406 173.612C309.518 173.583 311.308 175.23 311.532 177.422L312.888 190.259C313.14 192.692 311.408 194.842 309.076 194.986L304.958 195.245C302.778 195.372 300.89 193.7 300.645 191.431Z" fill="#3A424F"/>
<path d="M303.352 189.217L302.634 180.638C302.496 178.994 303.435 177.55 304.65 177.533L306.739 177.502C307.811 177.482 308.717 178.574 308.838 180.02L309.558 188.469C309.698 190.068 308.813 191.482 307.63 191.576L305.549 191.738C304.443 191.822 303.471 190.718 303.352 189.217Z" fill="#FFC061"/>
<path d="M170.277 138.888C170.691 138.471 171.159 138.066 171.552 137.615C171.565 137.527 171.917 136.956 171.996 136.848C172.717 135.912 173.516 135.35 174.659 135.103C175.244 134.372 175.84 133.641 176.425 132.91L173.371 124.137C173.371 124.137 159.332 117.078 155.757 121.964C152.182 126.839 156.982 137.761 156.982 137.761L165.406 144.532C166.829 142.486 168.521 140.654 170.277 138.888Z" fill="#91474C"/>
<path d="M200.684 120.971C200.608 124.436 199.748 127.698 198.284 130.597C197.815 131.538 197.27 132.434 196.671 133.284C196.411 133.661 196.141 134.016 195.86 134.37C195.69 134.607 195.5 134.833 195.309 135.047L195.253 135.112L195.163 135.208L194.804 135.605L194.333 136.109C194.321 136.131 194.299 136.152 194.266 136.173C194.12 136.323 193.975 136.473 193.818 136.611C192.924 137.488 191.955 138.276 190.934 138.976C190.656 139.166 190.378 139.346 190.101 139.515C190.09 139.526 190.068 139.535 190.057 139.535C189.891 139.641 189.713 139.747 189.548 139.841C189.004 140.168 188.462 140.462 187.899 140.723C187.667 140.839 187.424 140.942 187.181 141.047C186.982 141.141 186.783 141.224 186.585 141.296C186.243 141.431 185.901 141.565 185.548 141.677C185.074 141.842 184.601 141.995 184.116 142.127C183.665 142.237 183.215 142.347 182.753 142.446C182.456 142.505 182.16 142.553 181.864 142.602C181.622 142.64 181.37 142.678 181.118 142.705C180.405 142.799 179.681 142.859 178.948 142.876C178.686 142.892 178.412 142.897 178.15 142.881C178.063 142.89 177.975 142.888 177.887 142.886L177.778 142.883C176.947 142.865 176.128 142.803 175.322 142.687L175.3 142.686C175.006 142.658 174.711 142.608 174.417 142.558C173.828 142.457 173.252 142.335 172.686 142.181C172.425 142.109 172.164 142.049 171.915 141.966C171.883 141.965 171.86 141.954 171.849 141.954C171.35 141.812 170.872 141.648 170.395 141.462C170.221 141.404 170.048 141.335 169.886 141.265C169.755 141.218 169.636 141.161 169.507 141.103C169.301 141.022 169.094 140.93 168.889 140.827C168.683 140.735 168.478 140.642 168.273 140.529C168.1 140.449 167.937 140.369 167.775 140.277C167.689 140.242 167.613 140.197 167.548 140.152C167.386 140.072 167.224 139.981 167.073 139.89C166.879 139.777 166.684 139.662 166.49 139.538C166.252 139.401 166.025 139.255 165.81 139.096C165.347 138.802 164.906 138.474 164.476 138.137C164.197 137.912 163.917 137.687 163.649 137.451C163.466 137.304 163.294 137.148 163.134 136.991C162.929 136.811 162.737 136.632 162.555 136.442C162.308 136.207 162.074 135.962 161.849 135.716C161.635 135.493 161.433 135.269 161.241 135.035C161.006 134.768 160.794 134.501 160.592 134.234C160.464 134.078 160.347 133.922 160.242 133.766C160.072 133.555 159.923 133.343 159.786 133.133C159.743 133.077 159.701 133.021 159.669 132.966V132.956L159.542 132.767L159.351 132.478L158.855 131.679C158.476 131.015 158.131 130.34 157.817 129.644C157.662 129.291 157.505 128.938 157.371 128.584C157.143 127.999 156.949 127.415 156.776 126.81C156.725 126.667 156.695 126.524 156.655 126.381C156.503 125.853 156.383 125.325 156.286 124.787C156.245 124.633 156.216 124.469 156.197 124.315C156.08 123.689 155.996 123.064 155.954 122.428C155.927 122.187 155.91 121.946 155.905 121.706C155.886 121.585 155.877 121.464 155.881 121.344C155.872 121.256 155.873 121.168 155.875 121.092C155.862 120.72 155.859 120.347 155.867 119.976C155.876 119.582 155.896 119.189 155.926 118.807C155.945 118.457 155.985 118.108 156.025 117.77C156.066 117.431 156.117 117.105 156.178 116.778C156.193 116.636 156.217 116.495 156.253 116.353C156.315 116.027 156.388 115.7 156.46 115.385C157.066 112.719 158.16 110.249 159.631 108.04L160.477 106.889C160.77 106.502 161.074 106.115 161.399 105.75C164.441 102.241 168.577 99.6978 173.26 98.6313C174.084 98.4306 174.929 98.2857 175.795 98.2065C176.771 98.0859 177.767 98.0427 178.773 98.0652C183.353 98.1669 187.597 99.6384 191.097 102.09C191.506 102.373 191.915 102.677 192.301 103.003C197.008 106.771 200.142 112.407 200.624 118.75C200.667 119.254 200.689 119.769 200.677 120.283C200.694 120.511 200.69 120.742 200.684 120.971Z" fill="#F78431"/>
<path opacity="0.5882" d="M196.671 133.284C196.411 133.661 196.141 134.016 195.859 134.37C195.679 134.596 195.499 134.821 195.298 135.047C195.286 135.069 195.264 135.09 195.253 135.112L195.163 135.208L194.804 135.605L194.333 136.109C194.321 136.131 194.299 136.152 194.266 136.173C194.12 136.323 193.975 136.473 193.818 136.611C192.924 137.488 191.955 138.276 190.934 138.975C190.656 139.166 190.378 139.346 190.101 139.515C190.09 139.525 190.068 139.535 190.057 139.535C189.891 139.641 189.713 139.747 189.548 139.841C189.004 140.168 188.462 140.462 187.899 140.723C187.667 140.838 187.424 140.942 187.181 141.046C186.982 141.141 186.783 141.224 186.585 141.296C186.243 141.431 185.901 141.565 185.548 141.677C185.074 141.842 184.6 141.995 184.116 142.126C183.665 142.237 183.214 142.347 182.753 142.446C182.456 142.505 182.16 142.553 181.864 142.602C181.622 142.64 181.369 142.678 181.117 142.705C180.405 142.799 179.681 142.859 178.948 142.876C178.686 142.892 178.412 142.897 178.15 142.881C178.063 142.89 177.975 142.888 177.887 142.886L177.778 142.883C176.947 142.865 176.128 142.803 175.321 142.687L175.3 142.686C175.006 142.657 174.711 142.608 174.417 142.557C173.828 142.457 173.251 142.335 172.686 142.18C172.425 142.109 172.164 142.049 171.915 141.966C171.883 141.965 171.861 141.954 171.849 141.954C171.35 141.811 170.872 141.648 170.395 141.462C170.221 141.404 170.047 141.334 169.885 141.265C169.755 141.218 169.636 141.161 169.507 141.103C169.3 141.022 169.094 140.93 168.889 140.827C168.683 140.735 168.478 140.642 168.273 140.529C168.1 140.449 167.937 140.369 167.775 140.277C167.689 140.242 167.613 140.197 167.548 140.152C167.386 140.072 167.224 139.981 167.073 139.89C166.879 139.776 166.684 139.662 166.49 139.538C166.252 139.401 166.025 139.254 165.81 139.096C165.347 138.802 164.906 138.474 164.476 138.137C164.197 137.912 163.917 137.687 163.648 137.451C163.466 137.304 163.294 137.148 163.134 136.991C162.93 136.811 162.737 136.632 162.555 136.442C162.308 136.207 162.073 135.961 161.849 135.716C161.635 135.492 161.433 135.269 161.241 135.035C161.006 134.768 160.794 134.501 160.591 134.233C160.463 134.078 160.346 133.922 160.241 133.766C160.071 133.555 159.922 133.343 159.785 133.133C159.742 133.077 159.7 133.021 159.668 132.966V132.955L159.541 132.766L159.35 132.477L158.854 131.679C158.475 131.015 158.13 130.34 157.816 129.644C157.66 129.291 157.504 128.938 157.37 128.584C157.142 127.999 156.948 127.415 156.775 126.81C156.724 126.667 156.694 126.524 156.654 126.381C156.502 125.853 156.382 125.325 156.285 124.787C156.244 124.633 156.215 124.468 156.196 124.314C156.079 123.689 155.995 123.063 155.953 122.428C155.926 122.187 155.909 121.946 155.904 121.705C155.885 121.585 155.876 121.464 155.88 121.344C155.871 121.256 155.872 121.168 155.874 121.092C155.861 120.72 155.858 120.347 155.866 119.976C155.875 119.582 155.894 119.189 155.925 118.806C155.944 118.457 155.984 118.108 156.025 117.77C156.065 117.431 156.116 117.105 156.178 116.778C156.192 116.636 156.216 116.494 156.252 116.353C156.314 116.026 156.387 115.7 156.459 115.385C156.47 117.375 156.711 119.306 157.162 121.153C157.241 121.515 157.343 121.879 157.445 122.231C158.045 124.278 158.898 126.212 159.985 127.986C160.228 128.384 160.481 128.784 160.747 129.162C162.802 132.171 165.524 134.682 168.699 136.491V136.501C169.455 136.923 170.235 137.312 171.046 137.658C173.787 138.845 176.801 139.535 179.96 139.605C184.759 139.712 189.261 138.39 193.076 136.024C193.575 135.708 194.075 135.368 194.553 135.007H194.563C195.3 134.478 196.001 133.903 196.671 133.284Z" fill="#F07030"/>
<path d="M200.684 120.971C200.608 124.436 199.747 127.698 198.284 130.597C195.849 132.402 193.03 133.75 189.984 134.513C189.071 134.755 188.127 134.932 187.162 135.052C185.286 135.306 183.328 135.329 181.353 135.121C173.378 134.255 166.753 129.689 163.174 123.42C162.953 123.043 162.743 122.656 162.554 122.269C160.774 118.708 159.956 114.676 160.377 110.486C160.378 110.431 160.39 110.366 160.391 110.311C160.474 109.547 160.6 108.796 160.769 108.056C160.929 107.272 161.143 106.501 161.4 105.751C164.442 102.242 168.578 99.6986 173.26 98.6321C174.085 98.4314 174.93 98.2865 175.796 98.2073C176.771 98.0867 177.768 98.0435 178.774 98.066C183.354 98.1677 187.597 99.6392 191.097 102.091C191.507 102.373 191.916 102.678 192.302 103.003C197.009 106.772 200.142 112.408 200.625 118.751C200.668 119.255 200.69 119.77 200.678 120.283C200.694 120.511 200.69 120.742 200.684 120.971Z" fill="#F78F39"/>
<path d="M159.669 132.966C159.96 131.671 160.316 130.41 160.749 129.163C161.218 127.707 161.797 126.276 162.451 124.88C162.612 124.523 162.784 124.177 162.967 123.82C163.035 123.691 163.104 123.55 163.173 123.421C163.779 122.252 164.449 121.109 165.174 120.009C165.389 119.686 165.604 119.362 165.841 119.039C166.53 118.038 167.284 117.07 168.081 116.147C168.957 115.127 169.896 114.164 170.879 113.256C171.136 113 171.415 112.754 171.683 112.519C177.438 107.441 184.719 104.114 192.301 103.002C191.915 102.677 191.505 102.372 191.097 102.09C183.719 103.359 176.689 106.681 171.057 111.609C170.778 111.855 170.511 112.1 170.243 112.345C169.193 113.317 168.186 114.356 167.254 115.439C166.524 116.276 165.838 117.147 165.205 118.051C164.958 118.374 164.732 118.697 164.528 119.031C163.805 120.076 163.146 121.155 162.553 122.269C162.405 122.517 162.279 122.765 162.153 123.015C161.971 123.35 161.8 123.685 161.639 124.032V124.043C161.019 125.33 160.466 126.641 159.987 127.986C159.544 129.201 159.167 130.429 158.855 131.68L159.669 132.966Z" fill="#332726"/>
<path d="M200.678 120.282C196.778 116.629 191.233 114.637 185.93 115.121C184.845 115.217 183.703 115.411 182.605 115.594C179.477 116.126 176.227 116.678 173.328 115.235C172.343 114.743 171.528 114.058 170.878 113.256C170.633 112.966 170.421 112.667 170.242 112.345C168.543 109.563 168.441 105.776 169.76 102.984C170.53 101.338 171.732 99.856 173.258 98.632C174.082 98.4313 174.928 98.2864 175.794 98.2072C173.501 99.523 171.732 101.344 170.746 103.443C169.598 105.89 169.645 109.172 171.057 111.609C171.247 111.93 171.448 112.241 171.683 112.52C172.246 113.233 172.966 113.828 173.82 114.252C176.394 115.545 179.325 115.041 182.421 114.519C183.541 114.325 184.694 114.132 185.823 114.026C191.16 113.542 196.567 115.314 200.624 118.751C200.668 119.253 200.689 119.768 200.678 120.282Z" fill="#332726"/>
<path d="M194.334 136.108C193.919 136.088 193.492 136.067 193.078 136.025C191.091 135.86 189.108 135.533 187.162 135.052C181.299 133.609 175.761 130.797 171.224 126.824C168.928 124.816 166.901 122.518 165.174 120.008C164.951 119.686 164.729 119.363 164.528 119.031C162.794 116.368 161.404 113.483 160.376 110.486C160.099 109.681 159.854 108.867 159.632 108.041L160.478 106.89C160.557 107.275 160.658 107.671 160.769 108.056C161.741 111.577 163.241 114.957 165.206 118.052C165.407 118.385 165.618 118.717 165.841 119.039C167.566 121.615 169.614 123.957 171.942 125.999C177.005 130.432 183.349 133.372 189.984 134.514C191.499 134.777 193.025 134.953 194.555 135.009H194.566C194.817 135.037 195.047 135.041 195.298 135.047H195.308L194.334 136.108Z" fill="#332726"/>
<path d="M177.867 142.884L175.323 142.685L175.302 142.684C172.723 141.074 170.473 138.979 168.702 136.501V136.49C168.066 135.601 167.496 134.659 166.992 133.685C166.478 132.69 166.042 131.641 165.616 130.636C165.148 129.532 164.671 128.384 164.093 127.321C163.589 126.381 163.049 125.559 162.452 124.879C162.197 124.566 161.929 124.276 161.64 124.041V124.03C160.986 123.425 160.296 122.972 159.56 122.66C158.921 122.395 158.191 122.236 157.447 122.231C156.944 122.231 156.44 122.285 155.955 122.427C155.927 122.186 155.911 121.945 155.906 121.704C155.887 121.584 155.878 121.463 155.881 121.342C156.3 121.22 156.727 121.164 157.165 121.153C158.095 121.097 159.066 121.261 159.986 121.653C160.756 121.976 161.478 122.43 162.154 123.014C162.444 123.26 162.722 123.529 162.968 123.819C163.748 124.635 164.437 125.635 165.068 126.796C165.655 127.914 166.154 129.084 166.633 130.21C167.049 131.204 167.474 132.219 167.967 133.182C168.795 134.808 169.833 136.308 171.05 137.658C172.958 139.822 175.281 141.602 177.867 142.884Z" fill="#332726"/>
<path d="M173.517 150.63C173.517 150.63 163.304 147.122 160.007 144.358C156.711 141.595 155.75 135.602 156.182 132.878C156.475 131.037 157.692 128.876 159.999 126.477C162.372 124.003 162.81 127.469 162.305 129.022C161.8 130.574 161.099 133.577 161.099 133.577L162.063 136.956C162.063 136.956 168.482 136.508 171.288 141.633C174.106 146.749 173.517 150.63 173.517 150.63Z" fill="#BF6565"/>
<path d="M110.712 322.52C110.712 322.52 123.437 335.902 126.5 344H175H185L171.494 305.006L110.712 322.52Z" fill="#C5D1DE"/>
<path d="M165.084 321.316C161.196 336.563 164.707 331.247 155.5 344C161.654 330.441 157.517 336.697 165.084 321.316Z" fill="#A1B2CC"/>
<path d="M162.694 321.591C156.398 332.648 150.747 338.045 139.5 344C148.489 336.328 153.383 332.164 162.694 321.591Z" fill="#A1B2CC"/>
<path d="M166.638 324.512L170.754 326.627L177.553 310.411L166.762 311.597L166.638 324.512Z" fill="#6F7B9E"/>
<path d="M304.551 312.782C305.157 314.546 306.381 315.854 308.182 316.67C318.413 316.063 321.998 308.686 330.096 305.026C338.402 301.28 347.828 300.692 355.964 296.586C364.593 292.234 368.149 286.042 368.149 286.042C368.149 286.042 367.106 282.676 366.423 282.78C347.06 291.456 326.749 300.379 304.551 312.782Z" fill="#2E191F"/>
<path d="M309.7 315.636C310.278 316.413 310.856 317.181 311.445 317.95C312.412 317.836 313.36 317.561 314.242 317.163C314.1 316.357 313.958 315.541 313.824 314.736" fill="#2E191F"/>
<path d="M314.877 313.986C315.503 314.726 316.129 315.465 316.755 316.195C317.712 316.024 318.699 315.456 319.495 314.736C319.305 313.939 318.879 312.934 318.689 312.137" fill="#2E191F"/>
<path d="M320.566 309.928C321.192 310.668 321.818 311.408 322.444 312.138C323.401 311.967 324.388 311.398 325.184 310.678C324.994 309.881 324.568 308.876 324.378 308.079" fill="#2E191F"/>
<path d="M339.086 301.347C339.636 302.143 340.177 302.94 340.735 303.736C341.703 303.66 342.736 303.195 343.608 302.561C343.504 301.745 343.182 300.702 343.077 299.896" fill="#2E191F"/>
<path d="M347.383 298.738C347.933 299.535 348.474 300.331 349.032 301.128C350 301.052 351.033 300.587 351.905 299.952C351.801 299.137 351.479 298.094 351.374 297.287" fill="#2E191F"/>
<path d="M355.68 295.42C356.23 296.216 356.771 297.013 357.33 297.809C358.297 297.734 359.33 297.269 360.202 296.634C360.098 295.819 359.776 294.776 359.671 293.969" fill="#2E191F"/>
<path d="M362.479 289.967C363.028 290.763 363.806 292.271 364.366 293.067C365.333 292.992 366.841 292.053 367.713 291.418C367.609 290.602 366.575 288.611 366.471 287.805" fill="#2E191F"/>
<path d="M299.099 293.931C299.099 293.931 298.7 311.748 304.323 313.996C311.312 316.793 321.012 308.287 324.018 305.822C327.024 303.357 341.01 298.986 345.874 297.942C350.748 296.899 367.902 289.598 366.963 281.595C366.261 275.612 361.615 274.957 358.078 275.744C350.076 277.508 322.643 277.82 313.777 278.143L299.099 293.931Z" fill="#CF3045"/>
<path d="M324.066 277.622C322.805 279.954 321.989 282.515 321.676 285.151" stroke="#F7D9D7" stroke-width="4" stroke-miterlimit="10" stroke-linecap="round"/>
<path d="M330.466 277.622C329.206 279.954 328.39 282.515 328.077 285.151" stroke="#F7D9D7" stroke-width="4" stroke-miterlimit="10" stroke-linecap="round"/>
<path d="M337.549 277.622C336.289 279.954 335.473 282.515 335.16 285.151" stroke="#F7D9D7" stroke-width="4" stroke-miterlimit="10" stroke-linecap="round"/>
<path d="M316.594 278.494L300.255 298.71C300.255 298.71 283.671 298.085 274.757 297.781C267.674 297.534 249.155 300.54 231.565 295.912C226.995 294.708 222.481 292.982 218.252 290.554C218.252 290.554 200.937 302.113 183.916 310.192C176.026 313.947 168.194 316.944 162.173 317.693L174.253 269.683C174.253 269.683 177.819 268.745 182.892 267.465C193.512 264.772 210.77 260.59 215.729 260.401C217.54 260.334 224.624 261.406 234.257 263.066C263.596 268.091 316.594 278.494 316.594 278.494Z" fill="#F69887"/>
<path d="M316.594 278.494L300.255 298.71C300.255 298.71 283.671 298.085 274.757 297.781C267.674 297.534 249.155 300.54 231.565 295.912C230.437 293.362 229.716 290.583 229.232 287.833C228.265 282.191 228.17 276.293 229.925 270.86C230.844 268.025 232.314 265.322 234.258 263.065C263.596 268.091 316.594 278.494 316.594 278.494Z" fill="#271F64"/>
<path d="M183.916 310.193C176.026 313.948 168.194 316.945 162.173 317.694L174.253 269.684C174.253 269.684 177.819 268.745 182.892 267.466C180.483 273.752 171.314 300.284 183.916 310.193Z" fill="#DB6F60"/>
<path d="M321.496 278.276C318.784 274.227 315.845 271.866 311.331 269.742C310.591 269.391 309.756 269.069 308.95 269.268C307.604 269.609 307.101 271.212 307.177 272.539C307.253 273.867 307.66 275.242 307.177 276.494C306.759 277.584 305.688 278.532 305.878 279.68C306.039 280.647 307.035 281.254 307.936 281.737C310.638 283.178 313.35 284.61 316.053 286.052C318.054 283.785 319.107 280.599 321.496 278.276Z" fill="#CF3045"/>
<path d="M182.91 266.641C177.638 275.601 174.613 289.398 172.878 301.498C170.934 315.143 170.631 326.636 170.631 326.636C170.631 326.636 133.887 334.999 120.042 331.197C111.366 328.816 103.211 322.559 100.755 308.012C97.9667 291.522 104.889 273.097 104.889 273.097L117.691 274.9L131.45 276.834L182.91 266.641Z" fill="#E4EAF0"/>
<path opacity="0.78" d="M182.91 266.641C177.638 275.601 174.613 289.398 172.878 301.498C172.878 300.237 172.784 298.975 172.537 297.743C172.025 295.126 170.754 292.556 168.563 291.02C166.458 289.54 163.793 289.189 161.234 288.953C152.586 288.165 143.672 288.298 135.47 291.143C127.259 293.978 119.787 299.838 116.581 307.908C118.118 299.355 122.773 291.4 129.487 285.881C121.692 287.72 114.325 291.295 108.057 296.283C113.728 289.531 121.039 284.174 129.175 280.808C123.077 278.949 116.668 278.077 110.286 278.247C112.742 277.118 115.207 276 117.692 274.9L131.451 276.834L182.91 266.641Z" fill="white"/>
<path d="M147.569 274.568C132.53 281.727 120.592 296.093 115.215 311.862C117.284 295.078 130.312 279.224 147.569 274.568Z" fill="#BDCBDE"/>
<path d="M147.569 274.568C134.095 278.911 115.102 289.825 104.747 299.478C112.855 287.577 132.739 275.848 147.569 274.568Z" fill="#BDCBDE"/>
<path d="M215.104 205.65C215.104 205.65 240.403 212.979 241.465 223.799C242.527 234.619 235.178 238.706 229.783 238.516C220.594 238.194 199.913 228.076 199.913 228.076L215.104 205.65Z" fill="#DB6F60"/>
<path d="M82.0367 211.121C79.8371 212.487 76.1291 214.109 71.6822 215.806C56.0456 221.732 29.9213 229.024 29.9213 229.024L26.4131 215.189C31.0121 212.61 47.8718 201.44 56.0078 197.685C59.7725 195.95 64.9214 195.011 69.3593 194.508C74.4416 193.94 78.5951 193.94 78.6806 193.94L82.0367 211.121Z" fill="#F69887"/>
<path d="M82.0366 211.121C79.837 212.487 76.129 214.108 71.6821 215.806C69.7192 209.035 68.9227 201.753 69.3592 194.508C74.4415 193.939 78.595 193.939 78.6805 193.939L82.0366 211.121Z" fill="#DB6F60"/>
<path d="M9.65779 235.007C9.65779 235.007 7.35379 241.598 16.4663 241.095C19.9556 240.905 24.6023 237.482 26.6597 234.656C28.7171 231.83 30.2723 228.617 33.1928 225.753C31.4009 222.548 29.8457 219.21 28.2149 215.882C23.237 213.521 17.8793 211.994 12.4082 211.368C10.9952 211.207 9.52549 211.112 8.20789 211.662C6.45379 212.392 5.34409 214.109 4.42429 215.768C3.09679 218.177 1.93039 220.67 0.934993 223.24C0.337393 224.795 -0.212507 226.455 0.0817929 228.095C0.441793 230.172 2.11129 231.831 4.00759 232.732C5.90299 233.632 9.65779 235.007 9.65779 235.007Z" fill="#F69887"/>
<path d="M10.0466 234.543C11.384 231.376 12.1517 227.972 12.3038 224.538" stroke="#BD3E42" stroke-miterlimit="10" stroke-linecap="round"/>
<path d="M11.393 230.494C10.0466 228.92 8.37795 227.621 6.51855 226.681" stroke="#BD3E42" stroke-miterlimit="10" stroke-linecap="round"/>
<path d="M131.336 276.948C126.139 277.887 109.166 279.319 102.253 282.457C98.1566 281.813 97.2278 278.105 98.1377 275.213C99.0485 272.321 101.276 270.083 103.429 267.959C100.006 248.426 102.86 234.515 105.193 222.832C96.0047 222.842 90.6092 222.785 82.34 222.207C74.7539 214.014 71.1413 200.34 69.7571 188.279C81.449 189.094 91.7945 186.581 103.524 184.315C115.254 182.049 127.713 177.876 140.344 182.277C168.725 184.865 196.613 192.689 222.205 205.376C214.136 215.56 206.067 225.744 199.039 235.568C193.673 235.568 186.484 234.81 181.08 234.27C179.677 239.513 176.585 250.342 175.296 255.776C177.495 260.308 178.463 263.703 177.78 268.112C160.371 271.998 135.963 276.104 131.336 276.948Z" fill="#4EC2DD"/>
<path d="M130.7 185.282C130.7 193.077 152.548 213.416 152.548 213.416C152.548 213.416 168.517 204.047 167.208 196.082C156.53 192.839 143.17 190.981 130.7 185.282Z" fill="#DB6F60"/>
<path d="M152.548 213.416C165.899 203.744 169.057 196.642 167.131 188.278C169.047 187.718 171.001 187.159 172.991 187.206C180.283 187.396 182.133 196.015 183.621 206.55C175.476 203.744 161.623 208.694 152.548 213.416Z" fill="#D9FBFF"/>
<path d="M152.548 213.416C141.33 202.198 139.766 194.338 141.871 184.049C137.651 182.276 134.057 180.911 129.582 181.868C125.912 190.042 123.931 195.105 123.931 205.394C131.137 203.858 145.199 207.736 152.548 213.416Z" fill="#D9FBFF"/>
<path d="M181.374 232.93C184.2 225.164 186.314 217.143 187.67 208.997C188.363 217.323 186.23 225.857 181.374 232.93Z" fill="#3792C4"/>
<path d="M182.711 230.788C188.751 224.359 193.597 216.801 196.935 208.627C195.892 213.387 194.299 218.071 191.776 222.244C189.245 226.416 185.745 230.058 182.711 230.788Z" fill="#3792C4"/>
<path d="M171.759 256.333C160.304 254.01 148.461 253.649 136.893 255.271C148.186 250.701 161.386 251.08 171.759 256.333Z" fill="#3792C4"/>
<path d="M107.042 222.055C111.954 214.82 115.254 206.494 116.629 197.856C117.217 206.826 113.509 215.976 107.042 222.055Z" fill="#3792C4"/>
<path d="M108.255 222.965C113.565 218.707 118.117 213.511 121.645 207.698C121.682 212.032 119.862 216.355 116.742 219.361C113.623 222.367 109.233 224.018 108.255 222.965Z" fill="#3792C4"/>
<path d="M167.722 231.576C168.769 228.233 171.574 226.135 173.988 226.891C176.402 227.647 177.51 230.969 176.463 234.313C175.416 237.656 172.611 239.754 170.197 238.998C167.783 238.242 166.674 234.92 167.722 231.576Z" fill="#FFC061"/>
<path d="M215.881 212.942C220.793 212.497 225.819 212.06 230.617 213.227C235.415 214.393 240.023 217.484 241.692 222.13C243.523 227.241 241.199 233.329 236.78 236.487C232.361 239.644 226.302 240.014 221.229 238.09C216.155 236.165 212.041 232.154 209.281 227.479C211.538 222.822 213.795 218.176 215.881 212.942Z" fill="#F08678"/>
<path d="M198.49 214.743C195.664 216.071 193.939 219.333 194.261 222.434C194.583 225.534 196.841 228.312 199.761 229.422C202.682 230.532 206.114 230.001 208.675 228.208C206.522 223.268 203.345 218.764 198.49 214.743Z" fill="#F08678"/>
<path d="M224.984 219.361C223.769 214.933 219.91 211.585 216.279 208.779C212.647 205.972 207.678 204.455 203.373 206.057C200.898 206.977 198.859 208.826 197.352 210.988C196.394 212.364 195.607 213.947 195.626 215.616C195.644 217.295 196.669 219.039 198.726 220.063C198.205 221.618 198.517 223.439 199.541 224.719C200.566 225.999 202.253 226.729 204.927 226.625C204.86 228.028 205.477 229.441 206.549 230.342C207.621 231.243 209.128 231.603 211.205 231.764C211.754 234.059 214.589 235.215 216.875 234.618C219.151 234.011 220.876 232.134 222.109 230.123C223.742 227.478 226.33 224.283 224.984 219.361Z" fill="#F69887"/>
<path d="M199.135 219.21C200.851 216.185 203.25 213.549 206.104 211.557" stroke="#BD3E42" stroke-miterlimit="10" stroke-linecap="round"/>
<path d="M205.403 226.246C207.878 223.809 210.059 221.068 211.871 218.11" stroke="#BD3E42" stroke-miterlimit="10" stroke-linecap="round"/>
<path d="M212.315 231.015C214.657 228.739 216.544 225.999 217.863 223.012" stroke="#BD3E42" stroke-miterlimit="10" stroke-linecap="round"/>
<path d="M175.079 175.563C179.896 173.511 185.009 174.678 186.497 178.171C187.985 181.664 185.286 186.159 180.467 188.211C175.649 190.263 170.537 189.096 169.049 185.603C167.561 182.11 170.26 177.615 175.079 175.563Z" fill="#DB6F60"/>
<path d="M128.605 180.408C125.959 163.596 135.461 148.14 149.817 145.882C164.173 143.625 177.439 147.314 180.597 172.243C182.731 189.132 178.008 204.986 163.651 207.243C149.296 209.5 131.251 197.22 128.605 180.408Z" fill="#F69887"/>
<path d="M159.081 178.379C157.441 176.445 154.852 175.467 152.311 175.373C149.769 175.278 147.256 175.979 144.905 176.928C149.409 177.611 153.951 177.98 159.081 178.379Z" fill="#271F64"/>
<path d="M170.925 177.108C170.821 175.032 172.092 173.163 173.798 171.968C175.505 170.773 177.856 170.877 179.44 171.456C176.568 173.201 173.874 175.25 170.925 177.108Z" fill="#271F64"/>
<path d="M155.27 187.919C156.187 187.919 156.93 187.018 156.93 185.908C156.93 184.798 156.187 183.897 155.27 183.897C154.353 183.897 153.61 184.798 153.61 185.908C153.61 187.018 154.353 187.919 155.27 187.919Z" fill="#323F6E"/>
<path d="M175.174 183.889C176.09 183.889 176.833 182.988 176.833 181.878C176.833 180.767 176.09 179.867 175.174 179.867C174.257 179.867 173.514 180.767 173.514 181.878C173.514 182.988 174.257 183.889 175.174 183.889Z" fill="#323F6E"/>
<path d="M171.058 183.528C171.816 185.879 171.76 188.478 170.896 190.792" stroke="#BD3E42" stroke-miterlimit="10" stroke-linecap="round"/>
<path d="M170.223 201.355C171.058 200.549 171.342 199.781 171.664 198.662C171.986 197.543 172.043 196.32 171.598 195.239C171.152 194.167 170.147 193.286 168.99 193.21C167.786 193.134 166.695 193.873 165.775 194.67C164.268 195.979 162.884 197.62 162.589 199.592C162.495 200.265 162.533 200.976 162.836 201.592C163.319 202.56 164.4 203.119 165.472 203.242C166.544 203.365 168.137 203.364 170.223 201.355Z" fill="white"/>
<path d="M181.081 180.361C180.721 174.51 179.735 165.777 177.791 160.533C169.218 162.856 153.194 163.937 141.425 163.226C141.425 172.054 138.695 180.085 135.167 188.278C132.825 187.206 130.454 185.604 128.548 183.888C125.372 175.799 123.323 168.489 122.27 159.945C122.109 158.608 122.015 157.186 122.157 155.829C122.318 154.208 122.811 152.681 123.902 151.496C125.286 149.988 127.391 149.315 128.823 147.854C130.966 145.655 131.194 142.108 133.308 139.88C135.574 137.499 139.31 137.338 142.563 137.812C145.815 138.296 149.134 139.254 152.339 138.523C154.9 137.936 157.308 136.286 159.916 136.608C163.661 137.082 165.928 141.349 169.607 142.146C171.409 142.535 173.381 142.041 175.078 142.743C177.344 143.682 178.293 146.328 178.852 148.718C179.069 149.666 179.269 150.624 179.449 151.581C180.037 154.692 180.426 157.821 180.748 160.836C181.403 167.161 182.095 173.362 181.081 180.361Z" fill="#271F64"/>
<path d="M179.45 151.581C179.327 151.364 179.185 151.155 179.042 150.946C177.478 148.709 175.069 146.907 172.348 146.746C169.75 146.594 167.057 147.912 164.62 147.002C162.467 146.196 161.102 143.825 158.854 143.332C155.432 142.573 152.644 146.566 149.144 146.812C145.551 147.068 142.365 143.313 138.856 144.138C135.85 144.849 134.617 148.377 132.379 150.492C130.293 152.454 127.363 153.147 124.745 154.303C123.854 154.702 122.953 155.213 122.157 155.829C122.318 154.208 122.811 152.681 123.902 151.496C125.286 149.988 127.391 149.315 128.823 147.855C130.966 145.655 131.194 142.108 133.308 139.88C135.574 137.499 139.31 137.338 142.563 137.812C145.815 138.296 149.134 139.253 152.339 138.523C154.9 137.936 157.308 136.286 159.916 136.608C163.661 137.082 165.928 141.349 169.607 142.146C171.409 142.535 173.38 142.041 175.078 142.743C177.344 143.682 178.293 146.328 178.852 148.718C179.07 149.666 179.269 150.624 179.45 151.581Z" fill="#45478C"/>
<path d="M121.538 184.662C122.642 181.029 127.599 179.318 132.61 180.841C137.62 182.364 140.787 186.544 139.683 190.176C138.578 193.808 133.621 195.519 128.611 193.997C123.601 192.474 120.433 188.294 121.538 184.662Z" fill="#F69887"/>
<path d="M413.703 239.019C413.703 239.237 413.703 239.455 413.694 239.673C413.343 256.646 399.48 270.311 382.412 270.311C365.125 270.311 351.12 256.296 351.12 239.019C351.12 231.025 354.116 223.723 359.057 218.186C364.793 211.766 373.128 207.727 382.412 207.727C399.697 207.727 413.703 221.732 413.703 239.019Z" fill="white"/>
<path d="M411.882 249.554C407.559 261.653 395.999 270.31 382.411 270.31C365.124 270.31 351.119 256.295 351.119 239.018C351.119 233.66 352.465 228.626 354.836 224.216C353.659 227.506 353.015 231.052 353.015 234.751C353.015 252.029 367.021 266.043 384.307 266.043C396.236 266.043 406.6 259.368 411.882 249.554Z" fill="#CBD2D8"/>
<mask id="mask0_17104_26268" style="mask-type:luminance" maskUnits="userSpaceOnUse" x="351" y="207" width="63" height="64">
<path d="M413.703 239.019C413.703 239.237 413.703 239.455 413.694 239.673C413.343 256.646 399.48 270.311 382.412 270.311C365.125 270.311 351.12 256.296 351.12 239.019C351.12 231.025 354.116 223.723 359.057 218.186C364.793 211.766 373.128 207.727 382.412 207.727C399.697 207.727 413.703 221.732 413.703 239.019Z" fill="white"/>
</mask>
<g mask="url(#mask0_17104_26268)">
<path d="M412.84 256.675C410.962 256.76 409.056 256.353 407.369 255.518C408.838 251.668 409.692 247.942 409.787 243.95C411.75 243.21 413.713 242.48 415.258 241.997C417.372 247.239 416.651 253.527 412.84 256.675Z" fill="#222F38"/>
<path d="M397.734 230.664C397.611 226.634 397.061 223.097 396.084 219.2C391.485 216.735 386.45 215.777 382.088 217.446C380.259 220.366 378.788 223.533 377.822 227.222C380.002 230.778 382.496 234.125 385.521 237.796C389.702 235.424 393.894 233.054 397.734 230.664Z" fill="#222F38"/>
<path d="M374.749 259.5C374.787 261.899 375.27 264.241 376.143 266.593C380.619 268.205 385.095 268.309 389.418 267.446C391.267 265.768 392.035 263.919 393.069 261.756C391.001 259.566 387.664 257.498 384.753 255.213C380.6 257.424 378.579 258.201 374.749 259.5Z" fill="#222F38"/>
<path d="M385.777 234.448C385.359 242.508 384.932 250.577 384.516 258.637" stroke="#222F38" stroke-miterlimit="10"/>
<path d="M380.496 226.786C371.003 227.526 362.052 233.291 357.444 241.626" stroke="#222F38" stroke-miterlimit="10"/>
<path d="M395.25 229.555C402.95 231.84 409.104 238.668 410.592 246.566" stroke="#222F38" stroke-miterlimit="10"/>
<path d="M395.231 220.537C398.001 218.755 400.541 216.612 402.77 214.174" stroke="#222F38" stroke-miterlimit="10"/>
<path d="M383.985 218.328C381.415 214.459 377.527 211.5 373.118 210.05" stroke="#222F38" stroke-miterlimit="10"/>
<path d="M355.443 256.153C357.653 255.139 359.862 254.124 362.062 253.099C359.909 248.87 358.742 244.242 358.382 239.34C355.709 238.477 352.807 238.345 349.763 239.463C348.198 245.581 350.559 252.522 355.443 256.153Z" fill="#222F38"/>
<path d="M362.782 212.004C366.888 211.625 370.993 211.245 375.204 211.577C375.753 209.52 376.303 207.461 376.853 205.394C371.733 206.437 366.442 207.547 362.782 212.004Z" fill="#222F38"/>
<path d="M377.433 265.806C375.091 266.906 372.748 268.006 370.406 269.107" stroke="#222F38" stroke-miterlimit="10"/>
<path d="M388.764 267.456C390.565 269.162 391.96 271.306 392.775 273.648" stroke="#222F38" stroke-miterlimit="10"/>
<path d="M391.912 261.596C398.075 261.027 404.03 258.353 408.554 254.124" stroke="#222F38" stroke-miterlimit="10"/>
<path d="M376.683 259.851C370.292 259.757 364.024 256.523 360.241 251.374" stroke="#222F38" stroke-miterlimit="10"/>
</g>
</svg>
