<svg width="41" height="33" viewBox="0 0 41 33" fill="none" xmlns="http://www.w3.org/2000/svg">
<path d="M1.82422 9.61034H39.2042M1.82422 11.048H39.2042M7.57499 21.1119H19.0765M7.57499 25.425H13.3258M6.1373 31.1757H34.8911C36.035 31.1757 37.1321 30.7213 37.9409 29.9124C38.7498 29.1036 39.2042 28.0065 39.2042 26.8626V6.73495C39.2042 5.59105 38.7498 4.49401 37.9409 3.68515C37.1321 2.87629 36.035 2.42188 34.8911 2.42188H6.1373C4.9934 2.42188 3.89635 2.87629 3.08749 3.68515C2.27863 4.49401 1.82422 5.59105 1.82422 6.73495V26.8626C1.82422 28.0065 2.27863 29.1036 3.08749 29.9124C3.89635 30.7213 4.9934 31.1757 6.1373 31.1757Z" stroke="#417465" stroke-width="3" stroke-linecap="round" stroke-linejoin="round"/>
</svg>
