<svg width="42" height="35" viewBox="0 0 42 35" fill="none" xmlns="http://www.w3.org/2000/svg">
<path d="M35.1094 3.20808C34.4925 2.5912 34.4925 1.5937 35.1094 0.983392C35.7262 0.373079 36.7238 0.366517 37.3341 0.983392L41.5341 5.18339C41.8294 5.4787 41.9934 5.87902 41.9934 6.29902C41.9934 6.71902 41.8294 7.11933 41.5341 7.41464L37.3341 11.6146C36.7172 12.2315 35.7197 12.2315 35.1094 11.6146C34.4991 10.9978 34.4925 10.0003 35.1094 9.38995L36.6187 7.88058L25.2 7.86746C24.3272 7.86746 23.625 7.16527 23.625 6.29246C23.625 5.41964 24.3272 4.71745 25.2 4.71745H36.6253L35.1094 3.20808ZM6.89062 25.2581L5.38125 26.7675H16.8C17.6728 26.7675 18.375 27.4696 18.375 28.3425C18.375 29.2153 17.6728 29.9175 16.8 29.9175H5.37469L6.88406 31.4268C7.50094 32.0437 7.50094 33.0412 6.88406 33.6515C6.26719 34.2618 5.26969 34.2684 4.65937 33.6515L0.459375 29.4581C0.164062 29.1628 0 28.7625 0 28.3425C0 27.9225 0.164062 27.5221 0.459375 27.2268L4.65937 23.0268C5.27625 22.41 6.27375 22.41 6.88406 23.0268C7.49437 23.6437 7.50094 24.6412 6.88406 25.2515L6.89062 25.2581ZM6.3 4.71745H22.1747C21.9319 5.18995 21.7875 5.72152 21.7875 6.29246C21.7875 8.17589 23.3166 9.70496 25.2 9.70496H32.9044C32.6419 10.8206 32.9437 12.0346 33.81 12.9075C35.1422 14.2396 37.3013 14.2396 38.6334 12.9075L39.9 11.6409V25.7175C39.9 28.034 38.0166 29.9175 35.7 29.9175H19.8253C20.0681 29.445 20.2125 28.9134 20.2125 28.3425C20.2125 26.459 18.6834 24.93 16.8 24.93H9.09562C9.35812 23.8143 9.05625 22.6003 8.19 21.7275C6.85781 20.3953 4.69875 20.3953 3.36656 21.7275L2.1 22.994V8.91745C2.1 6.60089 3.98344 4.71745 6.3 4.71745ZM10.5 8.91745H6.3V13.1175C8.61656 13.1175 10.5 11.234 10.5 8.91745ZM35.7 21.5175C33.3834 21.5175 31.5 23.4009 31.5 25.7175H35.7V21.5175ZM21 23.6175C24.4781 23.6175 27.3 20.7956 27.3 17.3175C27.3 13.8393 24.4781 11.0175 21 11.0175C17.5219 11.0175 14.7 13.8393 14.7 17.3175C14.7 20.7956 17.5219 23.6175 21 23.6175Z" fill="#8DCABE"/>
</svg>
