<svg width="34" height="38" viewBox="0 0 34 38" fill="none" xmlns="http://www.w3.org/2000/svg">
<path fill-rule="evenodd" clip-rule="evenodd" d="M8.59993 8.5001V10.6001H5.80063C4.88136 10.6003 3.99554 10.945 3.31795 11.5662C2.64035 12.1875 2.22018 13.0401 2.14033 13.9559L0.405735 33.9059C0.361501 34.4132 0.423197 34.9242 0.586909 35.4065C0.750621 35.8887 1.01278 36.3317 1.35674 36.7072C1.7007 37.0828 2.11897 37.3827 2.58501 37.5881C3.05104 37.7934 3.55467 37.8997 4.06393 37.9001H29.9359C30.4454 37.9 30.9492 37.7939 31.4155 37.5887C31.8818 37.3835 32.3003 37.0836 32.6445 36.708C32.9887 36.3324 33.2511 35.8894 33.4149 35.407C33.5787 34.9246 33.6405 34.4134 33.5962 33.9059L31.8616 13.9559C31.7818 13.0397 31.3613 12.1868 30.6832 11.5655C30.0052 10.9443 29.1189 10.5998 28.1992 10.6001H25.3999V8.5001C25.3999 6.27228 24.5149 4.13571 22.9396 2.5604C21.3643 0.985095 19.2278 0.100098 16.9999 0.100098C14.7721 0.100098 12.6355 0.985095 11.0602 2.5604C9.48493 4.13571 8.59993 6.27228 8.59993 8.5001ZM16.9999 3.2501C15.6075 3.2501 14.2722 3.80322 13.2876 4.78779C12.3031 5.77235 11.7499 7.10771 11.7499 8.5001V10.6001H22.2499V8.5001C22.2499 7.10771 21.6968 5.77235 20.7122 4.78779C19.7277 3.80322 18.3923 3.2501 16.9999 3.2501ZM11.7499 19.0001C11.7499 20.3925 12.3031 21.7278 13.2876 22.7124C14.2722 23.697 15.6075 24.2501 16.9999 24.2501C18.3923 24.2501 19.7277 23.697 20.7122 22.7124C21.6968 21.7278 22.2499 20.3925 22.2499 19.0001V16.3751C22.2499 15.9574 22.4159 15.5568 22.7112 15.2614C23.0066 14.966 23.4072 14.8001 23.8249 14.8001C24.2427 14.8001 24.6433 14.966 24.9386 15.2614C25.234 15.5568 25.3999 15.9574 25.3999 16.3751V19.0001C25.3999 21.2279 24.5149 23.3645 22.9396 24.9398C21.3643 26.5151 19.2278 27.4001 16.9999 27.4001C14.7721 27.4001 12.6355 26.5151 11.0602 24.9398C9.48493 23.3645 8.59993 21.2279 8.59993 19.0001V16.3751C8.59993 15.9574 8.76587 15.5568 9.06124 15.2614C9.35661 14.966 9.75722 14.8001 10.1749 14.8001C10.5927 14.8001 10.9933 14.966 11.2886 15.2614C11.584 15.5568 11.7499 15.9574 11.7499 16.3751V19.0001Z" fill="#8DCABE"/>
</svg>
