<svg width="67" height="119" viewBox="0 0 67 119" fill="none" xmlns="http://www.w3.org/2000/svg">
<path d="M9.53383 123.874C16.6769 126.984 27.4198 119.488 31.8983 109.929C36.5186 100.076 31.4165 94.609 33.5424 80.1401C35.9517 63.6743 43.7184 62.6267 51.8251 41.3816C53.6392 36.6023 64.2121 8.84283 57.0407 1.90297C50.4362 -4.51312 27.7316 5.9294 21.4956 23.7046C17.0454 36.3731 24.2167 43.4112 18.9728 58.142C14.3809 71.0724 7.32289 69.9267 2.78763 82.366C-2.73972 97.5224 0.179851 119.815 9.53383 123.874Z" fill="url(#paint0_linear)"/>
<path d="M9.50684 127.967C10.0737 109.865 17.8687 83.2183 24.3031 64.101C31.2761 43.3796 38.2207 26.7174 38.3058 26.5537L38.901 26.8811C38.8443 27.0447 31.8997 43.7069 24.9267 64.3956C18.4923 83.4802 10.7257 109.996 10.1588 128L9.50684 127.967Z" fill="white"/>
<path d="M27.2785 122.172C18.2931 116.77 15.2318 98.2096 20.3339 92.1864C23.7921 88.0945 28.7242 92.3828 33.5145 88.1599C39.6088 82.7586 35.1302 72.6107 39.9206 59.4185C44.0023 48.1903 53.7815 37.5841 59.4789 39.7773C65.4598 42.0688 68.6061 58.9602 63.5039 69.1408C60.1875 75.7533 55.0853 76.0807 53.9799 82.2349C52.7043 89.3711 58.8836 92.6446 58.912 99.5518C58.9687 111.991 39.1553 129.308 27.2785 122.172Z" fill="url(#paint1_linear)"/>
<path d="M32.1264 126.918C32.0697 126.918 32.0131 126.918 31.9564 126.885C31.7863 126.787 31.7013 126.525 31.7863 126.329C43.6914 97.9801 47.1778 65.114 47.2062 64.7866C47.2345 64.5575 47.4046 64.3938 47.603 64.4265C47.8014 64.4593 47.9432 64.6557 47.9148 64.8848C47.8865 65.2122 44.3717 98.242 32.4099 126.689C32.3815 126.82 32.2398 126.918 32.1264 126.918Z" fill="white"/>
<path d="M56.5592 73.2663C56.5308 73.2663 56.4741 73.2663 56.4458 73.2336C56.3607 73.1681 56.3608 73.0372 56.4174 72.939C60.1874 67.374 64.3541 58.9938 62.8518 50.7446C61.9448 45.8343 59.4504 43.281 59.422 43.2482C59.337 43.1828 59.337 43.0518 59.3937 42.9536C59.4504 42.8554 59.5638 42.8554 59.6488 42.9209C59.7622 43.0191 62.2849 45.6052 63.192 50.6464C64.0423 55.262 63.5888 62.9548 56.7009 73.1681C56.6442 73.2664 56.5875 73.2663 56.5592 73.2663Z" fill="#F0F0F0"/>
<path d="M26.4559 119.685C26.3992 119.685 26.3425 119.652 26.3142 119.586C20.5317 109.864 18.5759 102.335 20.4467 97.2283C22.1191 92.6781 26.3709 91.8597 26.4276 91.827C26.5126 91.7942 26.626 91.8924 26.626 91.9907C26.6543 92.0889 26.5693 92.2198 26.4842 92.2198C26.4559 92.2198 22.3742 93.0382 20.7868 97.3592C18.9444 102.335 20.9002 109.7 26.5976 119.325C26.6543 119.423 26.626 119.554 26.5409 119.619C26.5126 119.685 26.4842 119.685 26.4559 119.685Z" fill="#F0F0F0"/>
<defs>
<linearGradient id="paint0_linear" x1="50.1369" y1="-3.20942" x2="-7.31257" y2="126.038" gradientUnits="userSpaceOnUse">
<stop stop-color="#00966D"/>
<stop offset="1" stop-color="#417465"/>
</linearGradient>
<linearGradient id="paint1_linear" x1="66.7277" y1="42.3053" x2="-20.7566" y2="175.496" gradientUnits="userSpaceOnUse">
<stop stop-color="#417465"/>
<stop offset="1" stop-color="#2A5446"/>
</linearGradient>
</defs>
</svg>
