<svg width="55" height="119" viewBox="0 0 55 119" fill="none" xmlns="http://www.w3.org/2000/svg">
<path d="M41.9064 123.655C34.8122 125.284 25.7553 116.359 22.8318 106.608C19.8265 96.5738 25.326 92.3475 25.2851 78.4172C25.2442 62.5745 18.1091 60.1899 13.3865 38.8695C12.3234 34.0529 6.16961 6.19246 13.7954 0.97452C20.8691 -3.86565 40.6798 9.99376 44.1553 27.7253C46.6291 40.3806 38.9829 45.693 41.9064 60.426C44.4824 73.341 51.2086 73.5298 53.8051 86.0198C56.9535 101.178 51.2291 121.507 41.9064 123.655Z" fill="url(#paint0_linear)"/>
<path d="M41.3943 127.479C43.316 110.433 39.5747 84.1068 36.0992 65.0295C32.3374 44.3702 28.0849 27.5359 28.0441 27.3706L27.4512 27.5595C27.4921 27.7248 31.7445 44.5591 35.5063 65.1711C38.9614 84.1777 42.6823 110.409 40.7809 127.385L41.3943 127.479Z" fill="white"/>
<path d="M37.7564 123.373C46.5066 118.107 49.4915 100.045 44.5235 94.1664C41.1706 90.1998 36.3457 94.3789 31.7049 90.247C25.776 85.0055 30.1306 75.1126 25.4693 62.2685C21.5031 51.3604 11.976 41.0189 6.41514 43.1439C0.588489 45.3633 -2.47817 61.8435 2.48982 71.7363C5.72003 78.182 10.6676 78.4889 11.7511 84.486C12.9982 91.4511 6.96714 94.615 6.9467 101.344C6.88536 113.48 26.1849 130.338 37.7564 123.373Z" fill="url(#paint1_linear)"/>
<path d="M33.0336 128C33.0949 128 33.1358 127.976 33.1971 127.953C33.3811 127.858 33.4424 127.599 33.3607 127.41C21.7687 99.8089 18.3749 67.8165 18.334 67.486C18.3136 67.2499 18.1296 67.1082 17.9456 67.1318C17.7412 67.1554 17.6185 67.3679 17.6389 67.5804C17.6798 67.911 21.094 100.045 32.7269 127.764C32.7678 127.929 32.9109 128 33.0336 128Z" fill="white"/>
<path d="M9.257 75.8212C9.19566 75.8212 9.13433 75.7976 9.09344 75.7267C5.39301 70.2255 1.28368 61.9618 2.77612 53.7689C3.67568 48.8579 6.129 46.3316 6.23123 46.2371C6.313 46.1427 6.43567 46.1663 6.51745 46.2607C6.59923 46.3552 6.57878 46.4968 6.497 46.5913C6.47656 46.6149 4.02323 49.1176 3.16457 53.8869C1.71302 61.8909 5.76101 70.013 9.42055 75.4198C9.48189 75.5142 9.48189 75.6795 9.37966 75.7503C9.33878 75.7976 9.29789 75.8212 9.257 75.8212Z" fill="#F0F0F0"/>
<path d="M38.5535 121.012C38.5126 121.012 38.4717 120.989 38.4308 120.965C38.3286 120.894 38.3081 120.753 38.3695 120.635C43.9099 111.285 45.8317 104.107 44.0326 99.267C42.4788 95.0643 38.533 94.2851 38.5126 94.2851C38.4103 94.2615 38.3286 94.1435 38.349 94.0254C38.3695 93.9074 38.4717 93.8129 38.5739 93.8365C38.6148 93.8365 42.765 94.6629 44.421 99.1017C46.261 104.084 44.3392 111.426 38.717 120.918C38.6761 120.965 38.6148 121.012 38.5535 121.012Z" fill="#F0F0F0"/>
<defs>
<linearGradient id="paint0_linear" x1="55.8005" y1="-26.1434" x2="-12.6929" y2="152.702" gradientUnits="userSpaceOnUse">
<stop stop-color="#4BAC99"/>
<stop offset="1" stop-color="#00966D"/>
</linearGradient>
<linearGradient id="paint1_linear" x1="-0.666836" y1="45.6225" x2="84.52" y2="175.316" gradientUnits="userSpaceOnUse">
<stop stop-color="#417465"/>
<stop offset="1" stop-color="#2A5446"/>
</linearGradient>
</defs>
</svg>
