<svg width="220" height="208" viewBox="0 0 220 208" fill="none" xmlns="http://www.w3.org/2000/svg">
<path d="M75.4163 135.705C88.1623 129.116 93.1536 113.442 86.5646 100.696C79.9757 87.9503 64.3016 82.959 51.5556 89.548C38.8096 96.1369 33.8183 111.811 40.4073 124.557C46.9962 137.303 62.6703 142.294 75.4163 135.705Z" fill="#FAF1E2"/>
<path fill-rule="evenodd" clip-rule="evenodd" d="M52.1156 91.0969C55.5092 89.7842 58.2603 90.2792 58.2603 92.2025C58.2603 94.1257 55.5092 96.7488 52.1156 98.0609C48.7219 99.3736 45.9714 98.8786 45.9714 96.9554C45.9709 95.0321 48.7219 92.409 52.1156 91.0969ZM52.4192 99.0442C50.4684 99.4875 48.8875 101.134 48.8875 102.722C48.8875 104.311 50.469 105.238 52.4192 104.795C54.3694 104.352 55.9509 102.705 55.9509 101.117C55.9509 99.5291 54.37 98.6014 52.4192 99.0442Z" fill="white"/>
<path fill-rule="evenodd" clip-rule="evenodd" d="M40.0329 123.821C44.2128 132.571 53.1445 138.617 63.4888 138.617C77.8372 138.617 89.4695 126.985 89.4695 112.637C89.4695 105.067 86.2318 98.256 81.0676 93.5076C81.6731 94.7748 82.1788 96.0987 82.575 97.4692C74.4453 87.1541 62.7962 87.909 60.2539 88.2137C60.0884 88.2333 59.938 88.18 59.8212 88.0611C59.5737 87.8068 59.1287 87.4505 58.6668 87.1042C58.2678 87.1794 57.8722 87.263 57.4799 87.3556C58.0074 87.7125 58.5248 88.0942 58.8324 88.3781C59.04 88.5695 59.0557 88.8933 58.8677 89.1043C57.2038 90.9704 55.6425 93.0962 54.2074 95.3085C54.0525 95.5476 53.7315 95.6166 53.4919 95.4623C52.1635 94.6081 50.4019 93.7304 48.2176 93.1771C47.8871 93.0934 47.2838 92.9531 46.6844 92.8241C46.3623 93.0979 46.0469 93.3791 45.7382 93.6676C46.5828 93.7725 47.4667 93.933 47.9954 94.0671C50.0786 94.5947 51.7544 95.4303 53.0137 96.2418C53.25 96.3939 53.3219 96.7082 53.1754 96.9478C51.833 99.145 50.6179 101.384 49.5516 103.503C49.4299 103.744 49.1459 103.851 48.8945 103.75C45.6361 102.437 41.9809 102.559 39.3382 103.043C39.2068 103.374 39.0828 103.709 38.9644 104.046C41.542 103.497 45.1574 103.274 48.4107 104.546C48.5499 104.6 48.6498 104.699 48.7048 104.838C48.7598 104.978 48.7542 105.119 48.6896 105.253C46.7456 109.29 45.411 112.671 44.8571 114.133C44.7701 114.363 44.5417 114.497 44.2987 114.463C43.1684 114.3 40.9185 114.168 37.8257 114.909C37.8655 115.213 37.9116 115.515 37.9621 115.816C41.2682 115.009 43.5321 115.247 44.4356 115.411C44.5984 115.44 44.7258 115.535 44.8021 115.681C49.9002 125.412 57.156 128.959 62.9365 130.126C61.2181 130.484 59.4379 130.672 57.6134 130.672C50.8318 130.672 44.6596 128.074 40.0329 123.821ZM83.1312 99.7932C83.4342 101.38 83.5925 103.017 83.5925 104.691C83.5925 107.483 83.1508 110.171 82.3359 112.69C81.7371 114.204 81.0429 115.814 80.2471 117.451C76.9949 123.206 71.6123 127.598 65.169 129.554C64.2627 129.448 63.2979 129.286 62.2939 129.046C62.1099 129.003 61.9729 128.874 61.9179 128.693C61.8629 128.511 61.905 128.329 62.0335 128.19C66.8863 122.948 70.5263 117.79 73.2561 113.013C76.7867 106.835 78.798 101.29 79.944 97.0258C79.9945 96.8373 80.1348 96.7015 80.3245 96.656C80.5142 96.6105 80.7006 96.6689 80.8307 96.8143C81.6288 97.7049 82.3993 98.6943 83.1312 99.7932ZM60.6838 128.291C60.5413 128.441 60.3364 128.492 60.14 128.426C57.4361 127.506 54.5605 125.98 51.8414 123.507C51.6893 123.369 51.6343 123.167 51.6949 122.971C53.91 115.765 56.7273 109.786 59.6574 104.899C63.6661 98.2134 67.8842 93.5705 71.064 90.6207C71.211 90.4844 71.4086 90.4451 71.596 90.5147C74.1018 91.4407 76.735 92.8981 79.1948 95.1598C79.3379 95.2911 79.394 95.4769 79.3469 95.6655C78.28 99.9935 76.2642 105.899 72.4592 112.557C69.6329 117.503 65.8217 122.861 60.6838 128.291ZM51.1225 121.728C51.0647 121.909 50.926 122.035 50.7408 122.077C50.5556 122.118 50.3766 122.061 50.2481 121.922C48.5858 120.124 47.0099 117.924 45.603 115.235C45.5322 115.1 45.5233 114.957 45.5766 114.814C46.5435 112.218 52.1428 97.7537 59.9245 89.3008C60.0104 89.2076 60.1131 89.1543 60.2388 89.138C61.3444 88.9938 65.0209 88.6599 69.4208 89.8266C69.6065 89.876 69.7412 90.0113 69.7895 90.1976C69.8377 90.3839 69.7861 90.5674 69.6475 90.701C66.5294 93.7113 62.6071 98.1977 58.8706 104.429C56.0387 109.153 53.3118 114.881 51.1225 121.728Z" fill="#E2B693"/>
<path fill-rule="evenodd" clip-rule="evenodd" d="M58.067 87.2218C57.6298 87.3144 57.1965 87.4182 56.7683 87.5327C57.4182 87.8582 58.0905 88.2993 58.7365 88.8959C58.9441 89.0873 58.9599 89.4111 58.7718 89.6221C57.1073 91.4881 55.546 93.614 54.1115 95.8263C53.9567 96.0654 53.6356 96.1344 53.396 95.9801C52.0676 95.1259 50.3054 94.2482 48.1217 93.6948C47.4921 93.5354 46.827 93.403 46.1272 93.3053C45.8303 93.5725 45.5396 93.8463 45.2551 94.1264C46.199 94.2179 47.0807 94.3772 47.8989 94.5849C49.9822 95.1124 51.6579 95.9481 52.9173 96.7596C53.1536 96.9117 53.2254 97.2259 53.0789 97.4656C51.7365 99.6627 50.5215 101.902 49.4552 104.02C49.3334 104.261 49.0494 104.369 48.7986 104.267C45.3881 102.893 42.0388 102.999 39.3753 103.539C39.2961 103.555 39.2181 103.554 39.1452 103.535C39.0127 103.889 38.8881 104.247 38.7708 104.608C41.3653 103.968 44.8033 103.691 48.3142 105.063C48.454 105.117 48.5533 105.216 48.6083 105.356C48.6633 105.495 48.6577 105.636 48.5932 105.77C46.6491 109.807 45.3146 113.188 44.7607 114.65C44.6737 114.88 44.4452 115.015 44.2022 114.98C43.063 114.816 40.7878 114.683 37.658 115.443C37.6911 115.749 37.7292 116.053 37.773 116.355C41.1296 115.521 43.4278 115.763 44.3397 115.928C44.5025 115.958 44.6299 116.052 44.7062 116.198C53.4824 132.95 68.6542 131.378 71.6831 130.877C71.87 130.846 72.0456 130.913 72.1668 131.059C72.7348 131.746 73.8639 133.343 74.7596 136.048C75.0374 135.914 75.3119 135.774 75.5835 135.63C74.7372 133.137 73.6945 131.535 73.0491 130.701C72.8891 130.494 72.9065 130.205 73.0906 130.019C75.3253 127.757 77.2385 125.086 78.8559 122.332C78.935 122.197 79.0574 122.112 79.2112 122.085C79.3655 122.057 79.5092 122.094 79.6304 122.193C81.8836 124.03 83.2637 126.314 84.1088 128.437C84.3244 128.156 84.5348 127.871 84.7391 127.581C83.7979 125.406 82.309 123.117 79.9553 121.281C79.7538 121.123 79.6966 120.85 79.8178 120.626C81.0598 118.325 82.1008 116.015 82.9567 113.884C83.0111 113.748 83.1082 113.651 83.2435 113.596C83.3793 113.541 83.5162 113.544 83.6498 113.604C84.9731 114.198 86.6287 115.159 88.2528 116.684C88.5099 116.925 88.7663 117.181 89.0206 117.451C89.0902 117.079 89.1519 116.705 89.2058 116.328C89.0975 116.222 88.9897 116.118 88.8814 116.016C87.1332 114.375 85.3463 113.353 83.9332 112.729C83.6818 112.618 83.5611 112.331 83.6571 112.074C84.8474 108.874 85.5781 106.265 85.907 104.999C85.9732 104.743 86.2173 104.58 86.4794 104.615C86.5007 104.618 86.5221 104.622 86.5434 104.624C86.8515 104.668 87.1467 104.717 87.4245 104.773C87.741 104.837 88.0424 104.915 88.3297 105.004C88.222 104.653 88.1064 104.305 87.984 103.96C87.8594 103.93 87.7332 103.902 87.6041 103.876C87.2904 103.813 86.9783 103.76 86.6691 103.716C86.5316 103.697 86.3907 103.679 86.2471 103.662C86.0664 103.641 85.9216 103.538 85.8419 103.375C78.0292 87.4334 63.0819 88.3813 60.1603 88.7315C59.9947 88.7511 59.8443 88.6978 59.7282 88.5788C59.1883 88.0277 58.6271 87.5827 58.067 87.2218ZM79.8481 97.5442C79.8986 97.3556 80.0389 97.2198 80.2286 97.1743C80.4183 97.1289 80.6046 97.1872 80.7349 97.3326C82.3315 99.1133 83.8176 101.29 85.1005 103.946C85.1549 104.059 85.1673 104.173 85.137 104.295C84.5443 106.694 80.631 121.441 72.0108 129.799C71.9339 129.874 71.8486 129.917 71.7431 129.937C70.701 130.128 66.8741 130.681 62.1975 129.565C62.0134 129.521 61.8765 129.392 61.8215 129.211C61.7665 129.03 61.8086 128.847 61.9371 128.708C66.7899 123.466 70.4299 118.308 73.1596 113.531C76.6908 107.353 78.7021 101.808 79.8481 97.5442ZM60.5879 128.809C60.4454 128.96 60.2405 129.01 60.0441 128.944C57.3402 128.024 54.4646 126.499 51.7455 124.025C51.5934 123.886 51.5384 123.685 51.599 123.489C53.8141 116.283 56.6314 110.304 59.5615 105.417C63.5702 98.7317 67.7883 94.0888 70.9681 91.1391C71.1151 91.0027 71.3127 90.9634 71.5001 91.033C74.0059 91.959 76.6391 93.4165 79.0989 95.6776C79.242 95.8089 79.2981 95.9946 79.2516 96.1832C78.1847 100.511 76.1688 106.416 72.3638 113.075C69.5376 118.021 65.7264 123.378 60.5879 128.809ZM51.0271 122.246C50.9693 122.427 50.8307 122.553 50.6455 122.594C50.4603 122.635 50.2813 122.579 50.1528 122.44C48.4905 120.641 46.9146 118.442 45.5076 115.754C45.4369 115.619 45.4279 115.475 45.4812 115.333C46.4482 112.737 52.0474 98.272 59.8292 89.8191C59.915 89.7259 60.0183 89.6726 60.1434 89.6563C61.2496 89.5121 64.9255 89.1782 69.3254 90.3455C69.5112 90.3949 69.6459 90.5301 69.6941 90.7165C69.7424 90.9022 69.6908 91.0863 69.5527 91.2199C66.4346 94.2302 62.5123 98.7165 58.7758 104.948C55.9433 109.671 53.2164 115.399 51.0271 122.246Z" fill="#734247"/>
<path d="M80.534 30.4479C83.3595 21.1965 78.1503 11.4062 68.8989 8.58062C59.6475 5.75508 49.8571 10.9643 47.0316 20.2157C44.2061 29.4672 49.4153 39.2575 58.6667 42.083C67.9182 44.9085 77.7085 39.6993 80.534 30.4479Z" fill="#8E4B4B"/>
<path fill-rule="evenodd" clip-rule="evenodd" d="M71.8283 9.77478C77.4533 12.6892 81.2976 18.5634 81.2976 25.3355C81.2976 35.0085 73.4558 42.8498 63.7828 42.8498C56.326 42.8498 49.959 38.1895 47.4319 31.6227C50.4377 35.2498 54.9757 37.5609 60.0547 37.5609C69.1053 37.5609 76.4426 30.2236 76.4426 21.1724C76.4431 16.7433 74.6849 12.7239 71.8283 9.77478Z" fill="#734247"/>
<path d="M62.8651 32.6705C68.0369 32.6705 72.2295 28.4779 72.2295 23.3061C72.2295 18.1343 68.0369 13.9417 62.8651 13.9417C57.6933 13.9417 53.5007 18.1343 53.5007 23.3061C53.5007 28.4779 57.6933 32.6705 62.8651 32.6705Z" fill="#FAF1E2"/>
<path fill-rule="evenodd" clip-rule="evenodd" d="M61.5475 22.8447C61.0626 22.6673 60.704 22.4125 60.4694 22.0853C60.2371 21.7554 60.1198 21.3614 60.1198 20.9034C60.1198 20.2103 60.3678 19.6306 60.8639 19.1586C61.3623 18.6872 62.0217 18.4504 62.8478 18.4504C63.6756 18.4504 64.3446 18.6917 64.8491 19.1743C65.3542 19.657 65.6062 20.2434 65.6062 20.9365C65.6062 21.3771 65.4911 21.7626 65.261 22.0876C65.0309 22.4153 64.6807 22.6679 64.2093 22.8452C64.7919 23.0355 65.2324 23.3408 65.5355 23.7662C65.8391 24.1893 65.9917 24.6939 65.9917 25.2826C65.9917 26.0952 65.7038 26.7771 65.1303 27.3304C64.555 27.8838 63.7996 28.1605 62.8635 28.1605C61.9269 28.1605 61.172 27.8838 60.5968 27.3282C60.0232 26.7726 59.7354 26.0795 59.7354 25.2495C59.7354 24.6316 59.8925 24.1136 60.2068 23.6977C60.5205 23.2785 60.9678 22.9951 61.5475 22.8447ZM61.3152 20.8613C61.3152 21.3131 61.4588 21.6807 61.7445 21.9664C62.0324 22.252 62.4084 22.3957 62.8759 22.3957C63.3293 22.3957 63.6969 22.2543 63.9826 21.9709C64.2683 21.6874 64.4097 21.3401 64.4097 20.9281C64.4097 20.4988 64.2638 20.1374 63.9691 19.8455C63.6767 19.5532 63.3075 19.4072 62.8624 19.4072C62.4129 19.4072 62.043 19.5509 61.7512 19.8366C61.4611 20.1217 61.3152 20.4623 61.3152 20.8613ZM60.9302 25.2579C60.9302 25.5918 61.0076 25.9134 61.1625 26.2254C61.3174 26.5352 61.552 26.7765 61.8668 26.9471C62.1789 27.1177 62.5156 27.2042 62.872 27.2042C63.4343 27.2042 63.8945 27.0251 64.2553 26.6665C64.6162 26.3079 64.7958 25.8516 64.7958 25.2983C64.7958 24.7359 64.6095 24.2707 64.2402 23.9031C63.8681 23.5355 63.3989 23.352 62.8344 23.352C62.281 23.352 61.827 23.5333 61.4684 23.8969C61.1092 24.2595 60.9302 24.7135 60.9302 25.2579Z" fill="#8E4B4B"/>
<path fill-rule="evenodd" clip-rule="evenodd" d="M56.0866 10.0153C58.167 9.33737 59.7591 9.98388 59.6429 11.4599C59.5268 12.9359 57.7461 14.6823 55.6656 15.3603C53.5852 16.0388 51.9931 15.3917 52.1092 13.9163C52.2254 12.4403 54.0067 10.6938 56.0866 10.0153Z" fill="#A06060"/>
<path fill-rule="evenodd" clip-rule="evenodd" d="M132.845 29.3078L132.665 31.4774C132.665 31.4774 133.161 33.0168 136.332 32.5415C139.503 32.0656 136.554 29.4026 132.845 29.3078Z" fill="#8FB345"/>
<path fill-rule="evenodd" clip-rule="evenodd" d="M146.24 6.95679L144.593 7.43382C144.593 7.43382 142.372 8.4468 143.07 10.333C143.768 12.2198 149.316 7.54325 149.347 7.43213C149.379 7.32157 147.921 6.98821 146.24 6.95679Z" fill="#8FB345"/>
<path fill-rule="evenodd" clip-rule="evenodd" d="M152.341 5.90497C149.598 5.90497 146.982 6.44878 144.594 7.43315C145.382 7.42641 146.231 7.43371 147.126 7.46233C145.327 7.96069 143.631 8.7099 142.081 9.67126C141.367 9.74085 140.752 9.81324 140.262 9.87722C135.244 13.5835 131.99 19.5396 131.99 26.2562C131.99 28.061 132.226 29.8103 132.667 31.476C132.931 31.3682 133.2 31.2768 133.472 31.1982C133.646 31.8666 133.856 32.5215 134.098 33.1596C133.953 33.2141 133.81 33.2736 133.668 33.3375C133.47 33.4273 133.378 33.6574 133.459 33.8589C136.471 41.332 143.79 46.6068 152.341 46.6068C163.581 46.6068 172.692 37.4956 172.692 26.2556C172.692 15.0168 163.581 5.90497 152.341 5.90497Z" fill="#8FB345"/>
<path fill-rule="evenodd" clip-rule="evenodd" d="M133.786 34.6271C136.979 41.6911 144.085 46.6073 152.34 46.6073C161.634 46.6073 169.472 40.3778 171.908 31.8665C169.971 37.3563 165.311 41.5547 160.706 41.9964C157.511 42.3034 153.528 40.2297 149.328 38.0426C144.082 35.3112 138.481 32.3969 134.097 34.0474C134.067 34.0586 134.038 34.0698 134.008 34.0816C133.9 34.1237 133.823 34.1995 133.78 34.3067C133.737 34.4144 133.739 34.5222 133.786 34.6271Z" fill="#BDE148"/>
<path fill-rule="evenodd" clip-rule="evenodd" d="M152.342 5.90509C150.935 5.90509 149.563 6.0482 148.237 6.31982L148.181 6.33161L148.178 6.33217C148.119 6.34452 148.06 6.35686 148.001 6.36977L147.993 6.37146C147.683 6.43936 147.374 6.514 147.068 6.59594C146.221 6.82323 145.394 7.10328 144.594 7.43327C146.387 6.75476 147.672 6.84007 149.495 6.96466C155.922 7.40409 163.905 9.06639 168.706 14.1583C165 9.1517 159.05 5.90509 152.342 5.90509Z" fill="#BDE148"/>
<path fill-rule="evenodd" clip-rule="evenodd" d="M144.482 8.40587L144.442 8.42326L144.431 8.42775L144.402 8.44066L144.363 8.45862L144.323 8.47658L144.284 8.49454L144.274 8.49903L144.245 8.51193L144.166 8.54785L144.127 8.56637L144.096 8.58096L144.088 8.58489L144.048 8.60341L144.039 8.6079L144.01 8.62193L143.971 8.64045L143.934 8.65785L143.932 8.65897L143.893 8.67749L143.854 8.69601L143.815 8.71509L143.807 8.71902L143.777 8.73417L143.738 8.75325L143.699 8.77234L143.66 8.79142L143.653 8.79535L143.622 8.81106L143.583 8.8307L143.576 8.83407L143.544 8.84978L143.506 8.86942L143.499 8.87279L143.467 8.88907L143.429 8.90871L143.423 8.91208L143.391 8.92891L143.352 8.94856L143.346 8.95136L143.314 8.9682L143.275 8.98784L143.27 8.99065L143.237 9.00805L143.199 9.02825L143.194 9.03105L143.162 9.04845L143.123 9.06866L143.118 9.0709L143.054 9.10626L143.048 9.10962L143.043 9.11187L143.009 9.13039L142.972 9.15115L142.968 9.1534L142.934 9.17192L142.897 9.19268L142.893 9.19493L142.886 9.19885L142.821 9.23477L142.818 9.23646L142.748 9.27574L142.746 9.27686L142.743 9.27855L142.709 9.29819L142.672 9.31952L142.669 9.3212L142.635 9.34141L142.598 9.36273L142.595 9.36385L142.56 9.38406L142.523 9.40594L142.521 9.40707L142.486 9.42783L142.449 9.44972L142.447 9.45084L142.412 9.4716L142.375 9.49349L142.374 9.49405L142.338 9.51538L142.301 9.53727L142.3 9.53783L142.237 9.57543L142.227 9.5816L142.226 9.58217L142.19 9.60405L142.154 9.6265L142.117 9.64895L142.081 9.6714C141.367 9.74099 140.752 9.81338 140.262 9.87736C135.244 13.5836 131.99 19.5397 131.99 26.2563V26.3411L131.99 26.3888V26.4017L131.991 26.4499V26.455L131.991 26.51V26.5206L131.992 26.5869V26.5947L131.993 26.6716V26.6789L131.995 26.7188V26.7311L131.996 26.7838V26.7844L131.997 26.8467V26.8501C131.998 26.9 132 26.9494 132.002 26.9988L132.004 27.0448V27.0471L132.006 27.0987L132.007 27.1127L132.01 27.1784L132.01 27.1829L132.013 27.244L132.014 27.2665L132.016 27.3091L132.019 27.3501L132.02 27.3742L132.023 27.4332L132.024 27.4393L132.028 27.5044L132.028 27.5162L132.032 27.5695L132.032 27.5768L132.036 27.6274L132.036 27.6346L132.039 27.6829L132.041 27.6997L132.046 27.7648V27.766L132.051 27.8294L132.052 27.849L132.056 27.8945L132.059 27.9321L132.06 27.9405L132.065 27.9994L132.066 28.0146L132.066 28.0241C132.07 28.0735 132.075 28.1229 132.08 28.1723L132.082 28.1897L132.088 28.2525L132.089 28.2626L132.091 28.2823L132.097 28.3446V28.3463L132.103 28.4108L132.105 28.4271L132.107 28.4445L132.114 28.5045L132.115 28.5135L132.122 28.5747L132.124 28.591L132.125 28.6033L132.132 28.6673L132.133 28.6729L132.14 28.7313L132.143 28.7548L132.148 28.7952L132.153 28.8362L132.156 28.8592L132.163 28.9181L132.164 28.9232L132.172 28.9872L132.174 29.0001L132.176 29.0152L132.184 29.073L132.185 29.0814L132.19 29.1146L132.197 29.1628L132.199 29.178L132.208 29.2414L132.209 29.2442L132.218 29.3054L132.221 29.3256L132.223 29.3413L132.231 29.3924L132.233 29.4064L132.237 29.4322L132.246 29.4878L132.247 29.4956L132.257 29.559L132.259 29.5686L132.268 29.6219L132.269 29.6286L132.277 29.6758L132.279 29.6853L132.286 29.7302V29.7308L132.3 29.811L132.311 29.8744L132.314 29.8913L132.314 29.8924L132.327 29.9614L132.328 29.9715L132.334 30.0002L132.343 30.0518L132.345 30.063L132.357 30.1259L132.358 30.132L132.369 30.1882L132.374 30.2123L132.377 30.2258L132.403 30.3548L132.406 30.3722L132.406 30.3762C132.652 30.2785 132.901 30.1943 133.153 30.1219C134.375 29.7717 135.673 29.7145 137.017 29.8688C141.101 30.3374 145.606 32.7636 149.658 34.8737C153.7 36.9777 157.438 39.1159 160.276 38.8437C167.775 38.1237 176.03 25.7041 168.102 15.5203C163.232 9.26396 153.455 8.19205 146.497 8.32C145.808 8.33235 145.147 8.35704 144.52 8.38959L144.482 8.40587Z" fill="#8FB345"/>
<path fill-rule="evenodd" clip-rule="evenodd" d="M144.521 8.38847C143.674 8.75943 142.859 9.18819 142.08 9.6714C141.417 9.73594 140.839 9.80328 140.367 9.86389C140.294 9.87343 140.234 9.89757 140.176 9.94134C135.207 13.6521 131.99 19.5785 131.99 26.2569C131.99 27.5022 132.102 28.7212 132.317 29.9047C132.339 30.0243 132.404 30.1191 132.509 30.1814C132.613 30.2437 132.727 30.2561 132.843 30.2179C132.946 30.1837 133.05 30.1517 133.155 30.1219C134.376 29.7717 135.674 29.7145 137.018 29.8688C141.102 30.3374 145.607 32.7636 149.659 34.8737C153.701 36.9777 157.439 39.1159 160.277 38.8437C167.776 38.1237 176.031 25.7041 168.103 15.5203C163.233 9.26396 153.456 8.19205 146.498 8.32C145.809 8.33179 145.148 8.35648 144.521 8.38847Z" fill="#BDE148"/>
<path fill-rule="evenodd" clip-rule="evenodd" d="M133.962 34.9999C137.233 41.8635 144.233 46.6069 152.342 46.6069C163.582 46.6069 172.693 37.4956 172.693 26.2557C172.693 20.3983 170.218 15.1207 166.257 11.4072C167.296 13.863 167.87 16.5625 167.87 19.396C167.87 30.742 158.672 39.9403 147.325 39.9403C142.223 39.9408 137.555 38.0804 133.962 34.9999Z" fill="#8FB345"/>
<path fill-rule="evenodd" clip-rule="evenodd" d="M142.084 9.66955C148.338 9.06175 162.283 8.70539 168.424 16.5955C176.352 26.7792 168.097 39.1988 160.598 39.9188C157.759 40.191 154.021 38.0528 149.98 35.9488C144.594 33.145 138.411 29.7828 133.475 31.1971C133.65 31.8655 133.859 32.5204 134.101 33.1585C138.485 31.508 144.086 34.4223 149.333 37.1538C153.532 39.3402 157.516 41.4139 160.711 41.1075C165.967 40.603 171.299 35.2013 172.564 28.5706C172.65 27.8101 172.696 27.0379 172.696 26.2545C172.696 23.853 172.279 21.5498 171.515 19.4111C170.98 18.2101 170.273 17.0203 169.37 15.8608C164.247 9.28006 154.237 7.69072 147.129 7.46118C145.33 7.95954 143.635 8.70875 142.084 9.66955Z" fill="white"/>
<path fill-rule="evenodd" clip-rule="evenodd" d="M140.733 11.3636C143.558 10.0341 145.972 10.5134 146.125 12.435C146.278 14.356 144.112 16.9909 141.287 18.3204C138.462 19.6499 136.048 19.17 135.894 17.249C135.741 15.328 137.908 12.6925 140.733 11.3636Z" fill="#E7F66E"/>
<path fill-rule="evenodd" clip-rule="evenodd" d="M139.696 19.8554C141.156 19.471 142.405 19.9783 142.484 20.988C142.563 21.9976 141.443 23.1279 139.982 23.5123C138.521 23.8967 137.273 23.3894 137.194 22.3798C137.114 21.3696 138.235 20.2393 139.696 19.8554Z" fill="#E7F66E"/>
<path d="M192.544 96.9411C204.189 88.5373 206.816 72.2846 198.412 60.6396C190.009 48.9947 173.756 46.3672 162.111 54.771C150.466 63.1748 147.838 79.4275 156.242 91.0724C164.646 102.717 180.899 105.345 192.544 96.9411Z" fill="#E1763B"/>
<path fill-rule="evenodd" clip-rule="evenodd" d="M201.25 65.6843C203.499 70.958 204.029 77.0056 202.346 82.9511C198.435 96.7687 184.062 104.8 170.244 100.889C159.694 97.9023 152.519 88.8175 151.455 78.5372C154.433 85.5192 160.424 91.1431 168.296 93.3711C182.115 97.2828 196.487 89.2518 200.398 75.4337C201.323 72.1663 201.579 68.8681 201.25 65.6843Z" fill="#C04D27"/>
<path fill-rule="evenodd" clip-rule="evenodd" d="M199.975 63.0944C200.258 63.5972 200.525 64.1102 200.775 64.631C188.492 64.3784 180.731 67.5094 176.587 72.1007C175.617 73.1748 174.846 74.3309 174.262 75.5415C174.198 75.6756 174.192 75.8148 174.246 75.9534C174.299 76.092 174.397 76.1914 174.535 76.2469C181.472 79.0569 190.352 82.0656 201.662 85.0377C201.556 85.3189 201.446 85.5973 201.332 85.8722C201.242 86.0681 201.15 86.2623 201.056 86.4548C189.851 83.5 180.999 80.4936 174.039 77.6707C173.896 77.6129 173.751 77.6185 173.613 77.687C173.475 77.7555 173.384 77.8683 173.344 78.017C173.189 78.5928 173.072 79.1764 172.991 79.7657C172.606 82.5392 173.007 85.4384 174.082 88.2192C175.888 92.8891 180.089 97.619 185.575 100.532L185.546 100.542C185.533 100.546 185.52 100.55 185.507 100.555C184.624 100.848 183.724 101.093 182.81 101.292C178.464 98.1819 174.299 93.0086 172.659 88.767C171.492 85.7471 171.057 82.5875 171.478 79.5547C171.583 78.7948 171.742 78.0428 171.956 77.3037C172.03 77.0506 171.904 76.7857 171.662 76.6824C169.795 75.8877 168.078 75.1099 166.501 74.3551C166.364 74.2894 166.221 74.2855 166.081 74.3427C165.941 74.4 165.841 74.5038 165.79 74.6463C162.997 82.3888 162.017 91.6252 163.051 97.6072C162.457 97.2171 161.882 96.8035 161.326 96.3697C161.326 96.3439 161.326 96.3181 161.327 96.2917C160.676 90.2065 161.739 81.2838 164.436 73.8932C164.44 73.882 164.445 73.8702 164.448 73.859C164.539 73.6109 164.432 73.3382 164.196 73.2186C163.135 72.6793 162.148 72.154 161.229 71.645C161.103 71.5754 160.969 71.5608 160.831 71.6012C160.693 71.6422 160.588 71.7269 160.521 71.8538C159.005 74.6828 156.928 77.2027 154.46 79.273C154.019 79.6422 152.783 80.2557 151.789 80.7703C151.696 80.2882 151.617 79.8028 151.551 79.3139C154.993 77.1993 157.287 74.6884 159.21 71.063C159.34 70.8189 159.255 70.5164 159.018 70.3744C156.45 68.8429 154.548 67.4959 153.17 66.4061C153.338 65.9246 153.518 65.4503 153.712 64.984L153.738 64.9295C155.035 65.9925 156.911 67.3607 159.545 68.9467C159.681 69.0286 159.83 69.0443 159.981 68.9933C160.13 68.9422 160.239 68.8378 160.297 68.6902C161.422 65.7876 161.934 62.6201 161.654 59.3343C161.549 58.1136 161.335 56.8761 161.003 55.6286C161.429 55.2857 161.867 54.9574 162.313 54.642C162.764 56.178 163.048 57.7034 163.176 59.2052C163.489 62.8732 162.885 66.3982 161.578 69.6055C161.479 69.8497 161.576 70.1263 161.806 70.2543C162.685 70.7426 163.63 71.2476 164.646 71.7668C164.78 71.8352 164.921 71.8437 165.062 71.7909C165.203 71.7387 165.305 71.6399 165.362 71.5008C168.469 63.8958 173.018 56.7055 178.379 51.892C179.106 51.2399 179.848 50.6304 180.603 50.0692C181.315 50.1607 182.029 50.2836 182.742 50.4357C181.599 51.1849 180.483 52.0542 179.4 53.0262C174.174 57.7191 169.733 64.7791 166.707 72.2505C166.604 72.5048 166.716 72.7938 166.964 72.9128C168.543 73.671 170.27 74.4538 172.156 75.2558C172.412 75.3647 172.709 75.2519 172.827 74.9999C173.479 73.6165 174.35 72.2977 175.455 71.0742C179.768 66.2978 187.66 62.9967 199.975 63.0944Z" fill="#E9A55C"/>
<path fill-rule="evenodd" clip-rule="evenodd" d="M196.441 83.6138C198.121 84.0881 199.86 84.5623 201.661 85.0354C201.63 85.1184 201.598 85.2021 201.566 85.2851L201.561 85.298C201.513 85.4204 201.465 85.5416 201.416 85.6628L201.411 85.6757C201.385 85.7408 201.358 85.8054 201.331 85.8699C201.241 86.0658 201.149 86.2599 201.055 86.4524C199.111 85.9401 197.238 85.426 195.434 84.9113C195.782 84.491 196.119 84.0589 196.441 83.6138ZM177.755 94.2505C179.827 96.694 182.499 98.8979 185.574 100.53L185.544 100.541H185.544H185.543C185.531 100.544 185.519 100.548 185.508 100.553H185.507H185.507H185.506L185.383 100.593C185.23 100.644 185.075 100.693 184.92 100.74L184.769 100.785C184.631 100.827 184.492 100.867 184.354 100.905C184.277 100.927 184.199 100.949 184.122 100.969C184.011 101 183.899 101.029 183.787 101.057C183.677 101.085 183.567 101.114 183.456 101.14C183.381 101.158 183.306 101.176 183.231 101.194C183.092 101.226 182.953 101.257 182.814 101.287L182.808 101.289C180.279 99.4787 177.81 96.9695 175.866 94.3526C176.5 94.3425 177.13 94.3077 177.755 94.2505ZM162.669 91.0403C162.595 93.4575 162.72 95.6978 163.05 97.6071C163.004 97.5768 162.958 97.5465 162.912 97.5161C162.848 97.4735 162.784 97.4303 162.72 97.3871C162.637 97.3304 162.554 97.2731 162.471 97.2159L162.444 97.1968L162.417 97.1777L162.39 97.1587L162.384 97.1542C162.023 96.9011 161.671 96.639 161.326 96.3696C161.326 96.3438 161.326 96.318 161.326 96.2916C161.131 94.4632 161.09 92.3777 161.202 90.1553C161.679 90.4651 162.168 90.7603 162.669 91.0403ZM152.376 80.4671C152.176 80.5698 151.978 80.6714 151.789 80.7696C151.774 80.6922 151.759 80.6142 151.745 80.5367C151.734 80.4761 151.723 80.4149 151.712 80.3538C151.696 80.2645 151.681 80.1747 151.666 80.0855C151.653 80.008 151.641 79.9306 151.629 79.8532C151.618 79.7796 151.607 79.7067 151.596 79.6332C151.583 79.5406 151.569 79.4474 151.557 79.3548L151.551 79.3133C151.617 79.2729 151.683 79.2319 151.748 79.1909C151.946 79.6225 152.155 80.0479 152.376 80.4671Z" fill="#E1763B"/>
<path fill-rule="evenodd" clip-rule="evenodd" d="M200.455 63.9895C200.715 64.4963 200.96 65.012 201.187 65.5351C188.441 65.1271 180.434 68.294 176.2 72.984C175.23 74.0582 174.459 75.2143 173.875 76.4248C173.81 76.5589 173.805 76.6981 173.858 76.8367C173.911 76.9753 174.01 77.0747 174.147 77.1308C181.092 79.943 189.981 82.9551 201.306 85.93C201.107 86.4082 200.894 86.8785 200.668 87.3392C189.464 84.3845 180.612 81.378 173.652 78.5552C173.509 78.4974 173.364 78.503 173.226 78.5714C173.088 78.6399 172.996 78.7527 172.956 78.9014C172.801 79.4772 172.684 80.0609 172.603 80.6502C172.218 83.4231 172.619 86.3229 173.694 89.1031C175.5 93.773 179.198 98.0971 184.264 100.933C183.56 101.129 182.846 101.294 182.125 101.43C177.454 98.4299 174.028 94.1956 172.272 89.6514C171.104 86.6315 170.67 83.4719 171.09 80.4391C171.196 79.6787 171.355 78.9272 171.569 78.1881C171.642 77.935 171.517 77.6701 171.274 77.5669C169.407 76.7716 167.69 75.9943 166.114 75.2395C165.977 75.1739 165.834 75.1699 165.694 75.2272C165.553 75.285 165.454 75.3882 165.402 75.5308C162.61 83.2738 161.389 91.2004 162.423 97.1823C161.828 96.7665 161.253 96.327 160.699 95.8657C160.048 89.7805 161.352 82.1682 164.049 74.7771C164.053 74.7659 164.058 74.7541 164.062 74.7428C164.152 74.4954 164.045 74.222 163.81 74.1025C162.748 73.5632 161.761 73.0379 160.842 72.5289C160.716 72.4587 160.583 72.4441 160.444 72.4851C160.306 72.5261 160.202 72.6108 160.134 72.7376C158.619 75.5667 156.541 78.0865 154.073 80.1569C153.407 80.7158 152.712 81.2411 151.992 81.7316C151.867 81.1917 151.759 80.6474 151.668 80.0985C152.156 79.7466 152.631 79.3773 153.092 78.9907C155.431 77.0287 157.397 74.6351 158.823 71.9475C158.953 71.7033 158.868 71.4008 158.631 71.2589C156.063 69.7273 154.161 68.3804 152.783 67.2905C152.958 66.7894 153.146 66.2961 153.348 65.8123C154.646 66.8758 156.522 68.2446 159.158 69.8317C159.294 69.9136 159.443 69.9293 159.593 69.8783C159.743 69.8272 159.851 69.7228 159.909 69.5752C161.034 66.6726 161.546 63.5052 161.266 60.2193C161.148 58.8493 160.893 57.457 160.488 56.0545C160.906 55.6998 161.335 55.3597 161.774 55.0331C162.314 56.7358 162.646 58.4279 162.788 60.0907C163.101 63.7588 162.498 67.2838 161.191 70.4911C161.092 70.7352 161.189 71.0114 161.419 71.1399C162.297 71.6281 163.243 72.1332 164.259 72.6523C164.392 72.7208 164.534 72.7292 164.675 72.6765C164.816 72.6243 164.917 72.5255 164.974 72.3863C168.081 64.7813 172.63 57.5911 177.991 52.7776C179.069 51.8095 180.181 50.9363 181.322 50.1736C182.05 50.2875 182.779 50.434 183.506 50.6124C181.959 51.5014 180.456 52.6149 179.012 53.9118C173.786 58.6047 169.345 65.6647 166.319 73.1361C166.217 73.3903 166.328 73.6794 166.576 73.7983C168.155 74.5565 169.882 75.3394 171.768 76.1414C172.024 76.2503 172.321 76.1375 172.439 75.8855C173.091 74.5021 173.963 73.1832 175.067 71.9598C179.481 67.0694 187.641 63.7263 200.455 63.9895Z" fill="#734247"/>
<path fill-rule="evenodd" clip-rule="evenodd" d="M171.765 51.1026C174.846 50.4235 176.881 51.5067 176.31 53.5214C175.74 55.5367 172.78 57.721 169.699 58.4C166.618 59.0791 164.583 57.996 165.154 55.9812C165.724 53.9659 168.684 51.7817 171.765 51.1026Z" fill="#E9A55C"/>
<path fill-rule="evenodd" clip-rule="evenodd" d="M125.374 33.5466C123.473 32.189 106.709 21.0787 84.8148 34.4361C62.9203 47.7935 65.1298 67.7827 65.4665 70.0944C65.4884 70.2414 65.5602 70.3598 65.6815 70.4468C89.6878 87.584 129.843 63.0865 125.589 33.8991C125.567 33.752 125.495 33.6336 125.374 33.5466Z" fill="#E1763B"/>
<path fill-rule="evenodd" clip-rule="evenodd" d="M125.058 33.3301C124.688 33.0803 124.117 32.7144 123.358 32.2879C120.494 32.1695 117.036 32.3558 113.027 33.1449C106.65 34.4009 98.8652 37.18 89.8438 42.6838C80.8223 48.1876 74.7893 53.8379 70.7547 58.9337C68.218 62.1376 66.4704 65.1266 65.2655 67.7273C65.2975 68.5977 65.3615 69.2728 65.4142 69.7162C66.5765 66.8456 68.4532 63.3448 71.4854 59.5145C75.4599 54.4945 81.4127 48.9222 90.3303 43.4824C99.2474 38.042 106.926 35.2982 113.208 34.0608C118.002 33.1174 121.974 33.0506 125.058 33.3301Z" fill="#E9A55C"/>
<path fill-rule="evenodd" clip-rule="evenodd" d="M125.374 33.5461C124.837 33.1628 123.114 32.0017 120.426 30.8333C125.397 59.4909 88.5267 81.9843 65.3183 64.4526C65.127 67.3777 65.3711 69.4407 65.4665 70.0933C65.4884 70.2404 65.5602 70.3588 65.6814 70.4458C89.6878 87.5829 129.843 63.0855 125.589 33.898C125.567 33.7515 125.495 33.6331 125.374 33.5461Z" fill="#C04D27"/>
<path fill-rule="evenodd" clip-rule="evenodd" d="M110.886 28.213C108.42 27.8965 105.696 27.8123 102.759 28.1092C107.3 32.9479 114.888 42.5581 119.816 56.8954C121.456 54.4395 122.661 51.9938 123.542 49.6625C119.704 40.1096 114.8 32.9541 110.886 28.213Z" fill="#FAF1E2"/>
<path fill-rule="evenodd" clip-rule="evenodd" d="M67.3607 54.7643C68.2081 52.4263 69.3788 49.9665 70.9867 47.4899C73.2113 53.7418 78.2853 64.8863 88.7793 75.8277C85.8448 76.1627 83.119 76.115 80.6429 75.831C73.9044 68.0482 69.7863 60.4134 67.3607 54.7643Z" fill="#FAF1E2"/>
<path fill-rule="evenodd" clip-rule="evenodd" d="M125.375 33.5468C125.169 33.3998 124.788 33.1383 124.246 32.806C121.273 32.6354 117.616 32.7903 113.329 33.6344C106.952 34.8904 99.167 37.6695 90.1455 43.1733C81.1241 48.6771 75.091 54.3274 71.0565 59.4232C68.3441 62.8493 66.5337 66.0297 65.3248 68.7522C65.3725 69.3863 65.4309 69.8443 65.4674 70.0946C65.4859 70.2214 65.5426 70.3269 65.6352 70.4094C66.7907 67.5018 68.6842 63.9258 71.7883 60.0046C75.7628 54.9845 81.7156 49.4123 90.6332 43.9725C99.5509 38.5321 107.229 35.7883 113.511 34.5508C118.418 33.585 122.464 33.5373 125.578 33.8403C125.547 33.7202 125.479 33.6215 125.375 33.5468Z" fill="#734247"/>
<path fill-rule="evenodd" clip-rule="evenodd" d="M77.0751 48.4149C77.5813 48.1062 78.2413 48.2661 78.5499 48.7723C78.8586 49.278 78.6987 49.9385 78.1924 50.2472C77.6862 50.5559 77.0262 50.3959 76.7176 49.8903C76.4095 49.3841 76.5694 48.7235 77.0751 48.4149Z" fill="#C04D27"/>
<path fill-rule="evenodd" clip-rule="evenodd" d="M79.4116 52.2463C79.9178 51.9376 80.5778 52.0976 80.8864 52.6038C81.1951 53.11 81.0352 53.77 80.5295 54.0786C80.0233 54.3873 79.3633 54.2273 79.0546 53.7211C78.746 53.2155 78.9059 52.5549 79.4116 52.2463Z" fill="#C04D27"/>
<path fill-rule="evenodd" clip-rule="evenodd" d="M80.693 45.4715C81.1986 45.1629 81.8592 45.3228 82.1679 45.8284C82.4765 46.3347 82.3166 46.9946 81.8104 47.3033C81.3047 47.612 80.6442 47.452 80.3355 46.9458C80.0268 46.4402 80.1868 45.7802 80.693 45.4715Z" fill="#C04D27"/>
<path fill-rule="evenodd" clip-rule="evenodd" d="M83.7599 50.4917C84.2661 50.183 84.9261 50.343 85.2348 50.8492C85.5434 51.3548 85.3835 52.0154 84.8773 52.3241C84.3711 52.6327 83.7111 52.4728 83.4024 51.9666C83.0943 51.4609 83.2537 50.8004 83.7599 50.4917Z" fill="#C04D27"/>
<path fill-rule="evenodd" clip-rule="evenodd" d="M84.4185 42.6212C84.9247 42.3125 85.5847 42.4725 85.8934 42.9787C86.2021 43.4844 86.0421 44.1449 85.5365 44.4536C85.0303 44.7622 84.3703 44.6023 84.0616 44.0961C83.7529 43.5904 83.9129 42.9299 84.4185 42.6212Z" fill="#C04D27"/>
<path fill-rule="evenodd" clip-rule="evenodd" d="M87.8992 48.3279C88.4048 48.0192 89.0654 48.1792 89.374 48.6848C89.6827 49.191 89.5227 49.8516 89.0165 50.1597C88.5109 50.4684 87.8503 50.3084 87.5417 49.8028C87.2336 49.2965 87.3935 48.636 87.8992 48.3279Z" fill="#C04D27"/>
<path fill-rule="evenodd" clip-rule="evenodd" d="M88.0361 39.7832C88.5423 39.4746 89.2023 39.6345 89.511 40.1401C89.8196 40.6464 89.6597 41.3063 89.154 41.615C88.6478 41.9237 87.9873 41.7637 87.6792 41.2575C87.3705 40.7519 87.5304 40.0919 88.0361 39.7832Z" fill="#C04D27"/>
<path fill-rule="evenodd" clip-rule="evenodd" d="M100.739 33.9784C100.233 34.287 100.073 34.947 100.381 35.4532C100.69 35.9594 101.35 36.1194 101.856 35.8102C102.362 35.5015 102.522 34.8415 102.214 34.3353C101.905 33.8296 101.245 33.6697 100.739 33.9784Z" fill="#C04D27"/>
<path fill-rule="evenodd" clip-rule="evenodd" d="M96.4665 35.8496C95.9603 36.1582 95.8004 36.8188 96.1096 37.3244C96.4183 37.8306 97.0788 37.9906 97.5845 37.6814C98.0907 37.3727 98.2506 36.7122 97.9419 36.2065C97.6327 35.7008 96.9727 35.5409 96.4665 35.8496Z" fill="#C04D27"/>
<path fill-rule="evenodd" clip-rule="evenodd" d="M99.5277 40.8687C99.0215 41.1774 98.8616 41.8379 99.1702 42.3436C99.4789 42.8498 100.139 43.0092 100.645 42.7011C101.151 42.3924 101.311 41.7319 101.002 41.2262C100.694 40.72 100.033 40.56 99.5277 40.8687Z" fill="#C04D27"/>
<path fill-rule="evenodd" clip-rule="evenodd" d="M92.2291 37.8547C91.7229 38.1634 91.563 38.8239 91.8716 39.3296C92.1803 39.8352 92.8409 39.9958 93.3465 39.6871C93.8527 39.3784 94.0127 38.7179 93.704 38.2122C93.3953 37.706 92.7348 37.5461 92.2291 37.8547Z" fill="#C04D27"/>
<path fill-rule="evenodd" clip-rule="evenodd" d="M95.7096 43.5615C95.2034 43.8702 95.0434 44.5307 95.3521 45.0364C95.6608 45.5426 96.3213 45.702 96.827 45.3939C97.3332 45.0852 97.4926 44.4247 97.1845 43.919C96.8758 43.4122 96.2153 43.2529 95.7096 43.5615Z" fill="#C04D27"/>
<path fill-rule="evenodd" clip-rule="evenodd" d="M103.116 37.7852C103.622 37.4765 104.283 37.6364 104.591 38.1426C104.9 38.6483 104.74 39.3088 104.234 39.6175C103.728 39.9262 103.068 39.7662 102.759 39.26C102.451 38.7544 102.611 38.0938 103.116 37.7852Z" fill="#C04D27"/>
<path fill-rule="evenodd" clip-rule="evenodd" d="M92.1102 46.4352C91.604 46.7439 91.4446 47.4044 91.7527 47.9101C92.0614 48.4163 92.722 48.5763 93.2276 48.2676C93.7338 47.9589 93.8938 47.2984 93.5851 46.7927C93.2764 46.2865 92.6159 46.1266 92.1102 46.4352Z" fill="#C04D27"/>
<path fill-rule="evenodd" clip-rule="evenodd" d="M77.1392 49.7187C76.9596 49.4247 77.0527 49.0408 77.3468 48.8612C77.6409 48.6816 78.0248 48.7748 78.2043 49.0689L80.4823 52.8026C80.6619 53.0967 80.5687 53.4805 80.2747 53.6601C79.9806 53.8397 79.5967 53.7465 79.4171 53.4525L77.1392 49.7187ZM92.3626 39.1264C92.183 38.8324 92.2762 38.4485 92.5702 38.2689C92.8643 38.0893 93.2482 38.1825 93.4272 38.4766L96.8652 44.1122C97.0442 44.4063 96.9516 44.7902 96.6575 44.9698C96.3635 45.1494 95.9796 45.0562 95.8 44.7621L92.3626 39.1264ZM96.5711 37.1392L99.4933 41.9297C99.6729 42.2238 100.057 42.3169 100.351 42.1373C100.645 41.9577 100.738 41.5739 100.559 41.2798L97.6357 36.4893C97.4561 36.1952 97.0723 36.1021 96.7787 36.2816C96.4847 36.4612 96.3915 36.8451 96.5711 37.1392ZM100.844 35.2569C100.665 34.9628 100.758 34.5789 101.052 34.3993C101.346 34.2203 101.73 34.3129 101.909 34.607L104.187 38.3407C104.367 38.6348 104.274 39.0187 103.98 39.1983C103.686 39.3779 103.302 39.2847 103.122 38.9906L100.844 35.2569ZM88.1322 41.0789L92.1291 47.6305C92.3087 47.9245 92.6926 48.0171 92.9861 47.8381C93.2802 47.6585 93.3733 47.2747 93.1937 46.9806L89.1968 40.429C89.0172 40.1349 88.6333 40.0423 88.3393 40.2214C88.0457 40.4009 87.9526 40.7848 88.1322 41.0789ZM84.4607 43.9472C84.2811 43.6532 84.3743 43.2693 84.6684 43.0897C84.9624 42.9101 85.3463 43.0033 85.5259 43.2974L88.9639 48.933C89.1435 49.2271 89.0503 49.611 88.7562 49.79C88.4622 49.9696 88.0783 49.8764 87.8987 49.5824L84.4607 43.9472ZM80.768 46.7797L83.6902 51.5702C83.8698 51.8642 84.2536 51.9568 84.5477 51.7778C84.8418 51.5982 84.9344 51.2144 84.7554 50.9203L81.8331 46.1298C81.6541 45.8357 81.2697 45.7426 80.9756 45.9221C80.6815 46.1017 80.5884 46.4856 80.768 46.7797Z" fill="#FAF1E2"/>
<path fill-rule="evenodd" clip-rule="evenodd" d="M80.0456 38.356C82.2691 36.7066 84.5426 36.1409 85.1228 37.0927C85.7037 38.0445 84.3714 40.153 82.1479 41.803C79.9243 43.4524 77.6514 44.0181 77.0706 43.0663C76.4903 42.1144 77.822 40.006 80.0456 38.356Z" fill="#E9A55C"/>
<path fill-rule="evenodd" clip-rule="evenodd" d="M87.5057 35.6854C88.3981 35.1713 89.3095 35.214 89.5418 35.7814C89.7741 36.3482 89.2393 37.2248 88.347 37.7389C87.4552 38.2529 86.5438 38.2103 86.3115 37.6429C86.0786 37.0761 86.6134 36.2 87.5057 35.6854Z" fill="#E9A55C"/>
<path d="M126.301 131.64C142.43 125.969 150.908 108.297 145.237 92.1685C139.566 76.0397 121.894 67.5619 105.765 73.2328C89.6365 78.9037 81.1587 96.5758 86.8296 112.705C92.5005 128.833 110.173 137.311 126.301 131.64Z" fill="#FAF1E2"/>
<path fill-rule="evenodd" clip-rule="evenodd" d="M140.661 83.6799C144.629 88.884 146.987 95.3817 146.987 102.431C146.987 119.527 133.128 133.386 116.031 133.386C103.186 133.386 92.1688 125.563 87.4838 114.421C93.1391 121.838 102.066 126.626 112.114 126.626C129.21 126.626 143.069 112.766 143.069 95.6702C143.069 91.419 142.212 87.3677 140.661 83.6799Z" fill="#E2B693"/>
<path fill-rule="evenodd" clip-rule="evenodd" d="M130.536 75.0791C136.029 77.9979 140.537 82.523 143.437 88.0279L142.446 88.5375C141.952 88.7917 141.651 89.2491 141.613 89.8036L140.635 103.962C140.618 104.199 140.65 104.406 140.736 104.627L143.459 111.631C143.661 112.149 144.159 112.46 144.713 112.414L144.861 112.401L144.417 113.515L143.918 113.609C143.547 113.679 143.249 113.855 143.01 114.148L136.162 122.51C135.931 122.793 135.817 123.106 135.813 123.472L135.796 125.173L134.606 126.125L134.695 124.477C134.735 123.742 134.268 123.096 133.558 122.904L128.137 121.435C127.875 121.364 127.635 121.36 127.372 121.424L113.515 124.768C113.173 124.851 112.903 125.021 112.681 125.293L107.758 131.337C102.931 129.958 98.7436 127.736 95.0379 124.338L94.1007 119.89C94.0642 119.717 94.0086 119.574 93.9188 119.422C91.55 115.419 89.1934 111.407 86.8324 107.399C86.6186 107.036 86.3071 106.799 85.9003 106.691L85.3564 106.546C85.3435 106.469 85.3312 106.391 85.3194 106.314C85.16 105.042 85.0775 103.746 85.0775 102.431C85.0775 97.0095 86.4727 91.9154 88.9207 87.4835L89.6475 92.6006C89.7103 93.0429 89.9309 93.3993 90.2979 93.6529C90.6655 93.9066 91.0769 93.9868 91.5124 93.8892L99.036 92.2033C99.4013 92.1214 99.6898 91.9384 99.9188 91.6421L106.74 82.8345C107.006 82.4916 107.11 82.0998 107.048 81.6705L106.25 76.1111C106.141 75.3507 105.504 74.7934 104.736 74.7872L102.131 74.7659C105.245 73.1973 108.661 72.1406 112.268 71.7028L108.123 73.9707C107.548 74.285 107.244 74.8927 107.336 75.5415L108.139 81.2002C108.222 81.7816 108.593 82.2373 109.146 82.4354L118.893 85.9363C119.313 86.0872 119.732 86.0592 120.127 85.8526L129.802 80.8113C130.335 80.5335 130.645 80.011 130.631 79.4094L130.536 75.0791ZM139.684 102.922L140.681 89.3047C140.72 88.7687 140.504 88.29 140.077 87.9645L132.161 81.9354C131.677 81.5667 131.063 81.5122 130.521 81.7906L121.108 86.6254C120.595 86.8886 120.288 87.3746 120.271 87.951L119.944 98.6112C119.929 99.1045 120.124 99.5355 120.505 99.8493L129.57 107.319C130.029 107.698 130.623 107.781 131.169 107.542L138.763 104.224C139.301 103.989 139.641 103.508 139.684 102.922ZM128.912 108.348L119.896 100.772C119.489 100.431 118.982 100.323 118.471 100.472L108.364 103.417C107.839 103.57 107.459 103.953 107.311 104.48L104.08 115.944C103.904 116.569 104.118 117.205 104.637 117.596L112.309 123.369C112.689 123.655 113.133 123.748 113.596 123.637L126.208 120.615C126.799 120.474 127.228 120.034 127.357 119.441L129.428 109.855C129.551 109.282 129.361 108.725 128.912 108.348ZM103.048 115.673L106.286 104.039C106.413 103.586 106.34 103.146 106.075 102.757L100.143 94.0424C99.779 93.5076 99.1577 93.2629 98.5264 93.406L90.7665 95.1643C90.1756 95.2984 89.7417 95.73 89.6048 96.3204L87.4492 105.601C87.3555 106.005 87.415 106.385 87.6271 106.741L93.7505 117.007C94.0777 117.554 94.6697 117.836 95.3005 117.742L101.785 116.787C102.403 116.695 102.88 116.275 103.048 115.673Z" fill="#E2B693"/>
<path fill-rule="evenodd" clip-rule="evenodd" d="M109.282 83.4014L119.029 86.9022C119.449 87.0532 119.867 87.0251 120.263 86.8186L129.938 81.7772C130.471 81.4989 130.78 80.9769 130.767 80.3753L130.653 75.1403C136.374 78.2113 140.998 83.0181 143.854 88.849L142.583 89.5029C142.089 89.7571 141.788 90.2145 141.75 90.7689L140.772 104.927C140.755 105.165 140.787 105.371 140.873 105.593L143.596 112.596C143.797 113.114 144.296 113.425 144.849 113.379L144.997 113.367L144.554 114.481L144.055 114.574C143.683 114.645 143.386 114.821 143.146 115.113L136.299 123.476C136.067 123.759 135.954 124.072 135.95 124.438L135.932 126.139L134.742 127.091L134.831 125.442C134.871 124.707 134.404 124.062 133.694 123.869L128.273 122.4C128.011 122.329 127.771 122.326 127.507 122.389L113.651 125.734C113.308 125.816 113.038 125.986 112.816 126.259L107.894 132.303C103.066 130.924 98.879 128.702 95.1733 125.304L94.2361 120.855C94.1996 120.683 94.144 120.54 94.0542 120.387C91.6854 116.385 89.3288 112.373 86.9678 108.365C86.754 108.002 86.4425 107.765 86.0357 107.657L85.4918 107.512C84.3554 100.628 85.5463 93.5834 88.9186 87.4808L89.7829 93.5666C89.8457 94.0088 90.0663 94.3652 90.4333 94.6194C90.8003 94.8731 91.2123 94.9533 91.6478 94.8557L99.1714 93.1698C99.5362 93.0879 99.8252 92.9049 100.054 92.6092L106.876 83.8015C107.141 83.4586 107.245 83.0669 107.183 82.6376L106.386 77.0782C106.277 76.3178 105.64 75.7605 104.872 75.7543L100.381 75.7178C104.693 73.1868 109.527 71.7517 114.52 71.5115L108.259 74.9377C107.684 75.2526 107.38 75.8598 107.472 76.5086L108.275 82.1673C108.358 82.7475 108.729 83.2033 109.282 83.4014ZM88.3641 88.5308C88.3203 88.6178 88.2771 88.7054 88.2339 88.7929L88.3641 88.5308ZM139.821 103.887L140.818 90.2695C140.857 89.7335 140.642 89.2548 140.214 88.9293L132.299 82.9002C131.814 82.5315 131.2 82.477 130.659 82.7554L121.245 87.5902C120.733 87.8535 120.426 88.3395 120.408 88.9158L120.081 99.576C120.066 100.069 120.261 100.5 120.642 100.814L129.707 108.283C130.167 108.662 130.76 108.745 131.306 108.507L138.9 105.189C139.438 104.954 139.778 104.473 139.821 103.887ZM129.049 109.312L120.033 101.737C119.626 101.395 119.118 101.288 118.608 101.437L108.502 104.382C107.975 104.535 107.596 104.918 107.448 105.445L104.217 116.909C104.04 117.534 104.255 118.17 104.774 118.561L112.446 124.334C112.826 124.62 113.27 124.713 113.733 124.602L126.345 121.58C126.936 121.439 127.366 120.999 127.494 120.405L129.565 110.819C129.688 110.246 129.499 109.69 129.049 109.312ZM103.185 116.638L106.423 105.004C106.55 104.551 106.477 104.111 106.212 103.722L100.28 95.0072C99.9161 94.4724 99.2948 94.2277 98.664 94.3708L90.9042 96.1291C90.3132 96.2632 89.8794 96.6948 89.7419 97.2846L87.5863 106.565C87.4926 106.969 87.552 107.349 87.7642 107.705L93.8876 117.97C94.2147 118.519 94.8068 118.799 95.4376 118.707L101.922 117.751C102.54 117.66 103.017 117.239 103.185 116.638Z" fill="#734247"/>
<path fill-rule="evenodd" clip-rule="evenodd" d="M99.0401 77.9124C101.275 76.9443 103.087 77.3007 103.087 78.7082C103.087 80.1157 101.275 82.0412 99.0401 83.0093C96.8053 83.9774 94.9932 83.6211 94.9932 82.2135C94.9932 80.806 96.8048 78.8805 99.0401 77.9124Z" fill="white"/>
<path fill-rule="evenodd" clip-rule="evenodd" d="M95.4899 85.1071C96.5983 84.6272 97.4963 84.804 97.4963 85.5016C97.4963 86.1997 96.5978 87.1544 95.4899 87.6347C94.3815 88.1146 93.483 87.9378 93.483 87.2402C93.483 86.5421 94.3815 85.5875 95.4899 85.1071Z" fill="white"/>
<path fill-rule="evenodd" clip-rule="evenodd" d="M9.16194 47.4336L9.02051 49.1408C9.02051 49.1408 9.41168 50.3525 11.9063 49.9781C14.4008 49.6044 12.0808 47.5088 9.16194 47.4336Z" fill="#8FB345"/>
<path fill-rule="evenodd" clip-rule="evenodd" d="M19.6999 29.846L18.4035 30.2215C18.4035 30.2215 16.6565 31.0184 17.2053 32.5028C17.7542 33.9872 22.1199 30.3073 22.1446 30.2203C22.1698 30.1333 21.0221 29.8713 19.6999 29.846Z" fill="#8FB345"/>
<path fill-rule="evenodd" clip-rule="evenodd" d="M24.5021 29.0204C22.3437 29.0204 20.2852 29.448 18.4063 30.2225C19.0258 30.2169 19.6942 30.2231 20.3986 30.2455C18.9826 30.6378 17.6486 31.2271 16.4285 31.9836C15.8673 32.038 15.383 32.0953 14.9975 32.1458C11.0493 35.0624 8.48853 39.7491 8.48853 45.034C8.48853 46.4544 8.67429 47.8305 9.02112 49.1415C9.22933 49.0567 9.44034 48.9844 9.65472 48.9232C9.79222 49.4496 9.95722 49.9642 10.1475 50.4671C10.0341 50.5103 9.92074 50.5563 9.80962 50.6068C9.6536 50.6775 9.58121 50.8582 9.64518 51.0171C12.0152 56.8974 17.7743 61.0481 24.5027 61.0481C33.3468 61.0481 40.5169 53.8787 40.5169 45.034C40.5169 36.1893 33.3463 29.0204 24.5021 29.0204Z" fill="#8FB345"/>
<path fill-rule="evenodd" clip-rule="evenodd" d="M9.9053 51.622C12.4167 57.1808 18.0086 61.0492 24.5046 61.0492C31.8178 61.0492 37.9855 56.1476 39.902 49.4501C38.3784 53.7703 34.7108 57.0736 31.0877 57.421C28.5734 57.6623 25.4391 56.0303 22.1347 54.3102C18.0064 52.1607 13.5992 49.8676 10.1494 51.1668C10.1264 51.1752 10.1028 51.1842 10.0798 51.1938C9.99509 51.2269 9.93448 51.2864 9.90081 51.3705C9.86601 51.4542 9.8677 51.5389 9.9053 51.622Z" fill="#BDE148"/>
<path fill-rule="evenodd" clip-rule="evenodd" d="M24.5026 29.0204C23.3959 29.0204 22.3161 29.1332 21.2728 29.347L21.229 29.356L21.2262 29.3566C21.1796 29.3661 21.1336 29.3762 21.087 29.3863L21.0814 29.3874C20.8367 29.4407 20.5937 29.4997 20.353 29.5642C19.6862 29.7427 19.0358 29.9632 18.4061 30.2231C19.8176 29.6894 20.8283 29.7561 22.2633 29.8543C27.321 30.2001 33.602 31.5082 37.3801 35.5153C34.4629 31.575 29.7813 29.0204 24.5026 29.0204Z" fill="#BDE148"/>
<path fill-rule="evenodd" clip-rule="evenodd" d="M18.3181 30.9882L18.2873 31.0017L18.2783 31.0056L18.2558 31.0157L18.225 31.0297L18.1941 31.0438L18.1632 31.0578L18.1548 31.0617L18.1318 31.0724L18.0701 31.1004L18.0392 31.115L18.0145 31.1262L18.0084 31.1291L17.9775 31.1436L17.9702 31.147L17.9466 31.1582L17.9158 31.1728L17.8871 31.1869L17.8854 31.1874L17.8546 31.202L17.8237 31.2166L17.7934 31.2312L17.7867 31.2346L17.7625 31.2463L17.7322 31.2615L17.7019 31.2767L17.6716 31.2918L17.666 31.2946L17.6413 31.307L17.611 31.3221L17.6054 31.3249L17.5807 31.3373L17.5504 31.3524L17.5454 31.3552L17.5201 31.3681L17.4898 31.3838L17.4847 31.3867L17.4595 31.3996L17.4292 31.4153L17.4247 31.4175L17.3994 31.431L17.3691 31.4467L17.3646 31.4489L17.3388 31.4624L17.3085 31.4781L17.3046 31.4804L17.2788 31.4944L17.249 31.5107L17.2451 31.5129L17.194 31.5404L17.1895 31.5427L17.1862 31.5449L17.1598 31.5589L17.1301 31.5752L17.1267 31.5769L17.1003 31.5915L17.0706 31.6078L17.0678 31.6095L17.0622 31.6123L17.0116 31.6403L17.0088 31.642L16.9538 31.6729L16.9522 31.674L16.9499 31.6757L16.9224 31.6908L16.8932 31.7077L16.891 31.7088L16.864 31.7245L16.8349 31.7413L16.8332 31.7425L16.8057 31.7582L16.7765 31.775L16.7748 31.7761L16.7473 31.7924L16.7181 31.8098L16.717 31.8104L16.6895 31.8266L16.6603 31.844L16.6592 31.8446L16.6311 31.8614L16.602 31.8788L16.6008 31.8794L16.5514 31.9091L16.5436 31.9142H16.543L16.515 31.9316L16.4863 31.949L16.4572 31.9664L16.4285 31.9843C15.8673 32.0388 15.383 32.096 14.9975 32.1465C11.0493 35.0631 8.48853 39.7498 8.48853 45.0347V45.1015V45.1391V45.1498L8.48909 45.1874V45.1913L8.48965 45.2345V45.243L8.49077 45.2946V45.3008L8.4919 45.3614V45.367L8.49246 45.3984V45.4079L8.49358 45.4495V45.45L8.4947 45.4994V45.5022C8.49582 45.541 8.49694 45.5802 8.49863 45.619L8.49975 45.6554V45.6571L8.50143 45.6981L8.502 45.7088L8.50424 45.7604V45.7638L8.50648 45.812L8.50704 45.83L8.50873 45.8637L8.51041 45.8956L8.51154 45.9147L8.51434 45.9613V45.9664L8.51771 46.0174L8.51827 46.027L8.52107 46.0691V46.0752L8.52388 46.1151V46.1207L8.52669 46.1589L8.52781 46.1723L8.53174 46.2234V46.2245L8.53567 46.2745L8.53679 46.2896L8.5396 46.3255L8.54184 46.3547L8.5424 46.3615L8.54633 46.408L8.54745 46.4198L8.54802 46.4271C8.55138 46.4658 8.55475 46.5051 8.55868 46.5438L8.5598 46.5579L8.56485 46.6073L8.56541 46.6151L8.56709 46.6308L8.57215 46.6802V46.6819L8.5772 46.7324L8.57832 46.7453L8.58 46.7588L8.58506 46.8059L8.58562 46.8132L8.59123 46.8615L8.59291 46.8744L8.59404 46.8839L8.60021 46.9344L8.60077 46.9389L8.60638 46.985L8.60863 47.0035L8.61255 47.0355L8.61648 47.068L8.61873 47.086L8.6249 47.1326L8.62546 47.1365L8.6322 47.1864L8.63332 47.1965L8.635 47.2083L8.64118 47.2538L8.64174 47.2605L8.64566 47.2863L8.65128 47.3245L8.65296 47.3368L8.66026 47.3868L8.66082 47.389L8.66811 47.4373L8.67036 47.453L8.67204 47.4653L8.67821 47.5058L8.6799 47.517L8.68327 47.5372L8.69 47.581L8.69112 47.5871L8.69898 47.6371L8.7001 47.6444L8.70684 47.6865L8.70796 47.6915L8.71413 47.7286L8.71525 47.7359L8.72143 47.7712L8.73265 47.8346V47.8352L8.74163 47.8846L8.74444 47.8981V47.8992L8.75454 47.9536L8.75566 47.9615L8.75959 47.9839L8.76745 48.0249L8.76913 48.0333L8.77867 48.0827L8.77979 48.0877L8.78821 48.1321L8.79214 48.1511L8.79438 48.1618L8.81459 48.2634L8.81739 48.2774L8.81796 48.2802C9.01101 48.2033 9.20744 48.1371 9.40555 48.0804C10.3669 47.8049 11.3883 47.7594 12.4451 47.8812C15.6591 48.2499 19.2032 50.1592 22.3925 51.8198C25.5724 53.4754 28.5142 55.1579 30.7478 54.9435C36.649 54.3772 43.1439 44.6043 36.9066 36.5908C33.0741 31.6678 25.3804 30.8243 19.9058 30.9248C19.3631 30.9349 18.8423 30.954 18.3496 30.9798L18.3181 30.9882Z" fill="#8FB345"/>
<path fill-rule="evenodd" clip-rule="evenodd" d="M18.349 30.9746C17.6828 31.2664 17.0414 31.6042 16.4285 31.9842C15.9066 32.0347 15.4515 32.088 15.0805 32.1357C15.0233 32.143 14.9761 32.1621 14.9301 32.1963C11.0202 35.1163 8.48853 39.7794 8.48853 45.0346C8.48853 46.0145 8.5772 46.9736 8.74556 47.9052C8.7624 47.9995 8.81459 48.0741 8.89653 48.1229C8.97903 48.1718 9.06882 48.1813 9.15973 48.1516C9.24111 48.1246 9.32305 48.0999 9.40499 48.0764C10.3663 47.8008 11.3877 47.7553 12.4445 47.8771C15.6586 48.2458 19.2026 50.1551 22.392 51.8157C25.5718 53.4713 28.5137 55.1538 30.7473 54.9394C36.6484 54.3731 43.1433 44.6002 36.906 36.5867C33.0735 31.6637 25.3799 30.8202 19.9052 30.9207C19.3626 30.9297 18.8418 30.9487 18.349 30.9746Z" fill="#BDE148"/>
<path fill-rule="evenodd" clip-rule="evenodd" d="M10.0396 51.9159C12.6133 57.3164 18.121 61.049 24.502 61.049C33.3461 61.049 40.5161 53.8796 40.5161 45.0349C40.5161 40.4262 38.5687 36.2727 35.4523 33.351C36.2689 35.2838 36.7212 37.408 36.7212 39.6377C36.7212 48.566 29.4838 55.8034 20.5555 55.8034C16.5401 55.8034 12.8664 54.3392 10.0396 51.9159Z" fill="#8FB345"/>
<path fill-rule="evenodd" clip-rule="evenodd" d="M16.4272 31.9835C21.3479 31.5048 32.3213 31.2248 37.1539 37.4335C43.3917 45.4464 36.8963 55.2194 30.9951 55.7862C28.7615 56.0006 25.8202 54.3181 22.6398 52.6625C18.4021 50.4558 13.537 47.8103 9.65283 48.9237C9.79033 49.4501 9.95532 49.9648 10.1456 50.4676C13.5953 49.169 18.0025 51.4621 22.1308 53.6115C25.4358 55.3322 28.5701 56.9636 31.0838 56.7223C35.2205 56.325 39.4155 52.0749 40.4106 46.8573C40.4785 46.2591 40.5144 45.6513 40.5144 45.0345C40.5144 43.1449 40.1861 41.3328 39.5856 39.6497C39.1647 38.7046 38.608 37.7685 37.898 36.856C33.8669 31.6777 25.9897 30.4273 20.3972 30.246C18.9813 30.6378 17.6473 31.2276 16.4272 31.9835Z" fill="white"/>
<path fill-rule="evenodd" clip-rule="evenodd" d="M15.3719 33.3162C17.5949 32.2701 19.4946 32.6473 19.6153 34.1592C19.7359 35.6705 18.031 37.7442 15.808 38.7903C13.5851 39.8364 11.6854 39.4592 11.5647 37.9473C11.4446 36.436 13.149 34.3623 15.3719 33.3162Z" fill="#E7F66E"/>
<path fill-rule="evenodd" clip-rule="evenodd" d="M14.5578 39.9993C15.7071 39.6968 16.6898 40.0958 16.7521 40.8905C16.8144 41.6851 15.9327 42.5741 14.7834 42.8766C13.634 43.1791 12.6513 42.7801 12.589 41.9854C12.5268 41.1907 13.4079 40.3012 14.5578 39.9993Z" fill="#E7F66E"/>
<path fill-rule="evenodd" clip-rule="evenodd" d="M31.4215 121.339H169.095L197.101 149.345L194.196 152.25L169.095 127.149V207.274H31.4215V127.149L6.32024 152.25L3.41541 149.345L31.4215 121.339Z" fill="#74C4B4"/>
<path fill-rule="evenodd" clip-rule="evenodd" d="M169.095 143.223C169.095 164.573 169.095 185.923 169.095 207.274C149.794 207.274 130.494 207.274 111.194 207.274C126.538 189.994 150.525 167.188 169.095 143.223Z" fill="#60BCAB"/>
<path fill-rule="evenodd" clip-rule="evenodd" d="M31.421 121.339H39.7993C44.7845 121.339 49.7698 121.339 54.755 121.339C44.7851 131.989 41.172 144.173 31.4215 153.946V139.79V129.472V127.149L6.32024 152.25L3.41541 149.346L31.421 121.339Z" fill="#8DCABE"/>
<path d="M65.7967 149.212C65.8038 149.513 65.8898 149.785 66.0545 150.029C66.2264 150.265 66.4484 150.491 66.7205 150.705C66.9998 150.92 67.3149 151.132 67.6658 151.339C68.0167 151.54 68.3748 151.755 68.74 151.984C69.1124 152.206 69.4741 152.449 69.825 152.714C70.1759 152.979 70.491 153.28 70.7703 153.617C71.0496 153.953 71.2752 154.333 71.4471 154.755C71.6189 155.178 71.712 155.658 71.7264 156.195V156.281C71.7264 156.868 71.6548 157.38 71.5115 157.817C71.3683 158.254 71.1785 158.63 70.9422 158.945C70.7059 159.26 70.4301 159.521 70.115 159.729C69.7999 159.929 69.4669 160.091 69.116 160.212C68.7723 160.334 68.4214 160.42 68.0633 160.47C67.7124 160.52 67.3794 160.549 67.0643 160.556H66.9568C66.3481 160.556 65.8146 160.495 65.3563 160.373C64.8979 160.252 64.504 160.091 64.1746 159.89C63.8452 159.682 63.5695 159.446 63.3475 159.181C63.1326 158.916 62.9607 158.644 62.8318 158.365C62.7029 158.078 62.6098 157.795 62.5525 157.516C62.4953 157.237 62.4666 156.975 62.4666 156.732C62.4666 156.481 62.5096 156.263 62.5955 156.077C62.6814 155.89 62.7925 155.74 62.9285 155.625C63.0717 155.504 63.2329 155.414 63.4119 155.357C63.5981 155.3 63.7915 155.271 63.992 155.271C64.1782 155.271 64.368 155.3 64.5613 155.357C64.7619 155.414 64.9409 155.504 65.0984 155.625C65.2632 155.74 65.3956 155.89 65.4959 156.077C65.6033 156.256 65.6606 156.467 65.6678 156.71C65.6821 157.247 65.8038 157.616 66.033 157.817C66.2622 158.01 66.5916 158.107 67.0213 158.107C67.2361 158.1 67.4331 158.075 67.6121 158.032C67.7983 157.981 67.9559 157.899 68.0848 157.785C68.2137 157.663 68.3139 157.505 68.3856 157.312C68.4643 157.111 68.5037 156.861 68.5037 156.56C68.5037 156.188 68.4178 155.851 68.2459 155.55C68.0812 155.249 67.8628 154.97 67.5906 154.712C67.3185 154.454 67.007 154.211 66.6561 153.982C66.3051 153.745 65.9471 153.513 65.5818 153.284C65.2166 153.047 64.8585 152.804 64.5076 152.553C64.1639 152.295 63.8523 152.016 63.5731 151.715C63.2938 151.414 63.0682 151.081 62.8963 150.716C62.7316 150.351 62.6456 149.936 62.6385 149.47V149.298C62.6456 148.532 62.7459 147.895 62.9393 147.386C63.1398 146.878 63.4298 146.473 63.8094 146.172C64.1961 145.871 64.6688 145.66 65.2273 145.538C65.7859 145.41 66.4269 145.345 67.1502 145.345H67.4295C68.0884 145.345 68.6469 145.417 69.1053 145.56C69.5636 145.703 69.9432 145.886 70.2439 146.108C70.5519 146.33 70.7918 146.58 70.9637 146.86C71.1427 147.139 71.2752 147.415 71.3611 147.687C71.4471 147.959 71.5008 148.213 71.5223 148.45C71.5438 148.686 71.5545 148.876 71.5545 149.019C71.5545 149.234 71.5115 149.431 71.4256 149.61C71.3468 149.782 71.2358 149.928 71.0926 150.05C70.9565 150.172 70.7918 150.269 70.5984 150.34C70.4122 150.405 70.2081 150.437 69.9861 150.437C69.8143 150.437 69.6424 150.405 69.4705 150.34C69.2986 150.269 69.1447 150.179 69.0086 150.072C68.8725 149.964 68.7615 149.842 68.6756 149.706C68.5897 149.563 68.5467 149.42 68.5467 149.277C68.5467 148.689 68.4393 148.281 68.2244 148.052C68.0167 147.823 67.7088 147.708 67.3006 147.708C67.1072 147.708 66.9175 147.719 66.7313 147.741C66.5522 147.762 66.3911 147.823 66.2479 147.923C66.1118 148.016 66.0008 148.163 65.9148 148.364C65.8361 148.564 65.7967 148.847 65.7967 149.212ZM82.4686 154.347C82.4686 154.462 82.4614 154.598 82.4471 154.755C82.4328 154.906 82.3755 155.052 82.2752 155.196C82.1821 155.332 82.0317 155.45 81.824 155.55C81.6163 155.65 81.3227 155.701 80.9432 155.701H76.6678V156.732C76.6678 156.904 76.6893 157.083 76.7322 157.269C76.7752 157.455 76.8468 157.627 76.9471 157.785C77.0545 157.942 77.1941 158.071 77.366 158.171C77.5379 158.272 77.7492 158.322 77.9998 158.322C78.2863 158.322 78.5047 158.289 78.6551 158.225C78.8126 158.153 78.9344 158.067 79.0203 157.967C79.1134 157.867 79.1958 157.759 79.2674 157.645C79.339 157.53 79.4321 157.423 79.5467 157.323C79.6684 157.222 79.8331 157.14 80.0408 157.076C80.2557 157.004 80.5493 156.968 80.9217 156.968C81.1007 156.968 81.2726 156.982 81.4373 157.011C81.6092 157.04 81.7596 157.093 81.8885 157.172C82.0174 157.251 82.1212 157.362 82.2 157.505C82.2788 157.641 82.3182 157.82 82.3182 158.042C82.3182 158.508 82.1714 158.898 81.8777 159.213C81.5841 159.521 81.2153 159.768 80.7713 159.954C80.3273 160.141 79.8439 160.273 79.3211 160.352C78.8055 160.431 78.3221 160.47 77.8709 160.47C77.2765 160.463 76.7107 160.388 76.1736 160.245C75.6365 160.101 75.1603 159.872 74.7449 159.557C74.3367 159.242 74.0109 158.83 73.7674 158.322C73.5239 157.813 73.4022 157.19 73.4022 156.453V153.939C73.4022 153.259 73.4809 152.682 73.6385 152.209C73.8032 151.737 74.0145 151.343 74.2723 151.028C74.5301 150.713 74.8201 150.469 75.1424 150.297C75.4647 150.118 75.7905 149.986 76.1199 149.9C76.4494 149.814 76.7609 149.76 77.0545 149.739C77.3553 149.717 77.6131 149.706 77.8279 149.706C78.5512 149.706 79.1671 149.771 79.6756 149.9C80.1912 150.029 80.6209 150.197 80.9647 150.405C81.3084 150.612 81.5805 150.852 81.7811 151.124C81.9816 151.397 82.132 151.679 82.2322 151.973C82.3325 152.259 82.3969 152.553 82.4256 152.854C82.4542 153.148 82.4686 153.423 82.4686 153.681V154.347ZM76.6678 154.089H79.3533C79.3533 153.753 79.3426 153.455 79.3211 153.198C79.3068 152.933 79.2531 152.711 79.16 152.532C79.074 152.353 78.9344 152.217 78.741 152.123C78.5548 152.03 78.2863 151.984 77.9354 151.984C77.6417 151.984 77.409 152.03 77.2371 152.123C77.0724 152.217 76.9471 152.335 76.8611 152.478C76.7752 152.614 76.7215 152.761 76.7 152.918C76.6785 153.076 76.6678 153.216 76.6678 153.337V154.089ZM92.0506 160.47C91.6854 160.47 91.3953 160.402 91.1805 160.266C90.9656 160.123 90.8009 159.937 90.6863 159.707C90.5717 159.478 90.4966 159.22 90.4607 158.934C90.4321 158.64 90.4178 158.343 90.4178 158.042V153.788C90.4178 153.595 90.407 153.405 90.3856 153.219C90.3712 153.033 90.3318 152.868 90.2674 152.725C90.2029 152.582 90.1063 152.467 89.9773 152.381C89.8556 152.288 89.6873 152.242 89.4725 152.242C89.186 152.242 88.9533 152.338 88.7742 152.532C88.5952 152.725 88.452 152.99 88.3445 153.327C88.2443 153.656 88.1727 154.046 88.1297 154.497C88.0939 154.949 88.076 155.436 88.076 155.958V158.042C88.076 158.343 88.0581 158.64 88.0223 158.934C87.9936 159.22 87.922 159.478 87.8074 159.707C87.7 159.937 87.5389 160.123 87.324 160.266C87.1092 160.402 86.8156 160.47 86.4432 160.47C86.0708 160.47 85.7772 160.402 85.5623 160.266C85.3475 160.123 85.1828 159.937 85.0682 159.707C84.9607 159.478 84.8891 159.22 84.8533 158.934C84.8247 158.64 84.8104 158.343 84.8104 158.042V152.156C84.8104 151.855 84.8211 151.561 84.8426 151.275C84.8712 150.981 84.9393 150.72 85.0467 150.491C85.1541 150.261 85.3152 150.079 85.5301 149.943C85.7521 149.8 86.0564 149.728 86.4432 149.728C86.837 149.728 87.1414 149.796 87.3563 149.932C87.5783 150.061 87.743 150.222 87.8504 150.415C87.9578 150.602 88.0223 150.799 88.0438 151.006C88.0652 151.214 88.076 151.389 88.076 151.533C88.1404 151.325 88.2407 151.114 88.3768 150.899C88.52 150.684 88.699 150.491 88.9139 150.319C89.1287 150.147 89.3758 150.007 89.6551 149.9C89.9344 149.785 90.2459 149.728 90.5897 149.728C91.0623 149.728 91.5206 149.842 91.9647 150.072C92.4087 150.301 92.7882 150.673 93.1033 151.189C93.2107 150.945 93.3683 150.734 93.576 150.555C93.7837 150.369 94.02 150.215 94.285 150.093C94.5499 149.971 94.8328 149.882 95.1336 149.825C95.4344 149.76 95.7316 149.728 96.0252 149.728C96.4191 149.728 96.813 149.792 97.2068 149.921C97.6007 150.05 97.9552 150.265 98.2703 150.566C98.5854 150.867 98.8397 151.26 99.033 151.747C99.2335 152.227 99.3338 152.822 99.3338 153.531V158.042C99.3338 158.343 99.3159 158.64 99.2801 158.934C99.2443 159.22 99.1691 159.478 99.0545 159.707C98.9399 159.937 98.7716 160.123 98.5496 160.266C98.3348 160.402 98.0447 160.47 97.6795 160.47C97.3071 160.47 97.0099 160.402 96.7879 160.266C96.5731 160.123 96.4083 159.937 96.2938 159.707C96.1792 159.478 96.104 159.22 96.0682 158.934C96.0395 158.64 96.0252 158.343 96.0252 158.042V153.788C96.0252 153.595 96.0145 153.405 95.993 153.219C95.9715 153.033 95.9285 152.868 95.8641 152.725C95.7996 152.582 95.7029 152.467 95.574 152.381C95.4451 152.288 95.2732 152.242 95.0584 152.242C94.8292 152.242 94.6323 152.313 94.4676 152.456C94.31 152.6 94.1775 152.797 94.0701 153.047C93.9627 153.298 93.8803 153.599 93.8231 153.95C93.7658 154.293 93.7264 154.669 93.7049 155.078V158.042C93.7049 158.343 93.687 158.64 93.6512 158.934C93.6225 159.22 93.5509 159.478 93.4363 159.707C93.3217 159.937 93.1535 160.123 92.9314 160.266C92.7166 160.402 92.423 160.47 92.0506 160.47ZM110.398 158.042C110.398 158.343 110.388 158.64 110.366 158.934C110.345 159.22 110.28 159.478 110.173 159.707C110.065 159.937 109.904 160.123 109.689 160.266C109.474 160.402 109.174 160.47 108.787 160.47C108.393 160.47 108.085 160.406 107.863 160.277C107.641 160.141 107.476 159.98 107.369 159.793C107.262 159.6 107.193 159.399 107.165 159.192C107.143 158.984 107.133 158.809 107.133 158.665C107.068 158.873 106.975 159.084 106.853 159.299C106.739 159.514 106.588 159.707 106.402 159.879C106.216 160.051 105.99 160.194 105.725 160.309C105.468 160.416 105.163 160.47 104.812 160.47C104.418 160.47 104.025 160.406 103.631 160.277C103.237 160.148 102.882 159.933 102.567 159.632C102.252 159.331 101.994 158.941 101.794 158.461C101.6 157.974 101.504 157.376 101.504 156.667V153.552C101.504 152.836 101.6 152.238 101.794 151.758C101.994 151.271 102.252 150.881 102.567 150.587C102.882 150.286 103.237 150.072 103.631 149.943C104.025 149.814 104.418 149.749 104.812 149.749C105.163 149.749 105.468 149.803 105.725 149.911C105.99 150.018 106.216 150.158 106.402 150.329C106.588 150.501 106.739 150.695 106.853 150.91C106.975 151.124 107.068 151.339 107.133 151.554C107.133 151.196 107.183 150.899 107.283 150.662C107.383 150.426 107.512 150.24 107.67 150.104C107.827 149.961 108.003 149.864 108.196 149.814C108.397 149.757 108.594 149.728 108.787 149.728C109.145 149.728 109.431 149.8 109.646 149.943C109.861 150.079 110.022 150.261 110.13 150.491C110.244 150.713 110.316 150.974 110.345 151.275C110.38 151.568 110.398 151.869 110.398 152.177V158.042ZM104.812 156.388C104.812 156.581 104.819 156.771 104.834 156.957C104.848 157.144 104.888 157.312 104.952 157.462C105.016 157.613 105.11 157.734 105.231 157.828C105.36 157.913 105.536 157.956 105.758 157.956C106.037 157.956 106.263 157.896 106.434 157.774C106.613 157.645 106.753 157.452 106.853 157.194C106.954 156.929 107.022 156.599 107.057 156.205C107.1 155.804 107.125 155.328 107.133 154.777C107.133 154.555 107.111 154.3 107.068 154.014C107.032 153.72 106.964 153.445 106.864 153.187C106.764 152.929 106.624 152.711 106.445 152.532C106.266 152.353 106.037 152.263 105.758 152.263C105.536 152.263 105.36 152.31 105.231 152.403C105.11 152.489 105.016 152.603 104.952 152.746C104.888 152.89 104.848 153.054 104.834 153.241C104.819 153.42 104.812 153.602 104.812 153.788V156.388ZM112.847 147.88C112.847 147.572 112.862 147.272 112.89 146.978C112.926 146.677 112.998 146.416 113.105 146.194C113.22 145.965 113.385 145.782 113.599 145.646C113.814 145.503 114.101 145.431 114.459 145.431C114.831 145.431 115.128 145.503 115.35 145.646C115.572 145.782 115.737 145.965 115.845 146.194C115.959 146.416 116.031 146.677 116.059 146.978C116.095 147.272 116.113 147.572 116.113 147.88V151.554C116.178 151.339 116.267 151.124 116.382 150.91C116.503 150.695 116.657 150.501 116.844 150.329C117.03 150.158 117.252 150.018 117.51 149.911C117.775 149.803 118.082 149.749 118.433 149.749C118.827 149.749 119.221 149.814 119.615 149.943C120.009 150.072 120.363 150.286 120.679 150.587C120.994 150.881 121.248 151.271 121.441 151.758C121.642 152.238 121.742 152.836 121.742 153.552V156.667C121.742 157.376 121.642 157.974 121.441 158.461C121.248 158.941 120.994 159.331 120.679 159.632C120.363 159.933 120.009 160.148 119.615 160.277C119.221 160.406 118.827 160.47 118.433 160.47C118.082 160.47 117.775 160.416 117.51 160.309C117.252 160.194 117.03 160.051 116.844 159.879C116.657 159.707 116.503 159.514 116.382 159.299C116.267 159.084 116.178 158.873 116.113 158.665C116.113 158.809 116.099 158.984 116.07 159.192C116.049 159.399 115.984 159.6 115.877 159.793C115.769 159.98 115.605 160.141 115.383 160.277C115.161 160.406 114.853 160.47 114.459 160.47C114.072 160.47 113.771 160.402 113.556 160.266C113.342 160.123 113.18 159.937 113.073 159.707C112.966 159.478 112.901 159.22 112.88 158.934C112.858 158.64 112.847 158.343 112.847 158.042V147.88ZM118.433 153.788C118.433 153.602 118.426 153.42 118.412 153.241C118.398 153.054 118.358 152.89 118.294 152.746C118.229 152.603 118.133 152.489 118.004 152.403C117.882 152.31 117.71 152.263 117.488 152.263C117.209 152.263 116.98 152.353 116.801 152.532C116.622 152.711 116.482 152.929 116.382 153.187C116.281 153.445 116.21 153.72 116.167 154.014C116.131 154.3 116.113 154.555 116.113 154.777C116.12 155.328 116.142 155.804 116.178 156.205C116.221 156.599 116.292 156.929 116.392 157.194C116.493 157.452 116.629 157.645 116.801 157.774C116.98 157.896 117.209 157.956 117.488 157.956C117.71 157.956 117.882 157.913 118.004 157.828C118.133 157.734 118.229 157.613 118.294 157.462C118.358 157.312 118.398 157.144 118.412 156.957C118.426 156.771 118.433 156.581 118.433 156.388V153.788ZM132.549 158.042C132.549 158.343 132.538 158.64 132.516 158.934C132.495 159.22 132.43 159.478 132.323 159.707C132.216 159.937 132.054 160.123 131.84 160.266C131.625 160.402 131.324 160.47 130.937 160.47C130.543 160.47 130.235 160.406 130.013 160.277C129.791 160.141 129.627 159.98 129.519 159.793C129.412 159.6 129.344 159.399 129.315 159.192C129.294 158.984 129.283 158.809 129.283 158.665C129.219 158.873 129.125 159.084 129.004 159.299C128.889 159.514 128.739 159.707 128.553 159.879C128.366 160.051 128.141 160.194 127.876 160.309C127.618 160.416 127.314 160.47 126.963 160.47C126.569 160.47 126.175 160.406 125.781 160.277C125.387 160.148 125.033 159.933 124.718 159.632C124.402 159.331 124.145 158.941 123.944 158.461C123.751 157.974 123.654 157.376 123.654 156.667V153.552C123.654 152.836 123.751 152.238 123.944 151.758C124.145 151.271 124.402 150.881 124.718 150.587C125.033 150.286 125.387 150.072 125.781 149.943C126.175 149.814 126.569 149.749 126.963 149.749C127.314 149.749 127.618 149.803 127.876 149.911C128.141 150.018 128.366 150.158 128.553 150.329C128.739 150.501 128.889 150.695 129.004 150.91C129.125 151.124 129.219 151.339 129.283 151.554C129.283 151.196 129.333 150.899 129.433 150.662C129.534 150.426 129.663 150.24 129.82 150.104C129.978 149.961 130.153 149.864 130.346 149.814C130.547 149.757 130.744 149.728 130.937 149.728C131.295 149.728 131.582 149.8 131.797 149.943C132.012 150.079 132.173 150.261 132.28 150.491C132.395 150.713 132.466 150.974 132.495 151.275C132.531 151.568 132.549 151.869 132.549 152.177V158.042ZM126.963 156.388C126.963 156.581 126.97 156.771 126.984 156.957C126.999 157.144 127.038 157.312 127.102 157.462C127.167 157.613 127.26 157.734 127.382 157.828C127.511 157.913 127.686 157.956 127.908 157.956C128.187 157.956 128.413 157.896 128.585 157.774C128.764 157.645 128.903 157.452 129.004 157.194C129.104 156.929 129.172 156.599 129.208 156.205C129.251 155.804 129.276 155.328 129.283 154.777C129.283 154.555 129.262 154.3 129.219 154.014C129.183 153.72 129.115 153.445 129.014 153.187C128.914 152.929 128.775 152.711 128.596 152.532C128.416 152.353 128.187 152.263 127.908 152.263C127.686 152.263 127.511 152.31 127.382 152.403C127.26 152.489 127.167 152.603 127.102 152.746C127.038 152.89 126.999 153.054 126.984 153.241C126.97 153.42 126.963 153.602 126.963 153.788V156.388ZM141.98 151.339C141.98 151.898 141.841 152.306 141.561 152.564C141.289 152.822 140.899 152.951 140.39 152.951C140.319 152.951 140.215 152.958 140.079 152.972C139.95 152.979 139.81 153.008 139.66 153.058C139.51 153.101 139.356 153.169 139.198 153.262C139.048 153.348 138.908 153.47 138.779 153.627C138.65 153.778 138.546 153.971 138.468 154.207C138.389 154.444 138.349 154.727 138.349 155.056V158.128C138.349 158.422 138.332 158.708 138.296 158.988C138.267 159.267 138.195 159.518 138.081 159.74C137.966 159.954 137.802 160.13 137.587 160.266C137.372 160.402 137.082 160.47 136.717 160.47C136.359 160.47 136.076 160.402 135.868 160.266C135.66 160.13 135.499 159.954 135.385 159.74C135.277 159.518 135.206 159.267 135.17 158.988C135.141 158.708 135.127 158.422 135.127 158.128V152.113C135.127 151.812 135.141 151.522 135.17 151.243C135.206 150.956 135.277 150.702 135.385 150.48C135.499 150.258 135.66 150.082 135.868 149.953C136.076 149.817 136.359 149.749 136.717 149.749C137.082 149.749 137.361 149.832 137.554 149.996C137.755 150.154 137.902 150.362 137.995 150.62C138.088 150.87 138.142 151.153 138.156 151.468C138.17 151.776 138.178 152.077 138.178 152.37H138.349C138.45 151.969 138.582 151.608 138.747 151.286C138.912 150.956 139.094 150.68 139.295 150.458C139.495 150.229 139.71 150.054 139.939 149.932C140.168 149.81 140.398 149.749 140.627 149.749C140.906 149.749 141.132 149.782 141.304 149.846C141.483 149.903 141.622 149.996 141.722 150.125C141.823 150.254 141.891 150.419 141.927 150.62C141.962 150.82 141.98 151.06 141.98 151.339Z" fill="white"/>
<path d="M51.616 179.449C51.2427 179.089 50.906 178.666 50.606 178.179C50.3127 177.699 50.076 177.166 49.896 176.579C49.7227 175.986 49.636 175.349 49.636 174.669C49.636 173.989 49.7227 173.356 49.896 172.769C50.076 172.176 50.3127 171.639 50.606 171.159C50.906 170.673 51.2427 170.249 51.616 169.889H52.676V169.989C52.076 170.609 51.5927 171.319 51.226 172.119C50.866 172.919 50.686 173.769 50.686 174.669C50.686 175.569 50.866 176.419 51.226 177.219C51.5927 178.019 52.0794 178.729 52.686 179.349V179.449H51.616ZM56.0534 178.119C55.5401 178.119 55.0901 178.029 54.7034 177.849C54.3168 177.669 54.0134 177.413 53.7934 177.079C53.5801 176.746 53.4701 176.349 53.4634 175.889H54.5834C54.5901 176.263 54.7201 176.579 54.9734 176.839C55.2268 177.099 55.5834 177.229 56.0434 177.229C56.4501 177.229 56.7668 177.133 56.9934 176.939C57.2268 176.739 57.3434 176.486 57.3434 176.179C57.3434 175.933 57.2868 175.733 57.1734 175.579C57.0668 175.426 56.9168 175.299 56.7234 175.199C56.5368 175.099 56.3201 175.009 56.0734 174.929C55.8268 174.849 55.5668 174.763 55.2934 174.669C54.7534 174.489 54.3468 174.256 54.0734 173.969C53.8068 173.683 53.6734 173.306 53.6734 172.839C53.6668 172.446 53.7568 172.103 53.9434 171.809C54.1368 171.516 54.4034 171.289 54.7434 171.129C55.0901 170.963 55.4934 170.879 55.9534 170.879C56.4068 170.879 56.8034 170.963 57.1434 171.129C57.4901 171.296 57.7601 171.529 57.9534 171.829C58.1468 172.123 58.2468 172.466 58.2534 172.859H57.1334C57.1334 172.679 57.0868 172.509 56.9934 172.349C56.9001 172.183 56.7634 172.046 56.5834 171.939C56.4034 171.833 56.1834 171.779 55.9234 171.779C55.5901 171.773 55.3134 171.856 55.0934 172.029C54.8801 172.203 54.7734 172.443 54.7734 172.749C54.7734 173.023 54.8534 173.233 55.0134 173.379C55.1734 173.526 55.3934 173.649 55.6734 173.749C55.9534 173.843 56.2734 173.953 56.6334 174.079C56.9801 174.193 57.2901 174.329 57.5634 174.489C57.8368 174.649 58.0534 174.859 58.2134 175.119C58.3801 175.379 58.4634 175.709 58.4634 176.109C58.4634 176.463 58.3734 176.793 58.1934 177.099C58.0134 177.399 57.7434 177.646 57.3834 177.839C57.0234 178.026 56.5801 178.119 56.0534 178.119ZM61.9024 178.119C61.4157 178.119 60.9824 178.013 60.6024 177.799C60.229 177.579 59.9357 177.276 59.7224 176.889C59.509 176.503 59.4024 176.053 59.4024 175.539C59.4024 175.019 59.5057 174.563 59.7124 174.169C59.9257 173.776 60.219 173.469 60.5924 173.249C60.9724 173.029 61.4124 172.919 61.9124 172.919C62.399 172.919 62.8224 173.029 63.1824 173.249C63.5424 173.463 63.8224 173.749 64.0224 174.109C64.2224 174.469 64.3224 174.866 64.3224 175.299C64.3224 175.366 64.319 175.439 64.3124 175.519C64.3124 175.593 64.309 175.676 64.3024 175.769H60.4424C60.4757 176.249 60.6324 176.616 60.9124 176.869C61.199 177.116 61.529 177.239 61.9024 177.239C62.2024 177.239 62.4524 177.173 62.6524 177.039C62.859 176.899 63.0124 176.713 63.1124 176.479H64.1724C64.039 176.946 63.7724 177.336 63.3724 177.649C62.979 177.963 62.489 178.119 61.9024 178.119ZM61.9024 173.789C61.549 173.789 61.2357 173.896 60.9624 174.109C60.689 174.316 60.5224 174.629 60.4624 175.049H63.2624C63.2424 174.663 63.1057 174.356 62.8524 174.129C62.599 173.903 62.2824 173.789 61.9024 173.789ZM67.1022 178.119C66.6822 178.119 66.3355 178.049 66.0622 177.909C65.7889 177.769 65.5855 177.586 65.4522 177.359C65.3189 177.126 65.2522 176.873 65.2522 176.599C65.2522 176.119 65.4389 175.739 65.8122 175.459C66.1855 175.179 66.7189 175.039 67.4122 175.039H68.7122V174.949C68.7122 174.563 68.6055 174.273 68.3922 174.079C68.1855 173.886 67.9155 173.789 67.5822 173.789C67.2889 173.789 67.0322 173.863 66.8122 174.009C66.5989 174.149 66.4689 174.359 66.4222 174.639H65.3622C65.3955 174.279 65.5155 173.973 65.7222 173.719C65.9355 173.459 66.2022 173.263 66.5222 173.129C66.8489 172.989 67.2055 172.919 67.5922 172.919C68.2855 172.919 68.8222 173.103 69.2022 173.469C69.5822 173.829 69.7722 174.323 69.7722 174.949V177.999H68.8522L68.7622 177.149C68.6222 177.423 68.4189 177.653 68.1522 177.839C67.8855 178.026 67.5355 178.119 67.1022 178.119ZM67.3122 177.259C67.5989 177.259 67.8389 177.193 68.0322 177.059C68.2322 176.919 68.3855 176.736 68.4922 176.509C68.6055 176.283 68.6755 176.033 68.7022 175.759H67.5222C67.1022 175.759 66.8022 175.833 66.6222 175.979C66.4489 176.126 66.3622 176.309 66.3622 176.529C66.3622 176.756 66.4455 176.936 66.6122 177.069C66.7855 177.196 67.0189 177.259 67.3122 177.259ZM71.0081 177.999V170.799H72.0681V175.089L73.9681 173.039H75.2381L73.1281 175.289L75.5481 177.999H74.2081L72.0681 175.459V177.999H71.0081ZM78.1995 178.119C77.5995 178.119 77.1261 177.933 76.7795 177.559C76.4395 177.186 76.2695 176.629 76.2695 175.889V173.039H77.3295V175.779C77.3295 176.739 77.7228 177.219 78.5095 177.219C78.9028 177.219 79.2261 177.079 79.4795 176.799C79.7328 176.519 79.8595 176.119 79.8595 175.599V173.039H80.9195V177.999H79.9795L79.8995 177.129C79.7461 177.436 79.5195 177.679 79.2195 177.859C78.9261 178.033 78.5861 178.119 78.1995 178.119ZM82.2679 177.999V173.039H83.2079L83.2879 173.909C83.4412 173.603 83.6646 173.363 83.9579 173.189C84.2579 173.009 84.6012 172.919 84.9879 172.919C85.5879 172.919 86.0579 173.106 86.3979 173.479C86.7446 173.853 86.9179 174.409 86.9179 175.149V177.999H85.8679V175.259C85.8679 174.299 85.4746 173.819 84.6879 173.819C84.2946 173.819 83.9679 173.959 83.7079 174.239C83.4546 174.519 83.3279 174.919 83.3279 175.439V177.999H82.2679ZM90.7259 177.999V170.999H91.9759L94.3459 175.659L96.7059 170.999H97.9559V177.999H96.8959V172.829L94.7559 176.999H93.9359L91.7859 172.839V177.999H90.7259ZM101.018 178.119C100.598 178.119 100.252 178.049 99.9782 177.909C99.7049 177.769 99.5015 177.586 99.3682 177.359C99.2349 177.126 99.1682 176.873 99.1682 176.599C99.1682 176.119 99.3549 175.739 99.7282 175.459C100.102 175.179 100.635 175.039 101.328 175.039H102.628V174.949C102.628 174.563 102.522 174.273 102.308 174.079C102.102 173.886 101.832 173.789 101.498 173.789C101.205 173.789 100.948 173.863 100.728 174.009C100.515 174.149 100.385 174.359 100.338 174.639H99.2782C99.3115 174.279 99.4315 173.973 99.6382 173.719C99.8515 173.459 100.118 173.263 100.438 173.129C100.765 172.989 101.122 172.919 101.508 172.919C102.202 172.919 102.738 173.103 103.118 173.469C103.498 173.829 103.688 174.323 103.688 174.949V177.999H102.768L102.678 177.149C102.538 177.423 102.335 177.653 102.068 177.839C101.802 178.026 101.452 178.119 101.018 178.119ZM101.228 177.259C101.515 177.259 101.755 177.193 101.948 177.059C102.148 176.919 102.302 176.736 102.408 176.509C102.522 176.283 102.592 176.033 102.618 175.759H101.438C101.018 175.759 100.718 175.833 100.538 175.979C100.365 176.126 100.278 176.309 100.278 176.529C100.278 176.756 100.362 176.936 100.528 177.069C100.702 177.196 100.935 177.259 101.228 177.259ZM105.524 172.099C105.324 172.099 105.157 172.039 105.024 171.919C104.897 171.793 104.834 171.636 104.834 171.449C104.834 171.263 104.897 171.109 105.024 170.989C105.157 170.863 105.324 170.799 105.524 170.799C105.724 170.799 105.887 170.863 106.014 170.989C106.147 171.109 106.214 171.263 106.214 171.449C106.214 171.636 106.147 171.793 106.014 171.919C105.887 172.039 105.724 172.099 105.524 172.099ZM104.994 177.999V173.039H106.054V177.999H104.994ZM107.453 177.999V173.039H108.393L108.473 173.909C108.627 173.603 108.85 173.363 109.143 173.189C109.443 173.009 109.787 172.919 110.173 172.919C110.773 172.919 111.243 173.106 111.583 173.479C111.93 173.853 112.103 174.409 112.103 175.149V177.999H111.053V175.259C111.053 174.299 110.66 173.819 109.873 173.819C109.48 173.819 109.153 173.959 108.893 174.239C108.64 174.519 108.513 174.919 108.513 175.439V177.999H107.453ZM115.911 177.999V170.999H118.551C119.278 170.999 119.828 171.169 120.201 171.509C120.575 171.849 120.761 172.276 120.761 172.789C120.761 173.236 120.641 173.593 120.401 173.859C120.161 174.119 119.871 174.296 119.531 174.389C119.798 174.443 120.035 174.549 120.241 174.709C120.455 174.869 120.621 175.069 120.741 175.309C120.861 175.549 120.921 175.809 120.921 176.089C120.921 176.449 120.831 176.776 120.651 177.069C120.478 177.356 120.221 177.583 119.881 177.749C119.541 177.916 119.125 177.999 118.631 177.999H115.911ZM116.971 173.999H118.421C118.828 173.999 119.138 173.906 119.351 173.719C119.565 173.526 119.671 173.263 119.671 172.929C119.671 172.603 119.565 172.343 119.351 172.149C119.145 171.956 118.828 171.859 118.401 171.859H116.971V173.999ZM116.971 177.129H118.491C118.918 177.129 119.248 177.029 119.481 176.829C119.721 176.629 119.841 176.349 119.841 175.989C119.841 175.629 119.718 175.346 119.471 175.139C119.225 174.926 118.891 174.819 118.471 174.819H116.971V177.129ZM123.723 178.119C123.303 178.119 122.957 178.049 122.683 177.909C122.41 177.769 122.207 177.586 122.073 177.359C121.94 177.126 121.873 176.873 121.873 176.599C121.873 176.119 122.06 175.739 122.433 175.459C122.807 175.179 123.34 175.039 124.033 175.039H125.333V174.949C125.333 174.563 125.227 174.273 125.013 174.079C124.807 173.886 124.537 173.789 124.203 173.789C123.91 173.789 123.653 173.863 123.433 174.009C123.22 174.149 123.09 174.359 123.043 174.639H121.983C122.017 174.279 122.137 173.973 122.343 173.719C122.557 173.459 122.823 173.263 123.143 173.129C123.47 172.989 123.827 172.919 124.213 172.919C124.907 172.919 125.443 173.103 125.823 173.469C126.203 173.829 126.393 174.323 126.393 174.949V177.999H125.473L125.383 177.149C125.243 177.423 125.04 177.653 124.773 177.839C124.507 178.026 124.157 178.119 123.723 178.119ZM123.933 177.259C124.22 177.259 124.46 177.193 124.653 177.059C124.853 176.919 125.007 176.736 125.113 176.509C125.227 176.283 125.297 176.033 125.323 175.759H124.143C123.723 175.759 123.423 175.833 123.243 175.979C123.07 176.126 122.983 176.309 122.983 176.529C122.983 176.756 123.067 176.936 123.233 177.069C123.407 177.196 123.64 177.259 123.933 177.259ZM127.629 177.999V173.039H128.579L128.669 173.979C128.843 173.653 129.083 173.396 129.389 173.209C129.703 173.016 130.079 172.919 130.519 172.919V174.029H130.229C129.936 174.029 129.673 174.079 129.439 174.179C129.213 174.273 129.029 174.436 128.889 174.669C128.756 174.896 128.689 175.213 128.689 175.619V177.999H127.629ZM133.611 178.119C133.125 178.119 132.691 178.013 132.311 177.799C131.938 177.579 131.645 177.276 131.431 176.889C131.218 176.503 131.111 176.053 131.111 175.539C131.111 175.019 131.215 174.563 131.421 174.169C131.635 173.776 131.928 173.469 132.301 173.249C132.681 173.029 133.121 172.919 133.621 172.919C134.108 172.919 134.531 173.029 134.891 173.249C135.251 173.463 135.531 173.749 135.731 174.109C135.931 174.469 136.031 174.866 136.031 175.299C136.031 175.366 136.028 175.439 136.021 175.519C136.021 175.593 136.018 175.676 136.011 175.769H132.151C132.185 176.249 132.341 176.616 132.621 176.869C132.908 177.116 133.238 177.239 133.611 177.239C133.911 177.239 134.161 177.173 134.361 177.039C134.568 176.899 134.721 176.713 134.821 176.479H135.881C135.748 176.946 135.481 177.336 135.081 177.649C134.688 177.963 134.198 178.119 133.611 178.119ZM133.611 173.789C133.258 173.789 132.945 173.896 132.671 174.109C132.398 174.316 132.231 174.629 132.171 175.049H134.971C134.951 174.663 134.815 174.356 134.561 174.129C134.308 173.903 133.991 173.789 133.611 173.789ZM137.131 177.999V173.039H138.071L138.151 173.909C138.305 173.603 138.528 173.363 138.821 173.189C139.121 173.009 139.465 172.919 139.851 172.919C140.451 172.919 140.921 173.106 141.261 173.479C141.608 173.853 141.781 174.409 141.781 175.149V177.999H140.731V175.259C140.731 174.299 140.338 173.819 139.551 173.819C139.158 173.819 138.831 173.959 138.571 174.239C138.318 174.519 138.191 174.919 138.191 175.439V177.999H137.131ZM145.06 176.479C144.8 176.479 144.56 176.449 144.34 176.389L143.91 176.809C143.983 176.856 144.073 176.896 144.18 176.929C144.286 176.963 144.436 176.993 144.63 177.019C144.823 177.046 145.086 177.073 145.42 177.099C146.08 177.159 146.556 177.319 146.85 177.579C147.143 177.833 147.29 178.173 147.29 178.599C147.29 178.893 147.21 179.169 147.05 179.429C146.896 179.696 146.653 179.909 146.32 180.069C145.993 180.236 145.573 180.319 145.06 180.319C144.366 180.319 143.803 180.186 143.37 179.919C142.943 179.659 142.73 179.263 142.73 178.729C142.73 178.523 142.783 178.316 142.89 178.109C143.003 177.909 143.18 177.719 143.42 177.539C143.28 177.479 143.156 177.416 143.05 177.349C142.95 177.276 142.86 177.203 142.78 177.129V176.889L143.64 176.009C143.253 175.676 143.06 175.239 143.06 174.699C143.06 174.373 143.136 174.076 143.29 173.809C143.45 173.536 143.68 173.319 143.98 173.159C144.28 172.999 144.64 172.919 145.06 172.919C145.34 172.919 145.6 172.959 145.84 173.039H147.69V173.739L146.81 173.789C146.97 174.063 147.05 174.366 147.05 174.699C147.05 175.033 146.97 175.333 146.81 175.599C146.656 175.866 146.43 176.079 146.13 176.239C145.836 176.399 145.48 176.479 145.06 176.479ZM145.06 175.649C145.366 175.649 145.613 175.569 145.8 175.409C145.993 175.243 146.09 175.009 146.09 174.709C146.09 174.403 145.993 174.169 145.8 174.009C145.613 173.849 145.366 173.769 145.06 173.769C144.746 173.769 144.493 173.849 144.3 174.009C144.113 174.169 144.02 174.403 144.02 174.709C144.02 175.009 144.113 175.243 144.3 175.409C144.493 175.569 144.746 175.649 145.06 175.649ZM143.73 178.629C143.73 178.916 143.856 179.129 144.11 179.269C144.363 179.416 144.68 179.489 145.06 179.489C145.426 179.489 145.723 179.409 145.95 179.249C146.176 179.096 146.29 178.889 146.29 178.629C146.29 178.436 146.213 178.269 146.06 178.129C145.906 177.996 145.616 177.913 145.19 177.879C144.87 177.859 144.586 177.829 144.34 177.789C144.106 177.916 143.946 178.053 143.86 178.199C143.773 178.346 143.73 178.489 143.73 178.629ZM148.315 179.449V179.349C148.915 178.729 149.398 178.019 149.765 177.219C150.132 176.419 150.315 175.569 150.315 174.669C150.315 173.769 150.132 172.919 149.765 172.119C149.405 171.319 148.925 170.609 148.325 169.989V169.889H149.385C149.752 170.249 150.085 170.673 150.385 171.159C150.685 171.639 150.922 172.176 151.095 172.769C151.275 173.356 151.365 173.989 151.365 174.669C151.365 175.349 151.275 175.986 151.095 176.579C150.922 177.166 150.685 177.699 150.385 178.179C150.085 178.666 149.752 179.089 149.385 179.449H148.315Z" fill="#317A6C"/>
<path fill-rule="evenodd" clip-rule="evenodd" d="M44.7348 132.574L155.942 132.721C156.391 132.721 156.779 132.886 157.09 133.21C157.402 133.535 157.552 133.928 157.535 134.377C156.776 154.759 156.02 175.142 155.254 195.523C155.221 196.379 154.521 197.056 153.665 197.06C117.922 197.224 82.1776 197.391 46.4344 197.538C45.5683 197.542 44.8555 196.851 44.8318 195.985C44.2646 175.395 43.6994 154.805 43.1367 134.215C43.1245 133.767 43.2765 133.377 43.5889 133.056C43.9012 132.735 44.287 132.573 44.7348 132.574ZM154.966 133.659L45.7005 133.514C45.2528 133.513 44.867 133.675 44.5546 133.996C44.2423 134.317 44.0896 134.706 44.1024 135.154L45.7459 195.041C45.7695 195.907 46.4823 196.598 47.3491 196.593L152.76 196.124C153.616 196.12 154.316 195.442 154.348 194.587L156.56 135.315C156.577 134.865 156.427 134.473 156.115 134.149C155.803 133.824 155.416 133.659 154.966 133.659Z" fill="white"/>
<path fill-rule="evenodd" clip-rule="evenodd" d="M158.364 61.7296C158.364 61.7296 137.227 86.0575 134.642 125.301C134.642 125.301 129.866 91.1056 158.364 61.7296Z" fill="white"/>
<path fill-rule="evenodd" clip-rule="evenodd" d="M145.74 109.574C145.74 109.574 151.271 91.3744 163.746 80.9684C163.746 80.9684 149.576 87.4201 145.74 109.574Z" fill="white"/>
<path fill-rule="evenodd" clip-rule="evenodd" d="M58.7861 83.8731C58.7861 83.8731 50.6727 58.4435 41.521 42.0017C41.2404 42.6179 53.0825 55.7121 58.7861 83.8731Z" fill="white"/>
<path fill-rule="evenodd" clip-rule="evenodd" d="M18.7262 57.9227C18.7262 57.9227 26.728 62.9652 32.647 73.2685C32.647 73.2685 32.647 64.0607 18.7262 57.9227Z" fill="white"/>
<path fill-rule="evenodd" clip-rule="evenodd" d="M42.5146 50.9065C42.5146 50.9065 44.9262 54.7429 46.2417 61.2098C46.2417 61.2098 48.1666 55.6689 42.5146 50.9065Z" fill="white"/>
<path fill-rule="evenodd" clip-rule="evenodd" d="M125.93 61.9921C125.462 61.6796 128.769 35.2639 135.791 21.4216C135.791 21.4216 125.173 36.9711 125.93 61.9921Z" fill="white"/>
<path fill-rule="evenodd" clip-rule="evenodd" d="M145.421 57.1431C145.421 57.1431 152.013 47.7837 155.92 43.5516C155.92 43.5516 149.409 48.1912 145.421 57.1431Z" fill="white"/>
<path fill-rule="evenodd" clip-rule="evenodd" d="M28.4359 98.4991C30.7302 98.4991 32.6013 96.628 32.6013 94.3338C32.6013 92.0395 30.7302 90.1685 28.4359 90.1685C26.1417 90.1685 24.2706 92.0395 24.2706 94.3338C24.2706 96.628 26.1423 98.4991 28.4359 98.4991Z" fill="white"/>
<path fill-rule="evenodd" clip-rule="evenodd" d="M12.4319 81.8381C13.3977 81.8381 14.1857 81.0501 14.1857 80.0843C14.1857 79.1184 13.3977 78.3305 12.4319 78.3305C11.466 78.3305 10.6781 79.1184 10.6781 80.0843C10.6781 81.0501 11.4655 81.8381 12.4319 81.8381Z" fill="white"/>
<path fill-rule="evenodd" clip-rule="evenodd" d="M201.185 34.0476C201.789 34.0476 202.281 33.5554 202.281 32.9516C202.281 32.3477 201.789 31.8555 201.185 31.8555C200.581 31.8555 200.089 32.3477 200.089 32.9516C200.089 33.5554 200.581 34.0476 201.185 34.0476Z" fill="white"/>
<path fill-rule="evenodd" clip-rule="evenodd" d="M74.033 84.0301C74.8781 84.0301 75.5673 83.3409 75.5673 82.4957C75.5673 81.6505 74.8781 80.9608 74.033 80.9608C73.1878 80.9608 72.498 81.65 72.498 82.4957C72.4986 83.3409 73.1878 84.0301 74.033 84.0301Z" fill="white"/>
<path fill-rule="evenodd" clip-rule="evenodd" d="M100.778 4.67203C101.865 4.67203 102.751 3.78587 102.751 2.6988C102.751 1.61174 101.865 0.725586 100.778 0.725586C99.6915 0.725586 98.8053 1.61174 98.8053 2.6988C98.8053 3.78587 99.6915 4.67203 100.778 4.67203Z" fill="#E1763B"/>
<path fill-rule="evenodd" clip-rule="evenodd" d="M178.82 120.423C180.631 120.423 182.108 118.946 182.108 117.135C182.108 115.324 180.631 113.846 178.82 113.846C177.009 113.846 175.531 115.324 175.531 117.135C175.531 118.946 177.009 120.423 178.82 120.423Z" fill="#E1763B"/>
<path fill-rule="evenodd" clip-rule="evenodd" d="M219.063 40.0004C219.075 40.0318 223.131 50.6898 214.267 52.008C214.122 52.3038 213.96 52.5945 213.781 52.8774C212.609 54.7266 210.7 56.2648 208.148 56.775L207.578 54.1367C209.576 53.7371 211.335 53.5682 212.292 52.1304C209.884 52.0574 208.357 51.1017 207.547 49.8592C207.015 49.0415 206.799 48.1048 206.851 47.2069C206.903 46.3045 207.226 45.4335 207.765 44.7538C208.645 43.6443 210.073 43.0298 211.836 43.5512C213.138 43.9361 214.044 44.7662 214.579 45.8448C215.075 46.8466 215.236 48.0521 215.086 49.2918C215.051 49.5825 214.998 49.876 214.928 50.1701C220.527 48.4994 216.676 41.1217 216.667 41.097L219.063 40.0004ZM208.932 48.959C209.548 49.9052 210.871 50.5966 213.12 50.4664C213.278 50.0101 213.386 49.5488 213.441 49.0976C213.554 48.1643 213.445 47.281 213.096 46.5761C212.761 45.9009 212.192 45.3796 211.371 45.1371C210.353 44.8363 209.546 45.1702 209.06 45.7831C208.731 46.1973 208.534 46.7349 208.502 47.2978C208.469 47.8646 208.602 48.4517 208.932 48.959Z" fill="#734247"/>
<path fill-rule="evenodd" clip-rule="evenodd" d="M14.3238 1.48181C14.312 1.51324 10.2555 12.1712 19.1199 13.4895C19.2647 13.7852 19.4269 14.076 19.6059 14.3588C20.7777 16.208 22.6869 17.7463 25.2388 18.2564L25.8089 15.6182C23.811 15.2186 22.0516 15.0497 21.0948 13.6118C23.5029 13.5383 25.03 12.5831 25.8398 11.3406C26.373 10.5229 26.5879 9.58627 26.5357 8.68833C26.4835 7.7859 26.1619 6.9149 25.6221 6.23527C24.7415 5.12576 23.3138 4.51123 21.5505 5.0326C20.2485 5.41759 19.3427 6.24818 18.8084 7.32627C18.3123 8.32803 18.1507 9.53351 18.3011 10.7732C18.3364 11.0645 18.3892 11.358 18.4588 11.6515C12.8596 9.9808 16.7112 2.60311 16.7201 2.57842L14.3238 1.48181ZM24.4547 10.441C23.8385 11.3866 22.5163 12.0786 20.267 11.9484C20.1087 11.4921 20.001 11.0308 19.946 10.5796C19.8326 9.64631 19.942 8.76297 20.2911 8.05809C20.6256 7.38295 21.1952 6.86158 22.0168 6.61914C23.0343 6.31833 23.8413 6.65225 24.3279 7.26509C24.6568 7.67927 24.8532 8.21691 24.8858 8.7798C24.9183 9.34663 24.7853 9.93366 24.4547 10.441Z" fill="#E1763B"/>
<path fill-rule="evenodd" clip-rule="evenodd" d="M7.86169 93.4933L9.86578 97.6676C9.86578 97.6676 7.01595 99.5308 3.94668 99.5308C0.87742 99.5308 0.000244141 97.9964 0.000244141 97.9964L0.955989 94.2605C3.33665 95.7252 5.07865 94.6314 7.86169 93.4933Z" fill="#E1763B"/>
<path fill-rule="evenodd" clip-rule="evenodd" d="M176.23 11.5988L178.843 15.4212C178.843 15.4212 181.882 13.8852 183.416 11.2273C184.951 8.56936 184.061 7.04287 184.061 7.04287L180.347 6.00238C180.426 8.79553 178.608 9.75801 176.23 11.5988Z" fill="white"/>
<path fill-rule="evenodd" clip-rule="evenodd" d="M193.624 107.834L193.976 112.452C193.976 112.452 197.376 112.641 200.034 111.106C202.692 109.571 202.684 107.804 202.684 107.804L199.988 105.046C198.66 107.504 196.604 107.429 193.624 107.834Z" fill="white"/>
<path fill-rule="evenodd" clip-rule="evenodd" d="M119.236 11.4853L115.378 8.97898C116.315 7.27177 117.074 5.99389 118.597 5.06116L122.581 7.40366C121.525 8.47838 120.356 9.85783 119.236 11.4853Z" fill="#8E4B4B"/>
</svg>
