<svg width="24" height="25" viewBox="0 0 24 25" fill="none" xmlns="http://www.w3.org/2000/svg">
<path d="M6.53334 12.8078H17.4667V14.8611H18.5333V11.7411H12.5333V9.60779H11.4667V11.7411H5.46667V14.8611H6.53334V12.8078Z" fill="#58A596"/>
<path d="M9.33337 15.6078H2.66671C1.93033 15.6078 1.33337 16.2047 1.33337 16.9411V20.9411C1.33337 21.6775 1.93033 22.2745 2.66671 22.2745H9.33337C10.0698 22.2745 10.6667 21.6775 10.6667 20.9411V16.9411C10.6667 16.2047 10.0698 15.6078 9.33337 15.6078Z" fill="#58A596"/>
<path d="M21.3334 15.6078H14.6667C13.9303 15.6078 13.3334 16.2047 13.3334 16.9411V20.9411C13.3334 21.6775 13.9303 22.2745 14.6667 22.2745H21.3334C22.0698 22.2745 22.6667 21.6775 22.6667 20.9411V16.9411C22.6667 16.2047 22.0698 15.6078 21.3334 15.6078Z" fill="#58A596"/>
<path d="M15.3334 2.27441H8.66671C7.93033 2.27441 7.33337 2.87137 7.33337 3.60775V7.60775C7.33337 8.34413 7.93033 8.94108 8.66671 8.94108H15.3334C16.0698 8.94108 16.6667 8.34413 16.6667 7.60775V3.60775C16.6667 2.87137 16.0698 2.27441 15.3334 2.27441Z" fill="#58A596"/>
</svg>
