<svg width="22" height="26" viewBox="0 0 22 26" fill="none" xmlns="http://www.w3.org/2000/svg">
<path d="M10.9998 24.4972C10.9998 24.4972 20.3332 17.4972 20.3332 9.91382C20.3332 5.08148 16.1548 1.16382 10.9998 1.16382C5.84492 1.16382 1.6665 5.08148 1.6665 9.91382C1.6665 17.4972 10.9998 24.4972 10.9998 24.4972Z" stroke="#00BA88" stroke-width="2" stroke-linejoin="round"/>
<path d="M9.25 6.99707V16.3304" stroke="#00BA88" stroke-width="2" stroke-linecap="round" stroke-linejoin="round"/>
<path d="M9.25 6.99707H12.75C13.3688 6.99707 13.9623 7.2429 14.3999 7.68049C14.8375 8.11807 15.0833 8.71156 15.0833 9.3304C15.0833 9.94924 14.8375 10.5427 14.3999 10.9803C13.9623 11.4179 13.3688 11.6637 12.75 11.6637H9.25V6.99707Z" stroke="#00BA88" stroke-width="2" stroke-linejoin="round"/>
</svg>
