<svg width="28" height="29" viewBox="0 0 28 29" fill="none" xmlns="http://www.w3.org/2000/svg">
<path d="M21.4375 0.415283H6.5625C2.93813 0.415283 0 3.35341 0 6.97778V21.8528C0 25.4772 2.93813 28.4153 6.5625 28.4153H21.4375C25.0619 28.4153 28 25.4772 28 21.8528V6.97778C28 3.35341 25.0619 0.415283 21.4375 0.415283Z" fill="white"/>
<path d="M21.4375 0.415283H6.5625C2.93813 0.415283 0 3.35341 0 6.97778V21.8528C0 25.4772 2.93813 28.4153 6.5625 28.4153H21.4375C25.0619 28.4153 28 25.4772 28 21.8528V6.97778C28 3.35341 25.0619 0.415283 21.4375 0.415283Z" fill="#1D9BF0"/>
<path d="M21.8282 10.4134C21.8402 10.5869 21.8402 10.7605 21.8402 10.9357C21.8402 16.2729 17.7772 22.4283 10.3476 22.4283V22.425C8.15283 22.4282 6.00349 21.7996 4.15625 20.6143C4.47541 20.6527 4.79609 20.6719 5.11766 20.6726C6.93674 20.674 8.7035 20.0639 10.134 18.9402C9.29118 18.9243 8.47438 18.6454 7.79783 18.1425C7.12127 17.6396 6.61877 16.9378 6.36059 16.1353C6.96574 16.252 7.5896 16.2282 8.18409 16.0657C6.29978 15.685 4.94408 14.0294 4.94408 12.1066V12.0554C5.50582 12.3683 6.13449 12.5417 6.7772 12.5609C5.00248 11.3748 4.45539 9.01368 5.52705 7.16765C6.5411 8.41551 7.8063 9.43609 9.24049 10.1631C10.6747 10.8901 12.2458 11.3073 13.8517 11.3876C13.6916 10.6983 13.7152 9.97912 13.9203 9.30189C14.1253 8.62466 14.5046 8.01314 15.0201 7.52848C16.647 5.9992 19.2056 6.07762 20.7349 7.70359C21.6394 7.52501 22.5068 7.1934 23.2998 6.72304C22.9983 7.65827 22.3673 8.45212 21.5242 8.95692C22.3249 8.86258 23.1069 8.64825 23.8438 8.32112C23.3017 9.1329 22.6191 9.84134 21.8282 10.4134Z" fill="white"/>
</svg>
