<svg width="38" height="31" viewBox="0 0 38 31" fill="none" xmlns="http://www.w3.org/2000/svg">
<rect x="10.6567" y="2.15015" width="25.1011" height="25.1011" rx="12.5506" fill="#5DE11D"/>
<path d="M14.4178 2.3773C13.9798 2.48914 13.4393 2.65379 13.1131 2.98309C12.7154 3.38383 12.5694 3.99583 12.4421 4.60472C12.4296 4.66374 12.3489 4.66374 12.3364 4.60472C12.2308 4.11699 12.0972 3.52984 11.8145 3.16637C11.4542 2.7066 10.9012 2.5171 10.3544 2.3773C10.2985 2.36177 10.2985 2.28411 10.3544 2.27168C10.8297 2.15053 11.3765 1.98898 11.7182 1.61309C12.0724 1.22166 12.2153 0.609665 12.3364 0.0442687C12.3489 -0.0147562 12.4296 -0.0147562 12.4421 0.0442687C12.5539 0.575493 12.7496 1.18127 13.0696 1.56028C13.4206 1.97345 13.9146 2.14121 14.4178 2.27168C14.4769 2.28411 14.4769 2.36488 14.4178 2.3773Z" fill="#89D918"/>
<path d="M5.86987 13.2907C5.24234 13.4523 4.46881 13.6853 4.00282 14.1544C3.43432 14.7291 3.22618 15.602 3.04289 16.4719C3.02425 16.5557 2.90931 16.5557 2.89067 16.4719C2.74155 15.7729 2.54894 14.9372 2.14509 14.4184C1.6325 13.7598 0.840328 13.4895 0.0605782 13.2907C-0.0201927 13.269 -0.0201927 13.1571 0.0605782 13.1385C0.740918 12.9645 1.52067 12.7315 2.0084 12.1972C2.51477 11.638 2.7198 10.7651 2.89377 9.95427C2.91241 9.87039 3.02736 9.87039 3.04599 9.95427C3.20754 10.7154 3.48402 11.579 3.94379 12.1195C4.44395 12.7067 5.14914 12.949 5.87298 13.1354C5.95064 13.1602 5.95064 13.269 5.86987 13.2907Z" fill="#89D918"/>
<path d="M37.978 6.98641C37.7668 7.04233 37.5027 7.11999 37.3443 7.27843C37.1517 7.47414 37.0802 7.76927 37.0181 8.06439C37.0119 8.09235 36.9715 8.09235 36.9684 8.06439C36.9187 7.82829 36.8534 7.54249 36.7136 7.36852C36.5397 7.14485 36.2694 7.05165 36.0053 6.98641C35.9774 6.9802 35.9774 6.94292 36.0053 6.9336C36.2352 6.87458 36.5024 6.79691 36.667 6.61362C36.8379 6.42412 36.9094 6.12589 36.9684 5.85251C36.9746 5.82455 37.015 5.82455 37.0181 5.85251C37.074 6.11036 37.1672 6.40238 37.3225 6.58877C37.4934 6.78759 37.7326 6.87147 37.978 6.9336C38.006 6.94292 38.006 6.9802 37.978 6.98641Z" fill="#89D918"/>
<path d="M37.7114 25.6019C37.5002 25.6578 37.2361 25.7355 37.0777 25.8939C36.8851 26.0896 36.8136 26.3847 36.7515 26.6799C36.7453 26.7078 36.7049 26.7078 36.7018 26.6799C36.6521 26.4438 36.5868 26.158 36.447 25.984C36.2731 25.7603 36.0028 25.6671 35.7387 25.6019C35.7108 25.5957 35.7108 25.5584 35.7387 25.5491C35.9686 25.4901 36.2358 25.4124 36.4004 25.2291C36.5713 25.0396 36.6428 24.7414 36.7018 24.468C36.708 24.44 36.7484 24.44 36.7515 24.468C36.8074 24.7258 36.9006 25.0179 37.0559 25.2042C37.2268 25.4031 37.466 25.4869 37.7114 25.5491C37.7394 25.5584 37.7394 25.5957 37.7114 25.6019Z" fill="#89D918"/>
<path d="M13.6484 29.7318C13.4372 29.7877 13.1731 29.8654 13.0147 30.0238C12.8221 30.2195 12.7506 30.5146 12.6885 30.8098C12.6823 30.8377 12.6419 30.8377 12.6388 30.8098C12.5891 30.5737 12.5238 30.2878 12.3841 30.1139C12.2101 29.8902 11.9398 29.797 11.6758 29.7318C11.6478 29.7256 11.6478 29.6883 11.6758 29.679C11.9056 29.6199 12.1728 29.5423 12.3375 29.359C12.5083 29.1695 12.5798 28.8713 12.6388 28.5979C12.645 28.5699 12.6854 28.5699 12.6885 28.5979C12.7444 28.8557 12.8376 29.1477 12.9929 29.3341C13.1638 29.533 13.403 29.6168 13.6484 29.679C13.6764 29.6883 13.6764 29.7256 13.6484 29.7318Z" fill="#89D918"/>
<path d="M23.2169 27.3269C16.2924 27.3269 10.6602 21.6947 10.6602 14.7701C10.6602 7.8456 16.2924 2.21338 23.2169 2.21338C30.1415 2.21338 35.7737 7.8456 35.7737 14.7701C35.7737 21.6947 30.1415 27.3269 23.2169 27.3269ZM23.2169 3.04594C16.7521 3.04594 11.4927 8.30537 11.4927 14.7701C11.4927 21.2349 16.7521 26.4944 23.2169 26.4944C29.6817 26.4944 34.9411 21.2349 34.9411 14.7701C34.9411 8.30537 29.6817 3.04594 23.2169 3.04594Z" fill="#49C00F"/>
<path d="M29.8326 8.68425C29.1088 7.94489 27.5865 7.8082 26.8814 8.68425C25.6667 10.1909 24.4551 11.6976 23.2405 13.2043C22.6626 13.9219 22.0848 14.6396 21.507 15.3572C21.302 15.6119 21.0565 15.994 20.7925 16.3482C20.7397 16.2954 20.6868 16.2425 20.6371 16.1866C20.2457 15.7828 19.8512 15.3789 19.4598 14.9782C17.5834 13.049 14.6352 16.0033 16.5085 17.9294C17.4778 18.9235 18.4656 20.3153 19.7766 20.8403C21.215 21.415 22.4918 20.7222 23.4175 19.6008C25.5859 16.9695 27.6953 14.2916 29.8326 11.6386C30.544 10.7532 30.6807 9.55099 29.8326 8.68425Z" fill="white"/>
<path d="M26.7987 3.71584C24.0524 2.54156 16.5004 2.25575 12.6606 9.7457C16.2705 5.40892 20.1817 3.2219 26.7987 3.71584Z" fill="#88F255"/>
<path d="M20.6968 26.1621C27.0746 25.7023 31.489 21.9682 34.5397 17.4668C34.0457 20.272 32.1507 22.8505 29.8518 24.4348C27.553 26.0192 23.9866 26.9853 20.6626 26.1621" fill="#53DA11"/>
</svg>
