<svg width="20" height="20" viewBox="0 0 20 20" fill="none" xmlns="http://www.w3.org/2000/svg">
<path fill-rule="evenodd" clip-rule="evenodd" d="M6.00592 4.82741C5.68048 4.50197 5.15284 4.50197 4.82741 4.82741C4.50197 5.15284 4.50197 5.68048 4.82741 6.00592L8.82148 9.99999L4.82741 13.9941C4.50197 14.3195 4.50197 14.8471 4.82741 15.1726C5.15284 15.498 5.68048 15.498 6.00592 15.1726L9.99999 11.1785L13.9941 15.1726C14.3195 15.498 14.8471 15.498 15.1726 15.1726C15.498 14.8471 15.498 14.3195 15.1726 13.9941L11.1785 9.99999L15.1726 6.00592C15.498 5.68048 15.498 5.15284 15.1726 4.82741C14.8471 4.50197 14.3195 4.50197 13.9941 4.82741L9.99999 8.82148L6.00592 4.82741Z" fill="white"/>
</svg>
