<svg width="23" height="22" viewBox="0 0 23 22" fill="none" xmlns="http://www.w3.org/2000/svg">
<path d="M5.08333 11H3.25L11.5 2.75L19.75 11H17.9167M5.08333 11V17.4167C5.08333 17.9029 5.27649 18.3692 5.6203 18.713C5.96412 19.0568 6.43044 19.25 6.91667 19.25H16.0833C16.5696 19.25 17.0359 19.0568 17.3797 18.713C17.7235 18.3692 17.9167 17.9029 17.9167 17.4167V11" stroke="#2D2D2D" stroke-width="1.5" stroke-linecap="round" stroke-linejoin="round"/>
<path d="M8.75 19.2498V13.7498C8.75 13.2636 8.94315 12.7973 9.28697 12.4535C9.63079 12.1097 10.0971 11.9165 10.5833 11.9165H12.4167C12.9029 11.9165 13.3692 12.1097 13.713 12.4535C14.0568 12.7973 14.25 13.2636 14.25 13.7498V19.2498" stroke="#2D2D2D" stroke-width="1.5" stroke-linecap="round" stroke-linejoin="round"/>
</svg>
