<svg width="24" height="25" viewBox="0 0 24 25" fill="none" xmlns="http://www.w3.org/2000/svg">
<path d="M12 14.3306C11.2583 14.3306 10.5333 14.1106 9.91661 13.6986C9.29993 13.2865 8.81928 12.7009 8.53545 12.0156C8.25162 11.3304 8.17736 10.5764 8.32206 9.84898C8.46675 9.12155 8.8239 8.45336 9.34835 7.92892C9.8728 7.40447 10.541 7.04732 11.2684 6.90262C11.9958 6.75793 12.7498 6.83219 13.4351 7.11602C14.1203 7.39985 14.706 7.8805 15.118 8.49718C15.5301 9.11386 15.75 9.83889 15.75 10.5806C15.7488 11.5748 15.3533 12.5279 14.6503 13.2309C13.9473 13.9339 12.9942 14.3294 12 14.3306ZM12 8.33057C11.555 8.33057 11.12 8.46253 10.75 8.70976C10.38 8.957 10.0916 9.3084 9.92127 9.71953C9.75098 10.1307 9.70642 10.5831 9.79323 11.0195C9.88005 11.456 10.0943 11.8569 10.409 12.1716C10.7237 12.4862 11.1246 12.7005 11.561 12.7873C11.9975 12.8742 12.4499 12.8296 12.861 12.6593C13.2722 12.489 13.6236 12.2006 13.8708 11.8306C14.118 11.4606 14.25 11.0256 14.25 10.5806C14.2494 9.98401 14.0122 9.41206 13.5903 8.99024C13.1685 8.56841 12.5966 8.33116 12 8.33057Z" fill="#08A081"/>
<path d="M12 23.3306L5.67301 15.8688C5.58509 15.7568 5.49809 15.644 5.41201 15.5306C4.33124 14.1069 3.74739 12.368 3.75001 10.5806C3.75001 8.39253 4.6192 6.29411 6.16638 4.74694C7.71355 3.19976 9.81197 2.33057 12 2.33057C14.188 2.33057 16.2865 3.19976 17.8336 4.74694C19.3808 6.29411 20.25 8.39253 20.25 10.5806C20.2526 12.3672 19.669 14.1053 18.5888 15.5283L18.588 15.5306C18.588 15.5306 18.363 15.8261 18.3293 15.8658L12 23.3306ZM6.60976 14.6268C6.60976 14.6268 6.78451 14.8578 6.82426 14.9073L12 21.0116L17.1825 14.8991C17.2155 14.8578 17.391 14.6253 17.3918 14.6246C18.2746 13.4614 18.7517 12.0408 18.75 10.5806C18.75 8.79036 18.0388 7.07347 16.773 5.8076C15.5071 4.54172 13.7902 3.83057 12 3.83057C10.2098 3.83057 8.49291 4.54172 7.22704 5.8076C5.96117 7.07347 5.25001 8.79036 5.25001 10.5806C5.24844 12.0417 5.72609 13.4631 6.60976 14.6268Z" fill="#08A081"/>
</svg>
