<svg width="20" height="20" viewBox="0 0 20 20" fill="none" xmlns="http://www.w3.org/2000/svg">
<path d="M9.95835 15C10.25 15 10.4967 14.8992 10.6984 14.6975C10.9 14.4958 11.0006 14.2494 11 13.9583C11 13.6667 10.8995 13.42 10.6984 13.2183C10.4972 13.0167 10.2506 12.9161 9.95835 12.9167C9.66669 12.9167 9.4203 13.0175 9.21919 13.2192C9.01808 13.4208 8.91724 13.6672 8.91669 13.9583C8.91669 14.25 9.01752 14.4967 9.21919 14.6983C9.42085 14.9 9.66724 15.0006 9.95835 15ZM9.20835 11.7917H10.75C10.75 11.3333 10.8022 10.9722 10.9067 10.7083C11.0111 10.4444 11.3061 10.0833 11.7917 9.625C12.1528 9.26389 12.4375 8.92 12.6459 8.59334C12.8542 8.26667 12.9584 7.87445 12.9584 7.41667C12.9584 6.63889 12.6736 6.04167 12.1042 5.625C11.5347 5.20833 10.8611 5 10.0834 5C9.29169 5 8.64919 5.20833 8.15585 5.625C7.66252 6.04167 7.31891 6.54167 7.12502 7.125L8.50002 7.66667C8.56947 7.41667 8.72585 7.14584 8.96919 6.85417C9.21252 6.5625 9.58391 6.41667 10.0834 6.41667C10.5278 6.41667 10.8611 6.53833 11.0834 6.78167C11.3056 7.025 11.4167 7.29222 11.4167 7.58334C11.4167 7.86111 11.3334 8.12167 11.1667 8.365C11 8.60834 10.7917 8.83389 10.5417 9.04167C9.93058 9.58334 9.55558 9.99306 9.41669 10.2708C9.2778 10.5486 9.20835 11.0556 9.20835 11.7917ZM10 18.3333C8.84724 18.3333 7.76391 18.1144 6.75002 17.6767C5.73613 17.2389 4.85419 16.6453 4.10419 15.8958C3.35419 15.1458 2.76058 14.2639 2.32335 13.25C1.88613 12.2361 1.66724 11.1528 1.66669 10C1.66669 8.84722 1.88558 7.76389 2.32335 6.75C2.76113 5.73611 3.35474 4.85417 4.10419 4.10417C4.85419 3.35417 5.73613 2.76056 6.75002 2.32333C7.76391 1.88611 8.84724 1.66722 10 1.66667C11.1528 1.66667 12.2361 1.88556 13.25 2.32333C14.2639 2.76111 15.1459 3.35472 15.8959 4.10417C16.6459 4.85417 17.2397 5.73611 17.6775 6.75C18.1153 7.76389 18.3339 8.84722 18.3334 10C18.3334 11.1528 18.1145 12.2361 17.6767 13.25C17.2389 14.2639 16.6453 15.1458 15.8959 15.8958C15.1459 16.6458 14.2639 17.2397 13.25 17.6775C12.2361 18.1153 11.1528 18.3339 10 18.3333ZM10 16.6667C11.8611 16.6667 13.4375 16.0208 14.7292 14.7292C16.0209 13.4375 16.6667 11.8611 16.6667 10C16.6667 8.13889 16.0209 6.5625 14.7292 5.27083C13.4375 3.97917 11.8611 3.33333 10 3.33333C8.13891 3.33333 6.56252 3.97917 5.27085 5.27083C3.97919 6.5625 3.33335 8.13889 3.33335 10C3.33335 11.8611 3.97919 13.4375 5.27085 14.7292C6.56252 16.0208 8.13891 16.6667 10 16.6667Z" fill="#4BAC99"/>
</svg>
