<svg width="20" height="21" viewBox="0 0 20 21" fill="none" xmlns="http://www.w3.org/2000/svg">
<path d="M10 14.25C10.9946 14.25 11.9484 13.8549 12.6517 13.1517C13.3549 12.4484 13.75 11.4946 13.75 10.5C13.75 9.50544 13.3549 8.55161 12.6517 7.84835C11.9484 7.14509 10.9946 6.75 10 6.75C9.00544 6.75 8.05161 7.14509 7.34835 7.84835C6.64509 8.55161 6.25 9.50544 6.25 10.5C6.25 11.4946 6.64509 12.4484 7.34835 13.1517C8.05161 13.8549 9.00544 14.25 10 14.25ZM10 3C9.01509 3 8.03982 3.19399 7.12987 3.5709C6.21993 3.94781 5.39314 4.50026 4.6967 5.1967C4.00026 5.89314 3.44781 6.71993 3.0709 7.62987C2.69399 8.53982 2.5 9.51509 2.5 10.5C2.5 11.4849 2.69399 12.4602 3.0709 13.3701C3.44781 14.2801 4.00026 15.1069 4.6967 15.8033C5.39314 16.4997 6.21993 17.0522 7.12987 17.4291C8.03982 17.806 9.01509 18 10 18C11.9891 18 13.8968 17.2098 15.3033 15.8033C16.7098 14.3968 17.5 12.4891 17.5 10.5C17.5 8.51088 16.7098 6.60322 15.3033 5.1967C13.8968 3.79018 11.9891 3 10 3ZM3.75 10.5C3.75 8.8424 4.40848 7.25269 5.58058 6.08058C6.75269 4.90848 8.3424 4.25 10 4.25C11.6576 4.25 13.2473 4.90848 14.4194 6.08058C15.5915 7.25269 16.25 8.8424 16.25 10.5C16.25 12.1576 15.5915 13.7473 14.4194 14.9194C13.2473 16.0915 11.6576 16.75 10 16.75C8.3424 16.75 6.75269 16.0915 5.58058 14.9194C4.40848 13.7473 3.75 12.1576 3.75 10.5Z" fill="#08A081"/>
</svg>
