<svg width="354" height="129" viewBox="0 0 354 129" fill="none" xmlns="http://www.w3.org/2000/svg">
<path d="M0 10C0 4.47715 4.47715 0 10 0H354V129H10C4.47716 129 0 124.523 0 119V10Z" fill="url(#paint0_linear)"/>
<path d="M0 10C0 4.47715 4.47715 0 10 0H354V129H10C4.47716 129 0 124.523 0 119V10Z" fill="url(#paint1_linear)"/>
<path d="M42.16 39.192C41.0293 39.192 40.0587 38.952 39.248 38.472C38.4373 37.9813 37.8133 37.304 37.376 36.44C36.9387 35.5653 36.72 34.5573 36.72 33.416C36.72 32.2747 36.9387 31.2667 37.376 30.392C37.8133 29.5173 38.4373 28.8347 39.248 28.344C40.0587 27.8533 41.0293 27.608 42.16 27.608C43.504 27.608 44.6027 27.944 45.456 28.616C46.32 29.2773 46.8587 30.2107 47.072 31.416H44.816C44.6773 30.808 44.3787 30.3333 43.92 29.992C43.472 29.64 42.8747 29.464 42.128 29.464C41.0933 29.464 40.2827 29.816 39.696 30.52C39.1093 31.224 38.816 32.1893 38.816 33.416C38.816 34.6427 39.1093 35.608 39.696 36.312C40.2827 37.0053 41.0933 37.352 42.128 37.352C42.8747 37.352 43.472 37.192 43.92 36.872C44.3787 36.5413 44.6773 36.088 44.816 35.512H47.072C46.8587 36.664 46.32 37.5653 45.456 38.216C44.6027 38.8667 43.504 39.192 42.16 39.192ZM50.0243 39L54.1203 27.8H56.4243L60.5203 39H58.3443L57.4483 36.408H53.0803L52.1683 39H50.0243ZM53.6403 34.808H56.8883L55.2563 30.152L53.6403 34.808ZM67.787 39.192C66.9657 39.192 66.2403 39.0533 65.611 38.776C64.9817 38.488 64.4857 38.0827 64.123 37.56C63.7603 37.0267 63.5737 36.3813 63.563 35.624H65.723C65.7443 36.1467 65.931 36.5893 66.283 36.952C66.6457 37.304 67.1417 37.48 67.771 37.48C68.315 37.48 68.747 37.352 69.067 37.096C69.387 36.8293 69.547 36.4773 69.547 36.04C69.547 35.5813 69.403 35.224 69.115 34.968C68.8377 34.712 68.4643 34.504 67.995 34.344C67.5257 34.184 67.0243 34.0133 66.491 33.832C65.627 33.5333 64.9657 33.1493 64.507 32.68C64.059 32.2107 63.835 31.5867 63.835 30.808C63.8243 30.1467 63.979 29.5813 64.299 29.112C64.6297 28.632 65.0777 28.264 65.643 28.008C66.2083 27.7413 66.859 27.608 67.595 27.608C68.3417 27.608 68.9977 27.7413 69.563 28.008C70.139 28.2747 70.587 28.648 70.907 29.128C71.2377 29.608 71.4137 30.1787 71.435 30.84H69.243C69.2323 30.4453 69.0777 30.0987 68.779 29.8C68.491 29.4907 68.0857 29.336 67.563 29.336C67.115 29.3253 66.7363 29.4373 66.427 29.672C66.1283 29.896 65.979 30.2267 65.979 30.664C65.979 31.0373 66.0963 31.336 66.331 31.56C66.5657 31.7733 66.8857 31.9547 67.291 32.104C67.6963 32.2533 68.1603 32.4133 68.683 32.584C69.2377 32.776 69.7443 33 70.203 33.256C70.6617 33.512 71.0297 33.8533 71.307 34.28C71.5843 34.696 71.723 35.2347 71.723 35.896C71.723 36.4827 71.5737 37.0267 71.275 37.528C70.9763 38.0293 70.5337 38.4347 69.947 38.744C69.3603 39.0427 68.6403 39.192 67.787 39.192ZM75.5099 39V27.8H77.5579V32.456H82.5819V27.8H84.6299V39H82.5819V34.12H77.5579V39H75.5099ZM88.8068 39V27.8H93.3028C94.4654 27.8 95.3508 28.072 95.9588 28.616C96.5774 29.1493 96.8868 29.8373 96.8868 30.68C96.8868 31.384 96.6948 31.9493 96.3108 32.376C95.9374 32.792 95.4788 33.0747 94.9348 33.224C95.5748 33.352 96.1028 33.672 96.5188 34.184C96.9348 34.6853 97.1428 35.272 97.1428 35.944C97.1428 36.8293 96.8228 37.56 96.1828 38.136C95.5428 38.712 94.6361 39 93.4628 39H88.8068ZM90.8548 32.504H92.9988C93.5748 32.504 94.0174 32.3707 94.3268 32.104C94.6361 31.8373 94.7908 31.4587 94.7908 30.968C94.7908 30.4987 94.6361 30.1307 94.3268 29.864C94.0281 29.5867 93.5748 29.448 92.9668 29.448H90.8548V32.504ZM90.8548 37.336H93.1428C93.7508 37.336 94.2201 37.1973 94.5508 36.92C94.8921 36.632 95.0628 36.232 95.0628 35.72C95.0628 35.1973 94.8868 34.7867 94.5348 34.488C94.1828 34.1893 93.7081 34.04 93.1108 34.04H90.8548V37.336ZM100.087 39L104.183 27.8H106.487L110.583 39H108.407L107.511 36.408H103.143L102.231 39H100.087ZM103.703 34.808H106.951L105.319 30.152L103.703 34.808ZM118.457 39.192C117.326 39.192 116.356 38.952 115.545 38.472C114.734 37.9813 114.11 37.304 113.673 36.44C113.236 35.5653 113.017 34.5573 113.017 33.416C113.017 32.2747 113.236 31.2667 113.673 30.392C114.11 29.5173 114.734 28.8347 115.545 28.344C116.356 27.8533 117.326 27.608 118.457 27.608C119.801 27.608 120.9 27.944 121.753 28.616C122.617 29.2773 123.156 30.2107 123.369 31.416H121.113C120.974 30.808 120.676 30.3333 120.217 29.992C119.769 29.64 119.172 29.464 118.425 29.464C117.39 29.464 116.58 29.816 115.993 30.52C115.406 31.224 115.113 32.1893 115.113 33.416C115.113 34.6427 115.406 35.608 115.993 36.312C116.58 37.0053 117.39 37.352 118.425 37.352C119.172 37.352 119.769 37.192 120.217 36.872C120.676 36.5413 120.974 36.088 121.113 35.512H123.369C123.156 36.664 122.617 37.5653 121.753 38.216C120.9 38.8667 119.801 39.192 118.457 39.192ZM127.182 39V27.8H129.23V32.328L133.374 27.8H135.902L131.774 32.248L136.014 39H133.502L130.302 33.816L129.23 34.984V39H127.182Z" fill="#417465"/>
<path d="M37.632 74V57.2H43.8C45.144 57.2 46.248 57.432 47.112 57.896C47.992 58.344 48.648 58.96 49.08 59.744C49.512 60.512 49.728 61.368 49.728 62.312C49.728 63.336 49.456 64.272 48.912 65.12C48.384 65.968 47.552 66.584 46.416 66.968L49.896 74H46.368L43.248 67.376H40.704V74H37.632ZM40.704 65.12H43.608C44.632 65.12 45.384 64.872 45.864 64.376C46.344 63.88 46.584 63.224 46.584 62.408C46.584 61.608 46.344 60.968 45.864 60.488C45.4 60.008 44.64 59.768 43.584 59.768H40.704V65.12ZM52.5131 79.28V62.096H55.2491L55.5851 63.8C55.9691 63.272 56.4731 62.808 57.0971 62.408C57.7371 62.008 58.5611 61.808 59.5691 61.808C60.6891 61.808 61.6891 62.08 62.5691 62.624C63.4491 63.168 64.1451 63.912 64.6571 64.856C65.1691 65.8 65.4251 66.872 65.4251 68.072C65.4251 69.272 65.1691 70.344 64.6571 71.288C64.1451 72.216 63.4491 72.952 62.5691 73.496C61.6891 74.024 60.6891 74.288 59.5691 74.288C58.6731 74.288 57.8891 74.12 57.2171 73.784C56.5451 73.448 56.0011 72.976 55.5851 72.368V79.28H52.5131ZM58.9211 71.6C59.8971 71.6 60.7051 71.272 61.3451 70.616C61.9851 69.96 62.3051 69.112 62.3051 68.072C62.3051 67.032 61.9851 66.176 61.3451 65.504C60.7051 64.832 59.8971 64.496 58.9211 64.496C57.9291 64.496 57.1131 64.832 56.4731 65.504C55.8491 66.16 55.5371 67.008 55.5371 68.048C55.5371 69.088 55.8491 69.944 56.4731 70.616C57.1131 71.272 57.9291 71.6 58.9211 71.6ZM67.8334 74V71.768C68.8574 70.92 69.8494 70.08 70.8094 69.248C71.7854 68.416 72.6494 67.592 73.4014 66.776C74.1694 65.96 74.7774 65.168 75.2254 64.4C75.6894 63.616 75.9214 62.856 75.9214 62.12C75.9214 61.432 75.7294 60.824 75.3454 60.296C74.9774 59.768 74.3614 59.504 73.4974 59.504C72.6174 59.504 71.9534 59.792 71.5054 60.368C71.0574 60.944 70.8334 61.64 70.8334 62.456H67.8574C67.8894 61.224 68.1614 60.2 68.6734 59.384C69.1854 58.552 69.8654 57.936 70.7134 57.536C71.5614 57.12 72.5134 56.912 73.5694 56.912C75.2814 56.912 76.6094 57.384 77.5534 58.328C78.5134 59.256 78.9934 60.464 78.9934 61.952C78.9934 62.88 78.7774 63.784 78.3454 64.664C77.9294 65.544 77.3774 66.392 76.6894 67.208C76.0014 68.024 75.2574 68.792 74.4574 69.512C73.6574 70.216 72.8814 70.872 72.1294 71.48H79.4014V74H67.8334ZM88.7231 74.288C87.1711 74.288 85.8431 73.928 84.7391 73.208C83.6351 72.472 82.7791 71.456 82.1711 70.16C81.5791 68.848 81.2831 67.328 81.2831 65.6C81.2831 63.888 81.5791 62.376 82.1711 61.064C82.7791 59.752 83.6351 58.736 84.7391 58.016C85.8431 57.28 87.1711 56.912 88.7231 56.912C90.2751 56.912 91.6031 57.28 92.7071 58.016C93.8111 58.736 94.6591 59.752 95.2511 61.064C95.8591 62.376 96.1631 63.888 96.1631 65.6C96.1631 67.328 95.8591 68.848 95.2511 70.16C94.6591 71.456 93.8111 72.472 92.7071 73.208C91.6031 73.928 90.2751 74.288 88.7231 74.288ZM88.7231 71.528C89.9871 71.528 91.0191 71 91.8191 69.944C92.6191 68.888 93.0191 67.44 93.0191 65.6C93.0191 63.76 92.6191 62.312 91.8191 61.256C91.0191 60.2 89.9871 59.672 88.7231 59.672C87.4431 59.672 86.4031 60.2 85.6031 61.256C84.8191 62.312 84.4271 63.76 84.4271 65.6C84.4271 67.44 84.8191 68.888 85.6031 69.944C86.4031 71 87.4431 71.528 88.7231 71.528ZM105.762 74.288C104.21 74.288 102.882 73.928 101.778 73.208C100.674 72.472 99.8182 71.456 99.2102 70.16C98.6182 68.848 98.3222 67.328 98.3222 65.6C98.3222 63.888 98.6182 62.376 99.2102 61.064C99.8182 59.752 100.674 58.736 101.778 58.016C102.882 57.28 104.21 56.912 105.762 56.912C107.314 56.912 108.642 57.28 109.746 58.016C110.85 58.736 111.698 59.752 112.29 61.064C112.898 62.376 113.202 63.888 113.202 65.6C113.202 67.328 112.898 68.848 112.29 70.16C111.698 71.456 110.85 72.472 109.746 73.208C108.642 73.928 107.314 74.288 105.762 74.288ZM105.762 71.528C107.026 71.528 108.058 71 108.858 69.944C109.658 68.888 110.058 67.44 110.058 65.6C110.058 63.76 109.658 62.312 108.858 61.256C108.058 60.2 107.026 59.672 105.762 59.672C104.482 59.672 103.442 60.2 102.642 61.256C101.858 62.312 101.466 63.76 101.466 65.6C101.466 67.44 101.858 68.888 102.642 69.944C103.442 71 104.482 71.528 105.762 71.528ZM116.2 74.168C115.64 74.168 115.176 73.992 114.808 73.64C114.456 73.288 114.28 72.864 114.28 72.368C114.28 71.856 114.456 71.424 114.808 71.072C115.176 70.72 115.64 70.544 116.2 70.544C116.76 70.544 117.216 70.72 117.568 71.072C117.936 71.424 118.12 71.856 118.12 72.368C118.12 72.864 117.936 73.288 117.568 73.64C117.216 73.992 116.76 74.168 116.2 74.168ZM126.645 74.288C125.093 74.288 123.765 73.928 122.661 73.208C121.557 72.472 120.701 71.456 120.093 70.16C119.501 68.848 119.205 67.328 119.205 65.6C119.205 63.888 119.501 62.376 120.093 61.064C120.701 59.752 121.557 58.736 122.661 58.016C123.765 57.28 125.093 56.912 126.645 56.912C128.197 56.912 129.525 57.28 130.629 58.016C131.733 58.736 132.581 59.752 133.173 61.064C133.781 62.376 134.085 63.888 134.085 65.6C134.085 67.328 133.781 68.848 133.173 70.16C132.581 71.456 131.733 72.472 130.629 73.208C129.525 73.928 128.197 74.288 126.645 74.288ZM126.645 71.528C127.909 71.528 128.941 71 129.741 69.944C130.541 68.888 130.941 67.44 130.941 65.6C130.941 63.76 130.541 62.312 129.741 61.256C128.941 60.2 127.909 59.672 126.645 59.672C125.365 59.672 124.325 60.2 123.525 61.256C122.741 62.312 122.349 63.76 122.349 65.6C122.349 67.44 122.741 68.888 123.525 69.944C124.325 71 125.365 71.528 126.645 71.528ZM143.684 74.288C142.132 74.288 140.804 73.928 139.7 73.208C138.596 72.472 137.74 71.456 137.132 70.16C136.54 68.848 136.244 67.328 136.244 65.6C136.244 63.888 136.54 62.376 137.132 61.064C137.74 59.752 138.596 58.736 139.7 58.016C140.804 57.28 142.132 56.912 143.684 56.912C145.236 56.912 146.564 57.28 147.668 58.016C148.772 58.736 149.62 59.752 150.212 61.064C150.82 62.376 151.124 63.888 151.124 65.6C151.124 67.328 150.82 68.848 150.212 70.16C149.62 71.456 148.772 72.472 147.668 73.208C146.564 73.928 145.236 74.288 143.684 74.288ZM143.684 71.528C144.948 71.528 145.98 71 146.78 69.944C147.58 68.888 147.98 67.44 147.98 65.6C147.98 63.76 147.58 62.312 146.78 61.256C145.98 60.2 144.948 59.672 143.684 59.672C142.404 59.672 141.364 60.2 140.564 61.256C139.78 62.312 139.388 63.76 139.388 65.6C139.388 67.44 139.78 68.888 140.564 69.944C141.364 71 142.404 71.528 143.684 71.528ZM160.723 74.288C159.171 74.288 157.843 73.928 156.739 73.208C155.635 72.472 154.779 71.456 154.171 70.16C153.579 68.848 153.283 67.328 153.283 65.6C153.283 63.888 153.579 62.376 154.171 61.064C154.779 59.752 155.635 58.736 156.739 58.016C157.843 57.28 159.171 56.912 160.723 56.912C162.275 56.912 163.603 57.28 164.707 58.016C165.811 58.736 166.659 59.752 167.251 61.064C167.859 62.376 168.163 63.888 168.163 65.6C168.163 67.328 167.859 68.848 167.251 70.16C166.659 71.456 165.811 72.472 164.707 73.208C163.603 73.928 162.275 74.288 160.723 74.288ZM160.723 71.528C161.987 71.528 163.019 71 163.819 69.944C164.619 68.888 165.019 67.44 165.019 65.6C165.019 63.76 164.619 62.312 163.819 61.256C163.019 60.2 161.987 59.672 160.723 59.672C159.443 59.672 158.403 60.2 157.603 61.256C156.819 62.312 156.427 63.76 156.427 65.6C156.427 67.44 156.819 68.888 157.603 69.944C158.403 71 159.443 71.528 160.723 71.528Z" fill="#2F2A32"/>
<path d="M37.036 101V91.2H40.256C41.0213 91.2 41.6513 91.326 42.146 91.578C42.6407 91.83 43.0047 92.1707 43.238 92.6C43.4807 93.0293 43.602 93.5147 43.602 94.056C43.602 94.588 43.4853 95.0687 43.252 95.498C43.0187 95.9273 42.6547 96.2727 42.16 96.534C41.6653 96.786 41.0307 96.912 40.256 96.912H38.212V101H37.036ZM38.212 95.918H40.228C41.012 95.918 41.5673 95.7547 41.894 95.428C42.23 95.092 42.398 94.6347 42.398 94.056C42.398 93.468 42.23 93.0107 41.894 92.684C41.5673 92.348 41.012 92.18 40.228 92.18H38.212V95.918ZM47.7853 101.168C47.1226 101.168 46.5346 101.019 46.0213 100.72C45.5079 100.412 45.1019 99.9873 44.8033 99.446C44.5139 98.9047 44.3693 98.2653 44.3693 97.528C44.3693 96.8 44.5139 96.1653 44.8033 95.624C45.0926 95.0733 45.4939 94.6487 46.0073 94.35C46.5299 94.042 47.1319 93.888 47.8133 93.888C48.4853 93.888 49.0639 94.042 49.5493 94.35C50.0439 94.6487 50.4219 95.0453 50.6833 95.54C50.9446 96.0347 51.0753 96.5667 51.0753 97.136C51.0753 97.2387 51.0706 97.3413 51.0613 97.444C51.0613 97.5467 51.0613 97.6633 51.0613 97.794H45.5313C45.5593 98.326 45.6806 98.7693 45.8953 99.124C46.1193 99.4693 46.3946 99.7307 46.7213 99.908C47.0573 100.085 47.4119 100.174 47.7853 100.174C48.2706 100.174 48.6766 100.062 49.0033 99.838C49.3299 99.614 49.5679 99.3107 49.7173 98.928H50.8793C50.6926 99.572 50.3333 100.109 49.8013 100.538C49.2786 100.958 48.6066 101.168 47.7853 101.168ZM47.7853 94.882C47.2253 94.882 46.7259 95.0547 46.2873 95.4C45.8579 95.736 45.6106 96.2307 45.5453 96.884H49.9133C49.8853 96.2587 49.6706 95.7687 49.2693 95.414C48.8679 95.0593 48.3733 94.882 47.7853 94.882ZM52.634 101V94.056H53.698L53.782 95.064C54.006 94.6907 54.3046 94.4013 54.678 94.196C55.0513 93.9907 55.4713 93.888 55.938 93.888C56.4886 93.888 56.96 94 57.352 94.224C57.7533 94.448 58.0613 94.7887 58.276 95.246C58.5186 94.826 58.85 94.4947 59.27 94.252C59.6993 94.0093 60.1613 93.888 60.656 93.888C61.4866 93.888 62.1493 94.14 62.644 94.644C63.1386 95.1387 63.386 95.904 63.386 96.94V101H62.224V97.066C62.224 96.3473 62.0793 95.806 61.79 95.442C61.5006 95.078 61.0853 94.896 60.544 94.896C59.984 94.896 59.5173 95.1153 59.144 95.554C58.78 95.9833 58.598 96.5993 58.598 97.402V101H57.422V97.066C57.422 96.3473 57.2773 95.806 56.988 95.442C56.6986 95.078 56.2833 94.896 55.742 94.896C55.1913 94.896 54.7293 95.1153 54.356 95.554C53.992 95.9833 53.81 96.5993 53.81 97.402V101H52.634ZM68.8674 101.168C68.2981 101.168 67.7894 101.051 67.3414 100.818C66.9027 100.585 66.5667 100.258 66.3334 99.838L66.2214 101H65.1574V90.92H66.3334V95.204C66.5574 94.868 66.8747 94.5647 67.2854 94.294C67.7054 94.0233 68.2374 93.888 68.8814 93.888C69.5721 93.888 70.1741 94.0467 70.6874 94.364C71.2007 94.6813 71.5974 95.1153 71.8774 95.666C72.1667 96.2167 72.3114 96.842 72.3114 97.542C72.3114 98.242 72.1667 98.8673 71.8774 99.418C71.5974 99.9593 71.1961 100.389 70.6734 100.706C70.1601 101.014 69.5581 101.168 68.8674 101.168ZM68.7414 100.146C69.2081 100.146 69.6187 100.039 69.9734 99.824C70.3281 99.6 70.6081 99.292 70.8134 98.9C71.0187 98.508 71.1214 98.0507 71.1214 97.528C71.1214 97.0053 71.0187 96.548 70.8134 96.156C70.6081 95.764 70.3281 95.4607 69.9734 95.246C69.6187 95.022 69.2081 94.91 68.7414 94.91C68.2747 94.91 67.8641 95.022 67.5094 95.246C67.1547 95.4607 66.8747 95.764 66.6694 96.156C66.4641 96.548 66.3614 97.0053 66.3614 97.528C66.3614 98.0507 66.4641 98.508 66.6694 98.9C66.8747 99.292 67.1547 99.6 67.5094 99.824C67.8641 100.039 68.2747 100.146 68.7414 100.146ZM77.0704 101.168C76.4078 101.168 75.8198 101.019 75.3064 100.72C74.7931 100.412 74.3871 99.9873 74.0884 99.446C73.7991 98.9047 73.6544 98.2653 73.6544 97.528C73.6544 96.8 73.7991 96.1653 74.0884 95.624C74.3778 95.0733 74.7791 94.6487 75.2924 94.35C75.8151 94.042 76.4171 93.888 77.0984 93.888C77.7704 93.888 78.3491 94.042 78.8344 94.35C79.3291 94.6487 79.7071 95.0453 79.9684 95.54C80.2298 96.0347 80.3604 96.5667 80.3604 97.136C80.3604 97.2387 80.3558 97.3413 80.3464 97.444C80.3464 97.5467 80.3464 97.6633 80.3464 97.794H74.8164C74.8444 98.326 74.9658 98.7693 75.1804 99.124C75.4044 99.4693 75.6798 99.7307 76.0064 99.908C76.3424 100.085 76.6971 100.174 77.0704 100.174C77.5558 100.174 77.9618 100.062 78.2884 99.838C78.6151 99.614 78.8531 99.3107 79.0024 98.928H80.1644C79.9778 99.572 79.6184 100.109 79.0864 100.538C78.5638 100.958 77.8918 101.168 77.0704 101.168ZM77.0704 94.882C76.5104 94.882 76.0111 95.0547 75.5724 95.4C75.1431 95.736 74.8958 96.2307 74.8304 96.884H79.1984C79.1704 96.2587 78.9558 95.7687 78.5544 95.414C78.1531 95.0593 77.6584 94.882 77.0704 94.882ZM81.9191 101V90.92H83.0951V101H81.9191ZM85.7366 92.516C85.5033 92.516 85.3073 92.4413 85.1486 92.292C84.9993 92.1333 84.9246 91.9373 84.9246 91.704C84.9246 91.48 84.9993 91.2933 85.1486 91.144C85.3073 90.9947 85.5033 90.92 85.7366 90.92C85.9606 90.92 86.152 90.9947 86.3106 91.144C86.4693 91.2933 86.5486 91.48 86.5486 91.704C86.5486 91.9373 86.4693 92.1333 86.3106 92.292C86.152 92.4413 85.9606 92.516 85.7366 92.516ZM85.1486 101V94.056H86.3246V101H85.1486ZM90.6823 101.168C90.1036 101.168 89.6229 101.07 89.2403 100.874C88.8576 100.678 88.5729 100.417 88.3863 100.09C88.1996 99.7633 88.1063 99.4087 88.1063 99.026C88.1063 98.3167 88.3769 97.7707 88.9183 97.388C89.4596 97.0053 90.1969 96.814 91.1303 96.814H93.0063V96.73C93.0063 96.1233 92.8476 95.666 92.5303 95.358C92.2129 95.0407 91.7883 94.882 91.2563 94.882C90.7989 94.882 90.4023 94.9987 90.0663 95.232C89.7396 95.456 89.5343 95.7873 89.4503 96.226H88.2463C88.2929 95.722 88.4609 95.2973 88.7503 94.952C89.0489 94.6067 89.4176 94.3453 89.8563 94.168C90.2949 93.9813 90.7616 93.888 91.2563 93.888C92.2269 93.888 92.9549 94.1493 93.4403 94.672C93.9349 95.1853 94.1823 95.8713 94.1823 96.73V101H93.1323L93.0623 99.754C92.8663 100.146 92.5769 100.482 92.1943 100.762C91.8209 101.033 91.3169 101.168 90.6823 101.168ZM90.8643 100.174C91.3123 100.174 91.6949 100.057 92.0123 99.824C92.3389 99.5907 92.5863 99.2873 92.7543 98.914C92.9223 98.5407 93.0063 98.1487 93.0063 97.738V97.724H91.2283C90.5376 97.724 90.0476 97.8453 89.7583 98.088C89.4783 98.3213 89.3383 98.6153 89.3383 98.97C89.3383 99.334 89.4689 99.628 89.7303 99.852C90.0009 100.067 90.3789 100.174 90.8643 100.174ZM95.9465 101V94.056H97.0105L97.0805 95.302C97.3045 94.8633 97.6265 94.518 98.0465 94.266C98.4665 94.014 98.9425 93.888 99.4745 93.888C100.296 93.888 100.949 94.14 101.434 94.644C101.929 95.1387 102.176 95.904 102.176 96.94V101H101V97.066C101 95.6193 100.403 94.896 99.2085 94.896C98.6111 94.896 98.1118 95.1153 97.7105 95.554C97.3185 95.9833 97.1225 96.5993 97.1225 97.402V101H95.9465ZM107.579 101V100.174C108.242 99.6513 108.867 99.124 109.455 98.592C110.053 98.0507 110.58 97.5187 111.037 96.996C111.504 96.4733 111.868 95.96 112.129 95.456C112.4 94.952 112.535 94.4667 112.535 94C112.535 93.6547 112.475 93.3327 112.353 93.034C112.241 92.7353 112.055 92.4973 111.793 92.32C111.532 92.1333 111.177 92.04 110.729 92.04C110.3 92.04 109.941 92.138 109.651 92.334C109.362 92.5207 109.143 92.7727 108.993 93.09C108.853 93.4073 108.783 93.748 108.783 94.112H107.649C107.649 93.468 107.785 92.9173 108.055 92.46C108.326 91.9933 108.695 91.6387 109.161 91.396C109.628 91.1533 110.155 91.032 110.743 91.032C111.611 91.032 112.321 91.2793 112.871 91.774C113.431 92.2593 113.711 92.9873 113.711 93.958C113.711 94.5367 113.567 95.1107 113.277 95.68C112.988 96.24 112.619 96.786 112.171 97.318C111.723 97.8407 111.243 98.3307 110.729 98.788C110.225 99.2453 109.754 99.656 109.315 100.02H114.047V101H107.579ZM119.43 101.168C118.562 101.168 117.811 100.958 117.176 100.538C116.551 100.109 116.07 99.516 115.734 98.76C115.398 97.9947 115.23 97.108 115.23 96.1C115.23 95.092 115.398 94.21 115.734 93.454C116.07 92.6887 116.551 92.096 117.176 91.676C117.811 91.2467 118.562 91.032 119.43 91.032C120.298 91.032 121.045 91.2467 121.67 91.676C122.296 92.096 122.776 92.6887 123.112 93.454C123.448 94.21 123.616 95.092 123.616 96.1C123.616 97.108 123.448 97.9947 123.112 98.76C122.776 99.516 122.296 100.109 121.67 100.538C121.045 100.958 120.298 101.168 119.43 101.168ZM119.43 100.132C120 100.132 120.508 99.9733 120.956 99.656C121.414 99.3293 121.768 98.8673 122.02 98.27C122.282 97.6633 122.412 96.94 122.412 96.1C122.412 95.26 122.282 94.5413 122.02 93.944C121.768 93.3467 121.414 92.8893 120.956 92.572C120.508 92.2453 120 92.082 119.43 92.082C118.852 92.082 118.338 92.2453 117.89 92.572C117.442 92.8893 117.088 93.3467 116.826 93.944C116.565 94.5413 116.434 95.26 116.434 96.1C116.434 96.94 116.565 97.6633 116.826 98.27C117.088 98.8673 117.442 99.3293 117.89 99.656C118.338 99.9733 118.852 100.132 119.43 100.132ZM131.204 101.168C130.318 101.168 129.622 100.921 129.118 100.426C128.614 99.9313 128.362 99.2453 128.362 98.368H129.552C129.552 98.8627 129.674 99.278 129.916 99.614C130.159 99.95 130.584 100.118 131.19 100.118C131.778 100.118 132.184 99.9547 132.408 99.628C132.642 99.3013 132.758 98.8953 132.758 98.41V91.2H133.934V98.41C133.934 99.278 133.692 99.9547 133.206 100.44C132.73 100.925 132.063 101.168 131.204 101.168ZM138.471 101.168C137.649 101.168 136.996 100.921 136.511 100.426C136.025 99.922 135.783 99.152 135.783 98.116V94.056H136.959V97.99C136.959 99.4367 137.551 100.16 138.737 100.16C139.343 100.16 139.843 99.9453 140.235 99.516C140.636 99.0773 140.837 98.4567 140.837 97.654V94.056H142.013V101H140.949L140.865 99.754C140.65 100.193 140.328 100.538 139.899 100.79C139.479 101.042 139.003 101.168 138.471 101.168ZM143.948 101V94.056H145.012L145.082 95.302C145.306 94.8633 145.628 94.518 146.048 94.266C146.468 94.014 146.944 93.888 147.476 93.888C148.298 93.888 148.951 94.14 149.436 94.644C149.931 95.1387 150.178 95.904 150.178 96.94V101H149.002V97.066C149.002 95.6193 148.405 94.896 147.21 94.896C146.613 94.896 146.114 95.1153 145.712 95.554C145.32 95.9833 145.124 96.5993 145.124 97.402V101H143.948ZM152.674 92.516C152.441 92.516 152.245 92.4413 152.086 92.292C151.937 92.1333 151.862 91.9373 151.862 91.704C151.862 91.48 151.937 91.2933 152.086 91.144C152.245 90.9947 152.441 90.92 152.674 90.92C152.898 90.92 153.089 90.9947 153.248 91.144C153.407 91.2933 153.486 91.48 153.486 91.704C153.486 91.9373 153.407 92.1333 153.248 92.292C153.089 92.4413 152.898 92.516 152.674 92.516ZM152.086 101V94.056H153.262V101H152.086ZM158.875 97.43V96.436H164.419V97.43H158.875ZM174.406 101V98.9H169.436V97.99L174.196 91.2H175.568V97.864H177.024V98.9H175.568V101H174.406ZM170.738 97.864H174.462V92.502L170.738 97.864ZM184.333 101.168C183.447 101.168 182.751 100.921 182.247 100.426C181.743 99.9313 181.491 99.2453 181.491 98.368H182.681C182.681 98.8627 182.803 99.278 183.045 99.614C183.288 99.95 183.713 100.118 184.319 100.118C184.907 100.118 185.313 99.9547 185.537 99.628C185.771 99.3013 185.887 98.8953 185.887 98.41V91.2H187.063V98.41C187.063 99.278 186.821 99.9547 186.335 100.44C185.859 100.925 185.192 101.168 184.333 101.168ZM191.6 101.168C190.778 101.168 190.125 100.921 189.64 100.426C189.154 99.922 188.912 99.152 188.912 98.116V94.056H190.088V97.99C190.088 99.4367 190.68 100.16 191.866 100.16C192.472 100.16 192.972 99.9453 193.364 99.516C193.765 99.0773 193.966 98.4567 193.966 97.654V94.056H195.142V101H194.078L193.994 99.754C193.779 100.193 193.457 100.538 193.028 100.79C192.608 101.042 192.132 101.168 191.6 101.168ZM197.077 101V90.92H198.253V101H197.077ZM200.895 92.516C200.662 92.516 200.466 92.4413 200.307 92.292C200.158 92.1333 200.083 91.9373 200.083 91.704C200.083 91.48 200.158 91.2933 200.307 91.144C200.466 90.9947 200.662 90.92 200.895 90.92C201.119 90.92 201.31 90.9947 201.469 91.144C201.628 91.2933 201.707 91.48 201.707 91.704C201.707 91.9373 201.628 92.1333 201.469 92.292C201.31 92.4413 201.119 92.516 200.895 92.516ZM200.307 101V94.056H201.483V101H200.307Z" fill="#2F2A32"/>
<rect x="239" y="42" width="79" height="45" rx="10" fill="#417465"/>
<path d="M256.463 70V58.8H260.607C261.503 58.8 262.244 58.9493 262.831 59.248C263.418 59.5467 263.855 59.9573 264.143 60.48C264.431 61.0027 264.575 61.5893 264.575 62.24C264.575 62.8587 264.436 63.4293 264.159 63.952C263.882 64.464 263.45 64.88 262.863 65.2C262.276 65.5093 261.524 65.664 260.607 65.664H258.511V70H256.463ZM258.511 64H260.479C261.194 64 261.706 63.8453 262.015 63.536C262.335 63.216 262.495 62.784 262.495 62.24C262.495 61.6853 262.335 61.2533 262.015 60.944C261.706 60.624 261.194 60.464 260.479 60.464H258.511V64ZM269.584 70.192C268.784 70.192 268.074 70.0213 267.456 69.68C266.837 69.3387 266.352 68.8587 266 68.24C265.648 67.6213 265.472 66.9067 265.472 66.096C265.472 65.2747 265.642 64.544 265.984 63.904C266.336 63.264 266.816 62.768 267.424 62.416C268.042 62.0533 268.768 61.872 269.6 61.872C270.378 61.872 271.066 62.0427 271.664 62.384C272.261 62.7253 272.725 63.1947 273.056 63.792C273.397 64.3787 273.568 65.0347 273.568 65.76C273.568 65.8773 273.562 66 273.552 66.128C273.552 66.256 273.546 66.3893 273.536 66.528H267.504C267.546 67.1467 267.76 67.632 268.144 67.984C268.538 68.336 269.013 68.512 269.568 68.512C269.984 68.512 270.33 68.4213 270.608 68.24C270.896 68.048 271.109 67.8027 271.248 67.504H273.328C273.178 68.0053 272.928 68.464 272.576 68.88C272.234 69.2853 271.808 69.6053 271.296 69.84C270.794 70.0747 270.224 70.192 269.584 70.192ZM269.6 63.536C269.098 63.536 268.656 63.68 268.272 63.968C267.888 64.2453 267.642 64.672 267.536 65.248H271.488C271.456 64.7253 271.264 64.3093 270.912 64C270.56 63.6907 270.122 63.536 269.6 63.536ZM278.57 70.192C277.866 70.192 277.247 70.08 276.714 69.856C276.181 69.6213 275.754 69.3013 275.434 68.896C275.114 68.4907 274.922 68.0213 274.858 67.488H276.922C276.986 67.7973 277.157 68.064 277.434 68.288C277.722 68.5013 278.09 68.608 278.538 68.608C278.986 68.608 279.311 68.5173 279.514 68.336C279.727 68.1547 279.834 67.9467 279.834 67.712C279.834 67.3707 279.685 67.1413 279.386 67.024C279.087 66.896 278.671 66.7733 278.138 66.656C277.797 66.5813 277.45 66.4907 277.098 66.384C276.746 66.2773 276.421 66.144 276.122 65.984C275.834 65.8133 275.599 65.6 275.418 65.344C275.237 65.0773 275.146 64.752 275.146 64.368C275.146 63.664 275.423 63.072 275.978 62.592C276.543 62.112 277.333 61.872 278.346 61.872C279.285 61.872 280.031 62.0907 280.586 62.528C281.151 62.9653 281.487 63.568 281.594 64.336H279.658C279.541 63.7493 279.098 63.456 278.33 63.456C277.946 63.456 277.647 63.5307 277.434 63.68C277.231 63.8293 277.13 64.016 277.13 64.24C277.13 64.4747 277.285 64.6613 277.594 64.8C277.903 64.9387 278.314 65.0667 278.826 65.184C279.381 65.312 279.887 65.456 280.346 65.616C280.815 65.7653 281.189 65.9947 281.466 66.304C281.743 66.6027 281.882 67.0347 281.882 67.6C281.893 68.0907 281.765 68.5333 281.498 68.928C281.231 69.3227 280.847 69.632 280.346 69.856C279.845 70.08 279.253 70.192 278.57 70.192ZM286.432 70.192C285.75 70.192 285.19 70.0853 284.752 69.872C284.315 69.648 283.99 69.3547 283.776 68.992C283.563 68.6293 283.456 68.2293 283.456 67.792C283.456 67.056 283.744 66.4587 284.32 66C284.896 65.5413 285.76 65.312 286.912 65.312H288.928V65.12C288.928 64.576 288.774 64.176 288.464 63.92C288.155 63.664 287.771 63.536 287.312 63.536C286.896 63.536 286.534 63.6373 286.224 63.84C285.915 64.032 285.723 64.32 285.648 64.704H283.648C283.702 64.128 283.894 63.6267 284.224 63.2C284.566 62.7733 285.003 62.448 285.536 62.224C286.07 61.9893 286.667 61.872 287.328 61.872C288.459 61.872 289.35 62.1547 290 62.72C290.651 63.2853 290.976 64.0853 290.976 65.12V70H289.232L289.04 68.72C288.806 69.1467 288.475 69.4987 288.048 69.776C287.632 70.0533 287.094 70.192 286.432 70.192ZM286.896 68.592C287.483 68.592 287.936 68.4 288.256 68.016C288.587 67.632 288.795 67.1573 288.88 66.592H287.136C286.592 66.592 286.203 66.6933 285.968 66.896C285.734 67.088 285.616 67.328 285.616 67.616C285.616 67.9253 285.734 68.1653 285.968 68.336C286.203 68.5067 286.512 68.592 286.896 68.592ZM292.931 70V62.064H294.739L294.899 63.408C295.144 62.9387 295.496 62.5653 295.955 62.288C296.424 62.0107 296.973 61.872 297.603 61.872C298.584 61.872 299.347 62.1813 299.891 62.8C300.435 63.4187 300.707 64.3253 300.707 65.52V70H298.659V65.712C298.659 65.0293 298.52 64.5067 298.243 64.144C297.965 63.7813 297.533 63.6 296.947 63.6C296.371 63.6 295.896 63.8027 295.523 64.208C295.16 64.6133 294.979 65.1787 294.979 65.904V70H292.931Z" fill="white"/>
<defs>
<linearGradient id="paint0_linear" x1="-72.9737" y1="64" x2="176.032" y2="48.4764" gradientUnits="userSpaceOnUse">
<stop stop-color="#8DCABE"/>
<stop offset="0.927636" stop-color="#EAFCF8"/>
</linearGradient>
<linearGradient id="paint1_linear" x1="372.114" y1="64" x2="251.526" y2="64" gradientUnits="userSpaceOnUse">
<stop stop-color="#8DCABE"/>
<stop offset="1" stop-color="#C8E8E1" stop-opacity="0.43"/>
</linearGradient>
</defs>
</svg>
