<svg width="38" height="32" viewBox="0 0 38 32" fill="none" xmlns="http://www.w3.org/2000/svg">
<path d="M19.0001 12.9C20.671 12.9 22.2734 12.2363 23.4549 11.0548C24.6364 9.87334 25.3001 8.27091 25.3001 6.60005C25.3001 4.92919 24.6364 3.32676 23.4549 2.14528C22.2734 0.963797 20.671 0.300049 19.0001 0.300049C17.3292 0.300049 15.7268 0.963797 14.5453 2.14528C13.3639 3.32676 12.7001 4.92919 12.7001 6.60005C12.7001 8.27091 13.3639 9.87334 14.5453 11.0548C15.7268 12.2363 17.3292 12.9 19.0001 12.9ZM10.6001 10.8C10.6001 11.914 10.1576 12.9822 9.36996 13.7699C8.5823 14.5576 7.51402 15 6.40011 15C5.2862 15 4.21791 14.5576 3.43026 13.7699C2.64261 12.9822 2.20011 11.914 2.20011 10.8C2.20011 9.68614 2.64261 8.61785 3.43026 7.8302C4.21791 7.04255 5.2862 6.60005 6.40011 6.60005C7.51402 6.60005 8.5823 7.04255 9.36996 7.8302C10.1576 8.61785 10.6001 9.68614 10.6001 10.8ZM1.12911 26.1847C0.770608 25.9809 0.502141 25.6495 0.377307 25.2565C0.0072986 24.058 0.00341852 22.7765 0.366163 21.5758C0.728908 20.3752 1.44177 19.3102 2.41345 18.5171C3.38514 17.7241 4.57142 17.2391 5.82039 17.1243C7.06935 17.0096 8.32416 17.2702 9.42411 17.8729C7.16373 20.0942 5.74896 23.0343 5.42361 26.1868C5.37531 26.653 5.39421 27.115 5.47611 27.5602C3.94344 27.4276 2.45903 26.9579 1.12911 26.1847ZM32.5241 27.5581C34.0566 27.4262 35.541 26.9572 36.8711 26.1847C37.2288 25.9805 37.4965 25.6491 37.6208 25.2565C37.9914 24.0579 37.9957 22.776 37.6332 21.575C37.2707 20.374 36.5579 19.3085 35.5861 18.5152C34.6143 17.7218 33.4278 17.2366 32.1785 17.1218C30.9292 17.007 29.6741 17.2678 28.574 17.8707C30.8364 20.092 32.2527 23.0331 32.5787 26.1868C32.6255 26.6448 32.6071 27.1072 32.5241 27.5602V27.5581ZM35.8001 10.8C35.8001 11.914 35.3576 12.9822 34.57 13.7699C33.7823 14.5576 32.714 15 31.6001 15C30.4862 15 29.4179 14.5576 28.6303 13.7699C27.8426 12.9822 27.4001 11.914 27.4001 10.8C27.4001 9.68614 27.8426 8.61785 28.6303 7.8302C29.4179 7.04255 30.4862 6.60005 31.6001 6.60005C32.714 6.60005 33.7823 7.04255 34.57 7.8302C35.3576 8.61785 35.8001 9.68614 35.8001 10.8ZM9.13851 27.9991C8.9314 27.8136 8.77083 27.582 8.66978 27.3229C8.56873 27.0639 8.53003 26.7848 8.55681 26.508C8.82392 23.924 10.0395 21.5306 11.9686 19.7907C13.8977 18.0507 16.4033 17.0877 19.0012 17.0877C21.599 17.0877 24.1046 18.0507 26.0337 19.7907C27.9628 21.5306 29.1784 23.924 29.4455 26.508C29.4725 26.7848 29.4338 27.064 29.3328 27.323C29.2317 27.5821 29.071 27.8137 28.8638 27.9991C26.1636 30.4496 22.6465 31.805 19.0001 31.8001C15.3544 31.8047 11.838 30.4493 9.13851 27.9991Z" fill="#8DCABE"/>
</svg>
