<svg width="32" height="32" viewBox="0 0 32 32" fill="none" xmlns="http://www.w3.org/2000/svg">
<path d="M11.1875 13.5625C11.1875 14.0266 11.0031 14.4717 10.6749 14.7999C10.3467 15.1281 9.90163 15.3125 9.4375 15.3125C8.97337 15.3125 8.52825 15.1281 8.20006 14.7999C7.87187 14.4717 7.6875 14.0266 7.6875 13.5625C7.6875 13.0984 7.87187 12.6533 8.20006 12.3251C8.52825 11.9969 8.97337 11.8125 9.4375 11.8125C9.90163 11.8125 10.3467 11.9969 10.6749 12.3251C11.0031 12.6533 11.1875 13.0984 11.1875 13.5625ZM9.4375 24.9375C9.90163 24.9375 10.3467 24.7531 10.6749 24.4249C11.0031 24.0968 11.1875 23.6516 11.1875 23.1875C11.1875 22.7234 11.0031 22.2783 10.6749 21.9501C10.3467 21.6219 9.90163 21.4375 9.4375 21.4375C8.97337 21.4375 8.52825 21.6219 8.20006 21.9501C7.87187 22.2783 7.6875 22.7234 7.6875 23.1875C7.6875 23.6516 7.87187 24.0968 8.20006 24.4249C8.52825 24.7531 8.97337 24.9375 9.4375 24.9375ZM0.25 5.46875C0.25 4.01835 0.82617 2.62735 1.85176 1.60176C2.87735 0.57617 4.26835 0 5.71875 0H26.2812C27.7317 0 29.1227 0.57617 30.1482 1.60176C31.1738 2.62735 31.75 4.01835 31.75 5.46875V26.0312C31.75 27.4817 31.1738 28.8727 30.1482 29.8982C29.1227 30.9238 27.7317 31.5 26.2812 31.5H5.71875C4.26835 31.5 2.87735 30.9238 1.85176 29.8982C0.82617 28.8727 0.25 27.4817 0.25 26.0312V5.46875ZM13.375 13.5625C13.375 13.0454 13.2732 12.5334 13.0753 12.0557C12.8774 11.578 12.5874 11.1439 12.2217 10.7783C11.8561 10.4126 11.422 10.1226 10.9443 9.92472C10.4666 9.72685 9.95458 9.625 9.4375 9.625C8.92042 9.625 8.4084 9.72685 7.93068 9.92472C7.45296 10.1226 7.0189 10.4126 6.65327 10.7783C6.28764 11.1439 5.9976 11.578 5.79972 12.0557C5.60185 12.5334 5.5 13.0454 5.5 13.5625C5.5 14.6068 5.91484 15.6083 6.65327 16.3467C7.39169 17.0852 8.39321 17.5 9.4375 17.5C10.4818 17.5 11.4833 17.0852 12.2217 16.3467C12.9602 15.6083 13.375 14.6068 13.375 13.5625ZM9.4375 27.125C10.4818 27.125 11.4833 26.7102 12.2217 25.9717C12.9602 25.2333 13.375 24.2318 13.375 23.1875C13.375 22.1432 12.9602 21.1417 12.2217 20.4033C11.4833 19.6648 10.4818 19.25 9.4375 19.25C8.39321 19.25 7.39169 19.6648 6.65327 20.4033C5.91484 21.1417 5.5 22.1432 5.5 23.1875C5.5 24.2318 5.91484 25.2333 6.65327 25.9717C7.39169 26.7102 8.39321 27.125 9.4375 27.125ZM6.59375 4.375C6.30367 4.375 6.02547 4.49023 5.82035 4.69535C5.61523 4.90047 5.5 5.17867 5.5 5.46875C5.5 5.75883 5.61523 6.03703 5.82035 6.24215C6.02547 6.44727 6.30367 6.5625 6.59375 6.5625H25.4062C25.6963 6.5625 25.9745 6.44727 26.1796 6.24215C26.3848 6.03703 26.5 5.75883 26.5 5.46875C26.5 5.17867 26.3848 4.90047 26.1796 4.69535C25.9745 4.49023 25.6963 4.375 25.4062 4.375H6.59375ZM15.125 13.7812C15.125 14.385 15.615 14.875 16.2188 14.875H25.4062C25.6963 14.875 25.9745 14.7598 26.1796 14.5546C26.3848 14.3495 26.5 14.0713 26.5 13.7812C26.5 13.4912 26.3848 13.213 26.1796 13.0079C25.9745 12.8027 25.6963 12.6875 25.4062 12.6875H16.2188C15.615 12.6875 15.125 13.1775 15.125 13.7812ZM16.2188 21.875C15.9287 21.875 15.6505 21.9902 15.4454 22.1954C15.2402 22.4005 15.125 22.6787 15.125 22.9688C15.125 23.2588 15.2402 23.537 15.4454 23.7421C15.6505 23.9473 15.9287 24.0625 16.2188 24.0625H25.4062C25.6963 24.0625 25.9745 23.9473 26.1796 23.7421C26.3848 23.537 26.5 23.2588 26.5 22.9688C26.5 22.6787 26.3848 22.4005 26.1796 22.1954C25.9745 21.9902 25.6963 21.875 25.4062 21.875H16.2188Z" fill="#8DCABE"/>
</svg>
