<svg width="36" height="36" viewBox="0 0 36 36" fill="none" xmlns="http://www.w3.org/2000/svg">
<path d="M6.4001 0.100098C7.1645 0.100098 7.8827 0.303798 8.5001 0.662898C9.13857 0.294275 9.86283 0.100209 10.6001 0.100204C11.3373 0.1002 12.0616 0.294257 12.7001 0.662871C13.3385 1.03149 13.8687 1.56167 14.2374 2.20013C14.606 2.8386 14.8001 3.56285 14.8001 4.3001V6.4001H15.8501C16.1286 6.4001 16.3956 6.51072 16.5926 6.70764C16.7895 6.90455 16.9001 7.17162 16.9001 7.4501V16.9001C16.9001 18.014 16.4576 19.0823 15.6699 19.8699C14.8823 20.6576 13.814 21.1001 12.7001 21.1001H4.3001C3.18619 21.1001 2.1179 20.6576 1.33025 19.8699C0.542596 19.0823 0.100098 18.014 0.100098 16.9001V7.4501C0.100098 7.17162 0.210722 6.90455 0.407635 6.70764C0.604549 6.51072 0.87162 6.4001 1.1501 6.4001H2.2001V4.3001C2.2001 3.18619 2.6426 2.1179 3.43025 1.33025C4.2179 0.542596 5.28619 0.100098 6.4001 0.100098ZM4.3001 6.4001H8.5001V4.3001C8.5001 3.74314 8.27885 3.209 7.88502 2.81517C7.49119 2.42135 6.95705 2.2001 6.4001 2.2001C5.84314 2.2001 5.309 2.42135 4.91517 2.81517C4.52135 3.209 4.3001 3.74314 4.3001 4.3001V6.4001ZM10.6001 4.3001V6.4001H12.7001V4.3001C12.7003 3.97947 12.6272 3.66304 12.4862 3.37507C12.3452 3.0871 12.1401 2.83524 11.8867 2.6388C11.6333 2.44236 11.3383 2.30656 11.0243 2.24179C10.7102 2.17703 10.3855 2.18504 10.0751 2.2652C10.4111 2.8679 10.6001 3.563 10.6001 4.3001ZM16.9001 4.4786V4.3001H23.7251C25.7558 4.3001 27.4001 5.9465 27.4001 7.9751V10.6001H29.2523C29.8376 10.6001 30.4113 10.7632 30.9091 11.0711C31.4069 11.379 31.8091 11.8194 32.0705 12.3431L35.4683 19.1366C35.6872 19.5734 35.8015 20.055 35.8022 20.5436V28.4501C35.8022 29.2855 35.4703 30.0867 34.8796 30.6775C34.2888 31.2682 33.4876 31.6001 32.6522 31.6001H29.3972C29.1562 32.7869 28.5123 33.8539 27.5747 34.6203C26.637 35.3867 25.4632 35.8054 24.2522 35.8054C23.0412 35.8054 21.8674 35.3867 20.9297 34.6203C19.9921 33.8539 19.3482 32.7869 19.1072 31.6001H16.7972C16.5562 32.7869 15.9123 33.8539 14.9747 34.6203C14.037 35.3867 12.8632 35.8054 11.6522 35.8054C10.4412 35.8054 9.26739 35.3867 8.32973 34.6203C7.39206 33.8539 6.74819 32.7869 6.5072 31.6001H5.9633C4.98863 31.6001 4.05388 31.2129 3.36468 30.5237C2.67548 29.8345 2.2883 28.8998 2.2883 27.9251V22.8725C2.9204 23.0846 3.5966 23.2001 4.3001 23.2001H12.7001C14.371 23.2001 15.9734 22.5364 17.1549 21.3549C18.3363 20.1734 19.0001 18.571 19.0001 16.9001V7.4501C19.0004 6.79841 18.7986 6.16266 18.4225 5.63047C18.0464 5.09827 17.5145 4.69583 16.9001 4.4786ZM27.4001 12.7001V19.0001H33.0533L30.1931 13.2797C30.1058 13.1055 29.9718 12.959 29.806 12.8567C29.6402 12.7543 29.4492 12.7001 29.2544 12.7001H27.4001ZM11.6501 27.4001C10.8147 27.4001 10.0134 27.732 9.42271 28.3227C8.83197 28.9134 8.5001 29.7147 8.5001 30.5501C8.5001 31.3855 8.83197 32.1867 9.42271 32.7775C10.0134 33.3682 10.8147 33.7001 11.6501 33.7001C12.4855 33.7001 13.2867 33.3682 13.8775 32.7775C14.4682 32.1867 14.8001 31.3855 14.8001 30.5501C14.8001 29.7147 14.4682 28.9134 13.8775 28.3227C13.2867 27.732 12.4855 27.4001 11.6501 27.4001ZM21.1001 30.5501C21.1001 30.9638 21.1816 31.3734 21.3399 31.7556C21.4982 32.1377 21.7302 32.485 22.0227 32.7775C22.3152 33.07 22.6625 33.302 23.0446 33.4603C23.4268 33.6186 23.8364 33.7001 24.2501 33.7001C24.6638 33.7001 25.0734 33.6186 25.4555 33.4603C25.8377 33.302 26.185 33.07 26.4775 32.7775C26.77 32.485 27.002 32.1377 27.1603 31.7556C27.3186 31.3734 27.4001 30.9638 27.4001 30.5501C27.4001 29.7147 27.0682 28.9134 26.4775 28.3227C25.8867 27.732 25.0855 27.4001 24.2501 27.4001C23.4147 27.4001 22.6134 27.732 22.0227 28.3227C21.432 28.9134 21.1001 29.7147 21.1001 30.5501Z" fill="#8DCABE"/>
</svg>
