<svg width="140" height="167" viewBox="0 0 140 167" fill="none" xmlns="http://www.w3.org/2000/svg">
<g clip-path="url(#clip0_20993_87738)">
<path d="M72.4037 164.32C111.04 162.991 141.283 130.593 139.954 91.9574C138.625 53.3215 106.227 23.0782 67.5912 24.4072C28.9553 25.7361 -1.28791 58.134 0.0410265 96.7699C1.36997 135.406 33.7679 165.649 72.4037 164.32Z" fill="#E9FAF5"/>
<rect x="115.402" y="73.045" width="12.9666" height="1.72888" rx="0.864438" fill="#E9FAF5"/>
<rect x="115.402" y="76.5027" width="12.9666" height="1.72888" rx="0.864438" fill="#E9FAF5"/>
<path fill-rule="evenodd" clip-rule="evenodd" d="M26.3533 143.868C42.0602 143.868 54.8668 131.057 54.8668 115.354C54.8668 99.6518 42.0558 86.8408 26.3533 86.8408C10.6508 86.8408 -2.16016 99.6518 -2.16016 115.354C-2.16016 131.057 10.6508 143.868 26.3533 143.868Z" fill="#FF935F"/>
<path fill-rule="evenodd" clip-rule="evenodd" d="M113.231 143.868C97.5238 143.868 84.7172 131.057 84.7172 115.354C84.7172 99.6519 97.5282 86.8409 113.231 86.8409C128.933 86.8409 141.744 99.6519 141.744 115.354C141.744 131.057 128.933 143.868 113.231 143.868Z" fill="#FF935F"/>
<path fill-rule="evenodd" clip-rule="evenodd" d="M38.7011 141.063C48.2661 136.46 54.866 126.678 54.866 115.354C54.866 103.451 47.5702 93.255 37.2099 88.9803C27.6449 93.5835 21.0449 103.365 21.0449 114.689C21.0449 126.592 28.3408 136.788 38.7011 141.058V141.063Z" fill="#A4434C"/>
<path fill-rule="evenodd" clip-rule="evenodd" d="M100.881 141.063C91.316 136.46 84.716 126.679 84.716 115.354C84.716 103.451 92.0118 93.2551 102.372 88.9805C111.937 93.5836 118.537 103.365 118.537 114.689C118.537 126.592 111.241 136.788 100.881 141.059V141.063Z" fill="#A4434C"/>
<path fill-rule="evenodd" clip-rule="evenodd" d="M69.3329 89.7108C72.9204 88.3277 76.953 90.1127 78.3404 93.7045C79.7235 97.2919 77.9384 101.324 74.351 102.708C74.3078 102.725 59.742 108.21 54.7196 123.337C53.5094 126.981 49.5762 128.956 45.9326 127.746C42.289 126.536 40.3138 122.603 41.524 118.959C48.6469 97.5037 69.2768 89.7367 69.3373 89.7108H69.3329Z" fill="#A4434C"/>
<path fill-rule="evenodd" clip-rule="evenodd" d="M68.0451 70.8789C71.4856 69.163 75.6694 70.5634 77.3853 74.0038C79.1012 77.4443 77.7009 81.6282 74.2604 83.3441C74.2215 83.3657 60.2306 90.1991 56.6561 105.729C55.796 109.472 52.066 111.806 48.3229 110.946C44.5799 110.085 42.246 106.355 43.1061 102.612C48.176 80.5822 67.9846 70.9048 68.0408 70.8746L68.0451 70.8789Z" fill="#FFA562"/>
<path fill-rule="evenodd" clip-rule="evenodd" d="M32.9357 63.4607C35.9841 65.081 37.2653 68.3923 35.7794 70.8176L12.5073 108.8L1.4194 102.906L24.6915 64.9234C26.1774 62.4981 29.8885 61.8372 32.9369 63.4574L32.9357 63.4607Z" fill="#FF935F"/>
<path fill-rule="evenodd" clip-rule="evenodd" d="M112.9 63.429C109.725 64.7848 108.167 67.9755 109.442 70.5181L129.408 110.338L140.956 105.406L120.99 65.5859C119.715 63.0433 116.074 62.0699 112.899 63.4256L112.9 63.429Z" fill="#FF935F"/>
<path d="M123.369 81.9514L123.369 122.968C123.369 129.553 118.022 134.9 111.437 134.9L27.06 134.9C20.4749 134.9 15.1279 129.553 15.128 122.968L15.128 81.9514C15.128 75.3664 20.4749 70.0194 27.06 70.0194L111.437 70.0194C118.022 70.0194 123.369 75.3664 123.369 81.9514Z" fill="#474747"/>
<path fill-rule="evenodd" clip-rule="evenodd" d="M118.223 122.968C118.223 126.691 115.357 129.752 111.872 129.752L32.8756 129.752C29.3905 129.752 26.5245 126.691 26.5245 122.968L26.5245 81.9513C26.5245 78.2274 29.3905 75.1664 32.8756 75.1664L111.872 75.1664C115.357 75.1664 118.223 78.2274 118.223 81.9513L118.223 122.968Z" fill="#E9FAF5"/>
<path fill-rule="evenodd" clip-rule="evenodd" d="M29.427 86.4779C32.794 83.8932 37.6218 84.5286 40.2065 87.8956C42.7912 91.2625 42.1558 96.0904 38.7888 98.6751C38.7499 98.7053 25.0356 109.061 24.4392 126.64C24.2965 130.875 20.7437 134.191 16.5123 134.048C12.2765 133.905 8.96141 130.352 9.10404 126.121C9.95119 101.182 29.3708 86.5211 29.427 86.4779Z" fill="#FF935F"/>
<path fill-rule="evenodd" clip-rule="evenodd" d="M33.7928 98.0224C36.5287 98.0224 38.759 95.7878 38.759 93.0519C38.759 90.3159 36.5287 88.0857 33.7928 88.0857C31.0568 88.0857 28.8223 90.3159 28.8223 93.0519C28.8223 95.7878 31.0525 98.0224 33.7928 98.0224Z" fill="#FFB48F"/>
<path fill-rule="evenodd" clip-rule="evenodd" d="M110.157 86.4778C106.79 83.8931 101.962 84.5285 99.3775 87.8955C96.7928 91.2624 97.4282 96.0903 100.795 98.675C100.834 98.7053 114.548 109.061 115.145 126.64C115.287 130.875 118.84 134.19 123.072 134.048C127.307 133.905 130.623 130.352 130.48 126.121C129.633 101.182 110.213 86.521 110.157 86.4778Z" fill="#FF935F"/>
<path fill-rule="evenodd" clip-rule="evenodd" d="M105.791 98.0223C103.055 98.0223 100.825 95.7877 100.825 93.0518C100.825 90.3158 103.055 88.0856 105.791 88.0856C108.527 88.0856 110.762 90.3158 110.762 93.0518C110.762 95.7877 108.531 98.0223 105.791 98.0223Z" fill="#FFB48F"/>
<path d="M79.3282 98.7557C81.1406 99.8232 81.1406 102.492 79.3282 103.559L61.9974 113.767C60.1851 114.834 57.9196 113.5 57.9196 111.365L57.9196 90.95C57.9196 88.8152 60.1851 87.4809 61.9974 88.5483L79.3282 98.7557Z" fill="#417465"/>
</g>
<defs>
<clipPath id="clip0_20993_87738">
<rect width="140" height="166.862" fill="white"/>
</clipPath>
</defs>
</svg>
