<svg width="32" height="29" viewBox="0 0 32 29" fill="none" xmlns="http://www.w3.org/2000/svg">
<path d="M12.5923 22.2172C12.5923 23.9617 11.9865 25.4228 10.7748 26.6003C9.56322 27.7779 8.04868 28.3667 6.23124 28.3667C4.50034 28.3667 3.02907 27.6907 1.81744 26.3387C0.605815 24.9866 0 23.2857 0 21.2359C0 19.753 0.324544 18.1175 0.973631 16.3293C1.66599 14.5412 2.55308 12.7312 3.63489 10.8994C4.75997 9.06763 6.01487 7.25767 7.39959 5.4695C8.82759 3.63773 10.2556 1.93679 11.6836 0.366699L13.4361 1.80595C11.4888 4.11748 9.86613 6.45081 8.56795 8.80595C7.26978 11.1611 6.49087 13.4726 6.23124 15.7405C7.96214 15.8714 9.45504 16.5256 10.7099 17.7031C11.9648 18.8807 12.5923 20.3854 12.5923 22.2172ZM31.2211 22.2172C31.2211 23.9617 30.6153 25.4228 29.4037 26.6003C28.192 27.7779 26.6775 28.3667 24.86 28.3667C23.1291 28.3667 21.6579 27.6907 20.4462 26.3387C19.2346 24.9866 18.6288 23.2857 18.6288 21.2359C18.6288 19.753 18.9533 18.1175 19.6024 16.3293C20.2948 14.5412 21.1819 12.7312 22.2637 10.8994C23.3888 9.06763 24.6437 7.25767 26.0284 5.4695C27.4564 3.63773 28.8844 1.93679 30.3124 0.366699L32 1.80595C30.0527 4.11748 28.43 6.45081 27.1318 8.80595C25.8769 11.1611 25.1197 13.4726 24.86 15.7405C26.5909 15.8714 28.0838 16.5256 29.3387 17.7031C30.5936 18.8807 31.2211 20.3854 31.2211 22.2172Z" fill="#08A081"/>
</svg>
