<?xml version="1.0" standalone="no"?>
<!DOCTYPE svg PUBLIC "-//W3C//DTD SVG 20010904//EN"
 "http://www.w3.org/TR/2001/REC-SVG-20010904/DTD/svg10.dtd">
<svg version="1.0" xmlns="http://www.w3.org/2000/svg"
 width="100.000000pt" height="112.000000pt" viewBox="0 0 100.000000 112.000000"
 preserveAspectRatio="xMidYMid meet">

<g transform="translate(0.000000,112.000000) scale(0.100000,-0.100000)"
fill="#000000" stroke="none">
<path d="M599 1037 c-50 -27 -96 -93 -106 -152 l-6 -38 33 6 c76 16 147 90
157 166 5 36 3 41 -14 41 -11 0 -40 -10 -64 -23z"/>
<path d="M254 826 c-176 -77 -200 -340 -52 -563 78 -116 120 -136 213 -104 74
26 103 26 184 1 52 -17 70 -18 97 -10 43 15 108 88 147 167 l31 62 -48 43
c-57 50 -76 89 -76 159 0 62 21 109 65 148 l33 29 -26 25 c-62 59 -162 73
-269 36 l-61 -20 -58 20 c-67 24 -135 26 -180 7z"/>
</g>
</svg>
