<?xml version="1.0" standalone="no"?>
<!DOCTYPE svg PUBLIC "-//W3C//DTD SVG 20010904//EN"
 "http://www.w3.org/TR/2001/REC-SVG-20010904/DTD/svg10.dtd">
<svg version="1.0" xmlns="http://www.w3.org/2000/svg"
 width="540.000000pt" height="540.000000pt" viewBox="0 0 540.000000 540.000000"
 preserveAspectRatio="xMidYMid meet">

<g transform="translate(0.000000,540.000000) scale(0.100000,-0.100000)"
fill="#000000" stroke="none">
<path d="M934 5190 c-182 -19 -346 -99 -483 -233 -109 -107 -179 -228 -224
-386 l-22 -76 -3 -1670 c-2 -1065 1 -1711 7 -1782 19 -210 89 -360 236 -509
104 -106 187 -158 325 -206 l95 -33 1790 0 1790 0 75 23 c275 87 467 277 561
557 l24 70 3 1765 c2 1593 1 1772 -14 1838 -76 347 -369 608 -721 642 -116 11
-3332 11 -3439 0z m972 -1693 c-20 -147 -145 -276 -257 -265 l-34 3 1 52 c3
108 113 234 242 279 47 16 57 2 48 -69z m954 -227 l0 -120 125 0 125 0 0 -100
0 -99 -122 -3 -123 -3 0 -265 c0 -240 2 -269 19 -303 24 -49 66 -71 125 -64
25 2 54 8 64 12 15 6 17 -1 17 -84 0 -91 0 -92 -27 -102 -16 -6 -77 -9 -138
-7 -96 3 -117 7 -166 31 -69 34 -106 68 -133 127 -19 42 -21 67 -26 350 l-5
305 -72 3 -73 3 0 99 0 100 75 0 75 0 0 93 0 92 113 27 c163 38 147 48 147
-92z m-1325 -50 c54 -16 108 -30 121 -30 13 0 65 14 116 31 151 50 252 34 366
-58 23 -19 42 -40 41 -46 0 -7 -19 -26 -42 -42 -91 -66 -132 -190 -103 -306
22 -84 68 -151 136 -197 30 -20 56 -37 57 -37 5 -2 -25 -103 -37 -125 -19 -35
-143 -185 -177 -214 -64 -54 -123 -59 -221 -19 -94 38 -181 38 -279 -1 -56
-22 -82 -28 -118 -24 -91 11 -176 97 -265 269 -145 282 -143 549 6 709 115
123 217 146 399 90z m2086 -262 c87 -273 113 -360 139 -468 l23 -95 38 145
c21 80 71 249 113 375 l74 230 142 3 c132 2 142 1 138 -15 -4 -13 -326 -863
-373 -986 -7 -16 -20 -17 -132 -15 l-125 3 -193 508 -192 507 143 0 143 0 62
-192z"/>
</g>
</svg>
