<svg width="32" height="33" viewBox="0 0 32 33" fill="none" xmlns="http://www.w3.org/2000/svg">
<rect y="0.830627" width="32" height="32" rx="4" fill="#DBF8F2"/>
<path d="M12.2501 13.9139C12.5784 13.9139 12.9035 13.8493 13.2068 13.7236C13.5101 13.598 13.7857 13.4139 14.0178 13.1817C14.25 12.9496 14.4341 12.674 14.5598 12.3706C14.6854 12.0673 14.7501 11.7422 14.7501 11.4139C14.7501 11.0856 14.6854 10.7605 14.5598 10.4572C14.4341 10.1539 14.25 9.87832 14.0178 9.64617C13.7857 9.41403 13.5101 9.22988 13.2068 9.10424C12.9035 8.9786 12.5784 8.91394 12.2501 8.91394C11.587 8.91394 10.9512 9.17733 10.4823 9.64617C10.0135 10.115 9.75008 10.7509 9.75008 11.4139C9.75008 12.077 10.0135 12.7129 10.4823 13.1817C10.9512 13.6505 11.587 13.9139 12.2501 13.9139ZM19.7501 13.9139C20.0784 13.9139 20.4035 13.8493 20.7068 13.7236C21.0101 13.598 21.2857 13.4139 21.5178 13.1817C21.75 12.9496 21.9341 12.674 22.0598 12.3706C22.1854 12.0673 22.2501 11.7422 22.2501 11.4139C22.2501 11.0856 22.1854 10.7605 22.0598 10.4572C21.9341 10.1539 21.75 9.87832 21.5178 9.64617C21.2857 9.41403 21.0101 9.22988 20.7068 9.10424C20.4035 8.9786 20.0784 8.91394 19.7501 8.91394C19.087 8.91394 18.4512 9.17733 17.9823 9.64617C17.5135 10.115 17.2501 10.7509 17.2501 11.4139C17.2501 12.077 17.5135 12.7129 17.9823 13.1817C18.4512 13.6505 19.087 13.9139 19.7501 13.9139ZM7.66675 16.1831C7.66675 15.9946 7.70389 15.8078 7.77604 15.6336C7.8482 15.4594 7.95396 15.3011 8.08729 15.1678C8.22062 15.0345 8.37891 14.9287 8.55311 14.8566C8.72732 14.7844 8.91403 14.7473 9.10258 14.7473H13.1126C12.8196 15.2538 12.6658 15.8288 12.6667 16.4139C12.6662 16.8869 12.7665 17.3546 12.9611 17.7857C13.1557 18.2168 13.44 18.6015 13.7951 18.9139H12.8526C12.4556 18.9138 12.0656 19.0178 11.7214 19.2156C11.3773 19.4133 11.091 19.698 10.8913 20.041C9.54883 19.7777 8.733 19.1231 8.258 18.3877C7.66675 17.4723 7.66675 16.5264 7.66675 16.3627V16.1835V16.1831ZM19.1476 18.9139C19.5445 18.9138 19.9346 19.0178 20.2787 19.2156C20.6229 19.4133 20.9091 19.698 21.1088 20.041C22.4513 19.7777 23.2672 19.1231 23.7422 18.3877C24.3334 17.4723 24.3334 16.5264 24.3334 16.3627V16.1835C24.3335 15.9949 24.2964 15.8082 24.2242 15.6339C24.1521 15.4597 24.0464 15.3013 23.913 15.168C23.7797 15.0346 23.6214 14.9288 23.4471 14.8566C23.2729 14.7844 23.0862 14.7473 22.8976 14.7473H18.8876C19.1806 15.2538 19.3344 15.8288 19.3334 16.4139C19.334 16.8869 19.2336 17.3546 19.039 17.7857C18.8445 18.2168 18.5602 18.6015 18.2051 18.9139H19.1476ZM18.5001 16.4139C18.5001 17.077 18.2367 17.7129 17.7678 18.1817C17.299 18.6505 16.6631 18.9139 16.0001 18.9139C15.337 18.9139 14.7012 18.6505 14.2323 18.1817C13.7635 17.7129 13.5001 17.077 13.5001 16.4139C13.5001 15.7509 13.7635 15.115 14.2323 14.6462C14.7012 14.1773 15.337 13.9139 16.0001 13.9139C16.6631 13.9139 17.299 14.1773 17.7678 14.6462C18.2367 15.115 18.5001 15.7509 18.5001 16.4139ZM11.4167 21.1831C11.4167 20.8023 11.568 20.4371 11.8373 20.1678C12.1066 19.8985 12.4718 19.7473 12.8526 19.7473H19.1476C19.5284 19.7473 19.8936 19.8985 20.1629 20.1678C20.4321 20.4371 20.5834 20.8023 20.5834 21.1831V21.3627C20.5834 21.5269 20.5834 22.4723 19.9922 23.3877C19.3742 24.3444 18.1805 25.1639 16.0001 25.1639C13.8197 25.1639 12.6259 24.3444 12.008 23.3877C11.4167 22.4723 11.4167 21.5264 11.4167 21.3627V21.1831Z" fill="#00BA88"/>
</svg>
