<svg width="28" height="29" viewBox="0 0 28 29" fill="none" xmlns="http://www.w3.org/2000/svg">
<path d="M21.4375 0.415283H6.5625C2.93813 0.415283 0 3.35341 0 6.97778V21.8528C0 25.4772 2.93813 28.4153 6.5625 28.4153H21.4375C25.0619 28.4153 28 25.4772 28 21.8528V6.97778C28 3.35341 25.0619 0.415283 21.4375 0.415283Z" fill="url(#paint0_radial_19020_15916)"/>
<path d="M21.4375 0.415283H6.5625C2.93813 0.415283 0 3.35341 0 6.97778V21.8528C0 25.4772 2.93813 28.4153 6.5625 28.4153H21.4375C25.0619 28.4153 28 25.4772 28 21.8528V6.97778C28 3.35341 25.0619 0.415283 21.4375 0.415283Z" fill="url(#paint1_radial_19020_15916)"/>
<path d="M14.001 3.47778C11.0306 3.47778 10.6577 3.4908 9.49113 3.54385C8.32672 3.59722 7.53189 3.78152 6.83648 4.052C6.11702 4.33135 5.50681 4.70508 4.89891 5.3132C4.29045 5.92122 3.91672 6.53142 3.6365 7.25056C3.36525 7.94619 3.18073 8.74135 3.12834 9.9052C3.07617 11.0719 3.0625 11.4449 3.0625 14.4154C3.0625 17.3859 3.07563 17.7576 3.12856 18.9242C3.18216 20.0886 3.36645 20.8834 3.63672 21.5788C3.91628 22.2983 4.29002 22.9085 4.89814 23.5164C5.50594 24.1248 6.11614 24.4994 6.83506 24.7788C7.53102 25.0493 8.32595 25.2336 9.49014 25.2869C10.6568 25.34 11.0294 25.353 13.9997 25.353C16.9704 25.353 17.3421 25.34 18.5087 25.2869C19.6731 25.2336 20.4688 25.0493 21.1647 24.7788C21.8839 24.4994 22.4932 24.1248 23.1009 23.5164C23.7093 22.9085 24.083 22.2983 24.3633 21.5791C24.6321 20.8834 24.8167 20.0883 24.8714 18.9244C24.9238 17.7578 24.9375 17.3859 24.9375 14.4154C24.9375 11.4449 24.9238 11.0721 24.8714 9.90542C24.8167 8.74102 24.6321 7.9463 24.3633 7.25089C24.083 6.53142 23.7093 5.92122 23.1009 5.3132C22.4925 4.70486 21.8841 4.33113 21.1641 4.05211C20.4668 3.78152 19.6715 3.59711 18.5071 3.54385C17.3404 3.4908 16.969 3.47778 13.9976 3.47778H14.001ZM13.0198 5.44883C13.311 5.44839 13.636 5.44883 14.001 5.44883C16.9214 5.44883 17.2675 5.45933 18.4207 5.51172C19.4871 5.5605 20.0659 5.73867 20.4515 5.88841C20.9619 6.0866 21.3258 6.32361 21.7084 6.70653C22.0912 7.08935 22.3281 7.45389 22.5269 7.96435C22.6766 8.34935 22.855 8.92816 22.9036 9.99456C22.956 11.1476 22.9673 11.4939 22.9673 14.4129C22.9673 17.3319 22.956 17.6783 22.9036 18.8312C22.8548 19.8976 22.6766 20.4764 22.5269 20.8615C22.3287 21.372 22.0912 21.7354 21.7084 22.118C21.3256 22.5008 20.9622 22.7377 20.4515 22.936C20.0664 23.0864 19.4871 23.2642 18.4207 23.3129C17.2677 23.3653 16.9214 23.3767 14.001 23.3767C11.0805 23.3767 10.7343 23.3653 9.58136 23.3129C8.51495 23.2637 7.93614 23.0855 7.55027 22.9358C7.03992 22.7375 6.67527 22.5006 6.29245 22.1178C5.90964 21.735 5.67273 21.3713 5.474 20.8606C5.32427 20.4755 5.14587 19.8967 5.09731 18.8303C5.04492 17.6773 5.03442 17.331 5.03442 14.4101C5.03442 11.4894 5.04492 11.1449 5.09731 9.99183C5.14609 8.92542 5.32427 8.34661 5.474 7.96106C5.6723 7.45061 5.90964 7.08606 6.29256 6.70325C6.67538 6.32044 7.03992 6.08342 7.55037 5.8848C7.93592 5.73441 8.51495 5.55667 9.58136 5.50767C10.5903 5.46206 10.9814 5.44839 13.0198 5.4461V5.44883ZM19.8394 7.26489C19.1148 7.26489 18.5269 7.85224 18.5269 8.57696C18.5269 9.30156 19.1148 9.88946 19.8394 9.88946C20.564 9.88946 21.1519 9.30156 21.1519 8.57696C21.1519 7.85235 20.564 7.26445 19.8394 7.26445V7.26489ZM14.001 8.79844C10.8991 8.79844 8.38414 11.3134 8.38414 14.4154C8.38414 17.5174 10.8991 20.0311 14.001 20.0311C17.103 20.0311 19.6171 17.5174 19.6171 14.4154C19.6171 11.3135 17.1028 8.79844 14.0008 8.79844H14.001ZM14.001 10.7695C16.0145 10.7695 17.6469 12.4017 17.6469 14.4154C17.6469 16.4289 16.0145 18.0613 14.001 18.0613C11.9874 18.0613 10.3552 16.4289 10.3552 14.4154C10.3552 12.4017 11.9874 10.7695 14.001 10.7695Z" fill="white"/>
<defs>
<radialGradient id="paint0_radial_19020_15916" cx="0" cy="0" r="1" gradientUnits="userSpaceOnUse" gradientTransform="translate(7.4375 30.5718) rotate(-90) scale(27.7501 25.8098)">
<stop stop-color="#FFDD55"/>
<stop offset="0.1" stop-color="#FFDD55"/>
<stop offset="0.5" stop-color="#FF543E"/>
<stop offset="1" stop-color="#C837AB"/>
</radialGradient>
<radialGradient id="paint1_radial_19020_15916" cx="0" cy="0" r="1" gradientUnits="userSpaceOnUse" gradientTransform="translate(-4.69011 2.43227) rotate(78.681) scale(12.4044 51.1315)">
<stop stop-color="#3771C8"/>
<stop offset="0.128" stop-color="#3771C8"/>
<stop offset="1" stop-color="#6600FF" stop-opacity="0"/>
</radialGradient>
</defs>
</svg>
