<svg width="28" height="29" viewBox="0 0 28 29" fill="none" xmlns="http://www.w3.org/2000/svg">
<path d="M15.1715 3.16629L15.1692 4.42745C16.6019 4.67082 17.9234 5.35369 18.9508 6.38149C19.9782 7.40929 20.6606 8.73114 20.9033 10.164H25.6668V12.4973H24.5002V26.4973H3.50016V12.4973H2.3335V10.164H7.097C7.34006 8.73049 8.02308 7.40816 9.05137 6.38029C10.0797 5.35242 11.4023 4.66993 12.8358 4.42745L12.8382 3.16162L15.1715 3.16629ZM9.4805 10.164H18.5198C18.2603 9.16267 17.6757 8.27591 16.8576 7.64287C16.0396 7.00983 15.0345 6.66635 14.0002 6.66635C12.9658 6.66635 11.9607 7.00983 11.1427 7.64287C10.3247 8.27591 9.74001 9.16267 9.4805 10.164ZM5.8335 12.4973V24.164H9.3335V17.164H18.6668V24.164H22.1668V12.4973H5.8335ZM16.3335 24.164V19.4973H11.6668V24.164H16.3335Z" fill="#00BA88"/>
</svg>
