<svg width="22" height="22" viewBox="0 0 22 22" fill="none" xmlns="http://www.w3.org/2000/svg">
<path d="M16.7506 21.5439C16.4989 21.5439 16.247 21.4861 16.0181 21.3764L10.9999 19.2237L5.98186 21.3764C5.75313 21.4861 5.50123 21.5439 5.24969 21.5439H5.24945C4.74918 21.5439 4.27647 21.3234 3.95239 20.939C3.64392 20.5732 3.50626 20.0966 3.57027 19.6227L4.07749 14.1533L0.472236 10.0829C0.0382992 9.63092 -0.110573 8.98641 0.0841438 8.38702C0.277276 7.79239 0.769982 7.36089 1.37974 7.24579L6.71964 5.95495L9.51164 1.34051C9.80865 0.793182 10.3728 0.456055 11 0.456055C11.6271 0.456055 12.1912 0.793182 12.4882 1.34051L15.2804 5.95483L20.6204 7.24579C21.2301 7.36077 21.7226 7.79239 21.9159 8.38702C22.1106 8.98654 21.9617 9.63092 21.5278 10.0829L17.9225 14.1533L18.4297 19.6228C18.4936 20.0966 18.3561 20.5732 18.0476 20.939C17.7235 21.3234 17.2507 21.5439 16.7506 21.5439Z" fill="#F4B410"/>
<path d="M16.5296 20.2684L11.2405 17.9995C11.0897 17.9196 10.9096 17.9196 10.7588 17.9995L5.46974 20.2684C5.12213 20.4511 4.71574 20.1559 4.78219 19.7688L5.3166 14.0068C5.34537 13.8372 5.28978 13.6643 5.16773 13.5442L1.36459 9.25033C1.0833 8.97624 1.23852 8.49853 1.62722 8.44208L7.24658 7.08369C7.4152 7.05894 7.5609 6.95201 7.63626 6.79777L10.5748 1.94131C10.7487 1.58906 11.2509 1.58906 11.4246 1.94131L14.3632 6.79777C14.4385 6.95201 14.5844 7.05894 14.7529 7.08369L20.3722 8.44208C20.7609 8.49853 20.9161 8.97624 20.6349 9.25033L16.8317 13.5442C16.7098 13.6643 16.6541 13.8372 16.6829 14.0068L17.2173 19.7688C17.2836 20.1559 16.8772 20.4511 16.5296 20.2684Z" fill="#FFCA35"/>
<path d="M5.91223 13.7242L5.4255 18.967C5.36502 19.3192 5.73519 19.5878 6.05184 19.4215L10.2529 17.6215C10.2603 16.9271 10.2648 16.2225 10.2648 15.529C10.2648 11.2585 16.4836 7.90223 16.4836 7.90223L14.5081 7.42525C14.3544 7.4027 14.2218 7.30552 14.1531 7.16518L13.7243 6.4574C12.2428 8.47163 7.72016 9.9573 5.18408 12.6353L5.77665 13.3036C5.88784 13.4126 5.93844 13.5699 5.91223 13.7242Z" fill="#FDD955"/>
<path d="M12.1055 7.98981C12.1055 7.41444 11.4653 6.7742 10.8899 6.7742C11.4653 6.7742 12.1055 6.13384 12.1055 5.55859C12.1055 6.13397 12.7459 6.7742 13.3211 6.7742C12.7459 6.7742 12.1055 7.41444 12.1055 7.98981Z" fill="white"/>
<path d="M13.5758 5.78835C13.5758 5.47305 13.2248 5.12202 12.9094 5.12202C13.2248 5.12202 13.5758 4.77111 13.5758 4.45569C13.5758 4.77111 13.9267 5.12202 14.2421 5.12202C13.9268 5.12202 13.5758 5.47292 13.5758 5.78835Z" fill="white"/>
<path d="M6.68069 18.7678C6.68069 18.2891 6.14787 17.7563 5.66919 17.7563C6.148 17.7563 6.68069 17.2234 6.68069 16.7448C6.68069 17.2234 7.21351 17.7563 7.6922 17.7563C7.21339 17.7563 6.68069 18.2891 6.68069 18.7678Z" fill="white"/>
</svg>
