<svg width="19" height="19" viewBox="0 0 19 19" fill="none" xmlns="http://www.w3.org/2000/svg">
<path d="M13.1013 3.9573L15.0428 5.89788M14.3498 2.24771L9.10008 7.49746C8.82883 7.76834 8.64383 8.11345 8.56841 8.4893L8.0835 10.9166L10.5108 10.4308C10.8867 10.3556 11.2313 10.1714 11.5027 9.90005L16.7524 4.6503C16.9102 4.49254 17.0353 4.30526 17.1207 4.09914C17.2061 3.89302 17.25 3.67211 17.25 3.44901C17.25 3.2259 17.2061 3.00499 17.1207 2.79887C17.0353 2.59275 16.9102 2.40547 16.7524 2.24771C16.5947 2.08996 16.4074 1.96482 16.2013 1.87944C15.9951 1.79406 15.7742 1.75012 15.5511 1.75012C15.328 1.75012 15.1071 1.79406 14.901 1.87944C14.6949 1.96482 14.5076 2.08996 14.3498 2.24771Z" stroke="#00BA88" stroke-width="2" stroke-linecap="round" stroke-linejoin="round"/>
<path d="M15.4167 12.7499V15.4999C15.4167 15.9861 15.2236 16.4525 14.8798 16.7963C14.536 17.1401 14.0696 17.3333 13.5834 17.3333H3.50008C3.01385 17.3333 2.54754 17.1401 2.20372 16.7963C1.8599 16.4525 1.66675 15.9861 1.66675 15.4999V5.41659C1.66675 4.93036 1.8599 4.46404 2.20372 4.12022C2.54754 3.77641 3.01385 3.58325 3.50008 3.58325H6.25008" stroke="#00BA88" stroke-width="2" stroke-linecap="round" stroke-linejoin="round"/>
</svg>
