<svg width="42" height="42" viewBox="0 0 42 42" fill="none" xmlns="http://www.w3.org/2000/svg">
<circle cx="21" cy="21" r="20.5" stroke="#8DCABE"/>
<path d="M23.2308 32H18.6154C18.3094 32 18.0159 31.8736 17.7995 31.6486C17.5831 31.4236 17.4615 31.1185 17.4615 30.8003V23.3621H15.1538C14.8478 23.3621 14.5543 23.2357 14.338 23.0107C14.1216 22.7857 14 22.4806 14 22.1624V17.8434C14 17.5252 14.1216 17.2201 14.338 16.9951C14.5543 16.7701 14.8478 16.6437 15.1538 16.6437H17.4615V14.6042C17.5424 12.7763 18.3161 11.056 19.6134 9.81951C20.9108 8.58302 22.6262 7.93093 24.3846 8.0058H27.8462C28.1522 8.0058 28.4457 8.1322 28.662 8.35719C28.8784 8.58218 29 8.88733 29 9.20551V13.5245C29 13.8427 28.8784 14.1478 28.662 14.3728C28.4457 14.5978 28.1522 14.7242 27.8462 14.7242H24.3846V16.6437H27.8462C28.0243 16.6423 28.2004 16.6838 28.3605 16.765C28.5207 16.8462 28.6606 16.9648 28.7692 17.1116C28.8767 17.2606 28.9493 17.4336 28.9814 17.6168C29.0134 17.8001 29.004 17.9885 28.9538 18.1673L27.8 22.4863C27.7302 22.7458 27.5784 22.9733 27.3691 23.1322C27.1598 23.2911 26.9051 23.372 26.6462 23.3621H24.3846V30.8003C24.3846 31.1185 24.263 31.4236 24.0467 31.6486C23.8303 31.8736 23.5368 32 23.2308 32ZM19.7692 29.6006H22.0769V22.1624C22.0769 21.8442 22.1985 21.539 22.4149 21.3141C22.6313 21.0891 22.9248 20.9627 23.2308 20.9627H25.8154L26.3231 19.0431H23.2308C22.9248 19.0431 22.6313 18.9167 22.4149 18.6917C22.1985 18.4668 22.0769 18.1616 22.0769 17.8434V14.6042C22.1066 13.9889 22.3627 13.4089 22.7923 12.9846C23.2219 12.5603 23.7921 12.324 24.3846 12.3248H26.6923V10.4052H24.3846C23.2386 10.3326 22.1113 10.7328 21.2473 11.5189C20.3832 12.305 19.8522 13.4136 19.7692 14.6042V17.8434C19.7692 18.1616 19.6477 18.4668 19.4313 18.6917C19.2149 18.9167 18.9214 19.0431 18.6154 19.0431H16.3077V20.9627H18.6154C18.9214 20.9627 19.2149 21.0891 19.4313 21.3141C19.6477 21.539 19.7692 21.8442 19.7692 22.1624V29.6006Z" fill="#8DCABE"/>
</svg>
