<svg width="21" height="20" viewBox="0 0 21 20" fill="none" xmlns="http://www.w3.org/2000/svg">
<path d="M7.16667 11.6666C6.93056 11.6666 6.7325 11.5866 6.5725 11.4266C6.4125 11.2666 6.33278 11.0688 6.33334 10.8333C6.33334 10.5972 6.41334 10.3991 6.57334 10.2391C6.73334 10.0791 6.93111 9.9994 7.16667 9.99996C7.40278 9.99996 7.60084 10.08 7.76084 10.24C7.92084 10.4 8.00056 10.5977 8 10.8333C8 11.0694 7.92 11.2675 7.76 11.4275C7.6 11.5875 7.40222 11.6672 7.16667 11.6666ZM10.5 11.6666C10.2639 11.6666 10.0658 11.5866 9.90584 11.4266C9.74583 11.2666 9.66611 11.0688 9.66667 10.8333C9.66667 10.5972 9.74667 10.3991 9.90667 10.2391C10.0667 10.0791 10.2644 9.9994 10.5 9.99996C10.7361 9.99996 10.9342 10.08 11.0942 10.24C11.2542 10.4 11.3339 10.5977 11.3333 10.8333C11.3333 11.0694 11.2533 11.2675 11.0933 11.4275C10.9333 11.5875 10.7356 11.6672 10.5 11.6666ZM13.8333 11.6666C13.5972 11.6666 13.3992 11.5866 13.2392 11.4266C13.0792 11.2666 12.9994 11.0688 13 10.8333C13 10.5972 13.08 10.3991 13.24 10.2391C13.4 10.0791 13.5978 9.9994 13.8333 9.99996C14.0694 9.99996 14.2675 10.08 14.4275 10.24C14.5875 10.4 14.6672 10.5977 14.6667 10.8333C14.6667 11.0694 14.5867 11.2675 14.4267 11.4275C14.2667 11.5875 14.0689 11.6672 13.8333 11.6666ZM4.66667 18.3333C4.20833 18.3333 3.81583 18.17 3.48917 17.8433C3.1625 17.5166 2.99945 17.1244 3 16.6666V4.99996C3 4.54163 3.16333 4.14913 3.49 3.82246C3.81667 3.49579 4.20889 3.33274 4.66667 3.33329H5.5V1.66663H7.16667V3.33329H13.8333V1.66663H15.5V3.33329H16.3333C16.7917 3.33329 17.1842 3.49663 17.5108 3.82329C17.8375 4.14996 18.0006 4.54218 18 4.99996V16.6666C18 17.125 17.8367 17.5175 17.51 17.8441C17.1833 18.1708 16.7911 18.3339 16.3333 18.3333H4.66667ZM4.66667 16.6666H16.3333V8.33329H4.66667V16.6666ZM4.66667 6.66663H16.3333V4.99996H4.66667V6.66663Z" fill="#00BA88"/>
</svg>
