<svg width="21" height="20" viewBox="0 0 21 20" fill="none" xmlns="http://www.w3.org/2000/svg">
<path d="M5.5 11.25H9.25V12.5H5.5V11.25ZM5.5 13.75H11.75V15H5.5V13.75Z" fill="#00BA88"/>
<path d="M16.75 2.5H4.25C3.91858 2.50033 3.60083 2.63213 3.36648 2.86648C3.13213 3.10083 3.00033 3.41858 3 3.75V16.25C3.00033 16.5814 3.13213 16.8992 3.36648 17.1335C3.60083 17.3679 3.91858 17.4997 4.25 17.5H16.75C17.0814 17.4997 17.3992 17.3679 17.6335 17.1335C17.8679 16.8992 17.9997 16.5814 18 16.25V3.75C17.9997 3.41858 17.8679 3.10083 17.6335 2.86648C17.3992 2.63213 17.0814 2.50033 16.75 2.5ZM11.75 3.75V6.25H9.25V3.75H11.75ZM4.25 16.25V3.75H8V7.5H13V3.75H16.75L16.7506 16.25H4.25Z" fill="#00BA88"/>
</svg>
