<svg width="21" height="20" viewBox="0 0 21 20" fill="none" xmlns="http://www.w3.org/2000/svg">
<path d="M12.8334 6.66671L13.8334 7.66671L8.16675 13.3334L7.16675 12.3334L12.8334 6.66671ZM3.83341 3.33337H17.1667C18.0917 3.33337 18.8334 4.07504 18.8334 5.00004V8.33337C18.3914 8.33337 17.9675 8.50897 17.6549 8.82153C17.3423 9.13409 17.1667 9.55801 17.1667 10C17.1667 10.4421 17.3423 10.866 17.6549 11.1786C17.9675 11.4911 18.3914 11.6667 18.8334 11.6667V15C18.8334 15.925 18.0917 16.6667 17.1667 16.6667H3.83341C3.39139 16.6667 2.96746 16.4911 2.6549 16.1786C2.34234 15.866 2.16675 15.4421 2.16675 15V11.6667C3.09175 11.6667 3.83341 10.925 3.83341 10C3.83341 9.55801 3.65782 9.13409 3.34526 8.82153C3.0327 8.50897 2.60878 8.33337 2.16675 8.33337V5.00004C2.16675 4.55801 2.34234 4.13409 2.6549 3.82153C2.96746 3.50897 3.39139 3.33337 3.83341 3.33337ZM3.83341 5.00004V7.11671C4.33981 7.40871 4.76038 7.82893 5.05279 8.33508C5.34521 8.84124 5.49916 9.41549 5.49916 10C5.49916 10.5846 5.34521 11.1588 5.05279 11.665C4.76038 12.1712 4.33981 12.5914 3.83341 12.8834V15H17.1667V12.8834C16.6603 12.5914 16.2398 12.1712 15.9474 11.665C15.655 11.1588 15.501 10.5846 15.501 10C15.501 9.41549 15.655 8.84124 15.9474 8.33508C16.2398 7.82893 16.6603 7.40871 17.1667 7.11671V5.00004H3.83341ZM8.41675 6.66671C9.10841 6.66671 9.66675 7.22504 9.66675 7.91671C9.66675 8.60837 9.10841 9.16671 8.41675 9.16671C7.72508 9.16671 7.16675 8.60837 7.16675 7.91671C7.16675 7.22504 7.72508 6.66671 8.41675 6.66671ZM12.5834 10.8334C13.2751 10.8334 13.8334 11.3917 13.8334 12.0834C13.8334 12.775 13.2751 13.3334 12.5834 13.3334C11.8917 13.3334 11.3334 12.775 11.3334 12.0834C11.3334 11.3917 11.8917 10.8334 12.5834 10.8334Z" fill="#00BA88"/>
</svg>
