<svg width="211" height="180" viewBox="0 0 211 180" fill="none" xmlns="http://www.w3.org/2000/svg">
<path d="M102.39 123.339L88.6292 123.291C88.6292 123.291 86.0658 116.238 89.4497 111.282C96.3624 101.163 86.9989 95.8273 83.4166 93.0071C78.0108 88.7528 75.6405 83.2729 82.1724 79.741C89.5624 75.7488 83.0948 65.0353 73.372 59.4217C63.853 53.9312 68.1433 33.8794 89.8412 43.8812C102.798 49.8534 100.717 63.5744 101.318 70.756C101.918 77.9376 112.612 78.5637 108.922 87.3186C105.769 94.7945 99.8107 100.237 104.326 105.401C108.842 110.565 109.292 116.339 102.39 123.339Z" fill="url(#paint0_linear)"/>
<path opacity="0.1" d="M178.881 143.019C178.74 143.122 178.611 143.223 178.474 143.321C177.966 143.684 177.434 144.011 176.883 144.301C173.992 145.841 170.43 146.594 166.96 147.104C159.177 148.251 151.231 148.474 143.319 148.693C121.941 149.286 100.511 149.878 79.185 148.511C70.759 147.972 62.1477 147.069 54.5124 144.301C53.4179 143.906 52.345 143.47 51.2937 142.993C49.1661 142.026 47.1228 140.85 45.4236 139.445C43.8269 138.128 42.5321 136.615 41.7583 134.895C40.1447 131.313 40.9985 127.289 42.841 123.778C43.6062 122.358 44.4692 120.993 45.4236 119.695C46.8462 117.718 48.4148 115.798 49.8458 113.822C54.9379 106.8 58.2605 97.9159 53.5602 90.7134C52.2093 88.6442 50.2573 86.8276 49.1563 84.6675C47.7519 81.9043 47.8601 78.836 48.3067 75.8556C48.3647 75.4772 48.426 75.1025 48.4906 74.7316C49.2532 70.3122 50.6884 65.5507 55.1134 62.7918C59.7098 59.925 66.2371 60.0697 71.9415 61.0887C80.8126 62.6896 88.9956 66.0219 97.2657 69.0306C105.536 72.0394 114.188 74.7884 123.277 75.0836C131.302 75.3447 140.664 73.3905 145.99 68.3111C151.164 63.3779 160.889 63.0018 167.898 65.9822C172.709 68.0272 176.298 71.7115 177.812 75.8556C178.119 76.6876 178.34 77.5494 178.471 78.4272C178.592 79.2295 178.632 80.0423 178.589 80.8527C178.568 81.2529 178.527 81.6489 178.471 82.0406C177.3 90.2181 168.869 96.6684 163.745 103.973C161.241 107.541 159.473 111.827 161.195 115.675C163.821 121.537 172.953 123.622 178.468 127.985C179.506 128.779 180.42 129.726 181.178 130.795C183.854 134.678 182.866 139.922 178.881 143.019Z" fill="#86D0C1"/>
<path d="M162.052 76.5173H141.865C139.133 69.1241 137.946 62.2497 141.865 57.0895C141.865 55.7646 142.126 54.4526 142.633 53.2284C143.14 52.0043 143.884 50.8921 144.821 49.9552C145.758 49.0183 146.871 48.2751 148.096 47.768C149.32 47.261 150.633 47 151.958 47H151.958C153.569 46.9988 155.157 47.3835 156.588 48.1219C158.02 48.8603 159.254 49.9309 160.186 51.244C161.781 53.4834 162.101 56.3702 161.186 58.9627C159.556 63.5833 160.551 69.8883 162.052 76.5173Z" fill="#532525"/>
<path d="M172.713 149.345C172.129 149.345 171.56 149.157 171.09 148.81C170.62 148.464 170.274 147.975 170.102 147.417L169.271 144.715C169.078 144.09 169.041 143.427 169.163 142.785L169.729 139.792H173.702L175.351 145.903C175.46 146.308 175.475 146.732 175.393 147.143C175.312 147.555 175.137 147.942 174.882 148.275C174.627 148.607 174.299 148.877 173.923 149.063C173.546 149.248 173.133 149.345 172.713 149.345Z" fill="#532525"/>
<path d="M143.766 149.345C144.351 149.345 144.919 149.157 145.389 148.81C145.859 148.464 146.206 147.975 146.377 147.417L147.209 144.715C147.402 144.09 147.439 143.427 147.317 142.785L146.75 139.792H142.777L141.129 145.903C141.02 146.308 141.005 146.732 141.087 147.143C141.168 147.555 141.343 147.942 141.598 148.275C141.853 148.607 142.181 148.877 142.557 149.063C142.933 149.248 143.347 149.345 143.766 149.345Z" fill="#532525"/>
<path d="M174.024 140.114H169.622L150.509 103.834L146.983 140.114H143.1C141.108 117.268 136.261 95.5066 143.1 87.3047L159.099 88.8074L174.024 140.114Z" fill="#532525"/>
<path d="M151.421 62.7782C154.387 62.7782 156.79 60.3755 156.79 57.4115C156.79 54.4475 154.387 52.0447 151.421 52.0447C148.456 52.0447 146.052 54.4475 146.052 57.4115C146.052 60.3755 148.456 62.7782 151.421 62.7782Z" fill="#F7A46F"/>
<path d="M158.992 78.0737H147.073L145.032 68.6281C148.991 67.4593 149.934 64.7407 149.113 61.1146L155.555 60.6853C155.921 63.6061 156.589 66.3296 160.71 66.8034L158.992 78.0737Z" fill="#F7A46F"/>
<path d="M158.991 89.8806C152.229 92.4472 146.728 92.3671 142.885 88.8073C144.619 83.0904 144.723 76.0505 143.959 68.3061L146.106 67.3401L146.858 74.2096L157.488 73.6729L159.85 66.1594L162.213 66.6961C162.394 76.0118 161.836 84.3923 158.991 89.8806Z" fill="#E6E6E6"/>
<path d="M165.22 101.473L166.482 105.575C166.584 105.907 166.607 106.259 166.549 106.602C166.49 106.944 166.352 107.269 166.146 107.548C165.939 107.828 165.67 108.055 165.359 108.212C165.049 108.368 164.706 108.45 164.358 108.45C164.046 108.45 163.739 108.385 163.454 108.258C163.17 108.132 162.915 107.947 162.706 107.715C162.498 107.484 162.341 107.212 162.244 106.916C162.148 106.62 162.115 106.307 162.147 105.997L162.642 101.258L160.602 85.1581L162.106 78.074H165.864L165.22 101.473Z" fill="#F7A46F"/>
<path d="M135.146 100.62L132.927 104.294C132.747 104.591 132.64 104.927 132.613 105.274C132.587 105.62 132.642 105.968 132.775 106.29C132.908 106.611 133.114 106.897 133.377 107.124C133.641 107.351 133.954 107.513 134.291 107.598C134.593 107.673 134.908 107.684 135.215 107.63C135.521 107.576 135.813 107.458 136.071 107.285C136.33 107.111 136.548 106.884 136.714 106.621C136.879 106.357 136.987 106.061 137.03 105.753L137.698 101.035L143.578 85.9083L144.764 78.6641L140.19 77.7612L135.146 100.62Z" fill="#F7A46F"/>
<path d="M168.548 78.9324L161.461 78.8251V66.4814L162.552 66.6405C163.71 66.8093 164.778 67.3626 165.584 68.2112C166.389 69.0599 166.886 70.1547 166.994 71.3197L168.548 78.9324Z" fill="#E6E6E6"/>
<path d="M138.268 80.2205L145.355 80.1131V67.7695L144.263 67.9286C143.105 68.0974 142.038 68.6506 141.232 69.4993C140.427 70.348 139.93 71.4428 139.822 72.6078L138.268 80.2205Z" fill="#E6E6E6"/>
<path d="M156.361 54.8354C154.08 56.1253 149.697 56.7153 146.482 55.8014L145.408 50.22H156.039L156.361 54.8354Z" fill="#532525"/>
<path d="M71.9282 121.085H36.9591V149.258H71.9282V121.085Z" fill="#E6E6E6"/>
<path d="M57.4011 141.084H51.486V149.083H57.4011V141.084Z" fill="#86D0C1"/>
<path d="M114.905 121.917L115.836 119.436L124.522 114.474L130.417 113.233L114.905 121.917Z" fill="#86D0C1"/>
<path d="M82.9498 121.917L82.0191 119.436L73.3323 114.474L67.4376 113.233L82.9498 121.917Z" fill="#86D0C1"/>
<path d="M115.525 122.537H82.3292L79.5371 109.512H118.317L115.525 122.537Z" fill="#86D0C1"/>
<path opacity="0.1" d="M115.525 122.537H82.3292L79.5371 109.512H118.317L115.525 122.537Z" fill="black"/>
<path d="M115.68 121.761H82.1742V149.257H115.68V121.761Z" fill="#86D0C1"/>
<path d="M101.885 141.08H95.9696V149.08H101.885V141.08Z" fill="#395B54"/>
<path d="M180.931 149.291H30V148.911H181L180.931 149.291Z" fill="#395B54"/>
<path d="M105.886 127.389H91.9681V131.737H105.886V127.389Z" fill="white"/>
<path d="M61.3103 127.389H47.3922V131.737H61.3103V127.389Z" fill="white"/>
<defs>
<linearGradient id="paint0_linear" x1="78.314" y1="43.3457" x2="105.337" y2="121.156" gradientUnits="userSpaceOnUse">
<stop stop-color="#86D0C1"/>
<stop offset="0.9964" stop-color="#F36F56"/>
</linearGradient>
</defs>
</svg>
