<svg width="210" height="180" viewBox="0 0 210 180" fill="none" xmlns="http://www.w3.org/2000/svg">
<path opacity="0.1" d="M166.892 106.127C166.785 106.206 166.686 106.283 166.581 106.357C166.194 106.633 165.789 106.883 165.369 107.104C163.167 108.276 160.452 108.849 157.808 109.237C151.878 110.11 145.824 110.28 139.796 110.446C123.508 110.898 107.179 111.349 90.9305 110.308C84.5106 109.898 77.9494 109.21 72.1318 107.104C71.2979 106.803 70.4804 106.471 69.6794 106.108C68.0583 105.372 66.5015 104.476 65.2068 103.407C63.9902 102.404 63.0037 101.252 62.4141 99.9429C61.1847 97.216 61.8352 94.1531 63.2391 91.4802C63.8221 90.3989 64.4796 89.3603 65.2068 88.372C66.2907 86.867 67.4859 85.4052 68.5762 83.9013C72.456 78.5556 74.9876 71.7924 71.4063 66.3094C70.377 64.7342 68.8897 63.3513 68.0508 61.707C66.9809 59.6035 67.0632 57.2677 67.4035 54.9989C67.4477 54.7108 67.4944 54.4255 67.5437 54.1432C68.1247 50.7789 69.2182 47.1542 72.5898 45.0539C76.0919 42.8715 81.0652 42.9817 85.4115 43.7574C92.1707 44.9761 98.4055 47.5129 104.707 49.8033C111.008 52.0937 117.6 54.1864 124.525 54.4111C130.64 54.6099 137.773 53.1222 141.831 49.2555C145.773 45.5001 153.183 45.2138 158.523 47.4826C162.189 49.0394 164.924 51.8441 166.077 54.9989C166.311 55.6322 166.479 56.2883 166.579 56.9565C166.672 57.5672 166.702 58.1859 166.669 58.8029C166.653 59.1076 166.622 59.409 166.579 59.7072C165.687 65.9324 159.264 70.8427 155.359 76.4035C153.451 79.1195 152.104 82.3823 153.416 85.3112C155.417 89.7743 162.375 91.3614 166.577 94.6825C167.368 95.2869 168.064 96.0081 168.642 96.8217C170.68 99.7776 169.928 103.77 166.892 106.127Z" fill="#86D0C1"/>
<path d="M61.2017 97.011C62.9349 100.755 61.2816 104.5 59.6959 107.016C59.3148 107.016 59.0997 107.121 58.7125 107.219C55.2583 108.06 53.6419 107.63 50.1324 107.882C49.3764 107.937 47.133 107.372 46.2295 107.084L44.5577 106.507C44.5577 106.507 41.5891 97.4038 46.2541 94.8872C50.9191 92.3705 49.1305 83.3105 48.7433 78.3692C47.68 64.9634 62.1912 66.1787 62.2097 48.8382C62.2158 44.2284 60.6793 35.4324 64.5698 31.7556C69.0074 27.5693 72.2465 31.6758 75.0983 28.177C79.5543 22.7078 86.7884 20.7436 91.1031 26.3724C95.3563 31.9274 90.1873 42.9885 77.3355 51.8767C68.8353 59.2978 68.7062 61.5198 69.37 66.9276C69.8372 70.7149 73.4573 80.5851 68.3067 84.5259C63.1501 88.4727 59.2165 92.7327 61.2017 97.011Z" fill="url(#paint0_linear)"/>
<g opacity="0.5">
<path opacity="0.5" d="M51.9578 108.023L51.6996 107.992C51.8902 106.47 52.0991 104.929 52.3266 103.432C53.9983 92.3031 56.6474 81.7269 60.1999 72.0101C63.2115 63.7726 66.9177 56.0323 71.2139 49.004C74.6681 43.3507 78.5157 38.121 82.6582 33.4682C85.5715 30.1965 88.5955 27.2379 91.644 24.6721C92.1787 24.224 92.7442 23.8005 93.2973 23.3831C94.0287 22.8307 94.7909 22.266 95.467 21.646L95.6391 21.8363C94.9568 22.4624 94.1886 23.0394 93.451 23.5918C92.904 24.0031 92.3385 24.4266 91.8099 24.8686C88.7676 27.4221 85.7498 30.3745 82.8488 33.6339C78.7185 38.2806 74.8771 43.4919 71.4352 49.1329C67.1513 56.1489 63.4512 63.877 60.4457 72.096C56.8932 81.8006 54.2503 92.3522 52.5847 103.468C52.3634 104.972 52.1483 106.501 51.9578 108.023Z" fill="#FCFDFE"/>
<path opacity="0.5" d="M66.5674 57.9045L66.3338 57.7941C71.0418 47.7765 66.9054 29.2636 66.8624 29.0733L67.1144 29.0181C67.1574 29.2022 71.3122 47.801 66.5674 57.9045Z" fill="#FCFDFE"/>
<path opacity="0.5" d="M55.8606 87.0857L55.6147 87.0059C58.0179 79.8242 71.4843 74.2752 71.6195 74.22L71.7179 74.4594C71.5827 74.5146 58.2208 80.0145 55.8606 87.0857Z" fill="#FCFDFE"/>
<path opacity="0.5" d="M54.8527 91.2779L54.5946 91.2411C55.3075 86.3489 53.6603 79.2961 49.9603 71.384C49.7759 70.985 49.7759 70.985 49.782 70.9359L50.0402 70.9727L49.9111 70.9543L50.034 70.9236C50.0463 70.9543 50.1139 71.1016 50.1938 71.2735C53.9185 79.2347 55.5718 86.3366 54.8527 91.2779Z" fill="#FCFDFE"/>
<path opacity="0.5" d="M52.3449 105.249L52.1114 105.138C54.4101 100.197 62.2527 98.2511 62.3326 98.2327L62.394 98.4843C62.3203 98.5028 54.5883 100.424 52.3449 105.249Z" fill="#FCFDFE"/>
<path opacity="0.5" d="M51.5705 108.048C50.5994 103.763 48.3622 99.6198 44.736 95.3845L44.9326 95.2188C48.5896 99.4909 50.8392 103.671 51.8226 107.992L51.5705 108.048Z" fill="#FCFDFE"/>
<path opacity="0.5" d="M80.4579 36.4145L80.2305 36.2918C83.1561 30.8656 84.9754 24.488 85.5716 22.3948C85.7191 21.8854 85.7683 21.7073 85.799 21.6521L86.0325 21.7626C86.0141 21.8056 85.9281 22.1002 85.8236 22.4623C85.2212 24.5678 83.4019 30.9638 80.4579 36.4145Z" fill="#FCFDFE"/>
<path opacity="0.5" d="M74.3915 44.5352L74.2133 44.351C78.3374 40.2937 89.9108 40.4287 90.4025 40.4348L90.3963 40.6926C90.2734 40.6865 78.4419 40.5576 74.3915 44.5352Z" fill="#FCFDFE"/>
</g>
<path d="M40.7224 129.439L55.7684 134.147C55.7684 134.147 61.0173 127.328 59.0382 120.729C55.0001 107.274 67.0774 104.678 71.976 102.836C79.3637 100.056 83.8566 94.8871 77.944 88.7673C71.2569 81.8434 82.0374 72.3721 94.6125 69.5977C106.917 66.8846 109.191 43.4734 82.0189 46.8985C65.7929 48.9426 63.2975 64.6687 60.1506 72.3108C57.0038 79.9528 45.0985 76.939 46.0942 87.7913C46.9424 97.0601 51.5644 105.07 44.8342 109.152C38.1041 113.24 35.6087 119.403 40.7224 129.439Z" fill="url(#paint1_linear)"/>
<g opacity="0.5">
<path opacity="0.5" d="M46.795 132.87L47.1269 132.913C47.1515 132.711 49.7452 112.258 58.4421 92.7571C66.4506 74.7905 81.429 53.9819 107.286 56.8669L107.323 56.5354C95.8112 55.2526 85.4609 58.4751 76.5673 66.1172C69.4561 72.2186 63.2607 81.1436 58.1348 92.6282C49.4194 112.172 46.8196 132.668 46.795 132.87Z" fill="#F4F9F8"/>
<path opacity="0.5" d="M72.9839 69.4687L73.3096 69.5301C75.2949 58.6409 83.961 45.0079 84.0471 44.8728L83.7644 44.6948C83.6845 44.8299 74.9753 58.5181 72.9839 69.4687Z" fill="#F4F9F8"/>
<path opacity="0.5" d="M79.0504 64.5398C91.8345 61.2313 100.82 67.5537 100.913 67.615L101.109 67.345C101.017 67.2774 91.9083 60.8691 78.9705 64.2145L79.0504 64.5398Z" fill="#F4F9F8"/>
<path opacity="0.5" d="M53.4513 105.813C61.6995 91.9652 83.2175 94.6783 83.4264 94.7213L83.5186 94.4021C83.3219 94.3407 61.4905 91.6767 53.1685 105.647L53.4513 105.813Z" fill="#F4F9F8"/>
<path opacity="0.5" d="M55.3443 99.4478L55.6762 99.4785C56.6904 89.2461 48.3315 79.3758 48.2516 79.2776L47.9996 79.4924C48.0795 79.5906 56.3462 89.3566 55.3443 99.4478Z" fill="#F4F9F8"/>
<path opacity="0.5" d="M47.6062 129.703C49.8926 124.025 59.659 122.018 59.7574 122L59.6898 121.674C59.278 121.754 49.6468 123.731 47.2928 129.58L47.6062 129.703Z" fill="#F4F9F8"/>
<path opacity="0.5" d="M48.1532 124.854L48.4851 124.897C49.1366 120.103 43.8385 112.878 42.0992 110.503C41.8533 110.165 41.6382 109.877 41.6136 109.821L41.3124 109.956C41.3493 110.042 41.4907 110.233 41.8349 110.699C43.5497 113.044 48.7863 120.189 48.1532 124.854Z" fill="#F4F9F8"/>
</g>
<path d="M81.8209 69.2219L65.862 82.392C66.5201 83.111 67.0248 83.9554 67.3456 84.8741C67.6664 85.7927 67.7966 86.7666 67.7284 87.7367C67.6602 88.7069 67.3949 89.6532 66.9487 90.5185C66.5025 91.3838 65.8845 92.15 65.1323 92.7708C64.38 93.3916 63.509 93.8542 62.5719 94.1305C61.6349 94.4068 60.6512 94.4911 59.6805 94.3783C58.7098 94.2655 57.7721 93.958 56.9242 93.4743C56.0763 92.9906 55.3358 92.3409 54.7475 91.5643L40.4398 103.372L63.3748 130.892L104.756 96.7424L81.8209 69.2219Z" fill="#F2F2F2"/>
<path d="M172.665 109.096C172.665 125.363 162.948 131.042 150.961 131.042C138.974 131.042 129.256 125.363 129.256 109.096C129.256 92.8303 150.961 72.1372 150.961 72.1372C150.961 72.1372 172.665 92.8303 172.665 109.096Z" fill="#F2F2F2"/>
<path d="M150.17 128.554L150.392 114.94L159.643 98.0988L150.427 112.805L150.527 106.684L156.903 94.499L150.554 105.064V105.064L150.733 94.0549L157.561 84.3544L150.762 92.3237L150.874 72.137L150.168 98.8606L150.226 97.7581L143.285 87.1852L150.115 99.8744L149.468 112.17L149.449 111.843L141.447 100.717L149.425 112.996L149.344 114.534L149.329 114.557L149.336 114.683L147.695 145.877H149.887L150.15 129.765L158.109 117.515L150.17 128.554Z" fill="#395B54"/>
<path d="M132.079 148.39C148.836 148.39 162.419 147.382 162.419 146.139C162.419 144.895 148.836 143.887 132.079 143.887C115.323 143.887 101.74 144.895 101.74 146.139C101.74 147.382 115.323 148.39 132.079 148.39Z" fill="#395B54"/>
<path d="M135.218 23.0862H130.177V146.949H135.218V23.0862Z" fill="#395B54"/>
<path d="M159.687 142.446C159.687 145.421 157.91 146.46 155.718 146.46C155.667 146.46 155.616 146.459 155.565 146.458C155.464 146.456 155.363 146.451 155.264 146.444C153.285 146.305 151.748 145.213 151.748 142.446C151.748 139.582 155.425 135.969 155.701 135.701L155.702 135.701C155.712 135.691 155.718 135.686 155.718 135.686C155.718 135.686 159.687 139.47 159.687 142.446Z" fill="#86D0C1"/>
<path d="M155.573 146.005L157.025 143.986L155.569 146.226L155.565 146.458C155.464 146.456 155.363 146.451 155.264 146.444L155.42 143.468L155.419 143.445L155.422 143.44L155.437 143.159L153.977 140.913L155.441 142.948L155.445 143.008L155.563 140.759L154.314 138.438L155.578 140.364L155.701 135.701L155.702 135.686V135.701L155.681 139.378L156.925 137.92L155.676 139.695L155.643 141.708L156.804 139.776L155.638 142.005L155.62 143.124L157.306 140.434L155.614 143.515L155.573 146.005Z" fill="#395B54"/>
<path d="M124.392 140.218L123.542 139.59C123.542 139.59 122.98 142.715 123.608 143.183C124.235 143.651 126.587 144.431 126.587 145.368C126.587 146.304 131.919 147.552 132.076 146.148C132.232 144.744 131.605 143.963 131.605 143.963C131.605 143.963 129.096 141.467 128.782 140.998C128.469 140.53 127.685 139.594 127.685 139.594L124.392 140.218Z" fill="#532525"/>
<path d="M136.937 101.362C136.937 101.362 136.913 101.499 136.873 101.751C136.835 101.974 136.783 102.289 136.72 102.678C136.062 106.677 134.141 118.451 134.271 118.84C134.428 119.308 135.525 121.024 134.271 121.492C134.15 121.538 134.02 121.684 133.88 121.915C133.611 122.413 133.389 122.934 133.217 123.473C132.469 125.632 131.669 129.089 131.207 131.483C131.004 132.534 130.866 133.38 130.826 133.823C130.812 133.926 130.81 134.03 130.821 134.132C130.978 134.757 129.88 136.941 129.41 137.565C128.939 138.19 128.155 138.814 128.312 139.438C128.469 140.062 124.392 141.779 123.921 140.686C123.451 139.594 123.451 138.97 123.294 138.658C123.137 138.346 122.98 136.161 123.764 135.849C124.548 135.537 124.078 130.075 124.862 128.983C125.124 128.619 125.524 127.388 125.942 125.907C126.107 125.327 126.273 124.709 126.436 124.089C127.098 121.55 127.685 118.996 127.685 118.996L127.528 100.738L136.153 99.6455L136.374 100.131L136.814 101.094L136.937 101.362Z" fill="#532525"/>
<path d="M137.407 131.323C137.407 131.323 138.662 130.075 139.289 131.323C139.916 132.572 140.544 137.409 141.641 138.502C142.739 139.594 144.15 145.056 142.582 145.368C141.014 145.68 139.289 144.9 139.132 143.963C138.975 143.027 135.682 138.19 135.682 137.721C135.682 137.253 137.878 135.537 137.878 135.537L137.407 131.323Z" fill="#532525"/>
<path d="M118.119 92.7794C118.119 92.7794 120.158 111.037 120.628 112.754C121.098 114.47 123.607 121.024 124.392 122.117C125.176 123.209 130.194 132.104 130.821 132.572C131.448 133.04 132.703 134.289 132.703 134.289C132.703 134.289 135.055 136.629 135.369 137.097C135.682 137.566 138.348 136.161 138.505 135.225C138.662 134.289 138.348 132.728 138.191 132.104C138.035 131.48 138.505 130.543 138.035 130.075C137.564 129.607 135.212 127.266 135.212 126.174C135.212 125.082 131.135 118.684 129.566 117.279C127.998 115.875 128.312 113.534 128.312 113.534V104.015L136.937 101.362C136.937 101.362 136.466 93.8718 135.369 93.8718C134.271 93.8718 119.844 91.375 118.119 92.7794Z" fill="#532525"/>
<path d="M130.821 66.7192C133.679 66.7192 135.996 64.4136 135.996 61.5695C135.996 58.7255 133.679 56.4199 130.821 56.4199C127.963 56.4199 125.646 58.7255 125.646 61.5695C125.646 64.4136 127.963 66.7192 130.821 66.7192Z" fill="#F7A46F"/>
<path d="M129.096 65.6267C129.096 65.6267 128.469 67.9675 127.685 68.5917C126.901 69.2159 129.723 71.8687 129.723 71.8687L135.055 72.1808L135.996 69.2159C135.996 69.2159 134.271 65.7828 134.741 63.5981C135.212 61.4134 129.096 65.6267 129.096 65.6267Z" fill="#F7A46F"/>
<path d="M126.901 68.2798C126.901 68.2798 128.312 68.4358 128.626 68.904C128.939 69.3721 131.135 70.7766 132.86 70.4645C134.585 70.1524 135.682 69.6842 135.996 69.8403C136.31 69.9963 136.937 73.2734 136.937 73.2734L135.212 78.2669L135.525 91.9993L135.996 95.7444C135.996 95.7444 136.937 94.496 133.173 95.2763C129.41 96.0565 124.548 94.6521 122.98 94.496C121.412 94.34 118.746 93.8718 118.589 92.9356C118.433 91.9993 119.06 88.5662 119.06 88.5662L121.569 78.1109L123.137 72.4931L126.901 68.2798Z" fill="#395B54"/>
<path d="M128.384 67.5754C128.384 67.5754 127.057 66.8753 126.587 67.4995C126.117 68.1237 120.158 69.06 120.158 69.5281C120.158 69.9963 118.903 82.6363 119.217 83.7286C119.53 84.821 118.589 86.0693 118.589 86.0693L117.492 90.7508C117.492 90.7508 114.512 99.6456 115.767 99.9577C117.021 100.27 118.119 99.9577 118.589 99.9577C119.06 99.9577 118.903 94.0279 120.158 92.4674C121.412 90.9069 123.137 87.0056 123.451 86.2254C123.764 85.4452 127.685 74.6778 127.528 73.4294C127.371 72.181 128.384 67.5754 128.384 67.5754Z" fill="#D0CDE1"/>
<path d="M134.898 68.2798C134.898 68.2798 136.153 68.2798 136.31 68.5919C136.466 68.904 138.035 70.9326 138.662 71.4008C139.289 71.8689 141.484 73.8976 141.484 74.3657C141.484 74.8339 136.937 78.2669 136.937 78.2669C136.937 78.2669 135.055 87.4738 135.996 90.5948C136.937 93.7158 138.348 101.206 137.721 101.674C137.094 102.142 135.682 102.299 135.682 101.674C135.682 101.05 134.741 94.34 133.957 92.9356C133.173 91.5311 130.821 82.6363 131.762 80.1395C132.703 77.6427 134.898 68.2798 134.898 68.2798Z" fill="#D0CDE1"/>
<path d="M114.199 83.7285C114.199 83.7285 114.042 88.566 115.767 91.0628C117.492 93.5596 118.589 96.3685 118.589 96.3685C118.589 96.3685 121.412 95.5883 121.883 94.652C122.353 93.7157 125.332 94.4959 125.332 94.1838C125.332 93.8717 121.726 92.3112 121.412 91.9991C121.098 91.687 120.001 91.687 119.373 91.0628C118.746 90.4386 118.589 89.0342 118.589 89.0342L117.962 84.9769L114.199 83.7285Z" fill="#F7A46F"/>
<path d="M127.257 58.3943C126.859 58.3583 126.448 58.3187 126.096 58.1299C125.308 57.7068 125.099 56.502 125.699 55.8403C125.864 55.672 126.05 55.5239 126.25 55.3992L127.442 54.5918C127.97 54.2347 128.509 53.8718 129.124 53.7034C129.68 53.5512 130.268 53.5668 130.843 53.6025C131.961 53.6716 133.085 53.8144 134.137 54.1983C135.188 54.5823 136.168 55.2247 136.805 56.1413C137.814 57.5945 137.828 59.5544 137.272 61.232C136.716 62.9096 135.66 64.3705 134.62 65.8017L134.08 63.1806C134.032 62.9471 133.97 62.6912 133.775 62.553C133.29 62.2096 132.697 62.9147 132.101 62.9102C131.719 62.9072 131.398 62.5942 131.253 62.242C131.108 61.8898 131.098 61.4998 131.065 61.1206C130.994 60.3176 130.712 59.2003 129.948 58.7574C129.235 58.3448 128.057 58.4667 127.257 58.3943Z" fill="#532525"/>
<path opacity="0.1" d="M127.547 101.488C127.547 101.488 128.077 116.733 128.39 117.201C128.704 117.669 128.39 101.44 128.39 101.44L127.547 101.488Z" fill="black"/>
<path d="M121.412 69.5278H120.158C120.158 69.5278 114.826 76.7061 115.453 77.1742C116.08 77.6424 115.453 78.8908 115.453 78.8908L114.199 81.2315C114.199 81.2315 112.63 82.636 113.101 82.9481C113.571 83.2602 114.199 84.5085 114.199 84.5085C114.199 84.5085 117.335 84.0404 118.276 85.913L120.31 83.3579L121.412 69.5278Z" fill="#D0CDE1"/>
<path d="M135.682 82.9483C135.682 82.9483 132.232 83.1044 128.312 80.6076L124.392 78.8911C124.392 78.8911 120.942 73.5854 120.628 74.5217C120.314 75.458 121.098 77.3306 121.098 77.3306C121.098 77.3306 116.367 79.5095 116.244 79.7975C116.121 80.0855 118.903 79.3592 118.903 79.3592C118.903 79.3592 118.433 82.3241 121.098 82.4802C123.764 82.6362 124.548 82.012 124.548 82.012C124.548 82.012 135.839 91.375 137.721 88.4101C139.603 85.4451 135.682 82.9483 135.682 82.9483Z" fill="#F7A46F"/>
<path d="M139.76 73.7412L141.484 74.3654V79.0469L142.112 79.9832C142.112 79.9832 141.955 81.8558 141.484 82.3239C141.014 82.7921 140.073 82.636 140.387 83.7284C140.575 84.4405 140.628 85.1815 140.544 85.913C140.544 85.913 137.721 89.5022 137.564 89.034C137.407 88.5659 135.212 82.7921 134.898 82.7921C134.585 82.7921 138.035 73.7412 138.035 73.7412H139.76Z" fill="#D0CDE1"/>
<path d="M119.138 97.3828C119.138 97.3828 117.517 95.8224 118.328 95.7443C119.138 95.6663 121.961 94.1058 122.431 94.8861C122.902 95.6663 119.138 97.3828 119.138 97.3828Z" fill="#532525"/>
<path d="M94.3833 143.225C97.2023 138.545 98.6874 133.189 98.6792 127.733C98.6792 111.058 85.0957 97.5413 68.3396 97.5413C51.5835 97.5413 38 111.058 38 127.733C37.9918 133.189 39.4768 138.545 42.2959 143.225H94.3833Z" fill="#395B54"/>
<path d="M68.3396 128.659C69.9564 128.659 71.2671 127.355 71.2671 125.746C71.2671 124.137 69.9564 122.833 68.3396 122.833C66.7228 122.833 65.4121 124.137 65.4121 125.746C65.4121 127.355 66.7228 128.659 68.3396 128.659Z" fill="#86D0C1"/>
<path d="M45.0526 131.97C45.861 131.97 46.5164 131.318 46.5164 130.513C46.5164 129.709 45.861 129.057 45.0526 129.057C44.2442 129.057 43.5889 129.709 43.5889 130.513C43.5889 131.318 44.2442 131.97 45.0526 131.97Z" fill="#86D0C1"/>
<path d="M45.9115 119.354C46.7199 119.354 47.3753 118.702 47.3753 117.898C47.3753 117.093 46.7199 116.441 45.9115 116.441C45.1031 116.441 44.4478 117.093 44.4478 117.898C44.4478 118.702 45.1031 119.354 45.9115 119.354Z" fill="#86D0C1"/>
<path d="M53.1773 108.98C53.9857 108.98 54.6411 108.328 54.6411 107.524C54.6411 106.719 53.9857 106.067 53.1773 106.067C52.3689 106.067 51.7136 106.719 51.7136 107.524C51.7136 108.328 52.3689 108.98 53.1773 108.98Z" fill="#86D0C1"/>
<path d="M64.7744 103.812C65.5828 103.812 66.2382 103.16 66.2382 102.356C66.2382 101.551 65.5828 100.899 64.7744 100.899C63.966 100.899 63.3107 101.551 63.3107 102.356C63.3107 103.16 63.966 103.812 64.7744 103.812Z" fill="#86D0C1"/>
<path d="M77.39 105.326C78.1984 105.326 78.8538 104.674 78.8538 103.869C78.8538 103.065 78.1984 102.413 77.39 102.413C76.5816 102.413 75.9263 103.065 75.9263 103.869C75.9263 104.674 76.5816 105.326 77.39 105.326Z" fill="#86D0C1"/>
<path d="M87.4203 113.089C88.2287 113.089 88.884 112.437 88.884 111.633C88.884 110.828 88.2287 110.176 87.4203 110.176C86.6119 110.176 85.9565 110.828 85.9565 111.633C85.9565 112.437 86.6119 113.089 87.4203 113.089Z" fill="#86D0C1"/>
<path d="M91.9998 124.884C92.8082 124.884 93.4635 124.232 93.4635 123.428C93.4635 122.623 92.8082 121.971 91.9998 121.971C91.1914 121.971 90.536 122.623 90.536 123.428C90.536 124.232 91.1914 124.884 91.9998 124.884Z" fill="#86D0C1"/>
<path d="M89.8203 137.342C90.6287 137.342 91.2841 136.69 91.2841 135.885C91.2841 135.081 90.6287 134.428 89.8203 134.428C89.0119 134.428 88.3566 135.081 88.3566 135.885C88.3566 136.69 89.0119 137.342 89.8203 137.342Z" fill="#86D0C1"/>
<path d="M68.3396 125.746L83.3763 114.358" stroke="#86D0C1" stroke-width="2.88054" stroke-miterlimit="10"/>
<path d="M82.2509 71.4693C83.3353 71.4693 84.2144 70.5945 84.2144 69.5154C84.2144 68.4363 83.3353 67.5615 82.2509 67.5615C81.1664 67.5615 80.2874 68.4363 80.2874 69.5154C80.2874 70.5945 81.1664 71.4693 82.2509 71.4693Z" stroke="#395B54" stroke-width="1.44027" stroke-miterlimit="10"/>
<path d="M93.4286 94.2452C94.513 94.2452 95.3921 93.3704 95.3921 92.2913C95.3921 91.2122 94.513 90.3374 93.4286 90.3374C92.3442 90.3374 91.4651 91.2122 91.4651 92.2913C91.4651 93.3704 92.3442 94.2452 93.4286 94.2452Z" fill="#395B54"/>
<path d="M60.3852 92.7666C63.5289 92.7666 66.0774 90.2306 66.0774 87.1022C66.0774 83.9738 63.5289 81.4377 60.3852 81.4377C57.2414 81.4377 54.6929 83.9738 54.6929 87.1022C54.6929 90.2306 57.2414 92.7666 60.3852 92.7666Z" fill="#F2F2F2"/>
<defs>
<linearGradient id="paint0_linear" x1="84.0505" y1="21.1772" x2="38.4066" y2="121.096" gradientUnits="userSpaceOnUse">
<stop stop-color="#8DCABE"/>
<stop offset="1" stop-color="#4BAC99"/>
</linearGradient>
<linearGradient id="paint1_linear" x1="94.7999" y1="50.3144" x2="38.2536" y2="126.032" gradientUnits="userSpaceOnUse">
<stop offset="0.00359712" stop-color="#417465"/>
<stop offset="1" stop-color="#2A5446"/>
</linearGradient>
</defs>
</svg>
