<svg width="210" height="180" viewBox="0 0 210 180" fill="none" xmlns="http://www.w3.org/2000/svg">
<g clip-path="url(#clip0)">
<g clip-path="url(#clip1)">
<path opacity="0.1" d="M203.026 109.138C202.843 109.274 202.674 109.407 202.494 109.535C201.83 110.012 201.135 110.442 200.413 110.823C196.633 112.844 191.974 113.832 187.436 114.502C177.258 116.008 166.867 116.3 156.52 116.587C128.563 117.366 100.538 118.143 72.6482 116.349C61.6291 115.641 50.3675 114.456 40.3824 110.823C38.9511 110.303 37.548 109.731 36.1731 109.105C33.3907 107.836 30.7186 106.292 28.4964 104.447C26.4083 102.718 24.715 100.732 23.7031 98.4743C21.5929 93.7719 22.7095 88.4901 25.1191 83.8809C26.1198 82.0162 27.2483 80.2251 28.4964 78.5208C30.3568 75.9256 32.4082 73.4048 34.2796 70.8115C40.9388 61.593 45.284 49.9302 39.1372 40.4752C37.3705 37.7588 34.8177 35.3741 33.3779 32.5385C31.5414 28.9111 31.6828 24.8832 32.2668 20.9707C32.3427 20.4739 32.4229 19.982 32.5074 19.4952C33.5046 13.6936 35.3815 7.44299 41.1684 3.82119C47.1793 0.0577972 55.7155 0.24783 63.1754 1.58551C74.7767 3.68705 85.4781 8.06153 96.2934 12.0112C107.109 15.9609 118.423 19.5697 130.309 19.9572C140.805 20.3 153.047 17.7346 160.013 11.0667C166.779 4.59064 179.497 4.09692 188.663 8.00936C194.955 10.694 199.649 15.5306 201.629 20.9707C202.03 22.0629 202.318 23.1942 202.49 24.3466C202.649 25.3998 202.701 26.4667 202.644 27.5306C202.617 28.056 202.564 28.5757 202.49 29.09C200.959 39.8249 189.934 48.2926 183.232 57.8818C179.958 62.5655 177.646 68.192 179.897 73.2428C183.332 80.9391 195.274 83.6759 202.486 89.403C203.844 90.4453 205.039 91.6889 206.031 93.0919C209.53 98.1892 208.238 105.073 203.026 109.138Z" fill="#86D0C1"/>
<path d="M50.3803 61.0941C50.3803 61.0941 41.9323 45.9063 29.2016 41.5319C23.8591 39.6949 19.1962 36.2407 16.008 31.5197C14.4987 29.2783 13.1954 26.901 12.1146 24.4177" stroke="#535461" stroke-width="0.719278" stroke-miterlimit="10"/>
<path d="M4.10923 21.6062C5.56008 23.0277 12.3148 24.5182 12.3148 24.5182C12.3148 24.5182 10.6619 17.7143 9.20741 16.2853C8.50823 15.6136 7.57631 15.2486 6.6136 15.2691C5.6509 15.2897 4.73497 15.6943 4.06431 16.3953C3.39365 17.0962 3.02228 18.037 3.03069 19.0138C3.0391 19.9906 3.4266 20.9247 4.10923 21.6137V21.6062Z" fill="#86D0C1"/>
<path d="M7.931 33.9193C9.9126 34.318 16.379 31.8346 16.379 31.8346C16.379 31.8346 11.3377 27.0353 9.3543 26.6366C8.41164 26.4682 7.44146 26.6811 6.65169 27.2297C5.86192 27.7783 5.3154 28.6189 5.12925 29.5713C4.94311 30.5238 5.13215 31.5123 5.65587 32.3251C6.17959 33.1378 6.99631 33.7101 7.931 33.9193Z" fill="#86D0C1"/>
<path d="M21.8427 47.2475C23.7527 46.5768 28.0869 41.1236 28.0869 41.1236C28.0869 41.1236 21.3505 39.5605 19.4423 40.2312C18.9742 40.3788 18.5399 40.6202 18.1655 40.9413C17.7911 41.2623 17.484 41.6564 17.2626 42.1002C17.0412 42.5439 16.9099 43.0282 16.8765 43.5244C16.8432 44.0206 16.9084 44.5186 17.0684 44.9887C17.2284 45.4588 17.4798 45.8916 17.8078 46.2612C18.1358 46.6309 18.5336 46.9299 18.9778 47.1406C19.4219 47.3513 19.9032 47.4693 20.3931 47.4877C20.883 47.5061 21.3716 47.4244 21.8298 47.2475H21.8427Z" fill="#86D0C1"/>
<path d="M34.6065 54.9214C36.6009 54.5861 41.7873 49.9564 41.7873 49.9564C41.7873 49.9564 35.409 47.2605 33.4146 47.594C32.4567 47.7543 31.6009 48.2941 31.0354 49.0946C30.4699 49.895 30.241 50.8906 30.399 51.8623C30.5571 52.834 31.0892 53.7022 31.8782 54.2759C32.6673 54.8496 33.6486 55.0818 34.6065 54.9214Z" fill="#86D0C1"/>
<path d="M22.0061 26.5171C22.0061 28.5665 18.3515 34.5153 18.3515 34.5153C18.3515 34.5153 14.6894 28.5702 14.6876 26.5209C14.6767 26.0264 14.7632 25.5347 14.9422 25.0746C15.1212 24.6145 15.389 24.1954 15.7299 23.8417C16.0708 23.4881 16.4779 23.2071 16.9273 23.0153C17.3766 22.8234 17.8593 22.7246 18.3469 22.7246C18.8344 22.7246 19.3171 22.8234 19.7665 23.0153C20.2159 23.2071 20.623 23.4881 20.9638 23.8417C21.3047 24.1954 21.5725 24.6145 21.7515 25.0746C21.9305 25.5347 22.017 26.0264 22.0061 26.5209V26.5171Z" fill="#86D0C1"/>
<path d="M36.8232 35.6966C36.2189 37.6528 30.9757 42.2173 30.9757 42.2173C30.9757 42.2173 29.2347 35.4264 29.8315 33.4609C30.1523 32.561 30.8032 31.8214 31.6485 31.3965C32.4938 30.9717 33.4681 30.8942 34.3682 31.1805C35.2684 31.4667 36.0249 32.0944 36.4799 32.9327C36.9349 33.771 37.0532 34.7551 36.8103 35.6798L36.8232 35.6966Z" fill="#86D0C1"/>
<path d="M50.0167 46.6049C49.7486 48.6375 45.3409 54.0348 45.3409 54.0348C45.3409 54.0348 42.4943 47.6483 42.7698 45.6156C42.9124 44.6515 43.4231 43.783 44.1916 43.1976C44.9601 42.6122 45.9247 42.3568 46.8771 42.4867C47.8296 42.6166 48.6935 43.1213 49.2823 43.8918C49.871 44.6623 50.1375 45.6368 50.0241 46.6049H50.0167Z" fill="#86D0C1"/>
<path opacity="0.25" d="M4.10923 21.6062C5.56008 23.0277 12.3148 24.5182 12.3148 24.5182C12.3148 24.5182 10.6619 17.7143 9.20741 16.2853C8.50823 15.6136 7.57631 15.2486 6.6136 15.2691C5.6509 15.2897 4.73497 15.6943 4.06431 16.3953C3.39365 17.0962 3.02228 18.037 3.03069 19.0138C3.0391 19.9906 3.4266 20.9247 4.10923 21.6137V21.6062Z" fill="black"/>
<path opacity="0.25" d="M7.931 33.9193C9.9126 34.318 16.379 31.8346 16.379 31.8346C16.379 31.8346 11.3377 27.0353 9.3543 26.6366C8.41164 26.4682 7.44146 26.6811 6.65169 27.2297C5.86192 27.7783 5.3154 28.6189 5.12925 29.5713C4.94311 30.5238 5.13215 31.5123 5.65587 32.3251C6.17959 33.1378 6.99631 33.7101 7.931 33.9193Z" fill="black"/>
<path opacity="0.25" d="M21.8427 47.2475C23.7527 46.5768 28.0869 41.1236 28.0869 41.1236C28.0869 41.1236 21.3505 39.5605 19.4423 40.2312C18.9742 40.3788 18.5399 40.6202 18.1655 40.9413C17.7911 41.2623 17.484 41.6564 17.2626 42.1002C17.0412 42.5439 16.9099 43.0282 16.8765 43.5244C16.8432 44.0206 16.9084 44.5186 17.0684 44.9887C17.2284 45.4588 17.4798 45.8916 17.8078 46.2612C18.1358 46.6309 18.5336 46.9299 18.9778 47.1406C19.4219 47.3513 19.9032 47.4693 20.3931 47.4877C20.883 47.5061 21.3716 47.4244 21.8298 47.2475H21.8427Z" fill="black"/>
<path opacity="0.25" d="M34.6065 54.9214C36.6009 54.5861 41.7873 49.9564 41.7873 49.9564C41.7873 49.9564 35.409 47.2605 33.4146 47.594C32.4567 47.7543 31.6009 48.2941 31.0354 49.0946C30.4699 49.895 30.241 50.8906 30.399 51.8623C30.5571 52.834 31.0892 53.7022 31.8782 54.2759C32.6673 54.8496 33.6486 55.0818 34.6065 54.9214Z" fill="black"/>
<path opacity="0.25" d="M22.0061 26.5171C22.0061 28.5665 18.3515 34.5153 18.3515 34.5153C18.3515 34.5153 14.6894 28.5702 14.6876 26.5209C14.6767 26.0264 14.7632 25.5347 14.9422 25.0746C15.1212 24.6145 15.389 24.1954 15.7299 23.8417C16.0708 23.4881 16.4779 23.2071 16.9273 23.0153C17.3766 22.8234 17.8593 22.7246 18.3469 22.7246C18.8344 22.7246 19.3171 22.8234 19.7665 23.0153C20.2159 23.2071 20.623 23.4881 20.9638 23.8417C21.3047 24.1954 21.5725 24.6145 21.7515 25.0746C21.9305 25.5347 22.017 26.0264 22.0061 26.5209V26.5171Z" fill="black"/>
<path opacity="0.25" d="M36.8232 35.6966C36.2189 37.6528 30.9757 42.2173 30.9757 42.2173C30.9757 42.2173 29.2347 35.4264 29.8315 33.4609C30.1523 32.561 30.8032 31.8214 31.6485 31.3965C32.4938 30.9717 33.4681 30.8942 34.3682 31.1805C35.2684 31.4667 36.0249 32.0944 36.4799 32.9327C36.9349 33.771 37.0532 34.7551 36.8103 35.6798L36.8232 35.6966Z" fill="black"/>
<path opacity="0.25" d="M50.0167 46.6049C49.7486 48.6375 45.3409 54.0348 45.3409 54.0348C45.3409 54.0348 42.4943 47.6483 42.7698 45.6156C42.9124 44.6515 43.4231 43.783 44.1916 43.1976C44.9601 42.6122 45.9247 42.3568 46.8771 42.4867C47.8296 42.6166 48.6935 43.1213 49.2823 43.8918C49.871 44.6623 50.1375 45.6368 50.0241 46.6049H50.0167Z" fill="black"/>
<path d="M49.8937 60.7919C49.8937 60.7919 48.2408 43.4319 38.3456 34.1985C34.1969 30.3233 31.3136 25.2558 30.2833 19.6219C29.7997 16.9516 29.5587 14.2419 29.5634 11.5269" stroke="#535461" stroke-width="0.719278" stroke-miterlimit="10"/>
<path d="M23.3651 5.67151C24.1218 7.5737 29.7066 11.7004 29.7066 11.7004C29.7066 11.7004 30.9096 4.79773 30.1547 2.89554C29.7919 1.98142 29.0859 1.25098 28.1922 0.864902C27.2984 0.478823 26.2901 0.468732 25.389 0.836848C24.4879 1.20496 23.7679 1.92113 23.3873 2.82781C23.0067 3.73448 22.9968 4.75739 23.3596 5.67151H23.3651Z" fill="#86D0C1"/>
<path d="M21.9345 18.4987C23.5874 19.678 30.4872 20.0637 30.4872 20.0637C30.4872 20.0637 27.8114 13.6063 26.1585 12.427C25.3648 11.8588 24.3811 11.6336 23.4238 11.8012C22.4665 11.9687 21.614 12.5152 21.0539 13.3203C20.4938 14.1255 20.2719 15.1234 20.437 16.0945C20.6021 17.0657 21.1408 17.9305 21.9345 18.4987Z" fill="#86D0C1"/>
<path d="M29.3375 36.3988C31.3577 36.5721 37.499 33.3695 37.499 33.3695C37.499 33.3695 31.9656 29.172 29.9509 29.0006C29.4661 28.9482 28.976 28.9947 28.5091 29.1371C28.0423 29.2795 27.6082 29.5151 27.2324 29.8301C26.8565 30.145 26.5465 30.533 26.3205 30.9711C26.0944 31.4093 25.9569 31.8888 25.9161 32.3816C25.8752 32.8744 25.9318 33.3705 26.0825 33.8408C26.2333 34.3111 26.4751 34.7462 26.7938 35.1204C27.1125 35.4946 27.5017 35.8004 27.9385 36.02C28.3753 36.2395 28.8509 36.3683 29.3375 36.3988Z" fill="#86D0C1"/>
<path d="M37.9398 48.6654C39.8975 49.1796 46.4888 47.0781 46.4888 47.0781C46.4888 47.0781 41.734 41.9919 39.7781 41.4777C38.8445 41.2482 37.8594 41.4003 37.0353 41.9012C36.2112 42.402 35.6143 43.2114 35.3732 44.1547C35.1322 45.0981 35.2664 46.0998 35.7469 46.9436C36.2274 47.7875 37.0157 48.4059 37.9416 48.6654H37.9398Z" fill="#86D0C1"/>
<path d="M37.7653 17.5186C36.9481 19.3929 31.2291 23.3258 31.2291 23.3258C31.2291 23.3258 30.2558 16.3877 31.073 14.5116C31.2623 14.0577 31.5388 13.6466 31.8863 13.3022C32.2338 12.9578 32.6454 12.687 33.0972 12.5056C33.5489 12.3243 34.0317 12.236 34.5174 12.2459C35.0032 12.2558 35.4821 12.3636 35.9263 12.5632C36.3705 12.7628 36.7711 13.0501 37.1047 13.4084C37.4383 13.7666 37.6983 14.1887 37.8695 14.65C38.0407 15.1112 38.1196 15.6024 38.1017 16.0949C38.0838 16.5874 37.9695 17.0714 37.7653 17.5186Z" fill="#86D0C1"/>
<path d="M47.6458 31.991C46.3124 33.5317 39.6955 35.5494 39.6955 35.5494C39.6955 35.5494 40.8121 28.6337 42.1472 27.093C42.4642 26.7267 42.8493 26.4274 43.2803 26.2121C43.7114 25.9968 44.18 25.8697 44.6595 25.8381C45.139 25.8065 45.6199 25.8711 46.0747 26.0281C46.5296 26.185 46.9496 26.4313 47.3106 26.7529C47.6716 27.0745 47.9667 27.4651 48.1789 27.9024C48.3912 28.3397 48.5164 28.8151 48.5476 29.3015C48.5787 29.7879 48.5151 30.2758 48.3603 30.7372C48.2056 31.1987 47.9628 31.6247 47.6458 31.991Z" fill="#86D0C1"/>
<path d="M55.3592 47.3968C54.3013 49.1443 48.1159 52.2668 48.1159 52.2668C48.1159 52.2668 48.0645 45.258 49.1224 43.5104C49.6304 42.6704 50.4465 42.0696 51.3913 41.84C52.336 41.6105 53.3319 41.771 54.1599 42.2864C54.988 42.8018 55.5803 43.6297 55.8065 44.5881C56.0328 45.5465 55.8745 46.5568 55.3665 47.3968H55.3592Z" fill="#86D0C1"/>
<path opacity="0.1" d="M77.9594 159.248C89.2717 159.248 98.4421 158.036 98.4421 156.542C98.4421 155.048 89.2717 153.837 77.9594 153.837C66.6471 153.837 57.4767 155.048 57.4767 156.542C57.4767 158.036 66.6471 159.248 77.9594 159.248Z" fill="#86D0C1"/>
<path opacity="0.1" d="M36.5863 157.414C40.0227 157.414 42.8084 156.931 42.8084 156.334C42.8084 155.737 40.0227 155.253 36.5863 155.253C33.1499 155.253 30.3642 155.737 30.3642 156.334C30.3642 156.931 33.1499 157.414 36.5863 157.414Z" fill="#86D0C1"/>
<path d="M37.938 144.302C37.938 144.302 38.9462 145.642 37.4715 147.656C35.9968 149.669 34.781 151.382 35.2677 152.643C35.2677 152.643 37.4917 148.889 39.308 148.837C41.1243 148.785 39.9324 146.56 37.938 144.302Z" fill="#86D0C1"/>
<path opacity="0.1" d="M37.938 144.302C38.026 144.432 38.0953 144.573 38.1436 144.723C39.9104 146.828 40.8525 148.794 39.1537 148.842C37.5725 148.889 35.6735 151.758 35.2199 152.483C35.2349 152.539 35.2527 152.594 35.2732 152.649C35.2732 152.649 37.4972 148.894 39.3135 148.842C41.1298 148.79 39.9324 146.56 37.938 144.302Z" fill="black"/>
<path d="M39.8131 146.009C39.8131 146.48 39.7616 146.862 39.6974 146.862C39.6331 146.862 39.5798 146.489 39.5798 146.009C39.5798 145.528 39.6459 145.759 39.7102 145.759C39.7745 145.759 39.8131 145.537 39.8131 146.009Z" fill="#898474"/>
<path d="M40.4576 146.571C40.0499 146.797 39.6937 146.933 39.6624 146.875C39.6312 146.817 39.9379 146.588 40.3456 146.363C40.7533 146.137 40.5917 146.301 40.6229 146.363C40.6541 146.424 40.8653 146.346 40.4576 146.571Z" fill="#898474"/>
<path d="M32.6084 144.302C32.6084 144.302 31.6001 145.642 33.0749 147.656C34.5496 149.669 35.7654 151.382 35.2787 152.643C35.2787 152.643 33.0547 148.889 31.2383 148.837C29.422 148.785 30.6176 146.56 32.6084 144.302Z" fill="#86D0C1"/>
<path opacity="0.1" d="M32.6084 144.302C32.5203 144.432 32.451 144.573 32.4027 144.723C30.636 146.828 29.6938 148.794 31.3926 148.842C32.9757 148.889 34.8728 151.758 35.3264 152.483C35.3123 152.539 35.2945 152.595 35.2732 152.649C35.2732 152.649 33.0491 148.894 31.2328 148.842C29.4165 148.79 30.6176 146.56 32.6084 144.302Z" fill="black"/>
<path d="M30.7333 146.009C30.7333 146.48 30.7847 146.862 30.849 146.862C30.9133 146.862 30.9665 146.489 30.9665 146.009C30.9665 145.528 30.9004 145.759 30.8361 145.759C30.7718 145.759 30.7333 145.537 30.7333 146.009Z" fill="#898474"/>
<path d="M30.0905 146.571C30.4982 146.797 30.8527 146.933 30.8839 146.875C30.9151 146.817 30.6084 146.588 30.2007 146.363C29.793 146.137 29.9546 146.301 29.9234 146.363C29.8922 146.424 29.6828 146.346 30.0905 146.571Z" fill="#898474"/>
<path d="M31.0547 152.473C31.0547 152.473 33.8756 152.384 34.7277 151.771C35.5799 151.158 39.0656 150.422 39.2768 151.408C39.488 152.393 43.5155 156.306 40.331 156.332C37.1464 156.358 32.9316 155.829 32.0831 155.305C31.2347 154.782 31.0547 152.473 31.0547 152.473Z" fill="#A8A8A8"/>
<path opacity="0.2" d="M40.386 155.989C37.2015 156.015 32.9867 155.486 32.1382 154.962C31.4918 154.562 31.2347 153.129 31.1483 152.47H31.0547C31.0547 152.47 31.2383 154.776 32.0813 155.302C32.9243 155.827 37.1446 156.354 40.3291 156.328C41.2474 156.328 41.5669 155.989 41.5486 155.497C41.4218 155.799 41.0711 155.983 40.386 155.989Z" fill="black"/>
<path d="M125.257 152.364C125.257 152.364 117.492 151.889 118.409 157.409C118.409 157.409 118.225 158.383 119.097 158.827C119.097 158.827 119.112 158.419 119.895 158.557C120.173 158.604 120.456 158.618 120.738 158.598C121.119 158.572 121.482 158.42 121.77 158.165C121.77 158.165 123.951 157.252 124.8 153.633C124.8 153.633 125.428 152.843 125.404 152.639L124.093 153.198C124.093 153.198 124.541 154.158 124.188 154.955C124.188 154.955 124.146 153.234 123.894 153.279C123.843 153.279 123.213 153.61 123.213 153.61C123.213 153.61 123.984 155.287 123.397 156.494C123.397 156.494 123.617 154.445 122.967 153.731L122.049 154.277C122.049 154.277 122.949 156.002 122.339 157.411C122.339 157.411 122.495 155.252 121.856 154.409L121.02 155.071C121.02 155.071 121.865 156.772 121.349 157.94C121.349 157.94 121.283 155.427 120.839 155.237C120.839 155.237 120.104 155.891 119.996 156.168C119.996 156.168 120.574 157.401 120.216 158.054C120.216 158.054 119.996 156.377 119.814 156.377C119.814 156.377 119.079 157.495 119.009 158.24C119.009 158.24 119.042 157.109 119.637 156.263C119.217 156.344 118.83 156.548 118.523 156.85C118.523 156.85 118.637 156.066 119.808 155.997C119.808 155.997 120.411 155.155 120.572 155.104C120.572 155.104 119.397 155.004 118.684 155.324C118.684 155.324 119.311 154.579 120.787 154.92L121.612 154.238C121.612 154.238 120.065 154.022 119.408 154.26C119.408 154.26 120.165 153.605 121.834 154.074L122.734 153.53C122.734 153.53 121.413 153.241 120.627 153.344C120.627 153.344 121.457 152.889 122.996 153.381L123.639 153.088C123.639 153.088 122.671 152.902 122.389 152.867C122.106 152.831 122.091 152.757 122.091 152.757C122.703 152.653 123.332 152.724 123.907 152.962C123.907 152.962 125.281 152.451 125.257 152.364Z" fill="#86D0C1"/>
<path opacity="0.1" d="M119.909 160.25C122.944 160.25 125.404 159.828 125.404 159.307C125.404 158.787 122.944 158.365 119.909 158.365C116.874 158.365 114.414 158.787 114.414 159.307C114.414 159.828 116.874 160.25 119.909 160.25Z" fill="#86D0C1"/>
<path d="M111.654 152.658C111.654 152.658 107.276 152.39 107.797 155.503C107.771 155.661 107.794 155.823 107.864 155.966C107.934 156.11 108.047 156.227 108.187 156.302C108.187 156.302 108.187 156.071 108.637 156.149C108.793 156.175 108.952 156.183 109.11 156.174C109.325 156.158 109.529 156.072 109.693 155.929C109.693 155.929 110.923 155.413 111.402 153.373C111.402 153.373 111.755 152.928 111.742 152.814L111.008 153.133C111.008 153.133 111.259 153.675 111.061 154.124C111.061 154.124 111.037 153.153 110.896 153.176C110.866 153.176 110.512 153.362 110.512 153.362C110.512 153.362 110.945 154.294 110.618 154.989C110.618 154.989 110.741 153.828 110.376 153.429L109.856 153.738C109.856 153.738 110.363 154.711 110.02 155.505C110.02 155.505 110.108 154.286 109.746 153.813L109.276 154.186C109.276 154.186 109.751 155.145 109.459 155.803C109.459 155.803 109.421 154.385 109.171 154.279C108.992 154.432 108.833 154.606 108.695 154.799C108.695 154.799 109.022 155.495 108.82 155.862C108.82 155.862 108.695 154.918 108.594 154.914C108.594 154.914 108.183 155.54 108.141 155.969C108.159 155.571 108.281 155.185 108.493 154.851C108.257 154.896 108.038 155.011 107.865 155.181C107.865 155.181 107.93 154.737 108.6 154.7C108.6 154.7 108.938 154.225 109.03 154.197C109.03 154.197 108.367 154.139 107.964 154.32C107.964 154.32 108.319 153.902 109.151 154.092L109.616 153.707C109.616 153.707 108.743 153.586 108.374 153.72C108.374 153.72 108.8 153.347 109.742 153.619L110.247 153.314C109.858 153.226 109.459 153.191 109.061 153.209C109.061 153.209 109.529 152.954 110.396 153.23L110.763 153.066C110.763 153.066 110.212 152.956 110.06 152.939C109.908 152.922 109.891 152.878 109.891 152.878C110.237 152.819 110.591 152.859 110.916 152.993C110.916 152.993 111.667 152.708 111.654 152.658Z" fill="#86D0C1"/>
<path opacity="0.1" d="M108.638 157.105C110.35 157.105 111.737 156.867 111.737 156.574C111.737 156.281 110.35 156.043 108.638 156.043C106.927 156.043 105.54 156.281 105.54 156.574C105.54 156.867 106.927 157.105 108.638 157.105Z" fill="#86D0C1"/>
<path d="M119.986 146.061C119.986 146.061 114.703 145.737 115.325 149.494C115.293 149.685 115.322 149.881 115.406 150.054C115.49 150.228 115.627 150.369 115.795 150.459C115.795 150.459 115.795 150.182 116.337 150.273C116.527 150.304 116.719 150.313 116.91 150.301C117.17 150.282 117.416 150.179 117.614 150.007C117.614 150.007 119.099 149.384 119.676 146.92C119.676 146.92 120.104 146.383 120.087 146.245L119.195 146.631C119.195 146.631 119.5 147.285 119.261 147.827C119.261 147.827 119.232 146.655 119.059 146.683C119.026 146.683 118.596 146.908 118.596 146.908C118.596 146.908 119.121 148.047 118.725 148.872C118.725 148.872 118.875 147.471 118.433 146.99L117.805 147.363C117.805 147.363 118.418 148.537 118.003 149.496C118.003 149.496 118.109 148.026 117.672 147.447L117.103 147.896C117.103 147.896 117.68 149.053 117.329 149.848C117.329 149.848 117.283 148.138 116.98 148.008C116.98 148.008 116.482 148.453 116.407 148.635C116.407 148.635 116.802 149.476 116.556 149.919C116.556 149.919 116.407 148.781 116.284 148.775C116.284 148.775 115.788 149.52 115.733 150.048C115.757 149.569 115.904 149.105 116.159 148.703C115.873 148.758 115.61 148.896 115.401 149.101C115.401 149.101 115.478 148.567 116.282 148.52C116.282 148.52 116.692 147.948 116.802 147.913C116.802 147.913 116.001 147.846 115.516 148.064C115.516 148.064 115.942 147.559 116.949 147.788L117.511 147.324C117.511 147.324 116.457 147.177 116.01 147.339C116.01 147.339 116.525 146.894 117.663 147.218L118.275 146.845C118.275 146.845 117.377 146.659 116.842 146.72C116.842 146.72 117.406 146.411 118.455 146.744L118.892 146.547C118.892 146.547 118.232 146.415 118.04 146.394C117.847 146.374 117.838 146.32 117.838 146.32C118.254 146.249 118.682 146.298 119.074 146.459C119.074 146.459 120.005 146.12 119.986 146.061Z" fill="#86D0C1"/>
<path opacity="0.1" d="M116.348 151.428C118.414 151.428 120.089 151.141 120.089 150.787C120.089 150.433 118.414 150.146 116.348 150.146C114.282 150.146 112.607 150.433 112.607 150.787C112.607 151.141 114.282 151.428 116.348 151.428Z" fill="#86D0C1"/>
<path d="M202.832 109.498V18.3701H28.1144V104.271C30.3458 106.16 33.0289 107.749 35.8278 109.055C37.2064 109.7 38.6144 110.289 40.0518 110.823H200.747L202.832 109.498Z" fill="url(#paint0_linear)"/>
<path d="M202.494 109.536V20.9785H28.4964V104.463C30.7186 106.3 33.3908 107.844 36.1731 109.12C37.5468 109.741 38.9499 110.314 40.3824 110.838H200.413L202.494 109.536Z" fill="white"/>
<path d="M202.494 18.6289H28.4983V23.3127H202.494V18.6289Z" fill="#C1C1C1"/>
<path d="M31.9729 22.182C32.6322 22.182 33.1667 21.6398 33.1667 20.971C33.1667 20.3022 32.6322 19.76 31.9729 19.76C31.3136 19.76 30.7792 20.3022 30.7792 20.971C30.7792 21.6398 31.3136 22.182 31.9729 22.182Z" fill="white"/>
<path d="M35.1868 22.182C35.8461 22.182 36.3806 21.6398 36.3806 20.971C36.3806 20.3022 35.8461 19.76 35.1868 19.76C34.5276 19.76 33.9931 20.3022 33.9931 20.971C33.9931 21.6398 34.5276 22.182 35.1868 22.182Z" fill="white"/>
<path d="M38.4007 22.182C39.06 22.182 39.5945 21.6398 39.5945 20.971C39.5945 20.3022 39.06 19.76 38.4007 19.76C37.7415 19.76 37.207 20.3022 37.207 20.971C37.207 21.6398 37.7415 22.182 38.4007 22.182Z" fill="white"/>
<path d="M101.704 33.606H72.9623V51.9274H101.704V33.606Z" fill="#86D0C1"/>
<path opacity="0.2" d="M61.9082 33.6062H33.1667V51.9276H61.9082V33.6062Z" fill="#C1C1C1"/>
<path opacity="0.2" d="M141.499 33.606H112.758V51.9274H141.499V33.606Z" fill="#C1C1C1"/>
<path opacity="0.2" d="M61.9082 59.7988H33.1667V78.1202H61.9082V59.7988Z" fill="#C1C1C1"/>
<path opacity="0.2" d="M101.704 59.7988H72.9622V78.1202H101.704V59.7988Z" fill="#C1C1C1"/>
<path opacity="0.2" d="M141.499 59.7988H112.758V78.1202H141.499V59.7988Z" fill="#C1C1C1"/>
<path opacity="0.2" d="M61.9082 85.99H33.1667V104.311H61.9082V85.99Z" fill="#C1C1C1"/>
<path opacity="0.2" d="M101.704 85.99H72.9622V104.311H101.704V85.99Z" fill="#C1C1C1"/>
<path opacity="0.2" d="M141.499 85.99H112.758V104.311H141.499V85.99Z" fill="#C1C1C1"/>
<path d="M76.324 134.12C76.1206 134.558 75.9704 135.024 75.8773 135.505C75.7286 136.279 75.6636 137.07 75.6838 137.861C75.6957 138.409 75.7374 138.768 75.7374 138.768L72.3904 141.31C72.3904 141.31 72.4097 141.012 72.4425 140.575C72.5288 139.411 72.709 137.25 72.8787 136.97C72.9964 136.776 73.0782 135.997 73.1304 135.273C73.1825 134.549 73.2033 133.915 73.2033 133.915C73.2033 133.915 77.2307 132.247 76.324 134.12Z" fill="#F9B776"/>
<path d="M84.2286 135.944C84.2286 135.944 84.2286 136.651 84.2047 137.473C84.1809 138.295 84.1362 139.266 84.0424 139.718C83.9561 140.132 83.9501 140.894 83.9665 141.596C83.9888 142.418 84.0424 143.158 84.0424 143.158C84.0424 143.158 80.6255 139.59 80.9739 139.307C81.0677 139.231 81.16 138.927 81.2448 138.522C81.3491 138.029 81.4429 137.371 81.5128 136.812C81.5962 136.146 81.6483 135.61 81.6483 135.61L84.2286 135.944Z" fill="#F9B776"/>
<path d="M91.2247 100.964C89.8609 104.253 89.3026 108.154 89.3026 108.154L88.8068 111.443C88.8068 111.443 89.0554 112.88 88.8068 113.428C88.5581 113.976 88.0623 114.867 88.0623 114.867C88.0623 114.867 88.4346 118.222 88.0623 118.564C87.6901 118.906 88.0623 120.96 88.0623 120.96L86.8221 127.867L85.086 136.768C83.4125 138.276 81.1852 136.358 81.1852 136.358L81.6765 130.538C81.6765 130.538 82.4209 120.342 82.1113 119.924C81.8016 119.506 82.2348 118.212 82.2348 118.212C82.2348 118.212 82.6696 116.979 82.3599 116.5C82.0502 116.021 82.4209 114.994 82.4209 114.994C82.4209 114.994 82.2974 110.816 82.6696 109.858C83.0418 108.899 82.6696 102.969 82.6696 102.969L82.5207 101.122L82.4343 100.099L82.4269 99.9985C82.4269 99.9985 82.3703 100.408 82.278 101.043C82.0041 102.975 81.4204 106.98 81.1896 107.804C81.0328 108.397 80.8197 108.971 80.5539 109.516C80.5539 109.516 80.8755 111.57 80.5539 112.117C80.2323 112.665 80.5048 113.282 80.5048 113.282C80.5048 113.282 80.8144 114.994 79.8839 115.678C78.9533 116.362 79.8839 116.706 79.8839 116.706C79.8839 116.706 79.202 118.35 78.9548 119.033C78.7077 119.715 78.9548 120.677 78.9548 120.677L78.459 126.223C78.459 126.223 78.0243 128.55 78.0868 130.125C78.1493 131.701 77.5285 135.329 77.5285 135.329C77.5285 135.329 72.7551 135.329 72.0196 134.712C71.2841 134.095 73.2479 128.079 73.2479 128.079C73.2479 128.079 73.8063 117.534 73.6812 117.261C73.5561 116.988 73.6812 114.933 74.1159 114.523C74.5507 114.114 74.1159 113.29 74.1159 113.29C74.1159 113.29 73.9924 111.645 74.1159 111.236C74.2395 110.826 74.0966 109.455 74.0966 109.455C74.0966 109.455 73.6812 106.1 73.6202 104.182C73.5591 102.265 73.2479 97.9526 73.2479 97.9526C73.2479 97.9526 73.5725 95.2852 73.6216 94.0156C73.6395 93.5485 73.8286 92.9647 74.0683 92.4154C74.3366 91.7952 74.6451 91.1972 74.9914 90.6261C74.9914 90.6261 89.6793 85.8306 90.2957 86.3075C90.4594 86.4342 90.6977 87.2943 90.9329 88.5392C91.588 92.0174 92.2282 98.5463 91.2247 100.964Z" fill="#444053"/>
<path d="M76.0694 141.053C75.5965 142.245 75.3584 143.535 75.3711 144.836C75.39 145.903 75.145 146.955 74.6624 147.88C74.5926 148.01 74.514 148.134 74.4272 148.252C74.4272 148.252 72.1016 148.23 71.2871 147.485C71.1956 147.405 71.121 147.304 71.0683 147.189C70.6022 146.163 71.975 142.234 71.975 142.234C72.6956 139.205 74.1592 137.587 74.1592 137.587C76.7662 136.842 76.0694 141.053 76.0694 141.053Z" fill="#444053"/>
<path d="M74.3438 142.612L74.1815 149.246H74.9617C74.9617 149.246 75.0882 143.426 75.4366 142.612C75.785 141.798 74.3438 142.612 74.3438 142.612Z" fill="#444053"/>
<path d="M84.5531 147.138C84.5268 147.151 84.4993 147.16 84.4712 147.165C84.0692 147.242 82.5877 147.198 81.7584 147.165C81.6065 147.159 81.4624 147.089 81.3566 146.968C81.2508 146.848 81.1915 146.686 81.1912 146.518C81.1912 146.272 81.1912 145.971 81.1733 145.65C81.1346 144.637 81.0244 143.432 80.6954 143.16C80.1132 142.667 79.6532 140.993 80.6954 138.873C80.6954 138.873 82.6934 137.187 84.1347 142.254C84.1347 142.254 84.2746 143.7 84.9015 144.213C85.5283 144.726 84.833 146.992 84.5531 147.138Z" fill="#444053"/>
<path opacity="0.1" d="M84.4682 147.164C84.0662 147.242 82.5848 147.197 81.7555 147.164C81.6035 147.159 81.4595 147.088 81.3537 146.968C81.2478 146.847 81.1885 146.686 81.1882 146.518C81.1882 146.271 81.1882 145.97 81.1703 145.65C81.422 144.423 81.7838 143.16 82.2498 142.872C82.2528 142.87 83.6627 142.695 84.4682 147.164Z" fill="black"/>
<path d="M80.9485 142.723L81.3237 148.243H81.8001V142.252L80.9485 142.723Z" fill="#444053"/>
<path d="M94.6607 49.6549L92.6772 50.3666L91.9573 49.1556C91.4064 48.2241 90.6424 46.9498 90.0786 46.0238C89.0832 44.3955 90.3853 41.9139 90.3853 41.9139C90.3853 41.9139 90.6203 39.423 91.4578 38.6554C92.2952 37.8878 92.5285 41.9139 92.5285 41.9139C95.8912 43.464 94.0895 47.11 94.0895 47.11L94.4164 48.5557L94.6607 49.6549Z" fill="#F9B776"/>
<path opacity="0.1" d="M94.6607 49.6548L92.6773 50.3665L91.9574 49.1555V49.0493C91.9574 49.0493 93.0942 48.2575 94.4202 48.5556L94.6607 49.6548Z" fill="black"/>
<path d="M91.4578 57.8149L92.4514 56.9616L91.9537 49.282C91.9537 49.282 94.5248 47.4972 96.4274 50.29C96.4274 50.29 96.3503 51.9965 96.4274 52.4623C96.5046 52.9281 95.893 53.3938 96.4274 53.8577C96.9619 54.3216 96.4274 55.8754 96.4274 55.8754C96.4274 55.8754 97.0317 56.9616 97.4137 57.2709C97.7957 57.5801 98.1795 60.1419 97.4137 60.684C96.6478 61.2262 95.2117 62.4688 95.2117 63.011C95.2117 63.5531 93.3752 64.874 93.3752 64.874L91.7627 62.711L91.4578 57.8149Z" fill="#FF6484"/>
<path d="M69.9705 104.433C66.2645 102.838 67.0872 98.9424 67.7851 96.9806C67.9246 96.5831 68.0883 96.1948 68.2754 95.818L70.3544 94.5381C70.3544 94.5381 70.7786 95.6354 71.2322 97.1073C72.2845 100.532 73.4948 105.951 69.9705 104.433Z" fill="#F9B776"/>
<path opacity="0.1" d="M75.065 139.978C74.8141 140.474 74.6289 141.001 74.5141 141.547C73.3841 141.517 72.2562 141.429 71.1349 141.284C71.1973 140.483 71.2249 139.745 71.2249 139.745C71.2249 139.745 76.1835 137.856 75.065 139.978Z" fill="black"/>
<path opacity="0.1" d="M84.8152 142.044C84.8152 142.044 84.8151 142.845 84.7858 143.777C83.4708 144.118 82.1191 143.436 81.4653 143.032C81.5682 142.277 81.6325 141.67 81.6325 141.67L84.8152 142.044Z" fill="black"/>
<path d="M83.3793 57.0373C85.7627 57.0373 87.6949 55.0235 87.6949 52.5393C87.6949 50.0551 85.7627 48.0413 83.3793 48.0413C80.9958 48.0413 79.0636 50.0551 79.0636 52.5393C79.0636 55.0235 80.9958 57.0373 83.3793 57.0373Z" fill="#F9B776"/>
<path opacity="0.1" d="M93.085 88.3451C92.4771 88.6618 92.0694 88.8798 92.0694 88.8798C92.0694 88.8798 83.5057 92.9916 81.0705 92.7587C79.1862 92.5724 74.3764 92.6786 72.2809 92.7307C72.6118 92.0281 72.9924 91.3507 73.4195 90.7037C73.4195 90.7037 91.5386 85.2729 92.299 85.8132C92.501 85.9604 92.7948 86.931 93.085 88.3451Z" fill="black"/>
<path d="M78.6114 58.2025C78.6114 58.2025 72.426 56.9692 71.2726 57.7368C70.1193 58.5043 69.1331 62.0032 69.1331 65.1834C69.1331 68.3637 68.5987 71.6222 68.292 72.5519C67.9853 73.4815 73.1091 81.0065 73.1091 81.0065L71.2726 92.4103C71.2726 92.4103 78.6187 92.1774 81.065 92.4103C83.5112 92.6432 92.0712 88.5314 92.0712 88.5314C92.0712 88.5314 97.118 85.8169 98.1887 85.7368C99.2594 85.6567 96.0473 79.7638 96.0473 79.7638C96.0473 79.7638 91.0758 70.2249 91.917 68.673C92.7581 67.121 93.3752 64.8723 93.3752 64.8723L92.4569 56.9617C92.4569 56.9617 89.9217 55.0595 88.7739 55.9127C87.6261 56.766 84.8868 57.7368 84.8868 57.7368L78.6114 58.2025Z" fill="#FF6484"/>
<path opacity="0.1" d="M70.3158 72.0098L68.3985 72.552L67.8678 79.8514C67.8678 79.8514 68.5565 81.7909 67.8678 82.4113C67.1791 83.0317 67.0266 96.2967 67.0266 96.2967C67.0266 96.2967 69.2452 97.925 71.8438 96.6842C71.8438 96.6842 71.4618 95.2106 72.6097 89.858C73.7575 84.5054 73.7556 81.7909 73.7556 81.7909C73.7556 81.7909 73.7556 75.1193 74.2919 74.0331C74.8282 72.9469 74.2919 70.2324 74.2919 70.2324C74.2919 70.2324 73.2212 68.7587 73.2965 68.2166C73.3718 67.6744 70.3158 72.0098 70.3158 72.0098Z" fill="black"/>
<path opacity="0.1" d="M71.2322 97.1126C70.1063 97.4972 68.8807 97.4521 67.7851 96.9859C67.9246 96.5884 68.0883 96.2002 68.2754 95.8234L70.3544 94.5435C70.3544 94.5435 70.786 95.6408 71.2322 97.1126Z" fill="black"/>
<path d="M70.2001 72.0096L68.2883 72.5518L67.7538 79.8513C67.7538 79.8513 68.4425 81.7907 67.7538 82.4111C67.0651 83.0315 66.9127 96.2965 66.9127 96.2965C66.9127 96.2965 69.1331 97.923 71.7299 96.6766C71.7299 96.6766 71.3479 95.2029 72.4939 89.8503C73.6399 84.4977 73.6417 81.7833 73.6417 81.7833C73.6417 81.7833 73.6417 75.1116 74.1762 74.0254C74.7106 72.9393 74.1762 70.2248 74.1762 70.2248C74.1762 70.2248 73.1055 68.7511 73.1826 68.209C73.2597 67.6668 70.2001 72.0096 70.2001 72.0096Z" fill="#FF6484"/>
<path opacity="0.1" d="M89.7756 73.1724C89.7756 73.1724 88.782 81.8598 85.8748 83.49C85.8748 83.49 92.3743 81.6288 89.7756 73.1724Z" fill="black"/>
<path opacity="0.1" d="M75.1716 73.9492C75.1716 73.9492 78.7638 75.7322 77.9264 76.973C77.0889 78.2138 75.1716 73.9492 75.1716 73.9492Z" fill="black"/>
<path opacity="0.1" d="M75.1716 77.5168C75.1716 77.5168 77.4654 79.9221 77.0081 80.7754C76.5508 81.6286 75.1716 77.5168 75.1716 77.5168Z" fill="black"/>
<path opacity="0.1" d="M93.6745 57.582C93.6745 57.582 94.5744 59.1321 94.6607 60.1419C94.747 61.1517 93.6745 57.582 93.6745 57.582Z" fill="black"/>
<path opacity="0.1" d="M93.6745 55.488C93.6745 55.488 94.1263 55.0986 95.2796 55.488C96.4329 55.8774 93.6745 55.488 93.6745 55.488Z" fill="black"/>
<path opacity="0.1" d="M89.2595 100.826C87.365 101.099 85.433 100.847 83.6673 100.099L82.7031 102.603L82.5966 101.444C82.7546 100.472 83.0613 99.4304 83.6673 99.1677C83.6673 99.1677 85.7903 100.884 89.2595 100.826Z" fill="black"/>
<path opacity="0.1" d="M73.5738 104.084C73.5738 104.084 78.2771 105.074 79.5957 104.898L73.5738 104.084Z" fill="black"/>
<path opacity="0.1" d="M74.0623 105.334C74.0623 105.334 76.0696 105.247 77.0724 105.655L74.0623 105.334Z" fill="black"/>
<path opacity="0.1" d="M74.2919 106.178C75.2078 106.376 76.1375 106.5 77.0724 106.551L74.2919 106.178Z" fill="black"/>
<path opacity="0.1" d="M74.1761 116.854C74.2625 116.796 78.1908 115.864 78.6793 116.533L74.1761 116.854Z" fill="black"/>
<path opacity="0.1" d="M74.1761 118.076C74.1761 118.076 77.5884 117.668 77.6747 118.076C77.761 118.484 74.1761 118.076 74.1761 118.076Z" fill="black"/>
<path opacity="0.1" d="M74.1761 119.181C74.1761 119.181 77.818 118.417 78.2477 118.603C78.6775 118.79 74.1761 119.181 74.1761 119.181Z" fill="black"/>
<path opacity="0.1" d="M74.3488 145.245L70.2203 148.125C70.2203 148.125 70.2441 147.788 70.2845 147.292C71.2028 145.001 72.3984 143.792 72.3984 143.792C73.3295 143.546 73.9172 143.773 74.2827 144.218C74.2973 144.837 74.3488 145.245 74.3488 145.245Z" fill="black"/>
<path opacity="0.1" d="M73.0155 155.557C72.9294 155.705 72.8324 155.845 72.7253 155.978C72.7253 155.978 69.8567 155.954 68.8521 155.11C69.3461 153.452 70.9218 148.435 71.6601 149.288C72.3543 150.089 72.8373 153.944 73.0155 155.557Z" fill="black"/>
<path opacity="0.1" d="M84.5856 150.218C84.5856 150.218 80.3708 146.175 80.8005 145.854C80.9162 145.769 81.0301 145.424 81.1348 144.966C81.9447 144.822 83.3386 145.165 84.4919 148.448C84.5195 149.379 84.5856 150.218 84.5856 150.218Z" fill="black"/>
<path d="M82.045 45.802C81.141 45.8704 80.2658 46.1562 79.4917 46.6359C79.2924 46.7585 79.0931 46.9074 79.0103 47.1273C78.9386 47.3178 78.9685 47.5326 78.9715 47.7352C78.9984 49.48 77.0849 50.8002 77.1447 52.545C77.1686 53.236 77.5104 53.8804 77.5732 54.5714C77.6779 55.7225 77.0081 56.7813 76.3663 57.7357C77.0274 57.7752 77.6782 57.5558 78.1851 57.1227C78.8623 59.4171 78.9497 61.8495 78.4393 64.188H79.3572C79.4479 64.1816 79.5389 64.1933 79.6252 64.2224C79.706 64.2606 79.7782 64.3151 79.8375 64.3825C80.6956 65.2519 81.2706 66.5346 80.9428 67.7201L82.8961 66.9754C83.3635 66.797 83.8379 66.6157 84.2445 66.3218C84.6511 66.028 84.992 65.6014 85.0777 65.1009C85.1305 64.7969 85.1136 64.4342 85.3597 64.2579C85.481 64.1923 85.6104 64.1436 85.7444 64.113C86.2806 63.9205 86.5178 63.2903 86.6274 62.7229C86.7621 62.0262 86.805 61.3144 86.755 60.6062C86.6683 59.4207 86.3235 58.217 86.6075 57.0599C86.768 56.4104 87.1247 55.8056 87.1536 55.1348C87.2005 54.0294 86.3504 53.0769 86.2238 51.9776C86.1351 51.2116 86.4072 50.4375 86.3185 49.6705C86.2691 49.2752 86.1267 48.8978 85.9034 48.5702C85.6802 48.2427 85.3826 47.9747 85.0358 47.7889C84.7957 47.6633 84.5375 47.5792 84.3003 47.4414C83.7592 47.1212 83.4134 46.5467 82.922 46.1515C82.4307 45.7564 81.6125 45.6074 81.2427 46.1211L82.045 45.802Z" fill="#925978"/>
<g opacity="0.1">
<path opacity="0.1" d="M76.5376 43.6726C76.5304 43.7444 76.5268 43.8165 76.5269 43.8887C76.5322 43.8179 76.5358 43.7453 76.5376 43.6726Z" fill="black"/>
<path opacity="0.1" d="M89.8857 51.1302C89.9518 50.1428 90.1685 49.1517 90.0877 48.168C90.0271 49.1554 89.8104 50.1465 89.8857 51.1302Z" fill="black"/>
<path opacity="0.1" d="M73.9649 56.0395C73.8584 54.8844 73.3276 53.8039 73.2028 52.6506C73.1778 52.862 73.1686 53.075 73.1752 53.2878C73.2193 54.5454 73.8345 55.721 73.9594 56.9729C73.9898 56.6627 73.9916 56.3502 73.9649 56.0395Z" fill="black"/>
<path opacity="0.1" d="M90.6203 60.6283C90.4484 61.3864 90.3865 62.1659 90.4367 62.9422C90.455 62.4895 90.5165 62.0396 90.6203 61.5989C90.916 60.4047 91.5735 59.2925 91.6267 58.0591C91.6354 57.8401 91.6256 57.6207 91.5974 57.4033C91.4541 58.5118 90.8829 59.544 90.6203 60.6283Z" fill="black"/>
<path opacity="0.1" d="M75.0926 60.729C74.3266 61.3802 73.3785 61.7712 72.3819 61.8468C72.1725 62.1785 71.9558 62.5026 71.741 62.8231C72.9591 62.8956 74.1584 62.4923 75.0926 61.6959C75.7635 63.9607 76.1232 66.3086 76.1615 68.6731C76.2159 65.9847 75.8553 63.3042 75.0926 60.729Z" fill="black"/>
<path opacity="0.1" d="M90.6553 71.0296C90.4532 72.073 90.0161 73.2318 89.0281 73.5839C88.7808 73.6398 88.5422 73.7301 88.3192 73.8522C87.8656 74.1764 87.8968 74.8471 87.7995 75.4023C87.6415 76.3226 87.0153 77.1051 86.2641 77.6379C85.513 78.1708 84.6407 78.5136 83.7793 78.8415L80.345 80.1456C80.3272 80.4954 80.2718 80.8421 80.1797 81.1796L83.7793 79.8103C84.6407 79.4824 85.5148 79.1489 86.2641 78.6086C87.0134 78.0683 87.6415 77.284 87.7995 76.3636C87.8968 75.8047 87.8656 75.1377 88.3192 74.8135C88.5427 74.6929 88.7811 74.6033 89.0281 74.5471C90.0161 74.1931 90.4532 73.0343 90.6553 71.991C90.8644 70.9053 90.9512 69.799 90.9142 68.6934C90.89 69.4779 90.8034 70.2592 90.6553 71.0296Z" fill="black"/>
<path opacity="0.1" d="M78.1431 74.0758C78.0338 73.9512 77.9007 73.8504 77.7519 73.7795C77.5927 73.7267 77.425 73.7052 77.2579 73.7162H75.7574C75.6987 74.0404 75.6362 74.3645 75.5738 74.6869H77.2652C77.4324 74.6751 77.6002 74.6966 77.7592 74.7502C77.908 74.8204 78.0411 74.9205 78.1504 75.0446C79.3074 76.2146 80.1835 77.7907 80.334 79.4079C80.5195 77.474 79.5315 75.4842 78.1431 74.0758Z" fill="black"/>
</g>
<path opacity="0.1" d="M69.752 80.4251C69.752 80.4251 71.1184 79.8438 71.4232 80.4251C71.7281 81.0064 69.752 80.4251 69.752 80.4251Z" fill="black"/>
<path opacity="0.1" d="M70.235 81.4219C70.235 81.4219 71.6014 80.8406 71.9081 81.4219C72.2147 82.0032 70.235 81.4219 70.235 81.4219Z" fill="black"/>
<path opacity="0.1" d="M154.919 6.20058C154.919 6.20058 147.931 5.77393 148.755 10.7409C148.755 10.7409 148.592 11.6184 149.376 12.0171C149.376 12.0171 149.389 11.6445 150.092 11.773C150.343 11.8158 150.597 11.8283 150.851 11.8103C151.193 11.7862 151.518 11.6495 151.776 11.4209C151.776 11.4209 153.74 10.5993 154.504 7.34264C154.504 7.34264 155.069 6.63094 155.055 6.44836L153.876 6.96071C153.876 6.96071 154.278 7.82331 153.96 8.54059C153.96 8.54059 153.923 6.99052 153.696 7.02778C153.65 7.02778 153.084 7.32587 153.084 7.32587C153.084 7.32587 153.776 8.82936 153.253 9.92298C153.253 9.92298 153.451 8.0711 152.867 7.43579L152.034 7.93695C152.034 7.93695 152.843 9.48889 152.294 10.7558C152.294 10.7558 152.436 8.8126 151.859 8.05619L151.106 8.65051C151.106 8.65051 151.868 10.1726 151.409 11.2234C151.409 11.2234 151.349 8.95978 150.948 8.79024C150.948 8.79024 150.291 9.37897 150.192 9.62117C150.192 9.62117 150.711 10.739 150.388 11.3166C150.388 11.3166 150.19 9.8112 150.021 9.80375C150.021 9.80375 149.365 10.8024 149.297 11.4805C149.329 10.8477 149.523 10.2344 149.861 9.70128C149.483 9.77391 149.134 9.95793 148.858 10.2304C148.858 10.2304 148.959 9.52429 150.023 9.46094C150.023 9.46094 150.564 8.70454 150.709 8.65796C150.709 8.65796 149.652 8.56853 149.011 8.85731C149.011 8.85731 149.574 8.19033 150.904 8.4847L151.639 7.86988C151.639 7.86988 150.247 7.68358 149.655 7.89038C149.655 7.89038 150.335 7.30165 151.839 7.73015L152.647 7.24017C152.647 7.24017 151.461 6.97934 150.754 7.07435C150.754 7.07435 151.499 6.66634 152.884 7.10789L153.462 6.8452C153.462 6.8452 152.592 6.67193 152.338 6.64399C152.085 6.61604 152.07 6.54524 152.07 6.54524C152.621 6.45226 153.186 6.51677 153.703 6.73155C153.703 6.73155 154.939 6.27883 154.919 6.20058Z" fill="#86D0C1"/>
<path opacity="0.1" d="M144.959 2.17236C144.959 2.17236 139.082 6.03077 142.647 9.5352C142.647 9.5352 143.027 10.34 143.892 10.191C143.892 10.191 143.687 9.88546 144.328 9.56315C144.555 9.44709 144.768 9.30385 144.961 9.13651C145.223 8.91138 145.405 8.606 145.481 8.26645C145.481 8.26645 146.583 6.42202 145.297 3.34051C145.297 3.34051 145.338 2.4276 145.213 2.29346L144.563 3.4113C144.563 3.4113 145.391 3.86403 145.554 4.63161C145.554 4.63161 144.62 3.40758 144.452 3.57339C144.419 3.60692 144.133 4.18261 144.133 4.18261C144.133 4.18261 145.571 4.97628 145.786 6.1705C145.786 6.1705 144.868 4.55895 144.021 4.40059L143.639 5.29486C143.639 5.29486 145.2 6.05872 145.497 7.40944C145.497 7.40944 144.474 5.75877 143.569 5.49607L143.312 6.42761C143.312 6.42761 144.818 7.20264 145.059 8.32793C145.059 8.32793 143.688 6.54312 143.266 6.65117C143.266 6.65117 143.082 7.51936 143.141 7.76901C143.141 7.76901 144.21 8.35029 144.291 9.01727C144.291 9.01727 143.251 7.92365 143.117 8.01494C143.117 8.01494 143.172 9.21289 143.516 9.80535C143.172 9.27638 142.971 8.66566 142.932 8.03357C142.67 8.31936 142.496 8.67695 142.432 9.06198C142.432 9.06198 142.102 8.43227 142.923 7.74293C142.923 7.74293 142.923 6.8114 143.005 6.68285C143.005 6.68285 142.102 7.24177 141.753 7.86403C141.753 7.86403 141.819 6.98839 143.066 6.4332L143.305 5.49235C143.305 5.49235 142.07 6.17423 141.72 6.70148C141.72 6.70148 141.924 5.81838 143.384 5.25946L143.751 4.37823C143.751 4.37823 142.649 4.88312 142.127 5.38429C142.127 5.38429 142.495 4.60553 143.865 4.13045L144.177 3.57153C144.177 3.57153 143.374 3.95532 143.154 4.08573C142.934 4.21615 142.88 4.16771 142.88 4.16771C143.27 3.76158 143.762 3.47324 144.304 3.33492C144.304 3.33492 145.022 2.22453 144.959 2.17236Z" fill="#86D0C1"/>
<path opacity="0.1" d="M136.015 6.66813C136.015 6.66813 132.502 12.8163 137.246 14.2937C137.246 14.2937 137.946 14.8358 138.649 14.2937C138.649 14.2937 138.331 14.1185 138.757 13.5354C138.905 13.3273 139.029 13.1021 139.125 12.8647C139.257 12.5434 139.284 12.1871 139.2 11.8493C139.2 11.8493 139.356 9.69934 136.831 7.54378C136.831 7.54378 136.464 6.71285 136.28 6.65137L136.201 7.95551C136.201 7.95551 137.141 7.97787 137.632 8.58709C137.632 8.58709 136.251 7.92571 136.181 8.14741C136.166 8.19212 136.168 8.83674 136.168 8.83674C136.168 8.83674 137.819 8.88705 138.554 9.85212C138.554 9.85212 137.011 8.84047 136.19 9.0864L136.249 10.0589C136.249 10.0589 137.981 10.0217 138.849 11.0892C138.849 11.0892 137.196 10.0887 136.278 10.2713L136.462 11.2196C136.462 11.2196 138.151 11.2196 138.868 12.1102C138.868 12.1102 136.847 11.1488 136.519 11.4339C136.519 11.4339 136.741 12.2946 136.91 12.4939C136.91 12.4939 138.122 12.52 138.493 13.0771C138.493 13.0771 137.077 12.5796 136.998 12.725C136.998 12.725 137.584 13.7664 138.155 14.1353C137.613 13.8236 137.161 13.3742 136.842 12.8312C136.736 13.2063 136.741 13.6047 136.857 13.9769C136.857 13.9769 136.28 13.5689 136.702 12.5759C136.702 12.5759 136.28 11.745 136.304 11.5941C136.304 11.5941 135.753 12.5126 135.716 13.2224C135.716 13.2224 135.382 12.412 136.245 11.3444L136.038 10.3943C136.038 10.3943 135.242 11.5699 135.165 12.2014C135.165 12.2014 134.952 11.3202 136.004 10.1521L135.935 9.20004C135.935 9.20004 135.174 10.1595 134.939 10.8433C134.939 10.8433 134.914 9.98253 135.925 8.92617L135.953 8.28341C135.953 8.28341 135.402 8.99324 135.272 9.21495C135.141 9.43665 135.064 9.40498 135.064 9.40498C135.23 8.86352 135.54 8.3792 135.96 8.00582C135.96 8.00582 136.093 6.6849 136.015 6.66813Z" fill="#86D0C1"/>
<path d="M166.18 76.7529C165.661 76.7529 165.152 76.9093 164.72 77.2022C164.288 77.4952 163.951 77.9115 163.752 78.3987C163.553 78.8859 163.501 79.4219 163.603 79.9391C163.704 80.4562 163.954 80.9313 164.322 81.3041C164.69 81.677 165.158 81.9309 165.668 82.0338C166.177 82.1366 166.706 82.0838 167.186 81.8821C167.666 81.6803 168.077 81.3386 168.365 80.9001C168.654 80.4617 168.808 79.9462 168.808 79.4189C168.806 78.7125 168.529 78.0355 168.037 77.5359C167.544 77.0364 166.877 76.7549 166.18 76.7529ZM158.496 55.8325V58.4986H161.124L165.855 68.2201L163.877 71.486C163.661 71.8723 163.548 72.3088 163.549 72.7529C163.549 74.5377 164.752 75.4189 166.382 75.4189H181.749V72.8554H166.704C166.66 72.8581 166.616 72.8513 166.575 72.8355C166.534 72.8197 166.496 72.7953 166.465 72.7637C166.434 72.7322 166.41 72.6943 166.395 72.6526C166.379 72.611 166.372 72.5664 166.375 72.5219C166.41 72.4066 166.456 72.2954 166.515 72.1903L167.828 70.0868H177.618C178.091 70.0908 178.556 69.9623 178.962 69.7154C179.368 69.4685 179.698 69.1129 179.917 68.6877L184.65 60.4324C184.742 60.2228 184.788 59.995 184.782 59.7655C184.781 59.5939 184.745 59.4245 184.677 59.2672C184.61 59.1099 184.512 58.968 184.389 58.8499C184.266 58.7317 184.122 58.6398 183.963 58.5794C183.805 58.5191 183.636 58.4916 183.467 58.4986H164.017L162.768 55.8325H158.496ZM179.119 76.7529C178.599 76.7533 178.091 76.9099 177.659 77.2031C177.227 77.4963 176.891 77.9128 176.692 78.4C176.493 78.8872 176.441 79.4232 176.543 79.9402C176.645 80.4573 176.895 80.9321 177.263 81.3048C177.63 81.6775 178.099 81.9312 178.608 82.0339C179.118 82.1366 179.646 82.0837 180.127 81.8819C180.607 81.68 181.017 81.3383 181.306 80.8999C181.594 80.4615 181.749 79.9462 181.749 79.4189C181.747 78.7122 181.469 78.0349 180.976 77.5353C180.483 77.0357 179.815 76.7544 179.119 76.7529Z" fill="#86D0C1"/>
<path d="M175.756 63.2086H173.552V60.9729H171.899V63.2086H169.695V64.8853H171.899V67.121H173.552V64.8853H175.756V63.2086Z" fill="white"/>
</g>
</g>
<defs>
<linearGradient id="paint0_linear" x1="115.472" y1="110.823" x2="115.472" y2="18.3701" gradientUnits="userSpaceOnUse">
<stop stop-color="#808080" stop-opacity="0.25"/>
<stop offset="0.54" stop-color="#808080" stop-opacity="0.12"/>
<stop offset="1" stop-color="#808080" stop-opacity="0.1"/>
</linearGradient>
<clipPath id="clip0">
<rect y="0.570312" width="210" height="179" rx="89.5" fill="white"/>
</clipPath>
<clipPath id="clip1">
<rect width="204.994" height="159.68" fill="white" transform="translate(3 0.570312)"/>
</clipPath>
</defs>
</svg>
