<svg width="140" height="167" viewBox="0 0 140 167" fill="none" xmlns="http://www.w3.org/2000/svg">
<g clip-path="url(#clip0_20993_87769)">
<path d="M72.4037 164.32C111.04 162.991 141.283 130.593 139.954 91.9574C138.625 53.3215 106.227 23.0782 67.5912 24.4072C28.9553 25.7361 -1.28791 58.134 0.0410265 96.7699C1.36997 135.406 33.7679 165.649 72.4037 164.32Z" fill="#E9FAF5"/>
<path fill-rule="evenodd" clip-rule="evenodd" d="M53.2889 166.862C68.9957 166.862 81.8023 154.051 81.8023 138.349C81.8023 122.646 68.9914 109.835 53.2889 109.835C37.5864 109.835 24.7754 122.646 24.7754 138.349C24.7754 154.051 37.5864 166.862 53.2889 166.862Z" fill="#FF935F"/>
<path fill-rule="evenodd" clip-rule="evenodd" d="M65.6366 164.057C75.2016 159.454 81.8016 149.673 81.8016 138.349C81.8016 126.446 74.5057 116.25 64.1455 111.975C54.5805 116.578 47.9805 126.359 47.9805 137.683C47.9805 149.587 55.2763 159.783 65.6366 164.053V164.057Z" fill="#A4434C"/>
<path fill-rule="evenodd" clip-rule="evenodd" d="M96.2685 112.705C99.8559 111.322 103.889 113.107 105.276 116.699C106.659 120.286 104.874 124.319 101.287 125.702C101.243 125.719 86.6776 131.204 81.6552 146.332C80.445 149.976 76.5118 151.951 72.8682 150.741C69.2246 149.53 67.2493 145.597 68.4595 141.954C75.5825 120.498 96.2123 112.731 96.2728 112.705H96.2685Z" fill="#A4434C"/>
<path fill-rule="evenodd" clip-rule="evenodd" d="M94.9806 93.8735C98.4211 92.1576 102.605 93.558 104.321 96.9984C106.037 100.439 104.636 104.623 101.196 106.339C101.157 106.36 87.1661 113.194 83.5917 128.723C82.7316 132.466 79.0015 134.8 75.2585 133.94C71.5155 133.08 69.1815 129.35 70.0416 125.607C75.1115 103.577 94.9201 93.8994 94.9763 93.8691L94.9806 93.8735Z" fill="#FFA562"/>
<path fill-rule="evenodd" clip-rule="evenodd" d="M41.3805 73.2092C44.8253 73.7365 47.2155 76.9868 46.6882 80.4316L38.4285 134.381L25.8984 132.462L34.1581 78.5125C34.6854 75.0678 37.9357 72.6776 41.3805 73.2049V73.2092Z" fill="#FF935F"/>
<path d="M52.2975 52.7999H88.6687C94.508 52.7999 99.2495 57.5413 99.2495 63.3806V138.202C99.2495 144.041 94.508 148.783 88.6687 148.783H52.2975C46.4582 148.783 41.7168 144.041 41.7168 138.202V63.3806C41.7168 57.5413 46.4582 52.7999 52.2975 52.7999Z" fill="#474747"/>
<path fill-rule="evenodd" clip-rule="evenodd" d="M88.6689 57.3641C91.9711 57.3641 94.6854 59.9055 94.6854 62.9959V133.046C94.6854 136.136 91.9711 138.677 88.6689 138.677H52.2977C48.9956 138.677 46.2812 136.136 46.2812 133.046V62.9959C46.2812 59.9055 48.9956 57.3641 52.2977 57.3641H88.6689Z" fill="#E9FAF5"/>
<path d="M82.5395 99.8699H61.8206C60.6176 99.8699 59.6426 98.8949 59.6426 97.6919V71.461C59.6426 70.258 60.6176 69.283 61.8206 69.283H82.5395C83.7425 69.283 84.7176 70.258 84.7176 71.461V97.6919C84.7176 98.8949 83.7425 99.8699 82.5395 99.8699Z" fill="#417465"/>
<path d="M82.5394 100.153H61.8205C60.4602 100.153 59.3594 99.0522 59.3594 97.6919V71.4611C59.3594 70.1008 60.4602 69 61.8205 69H82.5394C83.8997 69 85.0005 70.1008 85.0005 71.4611V97.6919C85.0005 99.0522 83.8997 100.153 82.5394 100.153ZM61.8205 69.5661C60.7747 69.5661 59.9255 70.4153 59.9255 71.4611V97.6919C59.9255 98.7377 60.7747 99.5869 61.8205 99.5869H82.5394C83.5852 99.5869 84.4344 98.7377 84.4344 97.6919V71.4611C84.4344 70.4153 83.5852 69.5661 82.5394 69.5661H61.8205Z" fill="#417465"/>
<path d="M80.188 102.268H59.4691C58.266 102.268 57.291 101.293 57.291 100.09V73.8594C57.291 72.6563 58.266 71.6813 59.4691 71.6813H80.188C81.391 71.6813 82.366 72.6563 82.366 73.8594V100.09C82.366 101.293 81.391 102.268 80.188 102.268Z" fill="white"/>
<path d="M80.1879 102.559H59.469C58.1087 102.559 57 101.45 57 100.09V73.8594C57 72.4991 58.1087 71.3904 59.469 71.3904H80.1879C81.5482 71.3904 82.6568 72.4991 82.6568 73.8594V100.09C82.6568 101.45 81.5482 102.559 80.1879 102.559ZM59.469 71.9722C58.4311 71.9722 57.5819 72.8214 57.5819 73.8594V100.09C57.5819 101.128 58.4311 101.977 59.469 101.977H80.1879C81.2258 101.977 82.075 101.128 82.075 100.09V73.8594C82.075 72.8214 81.2258 71.9722 80.1879 71.9722H59.469Z" fill="#417465"/>
<path d="M82.6018 102.819L82.0671 102.284L81.9177 102.135L76.8146 97.1102C77.7975 95.7342 78.3794 94.0594 78.3794 92.2352C78.3794 87.5961 74.6209 83.8297 69.9739 83.8297C65.3347 83.8297 61.5684 87.5961 61.5684 92.2352C61.5684 96.8744 65.3347 100.641 69.9739 100.641C71.6959 100.641 73.292 100.122 74.6209 99.2332L79.8655 104.399L80.4395 104.973C80.809 105.343 81.5875 105.154 82.185 104.556C82.7826 103.967 82.9635 103.18 82.6018 102.819ZM70.0918 98.1482C66.8287 98.1482 64.1789 95.5062 64.1789 92.2352C64.1789 88.9721 66.8208 86.3223 70.0918 86.3223C73.3549 86.3223 76.0048 88.9642 76.0048 92.2352C75.9969 95.4983 73.3549 98.1482 70.0918 98.1482Z" fill="#417465"/>
<path d="M80.9504 105.445C80.6674 105.445 80.4236 105.351 80.2428 105.17L79.6688 104.596L74.5893 99.587C73.2054 100.46 71.6171 100.916 69.9737 100.916C65.1852 100.916 61.2852 97.0158 61.2852 92.2272C61.2852 87.4387 65.1852 83.5387 69.9737 83.5387C74.7623 83.5387 78.6623 87.4387 78.6623 92.2272C78.6623 93.9571 78.1512 95.6319 77.1841 97.0708L82.0905 101.907C82.0984 101.914 82.1063 101.922 82.1141 101.93L82.2635 102.08L82.7982 102.614C83.2857 103.102 83.097 104.037 82.3815 104.753C82.0591 105.075 81.6659 105.303 81.2885 105.398C81.1706 105.429 81.0605 105.445 80.9504 105.445ZM74.6286 98.9501C74.6994 98.9501 74.7701 98.9815 74.8252 99.0287L80.0698 104.195L80.6438 104.769C80.746 104.871 80.9347 104.902 81.1627 104.847C81.4379 104.784 81.7367 104.604 81.9883 104.352C82.5073 103.833 82.6252 103.228 82.4051 103.007L81.8704 102.473L81.7446 102.347C81.7367 102.339 81.7288 102.331 81.721 102.331L76.6258 97.3067C76.5236 97.2124 76.5157 97.0551 76.5943 96.945C77.5851 95.5611 78.1119 93.9335 78.1119 92.2351C78.1119 87.7532 74.4713 84.1127 69.9895 84.1127C65.5076 84.1127 61.867 87.7532 61.867 92.2351C61.867 96.717 65.5076 100.358 69.9895 100.358C71.5935 100.358 73.1504 99.8858 74.4792 98.9973C74.5185 98.9658 74.5736 98.9501 74.6286 98.9501ZM70.0917 98.4311C66.6791 98.4311 63.9035 95.6555 63.9035 92.243C63.9035 88.8304 66.6791 86.0548 70.0917 86.0548C73.5042 86.0548 76.2798 88.8304 76.2798 92.243C76.2798 95.6476 73.5042 98.4311 70.0917 98.4311ZM70.0917 86.6052C66.9858 86.6052 64.4618 89.1292 64.4618 92.2351C64.4618 95.341 66.9858 97.865 70.0917 97.865C73.1975 97.865 75.7215 95.341 75.7215 92.2351C75.7215 89.1371 73.1975 86.6052 70.0917 86.6052Z" fill="#417465"/>
<path fill-rule="evenodd" clip-rule="evenodd" d="M51.2871 117.819C51.2871 118.964 52.2207 119.897 53.3661 119.897H63.8301C64.9755 119.897 65.9091 118.964 65.9091 117.819C65.9091 116.673 64.9755 115.74 63.8301 115.74H53.3661C52.2207 115.74 51.2871 116.673 51.2871 117.819Z" fill="#50A8BA"/>
<path fill-rule="evenodd" clip-rule="evenodd" d="M54.7793 117.819C54.7793 118.964 55.7129 119.897 56.8583 119.897H58.2759C59.4213 119.897 60.3549 118.964 60.3549 117.819C60.3549 116.673 59.4213 115.74 58.2759 115.74H56.8583C55.7129 115.74 54.7793 116.673 54.7793 117.819Z" fill="#8AE9FC"/>
<path fill-rule="evenodd" clip-rule="evenodd" d="M56.3606 109.472C59.7275 106.888 64.5554 107.523 67.1401 110.89C69.7248 114.257 69.0894 119.085 65.7224 121.67C65.6835 121.7 51.9692 132.056 51.3728 149.634C51.2301 153.87 47.6773 157.185 43.4459 157.042C39.2101 156.9 35.895 153.347 36.0376 149.116C36.8848 124.177 56.3044 109.516 56.3606 109.472Z" fill="#FF935F"/>
<path fill-rule="evenodd" clip-rule="evenodd" d="M60.9998 120.425C63.7358 120.425 65.966 118.19 65.966 115.454C65.966 112.718 63.7358 110.488 60.9998 110.488C58.2639 110.488 56.0293 112.718 56.0293 115.454C56.0293 118.19 58.2595 120.425 60.9998 120.425Z" fill="#FFB48F"/>
<path d="M49.1262 66.445C49.1262 65.6501 48.4828 65.0057 47.6891 65.0057C46.8954 65.0057 46.252 65.6501 46.252 66.445V71.8218C46.252 72.6167 46.8954 73.2611 47.6891 73.2611C48.4828 73.2611 49.1262 72.6167 49.1262 71.8218V66.445Z" fill="#8DCABE"/>
<path d="M49.1262 77.7475C49.1262 76.9526 48.4828 76.3082 47.6891 76.3082C46.8954 76.3082 46.252 76.9526 46.252 77.7475V92.685C46.252 93.4799 46.8954 94.1243 47.6891 94.1243C48.4828 94.1243 49.1262 93.4799 49.1262 92.685V77.7475Z" fill="#8DCABE"/>
</g>
<defs>
<clipPath id="clip0_20993_87769">
<rect width="140" height="166.862" fill="white"/>
</clipPath>
</defs>
</svg>
