<svg width="140" height="167" viewBox="0 0 140 167" fill="none" xmlns="http://www.w3.org/2000/svg">
<g clip-path="url(#clip0_20993_87661)">
<path d="M72.4037 164.32C111.04 162.991 141.283 130.593 139.954 91.9574C138.625 53.3215 106.227 23.0782 67.5912 24.4072C28.9553 25.7361 -1.28791 58.134 0.0410265 96.7699C1.36997 135.406 33.7679 165.649 72.4037 164.32Z" fill="#E9FAF5"/>
<path fill-rule="evenodd" clip-rule="evenodd" d="M53.2889 166.862C68.9957 166.862 81.8023 154.051 81.8023 138.349C81.8023 122.646 68.9914 109.835 53.2889 109.835C37.5864 109.835 24.7754 122.646 24.7754 138.349C24.7754 154.051 37.5864 166.862 53.2889 166.862Z" fill="#FF935F"/>
<path fill-rule="evenodd" clip-rule="evenodd" d="M65.6366 164.057C75.2016 159.454 81.8016 149.673 81.8016 138.349C81.8016 126.446 74.5057 116.25 64.1455 111.975C54.5805 116.578 47.9805 126.359 47.9805 137.683C47.9805 149.587 55.2763 159.783 65.6366 164.053V164.057Z" fill="#A4434C"/>
<path fill-rule="evenodd" clip-rule="evenodd" d="M96.2685 112.705C99.8559 111.322 103.889 113.107 105.276 116.699C106.659 120.286 104.874 124.319 101.287 125.702C101.243 125.719 86.6776 131.204 81.6552 146.332C80.445 149.976 76.5118 151.951 72.8682 150.741C69.2246 149.53 67.2493 145.597 68.4595 141.954C75.5825 120.498 96.2123 112.731 96.2728 112.705H96.2685Z" fill="#A4434C"/>
<path fill-rule="evenodd" clip-rule="evenodd" d="M94.9806 93.8735C98.4211 92.1576 102.605 93.558 104.321 96.9984C106.037 100.439 104.636 104.623 101.196 106.339C101.157 106.36 87.1661 113.194 83.5917 128.723C82.7316 132.466 79.0015 134.8 75.2585 133.94C71.5155 133.08 69.1815 129.35 70.0416 125.607C75.1115 103.577 94.9201 93.8994 94.9763 93.8691L94.9806 93.8735Z" fill="#FFA562"/>
<path fill-rule="evenodd" clip-rule="evenodd" d="M41.3805 73.2092C44.8253 73.7365 47.2155 76.9868 46.6882 80.4316L38.4285 134.381L25.8984 132.462L34.1581 78.5125C34.6854 75.0678 37.9357 72.6776 41.3805 73.2049V73.2092Z" fill="#FF935F"/>
<path d="M52.2975 52.7999H88.6687C94.508 52.7999 99.2495 57.5413 99.2495 63.3806V138.202C99.2495 144.041 94.508 148.783 88.6687 148.783H52.2975C46.4582 148.783 41.7168 144.041 41.7168 138.202V63.3806C41.7168 57.5413 46.4582 52.7999 52.2975 52.7999Z" fill="#474747"/>
<path fill-rule="evenodd" clip-rule="evenodd" d="M88.6689 57.3641C91.9711 57.3641 94.6854 59.9055 94.6854 62.9959V133.046C94.6854 136.136 91.9711 138.677 88.6689 138.677H52.2977C48.9956 138.677 46.2812 136.136 46.2812 133.046V62.9959C46.2812 59.9055 48.9956 57.3641 52.2977 57.3641H88.6689Z" fill="#E9FAF5"/>
<path fill-rule="evenodd" clip-rule="evenodd" d="M134.477 111.11C134.477 114.413 131.935 117.127 128.845 117.127L58.795 117.127C55.7047 117.127 53.1632 114.413 53.1632 111.11L53.1632 74.7393C53.1632 71.4371 55.7047 68.7228 58.795 68.7228L128.845 68.7228C131.935 68.7228 134.477 71.4371 134.477 74.7393L134.477 111.11Z" fill="#569F91"/>
<path fill-rule="evenodd" clip-rule="evenodd" d="M51.2871 117.819C51.2871 118.964 52.2207 119.897 53.3661 119.897H63.8301C64.9755 119.897 65.9091 118.964 65.9091 117.819C65.9091 116.673 64.9755 115.74 63.8301 115.74H53.3661C52.2207 115.74 51.2871 116.673 51.2871 117.819Z" fill="#50A8BA"/>
<path fill-rule="evenodd" clip-rule="evenodd" d="M54.7793 117.819C54.7793 118.964 55.7129 119.897 56.8583 119.897H58.2759C59.4213 119.897 60.3549 118.964 60.3549 117.819C60.3549 116.673 59.4213 115.74 58.2759 115.74H56.8583C55.7129 115.74 54.7793 116.673 54.7793 117.819Z" fill="#8AE9FC"/>
<path fill-rule="evenodd" clip-rule="evenodd" d="M56.3606 109.472C59.7275 106.888 64.5554 107.523 67.1401 110.89C69.7248 114.257 69.0894 119.085 65.7224 121.67C65.6835 121.7 51.9692 132.056 51.3728 149.634C51.2301 153.87 47.6773 157.185 43.4459 157.042C39.2101 156.9 35.895 153.347 36.0376 149.116C36.8848 124.177 56.3044 109.516 56.3606 109.472Z" fill="#FF935F"/>
<path fill-rule="evenodd" clip-rule="evenodd" d="M60.9998 120.425C63.7358 120.425 65.966 118.19 65.966 115.454C65.966 112.718 63.7358 110.488 60.9998 110.488C58.2639 110.488 56.0293 112.718 56.0293 115.454C56.0293 118.19 58.2595 120.425 60.9998 120.425Z" fill="#FFB48F"/>
<path d="M49.1262 66.445C49.1262 65.6501 48.4828 65.0057 47.6891 65.0057C46.8954 65.0057 46.252 65.6501 46.252 66.445V71.8218C46.252 72.6167 46.8954 73.2611 47.6891 73.2611C48.4828 73.2611 49.1262 72.6167 49.1262 71.8218V66.445Z" fill="#8DCABE"/>
<path d="M49.1262 77.7475C49.1262 76.9526 48.4828 76.3082 47.6891 76.3082C46.8954 76.3082 46.252 76.9526 46.252 77.7475V92.685C46.252 93.4799 46.8954 94.1243 47.6891 94.1243C48.4828 94.1243 49.1262 93.4799 49.1262 92.685V77.7475Z" fill="#8DCABE"/>
<path d="M64.3999 75.6383C64.3999 77.548 62.8518 79.096 60.9421 79.096C59.0325 79.096 57.4844 77.548 57.4844 75.6383C57.4844 73.7286 59.0325 72.1805 60.9421 72.1805C62.8518 72.1805 64.3999 73.7286 64.3999 75.6383Z" fill="#F3B700"/>
<path fill-rule="evenodd" clip-rule="evenodd" d="M64.8328 78.6638C66.5037 78.6638 67.8583 77.3092 67.8583 75.6383C67.8583 73.9673 66.5037 72.6128 64.8328 72.6128C63.1618 72.6128 61.8072 73.9673 61.8072 75.6383C61.8072 77.3092 63.1618 78.6638 64.8328 78.6638ZM64.8328 79.096C66.7424 79.096 68.2905 77.548 68.2905 75.6383C68.2905 73.7286 66.7424 72.1805 64.8328 72.1805C62.9231 72.1805 61.375 73.7286 61.375 75.6383C61.375 77.548 62.9231 79.096 64.8328 79.096Z" fill="#F3B700"/>
<path d="M74.3418 114.538C74.3418 114.061 74.7288 113.674 75.2062 113.674H86.4439C86.9213 113.674 87.3084 114.061 87.3084 114.538C87.3084 115.015 86.9213 115.402 86.4439 115.402H75.2062C74.7288 115.402 74.3418 115.015 74.3418 114.538Z" fill="#84CEBF"/>
<path d="M89.0371 114.538C89.0371 114.061 89.4241 113.674 89.9015 113.674H101.139C101.617 113.674 102.004 114.061 102.004 114.538C102.004 115.015 101.617 115.402 101.139 115.402H89.9015C89.4241 115.402 89.0371 115.015 89.0371 114.538Z" fill="#84CEBF"/>
<path d="M103.732 114.538C103.732 114.061 104.119 113.674 104.597 113.674H115.835C116.312 113.674 116.699 114.061 116.699 114.538C116.699 115.015 116.312 115.402 115.835 115.402H104.597C104.119 115.402 103.732 115.015 103.732 114.538Z" fill="#84CEBF"/>
<path d="M115.402 73.9094C115.402 73.432 115.789 73.045 116.267 73.045H127.504C127.982 73.045 128.369 73.432 128.369 73.9094C128.369 74.3868 127.982 74.7739 127.504 74.7739H116.267C115.789 74.7739 115.402 74.3868 115.402 73.9094Z" fill="#E9FAF5"/>
<path d="M115.402 77.3672C115.402 76.8898 115.789 76.5027 116.267 76.5027H127.504C127.982 76.5027 128.369 76.8898 128.369 77.3672C128.369 77.8446 127.982 78.2316 127.504 78.2316H116.267C115.789 78.2316 115.402 77.8446 115.402 77.3672Z" fill="#E9FAF5"/>
<path d="M58.4082 98.5457V89.035H61.9272C62.688 89.035 63.3176 89.1618 63.8158 89.4154C64.3139 89.669 64.6853 90.0178 64.9299 90.4616C65.1744 90.9054 65.2967 91.4036 65.2967 91.9561C65.2967 92.4815 65.179 92.9661 64.9435 93.4099C64.708 93.8447 64.3411 94.198 63.8429 94.4697C63.3447 94.7324 62.7062 94.8637 61.9272 94.8637H60.1473V98.5457H58.4082ZM60.1473 93.4507H61.8185C62.4254 93.4507 62.8601 93.3193 63.1228 93.0567C63.3946 92.7849 63.5304 92.4181 63.5304 91.9561C63.5304 91.4851 63.3946 91.1183 63.1228 90.8556C62.8601 90.5839 62.4254 90.448 61.8185 90.448H60.1473V93.4507Z" fill="#E9FAF5"/>
<path d="M68.5191 98.7088C67.9394 98.7088 67.4639 98.6182 67.0925 98.437C66.7211 98.2468 66.4449 97.9977 66.2637 97.6898C66.0826 97.3818 65.992 97.0421 65.992 96.6708C65.992 96.0458 66.2365 95.5385 66.7257 95.149C67.2148 94.7595 67.9485 94.5648 68.9267 94.5648H70.6387V94.4018C70.6387 93.9398 70.5073 93.6001 70.2446 93.3828C69.982 93.1654 69.6559 93.0567 69.2664 93.0567C68.9131 93.0567 68.6052 93.1427 68.3425 93.3148C68.0798 93.4779 67.9168 93.7224 67.8534 94.0485H66.155C66.2003 93.5594 66.3633 93.1337 66.6441 92.7713C66.934 92.409 67.3054 92.1328 67.7583 91.9425C68.2112 91.7433 68.7184 91.6436 69.28 91.6436C70.2401 91.6436 70.9964 91.8837 71.549 92.3637C72.1015 92.8438 72.3778 93.5231 72.3778 94.4018V98.5457H70.8968L70.7338 97.4588C70.5345 97.8211 70.2537 98.12 69.8914 98.3555C69.5381 98.591 69.0807 98.7088 68.5191 98.7088ZM68.9131 97.3501C69.4113 97.3501 69.7963 97.1871 70.068 96.861C70.3488 96.5349 70.5254 96.1318 70.5979 95.6517H69.1169C68.655 95.6517 68.3244 95.7378 68.1251 95.9099C67.9258 96.0729 67.8262 96.2767 67.8262 96.5213C67.8262 96.784 67.9258 96.9878 68.1251 97.1327C68.3244 97.2776 68.5871 97.3501 68.9131 97.3501Z" fill="#E9FAF5"/>
<path d="M74.6542 101.535L76.2167 98.0974H75.8091L73.1868 91.8067H75.0754L76.964 96.5485L78.934 91.8067H80.7818L76.502 101.535H74.6542Z" fill="#E9FAF5"/>
<path d="M81.9188 98.5457V91.8067H83.4541L83.6035 92.717C83.8209 92.3909 84.1063 92.1328 84.4595 91.9425C84.8218 91.7433 85.2385 91.6436 85.7095 91.6436C86.7512 91.6436 87.4894 92.0467 87.9242 92.8529C88.1687 92.4815 88.4948 92.1871 88.9024 91.9697C89.3191 91.7523 89.772 91.6436 90.2611 91.6436C91.1397 91.6436 91.8145 91.9063 92.2855 92.4317C92.7565 92.957 92.992 93.7269 92.992 94.7414V98.5457H91.2529V94.9045C91.2529 94.3248 91.1397 93.8809 90.9132 93.573C90.6959 93.265 90.3562 93.111 89.8942 93.111C89.4232 93.111 89.0428 93.2831 88.7529 93.6273C88.4722 93.9715 88.3318 94.4516 88.3318 95.0675V98.5457H86.5926V94.9045C86.5926 94.3248 86.4794 93.8809 86.253 93.573C86.0265 93.265 85.6778 93.111 85.2068 93.111C84.7448 93.111 84.3689 93.2831 84.0791 93.6273C83.7983 93.9715 83.6579 94.4516 83.6579 95.0675V98.5457H81.9188Z" fill="#E9FAF5"/>
<path d="M97.9176 98.7088C97.2382 98.7088 96.6359 98.5639 96.1105 98.274C95.5852 97.9841 95.173 97.5765 94.8741 97.0512C94.5752 96.5258 94.4258 95.919 94.4258 95.2306C94.4258 94.5331 94.5707 93.9126 94.8605 93.3692C95.1594 92.8257 95.567 92.4045 96.0833 92.1056C96.6087 91.7976 97.2246 91.6436 97.9311 91.6436C98.5924 91.6436 99.1766 91.7886 99.6838 92.0784C100.191 92.3683 100.585 92.7668 100.866 93.2741C101.156 93.7722 101.301 94.3293 101.301 94.9452C101.301 95.0449 101.296 95.149 101.287 95.2577C101.287 95.3664 101.283 95.4796 101.274 95.5974H96.1513C96.1875 96.1228 96.3687 96.5349 96.6948 96.8338C97.0299 97.1327 97.433 97.2822 97.904 97.2822C98.2572 97.2822 98.5516 97.2052 98.7871 97.0512C99.0317 96.8881 99.2128 96.6798 99.3306 96.4262H101.097C100.97 96.8519 100.757 97.2414 100.458 97.5947C100.168 97.9389 99.8061 98.2106 99.3713 98.4099C98.9456 98.6091 98.461 98.7088 97.9176 98.7088ZM97.9311 93.0567C97.5054 93.0567 97.1295 93.1789 96.8034 93.4235C96.4774 93.659 96.269 94.0213 96.1785 94.5105H99.5344C99.5072 94.0666 99.3442 93.7134 99.0453 93.4507C98.7464 93.188 98.375 93.0567 97.9311 93.0567Z" fill="#E9FAF5"/>
<path d="M102.763 98.5457V91.8067H104.299L104.435 92.948C104.643 92.5494 104.942 92.2324 105.331 91.9969C105.73 91.7614 106.196 91.6436 106.731 91.6436C107.564 91.6436 108.212 91.9063 108.674 92.4317C109.136 92.957 109.367 93.7269 109.367 94.7414V98.5457H107.627V94.9045C107.627 94.3248 107.51 93.8809 107.274 93.573C107.039 93.265 106.672 93.111 106.174 93.111C105.685 93.111 105.281 93.2831 104.964 93.6273C104.656 93.9715 104.502 94.4516 104.502 95.0675V98.5457H102.763Z" fill="#E9FAF5"/>
<path d="M114.032 98.5457C113.326 98.5457 112.76 98.3736 112.334 98.0294C111.908 97.6852 111.695 97.0738 111.695 96.1952V93.2605H110.54V91.8067H111.695L111.899 89.9996H113.434V91.8067H115.255V93.2605H113.434V96.2088C113.434 96.5349 113.502 96.7613 113.638 96.8881C113.783 97.0059 114.028 97.0648 114.372 97.0648H115.214V98.5457H114.032Z" fill="#E9FAF5"/>
</g>
<defs>
<clipPath id="clip0_20993_87661">
<rect width="140" height="166.862" fill="white"/>
</clipPath>
</defs>
</svg>
