<svg width="28" height="28" viewBox="0 0 28 28" fill="none" xmlns="http://www.w3.org/2000/svg">
<mask id="mask0_10482_30245" style="mask-type:luminance" maskUnits="userSpaceOnUse" x="0" y="0" width="28" height="28">
<path d="M2 20V24C2 24.5304 2.21071 25.0391 2.58579 25.4142C2.96086 25.7893 3.46957 26 4 26H8M20 26H24C24.5304 26 25.0391 25.7893 25.4142 25.4142C25.7893 25.0391 26 24.5304 26 24V20M26 8V4C26 3.46957 25.7893 2.96086 25.4142 2.58579C25.0391 2.21071 24.5304 2 24 2H20M2 8V4C2 3.46957 2.21071 2.96086 2.58579 2.58579C2.96086 2.21071 3.46957 2 4 2H8" stroke="white" stroke-width="4" stroke-linecap="round" stroke-linejoin="round"/>
<path d="M20.6676 14L14.0009 20.6666L7.33426 14C6.66759 13.3333 6.33426 12 7.33426 10.6666C8.33426 9.33331 10.3343 9.33331 11.3343 9.99998C12.3343 10.6666 12.6676 11.3333 14.0009 11.3333C15.3343 11.3333 15.6676 10.6666 16.6676 9.99998C17.6676 9.33331 19.6676 9.33331 20.6676 10.6666C21.6676 12 21.3343 13.3333 20.6676 14Z" fill="white" stroke="white" stroke-width="4" stroke-linecap="round" stroke-linejoin="round"/>
</mask>
<g mask="url(#mask0_10482_30245)">
<path d="M-2 -2H30V30H-2V-2Z" fill="#0BA37A"/>
</g>
</svg>
