<svg width="16" height="16" viewBox="0 0 16 16" fill="none" xmlns="http://www.w3.org/2000/svg">
<path d="M8 8.00006C6.9 8.00006 5.95833 7.60839 5.175 6.82506C4.39167 6.04173 4 5.10006 4 4.00006C4 2.90006 4.39167 1.95839 5.175 1.17506C5.95833 0.391728 6.9 6.10352e-05 8 6.10352e-05C9.1 6.10352e-05 10.0417 0.391728 10.825 1.17506C11.6083 1.95839 12 2.90006 12 4.00006C12 5.10006 11.6083 6.04173 10.825 6.82506C10.0417 7.60839 9.1 8.00006 8 8.00006ZM0 16.0001V13.2001C0 12.6334 0.146 12.1124 0.438 11.6371C0.73 11.1617 1.11733 10.7994 1.6 10.5501C2.63333 10.0334 3.68333 9.64573 4.75 9.38706C5.81667 9.12839 6.9 8.99939 8 9.00006C9.1 9.00006 10.1833 9.12939 11.25 9.38806C12.3167 9.64673 13.3667 10.0341 14.4 10.5501C14.8833 10.8001 15.271 11.1627 15.563 11.6381C15.855 12.1134 16.0007 12.6341 16 13.2001V16.0001H0ZM2 14.0001H14V13.2001C14 13.0167 13.954 12.8501 13.862 12.7001C13.77 12.5501 13.6493 12.4334 13.5 12.3501C12.6 11.9001 11.6917 11.5627 10.775 11.3381C9.85833 11.1134 8.93333 11.0007 8 11.0001C7.06667 11.0001 6.14167 11.1127 5.225 11.3381C4.30833 11.5634 3.4 11.9007 2.5 12.3501C2.35 12.4334 2.229 12.5501 2.137 12.7001C2.045 12.8501 1.99933 13.0167 2 13.2001V14.0001ZM8 6.00006C8.55 6.00006 9.021 5.80406 9.413 5.41206C9.805 5.02006 10.0007 4.54939 10 4.00006C10 3.45006 9.804 2.97906 9.412 2.58706C9.02 2.19506 8.54933 1.99939 8 2.00006C7.45 2.00006 6.979 2.19606 6.587 2.58806C6.195 2.98006 5.99933 3.45073 6 4.00006C6 4.55006 6.196 5.02106 6.588 5.41306C6.98 5.80506 7.45067 6.00073 8 6.00006Z" fill="#2F2A32" fill-opacity="0.8"/>
</svg>
