<svg width="224" height="222" viewBox="0 0 224 222" fill="none" xmlns="http://www.w3.org/2000/svg">
<g clip-path="url(#clip0)">
<path opacity="0.3" d="M196.447 190.051C191.891 194.798 187.58 197.865 184.17 200.283C144.113 228.728 96.7219 220.438 86.6521 218.409C71.7807 215.421 43.0267 209.635 22.2384 185.446C-9.21293 148.837 -4.31645 91.1688 20.0789 53.0934C24.5403 46.1267 48.1131 7.48069 96.0179 1.28275C125.009 -2.46613 158.802 5.09504 183.276 25.3929C234.646 67.9938 230.983 154.052 196.447 190.051Z" fill="url(#paint0_linear)"/>
<path opacity="0.81" d="M91.706 203.722C90.3058 178.423 80.94 155.343 47.701 138.929C47.701 138.929 42.5434 200.988 91.706 203.722Z" fill="url(#paint1_linear)"/>
<path opacity="0.51" d="M82.5775 192.737C82.5063 192.737 82.443 192.714 82.3877 192.658C63.5849 174.27 51.838 147.299 51.7194 147.029C51.664 146.895 51.7194 146.736 51.8618 146.681C51.9963 146.625 52.1545 146.681 52.2098 146.823C52.3285 147.093 64.0357 173.977 82.7594 192.286C82.8623 192.389 82.8702 192.555 82.7674 192.666C82.7199 192.714 82.6487 192.737 82.5775 192.737Z" fill="white"/>
<path opacity="0.81" d="M149.665 202.137C172.367 204.237 194.152 198.927 213.169 171.393C213.169 171.401 158.611 158.569 149.665 202.137Z" fill="url(#paint2_linear)"/>
<path opacity="0.51" d="M162.543 194.711C162.479 194.711 162.416 194.687 162.369 194.647C162.258 194.552 162.242 194.386 162.337 194.267C169.124 186.254 180.238 181.158 188.362 178.297C197.158 175.198 204.452 173.977 204.523 173.969C204.673 173.945 204.808 174.04 204.831 174.191C204.855 174.334 204.76 174.476 204.61 174.5C204.325 174.548 175.595 179.446 162.741 194.624C162.693 194.679 162.622 194.711 162.543 194.711Z" fill="white"/>
<path d="M94.3401 154.194L89.5702 197.096H144.95L137.736 154.194H94.3401Z" fill="url(#paint3_linear)"/>
<path d="M1.30701 48.5039V146.752C1.30701 154.836 7.73809 161.446 15.7987 161.652C51.6166 162.579 176.876 164.822 210.97 164.315C216.831 164.228 221.577 159.528 221.744 153.663C222.4 130.837 223.468 75.9587 219.521 50.4774C218.69 45.1117 214.165 41.1012 208.755 40.9269C178.743 39.9679 45.9607 36.9085 11.8831 37.6773C5.99782 37.8041 1.30701 42.6151 1.30701 48.5039Z" fill="url(#paint4_linear)"/>
<path d="M7.46136 48.0284V141.37C7.46136 146.086 11.2425 149.93 15.9491 150.001L206.065 152.355C210.733 152.426 214.561 148.662 214.577 143.985L214.893 51.4761C214.909 48.1314 212.243 45.3891 208.905 45.3098L14.2642 41.3707C10.5306 41.2836 7.46136 44.2874 7.46136 48.0284Z" fill="url(#paint5_linear)"/>
<path opacity="0.65" d="M216.008 156.183C216 156.183 216 156.183 216.008 156.183L7.45312 152.624C7.30283 152.624 7.18417 152.498 7.19209 152.355C7.19209 152.204 7.31074 152.078 7.46104 152.093L216.008 155.652C216.159 155.652 216.277 155.779 216.269 155.922C216.269 156.072 216.151 156.183 216.008 156.183Z" fill="white"/>
<path opacity="0.65" d="M113.792 160.535C112.447 160.535 111.355 159.441 111.355 158.094C111.355 156.746 112.447 155.653 113.792 155.653C115.136 155.653 116.228 156.746 116.228 158.094C116.228 159.441 115.136 160.535 113.792 160.535ZM113.792 156.184C112.739 156.184 111.893 157.04 111.893 158.086C111.893 159.14 112.747 159.996 113.792 159.996C114.844 159.996 115.698 159.14 115.698 158.086C115.69 157.04 114.836 156.184 113.792 156.184Z" fill="white"/>
<path d="M146.319 203.333C170.675 191.223 189.462 172.161 191.558 132.295C191.558 132.287 128.173 153.496 146.319 203.333Z" fill="url(#paint6_linear)"/>
<path opacity="0.51" d="M150.258 194.329C150.227 194.329 150.203 194.321 150.171 194.314C150.029 194.266 149.958 194.115 150.005 193.973C155.819 177.368 164.457 164.568 170.683 156.745C177.43 148.273 182.88 143.668 182.928 143.62C183.039 143.525 183.213 143.541 183.308 143.652C183.403 143.763 183.387 143.937 183.276 144.033C183.062 144.215 161.586 162.515 150.511 194.147C150.472 194.258 150.369 194.329 150.258 194.329Z" fill="white"/>
<path d="M156.879 205.87H75.8221C73.623 205.87 71.9698 204.3 72.389 202.612L73.4253 198.491C73.7417 197.254 75.1022 196.343 76.716 196.288L154.862 193.846C156.547 193.791 158.05 194.694 158.414 195.978L160.288 202.541C160.779 204.253 159.118 205.87 156.879 205.87Z" fill="url(#paint7_linear)"/>
<path d="M119.455 197.413C119.313 197.413 119.186 197.294 119.186 197.151C119.186 197.001 119.305 196.882 119.447 196.882L122.794 196.834C122.794 196.834 122.794 196.834 122.801 196.834C122.944 196.834 123.07 196.953 123.07 197.096C123.07 197.247 122.952 197.365 122.809 197.365L119.455 197.413C119.463 197.413 119.463 197.413 119.455 197.413Z" fill="white"/>
<path d="M75.3948 203.603C75.379 203.603 75.3632 203.603 75.3553 203.603C75.2129 203.58 75.1101 203.445 75.1338 203.294L75.6084 200.298C75.8615 198.689 77.2379 197.501 78.8675 197.477L114.385 196.954C114.527 196.946 114.654 197.073 114.654 197.215C114.654 197.366 114.535 197.485 114.393 197.485L78.8754 198.008C77.5069 198.032 76.352 199.022 76.1384 200.378L75.6638 203.374C75.64 203.508 75.5214 203.603 75.3948 203.603Z" fill="white"/>
<path d="M48.4049 212.227C48.4049 212.227 47.8353 215.46 47.5585 218.654C47.4477 219.907 48.4128 220.992 49.6626 221.04C53.9104 221.214 62.9994 221.563 66.2663 221.412C66.7568 221.389 67.0811 220.889 66.8992 220.43C66.7489 220.049 66.4562 219.74 66.0765 219.566L51.0627 212.655L48.4049 212.227Z" fill="url(#paint8_linear)"/>
<path d="M47.9382 210.324L48.397 214.184C48.397 214.184 51.0233 215.413 52.8268 214.026L51.7352 209.722L47.9382 210.324Z" fill="url(#paint9_linear)"/>
<path d="M48.2782 137.693C48.0804 138.7 47.2182 188.037 52.4786 210.15C52.5656 210.515 52.3836 210.879 52.0356 211.022C51.2287 211.355 49.6467 211.831 47.7482 211.894C47.1628 211.91 46.6329 211.529 46.4667 210.967C44.9638 205.839 37.7496 180.135 36.8162 155.581C35.7641 128.15 36.8162 154.646 36.8162 154.646L37.4332 137.685L48.2782 137.693Z" fill="url(#paint10_linear)"/>
<path d="M31.1286 213.907C31.1286 213.907 30.2189 215.54 29.3409 219.867C29.1827 220.652 29.7285 221.397 30.5195 221.476C31.9196 221.611 34.0792 221.793 35.8115 221.777C36.6105 221.769 37.2354 221.08 37.1325 220.279C36.9427 218.694 36.3415 216.102 34.4984 214.081L31.1286 213.907Z" fill="url(#paint11_linear)"/>
<path d="M30.3376 208.937L31.4055 214.778C31.4055 214.778 32.4655 215.563 34.5538 214.992L34.0396 208.707L30.3376 208.937Z" fill="url(#paint12_linear)"/>
<path d="M27.4506 139.207C23.1474 165.235 28.384 203.54 30.148 211.038C30.2587 211.497 30.6226 211.846 31.0893 211.925C31.8803 212.06 33.1776 212.163 34.4591 211.791C34.9021 211.664 35.2106 211.268 35.2264 210.808C35.4637 204.745 35.0366 167.533 39.0471 152.831C39.2527 152.086 39.7036 151.436 40.3365 150.984L48.1202 145.436L48.7135 136.472L27.4506 139.207Z" fill="url(#paint13_linear)"/>
<path d="M65.7756 102.106C65.119 106.767 64.4308 107.845 63.8929 107.868C62.1843 107.956 62.5324 97.446 56.2832 92.1278C52.336 88.7673 46.9491 88.4899 42.717 88.8862C44.6867 95.9797 46.6643 103.065 48.634 110.159C49.4962 112.275 53.2536 120.843 61.7572 123.45C63.4895 123.981 66.0604 124.766 68.4572 123.736C73.1876 121.699 75.4024 113.353 73.2904 102.907C72.2937 102.526 70.9173 102.13 65.7756 102.106Z" fill="url(#paint14_linear)"/>
<path d="M64.2649 83.9244L65.048 88.3549C66.3057 93.7762 66.4244 98.2938 65.7758 102.106C66.8595 102.154 67.9906 102.225 69.1693 102.344C70.6248 102.487 72.0011 102.677 73.2905 102.899C72.6102 97.3824 68.9478 88.2361 68.9478 88.2361C66.7408 85.034 66.4798 87.1106 64.2649 83.9244Z" fill="url(#paint15_linear)"/>
<path d="M73.2113 74.5799C72.3254 74.5561 71.479 74.9366 70.9015 75.6182L65.3248 82.2441C65.3248 82.2441 64.3122 82.038 64.2173 80.0883C64.1224 78.1386 62.0578 77.9087 62.0578 77.9087C62.0578 77.9087 62.3584 80.6273 62.92 84.6456C63.2443 86.9441 64.6049 88.6243 65.7044 89.6388L68.9319 88.5292C71.8903 84.2889 73.7334 79.6128 74.7538 74.6275L73.2113 74.5799Z" fill="url(#paint16_linear)"/>
<path d="M20.6157 92.6032C20.9874 92.508 23.5267 89.8767 23.9143 89.7974C30.1792 88.6006 45.8179 84.3841 56.2833 92.1197C56.307 92.3416 56.3228 92.5239 56.3386 92.6666C56.4415 92.8013 56.5759 93.0391 56.7737 93.4037C57.7625 95.3217 58.949 97.1842 60.3096 98.9279C60.009 99.2212 59.7638 99.5699 59.5819 99.9583C57.0664 105.356 47.5345 126.914 49.2114 140.094C49.2985 140.776 48.8317 141.402 48.1594 141.497C44.4573 142.012 33.4383 143.257 27.7429 140.903C27.4106 140.768 27.197 140.443 27.205 140.079C27.2445 137.431 27.1338 125.955 22.9334 112.124C22.7752 111.609 22.6486 111.086 22.5458 110.555C22.4904 110.658 22.4429 110.769 22.3955 110.872L20.6157 92.6032Z" fill="url(#paint17_linear)"/>
<path d="M30.1793 88.6083C18.4958 89.4643 16.0594 96.1536 7.98303 92.0639L9.4148 104.587C12.4049 107.9 16.9296 110.158 22.625 110.999L30.1793 88.6083Z" fill="url(#paint18_linear)"/>
<path d="M38.1609 77.2827C36.1596 81.2773 35.3211 85.3511 35.0759 89.1476C35.5031 89.3061 41.2539 93.3007 45.0983 89.4329C44.2756 86.7778 44.4101 82.7832 44.6236 78.6935L38.1609 77.2827Z" fill="url(#paint19_linear)"/>
<path d="M48.5869 66.7655C48.6976 66.9478 51.569 80.5087 51.569 80.5087L43.8011 81.9829L39.1736 69.5316C39.1736 69.5395 46.7437 63.7855 48.5869 66.7655Z" fill="url(#paint20_linear)"/>
<path d="M42.1319 70.6488C41.9262 70.9341 41.863 71.2987 41.9579 71.6395L43.8564 78.2892C43.888 78.3922 43.9276 78.4873 43.9829 78.5745C44.2914 79.0659 45.391 80.548 46.8702 79.3275C48.1358 78.2892 49.3145 77.3539 50.3665 77.1241C50.9835 76.9894 51.5847 77.3936 51.7192 78.0118C51.9802 79.2878 52.4628 81.8637 52.5735 84.2176C52.5972 84.8042 52.1622 85.3193 51.5768 85.3907C50.0343 85.5809 47.0047 85.8662 44.4734 85.5492C44.0541 85.4937 43.7061 85.2242 43.5558 84.8279C42.8913 83.1001 41.0086 78.2813 40.2651 76.9973C39.5769 75.8084 37.7496 75.6975 36.9111 75.7133C36.5947 75.7212 36.2862 75.5944 36.0647 75.3646C35.4002 74.675 34.3403 73.1137 36.1438 71.4334C36.5947 71.0133 36.6105 70.3079 36.2071 69.8483C35.4793 69.024 34.8149 67.6766 36.1992 66.1469C37.6072 64.6014 39.3 64.8867 40.3916 65.3226C40.8742 65.5208 41.4516 65.394 41.768 64.9818C41.9104 64.7995 42.124 64.6648 42.4562 64.6886C43.0811 64.7282 43.6111 64.2923 43.6507 63.6662C43.7219 62.5962 44.2281 61.3201 46.0792 60.8604C49.4806 60.0203 51.3711 63.3888 51.4265 65.814C51.4819 68.2393 47.7403 68.9368 45.5887 68.6435C43.9987 68.4137 42.7094 69.8641 42.1319 70.6488Z" fill="url(#paint21_linear)"/>
<path d="M41.4278 79.5099C41.4278 79.5099 40.708 75.2141 38.9756 74.905C37.2511 74.5959 35.4713 75.9195 37.0534 78.3765C39.031 81.4359 41.4278 79.5099 41.4278 79.5099Z" fill="url(#paint22_linear)"/>
<path d="M38.5802 64.0546C38.8808 64.0388 39.2051 64.0705 39.569 64.1497C40.3917 64.3241 41.4833 64.7442 41.1985 65.5367C40.7714 66.7256 38.5486 65.616 37.3699 67.534C36.3258 69.2222 37.1801 71.0531 36.8637 72.876C36.7055 73.7637 36.1438 75.0714 35.3528 75.5945C34.9968 75.8243 32.2124 76.2682 32.0621 75.7689L31.2869 73.2485C30.5908 70.9817 33.2645 67.2091 34.6488 65.6794C35.7167 64.4985 37.1564 64.118 38.5802 64.0546Z" fill="url(#paint23_linear)"/>
<path d="M35.9381 73.1457L33.2723 75.3649C28.1622 77.5445 24.4523 80.1124 21.7549 82.8864C20.7819 81.0477 19.1998 78.9236 16.6923 77.275C21.8419 74.7309 25.6784 73.6767 25.6784 73.6767C36.0804 69.484 35.9381 73.1457 35.9381 73.1457Z" fill="url(#paint24_linear)"/>
<path d="M21.7629 82.8945C13.3622 91.5653 15.8144 87.1586 15.7511 94.5454C15.7274 97.3035 13.3385 107.821 13.3385 107.821C-12.3542 96.7012 9.0827 81.5154 16.7003 77.2751C19.2079 78.9316 20.79 81.0557 21.7629 82.8945Z" fill="url(#paint25_linear)"/>
</g>
<defs>
<linearGradient id="paint0_linear" x1="250.031" y1="287.14" x2="52.5752" y2="42.3909" gradientUnits="userSpaceOnUse">
<stop stop-color="#D9D9D9"/>
<stop offset="1" stop-color="#EFEFEF"/>
</linearGradient>
<linearGradient id="paint1_linear" x1="45.7332" y1="148.272" x2="154.231" y2="273.353" gradientUnits="userSpaceOnUse">
<stop stop-color="#4BAC99"/>
<stop offset="1" stop-color="#8DCABE"/>
</linearGradient>
<linearGradient id="paint2_linear" x1="205.109" y1="168.401" x2="79.1011" y2="248.322" gradientUnits="userSpaceOnUse">
<stop stop-color="#4BAC99"/>
<stop offset="1" stop-color="#8DCABE"/>
</linearGradient>
<linearGradient id="paint3_linear" x1="118.361" y1="218.931" x2="115.476" y2="161.911" gradientUnits="userSpaceOnUse">
<stop stop-color="#66738F"/>
<stop offset="1" stop-color="#A0A3BD"/>
</linearGradient>
<linearGradient id="paint4_linear" x1="1.30509" y1="100.972" x2="222.385" y2="100.972" gradientUnits="userSpaceOnUse">
<stop stop-color="#66738F"/>
<stop offset="1" stop-color="#A0A3BD"/>
</linearGradient>
<linearGradient id="paint5_linear" x1="148.727" y1="53.0352" x2="-38.2431" y2="266.799" gradientUnits="userSpaceOnUse">
<stop stop-color="#EFEFEF"/>
<stop offset="1" stop-color="#CCCCCC"/>
</linearGradient>
<linearGradient id="paint6_linear" x1="181.51" y1="134.304" x2="103.605" y2="294.483" gradientUnits="userSpaceOnUse">
<stop stop-color="#417465"/>
<stop offset="1" stop-color="#2A5446"/>
</linearGradient>
<linearGradient id="paint7_linear" x1="118.54" y1="197.415" x2="92.0112" y2="255.549" gradientUnits="userSpaceOnUse">
<stop stop-color="#66738F"/>
<stop offset="1" stop-color="#A0A3BD"/>
</linearGradient>
<linearGradient id="paint8_linear" x1="65.7838" y1="207.761" x2="10.6858" y2="267.576" gradientUnits="userSpaceOnUse">
<stop stop-color="#363636"/>
<stop offset="1" stop-color="#66738F"/>
</linearGradient>
<linearGradient id="paint9_linear" x1="47.9375" y1="212.212" x2="52.8212" y2="212.212" gradientUnits="userSpaceOnUse">
<stop stop-color="#F9B776"/>
<stop offset="1" stop-color="#F47960"/>
</linearGradient>
<linearGradient id="paint10_linear" x1="-241.274" y1="510.3" x2="-188.511" y2="448.58" gradientUnits="userSpaceOnUse">
<stop stop-color="#2D2D2D"/>
<stop offset="1" stop-color="#363636"/>
</linearGradient>
<linearGradient id="paint11_linear" x1="53.4493" y1="196.399" x2="-1.64902" y2="256.214" gradientUnits="userSpaceOnUse">
<stop stop-color="#363636"/>
<stop offset="1" stop-color="#66738F"/>
</linearGradient>
<linearGradient id="paint12_linear" x1="30.3362" y1="211.96" x2="34.5529" y2="211.96" gradientUnits="userSpaceOnUse">
<stop stop-color="#F9B776"/>
<stop offset="1" stop-color="#F47960"/>
</linearGradient>
<linearGradient id="paint13_linear" x1="-248.654" y1="503.99" x2="-195.892" y2="442.271" gradientUnits="userSpaceOnUse">
<stop stop-color="#2D2D2D"/>
<stop offset="1" stop-color="#363636"/>
</linearGradient>
<linearGradient id="paint14_linear" x1="-24.0573" y1="165.983" x2="58.7029" y2="104.317" gradientUnits="userSpaceOnUse">
<stop stop-color="#4BAC99"/>
<stop offset="1" stop-color="#8DCABE"/>
</linearGradient>
<linearGradient id="paint15_linear" x1="47.8087" y1="65.8275" x2="97.3336" y2="139.855" gradientUnits="userSpaceOnUse">
<stop stop-color="#F9B776"/>
<stop offset="1" stop-color="#F47960"/>
</linearGradient>
<linearGradient id="paint16_linear" x1="55.6794" y1="60.5616" x2="105.204" y2="134.589" gradientUnits="userSpaceOnUse">
<stop stop-color="#F9B776"/>
<stop offset="1" stop-color="#F47960"/>
</linearGradient>
<linearGradient id="paint17_linear" x1="7.80857" y1="153.449" x2="68.5305" y2="71.3233" gradientUnits="userSpaceOnUse">
<stop stop-color="#4BAC99"/>
<stop offset="1" stop-color="#8DCABE"/>
</linearGradient>
<linearGradient id="paint18_linear" x1="-12.0956" y1="138.732" x2="48.6142" y2="56.6226" gradientUnits="userSpaceOnUse">
<stop stop-color="#4BAC99"/>
<stop offset="1" stop-color="#8DCABE"/>
</linearGradient>
<linearGradient id="paint19_linear" x1="45.5401" y1="75.9967" x2="25.833" y2="112.918" gradientUnits="userSpaceOnUse">
<stop stop-color="#F9B776"/>
<stop offset="1" stop-color="#F47960"/>
</linearGradient>
<linearGradient id="paint20_linear" x1="18.8899" y1="70.7641" x2="56.8942" y2="75.3132" gradientUnits="userSpaceOnUse">
<stop stop-color="#F9B776"/>
<stop offset="1" stop-color="#F47960"/>
</linearGradient>
<linearGradient id="paint21_linear" x1="38.3175" y1="79.1762" x2="54.47" y2="69.2128" gradientUnits="userSpaceOnUse">
<stop stop-color="#363636"/>
<stop offset="1" stop-color="#2D2D2D"/>
</linearGradient>
<linearGradient id="paint22_linear" x1="18.3831" y1="74.9927" x2="56.3877" y2="79.5418" gradientUnits="userSpaceOnUse">
<stop stop-color="#F9B776"/>
<stop offset="1" stop-color="#F47960"/>
</linearGradient>
<linearGradient id="paint23_linear" x1="40.7113" y1="66.6763" x2="10.0129" y2="87.4481" gradientUnits="userSpaceOnUse">
<stop stop-color="#F9B776"/>
<stop offset="1" stop-color="#F47960"/>
</linearGradient>
<linearGradient id="paint24_linear" x1="40.0982" y1="66.0577" x2="8.16316" y2="87.6661" gradientUnits="userSpaceOnUse">
<stop stop-color="#F9B776"/>
<stop offset="1" stop-color="#F47960"/>
</linearGradient>
<linearGradient id="paint25_linear" x1="-18.1918" y1="134.226" x2="42.5299" y2="52.0996" gradientUnits="userSpaceOnUse">
<stop stop-color="#4BAC99"/>
<stop offset="1" stop-color="#8DCABE"/>
</linearGradient>
<clipPath id="clip0">
<rect width="223.601" height="221.43" fill="white" transform="translate(0.199646 0.355469)"/>
</clipPath>
</defs>
</svg>
