<svg width="121" height="76" viewBox="0 0 121 76" fill="none" xmlns="http://www.w3.org/2000/svg">
<mask id="mask0_2940_66401" style="mask-type:luminance" maskUnits="userSpaceOnUse" x="92" y="55" width="21" height="21">
<path d="M112.737 55.2217H92.6875V75.2716H112.737V55.2217Z" fill="white"/>
</mask>
<g mask="url(#mask0_2940_66401)">
<path d="M102.2 56.2822V60.5298H102.18C101.848 60.5298 101.521 60.5595 101.205 60.6189C101.066 60.6437 100.932 60.6734 100.799 60.713C98.5709 61.317 96.9273 63.3566 96.9273 65.7775C96.9273 66.728 97.1798 67.624 97.6253 68.3963L96.4768 70.5498L93.947 70.5201C93.1401 69.1241 92.6797 67.5052 92.6797 65.7775C92.6797 61.0001 96.2045 57.0496 100.799 56.3812C100.932 56.3614 101.066 56.3466 101.205 56.3317C101.526 56.2971 101.848 56.2822 102.18 56.2822H102.2Z" fill="#2EDFFC"/>
<path d="M102.2 59.1133V60.5242H102.18C99.2841 60.5242 96.9325 62.8708 96.9325 65.7718C96.9325 66.7223 97.185 67.6184 97.6306 68.3907L96.3979 69.1036C95.8335 68.1234 95.5117 66.9897 95.5117 65.7817C95.5117 62.1034 98.4969 59.1182 102.175 59.1182H102.2V59.1133Z" fill="#27BDF3"/>
<path d="M103.852 75.1204C103.308 75.2194 102.748 75.269 102.179 75.269C98.6641 75.269 95.5948 73.358 93.9512 70.5164L97.6295 68.3926C98.5354 69.9669 100.233 71.0213 102.179 71.0213C102.501 71.0213 102.813 70.9916 103.115 70.9372L104.882 73.0065L103.852 75.1204Z" fill="#FAD207"/>
<path d="M103.358 72.3392C102.972 72.4085 102.576 72.4432 102.17 72.4432C99.6996 72.4432 97.5461 71.1016 96.3926 69.1016L97.6253 68.3887C98.5312 69.958 100.229 71.0174 102.175 71.0174C102.497 71.0174 102.809 70.9877 103.111 70.9333L103.358 72.3392Z" fill="#FAA515"/>
<path d="M109.475 71.8518C109.262 72.1092 109.034 72.3518 108.796 72.5845C108.697 72.6785 108.598 72.7726 108.499 72.8617C108.46 72.8964 108.42 72.931 108.386 72.9657C107.123 74.0548 105.569 74.8172 103.861 75.1241L103.123 70.9409C103.821 70.8171 104.47 70.5547 105.039 70.1785C105.093 70.1438 105.143 70.1092 105.192 70.0745C105.301 69.9953 105.41 69.9161 105.514 69.832C105.772 69.6191 106.009 69.3864 106.217 69.129C106.217 69.129 106.217 69.129 106.222 69.124L107.148 69.9013L109.227 71.6488L109.475 71.8518Z" fill="#FD646F"/>
<path d="M107.305 70.0349C106.325 71.2181 104.939 72.0548 103.365 72.337L103.117 70.9359C104.36 70.7132 105.449 70.0547 106.221 69.124L107.033 69.8072L107.305 70.0349Z" fill="#FC4755"/>
<path d="M102.199 56.2822L103.021 58.0248L102.199 60.5298H102.179C101.848 60.5298 101.521 60.5595 101.209 60.6189V56.3317C101.531 56.2971 101.853 56.2822 102.179 56.2822H102.199Z" fill="#27BDF3"/>
<path d="M109.473 71.8519C109.26 72.1093 109.033 72.3519 108.795 72.5846L105.508 69.8271C105.765 69.6142 106.003 69.3815 106.211 69.1241C106.211 69.1241 106.211 69.1241 106.216 69.1191L108.552 69.931L109.221 71.639L109.473 71.8519Z" fill="#FC4755"/>
<path d="M112.735 65.7735C112.735 68.1943 111.918 70.4271 110.547 72.2043C110.408 72.3875 110.141 72.4172 109.968 72.2687L107.032 69.8033L106.22 69.1201C106.972 68.2092 107.428 67.0458 107.428 65.7686C107.428 62.8774 105.091 60.5358 102.205 60.5209V55.6248C102.205 55.3971 102.398 55.2139 102.626 55.2188C108.245 55.4614 112.735 60.0952 112.735 65.7735Z" fill="#50758D"/>
<path d="M108.839 65.7768C108.839 67.3956 108.265 68.8808 107.304 70.0343L107.032 69.8066L106.22 69.1234C106.972 68.2125 107.428 67.0491 107.428 65.7718C107.428 62.8807 105.091 60.5391 102.205 60.5242V59.1133C105.869 59.1281 108.839 62.1084 108.839 65.7768Z" fill="#2B597F"/>
</g>
<path d="M13.2077 65.9553C14.3414 60.2621 11.673 54.8511 10.7671 49.3361C10.7423 49.1579 10.4651 49.2371 10.4898 49.4104C11.3958 54.8758 14.0642 60.267 12.9305 65.9058C12.9057 66.0543 13.1582 66.1335 13.2077 65.9553Z" fill="#89AFF1"/>
<path d="M13.5351 63.5619C14.04 62.255 14.5401 60.9678 14.847 59.5817C15.0995 58.3985 15.149 57.1905 15.3024 55.9826C15.6292 53.2647 16.3371 50.6211 17.3421 48.1012C17.4163 47.923 17.1391 47.8488 17.0649 48.027C16.0846 50.4181 15.4015 52.9132 15.0747 55.4826C14.8965 56.8192 14.847 58.1757 14.5698 59.5124C14.2925 60.8738 13.7628 62.1807 13.2578 63.4926C13.2083 63.661 13.4856 63.7352 13.5351 63.5619Z" fill="#315DAA"/>
<path d="M15.5504 54.067C14.6197 51.2947 15.5256 48.151 16.7088 45.4777C17.892 42.8044 19.5059 40.339 20.3624 37.5469C20.7881 42.3341 19.8079 47.2401 17.5405 51.4976C17.0356 52.4828 16.4316 53.4383 15.5504 54.067Z" fill="#315DAA"/>
<path d="M14.7162 60.0109C16.0528 59.0802 17.1073 57.4663 18.1915 56.2584C20.2311 53.9167 23.3302 52.4316 24.5629 49.585C24.1866 51.5008 23.6074 53.3623 22.85 55.1494C22.5232 55.9564 22.147 56.7633 21.6173 57.4663C20.1321 59.5059 17.1865 60.5406 14.6914 60.1347" fill="#89AFF1"/>
<path d="M11.6488 53.9439C9.51015 52.2805 8.87648 49.2854 8.95569 46.5625C9.02995 43.8447 9.60917 41.1218 9.20817 38.4287C10.7924 40.5426 11.6488 43.1615 11.9805 45.7803C12.2775 48.4537 12.0003 51.325 11.6488 53.9439Z" fill="#89AFF1"/>
<path d="M13.2079 60.9171C12.2772 60.4864 11.495 59.9616 10.5643 59.5309C9.40582 58.9765 8.24738 58.422 7.29192 57.5903C5.37604 55.8774 4.59879 53.209 2.73242 51.4219C5.40079 52.808 7.94539 54.4665 10.287 56.3329C11.7722 57.5161 13.0841 58.828 13.1831 60.7389" fill="#315DAA"/>
<path d="M14.3187 60.7652C13.992 59.9582 13.8138 59.1265 13.487 58.3245C13.086 57.2899 12.6801 56.2601 12.6058 55.1265C12.4523 52.8343 13.6108 50.4184 13.5613 48.1016C14.393 50.567 14.9969 53.1363 15.2989 55.8096C15.5019 57.4978 15.5267 59.1859 14.393 60.6464" fill="#315DAA"/>
<path d="M17.2378 64.7923C17.614 68.3171 16.9853 72.2231 15.6536 74.5895C15.5793 74.738 15.4506 74.8172 15.3516 74.8172H11.6486C11.5495 74.8172 11.4208 74.743 11.3466 74.5895C10.0099 72.2231 9.38118 68.3171 9.76238 64.7923C9.81188 64.3616 9.9901 64.0893 10.2178 64.0893H16.817C16.9853 64.0646 17.1883 64.3665 17.2378 64.7923Z" fill="#1F1C69"/>
<path d="M11.3234 74.5682C11.3977 74.7167 11.5264 74.7959 11.6254 74.7959H15.3037C15.4027 74.7959 15.5314 74.7216 15.6057 74.5682C16.0611 73.786 16.4374 72.8305 16.7146 71.7711C12.2838 71.8453 10.3432 67.7166 9.6897 65.8799C9.43227 69.0285 10.061 72.4246 11.3234 74.5682Z" fill="#0B0851"/>
<path d="M2.73271 0.515625H22.9806C23.9361 0.515625 24.7133 1.29287 24.7133 2.24833V22.4963C24.7133 23.4517 23.9361 24.229 22.9806 24.229H2.73271C1.77724 24.229 1 23.4517 1 22.4963V2.24833C1 1.29287 1.77724 0.515625 2.73271 0.515625Z" fill="white"/>
<mask id="mask1_2940_66401" style="mask-type:luminance" maskUnits="userSpaceOnUse" x="4" y="4" width="18" height="18">
<path d="M21.5527 4.41406H4.7207V21.2461H21.5527V4.41406Z" fill="white"/>
</mask>
<g mask="url(#mask1_2940_66401)">
<path d="M14.002 11.8584V4.77901C14.002 4.58594 14.1653 4.42752 14.3633 4.44237C19.8189 4.79881 23.1704 10.6702 20.7595 15.5614C20.6754 15.7297 20.4674 15.7941 20.309 15.7L14.1752 12.1554C14.0663 12.091 14.002 11.9821 14.002 11.8584Z" fill="#2EDFFC"/>
<path d="M19.4092 17.3538C19.5726 17.4478 19.6221 17.6557 19.5181 17.8142C18.8795 18.7746 18.0231 19.5865 17.0329 20.1756L17.028 20.1805C15.8497 20.8687 14.5081 21.235 13.1418 21.235C13.0279 21.235 12.919 21.235 12.8051 21.2251C11.5774 21.1707 10.3744 20.8192 9.30506 20.1954C8.28524 19.6063 7.41393 18.7894 6.76541 17.8142C6.66144 17.6607 6.71095 17.4478 6.87432 17.3538L7.34958 17.0765L12.9734 13.8141C13.0774 13.7547 13.2061 13.7547 13.315 13.8141L19.4092 17.3538Z" fill="#93DDB7"/>
<path d="M12.2744 4.77432V11.8339C12.2744 11.9527 12.2101 12.0665 12.1061 12.126L5.96736 15.6656C5.80894 15.7547 5.60597 15.7003 5.52181 15.5369V15.532C3.14057 10.9725 6.3436 5.14067 11.3338 4.48719C11.5269 4.46243 11.7199 4.44263 11.9229 4.43273C12.116 4.42778 12.2744 4.5862 12.2744 4.77432Z" fill="#FD646F"/>
<path d="M21.0862 14.7893C20.9922 15.0467 20.8833 15.3091 20.7546 15.5616C20.6704 15.7299 20.4625 15.7893 20.3041 15.7002L14.1703 12.1556C14.0663 12.0962 14.002 11.9823 14.002 11.8635V10.7051L21.0862 14.7893Z" fill="#27BDF3"/>
<path d="M12.2758 10.6816V11.8401C12.2758 11.9589 12.2115 12.0728 12.1075 12.1322L5.97374 15.6718C5.81532 15.7659 5.61234 15.7065 5.52323 15.5431C5.38957 15.2906 5.2757 15.0382 5.18164 14.7807L12.2758 10.6816Z" fill="#FC4755"/>
<path d="M19.4142 17.3547C19.5775 17.4487 19.627 17.6567 19.5231 17.8151C18.8845 18.7755 18.028 19.5874 17.0329 20.1765L17.028 20.1815C15.8497 20.8696 14.5081 21.2359 13.1418 21.2359C13.0279 21.2359 12.919 21.2359 12.8051 21.226C11.5774 21.1716 10.3744 20.8201 9.30506 20.1963C8.28524 19.6072 7.41393 18.7904 6.76541 17.8151C6.66144 17.6616 6.71095 17.4487 6.87432 17.3547L7.26542 17.127C7.83969 17.8101 8.52782 18.3894 9.30506 18.8448C10.3744 19.4636 11.5823 19.8201 12.8051 19.8745C12.919 19.8795 13.0279 19.8844 13.1418 19.8844C14.5081 19.8844 15.8497 19.5181 17.028 18.83L17.0329 18.825C17.7904 18.3745 18.4587 17.8002 19.0231 17.1319L19.4142 17.3547Z" fill="#5ED297"/>
</g>
<path d="M79.4544 38.494H62.261C61.0283 38.494 59.8452 38.0039 58.9788 37.1326L56.9342 35.088C56.0629 34.2167 54.8797 33.7266 53.647 33.7266H42.0874C40.6121 33.7266 39.4141 34.9246 39.4141 36.3999V49.7566C39.4141 51.2319 40.6121 52.4299 42.0874 52.4299H79.4594C80.9347 52.4299 82.1327 51.2319 82.1327 49.7566V41.1673C82.1278 39.692 80.9297 38.494 79.4544 38.494Z" fill="url(#paint0_linear_2940_66401)"/>
<path d="M77.8541 52.4279H43.4029C42.0415 52.4279 40.9375 51.3239 40.9375 49.9625V42.8287C40.9375 41.4673 42.0415 40.3633 43.4029 40.3633H77.8541C79.2155 40.3633 80.3195 41.4673 80.3195 42.8287V49.9625C80.3195 51.3239 79.2155 52.4279 77.8541 52.4279Z" fill="url(#paint1_linear_2940_66401)"/>
<path d="M77.8545 40.3633H74.3594C75.7208 40.3633 76.8248 41.4673 76.8248 42.8287V49.9625C76.8248 51.3239 75.7208 52.4279 74.3594 52.4279H77.8545C79.2159 52.4279 80.3199 51.3239 80.3199 49.9625V42.8287C80.3199 41.4673 79.2159 40.3633 77.8545 40.3633Z" fill="url(#paint2_linear_2940_66401)"/>
<path d="M24.6895 11.0352H54.2445C55.7495 11.0352 56.9673 12.253 56.9673 13.758V47.2982" stroke="#2B597F" stroke-width="5"/>
<path d="M3.12891 75.4675V61.8039C3.12891 60.2989 4.34675 59.0811 5.85173 59.0811H39.392" stroke="#2B597F" stroke-width="5"/>
<path d="M25.5059 75.4685V55.1711C25.5059 53.6661 26.7237 52.4482 28.2287 52.4482H39.5655" stroke="#2B597F" stroke-width="5"/>
<path d="M102.19 75.4675V61.8039C102.19 60.2989 100.972 59.0811 99.4675 59.0811H83.7246" stroke="#2B597F" stroke-width="5"/>
<path d="M101.123 22.1973H70.801C69.296 22.1973 68.0781 23.4151 68.0781 24.9201V54.3514" stroke="#2B597F" stroke-width="5"/>
<path d="M81.0874 75.1295H42.1114C40.5718 75.1295 39.3242 73.882 39.3242 72.3424V47.3419C39.3242 45.8022 40.5718 44.5547 42.1114 44.5547H81.0874C82.627 44.5547 83.8746 45.8022 83.8746 47.3419V72.3424C83.8746 73.882 82.627 75.1295 81.0874 75.1295Z" fill="url(#paint3_linear_2940_66401)"/>
<path d="M81.0842 44.5547H77.5C79.0396 44.5547 80.2872 45.8022 80.2872 47.3419V72.3424C80.2872 73.882 79.0396 75.1295 77.5 75.1295H81.0842C82.6239 75.1295 83.8714 73.882 83.8714 72.3424V47.3419C83.8714 45.8022 82.6239 44.5547 81.0842 44.5547Z" fill="url(#paint4_linear_2940_66401)"/>
<path d="M19.7637 73.1904L22.338 75.3192H20.9172L19.7637 73.1904Z" fill="#208C54"/>
<path d="M102.285 13.2871H119.266C120.221 13.2871 120.999 14.0644 120.999 15.0198V32.0003C120.999 32.9558 120.221 33.7331 119.266 33.7331H102.285C101.33 33.7331 100.553 32.9558 100.553 32.0003V15.0198C100.553 14.0644 101.33 13.2871 102.285 13.2871Z" fill="white"/>
<path d="M72.5854 40.7637C70.4814 40.7637 68.7734 42.4716 68.7734 44.5756H76.3973C76.3973 42.4716 74.6894 40.7637 72.5854 40.7637Z" fill="url(#paint5_linear_2940_66401)"/>
<path d="M72.5834 40.7148C70.4794 40.7148 68.7715 42.4228 68.7715 44.5268H76.3954C76.3954 42.4228 74.6874 40.7148 72.5834 40.7148Z" fill="white"/>
<path opacity="0.34" d="M98.67 35.0569C98.373 34.3985 98.165 33.7153 98.1254 33.5965L97.3086 33.3984L98.1997 34.4133L98.67 35.0569Z" fill="#3F2814"/>
<path d="M96.9629 32.8789L97.4084 33.4235C97.5718 33.4482 97.9728 33.5126 98.25 33.572C98.5273 33.6314 98.7451 33.5967 98.8194 33.572L96.9629 32.8789Z" fill="#ED968A"/>
<path d="M48.476 36.0106C51.2101 36.0106 53.4266 33.7941 53.4266 31.06C53.4266 28.3258 51.2101 26.1094 48.476 26.1094C45.7418 26.1094 43.5254 28.3258 43.5254 31.06C43.5254 33.7941 45.7418 36.0106 48.476 36.0106Z" fill="#5CAFDD"/>
<path d="M66.8178 21.8026C70.2218 21.8026 72.9813 19.0431 72.9813 15.6391C72.9813 12.2351 70.2218 9.47559 66.8178 9.47559C63.4138 9.47559 60.6543 12.2351 60.6543 15.6391C60.6543 19.0431 63.4138 21.8026 66.8178 21.8026Z" fill="url(#paint6_linear_2940_66401)"/>
<path d="M25.3767 12.4916C27.1144 12.1401 28.6094 12.6648 29.0649 13.15L28.4263 16.0015C27.2332 16.2441 28.6292 17.9323 28.6292 17.9323C28.6292 17.9323 27.1639 20.269 27.2777 21.0214C23.4509 21.8086 25.649 20.4868 24.8668 19.962C21.2182 18.9967 22.2034 13.1352 25.3767 12.4916Z" fill="#550F01"/>
<path d="M24.1152 23.9772C24.3133 22.5168 24.7093 19.5216 24.7093 19.2246L27.3826 20.4623L27.8777 23.9772H24.1152Z" fill="#FFBDB4"/>
<path d="M25.4023 20.1396C25.7192 21.209 26.9865 21.6892 27.5806 21.7981L27.5063 21.006L25.4023 20.1396Z" fill="#9C574D"/>
<path d="M27.1641 68.1081L27.8027 38.6719H32.9761V68.1081H27.1641Z" fill="#070045"/>
<path d="M22.0941 38.5967L18.5742 68.2062H24.4555L28.6784 38.5967H22.0941Z" fill="#070045"/>
<path d="M29.1797 75.3646V72.5576H31.8382L35.8531 75.0577V75.3597H29.1797V75.3646Z" fill="#000F25"/>
<path d="M18.6973 75.3646L19.4102 72.5576H22.0686L23.7914 75.3646H18.6973Z" fill="#000F25"/>
<path d="M29.6249 72.5857L29.0605 68.1797H32.0161L31.5754 72.5857H29.6249Z" fill="#FFBDB4"/>
<path d="M19.8516 72.5883L20.0743 68.1328H23.2229L21.7971 72.5883H19.8516Z" fill="#FFBDB4"/>
<path d="M26.8418 66.6562H33.2429V68.1315H26.8418V66.6562Z" fill="#020011"/>
<path d="M18.3281 66.7539H24.7292V68.2292H18.3281V66.7539Z" fill="#020011"/>
<path fill-rule="evenodd" clip-rule="evenodd" d="M32.457 72.9376C32.8778 73.0861 33.4372 73.2296 33.9075 73.2494C34.1699 73.2593 34.3926 73.2296 34.5461 73.1455C34.6204 73.1009 34.6798 73.0514 34.7144 72.9821C34.754 72.9128 34.7738 72.8237 34.7689 72.7148C34.7639 72.6009 34.7392 72.5217 34.6946 72.4623C34.655 72.4029 34.5956 72.3633 34.5164 72.3336C34.358 72.2791 34.1352 72.289 33.8778 72.3484C33.4124 72.4573 32.8629 72.7098 32.457 72.9376ZM34.8134 72.3732C34.8728 72.4623 34.9075 72.5712 34.9125 72.7049C34.9174 72.8385 34.8927 72.9524 34.8382 73.0514C34.7837 73.1455 34.7045 73.2197 34.6105 73.2742C34.4223 73.3782 34.1649 73.4079 33.8926 73.398C33.3431 73.3782 32.6847 73.19 32.249 73.0217L32.1055 72.9673L32.2391 72.888C32.6599 72.6405 33.2986 72.3286 33.8382 72.2049C34.1055 72.1405 34.3629 72.1207 34.561 72.19C34.6699 72.2296 34.754 72.2841 34.8134 72.3732Z" fill="#204B89"/>
<path fill-rule="evenodd" clip-rule="evenodd" d="M20.668 72.834C21.059 72.6212 21.5492 72.3093 21.8759 71.9776C22.0591 71.7895 22.1878 71.6063 22.2274 71.433C22.2472 71.3489 22.2472 71.2696 22.2224 71.1954C22.1977 71.1211 22.1482 71.0469 22.0591 70.9726C21.9749 70.8984 21.8957 70.8637 21.8214 70.8588C21.7521 70.8488 21.6779 70.8637 21.6086 70.9033C21.465 70.9825 21.3214 71.1558 21.1878 71.3885C20.9551 71.8043 20.7719 72.3786 20.668 72.834ZM21.8412 70.7152C21.9452 70.73 22.0492 70.7795 22.1531 70.8637C22.2571 70.9528 22.3215 71.0469 22.3611 71.1508C22.3957 71.2548 22.3957 71.3637 22.371 71.4677C22.3215 71.6756 22.1729 71.8885 21.9799 72.0815C21.5937 72.4726 21.0095 72.8291 20.5937 73.042L20.4551 73.1113L20.4848 72.9628C20.5887 72.4825 20.7868 71.8043 21.0591 71.3192C21.1927 71.0815 21.3561 70.8786 21.5393 70.7795C21.6333 70.7251 21.7373 70.7003 21.8412 70.7152Z" fill="#204B89"/>
<path fill-rule="evenodd" clip-rule="evenodd" d="M32.2102 72.8233C32.3587 72.6798 32.5221 72.4916 32.6211 72.3134C32.6854 72.1996 32.7201 72.1005 32.7201 72.0213C32.7201 71.9817 32.7102 71.952 32.6904 71.9273C32.6706 71.9025 32.6458 71.8728 32.5963 71.853C32.5518 71.8283 32.5122 71.8283 32.4874 71.8283C32.4627 71.8332 32.433 71.8431 32.4082 71.8679C32.3538 71.9174 32.3092 72.0114 32.2745 72.1402C32.23 72.3481 32.2102 72.6055 32.2102 72.8233ZM32.4726 71.6847C32.5369 71.6748 32.6013 71.6896 32.6656 71.7194C32.73 71.7491 32.7845 71.7936 32.8191 71.8481C32.8538 71.9025 32.8686 71.9619 32.8686 72.0213C32.8736 72.1402 32.8191 72.2689 32.7498 72.3877C32.6112 72.6303 32.3686 72.8877 32.1904 73.0412L32.0765 73.1451L32.0716 72.9917C32.0617 72.7441 32.0716 72.3827 32.1458 72.1055C32.1805 71.9669 32.2349 71.8431 32.3191 71.7639C32.3587 71.7193 32.4132 71.6946 32.4726 71.6847Z" fill="#204B89"/>
<path fill-rule="evenodd" clip-rule="evenodd" d="M20.5595 73.0706C20.5545 72.8627 20.5248 72.6151 20.4654 72.4221C20.4258 72.2983 20.3763 72.2042 20.3169 72.1547C20.2872 72.13 20.2575 72.1151 20.2278 72.1102C20.1981 72.1052 20.1585 72.1102 20.109 72.13C20.0595 72.1498 20.0347 72.1745 20.0199 72.1943C20.005 72.2191 19.9951 72.2439 19.9951 72.2785C19.9951 72.3528 20.0347 72.4468 20.109 72.5607C20.2228 72.734 20.401 72.9221 20.5595 73.0706ZM19.901 72.1052C19.9357 72.0557 19.9902 72.0161 20.0595 71.9864C20.1288 71.9567 20.1931 71.9518 20.2575 71.9617C20.3218 71.9716 20.3763 72.0013 20.4209 72.0409C20.51 72.1201 20.5694 72.2439 20.6139 72.3775C20.6981 72.6448 20.7228 72.9963 20.7179 73.234L20.7129 73.3874L20.5941 73.2884C20.406 73.13 20.1436 72.8775 19.9901 72.635C19.9159 72.5161 19.8565 72.3924 19.8565 72.2736C19.8466 72.2191 19.8614 72.1597 19.901 72.1052Z" fill="#204B89"/>
<path fill-rule="evenodd" clip-rule="evenodd" d="M21.4011 73.3488H19.8516V73.0518H21.4011V73.3488Z" fill="#204B89"/>
<path fill-rule="evenodd" clip-rule="evenodd" d="M21.4011 74.0392H19.8516V73.7422H21.4011V74.0392Z" fill="#204B89"/>
<path fill-rule="evenodd" clip-rule="evenodd" d="M34.1057 74.0392H32.3086V73.7422H33.6601L34.1057 74.0392Z" fill="#204B89"/>
<path fill-rule="evenodd" clip-rule="evenodd" d="M32.8953 73.2511H31.2715V72.9541L32.5289 72.9789L32.8953 73.2511Z" fill="#204B89"/>
<path d="M28.1241 66.6272H27.1934L27.629 45.8842L28.1241 43.3545V66.6272Z" fill="#020011"/>
<path d="M19.2082 66.7003H18.7676L22.0647 38.5859H22.5152L19.2082 66.7003Z" fill="#193B6F"/>
<path d="M35.8429 75.3704H29.0605V75.0635H35.8429V75.3704Z" fill="#000916"/>
<path d="M23.802 75.3704H18.5742V75.0635H23.807V75.3704H23.802Z" fill="#000916"/>
<path d="M23.1977 68.2539H20.0293L20.054 68.4717C21.1382 68.8282 22.4551 68.7886 23.0442 68.7787L23.1977 68.2539Z" fill="#ED968A"/>
<path d="M32.0041 68.1328H29.0684L29.0931 68.3506C30.1773 68.7071 31.3803 68.6625 31.9645 68.6477L32.0041 68.1328Z" fill="#ED968A"/>
<path d="M29.4956 15.9562C29.4956 19.6939 29.1194 22.5356 25.753 20.6593C24.1292 19.7534 23.8223 17.9662 23.8223 16.1048C23.8223 14.2433 24.2728 12.5898 26.1292 12.5898C27.9857 12.5898 29.4956 14.0948 29.4956 15.9562Z" fill="#FFBDB4"/>
<path d="M29.2241 17.8378C29.3197 17.8378 29.3973 17.7602 29.3973 17.6645C29.3973 17.5688 29.3197 17.4912 29.2241 17.4912C29.1284 17.4912 29.0508 17.5688 29.0508 17.6645C29.0508 17.7602 29.1284 17.8378 29.2241 17.8378Z" fill="#4F4F4F"/>
<path d="M27.3432 17.8378C27.4389 17.8378 27.5165 17.7602 27.5165 17.6645C27.5165 17.5688 27.4389 17.4912 27.3432 17.4912C27.2475 17.4912 27.1699 17.5688 27.1699 17.6645C27.1699 17.7602 27.2475 17.8378 27.3432 17.8378Z" fill="#4F4F4F"/>
<path d="M28.2475 18.0615C28.198 18.4081 28.6436 18.9031 28.5941 19.0764C28.5446 19.2497 28.2772 19.1011 28 18.9526" stroke="#4F4F4F" stroke-width="0.4"/>
<path d="M28.6545 20.0656L27.0703 19.6943C27.0852 19.8032 27.2238 20.0607 27.6396 20.2389C28.0555 20.4171 28.4862 20.1943 28.6545 20.0656Z" fill="white"/>
<path d="M26.7383 16.8462C26.8868 16.6977 27.2729 16.4898 27.6294 16.8462" stroke="#4F4F4F" stroke-width="0.4"/>
<path d="M28.8672 16.94C29.0157 16.7915 29.4019 16.5835 29.7583 16.94" stroke="#4F4F4F" stroke-width="0.4"/>
<path d="M28.902 14.828C26.5306 17.2191 23.8375 17.3874 22.5801 17.1448V16.6844C22.7979 13.5111 24.1049 13.12 24.8821 12.714C25.4663 12.4071 28.0851 12.2338 29.0654 13.1596C30.0307 14.0755 29.8822 16.3527 29.4416 16.9221C29.4416 15.7092 29.4416 15.0903 28.902 14.828Z" fill="#550F01"/>
<path d="M24.8809 16.8479C24.5281 16.4893 24.0588 16.3789 23.8327 16.6014C23.6066 16.8238 23.7094 17.2948 24.0623 17.6534C24.4151 18.012 24.8844 18.1224 25.1105 17.8999C25.3366 17.6775 25.2338 17.2065 24.8809 16.8479Z" fill="#FFBDB4"/>
<path d="M21.8659 37.8922C20.2916 40.1546 34.282 40.318 33.2424 37.8576L31.7869 31.6248C31.7869 31.6248 32.1186 24.4365 31.8661 23.5454C31.6136 22.6543 27.7819 22.3276 27.7819 22.3276C27.1135 23.5652 24.7372 23.0008 24.4155 22.1543L22.5342 22.4513L22.2817 29.501C23.4253 32.8773 22.3412 36.1249 21.8659 37.8922Z" fill="#FD6C30"/>
<path d="M31.3711 32.9218C32.7969 35.8031 34.5494 33.4812 35.6286 32.9218L31.7919 23.3672L31.6879 31.6941L31.3711 32.9218Z" fill="#FD6C30"/>
<path d="M22.6047 22.4512C22.6047 22.4512 20.1839 22.9957 19.9363 23.8868C19.6888 24.7779 19.6641 30.1097 19.6641 32.8821C19.6641 35.6544 20.6393 35.6395 22.1047 35.6148C23.5701 35.59 23.7532 33.2138 23.7532 33.2138L22.6047 22.4512Z" fill="#FD6C30"/>
<path d="M23.9017 34.3881L24.1641 32.0068L22.4165 35.6356L21.9512 37.5614L23.9017 34.3881Z" fill="#3F2814"/>
<path d="M32.8736 31.8484L32.4429 29.0859C32.4429 29.0859 32.4429 30.8682 31.8489 31.1899C31.2548 31.5117 29.6211 31.5117 29.6211 31.5117L32.74 32.1058L32.8736 31.8484Z" fill="#3F2814"/>
<path d="M32.4177 34.3315C31.5266 33.2177 30.3632 31.6137 30.19 31.5146L30.487 33.5939L24.1007 32.8761L23.6799 33.8167L22.7344 36.089C22.7344 36.089 23.6799 34.8315 25.9077 34.8315C28.1355 34.8315 32.8435 36.1038 32.8435 36.1038L32.4177 34.3315Z" fill="#3F2814"/>
<path d="M24.9668 33.2453C28.2441 34.2998 31.5115 34.8939 32.0907 35.0523C33.8977 35.5572 35.6353 35.5523 35.6353 33.473C35.6353 32.2502 34.769 31.8195 34.1897 31.676L25.6203 31.4482L24.9668 33.2453Z" fill="#FD6C30"/>
<path d="M29.2528 30.7734L19.7428 32.9665C19.4556 35.6448 21.6141 36.6547 23.0597 35.4963L30.3271 32.0012L29.2528 30.7734Z" fill="#FD6C30"/>
<path d="M20.4308 23.9124C20.7031 23.3183 23.5497 22.4767 24.3666 22.1797L22.3616 22.4767C22.3616 22.4767 20.3813 22.9223 20.01 23.7886C19.6388 24.655 19.6833 29.8432 19.6833 29.8432C20.01 28.863 20.1586 24.5065 20.4308 23.9124Z" fill="#F98F63"/>
<path d="M30.9973 30.8214C30.423 30.7025 29.6557 30.9402 29.4824 30.9402L30.2003 32.0392L30.4379 31.9253L32.9775 32.0392L32.8686 31.4847C32.8686 31.4847 31.5716 30.9402 30.9973 30.8214Z" fill="#FFBDB4"/>
<path d="M22.5 31.4279L23.8317 31.9329L24 27.918L23.703 31.2349L22.5 31.4279Z" fill="#3F2814"/>
<path d="M25.3336 31.4367C24.4227 31.412 24.0663 29.2288 24.0069 28.1396L23.7891 31.9863L25.3336 31.4367Z" fill="#E75418"/>
<path d="M19.8574 33.3296L23.5011 32.0771C22.3525 32.3593 20.0406 32.9287 19.9614 32.9435C19.8772 32.9534 19.8574 33.2059 19.8574 33.3296Z" fill="#E75418"/>
<path d="M21.2871 32.5198L22.9703 31.1484L25.9209 31.2425L23.2228 32.2178C23.2228 32.2178 22.1634 32.5643 21.7772 32.6831C21.4059 32.8019 21.3366 32.6831 21.2871 32.5198Z" fill="#FFBDB4"/>
<path d="M25.1242 31.5273L22.4707 32.4729C22.5153 32.3541 22.6588 32.0818 22.8767 31.9135C23.0994 31.7501 24.4707 31.5917 25.1242 31.5273Z" fill="#ED968A"/>
<path d="M31.4871 31.5876C31.7891 31.5529 32.596 31.8698 32.9623 32.0381L30.3633 31.9341C30.6108 31.8302 31.1801 31.6222 31.4871 31.5876Z" fill="#ED968A"/>
<path d="M23.8525 15.7138C24.4646 14.8947 24.1174 13.6004 23.077 12.823C22.0366 12.0455 20.697 12.0794 20.0849 12.8986C19.4728 13.7178 19.82 15.0121 20.8604 15.7895C21.9008 16.5669 23.2404 16.533 23.8525 15.7138Z" fill="#550F01"/>
<path d="M23.4912 13.6466C23.0853 12.7407 22.4466 11.0179 23.1645 11.3545C23.8873 11.6912 23.6843 13.0229 23.4912 13.6466Z" stroke="#572A21"/>
<path d="M23.5605 13.704C24.1596 13.1594 25.1893 12.0703 24.5408 12.0901C23.8922 12.1099 23.615 13.1743 23.5605 13.704Z" stroke="#572A21"/>
<path d="M30.1938 32.0811L26.6641 33.7197L28.8819 34.3088C28.7829 33.2197 29.7136 32.3682 30.1938 32.0811Z" fill="#E75418"/>
<path d="M22.5341 16.3626C22.5193 14.8626 23.1529 14.2586 23.242 14.1992C22.3608 14.5903 21.9301 15.7339 21.8262 16.2587C22.0242 16.3676 22.3806 16.3725 22.5341 16.3626Z" fill="#39130C"/>
<path d="M28.8965 14.8333C28.9955 14.7194 29.0945 14.5907 29.2925 14.1006C29.1589 14.7392 29.0599 14.9273 29.0599 14.9273C29.0599 14.9273 28.9856 14.8531 28.8965 14.8333Z" fill="#39130C"/>
<mask id="mask2_2940_66401" style="mask-type:luminance" maskUnits="userSpaceOnUse" x="44" y="26" width="9" height="9">
<path d="M44.2304 32.2613L49.6133 34.7158L52.0678 29.3329L46.6849 26.8784L44.2304 32.2613Z" fill="white"/>
</mask>
<g mask="url(#mask2_2940_66401)">
<g opacity="0.8">
<path fill-rule="evenodd" clip-rule="evenodd" d="M51.3107 29.5985C51.3404 29.6628 51.3404 29.742 51.3107 29.8064L49.979 32.7223C49.9246 32.846 49.776 32.9005 49.6523 32.846C49.5285 32.7916 49.4741 32.6431 49.5285 32.5193L50.7364 29.8707L48.3255 29.2222L47.0829 31.945C47.0285 32.0688 46.8799 32.1233 46.7562 32.0688C46.6324 32.0143 46.578 31.8658 46.6324 31.7421L47.9592 28.8262C48.0087 28.7172 48.1324 28.6578 48.2463 28.6925L51.1424 29.4697C51.2216 29.4846 51.281 29.5341 51.3107 29.5985Z" fill="white"/>
<path fill-rule="evenodd" clip-rule="evenodd" d="M46.3944 31.0916C46.1469 30.9777 45.8548 31.0867 45.741 31.3342C45.6271 31.5817 45.736 31.8738 45.9835 31.9877C46.2311 32.1015 46.5232 31.9926 46.637 31.7451C46.7509 31.4926 46.642 31.2005 46.3944 31.0916ZM45.2904 31.1263C45.5182 30.6312 46.1023 30.4134 46.5974 30.6362C47.0925 30.8639 47.3103 31.4481 47.0875 31.9431C46.8598 32.4382 46.2756 32.656 45.7806 32.4332C45.2855 32.2104 45.0677 31.6263 45.2904 31.1263Z" fill="white"/>
<path fill-rule="evenodd" clip-rule="evenodd" d="M49.2909 31.8669C49.0434 31.7531 48.7513 31.862 48.6374 32.1095C48.5236 32.357 48.6325 32.6491 48.88 32.763C49.1275 32.8769 49.4196 32.7679 49.5335 32.5204C49.6474 32.2729 49.5384 31.9808 49.2909 31.8669ZM48.1869 31.9065C48.4147 31.4115 48.9988 31.1936 49.4939 31.4164C49.989 31.6442 50.2068 32.2283 49.984 32.7234C49.7563 33.2184 49.1721 33.4363 48.677 33.2135C48.182 32.9858 47.9642 32.4016 48.1869 31.9065Z" fill="white"/>
</g>
</g>
<mask id="mask3_2940_66401" style="mask-type:luminance" maskUnits="userSpaceOnUse" x="61" y="10" width="11" height="11">
<path d="M65.0068 20.5551L71.7305 17.5088L68.6842 10.7851L61.9605 13.8314L65.0068 20.5551Z" fill="white"/>
</mask>
<g mask="url(#mask3_2940_66401)">
<g opacity="0.8">
<path fill-rule="evenodd" clip-rule="evenodd" d="M63.8706 14.3137C63.7171 14.383 63.6478 14.5662 63.7171 14.7196L65.4944 18.6405C65.5637 18.794 65.7468 18.8633 65.9003 18.794L69.8212 17.0167C69.9746 16.9474 70.0439 16.7642 69.9746 16.6108L68.1974 12.6899C68.1281 12.5364 67.9449 12.4671 67.7914 12.5364L63.8706 14.3137ZM63.1577 14.9771C62.9497 14.5117 63.1527 13.9671 63.6181 13.7543L67.5389 11.977C68.0043 11.7691 68.5489 11.9721 68.7617 12.4374L70.539 16.3583C70.7519 16.8236 70.544 17.3682 70.0786 17.5811L66.1577 19.3583C65.6924 19.5663 65.1478 19.3633 64.9349 18.8979L63.1577 14.9771Z" fill="white"/>
<path fill-rule="evenodd" clip-rule="evenodd" d="M65.3591 14.9909C65.2799 15.0255 65.2452 15.1146 65.2848 15.1938C65.3195 15.273 65.4086 15.3077 65.4878 15.2681C65.567 15.2334 65.6016 15.1394 65.562 15.0651C65.5274 14.9909 65.4383 14.9562 65.3591 14.9909ZM64.7204 15.4463C64.5472 15.0602 64.7155 14.6047 65.1016 14.4265C65.4878 14.2532 65.9432 14.4215 66.1215 14.8077C66.2947 15.1938 66.1264 15.6493 65.7403 15.8275C65.3541 16.0057 64.8987 15.8374 64.7204 15.4463Z" fill="white"/>
<path fill-rule="evenodd" clip-rule="evenodd" d="M67.4305 14.4899C67.4899 14.3315 67.6682 14.2523 67.8266 14.3117L69.8613 15.0791C70.0197 15.1385 70.0989 15.3167 70.0395 15.4751C69.9801 15.6335 69.8019 15.7127 69.6434 15.6533L67.8959 14.9949L66.3166 19.188C66.2572 19.3465 66.079 19.4257 65.9206 19.3663C65.7622 19.3069 65.683 19.1286 65.7424 18.9702L67.4305 14.4899Z" fill="white"/>
</g>
</g>
<path d="M95.2585 24.8131C95.0605 23.3527 94.6645 20.3576 94.6645 20.0605L91.9912 21.2982L91.4961 24.8131H95.2585Z" fill="#FFBDB4"/>
<path d="M93.9986 20.9766C93.6817 22.0459 92.4144 22.5261 91.8203 22.635L91.8946 21.8429L93.9986 20.9766Z" fill="#9C574D"/>
<path d="M91.2728 72.6195L92.4214 45.0595L87.8223 42.3516L88.9262 72.6145H91.2728V72.6195Z" fill="#FFBDB4"/>
<path d="M98.6863 73.033L97.5625 42.5918L92.4238 43.2156L96.8299 73.0379H98.6863V73.033Z" fill="#FFBDB4"/>
<path d="M92.5281 50.2418V38.9297H87.5033L86.9785 50.2418C89.0578 50.4101 90.2756 50.4052 92.5281 50.2418Z" fill="#27222D"/>
<path d="M97.488 38.8594L98.389 50.2259C96.3543 50.3744 95.1067 50.3744 93.072 50.2259L91.8047 38.8594H97.488Z" fill="#27222D"/>
<path d="M91.3842 75.2808V72.6025H88.8445L85.0078 74.9937V75.2858H91.3842V75.2808Z" fill="#000F25"/>
<path d="M98.5165 70.2734C98.3482 71.5457 97.373 72.3675 96.8086 72.5953H98.6502L98.5165 70.2734Z" fill="#ED968A"/>
<path d="M99.7893 75.2789L99.1062 72.5957H96.5665L94.918 75.2789H99.7893Z" fill="#000F25"/>
<path fill-rule="evenodd" clip-rule="evenodd" d="M88.2554 72.9637C87.8544 73.1023 87.3197 73.2409 86.8692 73.2607C86.6168 73.2706 86.4039 73.2409 86.2603 73.1617C86.191 73.1221 86.1365 73.0677 86.0969 73.0033C86.0623 72.9389 86.0425 72.8548 86.0474 72.7459C86.0524 72.637 86.0771 72.5627 86.1167 72.5033C86.1564 72.4439 86.2108 72.4092 86.2851 72.3845C86.4336 72.33 86.6465 72.3449 86.8989 72.3993C87.3445 72.5033 87.8643 72.7459 88.2554 72.9637ZM86.0029 72.4191C85.9435 72.5033 85.9138 72.6073 85.9088 72.736C85.9039 72.8647 85.9286 72.9736 85.9781 73.0677C86.0276 73.1617 86.1019 73.231 86.1959 73.2805C86.3742 73.3796 86.6217 73.4093 86.8791 73.3994C87.4039 73.3795 88.0326 73.2013 88.4485 73.0429L88.5871 72.9934L88.4584 72.9191C88.0574 72.6815 87.4485 72.3845 86.9286 72.2657C86.6712 72.2063 86.4286 72.1865 86.2405 72.2508C86.1415 72.2805 86.0623 72.335 86.0029 72.4191Z" fill="#204B89"/>
<path d="M93.7013 50.2451H93.4785L96.7707 72.6218H96.9687L93.7013 50.2451Z" fill="#FFCAC2"/>
<path fill-rule="evenodd" clip-rule="evenodd" d="M97.901 72.8573C97.5248 72.6543 97.0594 72.3523 96.7476 72.0355C96.5693 71.8573 96.4505 71.679 96.4109 71.5157C96.3911 71.4365 96.3911 71.3622 96.4159 71.2879C96.4406 71.2186 96.4901 71.1444 96.5693 71.0751C96.6485 71.0058 96.7278 70.9711 96.7971 70.9612C96.8664 70.9513 96.9307 70.9661 97 71.0058C97.1386 71.08 97.2773 71.2434 97.401 71.4662C97.6238 71.8721 97.802 72.4216 97.901 72.8573ZM96.7822 70.8325C96.6782 70.8473 96.5792 70.8919 96.4852 70.976C96.3862 71.0602 96.3218 71.1493 96.2871 71.2483C96.2525 71.3473 96.2525 71.4513 96.2772 71.5503C96.3268 71.7483 96.4703 71.9513 96.6535 72.1345C97.0198 72.5058 97.5792 72.8474 97.9802 73.0503L98.1139 73.1147L98.0842 72.9711C97.9852 72.5157 97.7971 71.8622 97.5347 71.4018C97.406 71.1741 97.2525 70.981 97.0792 70.882C96.9802 70.8424 96.8812 70.8176 96.7822 70.8325Z" fill="#204B89"/>
<path fill-rule="evenodd" clip-rule="evenodd" d="M88.4923 72.8499C88.3488 72.7113 88.1953 72.5331 88.0963 72.3648C88.0319 72.2559 88.0022 72.1618 88.0022 72.0875C88.0022 72.0529 88.0121 72.0232 88.027 71.9984C88.0418 71.9737 88.0715 71.9489 88.1161 71.9291C88.1607 71.9093 88.1953 71.9044 88.2201 71.9093C88.2448 71.9143 88.2696 71.9242 88.2943 71.9489C88.3438 71.9984 88.3884 72.0875 88.423 72.2113C88.4725 72.3945 88.4923 72.642 88.4923 72.8499ZM88.2399 71.7657C88.1805 71.7558 88.121 71.7707 88.0567 71.8004C87.9923 71.8301 87.9428 71.8697 87.9131 71.9192C87.8785 71.9687 87.8636 72.0281 87.8636 72.0826C87.8587 72.1965 87.9082 72.3202 87.9775 72.4341C88.1111 72.6668 88.3438 72.9093 88.5121 73.0628L88.6211 73.1618L88.626 73.0133C88.6359 72.7757 88.626 72.4291 88.5567 72.1668C88.5221 72.038 88.4725 71.9143 88.3884 71.84C88.3488 71.8004 88.2993 71.7707 88.2399 71.7657Z" fill="#204B89"/>
<path fill-rule="evenodd" clip-rule="evenodd" d="M98.0064 73.0867C98.0114 72.8886 98.0411 72.651 98.0955 72.4678C98.1351 72.349 98.1797 72.2599 98.2391 72.2104C98.2638 72.1856 98.2935 72.1708 98.3232 72.1659C98.3529 72.1609 98.3876 72.1658 98.4371 72.1807C98.4817 72.2005 98.5114 72.2203 98.5262 72.2451C98.5411 72.2649 98.551 72.2896 98.546 72.3243C98.546 72.3936 98.5064 72.4876 98.4421 72.5916C98.3332 72.7649 98.1599 72.9431 98.0064 73.0867ZM98.6401 72.1659C98.6054 72.1163 98.5559 72.0817 98.4916 72.052C98.4272 72.0272 98.3629 72.0173 98.3034 72.0272C98.244 72.0371 98.1896 72.0668 98.15 72.1015C98.0658 72.1757 98.0064 72.2946 97.9668 72.4233C97.8876 72.6807 97.8628 73.0124 97.8678 73.2401V73.3886L97.9817 73.2946C98.1648 73.1411 98.4124 72.9035 98.5609 72.6708C98.6351 72.5569 98.6896 72.4381 98.6896 72.3243C98.6896 72.2698 98.6747 72.2154 98.6401 72.1659Z" fill="#204B89"/>
<path fill-rule="evenodd" clip-rule="evenodd" d="M97.1973 73.3466H98.6775V73.0645H97.1973V73.3466Z" fill="#204B89"/>
<path fill-rule="evenodd" clip-rule="evenodd" d="M97.1973 74.0058H98.6775V73.7236H97.1973V74.0058Z" fill="#204B89"/>
<path fill-rule="evenodd" clip-rule="evenodd" d="M86.6816 74.0136H88.3995V73.7314H87.1074L86.6816 74.0136Z" fill="#204B89"/>
<path fill-rule="evenodd" clip-rule="evenodd" d="M87.832 73.2529H89.3865V72.9707L88.1885 72.9955L87.832 73.2529Z" fill="#204B89"/>
<path d="M85.0176 75.2784H91.4979V74.9863H85.0176V75.2784Z" fill="#000916"/>
<path d="M94.9082 75.2784H99.9083V74.9863H94.9082V75.2784Z" fill="#000916"/>
<path d="M86.6348 49.7852C88.9714 50.0574 90.3626 50.0624 92.7042 49.7852V50.3396C90.3824 50.6317 89.0606 50.6713 86.6348 50.3396V49.7852Z" fill="#1D1C1F"/>
<path d="M92.8848 49.6738C95.0333 49.8867 96.2413 49.8818 98.3898 49.6738V50.2283C96.2215 50.4709 95.0135 50.4758 92.8848 50.2283V49.6738Z" fill="#1D1C1F"/>
<path d="M91.9909 42.3574L92.4909 44.5555L92.5256 49.7536L92.6989 49.7833L92.4414 49.8724L91.4414 50.0011L91.9909 42.3574Z" fill="#1D1C1F"/>
<path d="M97.1826 38.25C94.3756 39.5124 90.1627 38.9975 88.4102 38.5767C90.4944 40.0273 95.2073 39.557 97.3014 39.1411L97.1826 38.25Z" fill="#1D1C1F"/>
<path d="M97.8356 50.3027C96.8454 50.4116 94.3305 50.3473 93.7266 50.3027C94.7612 50.6443 97.3256 50.877 97.8851 50.8622L97.8356 50.3027Z" fill="#ED968A"/>
<path d="M88.3015 50.4922H88.1035L88.9154 72.5768H89.1679L88.3015 50.4922Z" fill="#FFCAC2"/>
<path d="M92.1909 50.418C89.7453 50.6259 88.9829 50.5615 88.3789 50.517C89.4136 50.8586 91.6314 50.8784 92.1909 50.8635V50.418Z" fill="#ED968A"/>
<path d="M98.2387 49.7294L97.6348 41.6055L97.8031 49.7294H98.2387Z" fill="#3C3643"/>
<path d="M89.9961 16.6688C89.9961 20.4065 89.9961 23.7679 93.3625 21.8916C94.9863 20.9857 96.6348 18.5302 96.6348 16.6688C96.6348 14.8073 95.1101 13.5449 93.2536 13.5449C91.3971 13.54 89.9961 14.8073 89.9961 16.6688Z" fill="#FFBDB4"/>
<path d="M90.2846 18.2782C90.3803 18.2782 90.4579 18.2006 90.4579 18.1049C90.4579 18.0092 90.3803 17.9316 90.2846 17.9316C90.1889 17.9316 90.1113 18.0092 90.1113 18.1049C90.1113 18.2006 90.1889 18.2782 90.2846 18.2782Z" fill="#4F4F4F"/>
<path d="M92.1655 18.2782C92.2612 18.2782 92.3387 18.2006 92.3387 18.1049C92.3387 18.0092 92.2612 17.9316 92.1655 17.9316C92.0698 17.9316 91.9922 18.0092 91.9922 18.1049C91.9922 18.2006 92.0698 18.2782 92.1655 18.2782Z" fill="#4F4F4F"/>
<path d="M91.1727 18.501C91.2222 18.8475 90.7766 19.3426 90.8261 19.5158C90.8756 19.6891 91.143 19.5406 91.4202 19.3921" stroke="#4F4F4F" stroke-width="0.4"/>
<path d="M91.1043 13.9367C89.9211 14.7932 90.0052 16.2586 90.0052 16.2586C90.4458 16.1843 93.0053 15.8526 93.9459 16.3526C94.1093 16.5407 94.1439 18.2735 94.1439 18.2735L94.6736 20.8181C94.6736 20.8181 95.3023 20.1547 95.9509 18.9863C96.5994 17.818 96.9856 16.5952 96.1638 14.9318C95.3469 13.2684 92.2874 13.0803 91.1043 13.9367Z" fill="#1D1C1F"/>
<path d="M92.6841 17.2886C92.5356 17.1401 92.1494 16.9322 91.793 17.2886" stroke="#4F4F4F" stroke-width="0.4"/>
<path d="M89.7051 17.0811C89.809 17.2642 90.1308 17.5662 90.5665 17.3137" stroke="#4F4F4F" stroke-width="0.4"/>
<path d="M97.8045 38.9245C93.2054 40.5038 88.4775 39.583 87.2746 38.9245L87.6756 32.8601C87.6756 32.8601 86.5468 25.6966 87.9082 24.6074C89.2696 23.5183 91.6806 23.5678 91.6806 23.5678C92.3489 24.8054 94.7252 24.2411 95.047 23.3945L97.0421 23.7411L97.1807 30.7412C97.1807 30.7363 97.3292 37.1572 97.8045 38.9245Z" fill="#EF382D"/>
<path d="M87.7593 29.8754C86.6207 30.1229 86.1504 29.5288 86.1504 29.5288L87.5861 24.999L87.7593 29.8754Z" fill="#EF382D"/>
<path d="M97.0411 23.7334L99.4421 24.7978C99.4421 24.7978 99.9966 26.976 100.531 29.2286C98.7887 30.0949 96.8926 29.6246 96.8926 29.6246L97.0411 23.7334Z" fill="#EF382D"/>
<path d="M94.3477 18.9773C94.7041 18.9574 95.1694 18.5911 95.2833 18.4277C94.5754 19.5416 94.6397 19.4674 94.6892 20.3585L94.3477 18.9773Z" fill="#39130C"/>
<path d="M89.8596 27.2852L94.8597 28.3248L96.5429 27.805L96.2706 27.409C96.2706 27.409 94.1666 26.0723 93.523 25.7505C92.8795 25.4287 92.5082 25.4782 92.6072 25.7505C92.7062 26.0228 93.3993 26.8149 93.3993 26.8149L89.9586 26.7159C89.6121 26.7159 89.5378 27.2109 89.8596 27.2852Z" fill="#FFBDB4"/>
<path d="M77.049 27.2852L82.0491 28.3248L83.7323 27.805L83.4601 27.409C83.4601 27.409 81.3561 26.0723 80.7125 25.7505C80.0689 25.4287 79.6976 25.4782 79.7966 25.7505C79.8956 26.0228 80.5887 26.8149 80.5887 26.8149L77.1481 26.7159C76.8015 26.7159 76.7273 27.2109 77.049 27.2852Z" fill="#FFBDB4"/>
<path d="M96.2709 27.4219L101.147 33.3131C101.42 35.6399 98.969 35.5904 98.2512 34.3527L94.8848 28.313L96.2709 27.4219Z" fill="#FFBDB4"/>
<path d="M83.6942 27.793L87.6844 32.3228C87.6844 33.8673 87.5309 35.2387 87.5309 35.2387C86.8873 35.8575 85.714 35.2634 85.5259 34.9466C85.2041 34.407 82.1348 28.3128 82.1348 28.3128L83.6942 27.793Z" fill="#FFBDB4"/>
<path d="M90.0047 27.3322C91.5047 27.6441 94.7424 28.3372 94.881 28.3372L97.7523 33.4363L95.2028 28.0748L89.6829 26.9609C89.6235 27.1986 89.871 27.3075 90.0047 27.3322Z" fill="#ED968A"/>
<path d="M77.1993 27.3322C78.6993 27.6441 82.0014 28.3372 82.14 28.3372L84.5658 33.164L82.338 28.2134L76.8775 26.9609C76.8131 27.1986 77.0656 27.3075 77.1993 27.3322Z" fill="#ED968A"/>
<path d="M91.6935 20.4746C91.5054 20.2518 91.0896 19.8954 90.9212 20.2518C90.7529 20.6033 91.3668 20.5488 91.6935 20.4746Z" fill="white"/>
<path d="M97.2123 32.5168L94.9004 28.4375L97.4995 36.8288L97.2123 32.5168Z" fill="#3F2814"/>
<path d="M90.9545 39.7735C88.3009 39.4022 87.5138 38.6547 87.4296 37.1992L87.291 38.9072C87.692 39.3329 89.9346 39.6795 90.9545 39.7735Z" fill="#E91F12"/>
<path d="M95.1158 18.5967C95.4687 18.2381 95.5714 17.7671 95.3454 17.5446C95.1193 17.3222 94.65 17.4325 94.2971 17.7911C93.9443 18.1497 93.8415 18.6208 94.0675 18.8432C94.2936 19.0657 94.7629 18.9553 95.1158 18.5967Z" fill="#FFBDB4"/>
<path d="M97.9258 29.5268C98.8466 29.8981 99.9357 29.5021 100.431 29.2793C100.654 30.1209 101.05 31.4576 101.144 32.3982C101.198 32.9526 101.193 33.7596 101.119 34.1061C101.198 33.7101 100.985 33.2794 100.871 33.116L97.9258 29.5268Z" fill="#FFBDB4"/>
<path d="M97.041 28.2145L98.1054 29.6254H98.3034L97.041 26.5312V28.2145Z" fill="#E91F12"/>
<path d="M87.7122 29.8719C87.1182 30.0501 86.4746 29.7481 86.2964 29.5996L86.0488 30.4412L87.6875 32.4957L87.7122 29.8719Z" fill="#FFBDB4"/>
<path d="M87.0657 31.6799L86.0508 30.4918L86.1745 30.0215L87.0657 31.6799Z" fill="#ED968A"/>
<path d="M87.6856 32.2739L87.9084 26.6055L87.6113 29.8481C87.7103 29.8679 87.6856 32.2739 87.6856 32.2739Z" fill="#E91F12"/>
<path d="M98.7002 30.6158C98.4923 30.2841 98.0764 29.6158 98.0566 29.5762L98.3289 29.6752L98.7002 30.6158Z" fill="#ED968A"/>
<path opacity="0.3" d="M46.7572 27.889C47.3056 27.5925 47.6236 27.1181 47.4675 26.8295C47.3114 26.5409 46.7404 26.5474 46.1921 26.8439C45.6437 27.1405 45.3257 27.6148 45.4818 27.9034C45.6379 28.192 46.2089 28.1856 46.7572 27.889Z" fill="white"/>
<path opacity="0.3" d="M63.7702 12.4225C64.3329 12.1181 64.6594 11.6316 64.4995 11.3358C64.3395 11.04 63.7536 11.0469 63.1908 11.3513C62.6281 11.6556 62.3016 12.1421 62.4615 12.438C62.6215 12.7338 63.2074 12.7268 63.7702 12.4225Z" fill="white"/>
<path opacity="0.3" d="M45.0946 28.5075C45.2147 28.268 45.211 28.0231 45.0864 27.9606C44.9617 27.8981 44.7633 28.0416 44.6432 28.2812C44.5231 28.5207 44.5268 28.7655 44.6515 28.828C44.7761 28.8905 44.9745 28.747 45.0946 28.5075Z" fill="white"/>
<path opacity="0.3" d="M62.0699 13.0544C62.1924 12.81 62.1868 12.5592 62.0572 12.4943C61.9277 12.4293 61.7233 12.5748 61.6008 12.8192C61.4782 13.0636 61.4839 13.3144 61.6134 13.3793C61.743 13.4443 61.9473 13.2988 62.0699 13.0544Z" fill="white"/>
<path d="M80.7531 26.8027H80.5798C80.4313 26.6146 80.0947 26.1839 79.9363 25.9859C79.7382 25.7384 79.7877 25.5898 79.8372 25.5898C79.8769 25.5898 80.466 26.3968 80.7531 26.8027Z" fill="#ED968A"/>
<mask id="mask4_2940_66401" style="mask-type:luminance" maskUnits="userSpaceOnUse" x="103" y="15" width="17" height="17">
<path d="M119.371 15.2275H103.281V31.317H119.371V15.2275Z" fill="white"/>
</mask>
<g mask="url(#mask4_2940_66401)">
<path d="M107.186 18.3052L106.325 19.1468C106.285 19.1864 106.27 19.2359 106.28 19.2903L106.483 20.4785C106.488 20.5082 106.473 20.5329 106.454 20.5428C106.434 20.5527 106.409 20.5577 106.389 20.5428L105.32 19.9834C105.275 19.9587 105.216 19.9587 105.166 19.9834L104.097 20.5428C104.052 20.5676 103.993 20.528 104.003 20.4735L104.206 19.2854C104.216 19.2309 104.196 19.1765 104.161 19.1418L103.295 18.3002C103.255 18.2606 103.28 18.1963 103.33 18.1913L104.523 18.018C104.577 18.0081 104.622 17.9784 104.647 17.9289L105.181 16.8447C105.206 16.7952 105.275 16.7952 105.3 16.8447L105.835 17.9289C105.859 17.9784 105.904 18.0081 105.958 18.018L107.152 18.1913C107.206 18.2062 107.226 18.2705 107.186 18.3052Z" fill="#FAD207"/>
<path d="M105.304 21.4348L105.839 22.519C105.863 22.5685 105.908 22.5982 105.962 22.6081L107.155 22.7813C107.21 22.7912 107.23 22.8556 107.19 22.8903L106.329 23.7319C106.289 23.7715 106.274 23.821 106.284 23.8754L106.487 25.0636C106.497 25.118 106.443 25.1576 106.393 25.1329L105.324 24.5735C105.274 24.5487 105.22 24.5487 105.17 24.5735L104.101 25.1329C104.051 25.1576 103.997 25.118 104.007 25.0636L104.21 23.8754C104.22 23.821 104.2 23.7665 104.165 23.7319L103.299 22.8903C103.259 22.8507 103.284 22.7863 103.334 22.7813L104.527 22.6081C104.581 22.5982 104.626 22.5685 104.65 22.519L105.185 21.4348C105.21 21.3902 105.279 21.3902 105.304 21.4348Z" fill="#FAD207"/>
<path d="M105.304 26.0176L105.839 27.1018C105.863 27.1513 105.908 27.181 105.962 27.1909L107.155 27.3642C107.21 27.3741 107.23 27.4384 107.19 27.4731L106.329 28.3147C106.289 28.3543 106.274 28.4038 106.284 28.4582L106.487 29.6464C106.497 29.7008 106.443 29.7404 106.393 29.7157L105.324 29.1563C105.274 29.1315 105.22 29.1315 105.17 29.1563L104.101 29.7157C104.051 29.7404 103.997 29.7008 104.007 29.6464L104.21 28.4582C104.22 28.4038 104.2 28.3493 104.165 28.3147L103.299 27.4731C103.259 27.4335 103.284 27.3691 103.334 27.3642L104.527 27.1909C104.581 27.181 104.626 27.1513 104.65 27.1018L105.185 26.0176C105.21 25.9681 105.279 25.9681 105.304 26.0176Z" fill="#FAD207"/>
<path d="M104.804 19.2439L104.101 20.5459C104.056 20.5706 103.997 20.531 104.007 20.4766L104.21 19.2884C104.22 19.234 104.2 19.1795 104.165 19.1449L103.299 18.3032C103.259 18.2636 103.284 18.1993 103.334 18.1943L104.74 19.031C104.819 19.0755 104.844 19.1696 104.804 19.2439Z" fill="#FAA515"/>
<path d="M105.304 16.8498L105.209 17.7954C105.205 17.8696 105.145 17.9291 105.071 17.939L104.531 18.0231C104.586 18.0132 104.63 17.9835 104.655 17.934L105.19 16.8498C105.209 16.8053 105.279 16.8053 105.304 16.8498Z" fill="#FAA515"/>
<path d="M104.804 23.8298L104.101 25.1318C104.056 25.1566 103.997 25.117 104.007 25.0625L104.21 23.8744C104.22 23.8199 104.2 23.7654 104.165 23.7308L103.299 22.8892C103.259 22.8496 103.284 22.7852 103.334 22.7803L104.74 23.6169C104.819 23.6615 104.844 23.7555 104.804 23.8298Z" fill="#FAA515"/>
<path d="M105.304 21.4348L105.18 22.3853C105.17 22.4546 105.115 22.514 105.046 22.5239L104.531 22.6081C104.586 22.5982 104.63 22.5685 104.655 22.519L105.19 21.4348C105.209 21.3902 105.279 21.3902 105.304 21.4348Z" fill="#FAA515"/>
<path d="M104.804 28.4128L104.101 29.7148C104.056 29.7396 103.997 29.7 104.007 29.6455L104.21 28.4574C104.22 28.4029 104.2 28.3484 104.165 28.3138L103.299 27.4722C103.259 27.4326 103.284 27.3682 103.334 27.3633L104.74 28.1999C104.819 28.2395 104.844 28.3385 104.804 28.4128Z" fill="#FAA515"/>
<path d="M105.304 26.0197L105.18 26.9703C105.17 27.0396 105.115 27.099 105.046 27.1089L104.531 27.193C104.586 27.1831 104.63 27.1534 104.655 27.1039L105.19 26.0197C105.209 25.9752 105.279 25.9752 105.304 26.0197Z" fill="#FAA515"/>
<path d="M119.044 17.5957C119.222 17.5957 119.371 17.7393 119.371 17.9224V19.4175C119.371 19.5957 119.227 19.7443 119.044 19.7443H109.292C109.113 19.7443 108.965 19.6007 108.965 19.4175V17.9224C108.965 17.7442 109.108 17.5957 109.292 17.5957H119.044Z" fill="#93DDB7"/>
<path d="M109.944 19.7443H109.295C109.117 19.7443 108.969 19.6007 108.969 19.4175V17.9224C108.969 17.7442 109.112 17.5957 109.295 17.5957H109.622V19.4175C109.617 19.5957 109.761 19.7443 109.944 19.7443Z" fill="#5ED297"/>
<path d="M117.413 18.91H110.586C110.453 18.91 110.344 18.8011 110.344 18.6674C110.344 18.5337 110.453 18.4248 110.586 18.4248H117.413C117.547 18.4248 117.656 18.5337 117.656 18.6674C117.656 18.8011 117.552 18.91 117.413 18.91Z" fill="#2B597F"/>
<path d="M109.292 24.3253C109.113 24.3253 108.965 24.1817 108.965 23.9986V22.5035C108.965 22.3253 109.108 22.1768 109.292 22.1768H116.445C116.623 22.1768 116.772 22.3203 116.772 22.5035V23.9986C116.772 24.1768 116.628 24.3253 116.445 24.3253H109.292Z" fill="#93DDB7"/>
<path d="M115.142 23.4949H110.592C110.459 23.4949 110.35 23.386 110.35 23.2523C110.35 23.1187 110.459 23.0098 110.592 23.0098H115.142C115.275 23.0098 115.384 23.1187 115.384 23.2523C115.384 23.386 115.275 23.4949 115.142 23.4949Z" fill="#2B597F"/>
<path d="M113.193 26.7637C113.371 26.7637 113.519 26.9072 113.519 27.0904V28.5855C113.519 28.7637 113.376 28.9122 113.193 28.9122H109.292C109.113 28.9122 108.965 28.7687 108.965 28.5855V27.0904C108.965 26.9122 109.108 26.7637 109.292 26.7637H113.193Z" fill="#93DDB7"/>
<path d="M112.058 28.076H110.434C110.3 28.076 110.191 27.9671 110.191 27.8334C110.191 27.6997 110.3 27.5908 110.434 27.5908H112.058C112.191 27.5908 112.3 27.6997 112.3 27.8334C112.3 27.9671 112.191 28.076 112.058 28.076Z" fill="#2B597F"/>
<path d="M109.944 24.3253H109.295C109.117 24.3253 108.969 24.1817 108.969 23.9986V22.5035C108.969 22.3253 109.112 22.1768 109.295 22.1768H109.622V23.9986C109.617 24.1768 109.761 24.3253 109.944 24.3253Z" fill="#5ED297"/>
<path d="M109.944 28.9025H109.295C109.117 28.9025 108.969 28.7589 108.969 28.5757V27.0806C108.969 26.9024 109.112 26.7539 109.295 26.7539H109.622V28.5757C109.617 28.7589 109.761 28.9025 109.944 28.9025Z" fill="#5ED297"/>
</g>
<path d="M40.8276 12.498C41.6342 12.498 42.288 11.8441 42.288 11.0376C42.288 10.231 41.6342 9.57715 40.8276 9.57715C40.021 9.57715 39.3672 10.231 39.3672 11.0376C39.3672 11.8441 40.021 12.498 40.8276 12.498Z" fill="#FD6C30"/>
<path d="M68.0561 31.6552C68.8627 31.6552 69.5166 31.0014 69.5166 30.1948C69.5166 29.3882 68.8627 28.7344 68.0561 28.7344C67.2496 28.7344 66.5957 29.3882 66.5957 30.1948C66.5957 31.0014 67.2496 31.6552 68.0561 31.6552Z" fill="#4C58FD"/>
<path d="M102.166 67.497C102.972 67.497 103.626 66.8432 103.626 66.0366C103.626 65.23 102.972 64.5762 102.166 64.5762C101.359 64.5762 100.705 65.23 100.705 66.0366C100.705 66.8432 101.359 67.497 102.166 67.497Z" fill="#93DDB7"/>
<path d="M3.05222 71.458C3.85879 71.458 4.51265 70.8041 4.51265 69.9975C4.51265 69.191 3.85879 68.5371 3.05222 68.5371C2.24565 68.5371 1.5918 69.191 1.5918 69.9975C1.5918 70.8041 2.24565 71.458 3.05222 71.458Z" fill="#4C58FD"/>
<path d="M36.3745 54.082C37.1811 54.082 37.8349 53.4281 37.8349 52.6216C37.8349 51.815 37.1811 51.1611 36.3745 51.1611C35.5679 51.1611 34.9141 51.815 34.9141 52.6216C34.9141 53.4281 35.5679 54.082 36.3745 54.082Z" fill="#FEAE37"/>
<path d="M40.8279 11.8023C41.2517 11.8023 41.5952 11.4587 41.5952 11.0349C41.5952 10.6111 41.2517 10.2676 40.8279 10.2676C40.4041 10.2676 40.0605 10.6111 40.0605 11.0349C40.0605 11.4587 40.4041 11.8023 40.8279 11.8023Z" fill="white"/>
<path d="M68.0564 30.9634C68.4802 30.9634 68.8237 30.6198 68.8237 30.1961C68.8237 29.7723 68.4802 29.4287 68.0564 29.4287C67.6326 29.4287 67.2891 29.7723 67.2891 30.1961C67.2891 30.6198 67.6326 30.9634 68.0564 30.9634Z" fill="white"/>
<path d="M102.168 66.8052C102.592 66.8052 102.935 66.4616 102.935 66.0378C102.935 65.6141 102.592 65.2705 102.168 65.2705C101.744 65.2705 101.4 65.6141 101.4 66.0378C101.4 66.4616 101.744 66.8052 102.168 66.8052Z" fill="white"/>
<path d="M3.05445 70.7642C3.47824 70.7642 3.82179 70.4206 3.82179 69.9968C3.82179 69.573 3.47824 69.2295 3.05445 69.2295C2.63066 69.2295 2.28711 69.573 2.28711 69.9968C2.28711 70.4206 2.63066 70.7642 3.05445 70.7642Z" fill="white"/>
<path d="M36.3709 53.3882C36.7946 53.3882 37.1382 53.0446 37.1382 52.6209C37.1382 52.1971 36.7946 51.8535 36.3709 51.8535C35.9471 51.8535 35.6035 52.1971 35.6035 52.6209C35.6035 53.0446 35.9471 53.3882 36.3709 53.3882Z" fill="white"/>
<defs>
<linearGradient id="paint0_linear_2940_66401" x1="39.5413" y1="43.0775" x2="81.5065" y2="43.0775" gradientUnits="userSpaceOnUse">
<stop stop-color="#FEB137"/>
<stop offset="1" stop-color="#FD6930"/>
</linearGradient>
<linearGradient id="paint1_linear_2940_66401" x1="49.8936" y1="46.3958" x2="72.002" y2="46.3958" gradientUnits="userSpaceOnUse">
<stop stop-color="#F2FBFF"/>
<stop offset="0.593" stop-color="#FAF7F7"/>
<stop offset="1" stop-color="#F3EAE6"/>
</linearGradient>
<linearGradient id="paint2_linear_2940_66401" x1="73.9148" y1="46.3958" x2="78.8996" y2="46.3958" gradientUnits="userSpaceOnUse">
<stop stop-color="#F3EAE6"/>
<stop offset="1" stop-color="#CDBFBA"/>
</linearGradient>
<linearGradient id="paint3_linear_2940_66401" x1="39.4594" y1="59.8429" x2="83.2265" y2="59.8429" gradientUnits="userSpaceOnUse">
<stop stop-color="#FFF9DF"/>
<stop offset="0.593" stop-color="#FFE177"/>
<stop offset="1" stop-color="#FEB137"/>
</linearGradient>
<linearGradient id="paint4_linear_2940_66401" x1="45.0424" y1="59.8429" x2="61.5106" y2="59.8429" gradientUnits="userSpaceOnUse">
<stop stop-color="#FFE177"/>
<stop offset="1" stop-color="#FEB137"/>
</linearGradient>
<linearGradient id="paint5_linear_2940_66401" x1="72.5854" y1="40.7637" x2="72.5854" y2="44.5756" gradientUnits="userSpaceOnUse">
<stop stop-color="#3692FE"/>
<stop offset="1" stop-color="#5A31FD"/>
</linearGradient>
<linearGradient id="paint6_linear_2940_66401" x1="66.8178" y1="9.47559" x2="66.8178" y2="21.8026" gradientUnits="userSpaceOnUse">
<stop stop-color="#5FB3E1"/>
<stop offset="1" stop-color="#43A7DD"/>
</linearGradient>
</defs>
</svg>
