<svg width="250" height="157" viewBox="0 0 250 157" fill="none" xmlns="http://www.w3.org/2000/svg">
<mask id="mask0_2940_66790" style="mask-type:luminance" maskUnits="userSpaceOnUse" x="191" y="114" width="42" height="42">
<path d="M232.789 114.149H191.018V155.92H232.789V114.149Z" fill="white"/>
</mask>
<g mask="url(#mask0_2940_66790)">
<path d="M210.841 116.347V125.196H210.8C210.109 125.196 209.428 125.258 208.768 125.382C208.479 125.433 208.201 125.495 207.922 125.578C203.281 126.836 199.857 131.085 199.857 136.129C199.857 138.109 200.383 139.976 201.311 141.585L198.919 146.071L193.648 146.009C191.967 143.101 191.008 139.728 191.008 136.129C191.008 126.176 198.351 117.945 207.922 116.553C208.201 116.512 208.479 116.481 208.768 116.45C209.439 116.378 210.109 116.347 210.8 116.347H210.841Z" fill="#2EDFFC"/>
<path d="M210.84 122.245V125.185H210.799C204.765 125.185 199.866 130.073 199.866 136.117C199.866 138.097 200.392 139.964 201.321 141.573L198.752 143.058C197.577 141.016 196.906 138.654 196.906 136.138C196.906 128.475 203.125 122.255 210.789 122.255H210.84V122.245Z" fill="#27BDF3"/>
<path d="M214.282 155.588C213.147 155.794 211.982 155.897 210.796 155.897C203.473 155.897 197.078 151.916 193.654 145.996L201.317 141.571C203.205 144.851 206.743 147.048 210.796 147.048C211.466 147.048 212.116 146.986 212.745 146.873L216.427 151.184L214.282 155.588Z" fill="#FAD207"/>
<path d="M213.254 149.802C212.449 149.946 211.624 150.018 210.778 150.018C205.632 150.018 201.145 147.223 198.742 143.056L201.31 141.571C203.198 144.841 206.735 147.048 210.789 147.048C211.459 147.048 212.109 146.986 212.738 146.873L213.254 149.802Z" fill="#FAA515"/>
<path d="M225.998 148.787C225.555 149.324 225.08 149.829 224.585 150.314C224.379 150.51 224.173 150.706 223.966 150.891C223.884 150.964 223.801 151.036 223.729 151.108C221.099 153.377 217.861 154.965 214.302 155.605L212.766 146.89C214.22 146.632 215.571 146.085 216.757 145.301C216.871 145.229 216.974 145.157 217.077 145.085C217.304 144.92 217.531 144.755 217.747 144.579C218.284 144.136 218.779 143.651 219.212 143.115C219.212 143.115 219.212 143.115 219.222 143.104L221.151 144.724L225.483 148.365L225.998 148.787Z" fill="#FD646F"/>
<path d="M221.481 145.002C219.439 147.467 216.551 149.21 213.272 149.798L212.756 146.879C215.345 146.415 217.614 145.043 219.223 143.104L220.914 144.528L221.481 145.002Z" fill="#FC4755"/>
<path d="M210.844 116.347L212.556 119.977L210.844 125.196H210.803C210.112 125.196 209.431 125.258 208.781 125.382V116.45C209.452 116.378 210.122 116.347 210.803 116.347H210.844Z" fill="#27BDF3"/>
<path d="M225.998 148.778C225.554 149.315 225.08 149.82 224.585 150.305L217.736 144.56C218.273 144.116 218.768 143.632 219.201 143.095C219.201 143.095 219.201 143.095 219.211 143.085L224.079 144.776L225.472 148.335L225.998 148.778Z" fill="#FC4755"/>
<path d="M232.789 136.119C232.789 141.163 231.087 145.814 228.23 149.517C227.942 149.898 227.385 149.96 227.024 149.651L220.908 144.515L219.216 143.091C220.784 141.194 221.733 138.77 221.733 136.109C221.733 130.086 216.865 125.207 210.852 125.176V114.976C210.852 114.501 211.254 114.12 211.728 114.13C223.434 114.635 232.789 124.289 232.789 136.119Z" fill="#50758D"/>
<path d="M224.672 136.128C224.672 139.5 223.476 142.594 221.475 144.997L220.908 144.523L219.216 143.1C220.784 141.202 221.733 138.778 221.733 136.117C221.733 130.094 216.865 125.215 210.852 125.185V122.245C218.484 122.276 224.672 128.485 224.672 136.128Z" fill="#2B597F"/>
</g>
<path d="M25.4312 136.491C27.793 124.63 22.2339 113.357 20.3465 101.867C20.2949 101.496 19.7173 101.661 19.7689 102.022C21.6563 113.408 27.2155 124.64 24.8536 136.388C24.802 136.697 25.328 136.862 25.4312 136.491Z" fill="#89AFF1"/>
<path d="M26.1172 131.51C27.1692 128.787 28.2109 126.106 28.8504 123.218C29.3764 120.753 29.4795 118.236 29.7992 115.72C30.48 110.058 31.9548 104.55 34.0485 99.3002C34.2032 98.9289 33.6257 98.7742 33.471 99.1455C31.4288 104.127 30.0055 109.325 29.3248 114.678C28.9535 117.463 28.8504 120.289 28.2728 123.074C27.6952 125.91 26.5916 128.633 25.5396 131.366C25.4365 131.717 26.0141 131.871 26.1172 131.51Z" fill="#315DAA"/>
<path d="M30.3125 111.729C28.3735 105.953 30.2609 99.4037 32.7259 93.8343C35.1909 88.2648 38.5532 83.1285 40.3375 77.3115C41.2245 87.285 39.1824 97.506 34.4586 106.376C33.4066 108.428 32.1484 110.419 30.3125 111.729Z" fill="#315DAA"/>
<path d="M28.577 124.111C31.3617 122.172 33.5585 118.809 35.8173 116.293C40.0666 111.414 46.523 108.32 49.0912 102.39C48.3073 106.381 47.1006 110.259 45.5226 113.982C44.8419 115.664 44.058 117.345 42.9544 118.809C39.8603 123.059 33.7236 125.214 28.5254 124.368" fill="#89AFF1"/>
<path d="M22.1867 111.471C17.7311 108.006 16.411 101.766 16.576 96.0931C16.7307 90.4308 17.9374 84.7582 17.102 79.1475C20.4024 83.5515 22.1867 89.0075 22.8777 94.4635C23.4966 100.033 22.919 106.015 22.1867 111.471Z" fill="#89AFF1"/>
<path d="M25.4373 126C23.4983 125.102 21.8688 124.009 19.9298 123.112C17.5163 121.957 15.1029 120.802 13.1123 119.069C9.12087 115.5 7.50159 109.941 3.61328 106.218C9.17243 109.106 14.4737 112.561 19.3522 116.449C22.4463 118.914 25.1795 121.647 25.3858 125.628" fill="#315DAA"/>
<path d="M27.7482 125.686C27.0675 124.005 26.6962 122.273 26.0155 120.602C25.18 118.446 24.3343 116.301 24.1796 113.939C23.8599 109.164 26.2733 104.131 26.1702 99.3037C27.9029 104.44 29.1612 109.793 29.7903 115.362C30.2132 118.879 30.2647 122.396 27.9029 125.439" fill="#315DAA"/>
<path d="M33.8305 134.072C34.6143 141.415 33.3045 149.553 30.53 154.483C30.3753 154.793 30.1072 154.958 29.9009 154.958H22.1861C21.9799 154.958 21.7117 154.803 21.557 154.483C18.7723 149.553 17.4624 141.415 18.2566 134.072C18.3597 133.175 18.731 132.607 19.2055 132.607H32.9538C33.3045 132.556 33.7273 133.185 33.8305 134.072Z" fill="#1F1C69"/>
<path d="M21.5104 154.437C21.6651 154.746 21.9332 154.911 22.1395 154.911H29.8027C30.009 154.911 30.2771 154.756 30.4318 154.437C31.3807 152.807 32.1645 150.817 32.7421 148.609C23.5112 148.764 19.4682 140.162 18.1068 136.336C17.5705 142.896 18.8803 149.971 21.5104 154.437Z" fill="#0B0851"/>
<path d="M3.60984 0.163086H45.7934C47.784 0.163086 49.4032 1.78236 49.4032 3.77293V45.9565C49.4032 47.9471 47.784 49.5663 45.7934 49.5663H3.60984C1.61927 49.5663 0 47.9471 0 45.9565V3.77293C0 1.78236 1.61927 0.163086 3.60984 0.163086Z" fill="white"/>
<mask id="mask1_2940_66790" style="mask-type:luminance" maskUnits="userSpaceOnUse" x="7" y="8" width="36" height="36">
<path d="M42.8112 8.27832H7.74414V43.3453H42.8112V8.27832Z" fill="white"/>
</mask>
<g mask="url(#mask1_2940_66790)">
<path d="M27.0801 23.7988V9.05003C27.0801 8.64779 27.4204 8.31775 27.833 8.34869C39.1988 9.09129 46.1813 21.3235 41.1585 31.5136C40.9831 31.8642 40.5499 31.9983 40.2199 31.8023L27.4411 24.4176C27.2142 24.2836 27.0801 24.0567 27.0801 23.7988Z" fill="#2EDFFC"/>
<path d="M38.3495 35.2475C38.6899 35.4434 38.793 35.8766 38.5764 36.2067C37.246 38.2076 35.4617 39.899 33.3989 41.1264L33.3886 41.1367C30.9339 42.5703 28.1388 43.3335 25.2922 43.3335C25.055 43.3335 24.8281 43.3335 24.5909 43.3129C22.0331 43.1995 19.5268 42.4672 17.299 41.1676C15.1744 39.9403 13.3591 38.2385 12.008 36.2067C11.7914 35.8869 11.8946 35.4434 12.2349 35.2475L13.225 34.6699L24.9416 27.8731C25.1581 27.7493 25.4263 27.7493 25.6532 27.8731L38.3495 35.2475Z" fill="#93DDB7"/>
<path d="M23.4852 9.03904V23.7466C23.4852 23.9941 23.3512 24.2313 23.1346 24.3551L10.3454 31.7295C10.0154 31.9151 9.59253 31.8017 9.41719 31.4613V31.451C4.45624 21.952 11.1293 9.80226 21.5256 8.44084C21.9279 8.38927 22.3301 8.34801 22.753 8.32738C23.1552 8.31707 23.4852 8.64712 23.4852 9.03904Z" fill="#FD646F"/>
<path d="M41.8392 29.9025C41.6432 30.4388 41.4163 30.9854 41.1481 31.5114C40.9728 31.8621 40.5396 31.9859 40.2096 31.8002L27.4308 24.4155C27.2142 24.2917 27.0801 24.0545 27.0801 23.807V21.3936L41.8392 29.9025Z" fill="#27BDF3"/>
<path d="M23.4907 21.3447V23.7582C23.4907 24.0057 23.3566 24.2429 23.14 24.3667L10.3612 31.7411C10.0311 31.937 9.60824 31.8133 9.42259 31.4729C9.14412 30.9469 8.9069 30.4209 8.71094 29.8846L23.4907 21.3447Z" fill="#FC4755"/>
<path d="M38.3598 35.2469C38.7002 35.4429 38.8033 35.876 38.5867 36.2061C37.2563 38.207 35.472 39.8984 33.3989 41.1258L33.3886 41.1361C30.9339 42.5697 28.1388 43.3329 25.2922 43.3329C25.055 43.3329 24.8281 43.3329 24.5909 43.3123C22.0331 43.1989 19.5268 42.4666 17.299 41.167C15.1744 39.9397 13.3591 38.2379 12.008 36.2061C11.7914 35.8864 11.8946 35.4429 12.2349 35.2469L13.0497 34.7725C14.2461 36.1958 15.6797 37.4025 17.299 38.3514C19.5268 39.6406 22.0434 40.3832 24.5909 40.4966C24.8281 40.507 25.055 40.5173 25.2922 40.5173C28.1388 40.5173 30.9339 39.754 33.3886 38.3204L33.3989 38.3101C34.9769 37.3715 36.3693 36.1751 37.5451 34.7828L38.3598 35.2469Z" fill="#5ED297"/>
</g>
<path d="M163.448 79.2848H127.628C125.059 79.2848 122.594 78.2637 120.79 76.4485L116.53 72.1888C114.715 70.3736 112.25 69.3525 109.682 69.3525H85.5988C82.5252 69.3525 80.0293 71.8485 80.0293 74.922V102.749C80.0293 105.822 82.5252 108.318 85.5988 108.318H163.458C166.531 108.318 169.027 105.822 169.027 102.749V84.8542C169.017 81.7807 166.521 79.2848 163.448 79.2848Z" fill="url(#paint0_linear_2940_66790)"/>
<path d="M160.113 108.315H88.3394C85.5031 108.315 83.2031 106.015 83.2031 103.179V88.3169C83.2031 85.4806 85.5031 83.1807 88.3394 83.1807H160.113C162.95 83.1807 165.25 85.4806 165.25 88.3169V103.179C165.25 106.015 162.95 108.315 160.113 108.315Z" fill="url(#paint1_linear_2940_66790)"/>
<path d="M160.114 83.1807H152.832C155.668 83.1807 157.968 85.4806 157.968 88.3169V103.179C157.968 106.015 155.668 108.315 152.832 108.315H160.114C162.95 108.315 165.25 106.015 165.25 103.179V88.3169C165.25 85.4806 162.95 83.1807 160.114 83.1807Z" fill="url(#paint2_linear_2940_66790)"/>
<path d="M49.3555 22.0771H110.929C114.064 22.0771 116.602 24.6144 116.602 27.7498V97.6259" stroke="#2B597F" stroke-width="5"/>
<path d="M4.43359 156.314V127.847C4.43359 124.712 6.9708 122.175 10.1062 122.175H79.9824" stroke="#2B597F" stroke-width="5"/>
<path d="M51.0547 156.316V114.029C51.0547 110.894 53.5919 108.356 56.7273 108.356H80.346" stroke="#2B597F" stroke-width="5"/>
<path d="M210.814 156.314V127.847C210.814 124.712 208.277 122.175 205.142 122.175H172.344" stroke="#2B597F" stroke-width="5"/>
<path d="M208.591 45.3291H145.419C142.283 45.3291 139.746 47.8663 139.746 51.0017V112.317" stroke="#2B597F" stroke-width="5"/>
<path d="M166.851 155.609H85.6504C82.4428 155.609 79.8438 153.01 79.8438 149.803V97.7178C79.8438 94.5102 82.4428 91.9111 85.6504 91.9111H166.851C170.059 91.9111 172.658 94.5102 172.658 97.7178V149.803C172.658 153.01 170.059 155.609 166.851 155.609Z" fill="url(#paint3_linear_2940_66790)"/>
<path d="M166.842 91.9111H159.375C162.583 91.9111 165.182 94.5102 165.182 97.7178V149.803C165.182 153.01 162.583 155.609 159.375 155.609H166.842C170.05 155.609 172.649 153.01 172.649 149.803V97.7178C172.649 94.5102 170.05 91.9111 166.842 91.9111Z" fill="url(#paint4_linear_2940_66790)"/>
<path d="M39.0918 151.57L44.455 156.005H41.4949L39.0918 151.57Z" fill="#208C54"/>
<path d="M211.014 26.7646H246.391C248.381 26.7646 250 28.3839 250 30.3745V65.7509C250 67.7415 248.381 69.3608 246.391 69.3608H211.014C209.024 69.3608 207.404 67.7415 207.404 65.7509V30.3745C207.404 28.3839 209.024 26.7646 211.014 26.7646Z" fill="white"/>
<path d="M149.133 84.0107C144.75 84.0107 141.191 87.569 141.191 91.9524H157.075C157.075 87.569 153.516 84.0107 149.133 84.0107Z" fill="url(#paint5_linear_2940_66790)"/>
<path d="M149.135 83.9141C144.752 83.9141 141.193 87.4723 141.193 91.8557H157.077C157.077 87.4723 153.518 83.9141 149.135 83.9141Z" fill="white"/>
<path opacity="0.34" d="M203.481 72.1241C202.862 70.7523 202.429 69.329 202.346 69.0815L200.645 68.6689L202.501 70.7833L203.481 72.1241Z" fill="#3F2814"/>
<path d="M199.922 67.585L200.85 68.7195C201.19 68.7711 202.026 68.9051 202.603 69.0289C203.181 69.1527 203.635 69.0805 203.79 69.0289L199.922 67.585Z" fill="#ED968A"/>
<path d="M98.9076 74.1111C104.604 74.1111 109.221 69.4934 109.221 63.7972C109.221 58.1011 104.604 53.4834 98.9076 53.4834C93.2114 53.4834 88.5938 58.1011 88.5938 63.7972C88.5938 69.4934 93.2114 74.1111 98.9076 74.1111Z" fill="#5CAFDD"/>
<path d="M137.118 44.5164C144.21 44.5164 149.959 38.7674 149.959 31.6757C149.959 24.5839 144.21 18.835 137.118 18.835C130.026 18.835 124.277 24.5839 124.277 31.6757C124.277 38.7674 130.026 44.5164 137.118 44.5164Z" fill="url(#paint6_linear_2940_66790)"/>
<path d="M50.7873 25.1089C54.4075 24.3766 57.5222 25.4699 58.4711 26.4807L57.1406 32.4214C54.655 32.9268 57.5635 36.4438 57.5635 36.4438C57.5635 36.4438 54.5106 41.3119 54.7478 42.8796C46.7752 44.5195 51.3546 41.7657 49.725 40.6725C42.1237 38.6613 44.1761 26.4497 50.7873 25.1089Z" fill="#550F01"/>
<path d="M48.1543 49.039C48.5669 45.9964 49.392 39.7565 49.392 39.1377L54.9614 41.7162L55.9928 49.039H48.1543Z" fill="#FFBDB4"/>
<path d="M50.8398 41.0518C51.4999 43.2795 54.1403 44.28 55.3779 44.5069L55.2232 42.8567L50.8398 41.0518Z" fill="#9C574D"/>
<path d="M54.5117 140.981L55.8422 79.6553H66.6202V140.981H54.5117Z" fill="#070045"/>
<path d="M43.9445 79.499L36.6113 141.186H48.8642L57.6618 79.499H43.9445Z" fill="#070045"/>
<path d="M58.7109 156.1V150.252H64.2495L72.614 155.46V156.09H58.7109V156.1Z" fill="#000F25"/>
<path d="M36.8652 156.1L38.3504 150.252H43.8889L47.4782 156.1H36.8652Z" fill="#000F25"/>
<path d="M59.6328 150.31L58.457 141.131H64.6144L63.6965 150.31H59.6328Z" fill="#FFBDB4"/>
<path d="M39.2773 150.316L39.7415 141.033H46.3011L43.3307 150.316H39.2773Z" fill="#FFBDB4"/>
<path d="M53.8379 137.957H67.1737V141.031H53.8379V137.957Z" fill="#020011"/>
<path d="M36.1035 138.162H49.4393V141.236H36.1035V138.162Z" fill="#020011"/>
<path fill-rule="evenodd" clip-rule="evenodd" d="M65.537 151.041C66.4136 151.35 67.5791 151.649 68.5589 151.69C69.1056 151.711 69.5697 151.649 69.8894 151.474C70.0441 151.381 70.1679 151.278 70.2401 151.133C70.3226 150.989 70.3638 150.803 70.3535 150.577C70.3432 150.339 70.2916 150.174 70.1988 150.051C70.1163 149.927 69.9925 149.844 69.8275 149.782C69.4975 149.669 69.0334 149.69 68.497 149.813C67.5275 150.04 66.3827 150.566 65.537 151.041ZM70.4464 149.865C70.5701 150.051 70.6423 150.277 70.6526 150.556C70.6629 150.834 70.6114 151.072 70.4979 151.278C70.3845 151.474 70.2195 151.629 70.0235 151.742C69.6316 151.959 69.0952 152.02 68.528 152C67.3831 151.959 66.0114 151.567 65.1038 151.216L64.8047 151.103L65.0832 150.938C65.9598 150.422 67.2903 149.772 68.4145 149.514C68.9715 149.38 69.5078 149.339 69.9204 149.483C70.1473 149.566 70.3226 149.679 70.4464 149.865Z" fill="#204B89"/>
<path fill-rule="evenodd" clip-rule="evenodd" d="M40.9708 150.827C41.7856 150.384 42.8067 149.734 43.4874 149.043C43.869 148.651 44.1372 148.27 44.2197 147.909C44.2609 147.733 44.261 147.568 44.2094 147.414C44.1578 147.259 44.0547 147.104 43.869 146.949C43.6937 146.795 43.5287 146.723 43.374 146.712C43.2296 146.692 43.0749 146.723 42.9305 146.805C42.6314 146.97 42.3323 147.331 42.0538 147.816C41.569 148.682 41.1874 149.879 40.9708 150.827ZM43.4152 146.413C43.6318 146.444 43.8484 146.547 44.065 146.723C44.2816 146.908 44.4157 147.104 44.4982 147.321C44.5704 147.537 44.5704 147.764 44.5188 147.981C44.4157 148.414 44.1062 148.858 43.704 149.26C42.8995 150.075 41.6825 150.817 40.8161 151.261L40.5273 151.405L40.5892 151.096C40.8058 150.095 41.2184 148.682 41.7856 147.671C42.0641 147.176 42.4045 146.754 42.7861 146.547C42.982 146.434 43.1986 146.382 43.4152 146.413Z" fill="#204B89"/>
<path fill-rule="evenodd" clip-rule="evenodd" d="M65.022 150.804C65.3315 150.505 65.6718 150.113 65.8781 149.742C66.0122 149.505 66.0844 149.299 66.0844 149.133C66.0844 149.051 66.0637 148.989 66.0225 148.938C65.9812 148.886 65.9297 148.824 65.8265 148.783C65.7337 148.731 65.6512 148.731 65.5996 148.731C65.548 148.742 65.4862 148.762 65.4346 148.814C65.3211 148.917 65.2283 149.113 65.1561 149.381C65.0633 149.814 65.022 150.351 65.022 150.804ZM65.5687 148.432C65.7028 148.412 65.8368 148.442 65.9709 148.504C66.105 148.566 66.2184 148.659 66.2906 148.773C66.3628 148.886 66.3938 149.01 66.3938 149.133C66.4041 149.381 66.2906 149.649 66.1462 149.897C65.8575 150.402 65.3521 150.938 64.9808 151.258L64.7436 151.475L64.7332 151.155C64.7126 150.639 64.7332 149.886 64.888 149.309C64.9602 149.02 65.0736 148.762 65.2489 148.597C65.3315 148.504 65.4449 148.453 65.5687 148.432Z" fill="#204B89"/>
<path fill-rule="evenodd" clip-rule="evenodd" d="M40.7481 151.322C40.7378 150.889 40.6759 150.373 40.5521 149.971C40.4696 149.713 40.3665 149.517 40.2427 149.414C40.1808 149.362 40.119 149.331 40.0571 149.321C39.9952 149.311 39.9127 149.321 39.8095 149.362C39.7064 149.404 39.6548 149.455 39.6239 149.496C39.5929 149.548 39.5723 149.599 39.5723 149.672C39.5723 149.826 39.6548 150.022 39.8095 150.26C40.0468 150.621 40.418 151.012 40.7481 151.322ZM39.3764 149.311C39.4485 149.208 39.562 149.125 39.7064 149.063C39.8508 149.001 39.9849 148.991 40.119 149.012C40.253 149.032 40.3665 149.094 40.4593 149.177C40.645 149.342 40.7687 149.599 40.8615 149.878C41.0369 150.435 41.0884 151.167 41.0781 151.662L41.0678 151.982L40.8203 151.776C40.4284 151.446 39.8817 150.92 39.562 150.414C39.4073 150.167 39.2835 149.909 39.2835 149.661C39.2629 149.548 39.2938 149.424 39.3764 149.311Z" fill="#204B89"/>
<path fill-rule="evenodd" clip-rule="evenodd" d="M42.5056 151.896H39.2773V151.277H42.5056V151.896Z" fill="#204B89"/>
<path fill-rule="evenodd" clip-rule="evenodd" d="M42.5056 153.341H39.2773V152.723H42.5056V153.341Z" fill="#204B89"/>
<path fill-rule="evenodd" clip-rule="evenodd" d="M68.9685 153.341H65.2246V152.723H68.0403L68.9685 153.341Z" fill="#204B89"/>
<path fill-rule="evenodd" clip-rule="evenodd" d="M66.4493 151.701H63.0664V151.082L65.6861 151.134L66.4493 151.701Z" fill="#204B89"/>
<path d="M56.5093 137.896H54.5703L55.4779 94.6815L56.5093 89.4111V137.896Z" fill="#020011"/>
<path d="M37.9296 138.052H37.0117L43.8807 79.4795H44.8193L37.9296 138.052Z" fill="#193B6F"/>
<path d="M72.587 156.116H58.457V155.477H72.587V156.116Z" fill="#000916"/>
<path d="M47.5027 156.116H36.6113V155.477H47.513V156.116H47.5027Z" fill="#000916"/>
<path d="M46.2493 141.287H39.6484L39.7 141.741C41.9587 142.484 44.7022 142.401 45.9296 142.38L46.2493 141.287Z" fill="#ED968A"/>
<path d="M64.5927 141.033H58.4766L58.5281 141.487C60.7869 142.23 63.2931 142.137 64.5102 142.106L64.5927 141.033Z" fill="#ED968A"/>
<path d="M59.3685 32.3327C59.3685 40.1197 58.5846 46.0398 51.5712 42.1309C48.1883 40.2435 47.5488 36.5202 47.5488 32.6422C47.5488 28.7642 48.4874 25.3193 52.3551 25.3193C56.2228 25.3193 59.3685 28.4547 59.3685 32.3327Z" fill="#FFBDB4"/>
<path d="M58.7985 36.2561C58.9978 36.2561 59.1595 36.0945 59.1595 35.8952C59.1595 35.6958 58.9978 35.5342 58.7985 35.5342C58.5991 35.5342 58.4375 35.6958 58.4375 35.8952C58.4375 36.0945 58.5991 36.2561 58.7985 36.2561Z" fill="#4F4F4F"/>
<path d="M54.8825 36.2561C55.0818 36.2561 55.2435 36.0945 55.2435 35.8952C55.2435 35.6958 55.0818 35.5342 54.8825 35.5342C54.6831 35.5342 54.5215 35.6958 54.5215 35.8952C54.5215 36.0945 54.6831 36.2561 54.8825 36.2561Z" fill="#4F4F4F"/>
<path d="M56.7657 36.7158C56.6626 37.4378 57.5908 38.4692 57.4877 38.8302C57.3845 39.1911 56.8276 38.8817 56.25 38.5723" stroke="#4F4F4F" stroke-width="0.4"/>
<path d="M57.6168 40.8976L54.3164 40.124C54.3473 40.3509 54.6361 40.8872 55.5025 41.2585C56.3689 41.6298 57.2662 41.1657 57.6168 40.8976Z" fill="white"/>
<path d="M53.623 34.1864C53.9325 33.877 54.7369 33.4438 55.4795 34.1864" stroke="#4F4F4F" stroke-width="0.4"/>
<path d="M58.0566 34.3817C58.3661 34.0723 59.1705 33.6391 59.9131 34.3817" stroke="#4F4F4F" stroke-width="0.4"/>
<path d="M58.1317 29.9805C53.1914 34.9621 47.5806 35.3127 44.9609 34.8074V33.8482C45.4147 27.237 48.1376 26.4222 49.7569 25.5765C50.9739 24.937 56.4299 24.576 58.4721 26.5047C60.4832 28.4128 60.1738 33.1571 59.2559 34.3432C59.2559 31.8163 59.2559 30.5271 58.1317 29.9805Z" fill="#550F01"/>
<path d="M49.7495 34.1926C49.0144 33.4455 48.0366 33.2156 47.5656 33.6791C47.0947 34.1425 47.3088 35.1238 48.0439 35.8709C48.7791 36.618 49.7568 36.8479 50.2278 36.3845C50.6988 35.921 50.4847 34.9397 49.7495 34.1926Z" fill="#FFBDB4"/>
<path d="M43.4706 78.0289C40.1908 82.7423 69.3377 83.0826 67.1718 77.9567L64.1395 64.9716C64.1395 64.9716 64.8306 49.9959 64.3046 48.1394C63.7785 46.2829 55.7956 45.6022 55.7956 45.6022C54.4033 48.1807 49.4526 47.0049 48.7822 45.2412L44.863 45.86L44.337 60.5469C46.7195 67.581 44.4607 74.3468 43.4706 78.0289Z" fill="#FD6C30"/>
<path d="M63.2715 67.6762C66.2419 73.6788 69.893 68.8417 72.1414 67.6762L64.1482 47.7705L63.9316 65.1184L63.2715 67.6762Z" fill="#FD6C30"/>
<path d="M45.0131 45.8662C45.0131 45.8662 39.9697 47.0007 39.454 48.8572C38.9383 50.7137 38.8867 61.8217 38.8867 67.5975C38.8867 73.3732 40.9185 73.3423 43.9714 73.2907C47.0243 73.2391 47.4059 68.2885 47.4059 68.2885L45.0131 45.8662Z" fill="#FD6C30"/>
<path d="M47.716 70.7295L48.2626 65.7686L44.6218 73.3286L43.6523 77.3407L47.716 70.7295Z" fill="#3F2814"/>
<path d="M66.4051 65.4397L65.5078 59.6846C65.5078 59.6846 65.5078 63.3975 64.2701 64.0679C63.0325 64.7383 59.6289 64.7383 59.6289 64.7383L66.1266 65.976L66.4051 65.4397Z" fill="#3F2814"/>
<path d="M65.4571 70.6117C63.6006 68.2911 61.1768 64.9494 60.8158 64.7432L61.4347 69.075L48.1298 67.5795L47.2531 69.5391L45.2832 74.2731C45.2832 74.2731 47.2531 71.6534 51.8944 71.6534C56.5356 71.6534 66.344 74.3041 66.344 74.3041L65.4571 70.6117Z" fill="#3F2814"/>
<path d="M49.9316 68.3504C56.7594 70.5472 63.5665 71.7849 64.7732 72.1149C68.5378 73.1669 72.1579 73.1566 72.1579 68.8248C72.1579 66.2773 70.353 65.38 69.1463 65.0809L51.2931 64.6064L49.9316 68.3504Z" fill="#FD6C30"/>
<path d="M58.8611 63.2002L39.0482 67.7692C38.45 73.349 42.9469 75.453 45.9585 73.0396L61.0992 65.758L58.8611 63.2002Z" fill="#FD6C30"/>
<path d="M40.4769 48.9096C41.0441 47.672 46.9746 45.9186 48.6764 45.2998L44.4993 45.9186C44.4993 45.9186 40.3737 46.8469 39.6002 48.6518C38.8267 50.4567 38.9195 61.2656 38.9195 61.2656C39.6002 59.2235 39.9096 50.1473 40.4769 48.9096Z" fill="#F98F63"/>
<path d="M62.492 63.2988C61.2956 63.0513 59.6969 63.5463 59.3359 63.5463L60.8314 65.836L61.3265 65.5988L66.6175 65.836L66.3906 64.6809C66.3906 64.6809 63.6884 63.5463 62.492 63.2988Z" fill="#FFBDB4"/>
<path d="M44.7949 64.5654L47.5693 65.6174L47.92 57.2529L47.3012 64.1632L44.7949 64.5654Z" fill="#3F2814"/>
<path d="M50.6984 64.5809C48.8006 64.5294 48.058 59.981 47.9343 57.7119L47.4805 65.7258L50.6984 64.5809Z" fill="#E75418"/>
<path d="M39.2871 68.5244L46.8781 65.915C44.4853 66.5029 39.6687 67.689 39.5037 67.72C39.3284 67.7406 39.2871 68.2666 39.2871 68.5244Z" fill="#E75418"/>
<path d="M42.2656 66.8384L45.7723 63.9814L51.9194 64.1774L46.2983 66.2092C46.2983 66.2092 44.0912 66.9312 43.2867 67.1787C42.5132 67.4263 42.3688 67.1787 42.2656 66.8384Z" fill="#FFBDB4"/>
<path d="M50.2548 64.7725L44.7266 66.7424C44.8194 66.4949 45.1185 65.9276 45.5723 65.5769C46.0364 65.2366 48.8933 64.9065 50.2548 64.7725Z" fill="#ED968A"/>
<path d="M63.5131 64.8951C64.1423 64.8229 65.8234 65.483 66.5866 65.8337L61.1719 65.6171C61.6876 65.4005 62.8737 64.9673 63.5131 64.8951Z" fill="#ED968A"/>
<path d="M47.6095 31.8248C48.8847 30.1182 48.1614 27.4217 45.9939 25.8021C43.8263 24.1825 41.0354 24.253 39.7602 25.9597C38.485 27.6663 39.2083 30.3628 41.3758 31.9824C43.5433 33.602 46.3342 33.5315 47.6095 31.8248Z" fill="#550F01"/>
<path d="M46.8551 27.5182C46.0093 25.6308 44.6789 22.0416 46.1744 22.7429C47.6802 23.4442 47.2573 26.2187 46.8551 27.5182Z" stroke="#572A21"/>
<path d="M47.002 27.6373C48.2499 26.5028 50.3952 24.2337 49.0441 24.275C47.693 24.3162 47.1154 26.5337 47.002 27.6373Z" stroke="#572A21"/>
<path d="M60.8206 65.9248L53.4668 69.3387L58.0874 70.566C57.8811 68.297 59.8201 66.523 60.8206 65.9248Z" fill="#E75418"/>
<path d="M44.8635 33.1761C44.8326 30.051 46.1528 28.7927 46.3384 28.6689C44.5026 29.4837 43.6053 31.8662 43.3887 32.9595C43.8012 33.1864 44.5438 33.1967 44.8635 33.1761Z" fill="#39130C"/>
<path d="M58.1152 29.9903C58.3215 29.7531 58.5278 29.4849 58.9403 28.4639C58.6619 29.7944 58.4556 30.1863 58.4556 30.1863C58.4556 30.1863 58.3009 30.0316 58.1152 29.9903Z" fill="#39130C"/>
<mask id="mask2_2940_66790" style="mask-type:luminance" maskUnits="userSpaceOnUse" x="90" y="55" width="17" height="17">
<path d="M90.0472 66.2906L101.262 71.4043L106.375 60.1898L95.1608 55.0761L90.0472 66.2906Z" fill="white"/>
</mask>
<g mask="url(#mask2_2940_66790)">
<g opacity="0.8">
<path fill-rule="evenodd" clip-rule="evenodd" d="M104.802 60.7439C104.864 60.878 104.864 61.043 104.802 61.1771L102.028 67.252C101.914 67.5098 101.605 67.6233 101.347 67.5098C101.089 67.3964 100.976 67.087 101.089 66.8291L103.606 61.3112L98.583 59.9601L95.9942 65.6327C95.8808 65.8905 95.5713 66.004 95.3135 65.8905C95.0556 65.7771 94.9422 65.4677 95.0556 65.2098L97.8197 59.135C97.9229 58.9081 98.1807 58.7843 98.418 58.8565L104.452 60.4758C104.617 60.5067 104.74 60.6099 104.802 60.7439Z" fill="white"/>
<path fill-rule="evenodd" clip-rule="evenodd" d="M94.5639 63.8535C94.0483 63.6162 93.4397 63.8431 93.2025 64.3588C92.9653 64.8745 93.1922 65.483 93.7079 65.7203C94.2236 65.9575 94.8321 65.7306 95.0693 65.2149C95.3065 64.6889 95.0796 64.0804 94.5639 63.8535ZM92.264 63.9257C92.7384 62.8943 93.9554 62.4405 94.9868 62.9046C96.0182 63.379 96.472 64.5961 96.0079 65.6274C95.5334 66.6588 94.3164 67.1126 93.285 66.6485C92.2536 66.1844 91.7998 64.9674 92.264 63.9257Z" fill="white"/>
<path fill-rule="evenodd" clip-rule="evenodd" d="M100.599 65.474C100.083 65.2368 99.4749 65.4637 99.2377 65.9794C99.0005 66.4951 99.2274 67.1036 99.7431 67.3408C100.259 67.578 100.867 67.3511 101.104 66.8354C101.342 66.3197 101.115 65.7112 100.599 65.474ZM98.2991 65.5565C98.7736 64.5251 99.9906 64.0713 101.022 64.5354C102.053 65.0099 102.507 66.2269 102.043 67.2583C101.569 68.2897 100.352 68.7435 99.3202 68.2794C98.2888 67.8049 97.835 66.5879 98.2991 65.5565Z" fill="white"/>
</g>
</g>
<mask id="mask3_2940_66790" style="mask-type:luminance" maskUnits="userSpaceOnUse" x="127" y="21" width="21" height="21">
<path d="M133.348 41.9099L147.355 35.5635L141.009 21.5557L127.001 27.9022L133.348 41.9099Z" fill="white"/>
</mask>
<g mask="url(#mask3_2940_66790)">
<g opacity="0.8">
<path fill-rule="evenodd" clip-rule="evenodd" d="M130.983 28.9119C130.663 29.0563 130.519 29.4379 130.663 29.7577L134.366 37.9262C134.51 38.246 134.892 38.3903 135.212 38.246L143.38 34.5433C143.7 34.3989 143.844 34.0173 143.7 33.6976L139.997 25.529C139.853 25.2093 139.471 25.0649 139.152 25.2093L130.983 28.9119ZM129.498 30.294C129.065 29.3245 129.488 28.19 130.457 27.7465L138.626 24.0438C139.595 23.6106 140.73 24.0335 141.173 25.003L144.876 33.1715C145.319 34.1411 144.886 35.2756 143.917 35.7191L135.748 39.4217C134.779 39.8549 133.644 39.432 133.201 38.4626L129.498 30.294Z" fill="white"/>
<path fill-rule="evenodd" clip-rule="evenodd" d="M134.082 30.3186C133.917 30.3908 133.844 30.5765 133.927 30.7415C133.999 30.9065 134.185 30.9787 134.35 30.8962C134.515 30.824 134.587 30.628 134.505 30.4733C134.432 30.3186 134.247 30.2464 134.082 30.3186ZM132.751 31.2675C132.39 30.463 132.741 29.5141 133.545 29.1428C134.35 28.7819 135.299 29.1325 135.67 29.937C136.031 30.7415 135.68 31.6903 134.876 32.0616C134.071 32.4329 133.123 32.0823 132.751 31.2675Z" fill="white"/>
<path fill-rule="evenodd" clip-rule="evenodd" d="M138.404 29.2766C138.528 28.9466 138.899 28.7816 139.229 28.9053L143.468 30.504C143.798 30.6278 143.963 30.9991 143.839 31.3291C143.715 31.6591 143.344 31.8242 143.014 31.7004L139.373 30.3287L136.083 39.0645C135.959 39.3945 135.588 39.5595 135.258 39.4358C134.928 39.312 134.763 38.9407 134.887 38.6107L138.404 29.2766Z" fill="white"/>
</g>
</g>
<path d="M196.374 50.787C195.961 47.7444 195.136 41.5046 195.136 40.8857L189.567 43.4642L188.535 50.787H196.374Z" fill="#FFBDB4"/>
<path d="M193.747 42.79C193.087 45.0178 190.447 46.0183 189.209 46.2452L189.364 44.595L193.747 42.79Z" fill="#9C574D"/>
<path d="M188.068 150.38L190.46 92.963L180.879 87.3213L183.179 150.37H188.068V150.38Z" fill="#FFBDB4"/>
<path d="M203.516 151.239L201.175 87.8193L190.469 89.1189L199.648 151.249H203.516V151.239Z" fill="#FFBDB4"/>
<path d="M190.683 103.759V80.1924H180.214L179.121 103.759C183.453 104.11 185.99 104.1 190.683 103.759Z" fill="#27222D"/>
<path d="M201.02 80.0459L202.897 103.726C198.658 104.036 196.059 104.036 191.82 103.726L189.18 80.0459H201.02Z" fill="#27222D"/>
<path d="M188.304 155.929V150.35H183.013L175.02 155.331V155.94H188.304V155.929Z" fill="#000F25"/>
<path d="M203.158 145.496C202.807 148.147 200.775 149.859 199.6 150.333H203.436L203.158 145.496Z" fill="#ED968A"/>
<path d="M205.813 155.92L204.39 150.33H199.099L195.664 155.92H205.813Z" fill="#000F25"/>
<path fill-rule="evenodd" clip-rule="evenodd" d="M181.785 151.098C180.949 151.386 179.835 151.675 178.897 151.716C178.371 151.737 177.927 151.675 177.628 151.51C177.484 151.428 177.37 151.314 177.288 151.18C177.216 151.046 177.174 150.871 177.185 150.644C177.195 150.417 177.246 150.262 177.329 150.138C177.412 150.015 177.525 149.942 177.68 149.891C177.989 149.777 178.433 149.808 178.959 149.922C179.887 150.138 180.97 150.644 181.785 151.098ZM177.092 149.963C176.968 150.138 176.906 150.355 176.896 150.623C176.886 150.891 176.937 151.118 177.04 151.314C177.143 151.51 177.298 151.655 177.494 151.758C177.865 151.964 178.381 152.026 178.917 152.005C180.011 151.964 181.32 151.593 182.187 151.263L182.476 151.159L182.207 151.005C181.372 150.51 180.103 149.891 179.02 149.643C178.484 149.52 177.979 149.478 177.587 149.612C177.381 149.674 177.216 149.788 177.092 149.963Z" fill="#204B89"/>
<path d="M193.13 103.767H192.666L199.525 150.385H199.937L193.13 103.767Z" fill="#FFCAC2"/>
<path fill-rule="evenodd" clip-rule="evenodd" d="M201.876 150.876C201.093 150.453 200.123 149.824 199.473 149.164C199.102 148.792 198.854 148.421 198.772 148.081C198.731 147.916 198.731 147.761 198.782 147.606C198.834 147.462 198.937 147.307 199.102 147.163C199.267 147.019 199.432 146.946 199.576 146.926C199.721 146.905 199.855 146.936 199.999 147.018C200.288 147.173 200.577 147.514 200.835 147.978C201.299 148.823 201.67 149.968 201.876 150.876ZM199.545 146.658C199.329 146.688 199.123 146.781 198.927 146.957C198.72 147.132 198.586 147.318 198.514 147.524C198.442 147.73 198.442 147.947 198.493 148.153C198.597 148.566 198.896 148.988 199.277 149.37C200.041 150.144 201.206 150.855 202.041 151.278L202.32 151.412L202.258 151.113C202.052 150.164 201.66 148.803 201.113 147.844C200.845 147.369 200.525 146.967 200.164 146.761C199.958 146.678 199.752 146.627 199.545 146.658Z" fill="#204B89"/>
<path fill-rule="evenodd" clip-rule="evenodd" d="M182.277 150.857C181.978 150.568 181.659 150.197 181.452 149.846C181.318 149.619 181.256 149.423 181.256 149.269C181.256 149.196 181.277 149.134 181.308 149.083C181.339 149.031 181.401 148.98 181.493 148.939C181.586 148.897 181.659 148.887 181.71 148.897C181.762 148.908 181.813 148.928 181.865 148.98C181.968 149.083 182.061 149.269 182.133 149.526C182.236 149.908 182.277 150.424 182.277 150.857ZM181.751 148.598C181.628 148.578 181.504 148.608 181.37 148.67C181.236 148.732 181.133 148.815 181.071 148.918C180.998 149.021 180.968 149.145 180.968 149.258C180.957 149.495 181.06 149.753 181.205 149.991C181.483 150.475 181.968 150.981 182.319 151.3L182.546 151.507L182.556 151.197C182.576 150.702 182.556 149.98 182.411 149.434C182.339 149.165 182.236 148.908 182.061 148.753C181.978 148.67 181.875 148.608 181.751 148.598Z" fill="#204B89"/>
<path fill-rule="evenodd" clip-rule="evenodd" d="M202.097 151.354C202.107 150.941 202.169 150.446 202.282 150.065C202.365 149.817 202.458 149.631 202.581 149.528C202.633 149.477 202.695 149.446 202.757 149.435C202.819 149.425 202.891 149.435 202.994 149.466C203.087 149.508 203.149 149.549 203.18 149.6C203.211 149.642 203.231 149.693 203.221 149.765C203.221 149.91 203.138 150.106 203.004 150.322C202.777 150.683 202.416 151.055 202.097 151.354ZM203.417 149.435C203.345 149.332 203.242 149.26 203.107 149.198C202.973 149.147 202.839 149.126 202.716 149.147C202.592 149.167 202.478 149.229 202.396 149.301C202.22 149.456 202.097 149.704 202.014 149.972C201.849 150.508 201.798 151.199 201.808 151.673V151.983L202.045 151.787C202.427 151.467 202.942 150.972 203.252 150.487C203.407 150.25 203.52 150.003 203.52 149.765C203.52 149.652 203.489 149.539 203.417 149.435Z" fill="#204B89"/>
<path fill-rule="evenodd" clip-rule="evenodd" d="M200.41 151.895H203.494V151.307H200.41V151.895Z" fill="#204B89"/>
<path fill-rule="evenodd" clip-rule="evenodd" d="M200.41 153.271H203.494V152.684H200.41V153.271Z" fill="#204B89"/>
<path fill-rule="evenodd" clip-rule="evenodd" d="M178.506 153.281H182.085V152.693H179.393L178.506 153.281Z" fill="#204B89"/>
<path fill-rule="evenodd" clip-rule="evenodd" d="M180.898 151.699H184.137V151.111L181.641 151.163L180.898 151.699Z" fill="#204B89"/>
<path d="M175.039 155.919H188.54V155.311H175.039V155.919Z" fill="#000916"/>
<path d="M195.645 155.919H206.061V155.311H195.645V155.919Z" fill="#000916"/>
<path d="M178.408 102.81C183.276 103.377 186.175 103.387 191.053 102.81V103.965C186.216 104.573 183.462 104.656 178.408 103.965V102.81Z" fill="#1D1C1F"/>
<path d="M191.426 102.575C195.902 103.019 198.419 103.008 202.895 102.575V103.73C198.377 104.236 195.861 104.246 191.426 103.73V102.575Z" fill="#1D1C1F"/>
<path d="M189.563 87.3311L190.605 91.9104L190.677 102.74L191.038 102.802L190.501 102.987L188.418 103.256L189.563 87.3311Z" fill="#1D1C1F"/>
<path d="M200.385 78.7764C194.538 81.4064 185.76 80.3338 182.109 79.4571C186.451 82.479 196.27 81.4992 200.633 80.6329L200.385 78.7764Z" fill="#1D1C1F"/>
<path d="M201.744 103.884C199.681 104.111 194.442 103.977 193.184 103.884C195.339 104.595 200.682 105.08 201.847 105.049L201.744 103.884Z" fill="#ED968A"/>
<path d="M181.877 104.284H181.465L183.156 150.294H183.682L181.877 104.284Z" fill="#FFCAC2"/>
<path d="M189.983 104.128C184.888 104.561 183.299 104.427 182.041 104.334C184.197 105.046 188.817 105.087 189.983 105.056V104.128Z" fill="#ED968A"/>
<path d="M202.586 102.694L201.328 85.7686L201.679 102.694H202.586Z" fill="#3C3643"/>
<path d="M185.41 33.8196C185.41 41.6065 185.41 48.6096 192.424 44.7007C195.806 42.8132 199.241 37.6976 199.241 33.8196C199.241 29.9416 196.064 27.3116 192.197 27.3116C188.329 27.3012 185.41 29.9416 185.41 33.8196Z" fill="#FFBDB4"/>
<path d="M186.015 37.1644C186.215 37.1644 186.376 37.0027 186.376 36.8034C186.376 36.604 186.215 36.4424 186.015 36.4424C185.816 36.4424 185.654 36.604 185.654 36.8034C185.654 37.0027 185.816 37.1644 186.015 37.1644Z" fill="#4F4F4F"/>
<path d="M189.931 37.1644C190.131 37.1644 190.292 37.0027 190.292 36.8034C190.292 36.604 190.131 36.4424 189.931 36.4424C189.732 36.4424 189.57 36.604 189.57 36.8034C189.57 37.0027 189.732 37.1644 189.931 37.1644Z" fill="#4F4F4F"/>
<path d="M187.859 37.6338C187.962 38.3558 187.034 39.3871 187.137 39.7481C187.24 40.1091 187.797 39.7997 188.375 39.4903" stroke="#4F4F4F" stroke-width="0.4"/>
<path d="M187.722 28.129C185.257 29.9133 185.432 32.9662 185.432 32.9662C186.35 32.8115 191.683 32.1205 193.642 33.1622C193.983 33.5541 194.055 37.1639 194.055 37.1639L195.158 42.4653C195.158 42.4653 196.468 41.0832 197.819 38.6491C199.17 36.2151 199.975 33.6676 198.263 30.2021C196.561 26.7367 190.187 26.3447 187.722 28.129Z" fill="#1D1C1F"/>
<path d="M191.007 35.1044C190.697 34.7949 189.893 34.3618 189.15 35.1044" stroke="#4F4F4F" stroke-width="0.4"/>
<path d="M184.805 34.6748C185.021 35.0564 185.692 35.6856 186.599 35.1596" stroke="#4F4F4F" stroke-width="0.4"/>
<path d="M201.675 80.1836C192.094 83.4737 182.244 81.5553 179.738 80.1836L180.573 67.5491C180.573 67.5491 178.222 52.625 181.058 50.356C183.894 48.0869 188.917 48.1901 188.917 48.1901C190.31 50.7685 195.26 49.5928 195.931 47.8291L200.087 48.5511L200.376 63.1348C200.376 63.1245 200.685 76.5015 201.675 80.1836Z" fill="#EF382D"/>
<path d="M180.754 61.3281C178.382 61.8438 177.402 60.6061 177.402 60.6061L180.393 51.1689L180.754 61.3281Z" fill="#EF382D"/>
<path d="M200.085 48.5322L205.087 50.7497C205.087 50.7497 206.242 55.2878 207.356 59.9806C203.726 61.7855 199.775 60.8057 199.775 60.8057L200.085 48.5322Z" fill="#EF382D"/>
<path d="M194.473 38.6224C195.215 38.5811 196.185 37.8179 196.422 37.4775C194.947 39.7982 195.081 39.6434 195.184 41.4999L194.473 38.6224Z" fill="#39130C"/>
<path d="M185.125 55.9347L195.542 58.1006L199.049 57.0176L198.481 56.1925C198.481 56.1925 194.098 53.4078 192.757 52.7374C191.416 52.067 190.643 52.1701 190.849 52.7374C191.055 53.3046 192.499 54.9549 192.499 54.9549L185.331 54.7486C184.609 54.7486 184.455 55.78 185.125 55.9347Z" fill="#FFBDB4"/>
<path d="M158.436 55.9347L168.852 58.1006L172.359 57.0176L171.792 56.1925C171.792 56.1925 167.409 53.4078 166.068 52.7374C164.727 52.067 163.953 52.1701 164.16 52.7374C164.366 53.3046 165.81 54.9549 165.81 54.9549L158.642 54.7486C157.92 54.7486 157.765 55.78 158.436 55.9347Z" fill="#FFBDB4"/>
<path d="M198.484 56.2178L208.643 68.4912C209.21 73.3387 204.105 73.2356 202.609 70.6571L195.596 58.0743L198.484 56.2178Z" fill="#FFBDB4"/>
<path d="M172.282 56.9893L180.595 66.4264C180.595 69.6443 180.275 72.5013 180.275 72.5013C178.934 73.7905 176.49 72.5528 176.098 71.8927C175.428 70.7685 169.033 58.0722 169.033 58.0722L172.282 56.9893Z" fill="#FFBDB4"/>
<path d="M185.426 56.0343C188.551 56.6841 195.296 58.128 195.585 58.128L201.567 68.7512L196.255 57.5814L184.755 55.2607C184.631 55.7558 185.147 55.9827 185.426 56.0343Z" fill="#ED968A"/>
<path d="M158.749 56.0343C161.874 56.6841 168.753 58.128 169.042 58.128L174.096 68.184L169.454 57.8701L158.078 55.2607C157.944 55.7558 158.47 55.9827 158.749 56.0343Z" fill="#ED968A"/>
<path d="M188.944 41.743C188.552 41.2789 187.686 40.5363 187.335 41.2789C186.984 42.0112 188.263 41.8977 188.944 41.743Z" fill="white"/>
<path d="M200.442 66.8355L195.625 58.3369L201.04 75.8189L200.442 66.8355Z" fill="#3F2814"/>
<path d="M187.408 81.9521C181.879 81.1785 180.24 79.6211 180.064 76.5889L179.775 80.1471C180.611 81.0341 185.283 81.7561 187.408 81.9521Z" fill="#E91F12"/>
<path d="M196.074 37.8324C196.809 37.0853 197.023 36.104 196.552 35.6406C196.081 35.1771 195.103 35.407 194.368 36.1541C193.633 36.9012 193.419 37.8825 193.89 38.346C194.361 38.8094 195.339 38.5795 196.074 37.8324Z" fill="#FFBDB4"/>
<path d="M201.934 60.6007C203.852 61.3742 206.121 60.5491 207.152 60.085C207.617 61.8383 208.442 64.623 208.638 66.5827C208.751 67.7378 208.741 69.419 208.586 70.1409C208.751 69.3158 208.308 68.4185 208.07 68.0782L201.934 60.6007Z" fill="#FFBDB4"/>
<path d="M200.088 57.869L202.305 60.8084H202.718L200.088 54.3623V57.869Z" fill="#E91F12"/>
<path d="M180.653 61.326C179.415 61.6973 178.074 61.0682 177.703 60.7588L177.188 62.5121L180.601 66.7924L180.653 61.326Z" fill="#FFBDB4"/>
<path d="M179.302 65.0928L177.188 62.6175L177.445 61.6377L179.302 65.0928Z" fill="#ED968A"/>
<path d="M180.594 66.3279L181.058 54.5186L180.439 61.2741C180.646 61.3154 180.594 66.3279 180.594 66.3279Z" fill="#E91F12"/>
<path d="M203.548 62.8759C203.115 62.1848 202.248 60.7925 202.207 60.71L202.774 60.9162L203.548 62.8759Z" fill="#ED968A"/>
<path opacity="0.3" d="M95.326 57.1885C96.4684 56.5707 97.1308 55.5825 96.8057 54.9813C96.4805 54.38 95.2909 54.3934 94.1485 55.0113C93.0061 55.6291 92.3437 56.6173 92.6688 57.2185C92.994 57.8198 94.1836 57.8063 95.326 57.1885Z" fill="white"/>
<path opacity="0.3" d="M130.771 24.9674C131.944 24.3334 132.624 23.3198 132.291 22.7035C131.957 22.0872 130.737 22.1017 129.564 22.7357C128.392 23.3698 127.712 24.3834 128.045 24.9997C128.378 25.6159 129.599 25.6015 130.771 24.9674Z" fill="white"/>
<path opacity="0.3" d="M91.8622 58.4811C92.1124 57.9821 92.1047 57.472 91.845 57.3418C91.5853 57.2116 91.172 57.5106 90.9218 58.0096C90.6716 58.5086 90.6793 59.0186 90.9389 59.1488C91.1986 59.279 91.612 58.9801 91.8622 58.4811Z" fill="white"/>
<path opacity="0.3" d="M127.231 26.2839C127.486 25.7747 127.474 25.2522 127.204 25.1169C126.934 24.9816 126.509 25.2847 126.253 25.7939C125.998 26.303 126.01 26.8255 126.28 26.9608C126.55 27.0961 126.975 26.793 127.231 26.2839Z" fill="white"/>
<path d="M166.151 54.9263H165.79C165.48 54.5344 164.779 53.6371 164.449 53.2245C164.036 52.7088 164.14 52.3994 164.243 52.3994C164.325 52.3994 165.552 54.0806 166.151 54.9263Z" fill="#ED968A"/>
<mask id="mask4_2940_66790" style="mask-type:luminance" maskUnits="userSpaceOnUse" x="213" y="30" width="34" height="35">
<path d="M246.62 30.8076H213.1V64.3276H246.62V30.8076Z" fill="white"/>
</mask>
<g mask="url(#mask4_2940_66790)">
<path d="M221.228 37.2186L219.433 38.9719C219.351 39.0544 219.32 39.1576 219.34 39.271L219.763 41.7463C219.773 41.8082 219.742 41.8598 219.701 41.8804C219.66 41.901 219.608 41.9114 219.567 41.8804L217.339 40.715C217.247 40.6634 217.123 40.6634 217.02 40.715L214.792 41.8804C214.699 41.932 214.575 41.8495 214.596 41.736L215.019 39.2607C215.039 39.1473 214.998 39.0338 214.926 38.9616L213.121 37.2082C213.038 37.1257 213.09 36.9917 213.193 36.9813L215.679 36.6204C215.792 36.5997 215.885 36.5378 215.937 36.4347L217.051 34.176C217.102 34.0728 217.247 34.0728 217.298 34.176L218.412 36.4347C218.464 36.5378 218.556 36.5997 218.67 36.6204L221.155 36.9813C221.269 37.0123 221.31 37.1464 221.228 37.2186Z" fill="#FAD207"/>
<path d="M217.308 43.7386L218.422 45.9973C218.473 46.1004 218.566 46.1623 218.68 46.1829L221.165 46.5439C221.279 46.5645 221.32 46.6986 221.237 46.7708L219.443 48.5242C219.36 48.6067 219.329 48.7098 219.35 48.8233L219.773 51.2986C219.793 51.4121 219.68 51.4946 219.577 51.443L217.349 50.2775C217.246 50.226 217.133 50.226 217.029 50.2775L214.802 51.443C214.698 51.4946 214.585 51.4121 214.606 51.2986L215.029 48.8233C215.049 48.7098 215.008 48.5964 214.936 48.5242L213.131 46.7708C213.048 46.6883 213.1 46.5542 213.203 46.5439L215.689 46.1829C215.802 46.1623 215.895 46.1004 215.946 45.9973L217.06 43.7386C217.112 43.6457 217.256 43.6457 217.308 43.7386Z" fill="#FAD207"/>
<path d="M217.308 53.2873L218.422 55.546C218.473 55.6492 218.566 55.7111 218.68 55.7317L221.165 56.0927C221.279 56.1133 221.32 56.2474 221.237 56.3196L219.443 58.0729C219.36 58.1554 219.329 58.2586 219.35 58.372L219.773 60.8473C219.793 60.9608 219.68 61.0433 219.577 60.9917L217.349 59.8263C217.246 59.7747 217.133 59.7747 217.029 59.8263L214.802 60.9917C214.698 61.0433 214.585 60.9608 214.606 60.8473L215.029 58.372C215.049 58.2586 215.008 58.1451 214.936 58.0729L213.131 56.3196C213.048 56.2371 213.1 56.103 213.203 56.0927L215.689 55.7317C215.802 55.7111 215.895 55.6492 215.946 55.546L217.06 53.2873C217.112 53.1842 217.256 53.1842 217.308 53.2873Z" fill="#FAD207"/>
<path d="M216.266 39.1758L214.802 41.8883C214.709 41.9399 214.585 41.8574 214.606 41.7439L215.029 39.2686C215.049 39.1552 215.008 39.0417 214.936 38.9695L213.131 37.2162C213.048 37.1337 213.1 36.9996 213.203 36.9893L216.132 38.7323C216.297 38.8251 216.349 39.0211 216.266 39.1758Z" fill="#FAA515"/>
<path d="M217.306 34.1878L217.11 36.1577C217.1 36.3124 216.976 36.4362 216.821 36.4568L215.697 36.6322C215.811 36.6115 215.904 36.5497 215.955 36.4465L217.069 34.1878C217.11 34.095 217.255 34.095 217.306 34.1878Z" fill="#FAA515"/>
<path d="M216.266 48.7266L214.802 51.4391C214.709 51.4907 214.585 51.4082 214.606 51.2947L215.029 48.8194C215.049 48.7059 215.008 48.5925 214.936 48.5203L213.131 46.7669C213.048 46.6844 213.1 46.5504 213.203 46.54L216.132 48.2831C216.297 48.3759 216.349 48.5719 216.266 48.7266Z" fill="#FAA515"/>
<path d="M217.306 43.7386L217.048 45.7188C217.028 45.8632 216.914 45.987 216.77 46.0076L215.697 46.1829C215.811 46.1623 215.904 46.1004 215.955 45.9973L217.069 43.7386C217.11 43.6457 217.255 43.6457 217.306 43.7386Z" fill="#FAA515"/>
<path d="M216.266 58.2774L214.802 60.9899C214.709 61.0415 214.585 60.9589 214.606 60.8455L215.029 58.3702C215.049 58.2567 215.008 58.1433 214.936 58.0711L213.131 56.3177C213.048 56.2352 213.1 56.1011 213.203 56.0908L216.132 57.8339C216.297 57.9164 216.349 58.1226 216.266 58.2774Z" fill="#FAA515"/>
<path d="M217.306 53.2893L217.048 55.2696C217.028 55.414 216.914 55.5378 216.77 55.5584L215.697 55.7337C215.811 55.7131 215.904 55.6512 215.955 55.5481L217.069 53.2893C217.11 53.1965 217.255 53.1965 217.306 53.2893Z" fill="#FAA515"/>
<path d="M245.934 35.7393C246.306 35.7393 246.615 36.0384 246.615 36.42V39.5347C246.615 39.906 246.316 40.2155 245.934 40.2155H225.616C225.245 40.2155 224.936 39.9164 224.936 39.5347V36.42C224.936 36.0487 225.235 35.7393 225.616 35.7393H245.934Z" fill="#93DDB7"/>
<path d="M226.977 40.2155H225.626C225.255 40.2155 224.945 39.9164 224.945 39.5347V36.42C224.945 36.0487 225.244 35.7393 225.626 35.7393H226.307V39.5347C226.296 39.906 226.596 40.2155 226.977 40.2155Z" fill="#5ED297"/>
<path d="M242.535 38.4785H228.312C228.034 38.4785 227.807 38.2516 227.807 37.9732C227.807 37.6947 228.034 37.4678 228.312 37.4678H242.535C242.813 37.4678 243.04 37.6947 243.04 37.9732C243.04 38.2516 242.824 38.4785 242.535 38.4785Z" fill="#2B597F"/>
<path d="M225.616 49.7565C225.245 49.7565 224.936 49.4574 224.936 49.0758V45.961C224.936 45.5897 225.235 45.2803 225.616 45.2803H240.52C240.891 45.2803 241.2 45.5794 241.2 45.961V49.0758C241.2 49.4471 240.901 49.7565 240.52 49.7565H225.616Z" fill="#93DDB7"/>
<path d="M237.8 48.0293H228.322C228.043 48.0293 227.816 47.8024 227.816 47.5239C227.816 47.2455 228.043 47.0186 228.322 47.0186H237.8C238.079 47.0186 238.306 47.2455 238.306 47.5239C238.306 47.8024 238.079 48.0293 237.8 48.0293Z" fill="#2B597F"/>
<path d="M233.744 54.8408C234.115 54.8408 234.424 55.1399 234.424 55.5215V58.6363C234.424 59.0076 234.125 59.317 233.744 59.317H225.616C225.245 59.317 224.936 59.0179 224.936 58.6363V55.5215C224.936 55.1502 225.235 54.8408 225.616 54.8408H233.744Z" fill="#93DDB7"/>
<path d="M231.373 57.5703H227.99C227.711 57.5703 227.484 57.3434 227.484 57.065C227.484 56.7865 227.711 56.5596 227.99 56.5596H231.373C231.651 56.5596 231.878 56.7865 231.878 57.065C231.878 57.3434 231.651 57.5703 231.373 57.5703Z" fill="#2B597F"/>
<path d="M226.977 49.7565H225.626C225.255 49.7565 224.945 49.4574 224.945 49.0758V45.961C224.945 45.5897 225.244 45.2803 225.626 45.2803H226.307V49.0758C226.296 49.4471 226.596 49.7565 226.977 49.7565Z" fill="#5ED297"/>
<path d="M226.977 59.2975H225.626C225.255 59.2975 224.945 58.9984 224.945 58.6168V55.502C224.945 55.1307 225.244 54.8213 225.626 54.8213H226.307V58.6168C226.296 58.9984 226.596 59.2975 226.977 59.2975Z" fill="#5ED297"/>
</g>
<path d="M82.9742 25.1252C84.6546 25.1252 86.0168 23.763 86.0168 22.0826C86.0168 20.4022 84.6546 19.04 82.9742 19.04C81.2938 19.04 79.9316 20.4022 79.9316 22.0826C79.9316 23.763 81.2938 25.1252 82.9742 25.1252Z" fill="#FD6C30"/>
<path d="M139.703 65.0373C141.383 65.0373 142.745 63.6751 142.745 61.9947C142.745 60.3144 141.383 58.9521 139.703 58.9521C138.022 58.9521 136.66 60.3144 136.66 61.9947C136.66 63.6751 138.022 65.0373 139.703 65.0373Z" fill="#4C58FD"/>
<path d="M210.767 139.705C212.448 139.705 213.81 138.343 213.81 136.663C213.81 134.982 212.448 133.62 210.767 133.62C209.087 133.62 207.725 134.982 207.725 136.663C207.725 138.343 209.087 139.705 210.767 139.705Z" fill="#93DDB7"/>
<path d="M4.27305 147.958C5.95342 147.958 7.31563 146.596 7.31563 144.916C7.31563 143.235 5.95342 141.873 4.27305 141.873C2.59268 141.873 1.23047 143.235 1.23047 144.916C1.23047 146.596 2.59268 147.958 4.27305 147.958Z" fill="#4C58FD"/>
<path d="M73.6969 111.756C75.3772 111.756 76.7395 110.394 76.7395 108.713C76.7395 107.033 75.3772 105.671 73.6969 105.671C72.0165 105.671 70.6543 107.033 70.6543 108.713C70.6543 110.394 72.0165 111.756 73.6969 111.756Z" fill="#FEAE37"/>
<path d="M82.9756 23.6729C83.8585 23.6729 84.5742 22.9571 84.5742 22.0742C84.5742 21.1913 83.8585 20.4756 82.9756 20.4756C82.0927 20.4756 81.377 21.1913 81.377 22.0742C81.377 22.9571 82.0927 23.6729 82.9756 23.6729Z" fill="white"/>
<path d="M139.704 63.5947C140.587 63.5947 141.303 62.879 141.303 61.9961C141.303 61.1132 140.587 60.3975 139.704 60.3975C138.821 60.3975 138.105 61.1132 138.105 61.9961C138.105 62.879 138.821 63.5947 139.704 63.5947Z" fill="white"/>
<path d="M210.769 138.264C211.651 138.264 212.367 137.548 212.367 136.665C212.367 135.782 211.651 135.066 210.769 135.066C209.886 135.066 209.17 135.782 209.17 136.665C209.17 137.548 209.886 138.264 210.769 138.264Z" fill="white"/>
<path d="M4.28419 146.516C5.1671 146.516 5.88283 145.8 5.88283 144.917C5.88283 144.034 5.1671 143.318 4.28419 143.318C3.40128 143.318 2.68555 144.034 2.68555 144.917C2.68555 145.8 3.40128 146.516 4.28419 146.516Z" fill="white"/>
<path d="M73.6885 110.313C74.5714 110.313 75.2871 109.598 75.2871 108.715C75.2871 107.832 74.5714 107.116 73.6885 107.116C72.8056 107.116 72.0898 107.832 72.0898 108.715C72.0898 109.598 72.8056 110.313 73.6885 110.313Z" fill="white"/>
<defs>
<linearGradient id="paint0_linear_2940_66790" x1="80.2944" y1="88.8339" x2="167.723" y2="88.8339" gradientUnits="userSpaceOnUse">
<stop stop-color="#FEB137"/>
<stop offset="1" stop-color="#FD6930"/>
</linearGradient>
<linearGradient id="paint1_linear_2940_66790" x1="101.862" y1="95.7486" x2="147.921" y2="95.7486" gradientUnits="userSpaceOnUse">
<stop stop-color="#F2FBFF"/>
<stop offset="0.593" stop-color="#FAF7F7"/>
<stop offset="1" stop-color="#F3EAE6"/>
</linearGradient>
<linearGradient id="paint2_linear_2940_66790" x1="151.906" y1="95.7486" x2="162.291" y2="95.7486" gradientUnits="userSpaceOnUse">
<stop stop-color="#F3EAE6"/>
<stop offset="1" stop-color="#CDBFBA"/>
</linearGradient>
<linearGradient id="paint3_linear_2940_66790" x1="80.1253" y1="123.762" x2="171.308" y2="123.762" gradientUnits="userSpaceOnUse">
<stop stop-color="#FFF9DF"/>
<stop offset="0.593" stop-color="#FFE177"/>
<stop offset="1" stop-color="#FEB137"/>
</linearGradient>
<linearGradient id="paint4_linear_2940_66790" x1="91.7545" y1="123.762" x2="126.063" y2="123.762" gradientUnits="userSpaceOnUse">
<stop stop-color="#FFE177"/>
<stop offset="1" stop-color="#FEB137"/>
</linearGradient>
<linearGradient id="paint5_linear_2940_66790" x1="149.133" y1="84.0107" x2="149.133" y2="91.9524" gradientUnits="userSpaceOnUse">
<stop stop-color="#3692FE"/>
<stop offset="1" stop-color="#5A31FD"/>
</linearGradient>
<linearGradient id="paint6_linear_2940_66790" x1="137.118" y1="18.835" x2="137.118" y2="44.5164" gradientUnits="userSpaceOnUse">
<stop stop-color="#5FB3E1"/>
<stop offset="1" stop-color="#43A7DD"/>
</linearGradient>
</defs>
</svg>
