<svg width="100" height="40" viewBox="0 0 100 40" fill="none" xmlns="http://www.w3.org/2000/svg">
<mask id="mask0_2940_62875" style="mask-type:luminance" maskUnits="userSpaceOnUse" x="74" y="21" width="10" height="12">
<path d="M77.7713 27.7335C78.2669 27.266 79.2094 27.0229 80.3439 27.0967C80.3505 27.0971 80.3557 27.1027 80.3557 27.1093C80.3562 27.4414 80.3733 27.756 80.3691 28.063C80.3563 28.98 79.6642 29.777 78.7509 29.8606C78.6985 29.8654 78.6476 29.8677 78.5981 29.8677C77.3774 29.8675 77.0045 28.4566 77.7713 27.7335ZM74.9961 22.3189C74.9901 22.3213 74.987 22.3282 74.9887 22.3345C75.1234 22.7945 75.2485 23.2222 75.3741 23.6516C75.4733 23.9904 75.8422 24.1707 76.1703 24.0405L76.1825 24.0358C77.0999 23.6727 78.0422 23.4637 79.0336 23.6242C79.8428 23.7551 80.2344 24.2035 80.2221 25.0332C80.2221 25.0401 80.2158 25.0465 80.209 25.0469C80.0135 25.0598 79.8508 25.0731 79.6878 25.0807C78.518 25.1346 77.3685 25.2855 76.2996 25.8062C74.4316 26.7159 73.7072 28.7605 74.6357 30.4936C75.614 32.3198 78.3892 32.7028 80.1163 31.2557C80.2474 31.1458 80.3205 30.9281 80.5557 30.9645C80.5609 30.9653 80.5657 30.9693 80.567 30.9745L80.5694 30.9836C80.7036 31.5018 81.1711 31.8635 81.7064 31.8635H83.5717C83.5788 31.8635 83.5845 31.8572 83.5838 31.8501C83.4061 29.7995 83.505 27.7764 83.4688 25.7552C83.4392 24.1 83.0313 22.6081 81.3293 21.9125C80.4896 21.5692 79.6596 21.4219 78.8356 21.4219C77.5455 21.422 76.2701 21.7831 74.9961 22.3189Z" fill="white"/>
</mask>
<g mask="url(#mask0_2940_62875)">
<path d="M83.5844 21.4219H73.707V32.7028H83.5844V21.4219Z" fill="url(#paint0_linear_2940_62875)"/>
</g>
<mask id="mask1_2940_62875" style="mask-type:luminance" maskUnits="userSpaceOnUse" x="90" y="21" width="10" height="12">
<path d="M93.3351 25.584C93.3311 24.3909 94.2392 23.4391 95.3088 23.4887C96.3934 23.5388 97.1006 24.4178 96.9672 25.5854C96.9665 25.5918 96.961 25.5967 96.9546 25.5967H93.3479C93.3408 25.5967 93.3353 25.591 93.3351 25.584ZM90.2736 26.3188C90.1455 28.3294 90.6171 30.1115 92.437 31.2765C93.7501 32.1173 95.2244 32.2094 96.7196 32.0804C97.6347 32.0015 98.5493 31.8656 99.422 31.4331C99.4273 31.4305 99.4302 31.4246 99.429 31.419L99.2499 30.5424C99.118 29.8968 98.4956 29.4708 97.8471 29.5884C97.727 29.6101 97.6078 29.6294 97.4882 29.6447C96.6263 29.7563 95.7602 29.8048 94.9099 29.5482C93.9557 29.2604 93.4281 28.6943 93.3449 27.8217C93.3441 27.8143 93.35 27.8076 93.3575 27.8076H96.5679H99.8245C99.8304 27.8076 99.8354 27.8037 99.8369 27.7981C100.158 26.563 99.9931 25.0679 99.4639 23.8665C98.9286 22.6515 97.9879 21.9202 96.737 21.6001C96.2655 21.4795 95.7999 21.4219 95.3472 21.4219C92.6708 21.422 90.4573 23.4352 90.2736 26.3188Z" fill="white"/>
</mask>
<g mask="url(#mask1_2940_62875)">
<path d="M100.157 21.4219H90.1445V32.2094H100.157V21.4219Z" fill="url(#paint1_linear_2940_62875)"/>
</g>
<mask id="mask2_2940_62875" style="mask-type:luminance" maskUnits="userSpaceOnUse" x="64" y="21" width="11" height="12">
<path d="M67.4481 25.5827C67.5449 24.2884 68.4181 23.4126 69.5129 23.4938C70.5556 23.5712 71.2098 24.3931 71.1479 25.5842C71.1476 25.5909 71.1419 25.5965 71.1354 25.5965H67.4606C67.4533 25.5965 67.4475 25.59 67.4481 25.5827ZM64.9123 24.3534C64.4361 25.5272 64.2863 26.7275 64.4821 27.9583C64.7918 29.9054 65.8804 31.235 67.7841 31.831C68.8273 32.1575 69.9044 32.1922 70.9858 32.0647C71.8586 31.9619 72.731 31.8501 73.5544 31.4363C73.5596 31.4337 73.5624 31.4279 73.5613 31.4223C73.4715 30.964 73.3846 30.5211 73.297 30.0747C73.2187 29.6757 72.8295 29.421 72.4311 29.5025C72.4288 29.503 72.4266 29.5034 72.4244 29.5039C71.2762 29.7375 70.124 29.8792 68.9758 29.5222C68.0417 29.2316 67.5527 28.6654 67.5047 27.8234C67.5044 27.8163 67.5102 27.8098 67.5174 27.8098H73.3242C73.7336 27.8098 74.0751 27.4936 74.1052 27.0851C74.2002 25.7963 74.0331 24.5762 73.375 23.4239C73.1858 23.0922 72.9666 22.7812 72.6737 22.5301C71.8139 21.7928 70.6905 21.4374 69.555 21.4375C67.6365 21.4376 65.6838 22.4523 64.9123 24.3534Z" fill="white"/>
</mask>
<g mask="url(#mask2_2940_62875)">
<path d="M74.199 21.4375H64.2852V32.1923H74.199V21.4375Z" fill="url(#paint2_linear_2940_62875)"/>
</g>
<mask id="mask3_2940_62875" style="mask-type:luminance" maskUnits="userSpaceOnUse" x="83" y="20" width="8" height="13">
<path d="M84.9174 20.0391C84.9105 20.0391 84.9049 20.0444 84.9049 20.0513V21.6079C84.9049 21.6135 84.9011 21.6187 84.8957 21.6202C84.6719 21.6884 84.4544 21.6846 84.2453 21.6808C84.0267 21.6767 83.8169 21.6727 83.6178 21.7508C83.6129 21.7528 83.6094 21.7577 83.6094 21.7631V22.8654C83.6094 23.4497 84.055 23.9191 84.6342 23.9954C84.7243 24.0073 84.8141 24.0288 84.9037 24.0664C84.9085 24.0684 84.9119 24.0735 84.9119 24.0788C84.9119 24.3165 84.9105 24.5434 84.9121 24.7703C84.9216 26.1026 84.8984 27.4363 84.95 28.7671C85.0179 30.5213 85.7159 31.5531 87.0639 31.9538C87.6173 32.1182 88.1684 32.1632 88.7148 32.1265C89.5618 32.0697 90.2137 31.3516 90.2137 30.5025V29.4737C90.2137 29.4666 90.2073 29.4611 90.2003 29.4614C89.8767 29.479 89.608 29.5092 89.3402 29.5038C88.5842 29.4882 88.1691 29.1625 88.1023 28.4214C87.9718 26.9742 88.0613 25.5228 88.0496 24.0005C88.0496 23.9936 88.0549 23.988 88.0618 23.988H90.2414C90.2482 23.988 90.2537 23.9826 90.2537 23.9758V21.674C90.2537 21.6672 90.2482 21.6617 90.2414 21.6617H88.0503C88.0434 21.6617 88.038 21.6561 88.038 21.6492V20.0513C88.038 20.0444 88.0325 20.0391 88.0256 20.0391H84.9174Z" fill="white"/>
</mask>
<g mask="url(#mask3_2940_62875)">
<path d="M90.2537 20.0391H83.6094V32.1632H90.2537V20.0391Z" fill="url(#paint3_linear_2940_62875)"/>
</g>
<mask id="mask4_2940_62875" style="mask-type:luminance" maskUnits="userSpaceOnUse" x="58" y="21" width="7" height="11">
<path d="M62.4292 21.85C61.8238 22.2107 61.3694 22.7264 61.0611 23.4404C61.0547 23.4552 61.0328 23.4548 61.0274 23.4397C60.8085 22.8307 61.0247 22.2459 60.7764 21.7143C60.7735 21.7079 60.7669 21.7037 60.7599 21.7037H59.041C58.5491 21.7037 58.1518 22.1098 58.1685 22.6015C58.2738 25.7117 58.1533 28.7786 58.2349 31.8196C58.2353 31.8291 58.243 31.8367 58.2525 31.8367H61.3618C61.3713 31.8367 61.3792 31.8283 61.3792 31.8186C61.3792 31.5244 61.3782 31.2783 61.3795 31.0325C61.3873 29.5188 61.3642 28.0041 61.4115 26.4917C61.448 25.3253 62.3972 24.3846 63.564 24.3641C63.674 24.362 63.784 24.3616 63.8964 24.3617C63.9887 22.5097 63.9495 23.2963 64.0419 21.4443C63.9786 21.4397 63.9158 21.4375 63.8536 21.4375C63.3445 21.4375 62.8731 21.5857 62.4292 21.85Z" fill="white"/>
</mask>
<g mask="url(#mask4_2940_62875)">
<path d="M64.0424 21.4375H58.1523V31.8367H64.0424V21.4375Z" fill="url(#paint4_linear_2940_62875)"/>
</g>
<path d="M72.1875 33.5667C72.1875 33.4479 72.2877 33.3477 72.4097 33.3477C72.5287 33.3477 72.6289 33.4479 72.6289 33.5667C72.6289 33.692 72.5287 33.7889 72.4097 33.7889C72.2877 33.7889 72.1875 33.692 72.1875 33.5667ZM72.2376 34.0612H72.5787V35.5697H72.2376V34.0612Z" fill="black"/>
<path d="M74.0753 35.2401V34.6361C74.0753 34.4326 73.972 34.32 73.7936 34.32C73.6028 34.32 73.4713 34.4608 73.4713 34.6706V35.5688H73.1301V34.4515C73.1301 34.3513 73.0926 34.3106 73.002 34.3106V34.054C73.0331 34.0477 73.0926 34.0383 73.1584 34.0383C73.3272 34.0383 73.4212 34.1322 73.4305 34.2886V34.2949C73.5056 34.1291 73.6653 34.0195 73.8905 34.0195C74.2287 34.0195 74.4197 34.2386 74.4197 34.6142V35.1682C74.4197 35.2683 74.4572 35.3122 74.548 35.3122V35.5657C74.5197 35.5751 74.4572 35.5813 74.3946 35.5813C74.1785 35.5813 74.0753 35.4592 74.0753 35.2401Z" fill="black"/>
<path d="M75.0458 34.9669V34.3441H74.7734V34.0592H75.0581V33.6211H75.39V34.0592H75.9348V34.3441H75.39V34.9513C75.39 35.1735 75.4777 35.2736 75.6498 35.2736C75.75 35.2736 75.8407 35.2299 75.9002 35.186L76.0191 35.4426C75.9285 35.524 75.7563 35.5866 75.6029 35.5866C75.2241 35.5866 75.0458 35.3894 75.0458 34.9669Z" fill="black"/>
<path d="M77.3372 35.137L77.5405 35.2996C77.4373 35.4781 77.2183 35.6096 76.949 35.6096C76.5015 35.6096 76.2324 35.3122 76.2324 34.8271C76.2324 34.3326 76.4921 34.0195 76.9334 34.0195C77.3216 34.0195 77.5405 34.2763 77.5405 34.7113C77.5405 34.7676 77.5405 34.8051 77.5375 34.8646H76.5799C76.5922 35.1713 76.73 35.3247 76.9709 35.3247C77.1493 35.3247 77.2558 35.2528 77.3372 35.137ZM76.5922 34.6424H77.2088C77.2088 34.4389 77.115 34.2981 76.9146 34.2981C76.7112 34.2981 76.6204 34.4328 76.5922 34.6424Z" fill="black"/>
<path d="M77.8379 35.9206C77.8379 35.7109 77.9913 35.6012 78.0727 35.5669C77.985 35.523 77.8848 35.4448 77.8848 35.2978C77.8848 35.1412 77.9818 35.0504 78.0944 35.0067C78.0319 34.9503 77.9349 34.8126 77.9349 34.5997C77.9349 34.2398 78.2228 34.0271 78.5765 34.0271C78.683 34.0271 78.7517 34.0489 78.8082 34.0645C78.9175 34.0645 79.0773 34.0083 79.0773 33.7578L79.3746 33.8204C79.3746 34.1021 79.1773 34.1803 79.046 34.1898C79.1337 34.2617 79.2182 34.3964 79.2182 34.5997C79.2182 34.9659 78.9208 35.1725 78.5797 35.1725C78.4638 35.1725 78.37 35.1507 78.3292 35.1412C78.2448 35.1412 78.1884 35.1757 78.1884 35.257C78.1884 35.3478 78.273 35.3729 78.392 35.3729H78.8143C79.1274 35.3729 79.3526 35.5106 79.3526 35.8141C79.3526 36.0927 79.1461 36.3212 78.5421 36.3212C78.0382 36.3212 77.8379 36.1772 77.8379 35.9206ZM79.0334 35.8486C79.0334 35.7109 78.9428 35.6514 78.7643 35.6514L78.4294 35.6546C78.2479 35.6546 78.1572 35.7296 78.1572 35.8705C78.1572 36.0082 78.2635 36.0771 78.564 36.0771C78.8956 36.0771 79.0334 35.9989 79.0334 35.8486ZM78.899 34.5997C78.899 34.4182 78.7707 34.2963 78.5798 34.2963C78.3825 34.2963 78.2605 34.4151 78.2605 34.5997C78.2605 34.7845 78.3795 34.9033 78.5766 34.9033C78.7706 34.9033 78.899 34.7845 78.899 34.5997Z" fill="black"/>
<path d="M79.7142 34.4523C79.7142 34.3522 79.6766 34.3114 79.5859 34.3114V34.0548C79.6172 34.0485 79.6766 34.039 79.7391 34.039C79.9176 34.039 80.0115 34.1393 80.0145 34.277V34.2958C80.074 34.1267 80.2337 34.0234 80.4433 34.0234C80.5248 34.0234 80.6125 34.0453 80.653 34.0767L80.5248 34.3959C80.4902 34.3709 80.4308 34.3583 80.3652 34.3583C80.1617 34.3583 80.0554 34.5336 80.0554 34.7589V35.5696H79.7142V34.4523Z" fill="black"/>
<path d="M82.237 35.3123V35.5657C82.1994 35.5752 82.1399 35.5845 82.0867 35.5845C81.8991 35.5845 81.8145 35.4906 81.8082 35.3247C81.7237 35.4906 81.5547 35.6064 81.3074 35.6064C81.0069 35.6064 80.8223 35.4563 80.8223 35.2058C80.8223 34.9335 81.0164 34.7739 81.4201 34.7708H81.7643V34.5798C81.7643 34.3953 81.6673 34.2981 81.4859 34.2981C81.3106 34.2981 81.2228 34.3701 81.2228 34.5204C81.2228 34.5642 81.2323 34.608 81.2481 34.6331H80.9381C80.9255 34.6112 80.9036 34.5486 80.9036 34.4641C80.9036 34.1949 81.1258 34.0195 81.4984 34.0195C81.9147 34.0195 82.1087 34.223 82.1087 34.5925V35.1651C82.1087 35.2684 82.1429 35.3123 82.237 35.3123ZM81.7643 35.0399V34.9836H81.4231C81.2511 34.9836 81.1666 35.0618 81.1666 35.1714C81.1666 35.2808 81.2481 35.3403 81.3856 35.3403C81.5735 35.3403 81.7018 35.2215 81.7643 35.0399Z" fill="black"/>
<path d="M82.7372 34.9669V34.3441H82.4648V34.0592H82.7496V33.6211H83.0814V34.0592H83.6262V34.3441H83.0814V34.9513C83.0814 35.1735 83.1691 35.2736 83.3412 35.2736C83.4414 35.2736 83.5321 35.2299 83.5916 35.186L83.7106 35.4426C83.6199 35.524 83.4477 35.5866 83.2943 35.5866C82.9157 35.5866 82.7372 35.3894 82.7372 34.9669Z" fill="black"/>
<path d="M85.0286 35.137L85.2319 35.2996C85.1287 35.4781 84.9097 35.6096 84.6404 35.6096C84.1929 35.6096 83.9238 35.3122 83.9238 34.8271C83.9238 34.3326 84.1835 34.0195 84.6248 34.0195C85.013 34.0195 85.2319 34.2763 85.2319 34.7113C85.2319 34.7676 85.2319 34.8051 85.2289 34.8646H84.2713C84.2836 35.1713 84.4214 35.3247 84.6623 35.3247C84.8407 35.3247 84.9472 35.2528 85.0286 35.137ZM84.2836 34.6424H84.9002C84.9002 34.4389 84.8064 34.2981 84.6061 34.2981C84.4026 34.2981 84.3118 34.4328 84.2836 34.6424Z" fill="black"/>
<path d="M85.5703 34.8274C85.5703 34.3579 85.8271 34.02 86.2183 34.02C86.4091 34.02 86.5439 34.1045 86.619 34.2077V33.2969H86.9601V35.1592C86.9601 35.2718 86.9943 35.3126 87.0884 35.3126V35.5692C87.0601 35.5755 86.9976 35.5848 86.9349 35.5848C86.7661 35.5848 86.6659 35.4973 86.6564 35.3565V35.3282C86.5718 35.4942 86.4249 35.6099 86.1745 35.6099C85.8145 35.6099 85.5703 35.297 85.5703 34.8274ZM86.622 35.034V34.5928C86.5908 34.4551 86.4844 34.3048 86.2841 34.3048C86.043 34.3048 85.9178 34.4894 85.9178 34.8274C85.9178 35.1279 86.0493 35.3219 86.2841 35.3219C86.4625 35.3219 86.5718 35.2062 86.622 35.034Z" fill="black"/>
<path d="M88.1758 34.8145C88.1758 34.3138 88.4512 34.0195 88.8895 34.0195C89.2431 34.0195 89.459 34.1823 89.459 34.5015C89.459 34.5642 89.4497 34.6361 89.4341 34.6737L89.1368 34.6768C89.1461 34.6487 89.1524 34.6016 89.1524 34.5516C89.1524 34.3857 89.0584 34.3044 88.8833 34.3044C88.6578 34.3044 88.5232 34.4765 88.5232 34.8051C88.5232 35.14 88.6734 35.3215 88.9112 35.3215C89.1055 35.3215 89.2024 35.2371 89.2776 35.1243L89.4841 35.3027C89.3809 35.4749 89.1868 35.6094 88.8956 35.6094C88.4482 35.6094 88.1758 35.3184 88.1758 34.8145Z" fill="black"/>
<path d="M89.9115 34.4523C89.9115 34.3522 89.8739 34.3114 89.7832 34.3114V34.0548C89.8145 34.0485 89.8739 34.039 89.9364 34.039C90.1148 34.039 90.2088 34.1393 90.2118 34.277V34.2958C90.2713 34.1267 90.431 34.0234 90.6406 34.0234C90.7221 34.0234 90.8097 34.0453 90.8502 34.0767L90.7221 34.3959C90.6875 34.3709 90.628 34.3583 90.5625 34.3583C90.3589 34.3583 90.2526 34.5336 90.2526 34.7589V35.5696H89.9115V34.4523Z" fill="black"/>
<path d="M92.1283 35.137L92.3318 35.2996C92.2285 35.4781 92.0093 35.6096 91.7402 35.6096C91.2928 35.6096 91.0234 35.3122 91.0234 34.8271C91.0234 34.3326 91.2832 34.0195 91.7246 34.0195C92.1126 34.0195 92.3318 34.2763 92.3318 34.7113C92.3318 34.7676 92.3318 34.8051 92.3286 34.8646H91.3709C91.3835 35.1713 91.521 35.3247 91.7621 35.3247C91.9405 35.3247 92.0469 35.2528 92.1283 35.137ZM91.3835 34.6424H92C92 34.4389 91.9061 34.2981 91.7058 34.2981C91.5024 34.2981 91.4116 34.4328 91.3835 34.6424Z" fill="black"/>
<path d="M94.0632 35.3123V35.5657C94.0256 35.5752 93.9661 35.5845 93.9128 35.5845C93.725 35.5845 93.6406 35.4906 93.6343 35.3247C93.5497 35.4906 93.3808 35.6064 93.1335 35.6064C92.833 35.6064 92.6484 35.4563 92.6484 35.2058C92.6484 34.9335 92.8424 34.7739 93.246 34.7708H93.5905V34.5798C93.5905 34.3953 93.4935 34.2981 93.3118 34.2981C93.1367 34.2981 93.049 34.3701 93.049 34.5204C93.049 34.5642 93.0584 34.608 93.074 34.6331H92.7643C92.7517 34.6112 92.7298 34.5486 92.7298 34.4641C92.7298 34.1949 92.952 34.0195 93.3244 34.0195C93.7406 34.0195 93.9347 34.223 93.9347 34.5925V35.1651C93.9347 35.2684 93.9691 35.3123 94.0632 35.3123ZM93.5905 35.0399V34.9836H93.2493C93.0773 34.9836 92.9926 35.0618 92.9926 35.1714C92.9926 35.2808 93.074 35.3403 93.2118 35.3403C93.3994 35.3403 93.5277 35.2215 93.5905 35.0399Z" fill="black"/>
<path d="M94.5632 34.9669V34.3441H94.291V34.0592H94.5757V33.6211H94.9076V34.0592H95.4521V34.3441H94.9076V34.9513C94.9076 35.1735 94.995 35.2736 95.1673 35.2736C95.2674 35.2736 95.3581 35.2299 95.4175 35.186L95.5365 35.4426C95.4458 35.524 95.2737 35.5866 95.1203 35.5866C94.7416 35.5866 94.5632 35.3894 94.5632 34.9669Z" fill="black"/>
<path d="M95.8066 33.5667C95.8066 33.4479 95.9066 33.3477 96.0288 33.3477C96.1478 33.3477 96.2478 33.4479 96.2478 33.5667C96.2478 33.692 96.1478 33.7889 96.0288 33.7889C95.9066 33.7889 95.8066 33.692 95.8066 33.5667ZM95.8567 34.0612H96.1979V35.5697H95.8567V34.0612Z" fill="black"/>
<path d="M98.0295 34.0605L97.4631 35.5722H97.1094L96.543 34.0605H96.909L97.2379 35.0089L97.2972 35.2499L97.3567 35.0089L97.6823 34.0605H98.0295Z" fill="black"/>
<path d="M99.3508 35.137L99.5542 35.2996C99.4509 35.4781 99.232 35.6096 98.9627 35.6096C98.5152 35.6096 98.2461 35.3122 98.2461 34.8271C98.2461 34.3326 98.5058 34.0195 98.9471 34.0195C99.3352 34.0195 99.5542 34.2763 99.5542 34.7113C99.5542 34.7676 99.5542 34.8051 99.5512 34.8646H98.5935C98.6059 35.1713 98.7437 35.3247 98.9845 35.3247C99.163 35.3247 99.2695 35.2528 99.3508 35.137ZM98.6059 34.6424H99.2225C99.2225 34.4389 99.1286 34.2981 98.9283 34.2981C98.7248 34.2981 98.6341 34.4328 98.6059 34.6424Z" fill="black"/>
<path d="M58.4056 37.6019C58.4056 37.4986 58.3681 37.4579 58.2773 37.4579V37.2044C58.3054 37.195 58.3681 37.1856 58.4306 37.1856C58.5997 37.1856 58.7029 37.2763 58.7092 37.4485V37.4548C58.7937 37.2889 58.9408 37.1699 59.1879 37.1699C59.5574 37.1699 59.7985 37.4861 59.7985 37.9492C59.7985 38.4282 59.5354 38.7598 59.1474 38.7598C58.9564 38.7598 58.8156 38.6753 58.7468 38.5784V39.4359H58.4056V37.6019ZM59.4477 37.9524C59.4477 37.6362 59.3039 37.4579 59.088 37.4579C58.9032 37.4579 58.7937 37.58 58.7468 37.7459V38.1902C58.7874 38.3437 58.8969 38.4719 59.088 38.4719C59.3195 38.4719 59.4477 38.2935 59.4477 37.9524Z" fill="black"/>
<path d="M60.2591 37.6026C60.2591 37.5025 60.2215 37.4618 60.1309 37.4618V37.2051C60.1622 37.1989 60.2215 37.1894 60.2843 37.1894C60.4627 37.1894 60.5564 37.2897 60.5597 37.4274V37.4462C60.6192 37.2771 60.7786 37.1738 60.9885 37.1738C61.0699 37.1738 61.1574 37.1957 61.1981 37.2271L61.0699 37.5463C61.0354 37.5213 60.9759 37.5087 60.9102 37.5087C60.7068 37.5087 60.6003 37.684 60.6003 37.9092V38.72H60.2591V37.6026Z" fill="black"/>
<path d="M61.3711 37.9649C61.3711 37.4766 61.6465 37.1699 62.0939 37.1699C62.5384 37.1699 62.7982 37.4766 62.7982 37.9618C62.7982 38.4438 62.5228 38.7598 62.0753 38.7598C61.6275 38.7598 61.3711 38.4531 61.3711 37.9649ZM62.4477 37.9649C62.4477 37.6331 62.3131 37.4548 62.0846 37.4548C61.8594 37.4548 61.7216 37.6331 61.7216 37.9649C61.7216 38.2967 61.8561 38.4719 62.0846 38.4719C62.3161 38.4719 62.4477 38.2967 62.4477 37.9649Z" fill="black"/>
<path d="M62.7324 39.3972L62.8357 39.1532C62.8357 39.1532 62.8919 39.1938 62.9891 39.1938C63.158 39.1938 63.2393 39.0781 63.2393 38.862V37.2095H63.5805V38.8778C63.5805 39.2501 63.4146 39.4911 63.0267 39.4911C62.8231 39.4912 62.7324 39.3972 62.7324 39.3972ZM63.1862 36.7152C63.1862 36.5962 63.2894 36.4961 63.4084 36.4961C63.5273 36.4961 63.6275 36.5962 63.6275 36.7152C63.6275 36.8404 63.5273 36.9374 63.4084 36.9374C63.2894 36.9374 63.1862 36.8404 63.1862 36.7152Z" fill="black"/>
<path d="M65.1107 38.2874L65.3142 38.45C65.2109 38.6285 64.9918 38.7599 64.7227 38.7599C64.2752 38.7599 64.0059 38.4625 64.0059 37.9775C64.0059 37.483 64.2657 37.1699 64.7071 37.1699C65.095 37.1699 65.3142 37.4267 65.3142 37.8617C65.3142 37.918 65.3142 37.9555 65.3111 38.015H64.3533C64.3659 38.3217 64.5035 38.4751 64.7445 38.4751C64.923 38.4751 65.0294 38.4032 65.1107 38.2874ZM64.3659 37.7928H64.9825C64.9825 37.5893 64.8885 37.4485 64.6882 37.4485C64.4848 37.4485 64.3941 37.5831 64.3659 37.7928Z" fill="black"/>
<path d="M65.6523 37.9649C65.6523 37.4642 65.9277 37.1699 66.3661 37.1699C66.7196 37.1699 66.9355 37.3326 66.9355 37.6519C66.9355 37.7146 66.9262 37.7865 66.9106 37.8241L66.6132 37.8272C66.6227 37.7991 66.6289 37.752 66.6289 37.702C66.6289 37.5361 66.535 37.4548 66.3598 37.4548C66.1344 37.4548 65.9998 37.6269 65.9998 37.9555C65.9998 38.2904 66.15 38.4719 66.3878 38.4719C66.582 38.4719 66.679 38.3875 66.7542 38.2747L66.9607 38.4531C66.8574 38.6253 66.6634 38.7598 66.3722 38.7598C65.9247 38.7598 65.6523 38.4687 65.6523 37.9649Z" fill="black"/>
<path d="M67.4716 38.1173V37.4944H67.1992V37.2096H67.4839V36.7715H67.8158V37.2096H68.3605V37.4944H67.8158V38.1017C67.8158 38.3239 67.9034 38.424 68.0756 38.424C68.1758 38.424 68.2665 38.3802 68.326 38.3364L68.4449 38.593C68.3543 38.6744 68.1821 38.737 68.0287 38.737C67.65 38.737 67.4716 38.5398 67.4716 38.1173Z" fill="black"/>
<path d="M71.4343 38.3905V37.7865C71.4343 37.6019 71.3467 37.4703 71.1526 37.4703C70.9553 37.4703 70.8397 37.6269 70.8397 37.8147V38.7192H70.4953V37.7865C70.4953 37.6019 70.4077 37.4703 70.2106 37.4703C69.9914 37.4703 69.8913 37.6456 69.8913 37.8178V38.7192H69.5501V37.6019C69.5501 37.5017 69.5127 37.461 69.4219 37.461V37.2044C69.4532 37.1981 69.5157 37.1887 69.5752 37.1887C69.7349 37.1887 69.8381 37.2732 69.8506 37.439V37.4485C69.9099 37.3076 70.054 37.1699 70.3076 37.1699C70.5548 37.1699 70.7112 37.2795 70.7803 37.461C70.8428 37.3108 71.0055 37.1699 71.2463 37.1699C71.6284 37.1699 71.7785 37.4296 71.7785 37.7646V38.3186C71.7785 38.4187 71.8161 38.4625 71.9038 38.4625V38.7161C71.8755 38.7255 71.813 38.7317 71.7536 38.7317C71.5376 38.7317 71.4343 38.6096 71.4343 38.3905Z" fill="black"/>
<path d="M73.61 38.4625V38.7159C73.5724 38.7255 73.513 38.7348 73.4598 38.7348C73.2721 38.7348 73.1875 38.6409 73.1812 38.475C73.0967 38.6409 72.9277 38.7567 72.6805 38.7567C72.3799 38.7567 72.1953 38.6065 72.1953 38.356C72.1953 38.0838 72.3895 37.9242 72.7931 37.9211H73.1373V37.73C73.1373 37.5455 73.0404 37.4483 72.8589 37.4483C72.6836 37.4483 72.5958 37.5204 72.5958 37.6707C72.5958 37.7144 72.6054 37.7583 72.6211 37.7834H72.3111C72.2986 37.7615 72.2767 37.6988 72.2767 37.6143C72.2767 37.3452 72.4989 37.1699 72.8715 37.1699C73.2877 37.1699 73.4818 37.3733 73.4818 37.7427V38.3154C73.4818 38.4187 73.516 38.4625 73.61 38.4625ZM73.1373 38.1902V38.1338H72.7962C72.6241 38.1338 72.5396 38.2121 72.5396 38.3217C72.5396 38.4311 72.6211 38.4906 72.7587 38.4906C72.9466 38.4906 73.0748 38.3718 73.1373 38.1902Z" fill="black"/>
<path d="M74.9893 38.3905V37.7865C74.9893 37.583 74.8861 37.4703 74.7077 37.4703C74.5169 37.4703 74.3853 37.6112 74.3853 37.8209V38.7192H74.0442V37.6019C74.0442 37.5017 74.0067 37.461 73.916 37.461V37.2044C73.9472 37.1981 74.0067 37.1887 74.0725 37.1887C74.2412 37.1887 74.3353 37.2826 74.3446 37.439V37.4453C74.4197 37.2795 74.5794 37.1699 74.8046 37.1699C75.1428 37.1699 75.3338 37.389 75.3338 37.7646V38.3186C75.3338 38.4187 75.3712 38.4625 75.462 38.4625V38.7161C75.4338 38.7255 75.3712 38.7317 75.3086 38.7317C75.0926 38.7317 74.9893 38.6096 74.9893 38.3905Z" fill="black"/>
<path d="M77.1686 38.4625V38.7159C77.131 38.7255 77.0716 38.7348 77.0182 38.7348C76.8305 38.7348 76.7461 38.6409 76.7398 38.475C76.6552 38.6409 76.4863 38.7567 76.2389 38.7567C75.9385 38.7567 75.7539 38.6065 75.7539 38.356C75.7539 38.0838 75.9478 37.9242 76.3515 37.9211H76.6959V37.73C76.6959 37.5455 76.599 37.4483 76.4173 37.4483C76.2422 37.4483 76.1544 37.5204 76.1544 37.6707C76.1544 37.7144 76.1639 37.7583 76.1795 37.7834H75.8697C75.8572 37.7615 75.8353 37.6988 75.8353 37.6143C75.8353 37.3452 76.0575 37.1699 76.4298 37.1699C76.8461 37.1699 77.0401 37.3733 77.0401 37.7427V38.3154C77.0401 38.4187 77.0746 38.4625 77.1686 38.4625ZM76.6959 38.1902V38.1338H76.3548C76.1827 38.1338 76.0981 38.2121 76.0981 38.3217C76.0981 38.4311 76.1795 38.4906 76.3173 38.4906C76.5049 38.4906 76.6332 38.3718 76.6959 38.1902Z" fill="black"/>
<path d="M77.4414 39.069C77.4414 38.8593 77.5948 38.7497 77.6762 38.7153C77.5885 38.6715 77.4883 38.5932 77.4883 38.4462C77.4883 38.2897 77.5853 38.1989 77.6979 38.1551C77.6354 38.0988 77.5384 37.9611 77.5384 37.7482C77.5384 37.3883 77.8263 37.1755 78.18 37.1755C78.2865 37.1755 78.3553 37.1974 78.4117 37.213C78.521 37.213 78.6808 37.1567 78.6808 36.9062L78.9781 36.9689C78.9781 37.2506 78.7808 37.3288 78.6495 37.3382C78.7372 37.4101 78.8217 37.5448 78.8217 37.7482C78.8217 38.1144 78.5243 38.321 78.1831 38.321C78.0673 38.321 77.9735 38.2991 77.9327 38.2897C77.8483 38.2897 77.7919 38.3241 77.7919 38.4055C77.7919 38.4963 77.8765 38.5213 77.9955 38.5213H78.4178C78.7309 38.5213 78.9561 38.659 78.9561 38.9626C78.9561 39.2411 78.7496 39.4695 78.1456 39.4695C77.6417 39.4695 77.4414 39.3256 77.4414 39.069ZM78.6369 38.997C78.6369 38.8593 78.5463 38.7998 78.3678 38.7998L78.033 38.803C77.8514 38.803 77.7607 38.8781 77.7607 39.0189C77.7607 39.1566 77.867 39.2255 78.1675 39.2255C78.4991 39.2255 78.6369 39.1473 78.6369 38.997ZM78.5024 37.7482C78.5024 37.5667 78.3741 37.4447 78.1831 37.4447C77.9859 37.4447 77.8639 37.5636 77.8639 37.7482C77.8639 37.9329 77.9829 38.0517 78.18 38.0517C78.3741 38.0517 78.5024 37.9329 78.5024 37.7482Z" fill="black"/>
<path d="M80.2982 38.2874L80.5017 38.45C80.3984 38.6285 80.1793 38.7599 79.9101 38.7599C79.4627 38.7599 79.1934 38.4625 79.1934 37.9775C79.1934 37.483 79.4532 37.1699 79.8946 37.1699C80.2825 37.1699 80.5017 37.4267 80.5017 37.8617C80.5017 37.918 80.5017 37.9555 80.4986 38.015H79.5408C79.5534 38.3217 79.691 38.4751 79.932 38.4751C80.1105 38.4751 80.2169 38.4032 80.2982 38.2874ZM79.5534 37.7928H80.17C80.17 37.5893 80.076 37.4485 79.8757 37.4485C79.6723 37.4485 79.5815 37.5831 79.5534 37.7928Z" fill="black"/>
<path d="M82.8464 38.3905V37.7865C82.8464 37.6019 82.7588 37.4703 82.5647 37.4703C82.3674 37.4703 82.2517 37.6269 82.2517 37.8147V38.7192H81.9074V37.7865C81.9074 37.6019 81.8198 37.4703 81.6227 37.4703C81.4035 37.4703 81.3034 37.6456 81.3034 37.8178V38.7192H80.9623V37.6019C80.9623 37.5017 80.9248 37.461 80.834 37.461V37.2044C80.8653 37.1981 80.9278 37.1887 80.9873 37.1887C81.147 37.1887 81.2502 37.2732 81.2627 37.439V37.4485C81.322 37.3076 81.4662 37.1699 81.7197 37.1699C81.9669 37.1699 82.1233 37.2795 82.1924 37.461C82.2549 37.3108 82.4176 37.1699 82.6584 37.1699C83.0405 37.1699 83.1906 37.4296 83.1906 37.7646V38.3186C83.1906 38.4187 83.2282 38.4625 83.3159 38.4625V38.7161C83.2876 38.7255 83.2251 38.7317 83.1657 38.7317C82.9497 38.7317 82.8464 38.6096 82.8464 38.3905Z" fill="black"/>
<path d="M84.7338 38.2874L84.9372 38.45C84.834 38.6285 84.6148 38.7599 84.3457 38.7599C83.8983 38.7599 83.6289 38.4625 83.6289 37.9775C83.6289 37.483 83.8887 37.1699 84.3301 37.1699C84.7181 37.1699 84.9372 37.4267 84.9372 37.8617C84.9372 37.918 84.9372 37.9555 84.9341 38.015H83.9764C83.9889 38.3217 84.1265 38.4751 84.3676 38.4751C84.546 38.4751 84.6524 38.4032 84.7338 38.2874ZM83.9889 37.7928H84.6055C84.6055 37.5893 84.5116 37.4485 84.3112 37.4485C84.1079 37.4485 84.0171 37.5831 83.9889 37.7928Z" fill="black"/>
<path d="M86.3431 38.3905V37.7865C86.3431 37.583 86.2398 37.4703 86.0614 37.4703C85.8704 37.4703 85.739 37.6112 85.739 37.8209V38.7192H85.3978V37.6019C85.3978 37.5017 85.3602 37.461 85.2695 37.461V37.2044C85.3007 37.1981 85.3602 37.1887 85.426 37.1887C85.595 37.1887 85.689 37.2826 85.6984 37.439V37.4453C85.7734 37.2795 85.9329 37.1699 86.1584 37.1699C86.4963 37.1699 86.6873 37.389 86.6873 37.7646V38.3186C86.6873 38.4187 86.7249 38.4625 86.8156 38.4625V38.7161C86.7875 38.7255 86.7249 38.7317 86.6624 38.7317C86.4463 38.7317 86.3431 38.6096 86.3431 38.3905Z" fill="black"/>
<path d="M87.3134 38.1173V37.4944H87.041V37.2096H87.3257V36.7715H87.6576V37.2096H88.2023V37.4944H87.6576V38.1017C87.6576 38.3239 87.7452 38.424 87.9174 38.424C88.0176 38.424 88.1083 38.3802 88.1678 38.3364L88.2867 38.593C88.196 38.6744 88.0239 38.737 87.8705 38.737C87.4918 38.737 87.3134 38.5398 87.3134 38.1173Z" fill="black"/>
<path d="M89.2266 38.4877L89.4301 38.2655C89.5773 38.4438 89.7305 38.4814 89.9027 38.4814C90.1124 38.4814 90.2062 38.4251 90.2062 38.3155C90.2062 38.1841 90.056 38.1558 89.8338 38.1089C89.5773 38.0526 89.2986 37.9651 89.2986 37.6363C89.2986 37.3578 89.5241 37.1699 89.9122 37.1699C90.2815 37.1699 90.5067 37.3266 90.5067 37.6113C90.5067 37.6551 90.4974 37.7146 90.4818 37.7553H90.1749C90.1812 37.7271 90.1874 37.6802 90.1874 37.6426C90.1874 37.5174 90.0842 37.4454 89.9059 37.4454C89.7181 37.4454 89.6305 37.5079 89.6305 37.6301C89.6305 37.7709 89.7995 37.8022 90.0247 37.8523C90.2658 37.9024 90.5349 37.9806 90.5349 38.2935C90.538 38.6035 90.2908 38.7599 89.8932 38.7599C89.6305 38.7599 89.38 38.6849 89.2266 38.4877Z" fill="black"/>
<path d="M90.7636 39.4394L90.8262 39.1577C90.8669 39.1827 90.9388 39.1985 90.9919 39.1985C91.1234 39.1985 91.1922 39.1514 91.2675 38.9543L91.3519 38.7321L90.748 37.2109H91.1141L91.4739 38.2031L91.5211 38.3565L91.5616 38.2031L91.909 37.2109H92.2628L91.5585 39.067C91.449 39.358 91.2863 39.4926 91.0202 39.4926C90.9325 39.4926 90.8261 39.4706 90.7636 39.4394Z" fill="black"/>
<path d="M92.4355 38.4877L92.6389 38.2655C92.786 38.4438 92.9394 38.4814 93.1116 38.4814C93.3212 38.4814 93.4152 38.4251 93.4152 38.3155C93.4152 38.1841 93.265 38.1558 93.0428 38.1089C92.786 38.0526 92.5076 37.9651 92.5076 37.6363C92.5076 37.3578 92.7328 37.1699 93.1209 37.1699C93.4902 37.1699 93.7155 37.3266 93.7155 37.6113C93.7155 37.6551 93.7062 37.7146 93.6906 37.7553H93.3839C93.3901 37.7271 93.3963 37.6802 93.3963 37.6426C93.3963 37.5174 93.2932 37.4454 93.1146 37.4454C92.9269 37.4454 92.8392 37.5079 92.8392 37.6301C92.8392 37.7709 93.0082 37.8022 93.2337 37.8523C93.4747 37.9024 93.7438 37.9806 93.7438 38.2935C93.747 38.6035 93.4996 38.7599 93.1022 38.7599C92.8392 38.7599 92.589 38.6849 92.4355 38.4877Z" fill="black"/>
<path d="M94.2682 38.1173V37.4944H93.9961V37.2096H94.2808V36.7715H94.6127V37.2096H95.1572V37.4944H94.6127V38.1017C94.6127 38.3239 94.7001 38.424 94.8724 38.424C94.9725 38.424 95.0631 38.3802 95.1226 38.3364L95.2416 38.593C95.1509 38.6744 94.9787 38.737 94.8253 38.737C94.4467 38.737 94.2682 38.5398 94.2682 38.1173Z" fill="black"/>
<path d="M96.5599 38.2874L96.7634 38.45C96.6602 38.6285 96.441 38.7599 96.1719 38.7599C95.7244 38.7599 95.4551 38.4625 95.4551 37.9775C95.4551 37.483 95.7149 37.1699 96.1563 37.1699C96.5442 37.1699 96.7634 37.4267 96.7634 37.8617C96.7634 37.918 96.7634 37.9555 96.7603 38.015H95.8025C95.8151 38.3217 95.9527 38.4751 96.1938 38.4751C96.3722 38.4751 96.4786 38.4032 96.5599 38.2874ZM95.8151 37.7928H96.4317C96.4317 37.5893 96.3377 37.4485 96.1374 37.4485C95.9341 37.4485 95.8433 37.5831 95.8151 37.7928Z" fill="black"/>
<path d="M99.1081 38.3905V37.7865C99.1081 37.6019 99.0205 37.4703 98.8265 37.4703C98.6294 37.4703 98.5135 37.6269 98.5135 37.8147V38.7192H98.1694V37.7865C98.1694 37.6019 98.0816 37.4703 97.8844 37.4703C97.6654 37.4703 97.5651 37.6456 97.5651 37.8178V38.7192H97.224V37.6019C97.224 37.5017 97.1865 37.461 97.0957 37.461V37.2044C97.127 37.1981 97.1898 37.1887 97.2491 37.1887C97.4087 37.1887 97.512 37.2732 97.5245 37.439V37.4485C97.584 37.3076 97.7279 37.1699 97.9814 37.1699C98.2287 37.1699 98.3853 37.2795 98.4541 37.461C98.5167 37.3108 98.6793 37.1699 98.9204 37.1699C99.3022 37.1699 99.4526 37.4296 99.4526 37.7646V38.3186C99.4526 38.4187 99.49 38.4625 99.5777 38.4625V38.7161C99.5495 38.7255 99.4868 38.7317 99.4274 38.7317C99.2113 38.7317 99.1081 38.6096 99.1081 38.3905Z" fill="black"/>
<mask id="mask5_2940_62875" style="mask-type:luminance" maskUnits="userSpaceOnUse" x="29" y="14" width="27" height="24">
<path d="M39.9426 16.7038C38.4691 17.8948 37.2905 19.4419 36.5305 21.2051C36.2853 21.7739 36.0833 22.3623 35.9314 22.9721C35.6935 23.8984 35.5683 24.8678 35.5683 25.8621C35.5683 28.7682 36.627 31.4292 38.3725 33.4841C38.3725 33.4841 38.3741 33.4859 38.3778 33.4894C38.4404 33.5646 38.5066 33.6397 38.5727 33.7148C38.9108 34.0957 38.6515 34.6912 38.1436 34.6912H29.7473C29.7453 35.242 29.7437 35.7911 29.7437 36.3419C29.7437 37.2343 29.2124 37.5795 29.0801 37.6546C35.6525 37.6618 47.2231 37.6635 47.2231 37.6635C47.2749 37.6635 47.3215 37.6653 47.3715 37.6653C47.4269 37.6653 47.4861 37.6635 47.5396 37.6635H47.6201C47.6274 37.6635 47.6361 37.6599 47.6414 37.6599C50.3241 37.5991 52.9172 36.6245 54.9703 34.8933C55.5855 34.3748 55.7804 33.5485 55.5229 32.8385C55.4478 32.6328 55.3351 32.4361 55.1849 32.2645C55.1438 32.2126 55.0955 32.1643 55.0472 32.1179C54.5178 31.6135 53.7416 31.5008 53.0835 31.7602C52.8922 31.8316 52.7116 31.939 52.5489 32.0749C51.0984 33.2839 49.2636 33.9509 47.3715 33.9509C42.9508 33.9509 39.3489 30.3813 39.2899 25.9747C39.288 25.9372 39.288 25.9014 39.288 25.8621C39.288 21.4072 42.9132 17.7787 47.3715 17.7787C48.5107 17.7787 49.632 18.0182 50.6568 18.4798C51.3346 18.7802 51.9694 19.1718 52.5489 19.6528C53.0657 20.0857 53.7704 20.209 54.3819 20.0034C54.6251 19.9247 54.8522 19.7924 55.0472 19.6083C55.1222 19.5384 55.1902 19.4633 55.2511 19.3829C55.3691 19.2326 55.4585 19.0645 55.5193 18.891C55.7786 18.1775 55.5836 17.3495 54.9703 16.8344C53.3214 15.4466 51.331 14.5417 49.2206 14.2109C48.6126 14.1126 47.9957 14.0625 47.3715 14.0625C44.5603 14.0625 41.976 15.0496 39.9426 16.7038Z" fill="white"/>
</mask>
<g mask="url(#mask5_2940_62875)">
<path d="M23.7246 36.3783L30.5349 8.00195L61.1372 15.3466L54.3269 43.7229L23.7246 36.3783Z" fill="url(#paint5_linear_2940_62875)"/>
</g>
<mask id="mask6_2940_62875" style="mask-type:luminance" maskUnits="userSpaceOnUse" x="1" y="21" width="9" height="14">
<path d="M1.52539 28.0451C1.52539 31.5125 4.28838 34.3344 7.73149 34.4298C5.00901 33.6786 2.98703 31.1552 2.96666 28.24C2.9485 25.2191 5.01925 22.6673 7.81459 21.9466C8.20849 21.841 8.61647 21.778 9.03679 21.7538C8.67141 21.6908 8.29568 21.6563 7.91214 21.6563C4.3858 21.6562 1.52539 24.5167 1.52539 28.0451Z" fill="white"/>
</mask>
<g mask="url(#mask6_2940_62875)">
<path d="M-3.89062 31.4302L3.28857 18.4727L14.4506 24.6571L7.27143 37.6146L-3.89062 31.4302Z" fill="url(#paint6_linear_2940_62875)"/>
</g>
<mask id="mask7_2940_62875" style="mask-type:luminance" maskUnits="userSpaceOnUse" x="9" y="10" width="13" height="12">
<path d="M9.23242 17.5411C9.23242 19.1285 9.78043 20.5862 10.7002 21.7393C10.8259 21.6419 10.8788 21.4612 10.7915 21.2967C10.5722 20.8806 10.3977 20.4399 10.2739 19.9812C10.1704 19.5975 10.1033 19.2057 10.0728 18.7996C10.0606 18.6617 10.0526 18.5277 10.0505 18.3916C10.0464 18.219 10.0526 18.0485 10.0606 17.8679C10.0626 17.8231 10.0667 17.7826 10.0709 17.7379C10.2615 14.9749 12.2085 12.5997 14.9227 12.0109C15.8933 11.7978 16.8148 11.7774 17.6857 11.9419C18.2074 12.0353 18.7151 12.2017 19.184 12.4169C19.8356 12.7134 20.4306 13.1173 20.9441 13.6086C20.9765 13.637 21.0091 13.6675 21.0396 13.6979C21.1228 13.7853 21.2284 13.8137 21.3299 13.8055C21.3786 13.8015 21.4253 13.7893 21.4679 13.7669C21.4922 13.7548 21.5147 13.7405 21.5348 13.7224C20.3188 11.9541 18.2827 10.7969 15.9764 10.7969C12.2511 10.7969 9.23242 13.8157 9.23242 17.5411Z" fill="white"/>
</mask>
<g mask="url(#mask7_2940_62875)">
<path d="M3.78711 15.7366L15.9822 4.67578L26.9799 16.8015L14.7848 27.8623L3.78711 15.7366Z" fill="url(#paint7_linear_2940_62875)"/>
</g>
<mask id="mask8_2940_62875" style="mask-type:luminance" maskUnits="userSpaceOnUse" x="22" y="2" width="19" height="13">
<path d="M22.4805 9.73358C23.8815 6.6945 26.9611 4.57905 30.5239 4.57905C33.697 4.57905 36.5169 6.24787 38.0842 8.81798C38.3521 9.27683 39.3163 11.1567 39.3876 14.4495C39.3916 14.6201 39.5844 14.7175 39.7265 14.6282C39.7326 14.6261 39.7386 14.6201 39.7448 14.616C39.8097 14.5673 39.8807 14.5125 39.962 14.4536C40.2361 13.5888 40.3842 12.6672 40.3842 11.7109C40.3842 6.7066 36.328 2.64844 31.3238 2.64844C26.9997 2.64844 23.382 5.67949 22.4805 9.73358Z" fill="white"/>
</mask>
<g mask="url(#mask8_2940_62875)">
<path d="M44.6913 12.9086L25.1627 21.1076L18.1719 4.45679L37.7004 -3.74219L44.6913 12.9086Z" fill="url(#paint8_linear_2940_62875)"/>
</g>
<mask id="mask9_2940_62875" style="mask-type:luminance" maskUnits="userSpaceOnUse" x="38" y="16" width="17" height="19">
<path d="M38.2637 25.1552C38.2637 30.0621 42.2407 34.039 47.1455 34.039C49.4313 34.039 51.5144 33.1762 53.0856 31.7613C52.8928 31.8323 52.712 31.9398 52.5497 32.0759C51.1001 33.2838 49.265 33.9518 47.3729 33.9518C42.9512 33.9518 39.3497 30.3827 39.2909 25.9754C39.2889 25.9388 39.2889 25.9023 39.2889 25.8636C39.2889 21.4076 42.9147 17.7798 47.3729 17.7798C48.5118 17.7798 49.6323 18.0193 50.6575 18.4802C51.3356 18.7807 51.9712 19.1724 52.5497 19.6536C53.0673 20.0859 53.7718 20.2099 54.3829 20.0048C52.7729 17.7453 50.1317 16.2734 47.1455 16.2734C42.2407 16.2734 38.2637 20.2504 38.2637 25.1552Z" fill="white"/>
</mask>
<g mask="url(#mask9_2940_62875)">
<path d="M31.1797 30.513L41.4613 9.84375L61.4673 19.7955L51.1857 40.4647L31.1797 30.513Z" fill="url(#paint9_linear_2940_62875)"/>
</g>
<mask id="mask10_2940_62875" style="mask-type:luminance" maskUnits="userSpaceOnUse" x="0" y="0" width="44" height="38">
<path d="M18.3629 9.05436C17.7657 8.92911 17.1451 8.86661 16.5083 8.86661C16.0041 8.86661 15.4926 8.9077 14.9722 8.98277C10.3081 9.68385 6.92626 13.883 7.08375 18.5971C7.0926 18.7509 7.0997 18.9047 7.11948 19.0621C3.03489 20.0904 0 23.7994 0 28.2024C0 33.4012 4.22939 37.6289 9.42118 37.6289H26.7755V37.611C27.024 37.6145 27.2816 37.5537 27.5211 37.4124C27.5694 37.3838 28.2025 37.0674 28.2025 36.0998C28.2025 32.7753 28.2847 25.9919 28.2847 25.9919C27.6946 25.9866 27.1151 25.983 26.5358 25.9776C26.1942 25.9759 25.8527 25.9723 25.5092 25.9705C25.4914 27.809 25.4574 31.5448 25.4394 33.4674C25.4325 34.0772 25.5146 34.578 25.0084 34.6513C24.9655 34.6584 24.9191 34.662 24.8672 34.662H9.42467C9.40325 34.662 9.38533 34.6637 9.36391 34.6637V34.653C9.32561 34.6523 9.2865 34.6526 9.24704 34.6527C9.19431 34.653 9.14077 34.6534 9.08665 34.6513C9.0402 34.6495 8.9919 34.6476 8.94545 34.6405C8.53049 34.6101 8.12448 34.5385 7.73105 34.4313C5.00915 33.6802 2.98845 31.1568 2.96692 28.2417C2.94911 25.2211 5.01998 22.6692 7.81509 21.9484C8.20852 21.843 8.61639 21.7804 9.03671 21.7553C9.16359 21.75 9.29058 21.7446 9.42118 21.7446C9.76083 21.7446 10.0935 21.7697 10.4172 21.8197C10.5264 21.834 10.621 21.809 10.6944 21.7482C10.6961 21.7446 10.6981 21.7429 10.6997 21.741C10.825 21.6445 10.8785 21.4638 10.791 21.2993C10.5727 20.8826 10.3975 20.4427 10.2742 19.9831C10.1703 19.6003 10.1025 19.207 10.0721 18.801C10.0613 18.6632 10.0524 18.5292 10.0507 18.3931C10.0471 18.2216 10.0524 18.0499 10.0613 17.8692C10.0631 17.8245 10.0666 17.7852 10.0702 17.7404C10.2616 14.9775 12.2091 12.6025 14.9221 12.0123C15.8931 11.7994 16.8141 11.7799 17.6851 11.9443C18.2073 12.0373 18.7152 12.2037 19.1836 12.4183C19.8348 12.7151 20.4303 13.1194 20.9436 13.6111C20.9757 13.6398 21.0097 13.6702 21.04 13.7006C21.1224 13.7881 21.2279 13.815 21.3298 13.8078C21.3781 13.8043 21.4246 13.7918 21.4675 13.7686C21.4926 13.7577 21.5141 13.7435 21.5356 13.7237C21.5838 13.688 21.6213 13.6378 21.6446 13.5753V13.5736C21.6589 13.536 21.666 13.4894 21.666 13.4448V13.434C21.666 12.7367 21.7519 12.0553 21.9038 11.4044C21.9629 11.1753 22.0237 10.9411 22.097 10.714C22.2061 10.3796 22.3349 10.0505 22.4815 9.7339C23.8818 6.69365 26.9614 4.57808 30.5238 4.57808C33.6964 4.57808 36.5165 6.24668 38.085 8.8183C38.3516 9.2761 39.3172 11.1557 39.3869 14.4498C39.3923 14.6197 39.5854 14.7163 39.7267 14.6288C39.7322 14.6251 39.7393 14.6197 39.7446 14.6162C39.8109 14.566 39.8805 14.5125 39.9629 14.4535C40.6263 13.9741 41.7977 13.2516 43.0853 13.0425C43.4036 12.9888 43.6165 12.6848 43.5699 12.3664C43.4144 11.2683 42.9494 8.91666 41.685 6.90655C40.5565 4.96977 38.9452 3.37265 37.0264 2.25672C35.1073 1.13905 32.8809 0.507812 30.5238 0.507812C24.9334 0.507812 20.1621 4.07547 18.3629 9.05436Z" fill="white"/>
</mask>
<g mask="url(#mask10_2940_62875)">
<path d="M43.6165 0.507812H0V37.6289H43.6165V0.507812Z" fill="url(#paint10_linear_2940_62875)"/>
</g>
<mask id="mask11_2940_62875" style="mask-type:luminance" maskUnits="userSpaceOnUse" x="24" y="17" width="6" height="6">
<path d="M26.2882 17.7478C26.2686 17.9802 26.2865 18.2163 26.2328 18.447C26.1076 18.9726 25.8375 19.4162 25.4548 19.7953C25.0452 20.2013 24.8218 20.6931 24.8129 21.2708C24.802 21.9038 25.0346 22.435 25.4639 22.8463C25.8734 22.8499 26.2775 22.8518 26.6782 22.8571C27.2432 22.8606 27.8012 22.866 28.3574 22.8696C28.4075 22.8195 28.4414 22.7909 28.4683 22.7569C29.1925 21.8503 29.2802 20.7451 28.7043 19.7238C28.302 19.0085 27.7189 18.463 27.0519 18.0016C26.814 17.8389 26.5636 17.6958 26.2991 17.5312C26.2953 17.6225 26.2936 17.6851 26.2882 17.7478Z" fill="white"/>
</mask>
<g mask="url(#mask11_2940_62875)">
<path d="M22.9648 22.1367L25.4172 15.9902L31.1177 18.2646L28.6654 24.4111L22.9648 22.1367Z" fill="url(#paint11_linear_2940_62875)"/>
</g>
<mask id="mask12_2940_62875" style="mask-type:luminance" maskUnits="userSpaceOnUse" x="25" y="23" width="4" height="3">
<path d="M25.5488 25.0315C25.876 25.0333 26.2032 25.037 26.536 25.0388C27.1172 25.0441 27.7072 25.0495 28.3028 25.0548C28.2938 24.6167 28.2867 24.1803 28.2778 23.7583C27.7037 23.7548 27.1244 23.751 26.536 23.7474C26.2016 23.7457 25.8654 23.7439 25.5254 23.7422C25.5345 24.1981 25.5417 24.6346 25.5488 25.0315Z" fill="white"/>
</mask>
<g mask="url(#mask12_2940_62875)">
<path d="M24.8848 24.5404L26.6161 22.3867L28.9442 24.2583L27.2129 26.4119L24.8848 24.5404Z" fill="url(#paint12_linear_2940_62875)"/>
</g>
<mask id="mask13_2940_62875" style="mask-type:luminance" maskUnits="userSpaceOnUse" x="1" y="21" width="8" height="14">
<path d="M1.37109 28.1022C1.37109 31.5837 4.14525 34.417 7.60222 34.5128C4.8688 33.7586 2.83855 31.225 2.81818 28.2978C2.7999 25.2648 4.87904 22.7026 7.68579 21.979C8.08132 21.873 8.49093 21.8098 8.913 21.7854C8.54599 21.7222 8.16885 21.6875 7.78368 21.6875C4.24303 21.6875 1.37109 24.5596 1.37109 28.1022Z" fill="white"/>
</mask>
<g mask="url(#mask13_2940_62875)">
<path d="M-4.06641 31.5004L3.14189 18.4902L14.3493 24.6997L7.14104 37.7098L-4.06641 31.5004Z" fill="url(#paint13_linear_2940_62875)"/>
</g>
<mask id="mask14_2940_62875" style="mask-type:luminance" maskUnits="userSpaceOnUse" x="9" y="10" width="13" height="12">
<path d="M9.10938 17.5526C9.10938 19.1467 9.65971 20.6102 10.583 21.7679C10.7094 21.6701 10.7624 21.4886 10.6747 21.3236C10.4546 20.9056 10.2793 20.4634 10.155 20.0027C10.0511 19.6174 9.98377 19.2241 9.95304 18.8165C9.94094 18.6778 9.93279 18.5433 9.93069 18.4067C9.92674 18.2334 9.93279 18.0623 9.94094 17.8808C9.94291 17.836 9.94699 17.7953 9.95106 17.7503C10.1427 14.9762 12.0975 12.5913 14.8227 12.0001C15.7971 11.7861 16.7225 11.7658 17.5969 11.9309C18.1208 12.0246 18.6304 12.1917 19.1013 12.4078C19.7555 12.7055 20.3528 13.1111 20.8686 13.6043C20.901 13.6329 20.9337 13.6635 20.9644 13.694C21.0479 13.7817 21.1539 13.8102 21.2557 13.8021C21.3048 13.798 21.3516 13.7858 21.3945 13.7633C21.4189 13.7511 21.4412 13.7369 21.4616 13.7185C20.2407 11.9432 18.1963 10.7812 15.8806 10.7812C12.1404 10.7812 9.10938 13.8123 9.10938 17.5526Z" fill="white"/>
</mask>
<g mask="url(#mask14_2940_62875)">
<path d="M3.64258 15.7402L15.887 4.63477L26.9292 16.8096L14.6847 27.9151L3.64258 15.7402Z" fill="url(#paint14_linear_2940_62875)"/>
</g>
<mask id="mask15_2940_62875" style="mask-type:luminance" maskUnits="userSpaceOnUse" x="22" y="2" width="19" height="13">
<path d="M22.4121 9.71534C23.8186 6.66392 26.9107 4.54009 30.4881 4.54009C33.6739 4.54009 36.5052 6.21555 38.0788 8.79614C38.3478 9.25673 39.3161 11.1442 39.3874 14.4504C39.3915 14.6217 39.5851 14.7196 39.7279 14.6297C39.7339 14.6278 39.7401 14.6217 39.7462 14.6176C39.8115 14.5688 39.8827 14.5136 39.9643 14.4546C40.2395 13.5861 40.3882 12.6608 40.3882 11.7007C40.3882 6.67614 36.3156 2.60156 31.2911 2.60156C26.9495 2.60156 23.317 5.64484 22.4121 9.71534Z" fill="white"/>
</mask>
<g mask="url(#mask15_2940_62875)">
<path d="M44.7127 12.9019L25.1051 21.134L18.0859 4.41575L37.6935 -3.81641L44.7127 12.9019Z" fill="url(#paint15_linear_2940_62875)"/>
</g>
<mask id="mask16_2940_62875" style="mask-type:luminance" maskUnits="userSpaceOnUse" x="24" y="17" width="3" height="6">
<path d="M26.2882 17.7478C26.2686 17.9802 26.2865 18.2163 26.2328 18.447C26.1076 18.9726 25.8375 19.4162 25.4548 19.7953C25.0452 20.2013 24.8218 20.6931 24.8129 21.2708C24.802 21.9038 25.0346 22.435 25.4639 22.8463C25.8734 22.8499 26.2775 22.8518 26.6782 22.8571C26.6083 22.7516 26.4903 22.6425 26.2991 22.5352C25.4191 22.0416 25.7661 20.6699 26.2991 19.8133C26.8319 18.9567 26.2991 17.5312 26.2991 17.5312C26.2953 17.6225 26.2936 17.6851 26.2882 17.7478Z" fill="white"/>
</mask>
<g mask="url(#mask16_2940_62875)">
<path d="M24.4727 22.8371L24.8095 17.4062L27.1607 17.552L26.8238 22.9829L24.4727 22.8371Z" fill="url(#paint16_linear_2940_62875)"/>
</g>
<mask id="mask17_2940_62875" style="mask-type:luminance" maskUnits="userSpaceOnUse" x="25" y="23" width="2" height="3">
<path d="M25.5488 25.0315C25.876 25.0333 26.2032 25.037 26.536 25.0388V23.7474C26.2016 23.7457 25.8654 23.7439 25.5254 23.7422C25.5345 24.1981 25.5417 24.6346 25.5488 25.0315Z" fill="white"/>
</mask>
<g mask="url(#mask17_2940_62875)">
<path d="M26.536 23.7422H25.5254V25.0388H26.536V23.7422Z" fill="url(#paint17_linear_2940_62875)"/>
</g>
<mask id="mask18_2940_62875" style="mask-type:luminance" maskUnits="userSpaceOnUse" x="25" y="25" width="2" height="10">
<path d="M25.4388 33.4656C25.4319 34.0754 25.514 34.5762 25.0078 34.6495H25.0577C25.8737 34.6495 26.5352 33.988 26.5352 33.172V25.9758C26.1936 25.9741 25.8521 25.9705 25.5086 25.9688C25.4908 27.8072 25.4568 31.543 25.4388 33.4656Z" fill="white"/>
</mask>
<g mask="url(#mask18_2940_62875)">
<path d="M26.5352 25.9688H25.0078V34.6495H26.5352V25.9688Z" fill="url(#paint18_linear_2940_62875)"/>
</g>
<defs>
<linearGradient id="paint0_linear_2940_62875" x1="78.6508" y1="29.9295" x2="78.6508" y2="21.5878" gradientUnits="userSpaceOnUse">
<stop stop-color="#F83600"/>
<stop offset="0.0751" stop-color="#F83600"/>
<stop offset="1" stop-color="#FE8C00"/>
</linearGradient>
<linearGradient id="paint1_linear_2940_62875" x1="95.1562" y1="29.9228" x2="95.1562" y2="21.5812" gradientUnits="userSpaceOnUse">
<stop stop-color="#F83600"/>
<stop offset="0.0751" stop-color="#F83600"/>
<stop offset="1" stop-color="#FE8C00"/>
</linearGradient>
<linearGradient id="paint2_linear_2940_62875" x1="69.2483" y1="29.9244" x2="69.2483" y2="21.5827" gradientUnits="userSpaceOnUse">
<stop stop-color="#F83600"/>
<stop offset="0.0751" stop-color="#F83600"/>
<stop offset="1" stop-color="#FE8C00"/>
</linearGradient>
<linearGradient id="paint3_linear_2940_62875" x1="86.9372" y1="29.926" x2="86.9372" y2="21.5844" gradientUnits="userSpaceOnUse">
<stop stop-color="#F83600"/>
<stop offset="0.0751" stop-color="#F83600"/>
<stop offset="1" stop-color="#FE8C00"/>
</linearGradient>
<linearGradient id="paint4_linear_2940_62875" x1="61.1027" y1="29.9236" x2="61.1027" y2="21.5819" gradientUnits="userSpaceOnUse">
<stop stop-color="#F83600"/>
<stop offset="0.0751" stop-color="#F83600"/>
<stop offset="1" stop-color="#FE8C00"/>
</linearGradient>
<linearGradient id="paint5_linear_2940_62875" x1="39.4643" y1="38.214" x2="43.6041" y2="20.9648" gradientUnits="userSpaceOnUse">
<stop stop-color="#F83600"/>
<stop offset="0.0751" stop-color="#F83600"/>
<stop offset="1" stop-color="#FE8C00"/>
</linearGradient>
<linearGradient id="paint6_linear_2940_62875" x1="4.28604" y1="29.8495" x2="7.40209" y2="24.2254" gradientUnits="userSpaceOnUse">
<stop stop-color="#0080D4"/>
<stop offset="0.0763" stop-color="#0080D4"/>
<stop offset="1" stop-color="#00B6F7"/>
</linearGradient>
<linearGradient id="paint7_linear_2940_62875" x1="13.3743" y1="18.0897" x2="16.6424" y2="15.1256" gradientUnits="userSpaceOnUse">
<stop stop-color="#0080D4"/>
<stop offset="0.0763" stop-color="#0080D4"/>
<stop offset="1" stop-color="#00B6F7"/>
</linearGradient>
<linearGradient id="paint8_linear_2940_62875" x1="38.9423" y1="5.53008" x2="28.9861" y2="9.71016" gradientUnits="userSpaceOnUse">
<stop stop-color="#00B6F7"/>
<stop offset="0.9237" stop-color="#0080D4"/>
<stop offset="1" stop-color="#0080D4"/>
</linearGradient>
<linearGradient id="paint9_linear_2940_62875" x1="45.318" y1="27.1894" x2="49.0041" y2="19.7792" gradientUnits="userSpaceOnUse">
<stop stop-color="#F83600"/>
<stop offset="0.0751" stop-color="#F83600"/>
<stop offset="1" stop-color="#FE8C00"/>
</linearGradient>
<linearGradient id="paint10_linear_2940_62875" x1="6.72372e-06" y1="19.0757" x2="43.6155" y2="19.0757" gradientUnits="userSpaceOnUse">
<stop stop-color="#0080D4"/>
<stop offset="0.0763" stop-color="#0080D4"/>
<stop offset="1" stop-color="#00B6F7"/>
</linearGradient>
<linearGradient id="paint11_linear_2940_62875" x1="25.6388" y1="23.7153" x2="27.2883" y2="19.5807" gradientUnits="userSpaceOnUse">
<stop stop-color="#0080D4"/>
<stop offset="0.0763" stop-color="#0080D4"/>
<stop offset="1" stop-color="#00B6F7"/>
</linearGradient>
<linearGradient id="paint12_linear_2940_62875" x1="25.5544" y1="26.08" x2="27.3117" y2="23.8941" gradientUnits="userSpaceOnUse">
<stop stop-color="#0080D4"/>
<stop offset="0.0763" stop-color="#0080D4"/>
<stop offset="1" stop-color="#00B6F7"/>
</linearGradient>
<linearGradient id="paint13_linear_2940_62875" x1="4.13888" y1="29.9014" x2="7.26756" y2="24.2546" gradientUnits="userSpaceOnUse">
<stop stop-color="#0080D4"/>
<stop offset="0.0763" stop-color="#0080D4"/>
<stop offset="1" stop-color="#00B6F7"/>
</linearGradient>
<linearGradient id="paint14_linear_2940_62875" x1="13.2711" y1="18.1023" x2="16.5524" y2="15.1262" gradientUnits="userSpaceOnUse">
<stop stop-color="#0080D4"/>
<stop offset="0.0763" stop-color="#0080D4"/>
<stop offset="1" stop-color="#00B6F7"/>
</linearGradient>
<linearGradient id="paint15_linear_2940_62875" x1="38.9372" y1="5.49665" x2="28.9407" y2="9.69365" gradientUnits="userSpaceOnUse">
<stop stop-color="#00B6F7"/>
<stop offset="0.9237" stop-color="#0080D4"/>
<stop offset="1" stop-color="#0080D4"/>
</linearGradient>
<linearGradient id="paint16_linear_2940_62875" x1="25.7049" y1="22.0266" x2="25.8334" y2="19.954" gradientUnits="userSpaceOnUse">
<stop stop-color="#0080D4"/>
<stop offset="0.0763" stop-color="#0080D4"/>
<stop offset="1" stop-color="#00B6F7"/>
</linearGradient>
<linearGradient id="paint17_linear_2940_62875" x1="26.0315" y1="24.7675" x2="26.0315" y2="24.0927" gradientUnits="userSpaceOnUse">
<stop stop-color="#0080D4"/>
<stop offset="0.0763" stop-color="#0080D4"/>
<stop offset="1" stop-color="#00B6F7"/>
</linearGradient>
<linearGradient id="paint18_linear_2940_62875" x1="25.7658" y1="31.3389" x2="25.7658" y2="27.9753" gradientUnits="userSpaceOnUse">
<stop stop-color="#0080D4"/>
<stop offset="0.0763" stop-color="#0080D4"/>
<stop offset="1" stop-color="#00B6F7"/>
</linearGradient>
</defs>
</svg>
