<svg width="150" height="60" viewBox="0 0 150 60" fill="none" xmlns="http://www.w3.org/2000/svg">
<mask id="mask0_2940_59580" style="mask-type:luminance" maskUnits="userSpaceOnUse" x="111" y="32" width="15" height="17">
<path d="M116.656 41.5993C117.399 40.898 118.813 40.5334 120.515 40.6441C120.525 40.6446 120.533 40.653 120.533 40.663C120.533 41.1611 120.559 41.633 120.553 42.0935C120.533 43.469 119.495 44.6645 118.125 44.79C118.047 44.7971 117.97 44.8006 117.896 44.8006C116.065 44.8003 115.506 42.684 116.656 41.5993ZM112.493 33.4773C112.484 33.481 112.479 33.4913 112.482 33.5007C112.684 34.1907 112.872 34.8324 113.06 35.4765C113.209 35.9846 113.762 36.255 114.254 36.0598L114.273 36.0527C115.649 35.5081 117.062 35.1945 118.549 35.4353C119.763 35.6317 120.351 36.3043 120.332 37.5488C120.332 37.5591 120.323 37.5687 120.313 37.5694C120.019 37.5888 119.775 37.6087 119.531 37.62C117.776 37.7009 116.052 37.9273 114.448 38.7083C111.646 40.0728 110.56 43.1398 111.953 45.7395C113.42 48.4788 117.583 49.0532 120.173 46.8826C120.37 46.7177 120.48 46.3912 120.833 46.4457C120.84 46.4469 120.848 46.453 120.849 46.4607L120.853 46.4743C121.054 47.2517 121.756 47.7943 122.559 47.7943H125.357C125.367 47.7943 125.376 47.7849 125.375 47.7742C125.108 44.6983 125.257 41.6636 125.202 38.6318C125.158 36.149 124.546 33.9112 121.993 32.8678C120.733 32.3529 119.488 32.1318 118.252 32.1318C116.317 32.132 114.404 32.6736 112.493 33.4773Z" fill="white"/>
</mask>
<g mask="url(#mask0_2940_59580)">
<path d="M125.375 32.1318H110.559V49.0532H125.375V32.1318Z" fill="url(#paint0_linear_2940_59580)"/>
</g>
<mask id="mask1_2940_59580" style="mask-type:luminance" maskUnits="userSpaceOnUse" x="135" y="32" width="15" height="17">
<path d="M140.001 38.375C139.995 36.5854 141.357 35.1577 142.961 35.232C144.588 35.3073 145.649 36.6257 145.449 38.3771C145.448 38.3867 145.44 38.394 145.43 38.394H140.02C140.009 38.394 140.001 38.3855 140.001 38.375ZM135.408 39.4773C135.216 42.4931 135.924 45.1662 138.654 46.9138C140.623 48.175 142.835 48.3131 145.077 48.1196C146.45 48.0012 147.822 47.7975 149.131 47.1487C149.139 47.1448 149.143 47.1359 149.142 47.1275L148.873 45.8126C148.675 44.8443 147.741 44.2052 146.769 44.3816C146.589 44.4142 146.41 44.443 146.23 44.4661C144.938 44.6335 143.638 44.7062 142.363 44.3214C140.932 43.8896 140.14 43.0405 140.015 41.7315C140.014 41.7205 140.023 41.7104 140.034 41.7104H144.85H149.735C149.744 41.7104 149.751 41.7046 149.753 41.6962C150.235 39.8436 149.988 37.6008 149.194 35.7988C148.391 33.9763 146.98 32.8793 145.104 32.3991C144.396 32.2183 143.698 32.1318 143.019 32.1318C139.004 32.132 135.684 35.1519 135.408 39.4773Z" fill="white"/>
</mask>
<g mask="url(#mask1_2940_59580)">
<path d="M150.236 32.1318H135.217V48.3131H150.236V32.1318Z" fill="url(#paint1_linear_2940_59580)"/>
</g>
<mask id="mask2_2940_59580" style="mask-type:luminance" maskUnits="userSpaceOnUse" x="96" y="32" width="16" height="17">
<path d="M101.17 38.3731C101.315 36.4316 102.625 35.1179 104.267 35.2398C105.831 35.3559 106.813 36.5887 106.72 38.3754C106.719 38.3853 106.711 38.3937 106.701 38.3937H101.189C101.178 38.3937 101.169 38.3839 101.17 38.3731ZM97.3665 36.5292C96.6522 38.2898 96.4275 40.0903 96.7211 41.9365C97.1858 44.8571 98.8186 46.8515 101.674 47.7455C103.239 48.2352 104.855 48.2873 106.477 48.0961C107.786 47.9419 109.095 47.7741 110.33 47.1534C110.337 47.1496 110.342 47.1408 110.34 47.1325C110.205 46.4451 110.075 45.7807 109.944 45.1111C109.826 44.5126 109.242 44.1306 108.645 44.2528C108.641 44.2535 108.638 44.2542 108.635 44.2549C106.912 44.6053 105.184 44.8178 103.462 44.2823C102.061 43.8465 101.327 42.9971 101.255 41.7342C101.255 41.7235 101.263 41.7137 101.274 41.7137H109.984C110.599 41.7137 111.111 41.2394 111.156 40.6267C111.298 38.6935 111.048 36.8634 110.061 35.1348C109.777 34.6374 109.448 34.1709 109.009 33.7942C107.719 32.6882 106.034 32.1551 104.331 32.1553C101.453 32.1554 98.5237 33.6774 97.3665 36.5292Z" fill="white"/>
</mask>
<g mask="url(#mask2_2940_59580)">
<path d="M111.299 32.1553H96.4277V48.2874H111.299V32.1553Z" fill="url(#paint2_linear_2940_59580)"/>
</g>
<mask id="mask3_2940_59580" style="mask-type:luminance" maskUnits="userSpaceOnUse" x="125" y="30" width="11" height="19">
<path d="M127.374 30.0576C127.364 30.0576 127.355 30.0656 127.355 30.0759V32.4109C127.355 32.4193 127.35 32.4271 127.342 32.4294C127.006 32.5317 126.68 32.5259 126.366 32.5202C126.038 32.5141 125.723 32.5081 125.425 32.6253C125.417 32.6283 125.412 32.6356 125.412 32.6436V34.2971C125.412 35.1736 126.08 35.8777 126.949 35.9921C127.084 36.0099 127.219 36.0422 127.354 36.0986C127.361 36.1016 127.366 36.1092 127.366 36.1173C127.366 36.4738 127.364 36.8141 127.366 37.1544C127.38 39.1529 127.346 41.1534 127.423 43.1496C127.525 45.781 128.572 47.3287 130.594 47.9297C131.424 48.1764 132.251 48.2438 133.07 48.1888C134.341 48.1036 135.319 47.0265 135.319 45.7528V44.2096C135.319 44.199 135.309 44.1906 135.298 44.1911C134.813 44.2175 134.41 44.2629 134.008 44.2547C132.874 44.2313 132.252 43.7428 132.151 42.6311C131.956 40.4603 132.09 38.2832 132.072 35.9998C132.072 35.9895 132.08 35.9811 132.091 35.9811H135.36C135.37 35.9811 135.379 35.9729 135.379 35.9628V32.5101C135.379 32.4997 135.37 32.4915 135.36 32.4915H132.073C132.063 32.4915 132.055 32.4832 132.055 32.4729V30.0759C132.055 30.0656 132.047 30.0576 132.036 30.0576H127.374Z" fill="white"/>
</mask>
<g mask="url(#mask3_2940_59580)">
<path d="M135.379 30.0576H125.412V48.2438H135.379V30.0576Z" fill="url(#paint3_linear_2940_59580)"/>
</g>
<mask id="mask4_2940_59580" style="mask-type:luminance" maskUnits="userSpaceOnUse" x="87" y="32" width="10" height="16">
<path d="M93.6438 32.7741C92.7357 33.3151 92.054 34.0886 91.5917 35.1596C91.5821 35.1818 91.5493 35.1813 91.5411 35.1586C91.2128 34.2451 91.537 33.3679 91.1646 32.5705C91.1603 32.5609 91.1503 32.5546 91.1398 32.5546H88.5615C87.8237 32.5546 87.2277 33.1638 87.2527 33.9013C87.4107 38.5666 87.23 43.1669 87.3524 47.7284C87.3529 47.7427 87.3645 47.754 87.3788 47.754H92.0427C92.057 47.754 92.0689 47.7415 92.0689 47.727C92.0689 47.2856 92.0673 46.9165 92.0692 46.5477C92.0809 44.2772 92.0464 42.0052 92.1172 39.7366C92.1721 37.9869 93.5958 36.576 95.3459 36.5452C95.5109 36.5421 95.6759 36.5414 95.8446 36.5416C95.9831 33.7635 95.9242 34.9435 96.0628 32.1654C95.9679 32.1586 95.8738 32.1553 95.7803 32.1553C95.0168 32.1553 94.3097 32.3775 93.6438 32.7741Z" fill="white"/>
</mask>
<g mask="url(#mask4_2940_59580)">
<path d="M96.0636 32.1553H87.2285V47.754H96.0636V32.1553Z" fill="url(#paint4_linear_2940_59580)"/>
</g>
<path d="M108.283 50.3511C108.283 50.1728 108.434 50.0225 108.617 50.0225C108.795 50.0225 108.945 50.1728 108.945 50.3511C108.945 50.5389 108.795 50.6844 108.617 50.6844C108.434 50.6844 108.283 50.5389 108.283 50.3511ZM108.358 51.0928H108.87V53.3556H108.358V51.0928Z" fill="black"/>
<path d="M111.116 52.8611V51.9551C111.116 51.6499 110.961 51.4809 110.693 51.4809C110.407 51.4809 110.21 51.6922 110.21 52.0068V53.3542H109.698V51.6782C109.698 51.5279 109.642 51.4669 109.506 51.4669V51.082C109.553 51.0725 109.642 51.0584 109.741 51.0584C109.994 51.0584 110.135 51.1993 110.149 51.434V51.4434C110.261 51.1946 110.501 51.0303 110.839 51.0303C111.346 51.0303 111.632 51.3589 111.632 51.9223V52.7532C111.632 52.9034 111.689 52.9692 111.825 52.9692V53.3495C111.782 53.3636 111.689 53.3729 111.595 53.3729C111.271 53.3729 111.116 53.1897 111.116 52.8611Z" fill="black"/>
<path d="M112.571 52.4513V51.5171H112.162V51.0898H112.589V50.4326H113.087V51.0898H113.904V51.5171H113.087V52.4279C113.087 52.7613 113.218 52.9114 113.477 52.9114C113.627 52.9114 113.763 52.8458 113.852 52.7799L114.031 53.1649C113.895 53.287 113.636 53.3809 113.406 53.3809C112.838 53.3809 112.571 53.0851 112.571 52.4513Z" fill="black"/>
<path d="M116.009 52.7064L116.314 52.9504C116.159 53.2182 115.83 53.4153 115.426 53.4153C114.755 53.4153 114.352 52.9692 114.352 52.2416C114.352 51.4999 114.741 51.0303 115.403 51.0303C115.985 51.0303 116.314 51.4154 116.314 52.0679C116.314 52.1524 116.314 52.2086 116.309 52.2979H114.873C114.891 52.7579 115.098 52.9881 115.459 52.9881C115.727 52.9881 115.887 52.8802 116.009 52.7064ZM114.891 51.9646H115.816C115.816 51.6594 115.675 51.4481 115.375 51.4481C115.07 51.4481 114.934 51.6501 114.891 51.9646Z" fill="black"/>
<path d="M116.76 53.8819C116.76 53.5673 116.99 53.4028 117.112 53.3513C116.98 53.2855 116.83 53.1682 116.83 52.9477C116.83 52.7128 116.976 52.5766 117.145 52.511C117.051 52.4265 116.905 52.2199 116.905 51.9006C116.905 51.3607 117.337 51.0416 117.868 51.0416C118.027 51.0416 118.131 51.0744 118.215 51.0978C118.379 51.0978 118.619 51.0134 118.619 50.6377L119.065 50.7316C119.065 51.1542 118.769 51.2715 118.572 51.2856C118.703 51.3935 118.83 51.5956 118.83 51.9006C118.83 52.4499 118.384 52.7598 117.872 52.7598C117.699 52.7598 117.558 52.727 117.497 52.7128C117.37 52.7128 117.285 52.7645 117.285 52.8865C117.285 53.0227 117.412 53.0603 117.591 53.0603H118.224C118.694 53.0603 119.032 53.2668 119.032 53.7222C119.032 54.14 118.722 54.4827 117.816 54.4827C117.06 54.4827 116.76 54.2668 116.76 53.8819ZM118.553 53.7739C118.553 53.5673 118.417 53.4781 118.149 53.4781L117.647 53.4828C117.375 53.4828 117.239 53.5954 117.239 53.8067C117.239 54.0132 117.398 54.1166 117.849 54.1166C118.346 54.1166 118.553 53.9993 118.553 53.7739ZM118.351 51.9006C118.351 51.6282 118.159 51.4454 117.873 51.4454C117.577 51.4454 117.394 51.6237 117.394 51.9006C117.394 52.1777 117.572 52.3559 117.868 52.3559C118.159 52.3559 118.351 52.1777 118.351 51.9006Z" fill="black"/>
<path d="M119.573 51.6794C119.573 51.5292 119.517 51.4681 119.381 51.4681V51.0831C119.428 51.0737 119.517 51.0595 119.611 51.0595C119.878 51.0595 120.019 51.2099 120.024 51.4164V51.4447C120.113 51.191 120.353 51.0361 120.667 51.0361C120.789 51.0361 120.921 51.069 120.981 51.1161L120.789 51.5949C120.737 51.5573 120.648 51.5385 120.55 51.5385C120.244 51.5385 120.085 51.8014 120.085 52.1393V53.3553H119.573V51.6794Z" fill="black"/>
<path d="M123.356 52.9694V53.3495C123.3 53.3638 123.211 53.3778 123.131 53.3778C122.85 53.3778 122.723 53.2369 122.713 52.9881C122.586 53.2369 122.333 53.4106 121.962 53.4106C121.511 53.4106 121.234 53.1854 121.234 52.8096C121.234 52.4012 121.526 52.1619 122.131 52.1571H122.647V51.8706C122.647 51.5939 122.502 51.4481 122.23 51.4481C121.967 51.4481 121.835 51.5562 121.835 51.7816C121.835 51.8472 121.849 51.913 121.873 51.9506H121.408C121.389 51.9178 121.356 51.8238 121.356 51.6971C121.356 51.2934 121.69 51.0303 122.249 51.0303C122.873 51.0303 123.164 51.3355 123.164 51.8897V52.7487C123.164 52.9036 123.215 52.9694 123.356 52.9694ZM122.647 52.5608V52.4763H122.136C121.878 52.4763 121.751 52.5936 121.751 52.7581C121.751 52.9222 121.873 53.0115 122.079 53.0115C122.361 53.0115 122.554 52.8332 122.647 52.5608Z" fill="black"/>
<path d="M124.108 52.4513V51.5171H123.699V51.0898H124.126V50.4326H124.624V51.0898H125.441V51.5171H124.624V52.4279C124.624 52.7613 124.756 52.9114 125.014 52.9114C125.164 52.9114 125.3 52.8458 125.389 52.7799L125.568 53.1649C125.432 53.287 125.174 53.3809 124.943 53.3809C124.375 53.3809 124.108 53.0851 124.108 52.4513Z" fill="black"/>
<path d="M127.544 52.7064L127.849 52.9504C127.694 53.2182 127.366 53.4153 126.962 53.4153C126.29 53.4153 125.887 52.9692 125.887 52.2416C125.887 51.4999 126.276 51.0303 126.938 51.0303C127.52 51.0303 127.849 51.4154 127.849 52.0679C127.849 52.1524 127.849 52.2086 127.844 52.2979H126.408C126.426 52.7579 126.633 52.9881 126.994 52.9881C127.262 52.9881 127.422 52.8802 127.544 52.7064ZM126.426 51.9646H127.351C127.351 51.6594 127.211 51.4481 126.91 51.4481C126.605 51.4481 126.469 51.6501 126.426 51.9646Z" fill="black"/>
<path d="M128.357 52.2421C128.357 51.5378 128.743 51.0309 129.329 51.0309C129.616 51.0309 129.818 51.1577 129.93 51.3125V49.9463H130.442V52.7397C130.442 52.9087 130.493 52.9698 130.635 52.9698V53.3548C130.592 53.3643 130.498 53.3782 130.404 53.3782C130.151 53.3782 130.001 53.2469 129.987 53.0357V52.9932C129.86 53.2422 129.639 53.4158 129.264 53.4158C128.724 53.4158 128.357 52.9464 128.357 52.2421ZM129.935 52.552V51.8901C129.888 51.6836 129.729 51.4582 129.428 51.4582C129.066 51.4582 128.879 51.7351 128.879 52.2421C128.879 52.6928 129.076 52.9838 129.428 52.9838C129.696 52.9838 129.86 52.8103 129.935 52.552Z" fill="black"/>
<path d="M132.264 52.2228C132.264 51.4717 132.677 51.0303 133.334 51.0303C133.865 51.0303 134.188 51.2744 134.188 51.7533C134.188 51.8472 134.174 51.9551 134.151 52.0115L133.705 52.0162C133.719 51.974 133.729 51.9034 133.729 51.8284C133.729 51.5796 133.588 51.4575 133.325 51.4575C132.987 51.4575 132.785 51.7158 132.785 52.2087C132.785 52.711 133.01 52.9832 133.367 52.9832C133.658 52.9832 133.804 52.8566 133.916 52.6874L134.226 52.9551C134.071 53.2133 133.78 53.4151 133.343 53.4151C132.672 53.4151 132.264 52.9786 132.264 52.2228Z" fill="black"/>
<path d="M134.87 51.6794C134.87 51.5292 134.814 51.4681 134.678 51.4681V51.0831C134.725 51.0737 134.814 51.0595 134.908 51.0595C135.175 51.0595 135.316 51.2099 135.321 51.4164V51.4447C135.41 51.191 135.649 51.0361 135.964 51.0361C136.086 51.0361 136.218 51.069 136.278 51.1161L136.086 51.5949C136.034 51.5573 135.945 51.5385 135.847 51.5385C135.541 51.5385 135.382 51.8014 135.382 52.1393V53.3553H134.87V51.6794Z" fill="black"/>
<path d="M138.194 52.7064L138.5 52.9504C138.345 53.2182 138.016 53.4153 137.612 53.4153C136.941 53.4153 136.537 52.9692 136.537 52.2416C136.537 51.4999 136.927 51.0303 137.589 51.0303C138.171 51.0303 138.5 51.4154 138.5 52.0679C138.5 52.1524 138.5 52.2086 138.495 52.2979H137.058C137.077 52.7579 137.284 52.9881 137.645 52.9881C137.913 52.9881 138.072 52.8802 138.194 52.7064ZM137.077 51.9646H138.002C138.002 51.6594 137.861 51.4481 137.561 51.4481C137.256 51.4481 137.119 51.6501 137.077 51.9646Z" fill="black"/>
<path d="M141.097 52.9694V53.3495C141.04 53.3638 140.951 53.3778 140.871 53.3778C140.589 53.3778 140.463 53.2369 140.453 52.9881C140.327 53.2369 140.073 53.4106 139.702 53.4106C139.252 53.4106 138.975 53.1854 138.975 52.8096C138.975 52.4012 139.265 52.1619 139.871 52.1571H140.388V51.8706C140.388 51.5939 140.242 51.4481 139.97 51.4481C139.707 51.4481 139.575 51.5562 139.575 51.7816C139.575 51.8472 139.59 51.913 139.613 51.9506H139.148C139.129 51.9178 139.097 51.8238 139.097 51.6971C139.097 51.2934 139.43 51.0303 139.989 51.0303C140.613 51.0303 140.904 51.3355 140.904 51.8897V52.7487C140.904 52.9036 140.956 52.9694 141.097 52.9694ZM140.388 52.5608V52.4763H139.876C139.618 52.4763 139.491 52.5936 139.491 52.7581C139.491 52.9222 139.613 53.0115 139.82 53.0115C140.101 53.0115 140.294 52.8332 140.388 52.5608Z" fill="black"/>
<path d="M141.848 52.4513V51.5171H141.439V51.0898H141.867V50.4326H142.364V51.0898H143.181V51.5171H142.364V52.4279C142.364 52.7613 142.495 52.9114 142.754 52.9114C142.904 52.9114 143.04 52.8458 143.129 52.7799L143.308 53.1649C143.172 53.287 142.913 53.3809 142.683 53.3809C142.115 53.3809 141.848 53.0851 141.848 52.4513Z" fill="black"/>
<path d="M143.711 50.3511C143.711 50.1728 143.861 50.0225 144.044 50.0225C144.223 50.0225 144.373 50.1728 144.373 50.3511C144.373 50.5389 144.223 50.6844 144.044 50.6844C143.861 50.6844 143.711 50.5389 143.711 50.3511ZM143.786 51.0928H144.298V53.3556H143.786V51.0928Z" fill="black"/>
<path d="M147.044 51.0918L146.195 53.3593H145.664L144.814 51.0918H145.364L145.857 52.5143L145.946 52.8759L146.035 52.5143L146.523 51.0918H147.044Z" fill="black"/>
<path d="M149.026 52.7064L149.331 52.9504C149.176 53.2182 148.848 53.4153 148.444 53.4153C147.773 53.4153 147.369 52.9692 147.369 52.2416C147.369 51.4999 147.759 51.0303 148.421 51.0303C149.003 51.0303 149.331 51.4154 149.331 52.0679C149.331 52.1524 149.331 52.2086 149.327 52.2979H147.89C147.909 52.7579 148.116 52.9881 148.477 52.9881C148.744 52.9881 148.904 52.8802 149.026 52.7064ZM147.909 51.9646H148.834C148.834 51.6594 148.693 51.4481 148.392 51.4481C148.087 51.4481 147.951 51.6501 147.909 51.9646Z" fill="black"/>
<path d="M87.6104 56.4038C87.6104 56.2489 87.5542 56.1878 87.418 56.1878V55.8075C87.46 55.7934 87.5542 55.7794 87.6479 55.7794C87.9014 55.7794 88.0563 55.9154 88.0657 56.1737V56.1831C88.1925 55.9343 88.4132 55.7559 88.7839 55.7559C89.338 55.7559 89.6996 56.2301 89.6996 56.9248C89.6996 57.6433 89.305 58.1407 88.7231 58.1407C88.4366 58.1407 88.2253 58.014 88.1221 57.8685V59.1548H87.6104V56.4038ZM89.1736 56.9295C89.1736 56.4553 88.9578 56.1878 88.6339 56.1878C88.3568 56.1878 88.1925 56.371 88.1221 56.6198V57.2862C88.1831 57.5165 88.3474 57.7088 88.6339 57.7088C88.9812 57.7088 89.1736 57.4413 89.1736 56.9295Z" fill="black"/>
<path d="M90.3897 56.4049C90.3897 56.2548 90.3333 56.1937 90.1973 56.1937V55.8087C90.2442 55.7993 90.3333 55.7851 90.4274 55.7851C90.695 55.7851 90.8356 55.9355 90.8405 56.142V56.1703C90.9297 55.9166 91.1689 55.7617 91.4837 55.7617C91.6058 55.7617 91.7371 55.7945 91.7982 55.8417L91.6058 56.3204C91.5541 56.2829 91.4649 56.264 91.3662 56.264C91.0612 56.264 90.9014 56.527 90.9014 56.8648V58.0809H90.3897V56.4049Z" fill="black"/>
<path d="M92.0566 56.9484C92.0566 56.2159 92.4697 55.7559 93.1409 55.7559C93.8075 55.7559 94.1972 56.2159 94.1972 56.9437C94.1972 57.6667 93.7841 58.1407 93.113 58.1407C92.4413 58.1407 92.0566 57.6807 92.0566 56.9484ZM93.6715 56.9484C93.6715 56.4506 93.4697 56.1831 93.1269 56.1831C92.7891 56.1831 92.5824 56.4506 92.5824 56.9484C92.5824 57.446 92.7842 57.7088 93.1269 57.7088C93.4742 57.7088 93.6715 57.446 93.6715 56.9484Z" fill="black"/>
<path d="M94.0996 59.0968L94.2545 58.7307C94.2545 58.7307 94.3388 58.7916 94.4846 58.7916C94.7379 58.7916 94.86 58.6181 94.86 58.294V55.8152H95.3717V58.3176C95.3717 58.8762 95.1229 59.2376 94.541 59.2376C94.2356 59.2378 94.0996 59.0968 94.0996 59.0968ZM94.7802 55.0737C94.7802 54.8953 94.9351 54.7451 95.1135 54.7451C95.292 54.7451 95.4423 54.8953 95.4423 55.0737C95.4423 55.2616 95.292 55.407 95.1135 55.407C94.9351 55.407 94.7802 55.2616 94.7802 55.0737Z" fill="black"/>
<path d="M97.6671 57.432L97.9723 57.6759C97.8174 57.9438 97.4886 58.1409 97.085 58.1409C96.4138 58.1409 96.0098 57.6948 96.0098 56.9672C96.0098 56.2255 96.3995 55.7559 97.0616 55.7559C97.6435 55.7559 97.9723 56.141 97.9723 56.7935C97.9723 56.878 97.9723 56.9342 97.9676 57.0235H96.531C96.5498 57.4835 96.7562 57.7137 97.1178 57.7137C97.3854 57.7137 97.545 57.6057 97.6671 57.432ZM96.5498 56.6901H97.4747C97.4747 56.3849 97.3338 56.1737 97.0333 56.1737C96.7282 56.1737 96.5921 56.3757 96.5498 56.6901Z" fill="black"/>
<path d="M98.4805 56.9484C98.4805 56.1973 98.8936 55.7559 99.5511 55.7559C100.081 55.7559 100.405 55.9999 100.405 56.4789C100.405 56.5728 100.391 56.6807 100.368 56.7371L99.9218 56.7418C99.9359 56.6996 99.9454 56.629 99.9454 56.554C99.9454 56.3051 99.8045 56.1831 99.5417 56.1831C99.2035 56.1831 99.0016 56.4413 99.0016 56.9342C99.0016 57.4366 99.2269 57.7088 99.5836 57.7088C99.875 57.7088 100.02 57.5822 100.133 57.413L100.443 57.6806C100.288 57.9389 99.997 58.1407 99.5602 58.1407C98.889 58.1407 98.4805 57.704 98.4805 56.9484Z" fill="black"/>
<path d="M101.207 57.1769V56.2426H100.799V55.8154H101.226V55.1582H101.724V55.8154H102.541V56.2426H101.724V57.1535C101.724 57.4868 101.855 57.637 102.113 57.637C102.264 57.637 102.4 57.5713 102.489 57.5055L102.667 57.8905C102.531 58.0126 102.273 58.1065 102.043 58.1065C101.475 58.1065 101.207 57.8107 101.207 57.1769Z" fill="black"/>
<path d="M107.151 57.5867V56.6807C107.151 56.4038 107.02 56.2065 106.729 56.2065C106.433 56.2065 106.26 56.4413 106.26 56.723V58.0798H105.743V56.6807C105.743 56.4038 105.611 56.2065 105.316 56.2065C104.987 56.2065 104.837 56.4694 104.837 56.7277V58.0798H104.325V56.4038C104.325 56.2535 104.269 56.1925 104.133 56.1925V55.8075C104.18 55.7981 104.274 55.784 104.363 55.784C104.602 55.784 104.757 55.9107 104.776 56.1595V56.1737C104.865 55.9624 105.081 55.7559 105.461 55.7559C105.832 55.7559 106.067 55.9202 106.17 56.1925C106.264 55.9671 106.508 55.7559 106.869 55.7559C107.443 55.7559 107.668 56.1454 107.668 56.6479V57.4788C107.668 57.629 107.724 57.6948 107.856 57.6948V58.0751C107.813 58.0892 107.719 58.0985 107.63 58.0985C107.306 58.0985 107.151 57.9153 107.151 57.5867Z" fill="black"/>
<path d="M110.415 57.6948V58.0749C110.359 58.0892 110.269 58.1032 110.19 58.1032C109.908 58.1032 109.781 57.9623 109.772 57.7135C109.645 57.9623 109.392 58.136 109.021 58.136C108.57 58.136 108.293 57.9108 108.293 57.535C108.293 57.1266 108.584 56.8873 109.19 56.8826H109.706V56.596C109.706 56.3193 109.561 56.1735 109.288 56.1735C109.025 56.1735 108.894 56.2816 108.894 56.507C108.894 56.5726 108.908 56.6385 108.932 56.676H108.467C108.448 56.6432 108.415 56.5492 108.415 56.4225C108.415 56.0188 108.748 55.7559 109.307 55.7559C109.932 55.7559 110.223 56.0609 110.223 56.6151V57.4741C110.223 57.629 110.274 57.6948 110.415 57.6948ZM109.706 57.2862V57.2017H109.194C108.936 57.2017 108.809 57.3191 108.809 57.4835C108.809 57.6477 108.932 57.7369 109.138 57.7369C109.42 57.7369 109.612 57.5586 109.706 57.2862Z" fill="black"/>
<path d="M112.487 57.5867V56.6807C112.487 56.3755 112.332 56.2065 112.064 56.2065C111.778 56.2065 111.581 56.4178 111.581 56.7324V58.0798H111.069V56.4038C111.069 56.2535 111.013 56.1925 110.877 56.1925V55.8075C110.924 55.7981 111.013 55.784 111.112 55.784C111.365 55.784 111.506 55.9249 111.52 56.1595V56.169C111.632 55.9202 111.872 55.7559 112.21 55.7559C112.717 55.7559 113.004 56.0845 113.004 56.6479V57.4788C113.004 57.629 113.06 57.6948 113.196 57.6948V58.0751C113.154 58.0892 113.06 58.0985 112.966 58.0985C112.642 58.0985 112.487 57.9153 112.487 57.5867Z" fill="black"/>
<path d="M115.755 57.6948V58.0749C115.699 58.0892 115.609 58.1032 115.529 58.1032C115.248 58.1032 115.121 57.9623 115.112 57.7135C114.985 57.9623 114.731 58.136 114.36 58.136C113.91 58.136 113.633 57.9108 113.633 57.535C113.633 57.1266 113.924 56.8873 114.529 56.8826H115.046V56.596C115.046 56.3193 114.9 56.1735 114.628 56.1735C114.365 56.1735 114.234 56.2816 114.234 56.507C114.234 56.5726 114.248 56.6385 114.271 56.676H113.807C113.788 56.6432 113.755 56.5492 113.755 56.4225C113.755 56.0188 114.088 55.7559 114.647 55.7559C115.271 55.7559 115.562 56.0609 115.562 56.6151V57.4741C115.562 57.629 115.614 57.6948 115.755 57.6948ZM115.046 57.2862V57.2017H114.534C114.276 57.2017 114.149 57.3191 114.149 57.4835C114.149 57.6477 114.271 57.7369 114.478 57.7369C114.759 57.7369 114.952 57.5586 115.046 57.2862Z" fill="black"/>
<path d="M116.164 58.6044C116.164 58.29 116.394 58.1255 116.516 58.074C116.385 58.0082 116.234 57.8908 116.234 57.6703C116.234 57.4355 116.38 57.2993 116.549 57.2336C116.455 57.1491 116.31 56.9426 116.31 56.6232C116.31 56.0834 116.741 55.7642 117.272 55.7642C117.432 55.7642 117.535 55.797 117.62 55.8204C117.783 55.8204 118.023 55.7361 118.023 55.3604L118.469 55.4543C118.469 55.8768 118.173 55.9941 117.976 56.0083C118.108 56.1162 118.234 56.3182 118.234 56.6232C118.234 57.1725 117.788 57.4824 117.277 57.4824C117.103 57.4824 116.962 57.4496 116.901 57.4355C116.774 57.4355 116.69 57.4872 116.69 57.6092C116.69 57.7454 116.817 57.7829 116.995 57.7829H117.629C118.098 57.7829 118.436 57.9895 118.436 58.4448C118.436 58.8627 118.126 59.2052 117.22 59.2052C116.465 59.2052 116.164 58.9894 116.164 58.6044ZM117.957 58.4965C117.957 58.29 117.821 58.2007 117.554 58.2007L117.051 58.2055C116.779 58.2055 116.643 58.3181 116.643 58.5293C116.643 58.7359 116.802 58.8393 117.253 58.8393C117.751 58.8393 117.957 58.7219 117.957 58.4965ZM117.756 56.6232C117.756 56.351 117.563 56.1681 117.277 56.1681C116.981 56.1681 116.798 56.3463 116.798 56.6232C116.798 56.9003 116.976 57.0786 117.272 57.0786C117.563 57.0786 117.756 56.9003 117.756 56.6232Z" fill="black"/>
<path d="M120.45 57.432L120.755 57.6759C120.601 57.9438 120.272 58.1409 119.868 58.1409C119.197 58.1409 118.793 57.6948 118.793 56.9672C118.793 56.2255 119.183 55.7559 119.845 55.7559C120.427 55.7559 120.755 56.141 120.755 56.7935C120.755 56.878 120.755 56.9342 120.751 57.0235H119.314C119.333 57.4835 119.539 57.7137 119.901 57.7137C120.169 57.7137 120.328 57.6057 120.45 57.432ZM119.333 56.6901H120.258C120.258 56.3849 120.117 56.1737 119.816 56.1737C119.511 56.1737 119.375 56.3757 119.333 56.6901Z" fill="black"/>
<path d="M124.273 57.5867V56.6807C124.273 56.4038 124.141 56.2065 123.85 56.2065C123.554 56.2065 123.381 56.4413 123.381 56.723V58.0798H122.864V56.6807C122.864 56.4038 122.733 56.2065 122.437 56.2065C122.108 56.2065 121.958 56.4694 121.958 56.7277V58.0798H121.446V56.4038C121.446 56.2535 121.39 56.1925 121.254 56.1925V55.8075C121.301 55.7981 121.395 55.784 121.484 55.784C121.723 55.784 121.878 55.9107 121.897 56.1595V56.1737C121.986 55.9624 122.202 55.7559 122.582 55.7559C122.953 55.7559 123.188 55.9202 123.291 56.1925C123.385 55.9671 123.629 55.7559 123.991 55.7559C124.564 55.7559 124.789 56.1454 124.789 56.6479V57.4788C124.789 57.629 124.845 57.6948 124.977 57.6948V58.0751C124.934 58.0892 124.841 58.0985 124.751 58.0985C124.427 58.0985 124.273 57.9153 124.273 57.5867Z" fill="black"/>
<path d="M127.103 57.432L127.408 57.6759C127.253 57.9438 126.924 58.1409 126.521 58.1409C125.849 58.1409 125.445 57.6948 125.445 56.9672C125.445 56.2255 125.835 55.7559 126.497 55.7559C127.079 55.7559 127.408 56.141 127.408 56.7935C127.408 56.878 127.408 56.9342 127.403 57.0235H125.967C125.985 57.4835 126.192 57.7137 126.553 57.7137C126.821 57.7137 126.981 57.6057 127.103 57.432ZM125.985 56.6901H126.91C126.91 56.3849 126.769 56.1737 126.469 56.1737C126.164 56.1737 126.028 56.3757 125.985 56.6901Z" fill="black"/>
<path d="M129.517 57.5867V56.6807C129.517 56.3755 129.362 56.2065 129.094 56.2065C128.808 56.2065 128.61 56.4178 128.61 56.7324V58.0798H128.099V56.4038C128.099 56.2535 128.042 56.1925 127.906 56.1925V55.8075C127.953 55.7981 128.042 55.784 128.141 55.784C128.394 55.784 128.536 55.9249 128.549 56.1595V56.169C128.662 55.9202 128.901 55.7559 129.239 55.7559C129.746 55.7559 130.033 56.0845 130.033 56.6479V57.4788C130.033 57.629 130.089 57.6948 130.225 57.6948V58.0751C130.183 58.0892 130.089 58.0985 129.996 58.0985C129.671 58.0985 129.517 57.9153 129.517 57.5867Z" fill="black"/>
<path d="M130.973 57.1769V56.2426H130.564V55.8154H130.992V55.1582H131.489V55.8154H132.306V56.2426H131.489V57.1535C131.489 57.4868 131.621 57.637 131.879 57.637C132.029 57.637 132.165 57.5713 132.255 57.5055L132.433 57.8905C132.297 58.0126 132.039 58.1065 131.809 58.1065C131.241 58.1065 130.973 57.8107 130.973 57.1769Z" fill="black"/>
<path d="M133.842 57.7325L134.147 57.3992C134.368 57.6667 134.598 57.7231 134.856 57.7231C135.17 57.7231 135.311 57.6386 135.311 57.4743C135.311 57.2771 135.086 57.2347 134.753 57.1644C134.368 57.0799 133.95 56.9486 133.95 56.4555C133.95 56.0377 134.288 55.7559 134.87 55.7559C135.424 55.7559 135.762 55.9909 135.762 56.4179C135.762 56.4836 135.748 56.5728 135.725 56.6339H135.264C135.274 56.5917 135.283 56.5213 135.283 56.4649C135.283 56.277 135.128 56.1691 134.861 56.1691C134.579 56.1691 134.448 56.2629 134.448 56.4461C134.448 56.6573 134.701 56.7043 135.039 56.7794C135.401 56.8546 135.804 56.972 135.804 57.4413C135.809 57.9062 135.438 58.1409 134.842 58.1409C134.448 58.1409 134.072 58.0283 133.842 57.7325Z" fill="black"/>
<path d="M136.146 59.1601L136.24 58.7376C136.301 58.7751 136.409 58.7987 136.489 58.7987C136.686 58.7987 136.789 58.7281 136.902 58.4324L137.029 58.0991L136.123 55.8174H136.672L137.212 57.3057L137.283 57.5358L137.343 57.3057L137.865 55.8174H138.395L137.339 58.6015C137.174 59.038 136.93 59.2399 136.531 59.2399C136.4 59.2399 136.24 59.2069 136.146 59.1601Z" fill="black"/>
<path d="M138.654 57.7325L138.959 57.3992C139.18 57.6667 139.41 57.7231 139.668 57.7231C139.983 57.7231 140.124 57.6386 140.124 57.4743C140.124 57.2771 139.899 57.2347 139.565 57.1644C139.18 57.0799 138.762 56.9486 138.762 56.4555C138.762 56.0377 139.1 55.7559 139.682 55.7559C140.236 55.7559 140.574 55.9909 140.574 56.4179C140.574 56.4836 140.56 56.5728 140.537 56.6339H140.077C140.086 56.5917 140.095 56.5213 140.095 56.4649C140.095 56.277 139.941 56.1691 139.673 56.1691C139.391 56.1691 139.26 56.2629 139.26 56.4461C139.26 56.6573 139.513 56.7043 139.852 56.7794C140.213 56.8546 140.617 56.972 140.617 57.4413C140.622 57.9062 140.25 58.1409 139.654 58.1409C139.26 58.1409 138.884 58.0283 138.654 57.7325Z" fill="black"/>
<path d="M141.406 57.1769V56.2426H140.998V55.8154H141.425V55.1582H141.923V55.8154H142.74V56.2426H141.923V57.1535C141.923 57.4868 142.054 57.637 142.312 57.637C142.463 57.637 142.599 57.5713 142.688 57.5055L142.866 57.8905C142.73 58.0126 142.472 58.1065 142.242 58.1065C141.674 58.1065 141.406 57.8107 141.406 57.1769Z" fill="black"/>
<path d="M144.843 57.432L145.148 57.6759C144.993 57.9438 144.664 58.1409 144.261 58.1409C143.59 58.1409 143.186 57.6948 143.186 56.9672C143.186 56.2255 143.575 55.7559 144.237 55.7559C144.819 55.7559 145.148 56.141 145.148 56.7935C145.148 56.878 145.148 56.9342 145.143 57.0235H143.707C143.726 57.4835 143.932 57.7137 144.294 57.7137C144.561 57.7137 144.721 57.6057 144.843 57.432ZM143.726 56.6901H144.65C144.65 56.3849 144.51 56.1737 144.209 56.1737C143.904 56.1737 143.768 56.3757 143.726 56.6901Z" fill="black"/>
<path d="M148.665 57.5867V56.6807C148.665 56.4038 148.534 56.2065 148.243 56.2065C147.947 56.2065 147.773 56.4413 147.773 56.723V58.0798H147.257V56.6807C147.257 56.4038 147.125 56.2065 146.83 56.2065C146.501 56.2065 146.351 56.4694 146.351 56.7277V58.0798H145.839V56.4038C145.839 56.2535 145.783 56.1925 145.646 56.1925V55.8075C145.693 55.7981 145.788 55.784 145.877 55.784C146.116 55.784 146.271 55.9107 146.29 56.1595V56.1737C146.379 55.9624 146.595 55.7559 146.975 55.7559C147.346 55.7559 147.581 55.9202 147.684 56.1925C147.778 55.9671 148.022 55.7559 148.384 55.7559C148.956 55.7559 149.182 56.1454 149.182 56.6479V57.4788C149.182 57.629 149.238 57.6948 149.369 57.6948V58.0751C149.327 58.0892 149.233 58.0985 149.144 58.0985C148.82 58.0985 148.665 57.9153 148.665 57.5867Z" fill="black"/>
<mask id="mask5_2940_59580" style="mask-type:luminance" maskUnits="userSpaceOnUse" x="43" y="21" width="41" height="36">
<path d="M59.9149 25.0548C57.7047 26.8413 55.9367 29.1619 54.7967 31.8067C54.429 32.6598 54.1259 33.5424 53.898 34.4572C53.5412 35.8466 53.3535 37.3007 53.3535 38.7921C53.3535 43.1514 54.9415 47.1429 57.5598 50.2251C57.5598 50.2251 57.5622 50.2279 57.5676 50.2331C57.6615 50.3459 57.7609 50.4586 57.8601 50.5712C58.3671 51.1426 57.9783 52.0359 57.2163 52.0359H44.6219C44.6189 52.8621 44.6165 53.6857 44.6165 54.5119C44.6165 55.8505 43.8196 56.3682 43.6211 56.4809C53.4797 56.4917 70.8356 56.4943 70.8356 56.4943C70.9133 56.4943 70.9832 56.4969 71.0582 56.4969C71.1414 56.4969 71.2301 56.4943 71.3104 56.4943H71.4312C71.442 56.4943 71.4551 56.4889 71.4631 56.4889C75.4871 56.3977 79.3767 54.9358 82.4565 52.339C83.3792 51.5612 83.6715 50.3218 83.2853 49.2568C83.1727 48.9483 83.0037 48.6532 82.7783 48.3958C82.7166 48.318 82.6442 48.2455 82.5717 48.1758C81.7776 47.4193 80.6134 47.2503 79.6262 47.6393C79.3393 47.7465 79.0684 47.9075 78.8243 48.1114C76.6486 49.9248 73.8964 50.9254 71.0582 50.9254C64.4271 50.9254 59.0243 45.571 58.9358 38.9611C58.933 38.9047 58.933 38.8512 58.933 38.7921C58.933 32.1099 64.3707 26.667 71.0582 26.667C72.7671 26.667 74.449 27.0264 75.9861 27.7187C77.0028 28.1693 77.9551 28.7567 78.8243 29.4783C79.5995 30.1276 80.6565 30.3125 81.5739 30.0042C81.9386 29.8861 82.2793 29.6876 82.5717 29.4114C82.6843 29.3067 82.7863 29.194 82.8776 29.0734C83.0547 28.848 83.1888 28.5958 83.2799 28.3355C83.6689 27.2652 83.3764 26.0233 82.4565 25.2507C79.9831 23.1689 76.9974 21.8116 73.8319 21.3154C72.9198 21.1679 71.9945 21.0928 71.0582 21.0928C66.8415 21.0928 62.965 22.5734 59.9149 25.0548Z" fill="white"/>
</mask>
<g mask="url(#mask5_2940_59580)">
<path d="M35.5879 54.5664L45.8034 12.002L91.7068 23.0189L81.4913 65.5833L35.5879 54.5664Z" fill="url(#paint5_linear_2940_59580)"/>
</g>
<mask id="mask6_2940_59580" style="mask-type:luminance" maskUnits="userSpaceOnUse" x="2" y="32" width="12" height="20">
<path d="M2.28906 42.0667C2.28906 47.2678 6.43354 51.5007 11.5982 51.6437C7.51449 50.517 4.48151 46.7318 4.45096 42.359C4.42372 37.8277 7.52985 34 11.7229 32.9189C12.3137 32.7605 12.9257 32.666 13.5562 32.6297C13.0081 32.5353 12.4445 32.4834 11.8692 32.4834C6.57968 32.4834 2.28906 36.774 2.28906 42.0667Z" fill="white"/>
</mask>
<g mask="url(#mask6_2940_59580)">
<path d="M-5.83398 47.1443L4.93482 27.708L21.6779 36.9847L10.9091 56.421L-5.83398 47.1443Z" fill="url(#paint6_linear_2940_59580)"/>
</g>
<mask id="mask7_2940_59580" style="mask-type:luminance" maskUnits="userSpaceOnUse" x="13" y="16" width="20" height="17">
<path d="M13.8477 26.3107C13.8477 28.6918 14.6697 30.8784 16.0494 32.608C16.2379 32.4618 16.3172 32.1908 16.1862 31.9441C15.8573 31.3199 15.5956 30.6589 15.4098 29.9708C15.2546 29.3953 15.154 28.8076 15.1083 28.1984C15.0899 27.9915 15.0779 27.7906 15.0747 27.5865C15.0686 27.3275 15.0779 27.0717 15.0899 26.8009C15.0929 26.7337 15.099 26.6729 15.1053 26.6059C15.3913 22.4614 18.3118 18.8985 22.3831 18.0154C23.839 17.6957 25.2213 17.6652 26.5276 17.9119C27.3102 18.0519 28.0716 18.3016 28.7751 18.6244C29.7525 19.0691 30.6449 19.675 31.4152 20.412C31.4637 20.4546 31.5126 20.5003 31.5584 20.5459C31.6832 20.677 31.8416 20.7196 31.9938 20.7072C32.067 20.7013 32.137 20.683 32.2009 20.6494C32.2374 20.6313 32.2711 20.6098 32.3013 20.5826C30.4773 17.9302 27.4231 16.1943 23.9636 16.1943C18.3757 16.1943 13.8477 20.7226 13.8477 26.3107Z" fill="white"/>
</mask>
<g mask="url(#mask7_2940_59580)">
<path d="M5.67969 23.6039L23.9723 7.0127L40.4689 25.2013L22.1762 41.7925L5.67969 23.6039Z" fill="url(#paint7_linear_2940_59580)"/>
</g>
<mask id="mask8_2940_59580" style="mask-type:luminance" maskUnits="userSpaceOnUse" x="33" y="3" width="28" height="19">
<path d="M33.7207 14.5994C35.8222 10.0408 40.4416 6.86759 45.7859 6.86759C50.5455 6.86759 54.7754 9.37083 57.1263 13.226C57.5281 13.9143 58.9745 16.7341 59.0813 21.6733C59.0874 21.9291 59.3766 22.0752 59.5898 21.9413C59.5989 21.9382 59.6079 21.9291 59.6172 21.923C59.7146 21.85 59.8211 21.7678 59.943 21.6794C60.3542 20.3822 60.5763 18.9998 60.5763 17.5653C60.5763 10.0589 54.492 3.97168 46.9858 3.97168C40.4995 3.97168 35.073 8.51826 33.7207 14.5994Z" fill="white"/>
</mask>
<g mask="url(#mask8_2940_59580)">
<path d="M67.0389 19.3619L37.7461 31.6604L27.2598 6.68421L56.5526 -5.61426L67.0389 19.3619Z" fill="url(#paint8_linear_2940_59580)"/>
</g>
<mask id="mask9_2940_59580" style="mask-type:luminance" maskUnits="userSpaceOnUse" x="57" y="24" width="25" height="28">
<path d="M57.3945 37.7318C57.3945 45.0921 63.3601 51.0575 70.7172 51.0575C74.146 51.0575 77.2706 49.7634 79.6274 47.6409C79.3382 47.7474 79.0671 47.9088 78.8235 48.1129C76.6492 49.9247 73.8965 50.9267 71.0584 50.9267C64.4258 50.9267 59.0236 45.5731 58.9354 38.9621C58.9324 38.9073 58.9324 38.8524 58.9324 38.7945C58.9324 32.1104 64.371 26.6687 71.0584 26.6687C72.7667 26.6687 74.4475 27.028 75.9852 27.7193C77.0025 28.1701 77.9558 28.7576 78.8235 29.4794C79.6 30.1279 80.6567 30.3138 81.5733 30.0062C79.1584 26.617 75.1966 24.4092 70.7172 24.4092C63.3601 24.4092 57.3945 30.3746 57.3945 37.7318Z" fill="white"/>
</mask>
<g mask="url(#mask9_2940_59580)">
<path d="M46.7676 45.7685L62.19 14.7646L92.199 29.6922L76.7766 60.6961L46.7676 45.7685Z" fill="url(#paint9_linear_2940_59580)"/>
</g>
<mask id="mask10_2940_59580" style="mask-type:luminance" maskUnits="userSpaceOnUse" x="0" y="0" width="66" height="57">
<path d="M27.5444 13.5806C26.6485 13.3927 25.7177 13.2989 24.7625 13.2989C24.0061 13.2989 23.2389 13.3606 22.4583 13.4732C15.4622 14.5248 10.3894 20.8235 10.6256 27.8946C10.6389 28.1254 10.6495 28.3561 10.6792 28.5921C4.55234 30.1346 0 35.6982 0 42.3026C0 50.1008 6.34409 56.4424 14.1318 56.4424H40.1632V56.4155C40.536 56.4207 40.9224 56.3296 41.2817 56.1176C41.3542 56.0747 42.3038 55.6001 42.3038 54.1487C42.3038 49.1619 42.4271 38.9869 42.4271 38.9869C41.5419 38.9789 40.6727 38.9735 39.8037 38.9655C39.2913 38.9628 38.779 38.9574 38.2637 38.9548C38.237 41.7125 38.1861 47.3162 38.1592 50.2001C38.1487 51.1148 38.272 51.866 37.5126 51.976C37.4482 51.9866 37.3787 51.992 37.3008 51.992H14.137C14.1049 51.992 14.078 51.9946 14.0459 51.9946V51.9786C13.9884 51.9775 13.9298 51.9779 13.8706 51.9781C13.7915 51.9786 13.7112 51.9791 13.63 51.976C13.5603 51.9733 13.4878 51.9704 13.4182 51.9597C12.7957 51.9142 12.1867 51.8068 11.5966 51.646C7.51373 50.5193 4.48268 46.7343 4.45038 42.3616C4.42366 37.8307 7.52997 34.0028 11.7226 32.9217C12.3128 32.7635 12.9246 32.6696 13.5551 32.632C13.7454 32.624 13.9359 32.616 14.1318 32.616C14.6412 32.616 15.1403 32.6535 15.6258 32.7286C15.7896 32.7501 15.9315 32.7125 16.0415 32.6214C16.0442 32.616 16.0471 32.6134 16.0496 32.6106C16.2374 32.4658 16.3178 32.1947 16.1865 31.9479C15.8591 31.3229 15.5963 30.6631 15.4112 29.9737C15.2555 29.3995 15.1537 28.8095 15.1081 28.2005C15.0919 27.9938 15.0786 27.7928 15.076 27.5887C15.0706 27.3314 15.0786 27.0738 15.0919 26.8028C15.0947 26.7358 15.0999 26.6768 15.1053 26.6096C15.3924 22.4653 18.3136 18.9027 22.3832 18.0175C23.8397 17.6982 25.2211 17.6688 26.5277 17.9155C27.3109 18.055 28.0729 18.3045 28.7755 18.6265C29.7522 19.0717 30.6454 19.6781 31.4154 20.4156C31.4636 20.4588 31.5146 20.5043 31.56 20.5499C31.6836 20.6812 31.8418 20.7215 31.9947 20.7107C32.0672 20.7055 32.1369 20.6868 32.2013 20.6519C32.2388 20.6356 32.2711 20.6143 32.3034 20.5846C32.3757 20.531 32.4319 20.4558 32.4669 20.362V20.3594C32.4883 20.303 32.499 20.2332 32.499 20.1663V20.1501C32.499 19.104 32.6278 18.0819 32.8557 17.1056C32.9444 16.762 33.0355 16.4107 33.1455 16.07C33.3091 15.5684 33.5024 15.0748 33.7222 14.5999C35.8227 10.0395 40.4421 6.86615 45.7857 6.86615C50.5446 6.86615 54.7748 9.36904 57.1275 13.2265C57.5274 13.9132 58.9758 16.7326 59.0804 21.6738C59.0885 21.9285 59.3781 22.0735 59.5901 21.9422C59.5983 21.9367 59.6089 21.9285 59.617 21.9233C59.7163 21.848 59.8207 21.7677 59.9443 21.6792C60.9394 20.9602 62.6966 19.8765 64.628 19.5627C65.1053 19.4822 65.4247 19.0262 65.3548 18.5486C65.1216 16.9015 64.4241 13.374 62.5275 10.3588C60.8348 7.45368 58.4178 5.05799 55.5395 3.3841C52.6609 1.7076 49.3213 0.760742 45.7857 0.760742C37.4002 0.760742 30.2432 6.11223 27.5444 13.5806Z" fill="white"/>
</mask>
<g mask="url(#mask10_2940_59580)">
<path d="M65.4247 0.760742H0V56.4424H65.4247V0.760742Z" fill="url(#paint10_linear_2940_59580)"/>
</g>
<mask id="mask11_2940_59580" style="mask-type:luminance" maskUnits="userSpaceOnUse" x="37" y="26" width="7" height="9">
<path d="M39.4304 26.6207C39.4009 26.9693 39.4278 27.3234 39.3473 27.6695C39.1594 28.458 38.7543 29.1234 38.1803 29.692C37.5658 30.301 37.2308 31.0387 37.2173 31.9053C37.2011 32.8547 37.5499 33.6514 38.1939 34.2685C38.8081 34.2739 39.4143 34.2767 40.0153 34.2847C40.8628 34.29 41.6998 34.298 42.5341 34.3034C42.6093 34.2283 42.6601 34.1854 42.7005 34.1344C43.7868 32.7744 43.9183 31.1166 43.0546 29.5847C42.451 28.5117 41.5764 27.6936 40.5759 27.0015C40.2191 26.7574 39.8435 26.5428 39.4466 26.2959C39.441 26.4328 39.4384 26.5267 39.4304 26.6207Z" fill="white"/>
</mask>
<g mask="url(#mask11_2940_59580)">
<path d="M34.4453 33.2041L38.1238 23.9844L46.6746 27.3959L42.9962 36.6156L34.4453 33.2041Z" fill="url(#paint11_linear_2940_59580)"/>
</g>
<mask id="mask12_2940_59580" style="mask-type:luminance" maskUnits="userSpaceOnUse" x="38" y="35" width="5" height="3">
<path d="M38.3242 37.5463C38.815 37.549 39.3058 37.5545 39.8049 37.5572C40.6767 37.5652 41.5618 37.5732 42.4552 37.5813C42.4417 36.9241 42.4311 36.2695 42.4177 35.6364C41.5565 35.6312 40.6875 35.6256 39.8049 35.6202C39.3033 35.6175 38.7991 35.6149 38.2891 35.6123C38.3027 36.2962 38.3135 36.951 38.3242 37.5463Z" fill="white"/>
</mask>
<g mask="url(#mask12_2940_59580)">
<path d="M37.3262 36.8096L39.9232 33.5791L43.4153 36.3865L40.8183 39.6169L37.3262 36.8096Z" fill="url(#paint12_linear_2940_59580)"/>
</g>
<mask id="mask13_2940_59580" style="mask-type:luminance" maskUnits="userSpaceOnUse" x="2" y="32" width="12" height="20">
<path d="M2.05859 42.1523C2.05859 47.3746 6.21983 51.6245 11.4053 51.7682C7.30515 50.637 4.25977 46.8365 4.22922 42.4458C4.20181 37.8962 7.32051 34.053 11.5306 32.9675C12.1239 32.8086 12.7383 32.7138 13.3714 32.6771C12.8209 32.5823 12.2552 32.5303 11.6775 32.5303C6.3665 32.5303 2.05859 36.8384 2.05859 42.1523Z" fill="white"/>
</mask>
<g mask="url(#mask13_2940_59580)">
<path d="M-6.09766 47.2496L4.71479 27.7344L21.526 37.0486L10.7135 56.5638L-6.09766 47.2496Z" fill="url(#paint13_linear_2940_59580)"/>
</g>
<mask id="mask14_2940_59580" style="mask-type:luminance" maskUnits="userSpaceOnUse" x="13" y="16" width="20" height="17">
<path d="M13.6641 26.3279C13.6641 28.7191 14.4896 30.9143 15.8745 32.6509C16.0641 32.5042 16.1436 32.232 16.0121 31.9844C15.6819 31.3574 15.419 30.6941 15.2325 30.003C15.0766 29.4251 14.9757 28.8352 14.9296 28.2237C14.9114 28.0158 14.8992 27.8139 14.896 27.6091C14.8901 27.3491 14.8992 27.0925 14.9114 26.8203C14.9144 26.7531 14.9205 26.6919 14.9266 26.6245C15.214 22.4633 18.1462 18.8859 22.2341 17.9991C23.6957 17.6782 25.0838 17.6477 26.3954 17.8954C27.1812 18.036 27.9456 18.2865 28.6519 18.6108C29.6333 19.0572 30.5292 19.6657 31.3028 20.4055C31.3516 20.4484 31.4006 20.4943 31.4465 20.5401C31.5719 20.6716 31.7308 20.7143 31.8836 20.7021C31.9572 20.696 32.0274 20.6777 32.0917 20.644C32.1284 20.6256 32.1619 20.6043 32.1924 20.5768C30.3611 17.9138 27.2944 16.1709 23.8209 16.1709C18.2106 16.1709 13.6641 20.7175 13.6641 26.3279Z" fill="white"/>
</mask>
<g mask="url(#mask14_2940_59580)">
<path d="M5.46289 23.6094L23.8296 6.95117L40.3928 25.2134L22.0261 41.8717L5.46289 23.6094Z" fill="url(#paint14_linear_2940_59580)"/>
</g>
<mask id="mask15_2940_59580" style="mask-type:luminance" maskUnits="userSpaceOnUse" x="33" y="3" width="28" height="19">
<path d="M33.6172 14.572C35.7269 9.9949 40.3651 6.80915 45.7311 6.80915C50.5099 6.80915 54.7569 9.32235 57.1173 13.1932C57.5208 13.8841 58.9731 16.7153 59.0801 21.6746C59.0863 21.9316 59.3766 22.0784 59.5908 21.9436C59.5999 21.9407 59.6092 21.9316 59.6183 21.9255C59.7162 21.8522 59.8231 21.7694 59.9455 21.6809C60.3582 20.3782 60.5814 18.9903 60.5814 17.55C60.5814 10.0132 54.4724 3.90137 46.9357 3.90137C40.4233 3.90137 34.9745 8.46628 33.6172 14.572Z" fill="white"/>
</mask>
<g mask="url(#mask15_2940_59580)">
<path d="M67.069 19.3518L37.6576 31.7001L27.1289 6.62264L56.5403 -5.72559L67.069 19.3518Z" fill="url(#paint15_linear_2940_59580)"/>
</g>
<mask id="mask16_2940_59580" style="mask-type:luminance" maskUnits="userSpaceOnUse" x="37" y="26" width="4" height="9">
<path d="M39.4304 26.6207C39.4009 26.9693 39.4278 27.3234 39.3473 27.6695C39.1594 28.458 38.7543 29.1234 38.1803 29.692C37.5658 30.301 37.2308 31.0387 37.2173 31.9053C37.2011 32.8547 37.5499 33.6515 38.1939 34.2685C38.8081 34.2739 39.4143 34.2767 40.0153 34.2847C39.9105 34.1264 39.7335 33.9628 39.4466 33.8018C38.1267 33.0615 38.6471 31.0038 39.4466 29.7189C40.246 28.4341 39.4466 26.2959 39.4466 26.2959C39.441 26.4328 39.4384 26.5267 39.4304 26.6207Z" fill="white"/>
</mask>
<g mask="url(#mask16_2940_59580)">
<path d="M36.707 34.2547L37.2123 26.1084L40.7391 26.327L40.2338 34.4733L36.707 34.2547Z" fill="url(#paint16_linear_2940_59580)"/>
</g>
<mask id="mask17_2940_59580" style="mask-type:luminance" maskUnits="userSpaceOnUse" x="38" y="35" width="2" height="3">
<path d="M38.3242 37.5463C38.815 37.549 39.3058 37.5545 39.8049 37.5572V35.6202C39.3033 35.6175 38.7991 35.6149 38.2891 35.6123C38.3027 36.2962 38.3135 36.951 38.3242 37.5463Z" fill="white"/>
</mask>
<g mask="url(#mask17_2940_59580)">
<path d="M39.8049 35.6123H38.2891V37.5572H39.8049V35.6123Z" fill="url(#paint17_linear_2940_59580)"/>
</g>
<mask id="mask18_2940_59580" style="mask-type:luminance" maskUnits="userSpaceOnUse" x="37" y="38" width="3" height="14">
<path d="M38.1602 50.1974C38.1497 51.1122 38.273 51.8633 37.5137 51.9733H37.5886C38.8125 51.9733 39.8048 50.981 39.8048 49.7571V38.9628C39.2923 38.9602 38.78 38.9548 38.2648 38.9521C38.2381 41.7098 38.1871 47.3136 38.1602 50.1974Z" fill="white"/>
</mask>
<g mask="url(#mask18_2940_59580)">
<path d="M39.8048 38.9521H37.5137V51.9733H39.8048V38.9521Z" fill="url(#paint18_linear_2940_59580)"/>
</g>
<defs>
<linearGradient id="paint0_linear_2940_59580" x1="117.974" y1="44.8932" x2="117.974" y2="32.3808" gradientUnits="userSpaceOnUse">
<stop stop-color="#F83600"/>
<stop offset="0.0751" stop-color="#F83600"/>
<stop offset="1" stop-color="#FE8C00"/>
</linearGradient>
<linearGradient id="paint1_linear_2940_59580" x1="142.734" y1="44.8833" x2="142.734" y2="32.3708" gradientUnits="userSpaceOnUse">
<stop stop-color="#F83600"/>
<stop offset="0.0751" stop-color="#F83600"/>
<stop offset="1" stop-color="#FE8C00"/>
</linearGradient>
<linearGradient id="paint2_linear_2940_59580" x1="103.872" y1="44.8856" x2="103.872" y2="32.3731" gradientUnits="userSpaceOnUse">
<stop stop-color="#F83600"/>
<stop offset="0.0751" stop-color="#F83600"/>
<stop offset="1" stop-color="#FE8C00"/>
</linearGradient>
<linearGradient id="paint3_linear_2940_59580" x1="130.404" y1="44.888" x2="130.404" y2="32.3756" gradientUnits="userSpaceOnUse">
<stop stop-color="#F83600"/>
<stop offset="0.0751" stop-color="#F83600"/>
<stop offset="1" stop-color="#FE8C00"/>
</linearGradient>
<linearGradient id="paint4_linear_2940_59580" x1="91.6541" y1="44.8844" x2="91.6541" y2="32.3719" gradientUnits="userSpaceOnUse">
<stop stop-color="#F83600"/>
<stop offset="0.0751" stop-color="#F83600"/>
<stop offset="1" stop-color="#FE8C00"/>
</linearGradient>
<linearGradient id="paint5_linear_2940_59580" x1="59.1975" y1="57.32" x2="65.4072" y2="31.4462" gradientUnits="userSpaceOnUse">
<stop stop-color="#F83600"/>
<stop offset="0.0751" stop-color="#F83600"/>
<stop offset="1" stop-color="#FE8C00"/>
</linearGradient>
<linearGradient id="paint6_linear_2940_59580" x1="6.43101" y1="44.7732" x2="11.1051" y2="36.3371" gradientUnits="userSpaceOnUse">
<stop stop-color="#0080D4"/>
<stop offset="0.0763" stop-color="#0080D4"/>
<stop offset="1" stop-color="#00B6F7"/>
</linearGradient>
<linearGradient id="paint7_linear_2940_59580" x1="20.0605" y1="27.1336" x2="24.9626" y2="22.6875" gradientUnits="userSpaceOnUse">
<stop stop-color="#0080D4"/>
<stop offset="0.0763" stop-color="#0080D4"/>
<stop offset="1" stop-color="#00B6F7"/>
</linearGradient>
<linearGradient id="paint8_linear_2940_59580" x1="58.4154" y1="8.29415" x2="43.4811" y2="14.5643" gradientUnits="userSpaceOnUse">
<stop stop-color="#00B6F7"/>
<stop offset="0.9237" stop-color="#0080D4"/>
<stop offset="1" stop-color="#0080D4"/>
</linearGradient>
<linearGradient id="paint9_linear_2940_59580" x1="67.9751" y1="40.7831" x2="73.5042" y2="29.6679" gradientUnits="userSpaceOnUse">
<stop stop-color="#F83600"/>
<stop offset="0.0751" stop-color="#F83600"/>
<stop offset="1" stop-color="#FE8C00"/>
</linearGradient>
<linearGradient id="paint10_linear_2940_59580" x1="1.00856e-05" y1="28.6126" x2="65.4233" y2="28.6126" gradientUnits="userSpaceOnUse">
<stop stop-color="#0080D4"/>
<stop offset="0.0763" stop-color="#0080D4"/>
<stop offset="1" stop-color="#00B6F7"/>
</linearGradient>
<linearGradient id="paint11_linear_2940_59580" x1="38.4563" y1="35.5719" x2="40.9305" y2="29.3701" gradientUnits="userSpaceOnUse">
<stop stop-color="#0080D4"/>
<stop offset="0.0763" stop-color="#0080D4"/>
<stop offset="1" stop-color="#00B6F7"/>
</linearGradient>
<linearGradient id="paint12_linear_2940_59580" x1="38.3306" y1="39.119" x2="40.9666" y2="35.8402" gradientUnits="userSpaceOnUse">
<stop stop-color="#0080D4"/>
<stop offset="0.0763" stop-color="#0080D4"/>
<stop offset="1" stop-color="#00B6F7"/>
</linearGradient>
<linearGradient id="paint13_linear_2940_59580" x1="6.21027" y1="44.8512" x2="10.9033" y2="36.3809" gradientUnits="userSpaceOnUse">
<stop stop-color="#0080D4"/>
<stop offset="0.0763" stop-color="#0080D4"/>
<stop offset="1" stop-color="#00B6F7"/>
</linearGradient>
<linearGradient id="paint14_linear_2940_59580" x1="19.9057" y1="27.1525" x2="24.8276" y2="22.6884" gradientUnits="userSpaceOnUse">
<stop stop-color="#0080D4"/>
<stop offset="0.0763" stop-color="#0080D4"/>
<stop offset="1" stop-color="#00B6F7"/>
</linearGradient>
<linearGradient id="paint15_linear_2940_59580" x1="58.4058" y1="8.244" x2="43.411" y2="14.5395" gradientUnits="userSpaceOnUse">
<stop stop-color="#00B6F7"/>
<stop offset="0.9237" stop-color="#0080D4"/>
<stop offset="1" stop-color="#0080D4"/>
</linearGradient>
<linearGradient id="paint16_linear_2940_59580" x1="38.5554" y1="33.0389" x2="38.7482" y2="29.93" gradientUnits="userSpaceOnUse">
<stop stop-color="#0080D4"/>
<stop offset="0.0763" stop-color="#0080D4"/>
<stop offset="1" stop-color="#00B6F7"/>
</linearGradient>
<linearGradient id="paint17_linear_2940_59580" x1="39.0482" y1="37.1503" x2="39.0482" y2="36.1381" gradientUnits="userSpaceOnUse">
<stop stop-color="#0080D4"/>
<stop offset="0.0763" stop-color="#0080D4"/>
<stop offset="1" stop-color="#00B6F7"/>
</linearGradient>
<linearGradient id="paint18_linear_2940_59580" x1="38.6506" y1="47.0074" x2="38.6506" y2="41.962" gradientUnits="userSpaceOnUse">
<stop stop-color="#0080D4"/>
<stop offset="0.0763" stop-color="#0080D4"/>
<stop offset="1" stop-color="#00B6F7"/>
</linearGradient>
</defs>
</svg>
