<svg width="200" height="174" viewBox="0 0 200 174" fill="none" xmlns="http://www.w3.org/2000/svg">
<g opacity="0.41">
<path d="M198.123 103.993C198.311 101.258 198.226 98.5117 197.862 95.7918C196.151 83.0121 188.399 70.9614 176.99 62.4586C172.919 59.4252 168.288 56.7076 165.639 52.7034C161.178 45.9601 161.516 38.2103 155.98 31.5523C150.437 24.8864 142.359 19.6881 133.25 17.0183C106.09 9.05821 68.0648 22.0189 71.4885 49.6968C71.5008 49.7962 71.5139 49.9405 71.5284 50.123C71.9837 55.8722 66.6486 60.7062 59.8588 60.8423C34.8 61.3454 13.2297 77.6866 8.61403 98.3863C5.64565 111.698 10.5061 126.289 22.0191 135.707C30.6132 142.736 42.1438 146.598 53.68 149.252C76.8108 154.572 101.152 155.687 125.001 153.653C147.326 151.748 170.875 146.32 185.313 131.793C193.016 124.043 197.428 114.105 198.123 103.993Z" fill="#D5FFC1"/>
</g>
<g opacity="0.31">
<path d="M85.5664 14.6637C88.5455 13.4825 89.9697 10.1912 88.7474 7.31223C87.5251 4.43331 84.1192 3.05702 81.1402 4.23822C78.1611 5.41941 76.7369 8.71078 77.9592 11.5897C79.1815 14.4686 82.5874 15.8449 85.5664 14.6637Z" fill="#D5FFC1"/>
</g>
<g opacity="0.31">
<path d="M162.129 8.92077C163.791 8.92077 165.138 7.61919 165.138 6.01361C165.138 4.40803 163.791 3.10645 162.129 3.10645C160.468 3.10645 159.121 4.40803 159.121 6.01361C159.121 7.61919 160.468 8.92077 162.129 8.92077Z" fill="#D5FFC1"/>
</g>
<g opacity="0.31">
<path d="M58.9512 24.653C60.4292 23.0441 60.2778 20.582 58.613 19.1536C56.9482 17.7252 54.4004 17.8716 52.9223 19.4804C51.4443 21.0893 51.5957 23.5515 53.2605 24.9798C54.9254 26.4082 57.4732 26.2619 58.9512 24.653Z" fill="#D5FFC1"/>
</g>
<g opacity="0.31">
<path d="M9.45376 161.214C14.5228 161.214 18.6321 157.243 18.6321 152.344C18.6321 147.446 14.5228 143.475 9.45376 143.475C4.38468 143.475 0.275391 147.446 0.275391 152.344C0.275391 157.243 4.38468 161.214 9.45376 161.214Z" fill="#D5FFC1"/>
</g>
<path opacity="0.47" d="M198.853 25.7013C201.47 20.7762 199.459 14.7339 194.362 12.2052C189.266 9.67694 179.472 9.86301 176.855 14.7881C174.239 19.7132 182.083 23.9402 185.281 28.533C189.742 34.939 196.236 30.6264 198.853 25.7013Z" fill="#E6FEDA"/>
<path opacity="0.47" d="M176.568 166.08C180.256 168.38 185.174 167.357 187.555 163.793C189.936 160.229 190.53 153 186.843 150.699C183.155 148.399 179.227 153.858 175.361 155.866C169.97 158.668 172.88 163.779 176.568 166.08Z" fill="#E6FEDA"/>
<path opacity="0.47" d="M26.0583 3.10296C22.0022 -0.537031 15.6611 -0.310273 11.8945 3.60946C8.12786 7.52919 5.74544 16.3804 9.80152 20.0204C13.8576 23.6604 19.9772 17.7155 25.2342 16.0421C32.5665 13.708 30.1144 6.74295 26.0583 3.10296Z" fill="#E6FEDA"/>
<path opacity="0.47" d="M3.70071 45.4154C0.0849741 53.0014 -0.90273 61.747 0.832331 69.923C2.87177 79.535 9.06422 86.9197 6.91557 97.1738C5.60682 103.42 5.27919 109.206 4.6156 115.386C3.25291 128.076 11.7787 139.257 22.3557 145.295C30.9463 150.199 41.0177 152.039 50.8943 151.908C59.7836 151.79 68.6572 150.204 77.271 148.071C85.5722 146.015 93.6883 143.307 102.39 144.161C109.626 144.872 116.144 147.895 122.883 150.15C138.973 155.532 158.463 156.291 173.176 148.098C182.619 142.839 189.228 134.299 192.159 125.118C194.501 117.78 194.799 110.919 193.043 103.428C191.24 95.7365 188.197 87.9831 189.142 79.969C189.8 74.3844 192.443 68.9944 191.959 63.3933C191.637 59.6715 189.942 56.1798 187.868 53.0285C180.297 41.5215 167.62 33.8173 154.211 29.5724C141.591 25.5777 128.577 22.6845 115.438 23.6458C88.2739 25.6328 82.7363 21.4634 54.9753 15.7254C37.0533 12.021 17.0058 25.2259 6.51821 40.5234C5.44805 42.0827 4.50903 43.72 3.70071 45.4154Z" fill="#E6FEDA"/>
<path opacity="0.58" d="M102.038 5.95426C103.128 5.95426 104.012 5.10033 104.012 4.04696C104.012 2.99358 103.128 2.13965 102.038 2.13965C100.948 2.13965 100.064 2.99358 100.064 4.04696C100.064 5.10033 100.948 5.95426 102.038 5.95426Z" fill="#FDBBA0"/>
<path opacity="0.58" d="M144.387 10.9337C145.234 10.9337 145.922 10.2696 145.922 9.45026C145.922 8.63097 145.234 7.9668 144.387 7.9668C143.539 7.9668 142.852 8.63097 142.852 9.45026C142.852 10.2696 143.539 10.9337 144.387 10.9337Z" fill="#FDBBA0"/>
<path opacity="0.58" d="M41.0954 25.5294C41.4587 25.5294 41.7533 25.2447 41.7533 24.8936C41.7533 24.5425 41.4587 24.2578 41.0954 24.2578C40.732 24.2578 40.4375 24.5425 40.4375 24.8936C40.4375 25.2447 40.732 25.5294 41.0954 25.5294Z" fill="#FDBBA0"/>
<path opacity="0.58" d="M198.219 43.9351C197.946 45.1723 196.687 45.9607 195.407 45.6966C194.126 45.4325 193.311 44.2153 193.584 42.9785C193.857 41.7413 195.117 40.9529 196.397 41.217C197.677 41.481 198.493 42.6979 198.219 43.9351Z" fill="#B7E3C0"/>
<path opacity="0.58" d="M35.5027 7.04002C35.3956 7.52532 34.9018 7.83431 34.3996 7.73089C33.8974 7.62747 33.5777 7.15022 33.6847 6.66491C33.7917 6.17961 34.2856 5.87063 34.7878 5.97404C35.2899 6.07746 35.6101 6.55471 35.5027 7.04002Z" fill="#B7E3C0"/>
<path opacity="0.58" d="M183.641 3.26697C183.55 3.67937 183.13 3.94215 182.703 3.85399C182.276 3.76583 182.005 3.36021 182.096 2.94781C182.187 2.53541 182.607 2.27262 183.033 2.36078C183.46 2.44894 183.732 2.85456 183.641 3.26697Z" fill="#FDBBA0"/>
<path opacity="0.58" d="M193.212 142.603C194.302 142.603 195.186 141.749 195.186 140.695C195.186 139.642 194.302 138.788 193.212 138.788C192.122 138.788 191.238 139.642 191.238 140.695C191.238 141.749 192.122 142.603 193.212 142.603Z" fill="#FDBBA0"/>
<path opacity="0.58" d="M30.7393 160.193C31.8293 160.193 32.7129 159.339 32.7129 158.285C32.7129 157.232 31.8293 156.378 30.7393 156.378C29.6493 156.378 28.7656 157.232 28.7656 158.285C28.7656 159.339 29.6493 160.193 30.7393 160.193Z" fill="#FDBBA0"/>
<path opacity="0.58" d="M155.312 167.79C156.16 167.79 156.847 167.126 156.847 166.307C156.847 165.487 156.16 164.823 155.312 164.823C154.465 164.823 153.777 165.487 153.777 166.307C153.777 167.126 154.465 167.79 155.312 167.79Z" fill="#B7E3C0"/>
<path opacity="0.58" d="M2.24904 136.478C3.33906 136.478 4.2227 135.624 4.2227 134.57C4.2227 133.517 3.33906 132.663 2.24904 132.663C1.15903 132.663 0.275391 133.517 0.275391 134.57C0.275391 135.624 1.15903 136.478 2.24904 136.478Z" fill="#B7E3C0"/>
<path opacity="0.58" d="M16.5159 173.36C16.4247 173.772 16.0049 174.035 15.5782 173.947C15.1514 173.859 14.8795 173.453 14.9707 173.041C15.062 172.628 15.4817 172.365 15.9085 172.454C16.3352 172.542 16.6071 172.947 16.5159 173.36Z" fill="#FDBBA0"/>
<rect x="57.2617" y="38.3213" width="92.4768" height="92.4768" rx="46.2384" fill="#5DE11D"/>
<path d="M71.1228 39.1598C69.509 39.5718 67.5176 40.1784 66.3159 41.3916C64.8509 42.868 64.313 45.1227 63.8437 47.3659C63.7979 47.5834 63.5003 47.5834 63.4546 47.3659C63.0654 45.5691 62.5733 43.4059 61.5318 42.0668C60.2041 40.373 58.1669 39.6748 56.1526 39.1598C55.9465 39.1025 55.9465 38.8164 56.1526 38.7706C57.9037 38.3243 59.918 37.7291 61.177 36.3443C62.4817 34.9022 63.0082 32.6475 63.4546 30.5645C63.5003 30.347 63.7979 30.347 63.8437 30.5645C64.2557 32.5216 64.9768 34.7534 66.1556 36.1497C67.4489 37.6719 69.2687 38.2899 71.1228 38.7706C71.3403 38.8164 71.3403 39.114 71.1228 39.1598Z" fill="#89D918"/>
<path d="M39.6256 79.3647C37.3137 79.9598 34.4639 80.8182 32.7471 82.5464C30.6526 84.6638 29.8858 87.8799 29.2105 91.0845C29.1419 91.3935 28.7184 91.3935 28.6497 91.0845C28.1003 88.5094 27.3907 85.4306 25.9029 83.5193C24.0144 81.0929 21.0959 80.0972 18.2232 79.3647C17.9256 79.2846 17.9256 78.8725 18.2232 78.8039C20.7297 78.1629 23.6024 77.3046 25.3993 75.336C27.2648 73.2759 28.0202 70.0598 28.6612 67.0726C28.7298 66.7636 29.1533 66.7636 29.222 67.0726C29.8171 69.8766 30.8357 73.0584 32.5296 75.0499C34.3723 77.213 36.9703 78.1057 39.6371 78.7924C39.9232 78.884 39.9232 79.2846 39.6256 79.3647Z" fill="#89D918"/>
<path d="M157.923 56.1385C157.145 56.3445 156.172 56.6307 155.588 57.2144C154.879 57.9354 154.615 59.0227 154.386 60.11C154.364 60.213 154.215 60.213 154.203 60.11C154.02 59.2402 153.78 58.1872 153.265 57.5463C152.624 56.7222 151.628 56.3789 150.655 56.1385C150.552 56.1156 150.552 55.9783 150.655 55.944C151.502 55.7265 152.487 55.4404 153.093 54.7651C153.723 54.067 153.986 52.9682 154.203 51.961C154.226 51.858 154.375 51.858 154.386 51.961C154.593 52.911 154.936 53.9868 155.508 54.6735C156.138 55.406 157.019 55.7151 157.923 55.944C158.026 55.9783 158.026 56.1156 157.923 56.1385Z" fill="#89D918"/>
<path d="M156.941 124.72C156.162 124.926 155.19 125.212 154.606 125.795C153.896 126.516 153.633 127.604 153.404 128.691C153.381 128.794 153.232 128.794 153.221 128.691C153.038 127.821 152.797 126.768 152.282 126.127C151.642 125.303 150.646 124.96 149.673 124.72C149.57 124.697 149.57 124.559 149.673 124.525C150.52 124.308 151.504 124.021 152.111 123.346C152.74 122.648 153.003 121.549 153.221 120.542C153.244 120.439 153.393 120.439 153.404 120.542C153.61 121.492 153.953 122.568 154.526 123.255C155.155 123.987 156.036 124.296 156.941 124.525C157.044 124.559 157.044 124.697 156.941 124.72Z" fill="#89D918"/>
<path d="M68.2863 139.936C67.5081 140.142 66.5352 140.429 65.9515 141.012C65.2419 141.733 64.9787 142.821 64.7498 143.908C64.7269 144.011 64.5781 144.011 64.5667 143.908C64.3835 143.038 64.1432 141.985 63.6282 141.344C62.9872 140.52 61.9915 140.177 61.0187 139.936C60.9157 139.913 60.9157 139.776 61.0187 139.742C61.8656 139.524 62.8499 139.238 63.4565 138.563C64.086 137.865 64.3492 136.766 64.5667 135.759C64.5895 135.656 64.7383 135.656 64.7498 135.759C64.9558 136.709 65.2991 137.785 65.8714 138.471C66.5009 139.204 67.3822 139.513 68.2863 139.742C68.3893 139.776 68.3893 139.913 68.2863 139.936Z" fill="#89D918"/>
<path d="M103.535 131.081C78.0235 131.081 57.2734 110.331 57.2734 84.8199C57.2734 59.3087 78.0235 38.5586 103.535 38.5586C129.046 38.5586 149.796 59.3087 149.796 84.8199C149.796 110.331 129.046 131.081 103.535 131.081ZM103.535 41.6259C79.7174 41.6259 60.3407 61.0025 60.3407 84.8199C60.3407 108.637 79.7174 128.014 103.535 128.014C127.352 128.014 146.729 108.637 146.729 84.8199C146.729 61.0025 127.352 41.6259 103.535 41.6259Z" fill="#49C00F"/>
<path d="M127.913 62.4047C125.247 59.6808 119.639 59.1772 117.041 62.4047C112.566 67.9556 108.102 73.5065 103.627 79.0574C101.498 81.7013 99.3693 84.3451 97.2405 86.9889C96.4851 87.9274 95.5809 89.3352 94.6081 90.6399C94.4135 90.4453 94.219 90.2508 94.0358 90.0448C92.5937 88.5569 91.1402 87.069 89.6981 85.5926C82.7852 78.4852 71.9238 89.3695 78.8252 96.4655C82.3961 100.128 86.0357 105.255 90.8655 107.19C96.1646 109.307 100.869 106.755 104.279 102.623C112.268 92.929 120.039 83.0632 127.913 73.2891C130.534 70.0272 131.038 65.5979 127.913 62.4047Z" fill="white"/>
<path d="M116.731 44.0908C106.614 39.7645 78.7907 38.7116 64.6445 66.3058C77.9438 50.3284 92.3532 42.271 116.731 44.0908Z" fill="#88F255"/>
<path d="M94.2529 126.793C117.75 125.099 134.013 111.342 145.252 94.7578C143.433 105.093 136.451 114.592 127.982 120.429C119.512 126.266 106.373 129.826 94.127 126.793" fill="#53DA11"/>
</svg>
