<svg width="120" height="110" viewBox="0 0 120 110" fill="none" xmlns="http://www.w3.org/2000/svg">
<path d="M112.352 49.7956C112.352 49.7956 107.91 48.6441 108.519 46.2272C109.093 43.9333 112.047 46.1453 110.863 47.4425C109.148 49.3314 105.952 46.6232 105.889 44.707" stroke="#DD7619" stroke-width="1.2" stroke-miterlimit="10"/>
<path d="M92.714 25.8758L89.6484 25.2598L89.3606 26.6922L92.4262 27.3082L92.714 25.8758Z" fill="#48E54B"/>
<path d="M100.885 66.6575L95.9941 65.6748L95.5351 67.9595L100.426 68.9422L100.885 66.6575Z" fill="#FCE435"/>
<path d="M72.5255 11.5996C72.3708 11.5996 68.543 14.1894 68.543 14.1894L69.3941 15.614L72.5255 13.6068V11.5996Z" fill="#CF64E8"/>
<path d="M96.3339 0.87207L92.7109 2.55157L93.1115 3.97619L96.7345 2.42413L96.3339 0.87207Z" fill="#DD7619"/>
<path d="M25.5225 33.5244H22.7051V35.1766H25.5225V33.5244Z" fill="#DD7619"/>
<path d="M58.1889 1.75L56.7324 3.40219L60.0323 5.89641L61.2976 4.3398L58.1889 1.75Z" fill="#37B0B5"/>
<path d="M94.6194 77.6699L92.3027 79.4905L93.8411 81.0289L96.3354 79.4905L94.6194 77.6699Z" fill="#008EC6"/>
<path d="M116.647 36.2365L119.713 36.8525L120.001 35.4201L116.935 34.8041L116.647 36.2365Z" fill="#48E54B"/>
<path d="M81.7345 86.2805L85.002 90.0498L86.7628 88.5234L83.4953 84.7541L81.7345 86.2805Z" fill="#FCE435"/>
<path d="M115.191 70.6008L116.647 68.9532L113.347 66.459L112.082 68.011L115.191 70.6008Z" fill="#37B0B5"/>
<path d="M26.5738 13.3806L27.1837 12.1744L24.0113 9.82129L23.1465 10.5723L26.5738 13.3806Z" fill="#CF64E8"/>
<path d="M13.4883 99.3146L62.4533 80.6672L32.1358 50.3496L13.4883 99.3146Z" fill="#F2ABF4"/>
<path d="M51.3266 61.4765C42.9548 53.1047 34.3627 48.1234 32.1355 50.3506C29.9084 52.5777 34.8896 61.1699 43.2614 69.5417C51.6332 77.9135 60.2254 82.8947 62.4525 80.6676C64.6797 78.4404 59.6984 69.8483 51.3266 61.4765Z" fill="#9F52AA"/>
<path d="M33.2278 84.0124C36.7825 85.701 40.2872 86.9936 43.5415 87.872L39.7319 89.324C37.0101 88.4865 34.1472 87.3714 31.2525 85.9968C27.3291 84.1307 23.8199 82.0006 20.916 79.8113L21.9492 77.0986C25.0169 79.5382 28.8675 81.9369 33.2278 84.0124Z" fill="#9057EA"/>
<path d="M39.3003 77.9181C45.4448 80.8401 51.4528 82.5743 56.2365 83.0203L51.8625 84.6861C47.5385 83.967 42.4773 82.3512 37.3159 79.898C31.9906 77.3628 27.4255 74.3451 24.1074 71.3548L25.1816 68.5283C28.5542 71.7917 33.4744 75.1462 39.3003 77.9181Z" fill="#9057EA"/>
<path d="M20.9387 96.3203C21.007 96.3522 21.0752 96.3841 21.139 96.4159L17.7435 97.7086C16.7013 97.1851 15.6908 96.6481 14.7168 96.0928L15.6908 93.5303C17.3385 94.5043 19.0908 95.4419 20.9387 96.3203Z" fill="#9057EA"/>
<path d="M27.3148 89.8617C29.0444 90.6855 30.7648 91.4138 32.4534 92.0464L28.8851 93.4073C27.7108 92.9294 26.5274 92.4105 25.3349 91.8416C22.6313 90.5535 20.1234 89.1426 17.875 87.6724L18.8763 85.0371C21.366 86.7439 24.2107 88.3825 27.3148 89.8617Z" fill="#9057EA"/>
<path d="M45.8355 72.0049C43.6462 71.3631 41.3887 70.5347 39.1266 69.5152C34.5933 67.4716 30.6471 64.9546 27.584 62.3011L28.5671 59.7158C31.735 62.647 35.9906 65.4553 40.9517 67.6855C41.243 67.8175 41.5298 67.9404 41.8211 68.0678C42.2899 68.5594 42.7678 69.0509 43.2593 69.5425C44.1196 70.4027 44.9798 71.222 45.8355 72.0049Z" fill="#9057EA"/>
<path d="M33.3828 12.2506C33.3828 12.2506 33.4875 11.5132 36.5689 12.3416C39.6502 13.17 43.4462 15.4093 42.3447 18.3541C42.3447 18.3541 40.4741 14.5263 36.9011 13.8072" fill="#EA4949"/>
<path d="M42.0664 5.58726C42.0664 5.58726 41.5566 4.22181 35.6215 6.05606L35.4121 7.0665C35.4121 7.0665 39.4402 6.11068 41.32 6.96181" fill="#EA4949"/>
<path d="M42.6087 11.6002C42.6087 11.6002 42.4358 9.77501 35.4355 9.5702L35.918 8.3686C35.918 8.3686 42.7498 8.25026 43.2505 10.1801L42.6087 11.6002Z" fill="#EA4949"/>
<path d="M43.3099 10.0156C43.278 10.671 43.2097 11.1717 43.2097 11.4721C43.2006 13.3018 39.96 14.3487 38.0347 14.4169C37.0015 14.4533 35.9319 14.4169 34.9215 14.1529C34.4208 14.0209 33.8564 13.8707 33.4468 13.5476C33.1873 13.3473 33.1509 13.2973 33.1737 12.9695C33.1782 12.9195 33.4104 12.2504 33.383 12.2413C33.383 12.2413 36.469 13.4338 39.6186 12.5144C42.1583 11.7862 42.9321 10.8895 43.3099 10.0156Z" fill="#FF6A6A"/>
<path d="M34.584 8.29684L34.807 9.68504C34.807 9.68504 37.2239 10.477 42.1668 7.50487L42.0849 5.45215C42.0849 5.45215 39.973 7.38654 34.584 8.29684Z" fill="#FF6A6A"/>
<path d="M38.7541 5.8203L38.5629 4.02246C38.5629 4.02246 37.9211 4.8918 36.624 5.36515C35.3313 5.83851 35.2949 5.77024 35.2949 5.77024L35.3723 7.1721C35.3769 7.1721 37.0655 6.94907 38.7541 5.8203Z" fill="#FF6A6A"/>
<path d="M42.6312 16.8574L42.4218 18.4049C42.4218 18.4049 41.6708 19.7795 39.2949 19.1787L39.5407 17.8815C39.5362 17.8815 42.349 18.4413 42.6312 16.8574Z" fill="#FF6A6A"/>
<path d="M69.6297 56.0586C69.6297 56.0586 70.0849 55.4715 67.354 53.8284C64.6185 52.1807 60.372 51.0019 59.0156 53.8375C59.0156 53.8375 63.071 52.5312 66.0659 54.6067" fill="#EA4949"/>
<path d="M68.405 45.1803C68.405 45.1803 69.7431 44.6023 72.5378 50.146L71.9552 50.9971C71.9552 50.9971 69.8524 47.4287 67.9316 46.6686" fill="#EA4949"/>
<path d="M63.6953 48.9586C63.6953 48.9586 65.129 47.8207 70.1311 52.7182L70.6591 51.5348C70.6591 51.5348 66.0029 46.5281 64.2642 47.5067L63.6953 48.9586Z" fill="#EA4949"/>
<path d="M64.3499 47.3604C63.9038 47.8383 63.5852 48.2342 63.3713 48.4436C62.0605 49.718 63.5533 52.7812 64.8369 54.2149C65.5287 54.9841 66.2979 55.7306 67.1854 56.2767C67.6269 56.5453 68.1276 56.8457 68.6465 56.9231C68.9696 56.9686 69.0334 56.964 69.2518 56.7182C69.2837 56.6818 69.6068 56.0537 69.6296 56.0628C69.6296 56.0628 66.6302 54.6701 65.1054 51.7616C63.8765 49.4131 63.9812 48.2342 64.3499 47.3604Z" fill="#FF6A6A"/>
<path d="M71.6412 52.4496L70.4851 53.2507C70.4851 53.2507 68.2366 52.0582 66.9531 46.4371L68.487 45.0762C68.487 45.0716 68.5598 47.9345 71.6412 52.4496Z" fill="#FF6A6A"/>
<path d="M70.5312 47.7297L71.9604 46.6191C71.9604 46.6191 71.7829 47.6842 72.3382 48.945C72.8935 50.2057 72.9708 50.183 72.9708 50.183L71.9058 51.0978C71.9012 51.1024 70.8908 49.7278 70.5312 47.7297Z" fill="#FF6A6A"/>
<path d="M59.8943 52.5908L58.9203 53.8152C58.9203 53.8152 58.4515 55.3081 60.5315 56.6052L61.2961 55.5265C61.3007 55.5311 58.9476 53.8925 59.8943 52.5908Z" fill="#FF6A6A"/>
<path d="M106.06 26.7425C106.06 26.7425 106.525 26.3374 104.208 25.9505C101.891 25.5637 98.1635 25.7139 96.6797 27.5163C96.6797 27.5163 100.462 26.0416 102.974 26.6196" fill="#C67F4A"/>
<path d="M105.943 21.0299C105.943 21.0299 108.928 19.1819 110.949 21.6853L110.349 22.2588C110.349 22.2588 109.334 19.8556 105.383 21.9311" fill="#C67F4A"/>
<path d="M101.35 23.9743C101.35 23.9743 102.747 23.0822 106.821 24.8208L107.408 24.0789C107.408 24.0789 103.657 22.2174 102 23.0776L101.35 23.9743Z" fill="#C67F4A"/>
<path d="M102.087 22.9785C101.641 23.3244 101.317 23.5975 101.103 23.7523C99.8017 24.6944 100.876 26.0872 101.905 26.6288C102.46 26.9201 103.083 27.1841 103.839 27.3161C104.212 27.3798 104.635 27.4526 105.1 27.3935C105.386 27.3571 105.446 27.3434 105.664 27.1704C105.7 27.1431 106.046 26.7381 106.065 26.7426C106.065 26.7426 103.484 26.5423 102.369 25.2406C101.472 24.1892 101.672 23.5247 102.087 22.9785Z" fill="#FF9522"/>
<path d="M108.208 24.3934L107.093 25.0443C107.093 25.0443 105.172 24.8122 104.521 21.9857L106.033 20.957C106.028 20.957 105.832 22.5045 108.208 24.3934Z" fill="#FF9522"/>
<path d="M47.3378 34.5264H43.1777L44.17 42.0727H45.8859L47.3378 34.5264Z" fill="#31BBC2"/>
<path d="M90.9222 34.125L88.6237 31.8311L85.0098 36.5419L85.9565 37.4886L90.9222 34.125Z" fill="#FCC300"/>
<path d="M82.1703 49.209L81.1325 46.1367L75.8027 48.7629L76.2306 50.0283L82.1703 49.209Z" fill="#21CCFF"/>
<path d="M104.577 39.4274L103.535 36.3506L98.2051 38.9768L98.6329 40.2421L104.577 39.4274Z" fill="#F92828"/>
<path d="M59.9446 74.5705L59.4303 71.3662L53.7363 73.0594L53.9457 74.3793L59.9446 74.5705Z" fill="#F92828"/>
<path d="M92.4622 58.5431L91.9478 55.3389L86.2539 57.032L86.4633 58.352L92.4622 58.5431Z" fill="#71C405"/>
<path d="M40.5922 55.1221L37.3516 55.2677L38.3893 61.1164L39.7229 61.0572L40.5922 55.1221Z" fill="#A9FF39"/>
<path d="M52.289 52.5721L49.1075 51.9258L48.6934 57.8518L50.0042 58.1204L52.289 52.5721Z" fill="#FF9900"/>
<path d="M80.668 20.7666C80.668 20.7666 79.7986 22.4689 80.668 24.3577C81.5373 26.2466 79.9443 26.7245 79.0704 27.7896C78.2011 28.8546 80.3767 30.8709 79.0704 31.895C77.7641 32.9191 76.3122 32.7735 77.4728 35.823" stroke="#FF3E55" stroke-width="1.2" stroke-miterlimit="10" stroke-linecap="round"/>
<path d="M49.4766 14.4219C49.4766 14.4219 48.6072 16.1241 49.4766 18.013C50.3459 19.9019 48.7529 20.3798 47.879 21.4448C47.0097 22.5099 49.1853 24.5262 47.879 25.5503C46.5727 26.5744 45.1208 26.4287 46.2814 29.4782" stroke="#2BBBF3" stroke-width="1.2" stroke-miterlimit="10" stroke-linecap="round"/>
<path d="M65.3848 68.2898C65.3848 68.2898 67.1234 69.0908 68.9713 68.1441C70.8193 67.1974 71.3654 68.7722 72.4669 69.6006C73.5684 70.4289 75.4936 68.1714 76.5678 69.4322C77.6465 70.6975 77.56 72.1494 80.5549 70.8659" stroke="#FF4859" stroke-width="1.2" stroke-miterlimit="10" stroke-linecap="round"/>
<path d="M94.3184 50.6071C94.3184 50.6071 96.057 51.4082 97.9049 50.4615C99.7529 49.5148 100.299 51.0896 101.4 51.918C102.502 52.7463 104.427 50.4888 105.501 51.7495C106.58 53.0149 106.494 54.4668 109.489 53.1833" stroke="#A9FF39" stroke-width="1.2" stroke-miterlimit="10" stroke-linecap="round"/>
<path d="M31.3613 39.4102C31.3613 39.4102 31.5388 41.3127 33.2866 42.4369C35.0344 43.5611 33.9466 44.8219 33.7827 46.1919C33.6189 47.5573 36.5409 48.0899 35.9857 49.6556C35.4349 51.2213 34.1332 51.8767 36.7458 53.8248" stroke="#AEFF45" stroke-width="1.2" stroke-miterlimit="10" stroke-linecap="round"/>
<path d="M56.4 28.8828C56.4 28.8828 55.5989 30.6215 56.5456 32.4694C57.4924 34.3173 55.9175 34.8635 55.0937 35.9649C54.2653 37.0664 56.5274 38.9917 55.2621 40.0658C54.0014 41.1445 52.5449 41.0581 53.8284 44.0575" stroke="#8568FF" stroke-width="1.2" stroke-miterlimit="10" stroke-linecap="round"/>
<path d="M64.3373 37.2918C65.1493 37.2918 65.8075 36.6336 65.8075 35.8217C65.8075 35.0098 65.1493 34.3516 64.3373 34.3516C63.5254 34.3516 62.8672 35.0098 62.8672 35.8217C62.8672 36.6336 63.5254 37.2918 64.3373 37.2918Z" fill="#FF9900"/>
<path d="M80.558 63.8514C81.37 63.8514 82.0282 63.1932 82.0282 62.3813C82.0282 61.5693 81.37 60.9111 80.558 60.9111C79.7461 60.9111 79.0879 61.5693 79.0879 62.3813C79.0879 63.1932 79.7461 63.8514 80.558 63.8514Z" fill="#FF9900"/>
<path d="M48.6947 66.5682C49.5067 66.5682 50.1649 65.91 50.1649 65.0981C50.1649 64.2861 49.5067 63.6279 48.6947 63.6279C47.8828 63.6279 47.2246 64.2861 47.2246 65.0981C47.2246 65.91 47.8828 66.5682 48.6947 66.5682Z" fill="#31BBC2"/>
<path d="M31.3627 26.5194C32.1746 26.5194 32.8328 25.8612 32.8328 25.0492C32.8328 24.2373 32.1746 23.5791 31.3627 23.5791C30.5508 23.5791 29.8926 24.2373 29.8926 25.0492C29.8926 25.8612 30.5508 26.5194 31.3627 26.5194Z" fill="#FFE500"/>
<path d="M86.3432 18.0819C87.1551 18.0819 87.8133 17.4237 87.8133 16.6117C87.8133 15.7998 87.1551 15.1416 86.3432 15.1416C85.5313 15.1416 84.873 15.7998 84.873 16.6117C84.873 17.4237 85.5313 18.0819 86.3432 18.0819Z" fill="#21CCFF"/>
<path d="M59.9461 68.7662C60.7479 68.7662 61.398 68.1161 61.398 67.3142C61.398 66.5124 60.7479 65.8623 59.9461 65.8623C59.1442 65.8623 58.4941 66.5124 58.4941 67.3142C58.4941 68.1161 59.1442 68.7662 59.9461 68.7662Z" fill="#7861FF"/>
<path d="M70.6635 80.8201C71.4754 80.8201 72.1336 80.162 72.1336 79.35C72.1336 78.5381 71.4754 77.8799 70.6635 77.8799C69.8516 77.8799 69.1934 78.5381 69.1934 79.35C69.1934 80.162 69.8516 80.8201 70.6635 80.8201Z" fill="#21CCFF"/>
<path d="M38.2354 40.5294C38.6426 40.5294 38.9727 40.1993 38.9727 39.792C38.9727 39.3848 38.6426 39.0547 38.2354 39.0547C37.8282 39.0547 37.498 39.3848 37.498 39.792C37.498 40.1993 37.8282 40.5294 38.2354 40.5294Z" fill="#FF9B17"/>
<path d="M62.1299 61.6485C62.5371 61.6485 62.8673 61.3184 62.8673 60.9112C62.8673 60.5039 62.5371 60.1738 62.1299 60.1738C61.7227 60.1738 61.3926 60.5039 61.3926 60.9112C61.3926 61.3184 61.7227 61.6485 62.1299 61.6485Z" fill="#FF6A6A"/>
<path d="M59.0127 19.6973C59.42 19.6973 59.7501 19.3672 59.7501 18.96C59.7501 18.5528 59.42 18.2227 59.0127 18.2227C58.6055 18.2227 58.2754 18.5528 58.2754 18.96C58.2754 19.3672 58.6055 19.6973 59.0127 19.6973Z" fill="#F92828"/>
<mask id="mask0_2940_65687" style="mask-type:luminance" maskUnits="userSpaceOnUse" x="0" y="101" width="34" height="8">
<path d="M16.9376 108.625C26.2358 108.625 33.7736 106.935 33.7736 104.851C33.7736 102.767 26.2358 101.078 16.9376 101.078C7.6393 101.078 0.101562 102.767 0.101562 104.851C0.101562 106.935 7.6393 108.625 16.9376 108.625Z" fill="white"/>
</mask>
<g mask="url(#mask0_2940_65687)">
<path d="M33.7736 101.079H0.101562V108.625H33.7736V101.079Z" fill="white"/>
</g>
<mask id="mask1_2940_65687" style="mask-type:luminance" maskUnits="userSpaceOnUse" x="0" y="101" width="34" height="8">
<path d="M16.9376 108.625C26.2358 108.625 33.7736 106.935 33.7736 104.851C33.7736 102.767 26.2358 101.078 16.9376 101.078C7.6393 101.078 0.101562 102.767 0.101562 104.851C0.101562 106.935 7.6393 108.625 16.9376 108.625Z" fill="white"/>
</mask>
<g mask="url(#mask1_2940_65687)">
<path d="M0.0557538 104.269V106.394V107.241H-0.0398294C0.0466491 107.277 0.133127 107.318 0.224157 107.355C0.938742 107.66 1.74891 107.946 2.65011 108.215C3.5513 108.483 4.53898 108.729 5.59948 108.952V108.67H32.3122V108.697C32.7264 108.579 33.1133 108.451 33.4774 108.319C33.6595 108.256 33.837 108.187 34.0054 108.119H33.8188V102.466H33.9144C33.8279 102.43 33.7414 102.389 33.6504 102.352C32.9358 102.048 32.1256 101.761 31.2244 101.492C30.3232 101.224 29.3355 100.978 28.275 100.755V101.037H1.5623V101.01C1.14811 101.128 0.761236 101.256 0.397116 101.388C0.215056 101.451 0.0375461 101.52 -0.130859 101.588H0.0557538V104.269Z" fill="white"/>
</g>
<mask id="mask2_2940_65687" style="mask-type:luminance" maskUnits="userSpaceOnUse" x="0" y="101" width="34" height="8">
<path d="M16.9376 108.625C26.2358 108.625 33.7736 106.935 33.7736 104.851C33.7736 102.767 26.2358 101.078 16.9376 101.078C7.6393 101.078 0.101562 102.767 0.101562 104.851C0.101562 106.935 7.6393 108.625 16.9376 108.625Z" fill="white"/>
</mask>
<g mask="url(#mask2_2940_65687)">
<path d="M0.0568862 104.279V106.359V106.955H-0.179792C-0.102417 106.996 -0.0204893 107.033 0.0568862 107.069C0.22074 107.146 0.389144 107.219 0.562101 107.297C1.25848 107.597 2.05499 107.879 2.93798 108.139C3.82098 108.403 4.78589 108.644 5.82819 108.862V108.667H30.7203V108.949C31.617 108.74 32.4271 108.503 33.1417 108.243C33.4967 108.116 33.8336 107.979 34.1385 107.843H33.8199V102.741H34.0566C33.9792 102.7 33.8973 102.663 33.8199 102.627C33.656 102.549 33.4876 102.477 33.3147 102.399C32.6183 102.099 31.8218 101.817 30.9388 101.557C30.0558 101.293 29.0909 101.052 28.0486 100.834V101.029H3.15646V100.747C2.25981 100.956 1.44964 101.193 0.735058 101.453C0.380041 101.58 0.0432317 101.717 -0.261719 101.853H0.0568862V104.279Z" fill="#FEFEFE"/>
</g>
<mask id="mask3_2940_65687" style="mask-type:luminance" maskUnits="userSpaceOnUse" x="0" y="101" width="34" height="8">
<path d="M16.9376 108.625C26.2358 108.625 33.7736 106.935 33.7736 104.851C33.7736 102.767 26.2358 101.078 16.9376 101.078C7.6393 101.078 0.101562 102.767 0.101562 104.851C0.101562 106.935 7.6393 108.625 16.9376 108.625Z" fill="white"/>
</mask>
<g mask="url(#mask3_2940_65687)">
<path d="M0.0564158 104.293V106.333V106.806H-0.0482709C0.243025 106.961 0.561631 107.111 0.902994 107.256C1.58572 107.548 2.36402 107.825 3.22881 108.085C4.09359 108.34 5.04031 108.581 6.05529 108.795V108.681H30.4286V108.877C31.307 108.672 32.099 108.44 32.7999 108.19C33.1504 108.062 33.4735 107.93 33.7739 107.794C33.8467 107.762 33.9241 107.725 33.9924 107.689H33.8103V102.91H33.915C33.6237 102.755 33.3051 102.605 32.9638 102.459C32.281 102.168 31.5027 101.89 30.6379 101.631C29.7732 101.371 28.8264 101.135 27.8115 100.921V101.035H3.44273V100.839C2.56429 101.044 1.77233 101.276 1.0714 101.526C0.720934 101.654 0.397777 101.786 0.0973777 101.922C0.0245537 101.954 -0.0528213 101.99 -0.121094 102.027H0.0609662V104.293H0.0564158Z" fill="#FDFDFD"/>
</g>
<mask id="mask4_2940_65687" style="mask-type:luminance" maskUnits="userSpaceOnUse" x="0" y="101" width="34" height="8">
<path d="M16.9376 108.625C26.2358 108.625 33.7736 106.935 33.7736 104.851C33.7736 102.767 26.2358 101.078 16.9376 101.078C7.6393 101.078 0.101562 102.767 0.101562 104.851C0.101562 106.935 7.6393 108.625 16.9376 108.625Z" fill="white"/>
</mask>
<g mask="url(#mask4_2940_65687)">
<path d="M0.0564517 104.305V106.299V106.531H-0.09375C0.0382435 106.608 0.174788 106.686 0.315885 106.759C0.602629 106.909 0.912131 107.054 1.24894 107.2C1.91801 107.487 2.68266 107.755 3.52469 108.01C4.37127 108.261 5.29523 108.493 6.29201 108.702V108.675H30.1464V108.788C31.0066 108.588 31.7804 108.361 32.4677 108.115C32.809 107.992 33.1276 107.865 33.4235 107.728C33.5691 107.66 33.7102 107.591 33.8468 107.523H33.824V103.176H33.9742C33.8422 103.099 33.7057 103.022 33.5646 102.949C33.2778 102.799 32.9683 102.653 32.6315 102.507C31.9625 102.221 31.1978 101.952 30.3558 101.697C29.5092 101.447 28.5852 101.215 27.5885 101.005V101.033H3.72951V100.919C2.86928 101.119 2.09552 101.347 1.40824 101.593C1.06688 101.715 0.748277 101.843 0.45243 101.979C0.306782 102.048 0.165686 102.116 0.029141 102.184H0.0518985V104.305H0.0564517Z" fill="#FDFDFD"/>
</g>
<mask id="mask5_2940_65687" style="mask-type:luminance" maskUnits="userSpaceOnUse" x="0" y="101" width="34" height="8">
<path d="M16.9376 108.625C26.2358 108.625 33.7736 106.935 33.7736 104.851C33.7736 102.767 26.2358 101.078 16.9376 101.078C7.6393 101.078 0.101562 102.767 0.101562 104.851C0.101562 106.935 7.6393 108.625 16.9376 108.625Z" fill="white"/>
</mask>
<g mask="url(#mask5_2940_65687)">
<path d="M0.0558048 104.316V106.268H-0.0898438C0.825008 106.883 2.1586 107.452 3.81079 107.943C4.63916 108.189 5.54491 108.416 6.51893 108.621C7.00594 108.721 7.51116 108.822 8.03003 108.913V108.676H29.8545V108.703C31.534 108.307 32.8994 107.82 33.8461 107.26H33.8143V103.446H33.9599C33.0451 102.832 31.7115 102.263 30.0593 101.771C29.2309 101.525 28.3252 101.298 27.3511 101.093C26.8641 100.993 26.3589 100.893 25.84 100.802V101.038H4.01561V101.011C2.33611 101.407 0.970655 101.894 0.0239437 102.454H0.0558048V104.316Z" fill="#FCFCFC"/>
</g>
<mask id="mask6_2940_65687" style="mask-type:luminance" maskUnits="userSpaceOnUse" x="0" y="101" width="34" height="8">
<path d="M16.9376 108.625C26.2358 108.625 33.7736 106.935 33.7736 104.851C33.7736 102.767 26.2358 101.078 16.9376 101.078C7.6393 101.078 0.101562 102.767 0.101562 104.851C0.101562 106.935 7.6393 108.625 16.9376 108.625Z" fill="white"/>
</mask>
<g mask="url(#mask6_2940_65687)">
<path d="M0.05694 104.328V105.306V106.012H-0.0249892C0.0751438 106.089 0.179829 106.162 0.289065 106.24C1.18571 106.84 2.48744 107.396 4.10322 107.874C4.91339 108.115 5.79638 108.338 6.75219 108.538C7.2301 108.638 7.72166 108.734 8.23143 108.82V108.675H28.2853V108.889C28.7314 108.802 29.1638 108.711 29.5734 108.615C31.2165 108.229 32.5501 107.751 33.4786 107.204C33.7107 107.068 33.9155 106.927 34.0976 106.781H33.8245V103.7H33.9064C33.8063 103.622 33.7016 103.55 33.5924 103.472C32.6957 102.871 31.394 102.316 29.7782 101.838C28.9681 101.597 28.0851 101.374 27.1293 101.174C26.6513 101.074 26.1598 100.978 25.65 100.892V101.037H5.59156V100.823C5.14551 100.91 4.71312 101.001 4.30349 101.096C2.6604 101.483 1.32681 101.961 0.398302 102.507C0.166176 102.644 -0.0386432 102.785 -0.220703 102.931H0.0523868V104.328H0.05694Z" fill="#FBFBFB"/>
</g>
<mask id="mask7_2940_65687" style="mask-type:luminance" maskUnits="userSpaceOnUse" x="0" y="101" width="34" height="8">
<path d="M16.9376 108.625C26.2358 108.625 33.7736 106.935 33.7736 104.851C33.7736 102.767 26.2358 101.078 16.9376 101.078C7.6393 101.078 0.101562 102.767 0.101562 104.851C0.101562 106.935 7.6393 108.625 16.9376 108.625Z" fill="white"/>
</mask>
<g mask="url(#mask7_2940_65687)">
<path d="M0.0550917 104.343V105.299V105.531H-0.140625C-0.0723525 105.608 0.00502464 105.685 0.0915031 105.758C0.259909 105.908 0.451072 106.059 0.669544 106.204C1.54343 106.791 2.81785 107.333 4.39722 107.802C5.97659 108.271 7.86546 108.671 9.9637 108.967V108.671H28.0286V108.794C28.4655 108.712 28.8843 108.621 29.2894 108.53C30.896 108.152 32.1978 107.684 33.1035 107.151C33.3311 107.019 33.5314 106.878 33.7089 106.737C33.7954 106.664 33.8773 106.596 33.9547 106.523H33.8272V104.183H34.0229C33.9547 104.106 33.8773 104.029 33.7908 103.956C33.6224 103.806 33.4312 103.655 33.2128 103.51C32.3389 102.923 31.0645 102.381 29.4851 101.912C27.9057 101.443 26.0168 101.043 23.9186 100.747V101.043H5.84915V100.92C5.41221 101.002 4.99347 101.093 4.58838 101.184C2.9817 101.562 1.67998 102.031 0.774228 102.563C0.546653 102.695 0.346388 102.836 0.168879 102.977C0.0824007 103.05 0.000472575 103.118 -0.0769029 103.191H0.0505385V104.343H0.0550917Z" fill="#FAFAFA"/>
</g>
<mask id="mask8_2940_65687" style="mask-type:luminance" maskUnits="userSpaceOnUse" x="0" y="101" width="34" height="8">
<path d="M16.9376 108.625C26.2358 108.625 33.7736 106.935 33.7736 104.851C33.7736 102.767 26.2358 101.078 16.9376 101.078C7.6393 101.078 0.101562 102.767 0.101562 104.851C0.101562 106.935 7.6393 108.625 16.9376 108.625Z" fill="white"/>
</mask>
<g mask="url(#mask8_2940_65687)">
<path d="M-0.249475 104.351C-0.258578 104.665 -0.149343 104.979 0.0736808 105.284C0.292153 105.589 0.624412 105.885 1.05225 106.172C1.90793 106.745 3.15049 107.273 4.69345 107.733C6.23641 108.193 8.07977 108.58 10.1279 108.871V108.671H26.4405V108.926C27.3599 108.789 28.2156 108.625 29.003 108.443C32.139 107.706 34.0961 106.618 34.1325 105.353C34.1417 105.039 34.0324 104.724 33.8094 104.42C33.5864 104.115 33.2587 103.819 32.8308 103.532C31.9751 102.958 30.7326 102.431 29.1896 101.971C27.6467 101.511 25.8033 101.124 23.7551 100.833V101.033H7.43801V100.778C6.5186 100.915 5.66292 101.079 4.87551 101.261C1.74408 102.003 -0.213063 103.09 -0.249475 104.351Z" fill="#F9F9F9"/>
</g>
<mask id="mask9_2940_65687" style="mask-type:luminance" maskUnits="userSpaceOnUse" x="0" y="101" width="34" height="8">
<path d="M16.9376 108.625C26.2358 108.625 33.7736 106.935 33.7736 104.851C33.7736 102.767 26.2358 101.078 16.9376 101.078C7.6393 101.078 0.101562 102.767 0.101562 104.851C0.101562 106.935 7.6393 108.625 16.9376 108.625Z" fill="white"/>
</mask>
<g mask="url(#mask9_2940_65687)">
<path d="M0.156778 104.365C0.120366 105.599 1.96828 106.769 4.98137 107.665C6.48791 108.116 8.28576 108.494 10.2884 108.776V108.671H26.2141V108.83C27.1108 108.694 27.9482 108.539 28.7129 108.357C31.7715 107.638 33.6831 106.577 33.7195 105.344C33.7559 104.11 31.908 102.941 28.8949 102.044C27.3884 101.593 25.5906 101.216 23.5879 100.934V101.038H7.66675V100.879C6.77011 101.015 5.93263 101.17 5.16798 101.352C2.10482 102.067 0.19319 103.132 0.156778 104.365Z" fill="#F8F8F8"/>
</g>
<mask id="mask10_2940_65687" style="mask-type:luminance" maskUnits="userSpaceOnUse" x="0" y="101" width="34" height="8">
<path d="M16.9376 108.625C26.2358 108.625 33.7736 106.935 33.7736 104.851C33.7736 102.767 26.2358 101.078 16.9376 101.078C7.6393 101.078 0.101562 102.767 0.101562 104.851C0.101562 106.935 7.6393 108.625 16.9376 108.625Z" fill="white"/>
</mask>
<g mask="url(#mask10_2940_65687)">
<path d="M0.564995 104.375C0.528583 105.576 2.33098 106.723 5.27125 107.597C6.74138 108.034 8.49371 108.407 10.4463 108.685V108.676H25.9851V108.739C26.859 108.607 27.6783 108.453 28.4247 108.28C31.4105 107.579 33.2766 106.541 33.3085 105.34C33.3449 104.138 31.5425 102.991 28.6022 102.117C27.1321 101.68 25.3798 101.307 23.4272 101.029V101.038H7.88836V100.975C7.01447 101.107 6.1952 101.261 5.44876 101.434C2.46752 102.135 0.601407 103.173 0.564995 104.375Z" fill="#F7F7F7"/>
</g>
<mask id="mask11_2940_65687" style="mask-type:luminance" maskUnits="userSpaceOnUse" x="0" y="101" width="34" height="8">
<path d="M16.9376 108.625C26.2358 108.625 33.7736 106.935 33.7736 104.851C33.7736 102.767 26.2358 101.078 16.9376 101.078C7.6393 101.078 0.101562 102.767 0.101562 104.851C0.101562 106.935 7.6393 108.625 16.9376 108.625Z" fill="white"/>
</mask>
<g mask="url(#mask11_2940_65687)">
<path d="M0.975165 104.387C0.938753 105.561 2.69563 106.676 5.56308 107.528C6.9968 107.955 8.70816 108.315 10.6107 108.588C11.562 108.725 12.5633 108.834 13.601 108.925V108.674H23.0408V108.952C24.957 108.793 26.6866 108.533 28.1431 108.187C31.056 107.505 32.8721 106.494 32.9039 105.32C32.9403 104.146 31.1835 103.031 28.316 102.18C26.8823 101.752 25.1709 101.392 23.2684 101.119C22.3171 100.982 21.3158 100.873 20.2781 100.782V101.033H10.8383V100.755C8.92208 100.914 7.19251 101.174 5.73603 101.52C2.82763 102.202 1.01158 103.213 0.975165 104.387Z" fill="#F6F6F6"/>
</g>
<mask id="mask12_2940_65687" style="mask-type:luminance" maskUnits="userSpaceOnUse" x="0" y="101" width="34" height="8">
<path d="M16.9376 108.625C26.2358 108.625 33.7736 106.935 33.7736 104.851C33.7736 102.767 26.2358 101.078 16.9376 101.078C7.6393 101.078 0.101562 102.767 0.101562 104.851C0.101562 106.935 7.6393 108.625 16.9376 108.625Z" fill="white"/>
</mask>
<g mask="url(#mask12_2940_65687)">
<path d="M1.3852 104.403C1.35334 105.545 3.06471 106.633 5.85478 107.461C7.25209 107.876 8.91794 108.231 10.7749 108.495C11.7035 108.627 12.6775 108.736 13.6879 108.822V108.677H22.8819V108.85C24.7481 108.695 26.4321 108.44 27.8522 108.108C30.6878 107.439 32.4583 106.455 32.4947 105.313C32.5311 104.171 30.8152 103.083 28.0251 102.254C26.6278 101.84 24.962 101.485 23.105 101.221C22.1765 101.089 21.2024 100.98 20.192 100.894V101.039H10.998V100.866C9.13186 101.021 7.4478 101.276 6.02773 101.608C3.1876 102.273 1.41706 103.256 1.3852 104.403Z" fill="#F5F5F5"/>
</g>
<mask id="mask13_2940_65687" style="mask-type:luminance" maskUnits="userSpaceOnUse" x="0" y="101" width="34" height="8">
<path d="M16.9376 108.625C26.2358 108.625 33.7736 106.935 33.7736 104.851C33.7736 102.767 26.2358 101.078 16.9376 101.078C7.6393 101.078 0.101562 102.767 0.101562 104.851C0.101562 106.935 7.6393 108.625 16.9376 108.625Z" fill="white"/>
</mask>
<g mask="url(#mask13_2940_65687)">
<path d="M1.79537 104.41C1.73165 106.636 8.45877 108.639 16.8244 108.885V108.671H22.7277V108.739C24.5438 108.589 26.1869 108.338 27.566 108.015C30.3287 107.364 32.0537 106.409 32.0856 105.293C32.1493 103.068 25.4222 101.065 17.0566 100.819V101.033H11.1533V100.965C9.33721 101.115 7.69412 101.366 6.31501 101.689C3.55225 102.34 1.82723 103.3 1.79537 104.41Z" fill="#F4F4F4"/>
</g>
<mask id="mask14_2940_65687" style="mask-type:luminance" maskUnits="userSpaceOnUse" x="0" y="101" width="34" height="8">
<path d="M16.9376 108.625C26.2358 108.625 33.7736 106.935 33.7736 104.851C33.7736 102.767 26.2358 101.078 16.9376 101.078C7.6393 101.078 0.101562 102.767 0.101562 104.851C0.101562 106.935 7.6393 108.625 16.9376 108.625Z" fill="white"/>
</mask>
<g mask="url(#mask14_2940_65687)">
<path d="M2.20359 104.424C2.13987 106.59 8.68492 108.538 16.823 108.775C20.892 108.893 24.5879 108.561 27.2778 107.928C29.9677 107.296 31.6427 106.362 31.6745 105.279C31.7383 103.113 25.1932 101.165 17.0551 100.928C12.9861 100.81 9.29027 101.142 6.60034 101.775C3.9104 102.407 2.23545 103.34 2.20359 104.424Z" fill="#F3F3F3"/>
</g>
<mask id="mask15_2940_65687" style="mask-type:luminance" maskUnits="userSpaceOnUse" x="0" y="101" width="34" height="8">
<path d="M17.0488 101.078C7.7543 100.807 0.170357 102.276 0.109633 104.359C0.048909 106.442 7.5344 108.351 16.8289 108.622C26.1235 108.893 33.7074 107.424 33.7682 105.341C33.8289 103.258 26.3434 101.349 17.0488 101.078Z" fill="white"/>
</mask>
<g mask="url(#mask15_2940_65687)">
<path d="M17.0496 101.039C9.1371 100.808 2.67295 102.328 2.61157 104.434C2.55018 106.54 8.91481 108.434 16.8274 108.664C24.7399 108.895 31.2041 107.375 31.2654 105.269C31.3268 103.164 24.9622 101.27 17.0496 101.039Z" fill="#F2F2F2"/>
</g>
<mask id="mask16_2940_65687" style="mask-type:luminance" maskUnits="userSpaceOnUse" x="0" y="101" width="34" height="8">
<path d="M17.0488 101.078C7.7543 100.807 0.170357 102.276 0.109633 104.359C0.048909 106.442 7.5344 108.351 16.8289 108.622C26.1235 108.893 33.7074 107.424 33.7682 105.341C33.8289 103.258 26.3434 101.349 17.0488 101.078Z" fill="white"/>
</mask>
<g mask="url(#mask16_2940_65687)">
<path d="M17.0465 101.147C9.3601 100.923 3.0807 102.4 3.02108 104.445C2.96145 106.49 9.14417 108.33 16.8306 108.554C24.517 108.778 30.7964 107.302 30.856 105.257C30.9156 103.211 24.7329 101.371 17.0465 101.147Z" fill="#F1F1F1"/>
</g>
<mask id="mask17_2940_65687" style="mask-type:luminance" maskUnits="userSpaceOnUse" x="0" y="101" width="34" height="8">
<path d="M17.0488 101.078C7.7543 100.807 0.170357 102.276 0.109633 104.359C0.048909 106.442 7.5344 108.351 16.8289 108.622C26.1235 108.893 33.7074 107.424 33.7682 105.341C33.8289 103.258 26.3434 101.349 17.0488 101.078Z" fill="white"/>
</mask>
<g mask="url(#mask17_2940_65687)">
<path d="M17.0434 101.257C9.58309 101.039 3.48845 102.472 3.43059 104.457C3.37272 106.442 9.37354 108.228 16.8338 108.445C24.2941 108.663 30.3887 107.23 30.4466 105.245C30.5044 103.26 24.5036 101.474 17.0434 101.257Z" fill="#F0F0F0"/>
</g>
<mask id="mask18_2940_65687" style="mask-type:luminance" maskUnits="userSpaceOnUse" x="0" y="101" width="34" height="8">
<path d="M17.0488 101.078C7.7543 100.807 0.170357 102.276 0.109633 104.359C0.048909 106.442 7.5344 108.351 16.8289 108.622C26.1235 108.893 33.7074 107.424 33.7682 105.341C33.8289 103.258 26.3434 101.349 17.0488 101.078Z" fill="white"/>
</mask>
<g mask="url(#mask18_2940_65687)">
<path d="M17.0402 101.366C9.80609 101.155 3.8962 102.544 3.8401 104.469C3.78399 106.394 9.6029 108.125 16.837 108.336C24.0711 108.547 29.981 107.157 30.0371 105.233C30.0933 103.308 24.2743 101.577 17.0402 101.366Z" fill="#EFEFEF"/>
</g>
<mask id="mask19_2940_65687" style="mask-type:luminance" maskUnits="userSpaceOnUse" x="0" y="101" width="34" height="8">
<path d="M17.0488 101.078C7.7543 100.807 0.170357 102.276 0.109633 104.359C0.048909 106.442 7.5344 108.351 16.8289 108.622C26.1235 108.893 33.7074 107.424 33.7682 105.341C33.8289 103.258 26.3434 101.349 17.0488 101.078Z" fill="white"/>
</mask>
<g mask="url(#mask19_2940_65687)">
<path d="M17.0373 101.472C10.0294 101.268 4.30416 102.615 4.24974 104.482C4.19531 106.349 9.83227 108.028 16.8402 108.233C23.8482 108.437 29.5734 107.089 29.6278 105.222C29.6823 103.355 24.0453 101.676 17.0373 101.472Z" fill="#EEEEEE"/>
</g>
<mask id="mask20_2940_65687" style="mask-type:luminance" maskUnits="userSpaceOnUse" x="0" y="101" width="34" height="8">
<path d="M17.0488 101.078C7.7543 100.807 0.170357 102.276 0.109633 104.359C0.048909 106.442 7.5344 108.351 16.8289 108.622C26.1235 108.893 33.7074 107.424 33.7682 105.341C33.8289 103.258 26.3434 101.349 17.0488 101.078Z" fill="white"/>
</mask>
<g mask="url(#mask20_2940_65687)">
<path d="M17.0335 101.58C10.2492 101.382 4.70671 102.686 4.65404 104.493C4.60138 106.3 10.0585 107.925 16.8428 108.122C23.6272 108.32 29.1696 107.016 29.2223 105.209C29.275 103.403 23.8179 101.778 17.0335 101.58Z" fill="#EDEDED"/>
</g>
<mask id="mask21_2940_65687" style="mask-type:luminance" maskUnits="userSpaceOnUse" x="0" y="101" width="34" height="8">
<path d="M17.0488 101.078C7.7543 100.807 0.170357 102.276 0.109633 104.359C0.048909 106.442 7.5344 108.351 16.8289 108.622C26.1235 108.893 33.7074 107.424 33.7682 105.341C33.8289 103.258 26.3434 101.349 17.0488 101.078Z" fill="white"/>
</mask>
<g mask="url(#mask21_2940_65687)">
<path d="M17.0304 101.689C10.4722 101.498 5.11446 102.759 5.06356 104.505C5.01265 106.251 10.2878 107.822 16.846 108.013C23.4042 108.204 28.762 106.944 28.8129 105.197C28.8638 103.451 23.5886 101.88 17.0304 101.689Z" fill="#ECECEC"/>
</g>
<mask id="mask22_2940_65687" style="mask-type:luminance" maskUnits="userSpaceOnUse" x="0" y="101" width="34" height="8">
<path d="M17.0488 101.078C7.7543 100.807 0.170357 102.276 0.109633 104.359C0.048909 106.442 7.5344 108.351 16.8289 108.622C26.1235 108.893 33.7074 107.424 33.7682 105.341C33.8289 103.258 26.3434 101.349 17.0488 101.078Z" fill="white"/>
</mask>
<g mask="url(#mask22_2940_65687)">
<path d="M17.0272 101.798C10.6952 101.614 5.52221 102.831 5.47306 104.517C5.42391 106.203 10.5172 107.719 16.8493 107.904C23.1813 108.089 28.3543 106.871 28.4034 105.185C28.4526 103.499 23.3593 101.983 17.0272 101.798Z" fill="#EBEBEB"/>
</g>
<mask id="mask23_2940_65687" style="mask-type:luminance" maskUnits="userSpaceOnUse" x="0" y="101" width="34" height="8">
<path d="M17.0488 101.078C7.7543 100.807 0.170357 102.276 0.109633 104.359C0.048909 106.442 7.5344 108.351 16.8289 108.622C26.1235 108.893 33.7074 107.424 33.7682 105.341C33.8289 103.258 26.3434 101.349 17.0488 101.078Z" fill="white"/>
</mask>
<g mask="url(#mask23_2940_65687)">
<path d="M17.0241 101.907C10.9182 101.729 5.92997 102.902 5.88257 104.528C5.83518 106.154 10.7466 107.616 16.8525 107.794C22.9584 107.972 27.9466 106.798 27.994 105.173C28.0414 103.547 23.13 102.085 17.0241 101.907Z" fill="#EAEAEA"/>
</g>
<mask id="mask24_2940_65687" style="mask-type:luminance" maskUnits="userSpaceOnUse" x="0" y="101" width="34" height="8">
<path d="M17.0488 101.078C7.7543 100.807 0.170357 102.276 0.109633 104.359C0.048909 106.442 7.5344 108.351 16.8289 108.622C26.1235 108.893 33.7074 107.424 33.7682 105.341C33.8289 103.258 26.3434 101.349 17.0488 101.078Z" fill="white"/>
</mask>
<g mask="url(#mask24_2940_65687)">
<path d="M17.021 102.018C11.1412 101.846 6.33772 102.976 6.29208 104.542C6.24645 106.107 10.9759 107.515 16.8557 107.687C22.7355 107.858 27.5389 106.728 27.5846 105.163C27.6302 103.597 22.9007 102.189 17.021 102.018Z" fill="#E9E9E9"/>
</g>
<mask id="mask25_2940_65687" style="mask-type:luminance" maskUnits="userSpaceOnUse" x="0" y="101" width="34" height="8">
<path d="M17.0488 101.078C7.7543 100.807 0.170355 102.276 0.109632 104.359C0.0489086 106.442 7.5344 108.351 16.8289 108.622C26.1235 108.893 33.7074 107.424 33.7682 105.341C33.8289 103.258 26.3434 101.349 17.0488 101.078Z" fill="white"/>
</mask>
<g mask="url(#mask25_2940_65687)">
<path d="M17.0178 102.127C11.3642 101.962 6.74547 103.049 6.70159 104.554C6.65772 106.059 11.2053 107.413 16.8589 107.578C22.5125 107.742 27.1313 106.656 27.1751 105.151C27.219 103.646 22.6714 102.292 17.0178 102.127Z" fill="#E8E8E8"/>
</g>
<mask id="mask26_2940_65687" style="mask-type:luminance" maskUnits="userSpaceOnUse" x="0" y="101" width="34" height="8">
<path d="M17.0488 101.078C7.7543 100.807 0.170357 102.276 0.109633 104.359C0.048909 106.442 7.5344 108.351 16.8289 108.622C26.1235 108.893 33.7074 107.424 33.7682 105.341C33.8289 103.258 26.3434 101.349 17.0488 101.078Z" fill="white"/>
</mask>
<g mask="url(#mask26_2940_65687)">
<path d="M17.0147 102.235C11.5872 102.077 7.15322 103.12 7.1111 104.565C7.06898 106.01 11.4347 107.309 16.8621 107.467C22.2896 107.626 26.7236 106.583 26.7657 105.138C26.8078 103.693 22.4421 102.394 17.0147 102.235Z" fill="#E7E7E7"/>
</g>
<mask id="mask27_2940_65687" style="mask-type:luminance" maskUnits="userSpaceOnUse" x="0" y="101" width="34" height="8">
<path d="M17.0488 101.078C7.7543 100.807 0.170357 102.276 0.109633 104.359C0.048909 106.442 7.5344 108.351 16.8289 108.622C26.1235 108.893 33.7074 107.424 33.7682 105.341C33.8289 103.258 26.3434 101.349 17.0488 101.078Z" fill="white"/>
</mask>
<g mask="url(#mask27_2940_65687)">
<path d="M17.0115 102.345C11.8102 102.193 7.56097 103.192 7.52061 104.577C7.48025 105.961 11.664 107.207 16.8654 107.358C22.0667 107.51 26.3159 106.51 26.3563 105.126C26.3966 103.741 22.2129 102.496 17.0115 102.345Z" fill="#E6E6E6"/>
</g>
<mask id="mask28_2940_65687" style="mask-type:luminance" maskUnits="userSpaceOnUse" x="0" y="101" width="34" height="8">
<path d="M17.0488 101.078C7.7543 100.807 0.170355 102.276 0.109632 104.359C0.0489086 106.442 7.5344 108.351 16.8289 108.622C26.1235 108.893 33.7074 107.424 33.7682 105.341C33.8289 103.258 26.3434 101.349 17.0488 101.078Z" fill="white"/>
</mask>
<g mask="url(#mask28_2940_65687)">
<path d="M17.0084 102.454C12.0332 102.309 7.96872 103.265 7.93012 104.589C7.89152 105.913 11.8934 107.104 16.8686 107.249C21.8438 107.394 25.9082 106.438 25.9468 105.114C25.9855 103.79 21.9836 102.599 17.0084 102.454Z" fill="#E5E5E5"/>
</g>
<mask id="mask29_2940_65687" style="mask-type:luminance" maskUnits="userSpaceOnUse" x="0" y="101" width="34" height="8">
<path d="M17.0488 101.078C7.7543 100.807 0.170357 102.276 0.109633 104.359C0.048909 106.442 7.5344 108.351 16.8289 108.622C26.1235 108.893 33.7074 107.424 33.7682 105.341C33.8289 103.258 26.3434 101.349 17.0488 101.078Z" fill="white"/>
</mask>
<g mask="url(#mask29_2940_65687)">
<path d="M17.0065 102.562C12.255 102.423 8.37323 103.336 8.33639 104.6C8.29954 105.863 12.1216 107 16.8731 107.139C21.6247 107.277 25.5064 106.365 25.5433 105.101C25.5801 103.837 21.7581 102.7 17.0065 102.562Z" fill="#E4E4E4"/>
</g>
<mask id="mask30_2940_65687" style="mask-type:luminance" maskUnits="userSpaceOnUse" x="0" y="101" width="34" height="8">
<path d="M17.0488 101.078C7.7543 100.807 0.170357 102.276 0.109633 104.359C0.048909 106.442 7.5344 108.351 16.8289 108.622C26.1235 108.893 33.7074 107.424 33.7682 105.341C33.8289 103.258 26.3434 101.349 17.0488 101.078Z" fill="white"/>
</mask>
<g mask="url(#mask30_2940_65687)">
<path d="M17.0034 102.671C12.478 102.539 8.78099 103.408 8.7459 104.612C8.71081 105.815 12.3509 106.898 16.8763 107.03C21.4017 107.162 25.0988 106.293 25.1338 105.089C25.1689 103.886 21.5288 102.803 17.0034 102.671Z" fill="#E3E3E3"/>
</g>
<mask id="mask31_2940_65687" style="mask-type:luminance" maskUnits="userSpaceOnUse" x="0" y="101" width="34" height="8">
<path d="M17.0488 101.078C7.7543 100.807 0.170355 102.276 0.109632 104.359C0.0489086 106.442 7.5344 108.351 16.8289 108.622C26.1235 108.893 33.7074 107.424 33.7682 105.341C33.8289 103.258 26.3434 101.349 17.0488 101.078Z" fill="white"/>
</mask>
<g mask="url(#mask31_2940_65687)">
<path d="M16.9983 102.782C12.699 102.657 9.18678 103.482 9.15346 104.625C9.12013 105.769 12.5783 106.797 16.8776 106.922C21.1769 107.048 24.6891 106.223 24.7225 105.079C24.7558 103.936 21.2976 102.908 16.9983 102.782Z" fill="#E2E2E2"/>
</g>
<mask id="mask32_2940_65687" style="mask-type:luminance" maskUnits="userSpaceOnUse" x="0" y="101" width="34" height="8">
<path d="M17.0488 101.078C7.7543 100.807 0.170357 102.276 0.109633 104.359C0.048909 106.442 7.5344 108.351 16.8289 108.622C26.1235 108.893 33.7074 107.424 33.7682 105.341C33.8289 103.258 26.3434 101.349 17.0488 101.078Z" fill="white"/>
</mask>
<g mask="url(#mask32_2940_65687)">
<path d="M16.9971 102.891C12.924 102.772 9.59649 103.553 9.56492 104.636C9.53335 105.719 12.8097 106.694 16.8828 106.812C20.9559 106.931 24.2834 106.149 24.315 105.066C24.3465 103.983 21.0702 103.009 16.9971 102.891Z" fill="#E0E0E0"/>
</g>
<mask id="mask33_2940_65687" style="mask-type:luminance" maskUnits="userSpaceOnUse" x="0" y="101" width="34" height="8">
<path d="M17.0488 101.078C7.7543 100.807 0.170357 102.276 0.109633 104.359C0.048909 106.442 7.5344 108.351 16.8289 108.622C26.1235 108.893 33.7074 107.424 33.7682 105.341C33.8289 103.258 26.3434 101.349 17.0488 101.078Z" fill="white"/>
</mask>
<g mask="url(#mask33_2940_65687)">
<path d="M16.9923 102.995C13.1453 102.882 10.0025 103.623 9.97261 104.648C9.94272 105.673 13.0371 106.595 16.884 106.707C20.731 106.819 23.8738 106.079 23.9037 105.054C23.9336 104.029 20.8392 103.107 16.9923 102.995Z" fill="#DFDFDF"/>
</g>
<mask id="mask34_2940_65687" style="mask-type:luminance" maskUnits="userSpaceOnUse" x="0" y="101" width="34" height="8">
<path d="M17.0488 101.078C7.7543 100.807 0.170355 102.276 0.109632 104.359C0.0489086 106.442 7.5344 108.351 16.8289 108.622C26.1235 108.893 33.7074 107.424 33.7682 105.341C33.8289 103.258 26.3434 101.349 17.0488 101.078Z" fill="white"/>
</mask>
<g mask="url(#mask34_2940_65687)">
<path d="M16.9891 103.104C13.3683 102.998 10.4102 103.695 10.3821 104.66C10.354 105.625 13.2664 106.492 16.8873 106.598C20.5081 106.703 23.4662 106.007 23.4943 105.042C23.5224 104.077 20.61 103.209 16.9891 103.104Z" fill="#DEDEDE"/>
</g>
<mask id="mask35_2940_65687" style="mask-type:luminance" maskUnits="userSpaceOnUse" x="0" y="101" width="34" height="8">
<path d="M17.0488 101.078C7.7543 100.807 0.170357 102.276 0.109633 104.359C0.048909 106.442 7.5344 108.351 16.8289 108.622C26.1235 108.893 33.7074 107.424 33.7682 105.341C33.8289 103.258 26.3434 101.349 17.0488 101.078Z" fill="white"/>
</mask>
<g mask="url(#mask35_2940_65687)">
<path d="M16.986 103.213C13.5913 103.114 10.818 103.767 10.7916 104.672C10.7653 105.576 13.4958 106.39 16.8905 106.489C20.2852 106.588 23.0585 105.935 23.0849 105.03C23.1112 104.126 20.3807 103.312 16.986 103.213Z" fill="#DDDDDD"/>
</g>
<mask id="mask36_2940_65687" style="mask-type:luminance" maskUnits="userSpaceOnUse" x="0" y="101" width="34" height="8">
<path d="M17.0488 101.078C7.7543 100.807 0.170357 102.276 0.109633 104.359C0.048909 106.442 7.5344 108.351 16.8289 108.622C26.1235 108.893 33.7074 107.424 33.7682 105.341C33.8289 103.258 26.3434 101.349 17.0488 101.078Z" fill="white"/>
</mask>
<g mask="url(#mask36_2940_65687)">
<path d="M16.9828 103.324C13.8143 103.232 11.2257 103.841 11.2011 104.686C11.1765 105.53 13.7252 106.289 16.8937 106.382C20.0623 106.474 22.6508 105.864 22.6754 105.02C22.7 104.176 20.1514 103.417 16.9828 103.324Z" fill="#DCDCDC"/>
</g>
<mask id="mask37_2940_65687" style="mask-type:luminance" maskUnits="userSpaceOnUse" x="0" y="101" width="34" height="8">
<path d="M17.0488 101.078C7.7543 100.807 0.170355 102.276 0.109632 104.359C0.0489086 106.442 7.5344 108.351 16.8289 108.622C26.1235 108.893 33.7074 107.424 33.7682 105.341C33.8289 103.258 26.3434 101.349 17.0488 101.078Z" fill="white"/>
</mask>
<g mask="url(#mask37_2940_65687)">
<path d="M16.9797 103.432C14.0373 103.347 11.6335 103.913 11.6106 104.697C11.5878 105.481 13.9545 106.186 16.8969 106.271C19.8393 106.357 22.2431 105.791 22.266 105.007C22.2888 104.223 19.9221 103.518 16.9797 103.432Z" fill="#DBDBDB"/>
</g>
<mask id="mask38_2940_65687" style="mask-type:luminance" maskUnits="userSpaceOnUse" x="0" y="101" width="34" height="8">
<path d="M17.0488 101.078C7.7543 100.807 0.170357 102.276 0.109633 104.359C0.048909 106.442 7.5344 108.351 16.8289 108.622C26.1235 108.893 33.7074 107.424 33.7682 105.341C33.8289 103.258 26.3434 101.349 17.0488 101.078Z" fill="white"/>
</mask>
<g mask="url(#mask38_2940_65687)">
<path d="M16.9779 103.542C14.2591 103.462 12.038 103.985 12.0169 104.708C11.9958 105.432 14.1827 106.083 16.9015 106.162C19.6202 106.241 21.8413 105.719 21.8624 104.995C21.8835 104.272 19.6966 103.621 16.9779 103.542Z" fill="#DADADA"/>
</g>
<mask id="mask39_2940_65687" style="mask-type:luminance" maskUnits="userSpaceOnUse" x="0" y="101" width="34" height="8">
<path d="M17.0488 101.078C7.7543 100.807 0.170357 102.276 0.109633 104.359C0.048909 106.442 7.5344 108.351 16.8289 108.622C26.1235 108.893 33.7074 107.424 33.7682 105.341C33.8289 103.258 26.3434 101.349 17.0488 101.078Z" fill="white"/>
</mask>
<g mask="url(#mask39_2940_65687)">
<path d="M16.9747 103.65C14.4821 103.577 12.4458 104.056 12.4264 104.719C12.4071 105.383 14.4121 105.979 16.9047 106.052C19.3973 106.125 21.4336 105.646 21.453 104.982C21.4723 104.319 19.4673 103.722 16.9747 103.65Z" fill="#D9D9D9"/>
</g>
<mask id="mask40_2940_65687" style="mask-type:luminance" maskUnits="userSpaceOnUse" x="0" y="101" width="34" height="8">
<path d="M17.0488 101.078C7.7543 100.807 0.170355 102.276 0.109632 104.359C0.0489086 106.442 7.5344 108.351 16.8289 108.622C26.1235 108.893 33.7074 107.424 33.7682 105.341C33.8289 103.258 26.3434 101.349 17.0488 101.078Z" fill="white"/>
</mask>
<g mask="url(#mask40_2940_65687)">
<path d="M16.9716 103.759C14.7051 103.693 12.8535 104.128 12.8359 104.731C12.8183 105.334 14.6414 105.877 16.9079 105.943C19.1744 106.009 21.026 105.574 21.0435 104.971C21.0611 104.368 19.238 103.825 16.9716 103.759Z" fill="#D8D8D8"/>
</g>
<mask id="mask41_2940_65687" style="mask-type:luminance" maskUnits="userSpaceOnUse" x="0" y="101" width="34" height="8">
<path d="M17.0488 101.078C7.7543 100.807 0.170358 102.276 0.109634 104.359C0.0489094 106.442 7.5344 108.351 16.8289 108.622C26.1235 108.893 33.7074 107.424 33.7682 105.341C33.8289 103.258 26.3434 101.349 17.0488 101.078Z" fill="white"/>
</mask>
<g mask="url(#mask41_2940_65687)">
<path d="M16.9684 103.868C14.9281 103.809 13.2613 104.201 13.2454 104.743C13.2296 105.286 14.8708 105.774 16.9111 105.834C18.9515 105.893 20.6183 105.501 20.6341 104.959C20.6499 104.416 19.0087 103.928 16.9684 103.868Z" fill="#D7D7D7"/>
</g>
<mask id="mask42_2940_65687" style="mask-type:luminance" maskUnits="userSpaceOnUse" x="0" y="101" width="34" height="8">
<path d="M17.0488 101.078C7.7543 100.807 0.170357 102.276 0.109633 104.359C0.048909 106.442 7.5344 108.351 16.8289 108.622C26.1235 108.893 33.7074 107.424 33.7682 105.341C33.8289 103.258 26.3434 101.349 17.0488 101.078Z" fill="white"/>
</mask>
<g mask="url(#mask42_2940_65687)">
<path d="M16.9653 103.976C15.1511 103.924 13.669 104.272 13.6549 104.754C13.6409 105.237 15.1002 105.671 16.9143 105.724C18.7285 105.776 20.2106 105.428 20.2247 104.946C20.2387 104.463 18.7795 104.029 16.9653 103.976Z" fill="#D6D6D6"/>
</g>
<mask id="mask43_2940_65687" style="mask-type:luminance" maskUnits="userSpaceOnUse" x="0" y="101" width="34" height="8">
<path d="M17.0488 101.078C7.7543 100.807 0.170355 102.276 0.109632 104.359C0.0489086 106.442 7.5344 108.351 16.8289 108.622C26.1235 108.893 33.7074 107.424 33.7682 105.341C33.8289 103.258 26.3434 101.349 17.0488 101.078Z" fill="white"/>
</mask>
<g mask="url(#mask43_2940_65687)">
<path d="M16.9621 104.088C15.3741 104.041 14.0768 104.346 14.0645 104.768C14.0521 105.19 15.3295 105.57 16.9176 105.616C18.5056 105.663 19.8029 105.358 19.8153 104.936C19.8276 104.514 18.5502 104.134 16.9621 104.088Z" fill="#D5D5D5"/>
</g>
<mask id="mask44_2940_65687" style="mask-type:luminance" maskUnits="userSpaceOnUse" x="0" y="101" width="34" height="8">
<path d="M17.0488 101.078C7.7543 100.807 0.170358 102.276 0.109634 104.359C0.0489094 106.442 7.5344 108.351 16.8289 108.622C26.1235 108.893 33.7074 107.424 33.7682 105.341C33.8289 103.258 26.3434 101.349 17.0488 101.078Z" fill="white"/>
</mask>
<g mask="url(#mask44_2940_65687)">
<path d="M16.959 104.197C15.5971 104.157 14.4845 104.418 14.474 104.78C14.4634 105.142 15.5589 105.468 16.9208 105.507C18.2827 105.547 19.3953 105.286 19.4058 104.924C19.4164 104.562 18.3209 104.237 16.959 104.197Z" fill="#D4D4D4"/>
</g>
<mask id="mask45_2940_65687" style="mask-type:luminance" maskUnits="userSpaceOnUse" x="0" y="101" width="34" height="8">
<path d="M17.0488 101.078C7.7543 100.807 0.170357 102.276 0.109633 104.359C0.048909 106.442 7.5344 108.351 16.8289 108.622C26.1235 108.893 33.7074 107.424 33.7682 105.341C33.8289 103.258 26.3434 101.349 17.0488 101.078Z" fill="white"/>
</mask>
<g mask="url(#mask45_2940_65687)">
<path d="M16.9539 104.305C15.8181 104.272 14.8903 104.49 14.8815 104.791C14.8727 105.093 15.7863 105.364 16.9221 105.397C18.0578 105.43 18.9856 105.213 18.9944 104.911C19.0032 104.61 18.0896 104.338 16.9539 104.305Z" fill="#D2D2D2"/>
</g>
<mask id="mask46_2940_65687" style="mask-type:luminance" maskUnits="userSpaceOnUse" x="0" y="101" width="34" height="8">
<path d="M17.0488 101.078C7.75429 100.807 0.170354 102.276 0.109631 104.359C0.0489082 106.442 7.5344 108.351 16.8289 108.622C26.1235 108.893 33.7074 107.424 33.7682 105.341C33.8289 103.258 26.3434 101.349 17.0488 101.078Z" fill="white"/>
</mask>
<g mask="url(#mask46_2940_65687)">
<path d="M16.9527 104.414C16.0431 104.388 15.3 104.562 15.293 104.803C15.286 105.044 16.0176 105.261 16.9272 105.288C17.8368 105.314 18.5799 105.14 18.587 104.899C18.594 104.658 17.8623 104.441 16.9527 104.414Z" fill="#D1D1D1"/>
</g>
<mask id="mask47_2940_65687" style="mask-type:luminance" maskUnits="userSpaceOnUse" x="0" y="101" width="34" height="8">
<path d="M17.0488 101.078C7.7543 100.807 0.170361 102.276 0.109636 104.359C0.0489102 106.442 7.5344 108.351 16.8289 108.622C26.1235 108.893 33.7074 107.424 33.7682 105.341C33.8289 103.258 26.3434 101.349 17.0488 101.078Z" fill="white"/>
</mask>
<g mask="url(#mask47_2940_65687)">
<path d="M16.9492 104.518C16.2632 104.498 15.7028 104.631 15.6974 104.814C15.6921 104.998 16.2438 105.163 16.9298 105.183C17.6158 105.203 18.1762 105.07 18.1816 104.887C18.1869 104.703 17.6351 104.538 16.9492 104.518Z" fill="#D0D0D0"/>
</g>
<mask id="mask48_2940_65687" style="mask-type:luminance" maskUnits="userSpaceOnUse" x="0" y="101" width="34" height="8">
<path d="M17.0488 101.078C7.7543 100.807 0.170358 102.276 0.109634 104.359C0.0489094 106.442 7.5344 108.351 16.8289 108.622C26.1235 108.893 33.7074 107.424 33.7682 105.341C33.8289 103.258 26.3434 101.349 17.0488 101.078Z" fill="white"/>
</mask>
<g mask="url(#mask48_2940_65687)">
<path d="M16.946 104.629C16.4862 104.616 16.1105 104.705 16.1069 104.828C16.1034 104.951 16.4732 105.062 16.933 105.075C17.3929 105.089 17.7685 105 17.7721 104.877C17.7757 104.754 17.4059 104.643 16.946 104.629Z" fill="#CFCFCF"/>
</g>
<mask id="mask49_2940_65687" style="mask-type:luminance" maskUnits="userSpaceOnUse" x="0" y="101" width="34" height="8">
<path d="M17.0488 101.078C7.75429 100.807 0.170348 102.276 0.109627 104.359C0.0489066 106.443 7.5344 108.351 16.8289 108.622C26.1235 108.893 33.7074 107.424 33.7681 105.341C33.8289 103.258 26.3434 101.349 17.0488 101.078Z" fill="white"/>
</mask>
<g mask="url(#mask49_2940_65687)">
<path d="M16.9429 104.739C16.7092 104.732 16.5183 104.777 16.5165 104.84C16.5146 104.903 16.7026 104.959 16.9363 104.966C17.1699 104.973 17.3609 104.928 17.3627 104.865C17.3645 104.802 17.1766 104.746 16.9429 104.739Z" fill="#CECECE"/>
</g>
</svg>
