<svg width="208" height="186" viewBox="0 0 208 186" fill="none" xmlns="http://www.w3.org/2000/svg">
<g opacity="0.41">
<path d="M198.474 103.992C198.662 101.257 198.578 98.5107 198.214 95.7908C196.502 83.0112 188.75 70.9605 177.341 62.4576C173.271 59.4243 168.64 56.7066 165.991 52.7024C161.53 45.9591 161.868 38.2093 156.331 31.5513C150.788 24.8855 142.711 19.6872 133.602 17.0173C106.442 9.05724 68.4164 22.0179 71.84 49.6958C71.8523 49.7952 71.8655 49.9395 71.88 50.122C72.3352 55.8712 67.0002 60.7052 60.2104 60.8414C35.1516 61.3444 13.5813 77.6856 8.96559 98.3853C5.99721 111.697 10.8577 126.288 22.3706 135.706C30.9648 142.735 42.4953 146.597 54.0316 149.251C77.1623 154.571 101.503 155.686 125.353 153.652C147.677 151.748 171.227 146.319 185.665 131.792C193.368 124.042 197.78 114.104 198.474 103.992Z" fill="#E1E2FE"/>
</g>
<g opacity="0.31">
<path d="M85.916 14.6627C88.8951 13.4815 90.3193 10.1902 89.097 7.31125C87.8747 4.43233 84.4688 3.05605 81.4898 4.23724C78.5107 5.41843 77.0866 8.7098 78.3088 11.5887C79.5311 14.4677 82.937 15.8439 85.916 14.6627Z" fill="#E1E2FE"/>
</g>
<g opacity="0.31">
<path d="M162.479 8.91979C164.14 8.91979 165.487 7.61821 165.487 6.01263C165.487 4.40705 164.14 3.10547 162.479 3.10547C160.818 3.10547 159.471 4.40705 159.471 6.01263C159.471 7.61821 160.818 8.91979 162.479 8.91979Z" fill="#E1E2FE"/>
</g>
<g opacity="0.31">
<path d="M59.3008 24.652C60.7789 23.0431 60.6274 20.581 58.9626 19.1526C57.2978 17.7243 54.75 17.8706 53.2719 19.4795C51.7939 21.0883 51.9453 23.5505 53.6101 24.9788C55.275 26.4072 57.8228 26.2609 59.3008 24.652Z" fill="#E1E2FE"/>
</g>
<g opacity="0.31">
<path d="M9.80336 172.212C14.8724 172.212 18.9817 168.241 18.9817 163.342C18.9817 158.444 14.8724 154.473 9.80336 154.473C4.73429 154.473 0.625 158.444 0.625 163.342C0.625 168.241 4.73429 172.212 9.80336 172.212Z" fill="#E1E2FE"/>
</g>
<path opacity="0.47" d="M199.203 25.7003C201.819 20.7752 199.808 14.7329 194.712 12.2042C189.615 9.67597 179.822 9.86203 177.205 14.7871C174.588 19.7122 182.433 23.9392 185.631 28.532C190.092 34.9381 196.586 30.6254 199.203 25.7003Z" fill="#ECF1F7"/>
<path opacity="0.47" d="M176.918 177.078C180.605 179.378 185.524 178.355 187.905 174.791C190.285 171.227 190.88 163.998 187.192 161.697C183.505 159.397 179.577 164.856 175.711 166.864C170.319 169.666 173.23 174.777 176.918 177.078Z" fill="#E1E2FE"/>
<path opacity="0.47" d="M26.4079 3.10198C22.3518 -0.538007 16.0107 -0.311249 12.2441 3.60848C8.47747 7.52821 6.09505 16.3794 10.1511 20.0194C14.2072 23.6594 20.3268 17.7145 25.5838 16.0412C32.9161 13.707 30.464 6.74198 26.4079 3.10198Z" fill="#E1E2FE"/>
<path opacity="0.47" d="M4.05032 45.4144C0.434583 53.0004 -0.553121 61.7461 1.18194 69.9221C3.22138 79.534 9.41383 86.9187 7.26518 97.1728C5.95643 103.419 5.6288 109.205 4.96521 115.385C3.60252 128.075 12.1283 139.256 22.7053 145.294C31.2959 150.198 41.3673 152.038 51.2439 151.907C60.1332 151.789 69.0068 150.203 77.6207 148.07C85.9218 146.014 94.038 143.306 102.739 144.16C109.976 144.871 116.493 147.895 123.233 150.149C139.322 155.531 158.813 156.29 173.526 148.097C182.968 142.838 189.577 134.298 192.508 125.117C194.851 117.779 195.148 110.918 193.393 103.427C191.59 95.7356 188.546 87.9821 189.491 79.9681C190.15 74.3835 192.793 68.9934 192.309 63.3923C191.987 59.6705 190.291 56.1788 188.218 53.0275C180.647 41.5205 167.97 33.8163 154.56 29.5715C141.941 25.5767 128.926 22.6835 115.788 23.6448C88.6236 25.6318 83.0859 21.4624 55.325 15.7244C37.4029 12.02 17.3554 25.2249 6.86782 40.5224C5.79766 42.0817 4.85864 43.719 4.05032 45.4144Z" fill="#E1E2FE"/>
<path opacity="0.81" d="M22.7403 53.7579C22.1833 59.2018 24.2973 64.8118 22.5298 70.2031C20.4141 76.6576 14.29 81.4924 11.7936 87.8296C8.1046 97.1938 8.28179 107.687 12.7615 116.812C14.9207 121.209 18.0746 125.296 22.3816 128.123C29.0214 132.48 37.7212 133.436 45.9031 132.883C58.0801 132.06 70.9291 127.482 83.1723 128.731C89.9283 129.42 91.9915 135.77 95.4809 139.959C99.4273 144.697 104.802 148.418 110.743 150.896C121.687 155.458 134.821 155.89 146.006 151.753C157.947 147.336 168.356 136.55 167.671 124.352C167.355 118.709 164.754 113.103 165.958 107.558C167.469 100.599 173.506 94.2581 177.881 88.5883C182.713 82.3266 185.638 74.8593 186.211 67.2412C186.218 67.1547 186.224 67.0683 186.23 66.9822C187.127 53.8398 177.583 41.8534 163.182 37.7404L132.541 28.9886C101.452 20.1082 70.3887 20.4019 41.8028 33.4342C35.6169 36.2544 25.5447 44.6568 23.4701 50.4508C23.0789 51.544 22.8539 52.6475 22.7403 53.7579Z" fill="#E2F5FB"/>
<path opacity="0.58" d="M193.56 154.604C194.65 154.604 195.533 153.75 195.533 152.696C195.533 151.643 194.65 150.789 193.56 150.789C192.47 150.789 191.586 151.643 191.586 152.696C191.586 153.75 192.47 154.604 193.56 154.604Z" fill="#FDBBA0"/>
<path opacity="0.58" d="M102.388 5.95329C103.478 5.95329 104.361 5.09936 104.361 4.04598C104.361 2.9926 103.478 2.13867 102.388 2.13867C101.298 2.13867 100.414 2.9926 100.414 4.04598C100.414 5.09936 101.298 5.95329 102.388 5.95329Z" fill="#FDBBA0"/>
<path opacity="0.58" d="M31.0869 172.193C32.177 172.193 33.0606 171.339 33.0606 170.285C33.0606 169.232 32.177 168.378 31.0869 168.378C29.9969 168.378 29.1133 169.232 29.1133 170.285C29.1133 171.339 29.9969 172.193 31.0869 172.193Z" fill="#FDBBA0"/>
<path opacity="0.58" d="M155.66 179.789C156.508 179.789 157.195 179.125 157.195 178.306C157.195 177.486 156.508 176.822 155.66 176.822C154.812 176.822 154.125 177.486 154.125 178.306C154.125 179.125 154.812 179.789 155.66 179.789Z" fill="#B7E3C0"/>
<path opacity="0.58" d="M2.59865 148.478C3.68867 148.478 4.57231 147.624 4.57231 146.57C4.57231 145.517 3.68867 144.663 2.59865 144.663C1.50863 144.663 0.625 145.517 0.625 146.57C0.625 147.624 1.50863 148.478 2.59865 148.478Z" fill="#B7E3C0"/>
<path opacity="0.58" d="M144.736 10.9327C145.584 10.9327 146.271 10.2686 146.271 9.44928C146.271 8.62999 145.584 7.96582 144.736 7.96582C143.888 7.96582 143.201 8.62999 143.201 9.44928C143.201 10.2686 143.888 10.9327 144.736 10.9327Z" fill="#FDBBA0"/>
<path opacity="0.58" d="M41.445 25.5284C41.8083 25.5284 42.1029 25.2437 42.1029 24.8926C42.1029 24.5415 41.8083 24.2568 41.445 24.2568C41.0817 24.2568 40.7871 24.5415 40.7871 24.8926C40.7871 25.2437 41.0817 25.5284 41.445 25.5284Z" fill="#FDBBA0"/>
<path opacity="0.58" d="M198.569 43.9341C198.296 45.1713 197.036 45.9597 195.756 45.6956C194.476 45.4316 193.66 44.2143 193.934 42.9775C194.207 41.7403 195.466 40.9519 196.746 41.216C198.026 41.48 198.843 42.6969 198.569 43.9341Z" fill="#B7E3C0"/>
<path opacity="0.58" d="M35.8523 7.03904C35.7452 7.52435 35.2514 7.83333 34.7492 7.72991C34.247 7.62649 33.9273 7.14924 34.0343 6.66394C34.1413 6.17863 34.6352 5.86965 35.1374 5.97307C35.6395 6.07649 35.9597 6.55374 35.8523 7.03904Z" fill="#B7E3C0"/>
<path opacity="0.58" d="M183.991 3.26599C183.899 3.67839 183.48 3.94118 183.053 3.85302C182.626 3.76486 182.354 3.35923 182.445 2.94683C182.537 2.53443 182.956 2.27165 183.383 2.35981C183.81 2.44797 184.082 2.85359 183.991 3.26599Z" fill="#FDBBA0"/>
<path opacity="0.58" d="M16.8636 185.361C16.7723 185.773 16.3526 186.036 15.9259 185.948C15.4991 185.86 15.2272 185.454 15.3184 185.042C15.4096 184.629 15.8294 184.366 16.2561 184.455C16.6829 184.543 16.9548 184.948 16.8636 185.361Z" fill="#FDBBA0"/>
<path d="M207.031 94.3809L183.284 133.16C182.075 135.134 179.485 135.757 177.506 134.545L131.51 106.379C129.53 105.167 128.913 102.58 130.122 100.606L153.869 61.8269C155.081 59.8475 157.665 59.2214 159.645 60.4335L205.641 88.5996C207.62 89.8117 208.243 92.4015 207.031 94.3809Z" fill="#FE8C00"/>
<path d="M176.603 105.521C181.037 101.087 181.037 93.8977 176.603 89.4636C172.169 85.0296 164.98 85.0296 160.546 89.4636C156.112 93.8977 156.112 101.087 160.546 105.521C164.98 109.955 172.169 109.955 176.603 105.521Z" fill="white"/>
<path d="M171.866 101.075L164.898 101.152C163.656 101.164 162.885 99.8056 163.534 98.7463L167.403 92.4279C168.052 91.3687 169.612 91.4374 170.166 92.5492L173.265 98.7909C173.779 99.8337 173.029 101.059 171.866 101.075Z" fill="#FE8C00"/>
<path d="M129.013 45.8056L139.909 83.2566C140.422 85.0214 139.403 86.8765 137.638 87.39L86.0567 102.397C84.2919 102.91 82.4368 101.892 81.9233 100.127L71.0275 62.6757C70.5141 60.9109 71.533 59.0558 73.2978 58.5424L124.88 43.5354C126.644 43.0218 128.5 44.0408 129.013 45.8056Z" fill="#22C08B"/>
<path d="M129.506 77.8412L87.7988 89.9754L96.6085 73.9281L106.259 78.0979L112.065 64.2412L129.506 77.8412Z" fill="white"/>
<path d="M105.965 70.1797C106.596 68.4758 105.726 66.5832 104.022 65.9523C102.318 65.3215 100.425 66.1914 99.7946 67.8953C99.1637 69.5992 100.034 71.4919 101.738 72.1227C103.441 72.7535 105.334 71.8836 105.965 70.1797Z" fill="white"/>
<path d="M37.8465 143.674L93.4262 115.832L79.7877 76.5773C79.0743 74.5216 76.7171 73.5613 74.7704 74.5365L25.6897 99.123C24.0723 99.9332 23.3029 101.82 23.9015 103.528L37.8465 143.674Z" fill="#52CDEE"/>
<path d="M65.6953 69.2675L86.6506 111.099C87.4601 112.715 86.8084 114.684 85.189 115.495L42.9333 136.663C41.3174 137.472 39.3505 136.815 38.541 135.199L17.5857 93.3676C16.7761 91.7517 17.4296 89.7866 19.0456 88.9771L61.3012 67.8094C62.9207 66.9982 64.8858 67.6516 65.6953 69.2675Z" fill="#C8F2FD"/>
<path d="M60.5674 75.0646L24.2559 93.2549L24.6929 94.1272L61.0044 75.9369L60.5674 75.0646Z" fill="#52B3CD"/>
<path d="M62.4522 78.8243L26.1406 97.0146L26.5776 97.887L62.8892 79.6967L62.4522 78.8243Z" fill="#52B3CD"/>
<path d="M64.337 82.588L28.0254 100.778L28.4624 101.651L64.774 83.4603L64.337 82.588Z" fill="#52B3CD"/>
<path d="M66.2217 86.3478L29.9102 104.538L30.3472 105.41L66.6587 87.2201L66.2217 86.3478Z" fill="#52B3CD"/>
<path d="M68.1065 90.1124L31.7949 108.303L32.2319 109.175L68.5435 90.9848L68.1065 90.1124Z" fill="#52B3CD"/>
<path d="M8.22293 108.167L33.6293 145.786L93.426 115.831L72.5449 84.9126C71.6065 83.523 69.7827 83.0452 68.2834 83.7963L43.79 96.0661C42.8403 96.5419 41.7207 96.5372 40.775 96.0535L33.9721 92.5746C33.0263 92.091 31.9068 92.0864 30.9571 92.5621L9.49414 103.314C7.69266 104.216 7.09529 106.497 8.22293 108.167Z" fill="#52B3CD"/>
<path d="M191.888 141.982C191.888 157.729 179.087 170.53 163.313 170.53H40.2863C28.0085 170.53 18.043 160.564 18.043 148.286C18.043 135.981 28.0084 126.015 40.2863 126.015C41.773 126.015 43.2041 126.153 44.5806 126.428C44.1404 124.392 43.9199 122.244 43.9199 120.069C43.9199 103.441 57.382 89.9522 74.0368 89.9522C79.7627 89.9522 85.1035 91.5491 89.6458 94.302C95.2067 82.3818 107.319 74.123 121.359 74.123C140.685 74.123 156.348 89.7869 156.348 109.085C156.348 110.874 156.211 112.635 155.935 114.371C158.303 113.738 160.753 113.407 163.313 113.407C179.087 113.407 191.888 126.208 191.888 141.982Z" fill="#EAE8FE"/>
<path d="M191.886 141.981C191.886 157.731 179.087 170.53 163.311 170.53H40.2881C28.0064 170.53 18.0391 160.562 18.0391 148.287C18.0391 148.188 18.0391 148.082 18.0457 147.982C18.1851 159.024 27.1974 167.943 38.2788 167.943H150.194C164.544 167.943 176.19 156.298 176.19 141.974C176.19 127.623 164.544 115.985 150.194 115.985C147.866 115.985 145.631 116.283 143.482 116.86C143.728 115.282 143.854 113.677 143.854 112.052C143.854 94.4916 129.609 80.2469 112.029 80.2469C106.571 80.2469 101.431 81.6197 96.942 84.0404C103.249 77.9062 111.863 74.126 121.359 74.126C140.684 74.126 156.348 89.7899 156.348 109.088C156.348 110.878 156.208 112.636 155.937 114.373C158.304 113.736 160.751 113.405 163.311 113.405C179.087 113.405 191.886 126.211 191.886 141.981Z" fill="#D7DAF4"/>
<path d="M18.0391 147.71C18.0391 143.685 19.2129 139.938 21.2289 136.788C19.2527 140.064 18.0988 143.891 18.0457 147.982C18.0391 147.889 18.0391 147.803 18.0391 147.71Z" fill="#EAE8FE"/>
<path d="M120.355 125.218H114.182C113.326 125.218 112.623 125.894 112.589 126.749L109.947 160.339H95.8314L93.1984 126.749C93.1648 125.894 92.4618 125.218 91.606 125.218H85.4129C84.1026 125.218 83.3523 123.725 84.1342 122.673L101.605 99.1808C102.243 98.3239 103.526 98.3239 104.163 99.1808L121.634 122.673C122.416 123.725 121.665 125.218 120.355 125.218Z" fill="#FE8C00"/>
<path d="M23.728 59.1953C35.728 59.1953 45.456 49.4673 45.456 37.4673C45.456 25.4672 35.728 15.7393 23.728 15.7393C11.728 15.7393 2 25.4672 2 37.4673C2 49.4673 11.728 59.1953 23.728 59.1953Z" fill="#CBF3C1"/>
<path d="M30.2729 59.1953C42.273 59.1953 52.0009 49.4673 52.0009 37.4673C52.0009 25.4672 42.273 15.7393 30.2729 15.7393C18.2729 15.7393 8.54492 25.4672 8.54492 37.4673C8.54492 49.4673 18.2729 59.1953 30.2729 59.1953Z" fill="#66D64A"/>
<path d="M29.8032 49.2379C28.7674 49.2379 27.7787 48.8024 27.0724 48.0256L19.3864 39.5392C18.7273 38.8094 18.7744 37.6795 19.5159 37.0203C20.2457 36.3612 21.3756 36.4083 22.0347 37.1498L29.7208 45.6362C29.7325 45.648 29.7679 45.6833 29.8267 45.6715C29.8856 45.6597 29.9091 45.6244 29.9091 45.6009L38.1836 26.7684C38.5838 25.8621 39.6314 25.4501 40.5377 25.8503C41.444 26.2505 41.856 27.298 41.4558 28.2044L33.1812 47.0369C32.6751 48.1904 31.6393 48.9907 30.4035 49.1908C30.2034 49.2261 30.0032 49.2379 29.8032 49.2379Z" fill="white"/>
</svg>
