<svg width="220" height="199" viewBox="0 0 220 199" fill="none" xmlns="http://www.w3.org/2000/svg">
<path d="M205.978 89.7128C205.978 89.7128 197.834 87.6017 198.952 83.1708C200.003 78.9652 205.419 83.0206 203.249 85.3988C200.103 88.8617 194.246 83.8968 194.129 80.3838" stroke="#DD7619" stroke-width="1.2" stroke-miterlimit="10"/>
<path d="M169.976 45.8608L164.355 44.7314L163.828 47.3575L169.448 48.4868L169.976 45.8608Z" fill="#48E54B"/>
<path d="M184.956 120.627L175.99 118.825L175.149 123.014L184.115 124.815L184.956 120.627Z" fill="#FCE435"/>
<path d="M132.963 19.6865C132.68 19.6865 125.662 24.4345 125.662 24.4345L127.223 27.0463L132.963 23.3664V19.6865Z" fill="#CF64E8"/>
<path d="M176.613 0.0185547L169.971 3.09764L170.705 5.70944L177.347 2.864L176.613 0.0185547Z" fill="#DD7619"/>
<path d="M46.7902 59.8818H41.625V62.9109H46.7902V59.8818Z" fill="#DD7619"/>
<path d="M106.678 1.62891L104.008 4.65793L110.058 9.23067L112.377 6.37688L106.678 1.62891Z" fill="#37B0B5"/>
<path d="M173.468 140.813L169.221 144.151L172.041 146.972L176.614 144.151L173.468 140.813Z" fill="#008EC6"/>
<path d="M213.852 64.8551L219.473 65.9844L220 63.3583L214.38 62.229L213.852 64.8551Z" fill="#48E54B"/>
<path d="M149.848 156.6L155.838 163.511L159.066 160.712L153.076 153.802L149.848 156.6Z" fill="#FCE435"/>
<path d="M211.184 127.855L213.854 124.834L207.804 120.262L205.484 123.107L211.184 127.855Z" fill="#37B0B5"/>
<path d="M48.7189 22.9492L49.837 20.7379L44.021 16.4238L42.4355 17.8007L48.7189 22.9492Z" fill="#CF64E8"/>
<path d="M24.7285 180.501L114.498 146.314L58.9156 90.7314L24.7285 180.501Z" fill="#F2ABF4"/>
<path d="M94.0992 111.13C78.7509 95.7819 62.9986 86.6496 58.9155 90.7328C54.8324 94.8159 63.9646 110.568 79.3129 125.916C94.6612 141.265 110.414 150.397 114.497 146.314C118.58 142.231 109.447 126.479 94.0992 111.13Z" fill="#9F52AA"/>
<path d="M60.9173 152.447C67.4343 155.542 73.8595 157.912 79.8258 159.523L72.8415 162.185C67.8516 160.649 62.6029 158.605 57.2959 156.085C50.103 152.664 43.6694 148.758 38.3457 144.745L40.2399 139.771C45.864 144.244 52.9234 148.642 60.9173 152.447Z" fill="#9057EA"/>
<path d="M72.049 141.273C83.3139 146.63 94.3286 149.809 103.099 150.627L95.0796 153.681C87.1524 152.363 77.8734 149.401 68.4108 144.903C58.6478 140.255 50.2784 134.723 44.1953 129.24L46.1646 124.059C52.3478 130.042 61.3681 136.191 72.049 141.273Z" fill="#9057EA"/>
<path d="M38.3892 175.01C38.5144 175.068 38.6396 175.126 38.7564 175.185L32.5315 177.555C30.6206 176.595 28.7681 175.61 26.9824 174.592L28.7681 169.895C31.7888 171.68 35.0014 173.399 38.3892 175.01Z" fill="#9057EA"/>
<path d="M50.0798 163.169C53.2506 164.68 56.4048 166.015 59.5006 167.175L52.9586 169.67C50.8057 168.793 48.6362 167.842 46.4499 166.799C41.4934 164.438 36.8956 161.851 32.7734 159.156L34.6092 154.324C39.1736 157.453 44.3889 160.457 50.0798 163.169Z" fill="#9057EA"/>
<path d="M84.0314 130.434C80.0178 129.258 75.8789 127.739 71.7318 125.87C63.4207 122.123 56.1861 117.509 50.5703 112.644L52.3727 107.904C58.1804 113.278 65.9825 118.427 75.0779 122.515C75.6119 122.757 76.1376 122.983 76.6716 123.216C77.5311 124.117 78.4073 125.019 79.3085 125.92C80.8856 127.497 82.4627 128.999 84.0314 130.434Z" fill="#9057EA"/>
<path d="M61.2031 20.8794C61.2031 20.8794 61.395 19.5276 67.0442 21.0463C72.6934 22.565 79.6526 26.6705 77.6333 32.0693C77.6333 32.0693 74.2037 25.0516 67.6534 23.7332" fill="#EA4949"/>
<path d="M77.1234 8.66339C77.1234 8.66339 76.1888 6.16007 65.3077 9.52287L64.9238 11.3753C64.9238 11.3753 72.3086 9.623 75.7549 11.1834" fill="#EA4949"/>
<path d="M78.1176 19.6859C78.1176 19.6859 77.8005 16.3398 64.9668 15.9643L65.8513 13.7614C65.8513 13.7614 78.3763 13.5444 79.2942 17.0825L78.1176 19.6859Z" fill="#EA4949"/>
<path d="M79.4021 16.7822C79.3437 17.9838 79.2185 18.9017 79.2185 19.4524C79.2018 22.8069 73.2606 24.7261 69.7309 24.8513C67.8367 24.918 65.8758 24.8513 64.0233 24.3673C63.1054 24.1253 62.0707 23.8499 61.3197 23.2575C60.8441 22.8903 60.7773 22.7986 60.8191 22.1978C60.8274 22.106 61.253 20.8793 61.2029 20.8626C61.2029 20.8626 66.8604 23.0489 72.6348 21.3633C77.2909 20.0282 78.7095 18.3844 79.4021 16.7822Z" fill="#FF6A6A"/>
<path d="M63.4062 13.6283L63.8151 16.1734C63.8151 16.1734 68.246 17.6253 77.308 12.1764L77.1578 8.41309C77.1578 8.41309 73.286 11.9595 63.4062 13.6283Z" fill="#FF6A6A"/>
<path d="M71.0488 9.08901L70.6983 5.79297C70.6983 5.79297 69.5218 7.38675 67.1436 8.25457C64.7738 9.12239 64.707 8.99723 64.707 8.99723L64.8489 11.5673C64.8572 11.5673 67.953 11.1584 71.0488 9.08901Z" fill="#FF6A6A"/>
<path d="M78.1594 29.3242L77.7756 32.1613C77.7756 32.1613 76.3988 34.6813 72.043 33.5799L72.4936 31.2017C72.4852 31.2017 77.6421 32.2281 78.1594 29.3242Z" fill="#FF6A6A"/>
<path d="M127.656 101.195C127.656 101.195 128.491 100.118 123.484 97.1061C118.469 94.0854 110.684 91.9242 108.197 97.1228C108.197 97.1228 115.632 94.7279 121.123 98.533" fill="#EA4949"/>
<path d="M125.413 81.2513C125.413 81.2513 127.866 80.1915 132.989 90.355L131.921 91.9154C131.921 91.9154 128.066 85.3734 124.545 83.9799" fill="#EA4949"/>
<path d="M116.775 88.1775C116.775 88.1775 119.404 86.0914 128.574 95.07L129.542 92.9005C129.542 92.9005 121.006 83.7216 117.818 85.5157L116.775 88.1775Z" fill="#EA4949"/>
<path d="M117.977 85.248C117.16 86.1242 116.575 86.8502 116.183 87.234C113.78 89.5704 116.517 95.1862 118.87 97.8147C120.139 99.2249 121.549 100.593 123.176 101.595C123.985 102.087 124.903 102.638 125.854 102.78C126.447 102.863 126.564 102.855 126.964 102.404C127.023 102.337 127.615 101.186 127.657 101.203C127.657 101.203 122.158 98.6492 119.363 93.3171C117.11 89.0114 117.301 86.8502 117.977 85.248Z" fill="#FF6A6A"/>
<path d="M131.345 94.5775L129.225 96.0461C129.225 96.0461 125.103 93.8599 122.75 83.5546L125.562 81.0596C125.562 81.0512 125.696 86.2999 131.345 94.5775Z" fill="#FF6A6A"/>
<path d="M129.309 85.9247L131.929 83.8887C131.929 83.8887 131.603 85.8413 132.621 88.1527C133.639 90.4641 133.781 90.4224 133.781 90.4224L131.829 92.0996C131.82 92.1079 129.968 89.5879 129.309 85.9247Z" fill="#FF6A6A"/>
<path d="M109.808 94.8359L108.022 97.0806C108.022 97.0806 107.163 99.8176 110.976 102.196L112.378 100.218C112.387 100.226 108.072 97.2224 109.808 94.8359Z" fill="#FF6A6A"/>
<path d="M194.446 47.448C194.446 47.448 195.297 46.7054 191.05 45.9961C186.802 45.2868 179.968 45.5622 177.248 48.8666C177.248 48.8666 184.182 46.163 188.788 47.2227" fill="#C67F4A"/>
<path d="M194.229 36.9756C194.229 36.9756 199.703 33.5878 203.408 38.1772L202.307 39.2286C202.307 39.2286 200.446 34.8228 193.203 38.6278" fill="#C67F4A"/>
<path d="M185.809 42.3745C185.809 42.3745 188.37 40.739 195.839 43.9266L196.915 42.5664C196.915 42.5664 190.039 39.1536 187.002 40.7307L185.809 42.3745Z" fill="#C67F4A"/>
<path d="M187.161 40.5469C186.344 41.1811 185.751 41.6817 185.359 41.9654C182.972 43.6927 184.942 46.2461 186.828 47.2391C187.846 47.7731 188.989 48.2571 190.374 48.4991C191.058 48.6159 191.834 48.7494 192.685 48.641C193.211 48.5742 193.319 48.5492 193.72 48.2321C193.787 48.182 194.421 47.4394 194.454 47.4477C194.454 47.4477 189.723 47.0806 187.679 44.6941C186.035 42.7665 186.402 41.5482 187.161 40.5469Z" fill="#FF9522"/>
<path d="M198.384 43.1418L196.34 44.3351C196.34 44.3351 192.818 43.9095 191.625 38.7276L194.395 36.8418C194.387 36.8418 194.028 39.6789 198.384 43.1418Z" fill="#FF9522"/>
<path d="M86.785 61.7168H79.1582L80.9773 75.5518H84.1231L86.785 61.7168Z" fill="#31BBC2"/>
<path d="M166.693 60.9829L162.479 56.7773L155.854 65.4138L157.589 67.1495L166.693 60.9829Z" fill="#FCC300"/>
<path d="M150.646 88.6364L148.744 83.0039L138.973 87.8186L139.757 90.1384L150.646 88.6364Z" fill="#21CCFF"/>
<path d="M191.725 70.7043L189.814 65.0635L180.043 69.8782L180.827 72.198L191.725 70.7043Z" fill="#F92828"/>
<path d="M109.899 135.131L108.956 129.257L98.5176 132.361L98.9014 134.781L109.899 135.131Z" fill="#F92828"/>
<path d="M169.513 105.75L168.57 99.876L158.131 102.98L158.515 105.4L169.513 105.75Z" fill="#71C405"/>
<path d="M74.4197 99.4756L68.4785 99.7426L70.381 110.465L72.826 110.357L74.4197 99.4756Z" fill="#A9FF39"/>
<path d="M95.8655 94.8031L90.0328 93.6182L89.2734 104.483L91.6766 104.975L95.8655 94.8031Z" fill="#FF9900"/>
<path d="M147.893 36.4922C147.893 36.4922 146.299 39.613 147.893 43.0759C149.487 46.5389 146.566 47.415 144.964 49.3676C143.37 51.3202 147.359 55.0168 144.964 56.8943C142.569 58.7718 139.907 58.5048 142.035 64.0955" stroke="#FF3E55" stroke-width="1.2" stroke-miterlimit="10" stroke-linecap="round"/>
<path d="M90.7074 24.8604C90.7074 24.8604 89.1136 27.9812 90.7074 31.4441C92.3012 34.907 89.3806 35.7832 87.7785 37.7358C86.1847 39.6884 90.1733 43.385 87.7785 45.2624C85.3836 47.1399 82.7218 46.8729 84.8496 52.4637" stroke="#2BBBF3" stroke-width="1.2" stroke-miterlimit="10" stroke-linecap="round"/>
<path d="M119.871 123.616C119.871 123.616 123.059 125.084 126.446 123.349C129.834 121.613 130.836 124.5 132.855 126.019C134.874 127.538 138.404 123.399 140.373 125.71C142.351 128.03 142.192 130.692 147.683 128.339" stroke="#FF4859" stroke-width="1.2" stroke-miterlimit="10" stroke-linecap="round"/>
<path d="M172.916 91.1977C172.916 91.1977 176.104 92.6663 179.491 90.9307C182.879 89.195 183.881 92.0822 185.9 93.6009C187.919 95.1196 191.449 90.9807 193.418 93.2921C195.396 95.6119 195.237 98.2738 200.728 95.9206" stroke="#A9FF39" stroke-width="1.2" stroke-miterlimit="10" stroke-linecap="round"/>
<path d="M57.4961 70.6709C57.4961 70.6709 57.8215 74.1589 61.0258 76.2199C64.23 78.281 62.2357 80.5924 61.9353 83.1041C61.6349 85.6074 66.992 86.5837 65.974 89.4542C64.9644 92.3247 62.5778 93.5263 67.3675 97.0977" stroke="#AEFF45" stroke-width="1.2" stroke-miterlimit="10" stroke-linecap="round"/>
<path d="M103.4 51.3701C103.4 51.3701 101.931 54.5577 103.667 57.9455C105.402 61.3333 102.515 62.3347 101.005 64.354C99.4861 66.3734 103.633 69.9031 101.314 71.8723C99.0022 73.85 96.332 73.6914 98.6851 79.1904" stroke="#8568FF" stroke-width="1.2" stroke-miterlimit="10" stroke-linecap="round"/>
<path d="M117.953 66.7909C119.442 66.7909 120.648 65.5842 120.648 64.0956C120.648 62.6071 119.442 61.4004 117.953 61.4004C116.465 61.4004 115.258 62.6071 115.258 64.0956C115.258 65.5842 116.465 66.7909 117.953 66.7909Z" fill="#FF9900"/>
<path d="M147.691 115.48C149.18 115.48 150.387 114.274 150.387 112.785C150.387 111.297 149.18 110.09 147.691 110.09C146.203 110.09 144.996 111.297 144.996 112.785C144.996 114.274 146.203 115.48 147.691 115.48Z" fill="#FF9900"/>
<path d="M89.2734 120.462C90.7619 120.462 91.9686 119.255 91.9686 117.767C91.9686 116.278 90.7619 115.071 89.2734 115.071C87.7848 115.071 86.5781 116.278 86.5781 117.767C86.5781 119.255 87.7848 120.462 89.2734 120.462Z" fill="#31BBC2"/>
<path d="M57.498 47.0389C58.9865 47.0389 60.1932 45.8322 60.1932 44.3437C60.1932 42.8551 58.9865 41.6484 57.498 41.6484C56.0094 41.6484 54.8027 42.8551 54.8027 44.3437C54.8027 45.8322 56.0094 47.0389 57.498 47.0389Z" fill="#FFE500"/>
<path d="M158.297 31.5692C159.785 31.5692 160.992 30.3625 160.992 28.874C160.992 27.3854 159.785 26.1787 158.297 26.1787C156.808 26.1787 155.602 27.3854 155.602 28.874C155.602 30.3625 156.808 31.5692 158.297 31.5692Z" fill="#21CCFF"/>
<path d="M109.9 124.493C111.37 124.493 112.562 123.301 112.562 121.831C112.562 120.361 111.37 119.169 109.9 119.169C108.43 119.169 107.238 120.361 107.238 121.831C107.238 123.301 108.43 124.493 109.9 124.493Z" fill="#7861FF"/>
<path d="M129.551 146.588C131.039 146.588 132.246 145.381 132.246 143.893C132.246 142.404 131.039 141.197 129.551 141.197C128.062 141.197 126.855 142.404 126.855 143.893C126.855 145.381 128.062 146.588 129.551 146.588Z" fill="#21CCFF"/>
<path d="M70.0979 72.7231C70.8445 72.7231 71.4497 72.1179 71.4497 71.3713C71.4497 70.6247 70.8445 70.0195 70.0979 70.0195C69.3513 70.0195 68.7461 70.6247 68.7461 71.3713C68.7461 72.1179 69.3513 72.7231 70.0979 72.7231Z" fill="#FF9B17"/>
<path d="M113.905 111.442C114.651 111.442 115.256 110.837 115.256 110.09C115.256 109.343 114.651 108.738 113.905 108.738C113.158 108.738 112.553 109.343 112.553 110.09C112.553 110.837 113.158 111.442 113.905 111.442Z" fill="#FF6A6A"/>
<path d="M108.19 34.5307C108.936 34.5307 109.541 33.9255 109.541 33.1789C109.541 32.4324 108.936 31.8271 108.19 31.8271C107.443 31.8271 106.838 32.4324 106.838 33.1789C106.838 33.9255 107.443 34.5307 108.19 34.5307Z" fill="#F92828"/>
<mask id="mask0_2940_60958" style="mask-type:luminance" maskUnits="userSpaceOnUse" x="0" y="183" width="62" height="15">
<path d="M31.0535 197.564C48.1003 197.564 61.9195 194.466 61.9195 190.646C61.9195 186.826 48.1003 183.729 31.0535 183.729C14.0067 183.729 0.1875 186.826 0.1875 190.646C0.1875 194.466 14.0067 197.564 31.0535 197.564Z" fill="white"/>
</mask>
<g mask="url(#mask0_2940_60958)">
<path d="M61.9195 183.729H0.1875V197.564H61.9195V183.729Z" fill="white"/>
</g>
<mask id="mask1_2940_60958" style="mask-type:luminance" maskUnits="userSpaceOnUse" x="0" y="183" width="62" height="15">
<path d="M31.0535 197.564C48.1003 197.564 61.9195 194.466 61.9195 190.646C61.9195 186.826 48.1003 183.729 31.0535 183.729C14.0067 183.729 0.1875 186.826 0.1875 190.646C0.1875 194.466 14.0067 197.564 31.0535 197.564Z" fill="white"/>
</mask>
<g mask="url(#mask1_2940_60958)">
<path d="M0.103843 189.578V193.474V195.027H-0.071393C0.0871509 195.093 0.245694 195.168 0.412582 195.235C1.72266 195.794 3.20797 196.32 4.86016 196.812C6.51235 197.305 8.32309 197.755 10.2673 198.164V197.647H59.2407V197.697C60 197.48 60.7093 197.246 61.3769 197.004C61.7107 196.887 62.0361 196.762 62.3448 196.637H62.0027V186.273H62.1779C62.0194 186.206 61.8609 186.131 61.694 186.065C60.3839 185.506 58.8986 184.98 57.2464 184.488C55.5942 183.995 53.7835 183.545 51.8392 183.136V183.653H2.86584V183.603C2.1065 183.82 1.39723 184.054 0.729674 184.296C0.395897 184.412 0.0704621 184.538 -0.238281 184.663H0.103843V189.578Z" fill="white"/>
</g>
<mask id="mask2_2940_60958" style="mask-type:luminance" maskUnits="userSpaceOnUse" x="0" y="183" width="62" height="15">
<path d="M31.0535 197.564C48.1003 197.564 61.9195 194.466 61.9195 190.646C61.9195 186.826 48.1003 183.729 31.0535 183.729C14.0067 183.729 0.1875 186.826 0.1875 190.646C0.1875 194.466 14.0067 197.564 31.0535 197.564Z" fill="white"/>
</mask>
<g mask="url(#mask2_2940_60958)">
<path d="M0.10364 189.594V193.408V194.501H-0.33027C-0.188415 194.576 -0.0382147 194.643 0.10364 194.71C0.404039 194.851 0.712781 194.985 1.02987 195.127C2.30656 195.677 3.76684 196.195 5.38565 196.67C7.00447 197.154 8.77349 197.597 10.6844 197.997V197.638H56.32V198.156C57.9638 197.772 59.4491 197.338 60.7592 196.862C61.4101 196.629 62.0275 196.378 62.5866 196.128H62.0025V186.774H62.4364C62.2946 186.699 62.1444 186.632 62.0025 186.565C61.7021 186.424 61.3934 186.29 61.0763 186.148C59.7996 185.597 58.3393 185.08 56.7205 184.604C55.1017 184.12 53.3327 183.678 51.4218 183.278V183.636H5.78619V183.119C4.14234 183.503 2.65703 183.937 1.34696 184.413C0.696091 184.646 0.0786071 184.897 -0.480469 185.147H0.10364V189.594Z" fill="#FEFEFE"/>
</g>
<mask id="mask3_2940_60958" style="mask-type:luminance" maskUnits="userSpaceOnUse" x="0" y="183" width="62" height="15">
<path d="M31.0535 197.564C48.1003 197.564 61.9195 194.466 61.9195 190.646C61.9195 186.826 48.1003 183.729 31.0535 183.729C14.0067 183.729 0.1875 186.826 0.1875 190.646C0.1875 194.466 14.0067 197.564 31.0535 197.564Z" fill="white"/>
</mask>
<g mask="url(#mask3_2940_60958)">
<path d="M0.104731 189.62V193.358V194.226H-0.0871945C0.446848 194.509 1.03096 194.785 1.65679 195.052C2.90845 195.586 4.33535 196.095 5.92078 196.57C7.50622 197.038 9.24187 197.48 11.1027 197.872V197.664H55.787V198.022C57.3975 197.647 58.8494 197.221 60.1345 196.762C60.777 196.529 61.3694 196.287 61.9202 196.036C62.0537 195.978 62.1955 195.911 62.3207 195.844H61.9869V187.083H62.1788C61.6448 186.799 61.0607 186.524 60.4349 186.257C59.1832 185.723 57.7563 185.214 56.1709 184.738C54.5854 184.262 52.8498 183.829 50.989 183.436V183.645H6.31297V183.286C4.7025 183.662 3.25057 184.087 1.96553 184.546C1.32301 184.78 0.730559 185.022 0.179828 185.272C0.0463172 185.331 -0.0955369 185.397 -0.220703 185.464H0.113073V189.62H0.104731Z" fill="#FDFDFD"/>
</g>
<mask id="mask4_2940_60958" style="mask-type:luminance" maskUnits="userSpaceOnUse" x="0" y="183" width="62" height="15">
<path d="M31.0535 197.564C48.1003 197.564 61.9195 194.466 61.9195 190.646C61.9195 186.826 48.1003 183.729 31.0535 183.729C14.0067 183.729 0.1875 186.826 0.1875 190.646C0.1875 194.466 14.0067 197.564 31.0535 197.564Z" fill="white"/>
</mask>
<g mask="url(#mask4_2940_60958)">
<path d="M0.103495 189.645V193.3V193.725H-0.171875C0.070113 193.867 0.320445 194.009 0.579122 194.142C1.10482 194.418 1.67224 194.685 2.28973 194.952C3.51636 195.478 4.91822 195.97 6.46193 196.437C8.014 196.896 9.70792 197.322 11.5353 197.705V197.655H55.2684V197.864C56.8455 197.497 58.2641 197.08 59.5241 196.629C60.1499 196.404 60.734 196.17 61.2764 195.92C61.5434 195.795 61.8021 195.669 62.0524 195.544H62.0107V187.575H62.2861C62.0441 187.434 61.7938 187.292 61.5351 187.158C61.0094 186.883 60.442 186.616 59.8245 186.349C58.5978 185.823 57.196 185.331 55.6523 184.863C54.1002 184.404 52.4063 183.979 50.5789 183.595V183.645H6.83743V183.437C5.26034 183.804 3.84179 184.221 2.58178 184.672C1.95595 184.897 1.37184 185.13 0.829455 185.381C0.562433 185.506 0.303758 185.631 0.0534252 185.756H0.0951473V189.645H0.103495Z" fill="#FDFDFD"/>
</g>
<mask id="mask5_2940_60958" style="mask-type:luminance" maskUnits="userSpaceOnUse" x="0" y="183" width="62" height="15">
<path d="M31.0535 197.564C48.1003 197.564 61.9195 194.466 61.9195 190.646C61.9195 186.826 48.1003 183.729 31.0535 183.729C14.0067 183.729 0.1875 186.826 0.1875 190.646C0.1875 194.466 14.0067 197.564 31.0535 197.564Z" fill="white"/>
</mask>
<g mask="url(#mask5_2940_60958)">
<path d="M0.104913 189.662V193.241H-0.162109C1.51512 194.368 3.96003 195.411 6.98906 196.312C8.50774 196.763 10.1683 197.18 11.954 197.555C12.8468 197.739 13.7731 197.923 14.7243 198.089V197.656H54.7358V197.706C57.8149 196.98 60.3182 196.087 62.0539 195.06H61.9954V188.068H62.2625C60.5852 186.941 58.1403 185.898 55.1113 184.997C53.5926 184.546 51.9321 184.129 50.1464 183.754C49.2535 183.57 48.3273 183.387 47.376 183.22V183.654H7.36455V183.604C4.28546 184.33 1.78214 185.222 0.046501 186.249H0.104913V189.662Z" fill="#FCFCFC"/>
</g>
<mask id="mask6_2940_60958" style="mask-type:luminance" maskUnits="userSpaceOnUse" x="0" y="183" width="62" height="15">
<path d="M31.0535 197.564C48.1003 197.564 61.9195 194.466 61.9195 190.646C61.9195 186.826 48.1003 183.729 31.0535 183.729C14.0067 183.729 0.1875 186.826 0.1875 190.646C0.1875 194.466 14.0067 197.564 31.0535 197.564Z" fill="white"/>
</mask>
<g mask="url(#mask6_2940_60958)">
<path d="M0.104716 189.687V191.481V192.774H-0.045488C0.138089 192.916 0.330013 193.05 0.530279 193.192C2.17413 194.293 4.56063 195.311 7.5229 196.187C9.0082 196.629 10.627 197.038 12.3793 197.406C13.2555 197.589 14.1567 197.764 15.0913 197.923V197.656H51.8568V198.048C52.6745 197.889 53.4673 197.723 54.2183 197.547C57.2306 196.838 59.6755 195.962 61.3778 194.961C61.8033 194.71 62.1788 194.452 62.5126 194.185H62.0119V188.535H62.1621C61.9786 188.394 61.7866 188.26 61.5864 188.118C59.9425 187.017 57.556 185.999 54.5938 185.123C53.1084 184.68 51.4896 184.271 49.7373 183.904C48.8611 183.721 47.9599 183.545 47.0254 183.387V183.654H10.2515V183.262C9.43377 183.42 8.64105 183.587 7.89005 183.762C4.87772 184.472 2.43281 185.348 0.730547 186.349C0.304982 186.599 -0.0705203 186.858 -0.404297 187.125H0.0963681V189.687H0.104716Z" fill="#FBFBFB"/>
</g>
<mask id="mask7_2940_60958" style="mask-type:luminance" maskUnits="userSpaceOnUse" x="0" y="183" width="62" height="15">
<path d="M31.0535 197.564C48.1003 197.564 61.9195 194.466 61.9195 190.646C61.9195 186.826 48.1003 183.729 31.0535 183.729C14.0067 183.729 0.1875 186.826 0.1875 190.646C0.1875 194.466 14.0067 197.564 31.0535 197.564Z" fill="white"/>
</mask>
<g mask="url(#mask7_2940_60958)">
<path d="M0.104908 189.711V191.464V191.889H-0.253906C-0.12874 192.031 0.0131181 192.173 0.171662 192.306C0.480405 192.582 0.830872 192.857 1.2314 193.124C2.83353 194.201 5.16996 195.194 8.06548 196.053C10.961 196.912 14.4239 197.647 18.2707 198.189V197.647H51.3897V197.872C52.1907 197.722 52.9584 197.555 53.7011 197.388C56.6467 196.696 59.0332 195.836 60.6937 194.86C61.1109 194.618 61.4781 194.359 61.8035 194.1C61.9621 193.967 62.1123 193.842 62.2541 193.708H62.0205V189.419H62.3793C62.2541 189.277 62.1123 189.135 61.9537 189.002C61.645 188.727 61.2945 188.451 60.894 188.184C59.2918 187.108 56.9554 186.115 54.0599 185.255C51.1644 184.396 47.7014 183.662 43.8547 183.119V183.662H10.7273V183.436C9.92628 183.586 9.1586 183.753 8.41594 183.92C5.47037 184.613 3.08386 185.472 1.42332 186.449C1.0061 186.691 0.63895 186.949 0.313518 187.208C0.154974 187.341 0.00477266 187.467 -0.137082 187.6H0.0965602V189.711H0.104908Z" fill="#FAFAFA"/>
</g>
<mask id="mask8_2940_60958" style="mask-type:luminance" maskUnits="userSpaceOnUse" x="0" y="183" width="62" height="15">
<path d="M31.0535 197.564C48.1003 197.564 61.9195 194.466 61.9195 190.646C61.9195 186.826 48.1003 183.729 31.0535 183.729C14.0067 183.729 0.1875 186.826 0.1875 190.646C0.1875 194.466 14.0067 197.564 31.0535 197.564Z" fill="white"/>
</mask>
<g mask="url(#mask8_2940_60958)">
<path d="M-0.454115 189.728C-0.470804 190.304 -0.27054 190.88 0.138337 191.439C0.538869 191.998 1.14801 192.54 1.93239 193.066C3.50114 194.117 5.77916 195.085 8.60792 195.928C11.4367 196.771 14.8162 197.48 18.5712 198.014V197.647H48.4775V198.114C50.1631 197.864 51.7319 197.564 53.1754 197.23C58.9247 195.878 62.5128 193.884 62.5796 191.564C62.5963 190.988 62.396 190.412 61.9871 189.853C61.5783 189.294 60.9775 188.752 60.1931 188.226C58.6243 187.175 56.3463 186.207 53.5176 185.364C50.6888 184.521 47.3093 183.812 43.5543 183.278V183.645H13.6396V183.178C11.954 183.428 10.3853 183.728 8.9417 184.062C3.20074 185.422 -0.387359 187.417 -0.454115 189.728Z" fill="#F9F9F9"/>
</g>
<mask id="mask9_2940_60958" style="mask-type:luminance" maskUnits="userSpaceOnUse" x="0" y="183" width="62" height="15">
<path d="M31.0535 197.564C48.1003 197.564 61.9195 194.466 61.9195 190.646C61.9195 186.826 48.1003 183.729 31.0535 183.729C14.0067 183.729 0.1875 186.826 0.1875 190.646C0.1875 194.466 14.0067 197.564 31.0535 197.564Z" fill="white"/>
</mask>
<g mask="url(#mask9_2940_60958)">
<path d="M0.288078 189.753C0.221323 192.014 3.60916 194.159 9.13316 195.803C11.8952 196.629 15.1912 197.322 18.8628 197.839V197.647H48.0599V197.939C49.7037 197.689 51.2391 197.405 52.6409 197.071C58.2484 195.753 61.753 193.809 61.8198 191.547C61.8866 189.286 58.4987 187.141 52.9747 185.497C50.2127 184.671 46.9167 183.979 43.2451 183.461V183.653H14.0564V183.361C12.4125 183.612 10.8771 183.895 9.47528 184.229C3.85949 185.539 0.354833 187.492 0.288078 189.753Z" fill="#F8F8F8"/>
</g>
<mask id="mask10_2940_60958" style="mask-type:luminance" maskUnits="userSpaceOnUse" x="0" y="183" width="62" height="15">
<path d="M31.0535 197.564C48.1003 197.564 61.9195 194.466 61.9195 190.646C61.9195 186.826 48.1003 183.729 31.0535 183.729C14.0067 183.729 0.1875 186.826 0.1875 190.646C0.1875 194.466 14.0067 197.564 31.0535 197.564Z" fill="white"/>
</mask>
<g mask="url(#mask10_2940_60958)">
<path d="M1.0381 189.77C0.971347 191.973 4.27574 194.076 9.66623 195.678C12.3615 196.479 15.5741 197.164 19.1538 197.673V197.656H47.6417V197.773C49.2438 197.531 50.7458 197.247 52.1143 196.93C57.5882 195.645 61.0094 193.742 61.0678 191.539C61.1346 189.336 57.8302 187.234 52.4397 185.632C49.7445 184.831 46.5319 184.146 42.9521 183.637V183.654H14.4643V183.537C12.8621 183.779 11.3601 184.063 9.99166 184.38C4.52607 185.665 1.10486 187.567 1.0381 189.77Z" fill="#F7F7F7"/>
</g>
<mask id="mask11_2940_60958" style="mask-type:luminance" maskUnits="userSpaceOnUse" x="0" y="183" width="62" height="15">
<path d="M31.0535 197.564C48.1003 197.564 61.9195 194.466 61.9195 190.646C61.9195 186.826 48.1003 183.729 31.0535 183.729C14.0067 183.729 0.1875 186.826 0.1875 190.646C0.1875 194.466 14.0067 197.564 31.0535 197.564Z" fill="white"/>
</mask>
<g mask="url(#mask11_2940_60958)">
<path d="M1.79008 189.795C1.72333 191.947 4.94427 193.992 10.2013 195.552C12.8297 196.337 15.9672 196.996 19.4552 197.496C21.1992 197.747 23.035 197.947 24.9375 198.114V197.655H42.2438V198.164C45.7568 197.872 48.9277 197.396 51.5979 196.762C56.9383 195.511 60.2677 193.658 60.3262 191.505C60.3929 189.352 57.172 187.308 51.915 185.748C49.2865 184.963 46.149 184.304 42.661 183.803C40.917 183.553 39.0813 183.353 37.1787 183.186V183.645H19.8724V183.136C16.3594 183.428 13.1886 183.903 10.5183 184.538C5.18626 185.789 1.85684 187.642 1.79008 189.795Z" fill="#F6F6F6"/>
</g>
<mask id="mask12_2940_60958" style="mask-type:luminance" maskUnits="userSpaceOnUse" x="0" y="183" width="62" height="15">
<path d="M31.0535 197.564C48.1003 197.564 61.9195 194.466 61.9195 190.646C61.9195 186.826 48.1003 183.729 31.0535 183.729C14.0067 183.729 0.1875 186.826 0.1875 190.646C0.1875 194.466 14.0067 197.564 31.0535 197.564Z" fill="white"/>
</mask>
<g mask="url(#mask12_2940_60958)">
<path d="M2.53986 189.821C2.48145 191.915 5.61895 193.909 10.7341 195.428C13.2958 196.187 16.3499 196.838 19.7544 197.322C21.4567 197.564 23.2424 197.764 25.0948 197.923V197.656H41.9505V197.973C45.3718 197.689 48.4592 197.222 51.0626 196.613C56.2612 195.386 59.5072 193.584 59.5739 191.489C59.6407 189.395 56.4949 187.401 51.3797 185.882C48.818 185.123 45.7639 184.472 42.3594 183.988C40.6572 183.746 38.8715 183.546 37.019 183.387V183.654H20.1633V183.337C16.7421 183.621 13.6546 184.088 11.0512 184.697C5.84425 185.915 2.59828 187.718 2.53986 189.821Z" fill="#F5F5F5"/>
</g>
<mask id="mask13_2940_60958" style="mask-type:luminance" maskUnits="userSpaceOnUse" x="0" y="183" width="62" height="15">
<path d="M31.0535 197.564C48.1003 197.564 61.9195 194.466 61.9195 190.646C61.9195 186.826 48.1003 183.729 31.0535 183.729C14.0067 183.729 0.1875 186.826 0.1875 190.646C0.1875 194.466 14.0067 197.564 31.0535 197.564Z" fill="white"/>
</mask>
<g mask="url(#mask13_2940_60958)">
<path d="M3.29184 189.837C3.17502 193.917 15.5081 197.589 30.8451 198.039V197.647H41.6678V197.772C44.9972 197.497 48.0096 197.038 50.5379 196.445C55.603 195.252 58.7655 193.5 58.8239 191.455C58.9407 187.375 46.6077 183.704 31.2707 183.253V183.645H20.448V183.52C17.1185 183.795 14.1062 184.254 11.5778 184.847C6.51279 186.04 3.35025 187.801 3.29184 189.837Z" fill="#F4F4F4"/>
</g>
<mask id="mask14_2940_60958" style="mask-type:luminance" maskUnits="userSpaceOnUse" x="0" y="183" width="62" height="15">
<path d="M31.0535 197.564C48.1003 197.564 61.9195 194.466 61.9195 190.646C61.9195 186.826 48.1003 183.729 31.0535 183.729C14.0067 183.729 0.1875 186.826 0.1875 190.646C0.1875 194.466 14.0067 197.564 31.0535 197.564Z" fill="white"/>
</mask>
<g mask="url(#mask14_2940_60958)">
<path d="M4.04186 189.862C3.92504 193.834 15.9243 197.405 30.8441 197.839C38.304 198.056 45.0797 197.447 50.0112 196.287C54.9428 195.127 58.0135 193.417 58.072 191.431C58.1888 187.459 46.1895 183.887 31.2697 183.454C23.8098 183.237 17.0341 183.846 12.1026 185.006C7.17102 186.165 4.10027 187.876 4.04186 189.862Z" fill="#F3F3F3"/>
</g>
<mask id="mask15_2940_60958" style="mask-type:luminance" maskUnits="userSpaceOnUse" x="0" y="183" width="62" height="15">
<path d="M31.2565 183.73C14.2165 183.233 0.312647 185.926 0.20132 189.745C0.0899933 193.564 13.8134 197.063 30.8534 197.56C47.8934 198.056 61.7973 195.363 61.9086 191.544C62.0199 187.725 48.2965 184.227 31.2565 183.73Z" fill="white"/>
</mask>
<g mask="url(#mask15_2940_60958)">
<path d="M31.2587 183.655C16.7523 183.232 4.90139 186.019 4.78885 189.879C4.67632 193.74 16.3448 197.212 30.8511 197.635C45.3575 198.058 57.2084 195.271 57.321 191.411C57.4335 187.55 45.765 184.078 31.2587 183.655Z" fill="#F2F2F2"/>
</g>
<mask id="mask16_2940_60958" style="mask-type:luminance" maskUnits="userSpaceOnUse" x="0" y="183" width="62" height="15">
<path d="M31.2565 183.73C14.2165 183.233 0.312647 185.926 0.20132 189.745C0.0899933 193.564 13.8134 197.063 30.8534 197.56C47.8934 198.056 61.7973 195.363 61.9086 191.544C62.0199 187.725 48.2965 184.227 31.2565 183.73Z" fill="white"/>
</mask>
<g mask="url(#mask16_2940_60958)">
<path d="M31.2535 183.855C17.1618 183.444 5.64958 186.151 5.54027 189.9C5.43095 193.65 16.7659 197.023 30.8577 197.434C44.9494 197.845 56.4617 195.138 56.571 191.388C56.6803 187.638 45.3453 184.265 31.2535 183.855Z" fill="#F1F1F1"/>
</g>
<mask id="mask17_2940_60958" style="mask-type:luminance" maskUnits="userSpaceOnUse" x="0" y="183" width="62" height="15">
<path d="M31.2565 183.73C14.2165 183.233 0.312647 185.926 0.20132 189.745C0.0899933 193.564 13.8134 197.063 30.8534 197.56C47.8934 198.056 61.7973 195.363 61.9086 191.544C62.0199 187.725 48.2965 184.227 31.2565 183.73Z" fill="white"/>
</mask>
<g mask="url(#mask17_2940_60958)">
<path d="M31.2465 184.055C17.5693 183.657 6.39582 186.283 6.28973 189.923C6.18364 193.562 17.1851 196.835 30.8623 197.234C44.5394 197.633 55.713 195.006 55.819 191.367C55.9251 187.727 44.9236 184.454 31.2465 184.055Z" fill="#F0F0F0"/>
</g>
<mask id="mask18_2940_60958" style="mask-type:luminance" maskUnits="userSpaceOnUse" x="0" y="183" width="62" height="15">
<path d="M31.2565 183.73C14.2165 183.233 0.312647 185.926 0.20132 189.745C0.0899933 193.564 13.8134 197.063 30.8534 197.56C47.8934 198.056 61.7973 195.363 61.9086 191.544C62.0199 187.725 48.2965 184.227 31.2565 183.73Z" fill="white"/>
</mask>
<g mask="url(#mask18_2940_60958)">
<path d="M31.2414 184.256C17.9788 183.869 7.14402 186.416 7.04115 189.945C6.93828 193.474 17.6063 196.648 30.8688 197.034C44.1314 197.421 54.9662 194.874 55.0691 191.345C55.1719 187.816 44.5039 184.642 31.2414 184.256Z" fill="#EFEFEF"/>
</g>
<mask id="mask19_2940_60958" style="mask-type:luminance" maskUnits="userSpaceOnUse" x="0" y="183" width="62" height="15">
<path d="M31.2565 183.73C14.2165 183.233 0.312647 185.926 0.20132 189.745C0.0899933 193.564 13.8134 197.063 30.8534 197.56C47.8934 198.056 61.7973 195.363 61.9086 191.544C62.0199 187.725 48.2965 184.227 31.2565 183.73Z" fill="white"/>
</mask>
<g mask="url(#mask19_2940_60958)">
<path d="M31.2348 184.448C18.3868 184.073 7.89064 186.544 7.79086 189.967C7.69108 193.39 18.0255 196.468 30.8735 196.842C43.7214 197.217 54.2176 194.746 54.3174 191.323C54.4172 187.9 44.0827 184.822 31.2348 184.448Z" fill="#EEEEEE"/>
</g>
<mask id="mask20_2940_60958" style="mask-type:luminance" maskUnits="userSpaceOnUse" x="0" y="183" width="62" height="15">
<path d="M31.2565 183.73C14.2165 183.233 0.312647 185.926 0.20132 189.745C0.0899933 193.564 13.8134 197.063 30.8534 197.56C47.8934 198.056 61.7973 195.363 61.9086 191.544C62.0199 187.725 48.2965 184.227 31.2565 183.73Z" fill="white"/>
</mask>
<g mask="url(#mask20_2940_60958)">
<path d="M31.2291 184.648C18.7912 184.285 8.62995 186.676 8.53339 189.989C8.43684 193.301 18.4415 196.28 30.8795 196.642C43.3174 197.005 53.4787 194.614 53.5752 191.302C53.6718 187.989 43.6671 185.01 31.2291 184.648Z" fill="#EDEDED"/>
</g>
<mask id="mask21_2940_60958" style="mask-type:luminance" maskUnits="userSpaceOnUse" x="0" y="183" width="62" height="15">
<path d="M31.2565 183.73C14.2165 183.233 0.312647 185.926 0.20132 189.745C0.0899933 193.564 13.8134 197.063 30.8534 197.56C47.8934 198.056 61.7973 195.363 61.9086 191.544C62.0199 187.725 48.2965 184.227 31.2565 183.73Z" fill="white"/>
</mask>
<g mask="url(#mask21_2940_60958)">
<path d="M31.224 184.847C19.2007 184.497 9.37814 186.808 9.28481 190.01C9.19148 193.211 18.8627 196.091 30.886 196.442C42.9094 196.792 52.7319 194.481 52.8252 191.279C52.9186 188.078 43.2474 185.198 31.224 184.847Z" fill="#ECECEC"/>
</g>
<mask id="mask22_2940_60958" style="mask-type:luminance" maskUnits="userSpaceOnUse" x="0" y="183" width="62" height="15">
<path d="M31.2565 183.73C14.2165 183.233 0.312647 185.926 0.20132 189.745C0.0899933 193.564 13.8134 197.063 30.8534 197.56C47.8934 198.056 61.7973 195.363 61.9086 191.544C62.0199 187.725 48.2965 184.227 31.2565 183.73Z" fill="white"/>
</mask>
<g mask="url(#mask22_2940_60958)">
<path d="M31.2189 185.048C19.6101 184.71 10.1263 186.941 10.0362 190.032C9.94612 193.123 19.2838 195.903 30.8926 196.242C42.5013 196.58 51.9852 194.349 52.0753 191.258C52.1654 188.167 42.8277 185.386 31.2189 185.048Z" fill="#EBEBEB"/>
</g>
<mask id="mask23_2940_60958" style="mask-type:luminance" maskUnits="userSpaceOnUse" x="0" y="183" width="62" height="15">
<path d="M31.2565 183.73C14.2165 183.233 0.312647 185.926 0.20132 189.745C0.0899933 193.564 13.8134 197.063 30.8534 197.56C47.8934 198.056 61.7973 195.363 61.9086 191.544C62.0199 187.725 48.2965 184.227 31.2565 183.73Z" fill="white"/>
</mask>
<g mask="url(#mask23_2940_60958)">
<path d="M31.2118 185.248C20.0177 184.921 10.8726 187.073 10.7857 190.053C10.6988 193.034 19.703 195.715 30.8972 196.041C42.0914 196.367 51.2365 194.216 51.3233 191.235C51.4102 188.255 42.406 185.574 31.2118 185.248Z" fill="#EAEAEA"/>
</g>
<mask id="mask24_2940_60958" style="mask-type:luminance" maskUnits="userSpaceOnUse" x="0" y="183" width="62" height="15">
<path d="M31.2565 183.73C14.2165 183.233 0.312647 185.926 0.20132 189.745C0.0899933 193.564 13.8134 197.063 30.8534 197.56C47.8934 198.056 61.7973 195.363 61.9086 191.544C62.0199 187.725 48.2965 184.227 31.2565 183.73Z" fill="white"/>
</mask>
<g mask="url(#mask24_2940_60958)">
<path d="M31.2067 185.448C20.4272 185.134 11.6208 187.206 11.5371 190.076C11.4534 192.946 20.1242 195.527 30.9037 195.841C41.6833 196.155 50.4897 194.084 50.5734 191.214C50.657 188.344 41.9863 185.762 31.2067 185.448Z" fill="#E9E9E9"/>
</g>
<mask id="mask25_2940_60958" style="mask-type:luminance" maskUnits="userSpaceOnUse" x="0" y="183" width="62" height="15">
<path d="M31.2565 183.73C14.2165 183.233 0.312645 185.926 0.201319 189.745C0.0899925 193.564 13.8134 197.063 30.8534 197.56C47.8934 198.056 61.7973 195.363 61.9086 191.544C62.0199 187.725 48.2965 184.227 31.2565 183.73Z" fill="white"/>
</mask>
<g mask="url(#mask25_2940_60958)">
<path d="M31.2016 185.649C20.8366 185.347 12.369 187.339 12.2885 190.098C12.2081 192.857 20.5453 195.339 30.9103 195.641C41.2753 195.944 49.7429 193.952 49.8234 191.192C49.9038 188.433 41.5666 185.951 31.2016 185.649Z" fill="#E8E8E8"/>
</g>
<mask id="mask26_2940_60958" style="mask-type:luminance" maskUnits="userSpaceOnUse" x="0" y="183" width="62" height="15">
<path d="M31.2565 183.73C14.2165 183.233 0.312647 185.926 0.20132 189.745C0.0899933 193.564 13.8134 197.063 30.8534 197.56C47.8934 198.056 61.7973 195.363 61.9086 191.544C62.0199 187.725 48.2965 184.227 31.2565 183.73Z" fill="white"/>
</mask>
<g mask="url(#mask26_2940_60958)">
<path d="M31.1945 185.848C21.2442 185.558 13.1152 187.47 13.038 190.119C12.9608 192.768 20.9645 195.151 30.9149 195.441C40.8653 195.731 48.9942 193.819 49.0715 191.17C49.1487 188.521 41.1449 186.138 31.1945 185.848Z" fill="#E7E7E7"/>
</g>
<mask id="mask27_2940_60958" style="mask-type:luminance" maskUnits="userSpaceOnUse" x="0" y="183" width="62" height="15">
<path d="M31.2565 183.73C14.2165 183.233 0.312647 185.926 0.20132 189.745C0.0899933 193.564 13.8134 197.063 30.8534 197.56C47.8934 198.056 61.7973 195.363 61.9086 191.544C62.0199 187.725 48.2965 184.227 31.2565 183.73Z" fill="white"/>
</mask>
<g mask="url(#mask27_2940_60958)">
<path d="M31.1894 186.049C21.6537 185.771 13.8634 187.603 13.7894 190.142C13.7154 192.68 21.3857 194.963 30.9215 195.241C40.4572 195.519 48.2475 193.686 48.3215 191.148C48.3955 188.61 40.7252 186.327 31.1894 186.049Z" fill="#E6E6E6"/>
</g>
<mask id="mask28_2940_60958" style="mask-type:luminance" maskUnits="userSpaceOnUse" x="0" y="183" width="62" height="15">
<path d="M31.2565 183.73C14.2165 183.233 0.312645 185.926 0.201319 189.745C0.0899925 193.564 13.8134 197.063 30.8534 197.56C47.8934 198.056 61.7973 195.363 61.9086 191.544C62.0199 187.725 48.2965 184.227 31.2565 183.73Z" fill="white"/>
</mask>
<g mask="url(#mask28_2940_60958)">
<path d="M31.1824 186.25C22.0612 185.984 14.6096 187.736 14.5389 190.164C14.4681 192.592 21.8049 194.775 30.9261 195.041C40.0472 195.307 47.4988 193.554 47.5695 191.127C47.6403 188.699 40.3035 186.515 31.1824 186.25Z" fill="#E5E5E5"/>
</g>
<mask id="mask29_2940_60958" style="mask-type:luminance" maskUnits="userSpaceOnUse" x="0" y="183" width="62" height="15">
<path d="M31.2565 183.73C14.2165 183.233 0.312647 185.926 0.20132 189.745C0.0899933 193.564 13.8134 197.063 30.8534 197.56C47.8934 198.056 61.7973 195.363 61.9086 191.544C62.0199 187.725 48.2965 184.227 31.2565 183.73Z" fill="white"/>
</mask>
<g mask="url(#mask29_2940_60958)">
<path d="M31.1767 186.449C22.4655 186.195 15.349 187.868 15.2814 190.185C15.2139 192.502 22.2209 194.586 30.9321 194.84C39.6433 195.094 46.7598 193.421 46.8274 191.104C46.8949 188.787 39.8879 186.703 31.1767 186.449Z" fill="#E4E4E4"/>
</g>
<mask id="mask30_2940_60958" style="mask-type:luminance" maskUnits="userSpaceOnUse" x="0" y="183" width="62" height="15">
<path d="M31.2565 183.73C14.2165 183.233 0.312647 185.926 0.20132 189.745C0.0899933 193.564 13.8134 197.063 30.8534 197.56C47.8934 198.056 61.7973 195.363 61.9086 191.544C62.0199 187.725 48.2965 184.227 31.2565 183.73Z" fill="white"/>
</mask>
<g mask="url(#mask30_2940_60958)">
<path d="M31.1716 186.649C22.875 186.408 16.0972 188 16.0328 190.207C15.9685 192.413 22.6421 194.398 30.9387 194.64C39.2352 194.882 46.0131 193.289 46.0774 191.083C46.1417 188.876 39.4682 186.891 31.1716 186.649Z" fill="#E3E3E3"/>
</g>
<mask id="mask31_2940_60958" style="mask-type:luminance" maskUnits="userSpaceOnUse" x="0" y="183" width="62" height="15">
<path d="M31.2565 183.73C14.2165 183.233 0.312645 185.926 0.201319 189.745C0.0899925 193.564 13.8134 197.063 30.8534 197.56C47.8934 198.056 61.7973 195.363 61.9086 191.544C62.0199 187.725 48.2965 184.227 31.2565 183.73Z" fill="white"/>
</mask>
<g mask="url(#mask31_2940_60958)">
<path d="M31.1665 186.85C23.2845 186.62 16.8454 188.133 16.7843 190.229C16.7232 192.325 23.0632 194.211 30.9452 194.44C38.8272 194.67 45.2663 193.157 45.3274 191.061C45.3885 188.965 39.0485 187.08 31.1665 186.85Z" fill="#E2E2E2"/>
</g>
<mask id="mask32_2940_60958" style="mask-type:luminance" maskUnits="userSpaceOnUse" x="0" y="183" width="62" height="15">
<path d="M31.2565 183.73C14.2165 183.233 0.312647 185.926 0.20132 189.745C0.0899933 193.564 13.8134 197.063 30.8534 197.56C47.8934 198.056 61.7973 195.363 61.9086 191.544C62.0199 187.725 48.2965 184.227 31.2565 183.73Z" fill="white"/>
</mask>
<g mask="url(#mask32_2940_60958)">
<path d="M31.1594 187.05C23.692 186.832 17.5916 188.265 17.5337 190.25C17.4758 192.236 23.4824 194.022 30.9498 194.24C38.4172 194.457 44.5176 193.024 44.5755 191.039C44.6334 189.053 38.6268 187.267 31.1594 187.05Z" fill="#E0E0E0"/>
</g>
<mask id="mask33_2940_60958" style="mask-type:luminance" maskUnits="userSpaceOnUse" x="0" y="183" width="62" height="15">
<path d="M31.2565 183.73C14.2165 183.233 0.312647 185.926 0.20132 189.745C0.0899933 193.564 13.8134 197.063 30.8534 197.56C47.8934 198.056 61.7973 195.363 61.9086 191.544C62.0199 187.725 48.2965 184.227 31.2565 183.73Z" fill="white"/>
</mask>
<g mask="url(#mask33_2940_60958)">
<path d="M31.1548 187.241C24.102 187.036 18.3402 188.393 18.2854 190.272C18.2306 192.152 23.9036 193.842 30.9564 194.048C38.0092 194.253 43.771 192.896 43.8258 191.017C43.8806 189.137 38.2076 187.447 31.1548 187.241Z" fill="#DFDFDF"/>
</g>
<mask id="mask34_2940_60958" style="mask-type:luminance" maskUnits="userSpaceOnUse" x="0" y="183" width="62" height="15">
<path d="M31.2565 183.73C14.2165 183.233 0.312645 185.926 0.201319 189.745C0.0899925 193.564 13.8134 197.063 30.8534 197.56C47.8934 198.056 61.7973 195.363 61.9086 191.544C62.0199 187.725 48.2965 184.227 31.2565 183.73Z" fill="white"/>
</mask>
<g mask="url(#mask34_2940_60958)">
<path d="M31.1477 187.442C24.5095 187.248 19.0864 188.526 19.0349 190.295C18.9833 192.063 24.3228 193.654 30.961 193.848C37.5992 194.041 43.0223 192.764 43.0738 190.995C43.1254 189.226 37.7859 187.635 31.1477 187.442Z" fill="#DEDEDE"/>
</g>
<mask id="mask35_2940_60958" style="mask-type:luminance" maskUnits="userSpaceOnUse" x="0" y="183" width="62" height="15">
<path d="M31.2565 183.73C14.2165 183.233 0.312647 185.926 0.20132 189.745C0.0899933 193.564 13.8134 197.063 30.8534 197.56C47.8934 198.056 61.7973 195.363 61.9086 191.544C62.0199 187.725 48.2965 184.227 31.2565 183.73Z" fill="white"/>
</mask>
<g mask="url(#mask35_2940_60958)">
<path d="M31.1426 187.642C24.919 187.46 19.8346 188.657 19.7863 190.316C19.7379 191.974 24.7439 193.466 30.9675 193.647C37.1911 193.829 42.2755 192.631 42.3239 190.973C42.3722 189.314 37.3662 187.823 31.1426 187.642Z" fill="#DDDDDD"/>
</g>
<mask id="mask36_2940_60958" style="mask-type:luminance" maskUnits="userSpaceOnUse" x="0" y="183" width="62" height="15">
<path d="M31.2565 183.73C14.2165 183.233 0.312647 185.926 0.20132 189.745C0.0899933 193.564 13.8134 197.063 30.8534 197.56C47.8934 198.056 61.7973 195.363 61.9086 191.544C62.0199 187.725 48.2965 184.227 31.2565 183.73Z" fill="white"/>
</mask>
<g mask="url(#mask36_2940_60958)">
<path d="M31.1375 187.842C25.3285 187.673 20.5828 188.79 20.5377 190.338C20.4926 191.886 25.1651 193.278 30.9741 193.447C36.7831 193.617 41.5288 192.499 41.5739 190.951C41.619 189.403 36.9465 188.011 31.1375 187.842Z" fill="#DCDCDC"/>
</g>
<mask id="mask37_2940_60958" style="mask-type:luminance" maskUnits="userSpaceOnUse" x="0" y="183" width="62" height="15">
<path d="M31.2565 183.73C14.2165 183.233 0.312645 185.926 0.201319 189.745C0.0899925 193.564 13.8134 197.063 30.8534 197.56C47.8934 198.056 61.7973 195.363 61.9086 191.544C62.0199 187.725 48.2965 184.227 31.2565 183.73Z" fill="white"/>
</mask>
<g mask="url(#mask37_2940_60958)">
<path d="M31.1304 188.043C25.736 187.885 21.3291 188.923 21.2872 190.36C21.2453 191.798 25.5843 193.09 30.9787 193.247C36.3731 193.405 40.7801 192.367 40.822 190.93C40.8639 189.493 36.5248 188.2 31.1304 188.043Z" fill="#DBDBDB"/>
</g>
<mask id="mask38_2940_60958" style="mask-type:luminance" maskUnits="userSpaceOnUse" x="0" y="183" width="62" height="15">
<path d="M31.2565 183.73C14.2165 183.233 0.312647 185.926 0.20132 189.745C0.0899933 193.564 13.8134 197.063 30.8534 197.56C47.8934 198.056 61.7973 195.363 61.9086 191.544C62.0199 187.725 48.2965 184.227 31.2565 183.73Z" fill="white"/>
</mask>
<g mask="url(#mask38_2940_60958)">
<path d="M31.1248 188.242C26.1404 188.097 22.0684 189.054 22.0297 190.381C21.991 191.708 26.0003 192.901 30.9847 193.046C35.9691 193.192 40.0411 192.234 40.0798 190.907C40.1185 189.581 36.1092 188.387 31.1248 188.242Z" fill="#DADADA"/>
</g>
<mask id="mask39_2940_60958" style="mask-type:luminance" maskUnits="userSpaceOnUse" x="0" y="183" width="62" height="15">
<path d="M31.2565 183.73C14.2165 183.233 0.312647 185.926 0.20132 189.745C0.0899933 193.564 13.8134 197.063 30.8534 197.56C47.8934 198.056 61.7973 195.363 61.9086 191.544C62.0199 187.725 48.2965 184.227 31.2565 183.73Z" fill="white"/>
</mask>
<g mask="url(#mask39_2940_60958)">
<path d="M31.1197 188.443C26.5499 188.309 22.8166 189.187 22.7811 190.403C22.7457 191.62 26.4215 192.713 30.9913 192.847C35.5611 192.98 39.2944 192.102 39.3298 190.886C39.3653 189.67 35.6895 188.576 31.1197 188.443Z" fill="#D9D9D9"/>
</g>
<mask id="mask40_2940_60958" style="mask-type:luminance" maskUnits="userSpaceOnUse" x="0" y="183" width="62" height="15">
<path d="M31.2565 183.73C14.2165 183.233 0.312645 185.926 0.201319 189.745C0.0899925 193.564 13.8134 197.063 30.8534 197.56C47.8934 198.056 61.7973 195.363 61.9086 191.544C62.0199 187.725 48.2965 184.227 31.2565 183.73Z" fill="white"/>
</mask>
<g mask="url(#mask40_2940_60958)">
<path d="M31.1126 188.643C26.9574 188.522 23.5628 189.32 23.5306 190.426C23.4984 191.531 26.8407 192.526 30.9959 192.647C35.1511 192.768 38.5457 191.97 38.5779 190.864C38.6101 189.759 35.2678 188.764 31.1126 188.643Z" fill="#D8D8D8"/>
</g>
<mask id="mask41_2940_60958" style="mask-type:luminance" maskUnits="userSpaceOnUse" x="0" y="183" width="62" height="15">
<path d="M31.2565 183.73C14.2165 183.233 0.31265 185.926 0.201322 189.745C0.089994 193.564 13.8134 197.063 30.8534 197.56C47.8934 198.056 61.7973 195.363 61.9086 191.544C62.0199 187.725 48.2965 184.227 31.2565 183.73Z" fill="white"/>
</mask>
<g mask="url(#mask41_2940_60958)">
<path d="M31.1075 188.843C27.3669 188.734 24.311 189.452 24.282 190.447C24.253 191.442 27.2618 192.337 31.0024 192.446C34.743 192.555 37.7989 191.837 37.8279 190.842C37.8569 189.847 34.8481 188.952 31.1075 188.843Z" fill="#D7D7D7"/>
</g>
<mask id="mask42_2940_60958" style="mask-type:luminance" maskUnits="userSpaceOnUse" x="0" y="183" width="62" height="15">
<path d="M31.2565 183.73C14.2165 183.233 0.312647 185.926 0.20132 189.745C0.0899933 193.564 13.8134 197.063 30.8534 197.56C47.8934 198.056 61.7973 195.363 61.9086 191.544C62.0199 187.725 48.2965 184.227 31.2565 183.73Z" fill="white"/>
</mask>
<g mask="url(#mask42_2940_60958)">
<path d="M31.1024 189.043C27.7764 188.946 25.0592 189.585 25.0334 190.469C25.0076 191.354 27.683 192.149 31.009 192.246C34.335 192.343 37.0522 191.705 37.0779 190.82C37.1037 189.936 34.4284 189.14 31.1024 189.043Z" fill="#D6D6D6"/>
</g>
<mask id="mask43_2940_60958" style="mask-type:luminance" maskUnits="userSpaceOnUse" x="0" y="183" width="62" height="15">
<path d="M31.2565 183.73C14.2165 183.233 0.312645 185.926 0.201319 189.745C0.0899925 193.564 13.8134 197.063 30.8534 197.56C47.8934 198.056 61.7973 195.363 61.9086 191.544C62.0199 187.725 48.2965 184.227 31.2565 183.73Z" fill="white"/>
</mask>
<g mask="url(#mask43_2940_60958)">
<path d="M31.0953 189.244C28.1839 189.159 25.8054 189.718 25.7829 190.492C25.7603 191.265 28.1022 191.962 31.0136 192.047C33.925 192.131 36.3034 191.573 36.326 190.799C36.3486 190.025 34.0067 189.329 31.0953 189.244Z" fill="#D5D5D5"/>
</g>
<mask id="mask44_2940_60958" style="mask-type:luminance" maskUnits="userSpaceOnUse" x="0" y="183" width="62" height="15">
<path d="M31.2565 183.73C14.2165 183.233 0.31265 185.926 0.201322 189.745C0.089994 193.564 13.8134 197.063 30.8534 197.56C47.8934 198.056 61.7973 195.363 61.9086 191.544C62.0199 187.725 48.2965 184.227 31.2565 183.73Z" fill="white"/>
</mask>
<g mask="url(#mask44_2940_60958)">
<path d="M31.0902 189.444C28.5934 189.371 26.5536 189.849 26.5343 190.513C26.515 191.176 28.5233 191.773 31.0201 191.846C33.5169 191.919 35.5567 191.44 35.576 190.776C35.5954 190.113 33.587 189.516 31.0902 189.444Z" fill="#D4D4D4"/>
</g>
<mask id="mask45_2940_60958" style="mask-type:luminance" maskUnits="userSpaceOnUse" x="0" y="183" width="62" height="15">
<path d="M31.2565 183.73C14.2165 183.233 0.312647 185.926 0.20132 189.745C0.0899933 193.564 13.8134 197.063 30.8534 197.56C47.8934 198.056 61.7973 195.363 61.9086 191.544C62.0199 187.725 48.2965 184.227 31.2565 183.73Z" fill="white"/>
</mask>
<g mask="url(#mask45_2940_60958)">
<path d="M31.0851 189.644C29.0029 189.583 27.3018 189.982 27.2857 190.535C27.2696 191.088 28.9445 191.585 31.0267 191.646C33.1089 191.707 34.8099 191.308 34.8261 190.755C34.8422 190.202 33.1673 189.705 31.0851 189.644Z" fill="#D2D2D2"/>
</g>
<mask id="mask46_2940_60958" style="mask-type:luminance" maskUnits="userSpaceOnUse" x="0" y="183" width="62" height="15">
<path d="M31.2565 183.73C14.2165 183.233 0.312642 185.926 0.201317 189.745C0.0899918 193.564 13.8134 197.063 30.8534 197.56C47.8934 198.056 61.7973 195.363 61.9086 191.544C62.0199 187.725 48.2965 184.227 31.2565 183.73Z" fill="white"/>
</mask>
<g mask="url(#mask46_2940_60958)">
<path d="M31.078 189.844C29.4104 189.795 28.0481 190.114 28.0352 190.556C28.0223 190.999 29.3637 191.397 31.0313 191.445C32.6989 191.494 34.0612 191.175 34.0741 190.732C34.087 190.29 32.7456 189.892 31.078 189.844Z" fill="#D1D1D1"/>
</g>
<mask id="mask47_2940_60958" style="mask-type:luminance" maskUnits="userSpaceOnUse" x="0" y="183" width="62" height="15">
<path d="M31.2565 183.73C14.2165 183.233 0.312655 185.926 0.201325 189.745C0.0899955 193.564 13.8134 197.063 30.8534 197.56C47.8934 198.056 61.7973 195.363 61.9086 191.544C62.0199 187.725 48.2965 184.227 31.2565 183.73Z" fill="white"/>
</mask>
<g mask="url(#mask47_2940_60958)">
<path d="M31.0728 190.036C29.8152 189.999 28.7878 190.242 28.778 190.579C28.7682 190.915 29.7797 191.217 31.0373 191.254C32.295 191.291 33.3224 191.048 33.3322 190.711C33.342 190.375 32.3305 190.073 31.0728 190.036Z" fill="#D0D0D0"/>
</g>
<mask id="mask48_2940_60958" style="mask-type:luminance" maskUnits="userSpaceOnUse" x="0" y="183" width="62" height="15">
<path d="M31.2565 183.73C14.2165 183.233 0.31265 185.926 0.201322 189.745C0.089994 193.564 13.8134 197.063 30.8534 197.56C47.8934 198.056 61.7973 195.363 61.9086 191.544C62.0199 187.725 48.2965 184.227 31.2565 183.73Z" fill="white"/>
</mask>
<g mask="url(#mask48_2940_60958)">
<path d="M31.0677 190.236C30.2247 190.211 29.536 190.374 29.5294 190.6C29.5228 190.826 30.2009 191.029 31.0439 191.053C31.8869 191.078 32.5756 190.915 32.5822 190.689C32.5888 190.463 31.9107 190.26 31.0677 190.236Z" fill="#CFCFCF"/>
</g>
<mask id="mask49_2940_60958" style="mask-type:luminance" maskUnits="userSpaceOnUse" x="0" y="183" width="62" height="15">
<path d="M31.2565 183.73C14.2165 183.233 0.312632 185.927 0.20131 189.745C0.0899888 193.564 13.8134 197.063 30.8534 197.56C47.8934 198.056 61.7973 195.363 61.9086 191.544C62.0199 187.725 48.2965 184.227 31.2565 183.73Z" fill="white"/>
</mask>
<g mask="url(#mask49_2940_60958)">
<path d="M31.0607 190.436C30.6322 190.424 30.2822 190.507 30.2789 190.622C30.2755 190.737 30.6201 190.841 31.0485 190.853C31.4769 190.866 31.8269 190.783 31.8303 190.667C31.8337 190.552 31.4891 190.449 31.0607 190.436Z" fill="#CECECE"/>
</g>
</svg>
