<svg width="120" height="106" viewBox="0 0 120 106" fill="none" xmlns="http://www.w3.org/2000/svg">
<g opacity="0.41">
<path d="M118.873 63.0441C118.986 61.4035 118.935 59.7555 118.717 58.1236C117.69 50.4558 113.039 43.2253 106.193 38.1236C103.751 36.3036 100.972 34.673 99.3829 32.2705C96.7063 28.2245 96.9092 23.5746 93.5871 19.5798C90.2614 15.5803 85.4149 12.4613 79.9494 10.8594C63.6534 6.08336 40.8382 13.8598 42.8924 30.4665C42.8997 30.5262 42.9076 30.6128 42.9163 30.7223C43.1895 34.1718 39.9884 37.0722 35.9146 37.1539C20.8793 37.4557 7.93707 47.2604 5.16763 59.6803C3.38661 67.6675 6.30288 76.4221 13.2107 82.0725C18.3672 86.2903 25.2855 88.6074 32.2072 90.1995C46.0857 93.3919 60.6903 94.061 75 92.8403C88.3949 91.6976 102.524 88.4406 111.187 79.7243C115.809 75.0744 118.456 69.1116 118.873 63.0441Z" fill="#FFD5D5"/>
</g>
<g opacity="0.31">
<path d="M51.3395 9.44277C53.1269 8.73405 53.9814 6.75922 53.248 5.03187C52.5147 3.30451 50.4712 2.47874 48.6837 3.18746C46.8963 3.89618 46.0418 5.871 46.7751 7.59836C47.5085 9.32571 49.552 10.1515 51.3395 9.44277Z" fill="#FFD5D5"/>
</g>
<g opacity="0.31">
<path d="M97.2757 6.00032C98.2725 6.00032 99.0807 5.21937 99.0807 4.25602C99.0807 3.29267 98.2725 2.51172 97.2757 2.51172C96.2788 2.51172 95.4707 3.29267 95.4707 4.25602C95.4707 5.21937 96.2788 6.00032 97.2757 6.00032Z" fill="#FFD5D5"/>
</g>
<g opacity="0.31">
<path d="M35.3696 15.4377C36.2564 14.4724 36.1655 12.9951 35.1666 12.1381C34.1677 11.281 32.6391 11.3688 31.7522 12.3342C30.8654 13.2995 30.9563 14.7768 31.9551 15.6338C32.954 16.4908 34.4827 16.403 35.3696 15.4377Z" fill="#FFD5D5"/>
</g>
<g opacity="0.31">
<path d="M5.67109 97.3743C8.71253 97.3743 11.1781 94.9916 11.1781 92.0524C11.1781 89.1132 8.71253 86.7305 5.67109 86.7305C2.62964 86.7305 0.164062 89.1132 0.164062 92.0524C0.164062 94.9916 2.62964 97.3743 5.67109 97.3743Z" fill="#FFD5D5"/>
</g>
<path opacity="0.47" d="M119.311 16.0694C120.881 13.1144 119.674 9.48895 116.616 7.97175C113.558 6.4548 107.682 6.56644 106.112 9.5215C104.542 12.4766 109.249 15.0128 111.168 17.7685C113.844 21.6121 117.741 19.0245 119.311 16.0694Z" fill="#FFD4D4"/>
<path opacity="0.47" d="M105.94 100.296C108.152 101.676 111.103 101.062 112.532 98.9241C113.96 96.7859 114.317 92.4482 112.104 91.0678C109.892 89.6874 107.535 92.9629 105.216 94.168C101.981 95.849 103.727 98.9157 105.94 100.296Z" fill="#FFD5D5"/>
<path opacity="0.47" d="M15.6338 2.51002C13.2002 0.326023 9.39548 0.462078 7.13551 2.81392C4.87554 5.16576 3.44609 10.4765 5.87974 12.6605C8.31339 14.8445 11.9852 11.2775 15.1393 10.2735C19.5388 8.87306 18.0675 4.69402 15.6338 2.51002Z" fill="#FFD5D5"/>
<path opacity="0.47" d="M2.22043 27.8969C0.0509844 32.4485 -0.541639 37.6959 0.499399 42.6015C1.72307 48.3687 5.43854 52.7995 4.14935 58.952C3.36409 62.6995 3.16752 66.171 2.76937 69.8791C1.95175 77.4931 7.0672 84.202 13.4134 87.8246C18.5678 90.767 24.6106 91.8709 30.5366 91.7926C35.8702 91.7219 41.1943 90.77 46.3627 89.4903C51.3434 88.2569 56.2131 86.6319 61.4338 87.1446C65.7758 87.5711 69.6863 89.385 73.7299 90.7377C83.3837 93.9672 95.078 94.4226 103.906 89.5063C109.571 86.3514 113.537 81.2273 115.295 75.7185C116.701 71.3159 116.879 67.199 115.826 62.7043C114.744 58.0896 112.918 53.4376 113.485 48.6291C113.88 45.2784 115.466 42.0443 115.176 38.6836C114.982 36.4506 113.965 34.3556 112.721 32.4648C108.178 25.5606 100.572 20.938 92.5265 18.3911C84.9548 15.9943 77.1462 14.2584 69.2631 14.8351C52.9644 16.0273 49.6418 13.5257 32.9852 10.0829C22.232 7.86024 10.2035 15.7832 3.91093 24.9617C3.26883 25.8973 2.70542 26.8797 2.22043 27.8969Z" fill="#FFD5D5"/>
<path opacity="0.58" d="M61.2233 4.22041C61.8773 4.22041 62.4074 3.70805 62.4074 3.07603C62.4074 2.444 61.8773 1.93164 61.2233 1.93164C60.5692 1.93164 60.0391 2.444 60.0391 3.07603C60.0391 3.70805 60.5692 4.22041 61.2233 4.22041Z" fill="#FDBBA0"/>
<path opacity="0.58" d="M86.632 7.20887C87.1407 7.20887 87.553 6.81037 87.553 6.31879C87.553 5.82721 87.1407 5.42871 86.632 5.42871C86.1233 5.42871 85.7109 5.82721 85.7109 6.31879C85.7109 6.81037 86.1233 7.20887 86.632 7.20887Z" fill="#FDBBA0"/>
<path opacity="0.58" d="M24.6564 15.9651C24.8745 15.9651 25.0512 15.7943 25.0512 15.5836C25.0512 15.3729 24.8745 15.2021 24.6564 15.2021C24.4384 15.2021 24.2617 15.3729 24.2617 15.5836C24.2617 15.7943 24.4384 15.9651 24.6564 15.9651Z" fill="#FDBBA0"/>
<path opacity="0.58" d="M118.932 27.0101C118.768 27.7524 118.012 28.2254 117.244 28.067C116.476 27.9086 115.987 27.1782 116.151 26.4361C116.315 25.6938 117.07 25.2208 117.838 25.3792C118.607 25.5376 119.096 26.2678 118.932 27.0101Z" fill="#B7E3C0"/>
<path opacity="0.58" d="M21.3024 4.87323C21.2382 5.16441 20.9419 5.3498 20.6405 5.28775C20.3392 5.2257 20.1474 4.93935 20.2116 4.64817C20.2758 4.35699 20.5721 4.17159 20.8734 4.23365C21.1747 4.2957 21.3668 4.58205 21.3024 4.87323Z" fill="#B7E3C0"/>
<path opacity="0.58" d="M110.184 2.60764C110.129 2.85508 109.877 3.01275 109.621 2.95986C109.365 2.90696 109.202 2.66359 109.257 2.41615C109.311 2.16871 109.563 2.01103 109.819 2.06393C110.075 2.11683 110.238 2.3602 110.184 2.60764Z" fill="#FDBBA0"/>
<path opacity="0.58" d="M115.926 86.2097C116.58 86.2097 117.111 85.6973 117.111 85.0653C117.111 84.4333 116.58 83.9209 115.926 83.9209C115.272 83.9209 114.742 84.4333 114.742 85.0653C114.742 85.6973 115.272 86.2097 115.926 86.2097Z" fill="#FDBBA0"/>
<path opacity="0.58" d="M18.442 96.7644C19.096 96.7644 19.6262 96.252 19.6262 95.62C19.6262 94.9879 19.096 94.4756 18.442 94.4756C17.788 94.4756 17.2578 94.9879 17.2578 95.62C17.2578 96.252 17.788 96.7644 18.442 96.7644Z" fill="#FDBBA0"/>
<path opacity="0.58" d="M93.1867 101.322C93.6953 101.322 94.1077 100.924 94.1077 100.432C94.1077 99.9405 93.6953 99.542 93.1867 99.542C92.678 99.542 92.2656 99.9405 92.2656 100.432C92.2656 100.924 92.678 101.322 93.1867 101.322Z" fill="#B7E3C0"/>
<path opacity="0.58" d="M1.34826 82.5349C2.00227 82.5349 2.53245 82.0225 2.53245 81.3905C2.53245 80.7585 2.00227 80.2461 1.34826 80.2461C0.694244 80.2461 0.164062 80.7585 0.164062 81.3905C0.164062 82.0225 0.694244 82.5349 1.34826 82.5349Z" fill="#B7E3C0"/>
<path opacity="0.58" d="M9.90837 104.664C9.85363 104.912 9.60179 105.069 9.34575 105.017C9.0897 104.964 8.92654 104.72 8.98128 104.473C9.03601 104.225 9.28785 104.068 9.5439 104.121C9.79995 104.173 9.96311 104.417 9.90837 104.664Z" fill="#FDBBA0"/>
<rect x="34.3594" y="23.6377" width="55.4862" height="55.4862" rx="27.7431" fill="#F03E3E"/>
<path d="M42.6745 24.1408C41.7062 24.388 40.5113 24.752 39.7903 25.4799C38.9113 26.3657 38.5886 27.7185 38.307 29.0645C38.2795 29.195 38.101 29.195 38.0735 29.0645C37.84 27.9864 37.5448 26.6885 36.9199 25.885C36.1233 24.8687 34.9009 24.4498 33.6923 24.1408C33.5687 24.1065 33.5687 23.9348 33.6923 23.9073C34.743 23.6395 35.9516 23.2824 36.707 22.4515C37.4898 21.5862 37.8057 20.2334 38.0735 18.9836C38.101 18.8531 38.2795 18.8531 38.307 18.9836C38.5542 20.1579 38.9869 21.497 39.6942 22.3347C40.4701 23.2481 41.562 23.6189 42.6745 23.9073C42.805 23.9348 42.805 24.1133 42.6745 24.1408Z" fill="#F03E3E"/>
<path d="M23.7762 48.2653C22.389 48.6224 20.6791 49.1374 19.649 50.1744C18.3924 51.4448 17.9323 53.3744 17.5271 55.2972C17.4859 55.4826 17.2318 55.4826 17.1906 55.2972C16.861 53.7521 16.4352 51.9049 15.5425 50.7581C14.4094 49.3022 12.6583 48.7048 10.9347 48.2653C10.7561 48.2172 10.7561 47.97 10.9347 47.9288C12.4386 47.5443 14.1622 47.0292 15.2404 45.8481C16.3597 44.612 16.8129 42.6823 17.1975 40.89C17.2387 40.7046 17.4928 40.7046 17.534 40.89C17.8911 42.5725 18.5022 44.4815 19.5186 45.6764C20.6242 46.9743 22.183 47.5099 23.783 47.9219C23.9547 47.9769 23.9547 48.2172 23.7762 48.2653Z" fill="#F03E3E"/>
<path d="M94.7546 34.3282C94.2877 34.4518 93.7039 34.6235 93.3537 34.9737C92.928 35.4064 92.77 36.0587 92.6327 36.7111C92.6189 36.7729 92.5297 36.7729 92.5228 36.7111C92.4129 36.1892 92.2687 35.5574 91.9597 35.1729C91.5752 34.6785 90.9777 34.4724 90.394 34.3282C90.3322 34.3145 90.3322 34.2321 90.394 34.2115C90.9022 34.081 91.4927 33.9093 91.8567 33.5042C92.2344 33.0853 92.3923 32.426 92.5228 31.8217C92.5365 31.7599 92.6258 31.7599 92.6327 31.8217C92.7563 32.3917 92.9623 33.0372 93.3057 33.4492C93.6834 33.8887 94.2121 34.0742 94.7546 34.2115C94.8164 34.2321 94.8164 34.3145 94.7546 34.3282Z" fill="#F03E3E"/>
<path d="M94.1648 75.4786C93.6978 75.6022 93.1141 75.7739 92.7639 76.1241C92.3381 76.5568 92.1802 77.2091 92.0428 77.8615C92.0291 77.9233 91.9398 77.9233 91.933 77.8615C91.8231 77.3396 91.6789 76.7078 91.3699 76.3233C90.9853 75.8288 90.3879 75.6228 89.8042 75.4786C89.7424 75.4649 89.7424 75.3825 89.8042 75.3619C90.3123 75.2314 90.9029 75.0597 91.2669 74.6546C91.6445 74.2357 91.8025 73.5764 91.933 72.9721C91.9467 72.9103 92.036 72.9103 92.0428 72.9721C92.1664 73.5421 92.3725 74.1876 92.7158 74.5996C93.0935 75.0391 93.6223 75.2245 94.1648 75.3619C94.2266 75.3825 94.2266 75.4649 94.1648 75.4786Z" fill="#F03E3E"/>
<path d="M40.9734 84.6085C40.5064 84.7321 39.9227 84.9038 39.5725 85.254C39.1467 85.6866 38.9888 86.339 38.8514 86.9914C38.8377 87.0532 38.7484 87.0532 38.7416 86.9914C38.6317 86.4695 38.4875 85.8377 38.1785 85.4532C37.7939 84.9587 37.1965 84.7527 36.6128 84.6085C36.551 84.5948 36.551 84.5124 36.6128 84.4918C37.1209 84.3613 37.7115 84.1896 38.0755 83.7845C38.4531 83.3656 38.6111 82.7063 38.7416 82.102C38.7553 82.0402 38.8446 82.0402 38.8514 82.102C38.975 82.672 39.1811 83.3175 39.5244 83.7295C39.9021 84.169 40.4309 84.3544 40.9734 84.4918C41.0352 84.5124 41.0352 84.5948 40.9734 84.6085Z" fill="#F03E3E"/>
<path d="M62.122 79.2998C46.8153 79.2998 34.3652 66.8497 34.3652 51.5429C34.3652 36.2362 46.8153 23.7861 62.122 23.7861C77.4288 23.7861 89.8789 36.2362 89.8789 51.5429C89.8789 66.8497 77.4288 79.2998 62.122 79.2998ZM62.122 25.6265C47.8316 25.6265 36.2056 37.2525 36.2056 51.5429C36.2056 65.8334 47.8316 77.4594 62.122 77.4594C76.4125 77.4594 88.0385 65.8334 88.0385 51.5429C88.0385 37.2525 76.4125 25.6265 62.122 25.6265Z" fill="#DF2828"/>
<path d="M68.7181 37.0821C66.373 39.7661 64.0278 42.4434 61.676 45.1274C59.0983 42.8753 56.5273 40.6165 53.9496 38.3643C49.5914 34.5509 43.3 41.035 47.6914 44.875C50.3754 47.2201 53.0527 49.5653 55.7367 51.9171C53.4845 54.4948 51.2257 57.0658 48.9736 59.6435C45.1602 64.0017 51.6443 70.2931 55.4842 65.9017C57.8294 63.2177 60.1746 60.5404 62.5264 57.8564C65.1041 60.1086 67.6751 62.3674 70.2528 64.6195C74.6109 68.4329 80.9024 61.9488 76.511 58.1089C73.827 55.7637 71.1497 53.4185 68.4657 51.0667C70.7178 48.489 72.9766 45.918 75.2288 43.3403C79.0488 38.9888 72.5647 32.6908 68.7181 37.0821Z" fill="white"/>
<path d="M70.0393 27.1021C63.9688 24.5064 47.2748 23.8746 38.7871 40.4312C46.7667 30.8447 55.4124 26.0103 70.0393 27.1021Z" fill="#FF7878"/>
<path d="M56.5541 76.722C70.6522 75.7057 80.4104 67.4514 87.1539 57.501C86.062 63.702 81.8731 69.4017 76.7914 72.9039C71.7097 76.4061 63.8263 78.5418 56.4785 76.722" fill="#F95757"/>
</svg>
