<svg width="120" height="108" viewBox="0 0 120 108" fill="none" xmlns="http://www.w3.org/2000/svg">
<g opacity="0.41">
<path d="M114.691 60.2219C114.799 58.639 114.751 57.0491 114.54 55.4746C113.549 48.0769 109.062 41.1011 102.457 36.179C100.101 34.4231 97.4203 32.8499 95.8868 30.532C93.3045 26.6285 93.5003 22.1424 90.2952 18.2882C87.0866 14.4296 82.4107 11.4204 77.1378 9.87495C61.4156 5.26707 39.4038 12.7696 41.3857 28.7915C41.3928 28.8491 41.4004 28.9326 41.4088 29.0383C41.6723 32.3663 38.584 35.1646 34.6536 35.2434C20.1478 35.5346 7.66137 44.9941 4.98947 56.9765C3.27116 64.6824 6.08474 73.1288 12.7493 78.5801C17.7242 82.6495 24.3989 84.8849 31.0769 86.4209C44.4666 89.5009 58.5568 90.1464 72.3627 88.9688C85.2858 87.8663 98.9177 84.7241 107.275 76.3146C111.734 71.8285 114.289 66.0757 114.691 60.2219Z" fill="#E1E2FE"/>
</g>
<g opacity="0.31">
<path d="M49.5324 8.50791C51.2569 7.82415 52.0813 5.91887 51.3737 4.25234C50.6662 2.58582 48.6946 1.78913 46.9701 2.47288C45.2456 3.15664 44.4212 5.06192 45.1288 6.72845C45.8363 8.39497 47.8079 9.19166 49.5324 8.50791Z" fill="#E1E2FE"/>
</g>
<g opacity="0.31">
<path d="M93.8508 5.18508C94.8125 5.18508 95.5922 4.43163 95.5922 3.50221C95.5922 2.57278 94.8125 1.81934 93.8508 1.81934C92.889 1.81934 92.1094 2.57278 92.1094 3.50221C92.1094 4.43163 92.889 5.18508 93.8508 5.18508Z" fill="#E1E2FE"/>
</g>
<g opacity="0.31">
<path d="M34.1251 14.2903C34.9807 13.359 34.893 11.9337 33.9293 11.1069C32.9656 10.2801 31.4907 10.3648 30.6351 11.2961C29.7795 12.2274 29.8672 13.6527 30.8309 14.4795C31.7946 15.3064 33.2695 15.2217 34.1251 14.2903Z" fill="#E1E2FE"/>
</g>
<g opacity="0.31">
<path d="M5.47325 99.7075C8.40758 99.7075 10.7863 97.4087 10.7863 94.573C10.7863 91.7373 8.40758 89.4385 5.47325 89.4385C2.53891 89.4385 0.160156 91.7373 0.160156 94.573C0.160156 97.4087 2.53891 99.7075 5.47325 99.7075Z" fill="#E1E2FE"/>
</g>
<path opacity="0.47" d="M115.11 14.8969C116.625 12.0459 115.461 8.54816 112.511 7.08439C109.56 5.62086 103.891 5.72857 102.376 8.57956C100.862 11.4306 105.402 13.8775 107.254 16.5361C109.836 20.2443 113.595 17.7479 115.11 14.8969Z" fill="#ECF1F7"/>
<path opacity="0.47" d="M102.209 102.525C104.343 103.857 107.191 103.264 108.569 101.201C109.947 99.1382 110.291 94.9532 108.157 93.6215C106.022 92.2897 103.748 95.4498 101.51 96.6125C98.3893 98.2343 100.074 101.193 102.209 102.525Z" fill="#E1E2FE"/>
<path opacity="0.47" d="M15.0835 1.81471C12.7356 -0.29238 9.06489 -0.161117 6.88451 2.1079C4.70413 4.37692 3.32502 9.50061 5.67296 11.6077C8.02091 13.7148 11.5634 10.2735 14.6065 9.30482C18.851 7.95367 17.4315 3.92179 15.0835 1.81471Z" fill="#E1E2FE"/>
<path opacity="0.47" d="M2.14223 26.308C0.049189 30.6993 -0.522564 35.7619 0.481812 40.4948C1.66239 46.0589 5.24701 50.3337 4.00322 56.2695C3.24562 59.885 3.05597 63.2343 2.67184 66.8118C1.88301 74.1576 6.81832 80.6303 12.9411 84.1253C17.9139 86.964 23.7439 88.0291 29.4612 87.9535C34.607 87.8853 39.7436 86.967 44.73 85.7324C49.5353 84.5424 54.2335 82.9746 59.2703 83.4692C63.4595 83.8807 67.2322 85.6308 71.1334 86.9358C80.4473 90.0515 91.7298 90.491 100.247 85.7478C105.713 82.704 109.538 77.7604 111.235 72.4456C112.591 68.198 112.763 64.226 111.747 59.8896C110.703 55.4375 108.942 50.9493 109.489 46.3101C109.87 43.0774 111.4 39.9572 111.12 36.7149C110.933 34.5605 109.952 32.5392 108.751 30.715C104.369 24.054 97.0304 19.5942 89.2681 17.137C81.963 14.8246 74.4294 13.1498 66.824 13.7062C51.0992 14.8565 47.8937 12.4429 31.8236 9.12134C21.4491 6.97696 9.84414 14.6209 3.7732 23.4762C3.15372 24.3788 2.61015 25.3266 2.14223 26.308Z" fill="#E1E2FE"/>
<path opacity="0.81" d="M12.9616 31.1366C12.6392 34.288 13.8629 37.5354 12.8397 40.6563C11.615 44.3926 8.06997 47.1914 6.62485 50.8598C4.4894 56.2804 4.59197 62.3544 7.18518 67.6366C8.43506 70.1823 10.2608 72.5482 12.7539 74.1843C16.5975 76.7065 21.6336 77.2597 26.3699 76.9398C33.4188 76.4637 40.8567 73.8134 47.9439 74.5362C51.8548 74.9351 53.0491 78.6112 55.069 81.0362C57.3535 83.7789 60.4646 85.9329 63.904 87.367C70.239 90.0081 77.8419 90.2582 84.3165 87.8634C91.2291 85.3065 97.2541 79.0627 96.858 72.0014C96.6747 68.7347 95.1692 65.4901 95.8661 62.2801C96.741 58.2519 100.236 54.5811 102.768 51.299C105.565 47.6743 107.258 43.3517 107.59 38.9418C107.594 38.8917 107.598 38.8417 107.601 38.7918C108.12 31.1841 102.595 24.2455 94.2592 21.8646L76.5222 16.7985C58.5254 11.6578 40.5439 11.8278 23.9963 19.3719C20.4155 21.0044 14.585 25.8683 13.3841 29.2223C13.1576 29.8551 13.0274 30.4939 12.9616 31.1366Z" fill="#E2F5FB"/>
<path opacity="0.58" d="M111.844 89.5138C112.475 89.5138 112.986 89.0195 112.986 88.4097C112.986 87.8 112.475 87.3057 111.844 87.3057C111.213 87.3057 110.701 87.8 110.701 88.4097C110.701 89.0195 111.213 89.5138 111.844 89.5138Z" fill="#FDBBA0"/>
<path opacity="0.58" d="M59.0663 3.46501C59.6973 3.46501 60.2088 2.97069 60.2088 2.36092C60.2088 1.75115 59.6973 1.25684 59.0663 1.25684C58.4353 1.25684 57.9238 1.75115 57.9238 2.36092C57.9238 2.97069 58.4353 3.46501 59.0663 3.46501Z" fill="#FDBBA0"/>
<path opacity="0.58" d="M17.7929 99.6955C18.4239 99.6955 18.9354 99.2012 18.9354 98.5914C18.9354 97.9816 18.4239 97.4873 17.7929 97.4873C17.1619 97.4873 16.6504 97.9816 16.6504 98.5914C16.6504 99.2012 17.1619 99.6955 17.7929 99.6955Z" fill="#FDBBA0"/>
<path opacity="0.58" d="M89.9062 104.093C90.3969 104.093 90.7948 103.709 90.7948 103.235C90.7948 102.76 90.3969 102.376 89.9062 102.376C89.4154 102.376 89.0176 102.76 89.0176 103.235C89.0176 103.709 89.4154 104.093 89.9062 104.093Z" fill="#B7E3C0"/>
<path opacity="0.58" d="M1.30265 85.9679C1.93363 85.9679 2.44514 85.4736 2.44514 84.8639C2.44514 84.2541 1.93363 83.7598 1.30265 83.7598C0.671667 83.7598 0.160156 84.2541 0.160156 84.8639C0.160156 85.4736 0.671667 85.9679 1.30265 85.9679Z" fill="#B7E3C0"/>
<path opacity="0.58" d="M83.582 6.34833C84.0727 6.34833 84.4706 5.96386 84.4706 5.48959C84.4706 5.01533 84.0727 4.63086 83.582 4.63086C83.0912 4.63086 82.6934 5.01533 82.6934 5.48959C82.6934 5.96386 83.0912 6.34833 83.582 6.34833Z" fill="#FDBBA0"/>
<path opacity="0.58" d="M23.789 14.7966C23.9994 14.7966 24.1699 14.6318 24.1699 14.4286C24.1699 14.2253 23.9994 14.0605 23.789 14.0605C23.5787 14.0605 23.4082 14.2253 23.4082 14.4286C23.4082 14.6318 23.5787 14.7966 23.789 14.7966Z" fill="#FDBBA0"/>
<path opacity="0.58" d="M114.743 25.4516C114.585 26.1678 113.856 26.6241 113.115 26.4713C112.374 26.3184 111.902 25.6137 112.06 24.8978C112.218 24.1816 112.947 23.7253 113.688 23.8781C114.429 24.031 114.902 24.7354 114.743 25.4516Z" fill="#B7E3C0"/>
<path opacity="0.58" d="M20.5506 4.09443C20.4887 4.37535 20.2028 4.55422 19.9121 4.49435C19.6214 4.43448 19.4363 4.15822 19.4983 3.87729C19.5602 3.59636 19.8461 3.4175 20.1368 3.47736C20.4275 3.53723 20.6128 3.8135 20.5506 4.09443Z" fill="#B7E3C0"/>
<path opacity="0.58" d="M106.305 1.90942C106.252 2.14815 106.009 2.30027 105.762 2.24924C105.515 2.1982 105.358 1.9634 105.411 1.72467C105.463 1.48594 105.706 1.33383 105.953 1.38486C106.2 1.43589 106.358 1.67069 106.305 1.90942Z" fill="#FDBBA0"/>
<path opacity="0.58" d="M9.5609 107.318C9.50809 107.556 9.26512 107.708 9.01809 107.657C8.77105 107.606 8.61364 107.372 8.66645 107.133C8.71926 106.894 8.96223 106.742 9.20926 106.793C9.45629 106.844 9.6137 107.079 9.5609 107.318Z" fill="#FDBBA0"/>
<path d="M119.644 54.6584L105.897 77.1067C105.197 78.2493 103.698 78.6097 102.552 77.9081L75.9267 61.6035C74.7809 60.9018 74.4238 59.4047 75.1234 58.2622L88.8699 35.8138C89.5716 34.668 91.0673 34.3055 92.2132 35.0072L118.839 51.3118C119.985 52.0134 120.345 53.5125 119.644 54.6584Z" fill="#FE8C00"/>
<path d="M102.03 61.1084C104.597 58.5417 104.597 54.3802 102.03 51.8134C99.4637 49.2467 95.3021 49.2467 92.7354 51.8134C90.1686 54.3802 90.1686 58.5417 92.7354 61.1084C95.3021 63.6752 99.4637 63.6752 102.03 61.1084Z" fill="white"/>
<path d="M99.2874 58.5315L95.2537 58.576C94.5347 58.5828 94.0888 57.7967 94.4643 57.1835L96.704 53.5259C97.0795 52.9128 97.9825 52.9526 98.3031 53.5962L100.097 57.2093C100.395 57.813 99.9604 58.5221 99.2874 58.5315Z" fill="#FE8C00"/>
<path d="M74.479 26.5357L80.7863 48.215C81.0835 49.2366 80.4936 50.3105 79.4721 50.6077L49.6129 59.2948C48.5913 59.592 47.5174 59.0022 47.2202 57.9806L40.9129 36.3013C40.6157 35.2797 41.2055 34.2059 42.2271 33.9086L72.0863 25.2215C73.1079 24.9243 74.1818 25.5141 74.479 26.5357Z" fill="#22C08B"/>
<path d="M74.7644 45.0816L50.6211 52.1058L55.7208 42.8164L61.3072 45.2302L64.6683 37.209L74.7644 45.0816Z" fill="white"/>
<path d="M61.1373 40.6468C61.5025 39.6605 60.999 38.5649 60.0126 38.1997C59.0263 37.8345 57.9307 38.3381 57.5655 39.3244C57.2003 40.3108 57.7039 41.4064 58.6902 41.7716C59.6766 42.1367 60.7722 41.6332 61.1373 40.6468Z" fill="white"/>
<path d="M21.707 83.1887L53.8805 67.0717L45.9855 44.3485C45.5726 43.1585 44.2081 42.6026 43.0812 43.1671L14.6698 57.3996C13.7335 57.8686 13.2882 58.9605 13.6346 59.9496L21.707 83.1887Z" fill="#52CDEE"/>
<path d="M37.8277 40.119L49.9581 64.3343C50.4267 65.2697 50.0495 66.4093 49.112 66.8789L24.6515 79.1322C23.7161 79.6008 22.5775 79.2205 22.1089 78.2851L9.97843 54.0698C9.50982 53.1344 9.88811 51.9969 10.8235 51.5283L35.2841 39.275C36.2215 38.8054 37.3591 39.1836 37.8277 40.119Z" fill="#C8F2FD"/>
<path d="M34.8596 43.4731L13.8398 54.0029L14.0928 54.5079L35.1125 43.9781L34.8596 43.4731Z" fill="#52B3CD"/>
<path d="M35.9494 45.6518L14.9297 56.1816L15.1827 56.6866L36.2024 46.1568L35.9494 45.6518Z" fill="#52B3CD"/>
<path d="M37.0412 47.8315L16.0215 58.3613L16.2744 58.8663L37.2942 48.3365L37.0412 47.8315Z" fill="#52B3CD"/>
<path d="M38.131 50.0063L17.1113 60.5361L17.3643 61.0411L38.384 50.5113L38.131 50.0063Z" fill="#52B3CD"/>
<path d="M39.2228 52.187L18.2031 62.7168L18.4561 63.2218L39.4758 52.6919L39.2228 52.187Z" fill="#52B3CD"/>
<path d="M4.55799 62.6364L19.265 84.413L53.8796 67.0732L41.7921 49.1753C41.2489 48.3709 40.1932 48.0943 39.3253 48.5291L25.1467 55.6317C24.597 55.9071 23.9489 55.9044 23.4014 55.6245L19.4634 53.6106C18.916 53.3306 18.2679 53.328 17.7181 53.6034L5.29386 59.8272C4.25103 60.3496 3.90523 61.6698 4.55799 62.6364Z" fill="#52B3CD"/>
<path d="M110.876 82.2101C110.876 91.3257 103.466 98.7356 94.3349 98.7356H23.1182C16.0109 98.7356 10.2422 92.9667 10.2422 85.8595C10.2422 78.7366 16.0109 72.9677 23.1182 72.9677C23.9788 72.9677 24.8073 73.0471 25.604 73.2066C25.3492 72.0278 25.2216 70.7843 25.2216 69.5253C25.2216 59.9001 33.0144 52.0917 42.6554 52.0917C45.97 52.0917 49.0616 53.0162 51.691 54.6097C54.91 47.7094 61.9216 42.9287 70.049 42.9287C81.2358 42.9287 90.3032 51.9961 90.3032 63.1674C90.3032 64.203 90.2235 65.2224 90.0641 66.2269C91.4346 65.8604 92.8528 65.669 94.3348 65.669C103.466 65.6691 110.876 73.079 110.876 82.2101Z" fill="#EAE8FE"/>
<path d="M110.875 82.2078C110.875 91.3251 103.466 98.7341 94.3339 98.7341H23.1196C16.01 98.7341 10.2402 92.9643 10.2402 85.8586C10.2402 85.801 10.2402 85.7395 10.2441 85.682C10.3248 92.0736 15.5417 97.2369 21.9564 97.2369H86.7407C95.0479 97.2369 101.789 90.4959 101.789 82.2039C101.789 73.8967 95.048 67.1595 86.7407 67.1595C85.3933 67.1595 84.0996 67.3323 82.8558 67.6662C82.9978 66.7526 83.0708 65.8236 83.0708 64.883C83.0708 54.7178 74.825 46.472 64.6482 46.472C61.4888 46.472 58.5137 47.2666 55.9148 48.6679C59.5656 45.117 64.5522 42.9287 70.0494 42.9287C81.2358 42.9287 90.3032 51.9961 90.3032 63.1672C90.3032 64.2037 90.2225 65.2209 90.0652 66.2266C91.4356 65.8581 92.8522 65.6662 94.334 65.6662C103.466 65.6662 110.875 73.079 110.875 82.2078Z" fill="#D7DAF4"/>
<path d="M10.2402 85.5267C10.2402 83.1966 10.9197 81.0275 12.0868 79.2041C10.9428 81.1005 10.2748 83.3156 10.2441 85.6841C10.2402 85.6303 10.2402 85.5804 10.2402 85.5267Z" fill="#EAE8FE"/>
<path d="M69.4695 72.5038H65.896C65.4007 72.5038 64.9938 72.8949 64.9742 73.3898L63.4444 92.8344H55.2735L53.7493 73.39C53.7299 72.895 53.3229 72.5037 52.8275 72.5037H49.2425C48.484 72.5037 48.0497 71.6393 48.5023 71.0307L58.6158 57.4316C58.9847 56.9356 59.7275 56.9356 60.0963 57.4316L70.2098 71.0307C70.6624 71.6394 70.228 72.5038 69.4695 72.5038Z" fill="#FE8C00"/>
<path d="M13.5328 34.2882C20.4793 34.2882 26.1105 28.657 26.1105 21.7105C26.1105 14.764 20.4793 9.13281 13.5328 9.13281C6.58631 9.13281 0.955078 14.764 0.955078 21.7105C0.955078 28.657 6.58631 34.2882 13.5328 34.2882Z" fill="#CBF3C1"/>
<path d="M17.3219 34.2921C24.2683 34.2921 29.8996 28.6609 29.8996 21.7144C29.8996 14.768 24.2683 9.13672 17.3219 9.13672C10.3754 9.13672 4.74414 14.768 4.74414 21.7144C4.74414 28.6609 10.3754 34.2921 17.3219 34.2921Z" fill="#66D64A"/>
<path d="M17.0497 28.5254C16.4501 28.5254 15.8778 28.2733 15.469 27.8237L11.0197 22.9111C10.6382 22.4887 10.6654 21.8346 11.0947 21.453C11.5171 21.0715 12.1712 21.0987 12.5528 21.528L17.002 26.4405C17.0088 26.4473 17.0292 26.4678 17.0633 26.461C17.0974 26.4541 17.111 26.4337 17.111 26.4201L21.9009 15.5185C22.1326 14.9938 22.739 14.7554 23.2636 14.987C23.7882 15.2187 24.0267 15.8251 23.795 16.3497L19.0052 27.2513C18.7122 27.919 18.1126 28.3824 17.3972 28.4982C17.2813 28.5186 17.1655 28.5254 17.0497 28.5254Z" fill="white"/>
</svg>
