<svg width="120" height="117" viewBox="0 0 120 117" fill="none" xmlns="http://www.w3.org/2000/svg">
<g opacity="0.41">
<path d="M118.873 73.0686C118.986 71.1289 118.935 69.1805 118.717 67.251C117.69 58.1854 113.039 49.6368 106.193 43.6051C103.751 41.4533 100.972 39.5254 99.3827 36.6849C96.7062 31.9013 96.9091 26.4038 93.587 21.6807C90.2613 16.9521 85.4148 13.2645 79.9494 11.3706C63.6533 5.72384 40.8381 14.9179 42.8923 34.5521C42.8997 34.6226 42.9076 34.725 42.9163 34.8544C43.1894 38.9328 39.9884 42.362 35.9145 42.4585C20.8792 42.8154 7.93706 54.4076 5.16763 69.0915C3.38661 78.5348 6.30288 88.8854 13.2107 95.5659C18.3672 100.553 25.2855 103.292 32.2072 105.174C46.0857 108.949 60.6902 109.74 75 108.297C88.3948 106.946 102.524 103.095 111.187 92.7896C115.809 87.292 118.456 80.2422 118.873 73.0686Z" fill="#E1E2FE"/>
</g>
<g opacity="0.31">
<path d="M51.3375 9.70653C53.125 8.97317 53.9795 6.92965 53.2461 5.14221C52.5127 3.35477 50.4692 2.50028 48.6818 3.23364C46.8943 3.96701 46.0398 6.01053 46.7732 7.79797C47.5066 9.58541 49.5501 10.4399 51.3375 9.70653Z" fill="#E1E2FE"/>
</g>
<g opacity="0.31">
<path d="M97.2757 6.14315C98.2725 6.14315 99.0807 5.33503 99.0807 4.33817C99.0807 3.34132 98.2725 2.5332 97.2757 2.5332C96.2788 2.5332 95.4707 3.34132 95.4707 4.33817C95.4707 5.33503 96.2788 6.14315 97.2757 6.14315Z" fill="#E1E2FE"/>
</g>
<g opacity="0.31">
<path d="M35.3695 15.9077C36.2564 14.9088 36.1655 13.3801 35.1666 12.4933C34.1677 11.6065 32.639 11.6973 31.7522 12.6962C30.8654 13.6951 30.9562 15.2238 31.9551 16.1106C32.954 16.9974 34.4827 16.9066 35.3695 15.9077Z" fill="#E1E2FE"/>
</g>
<g opacity="0.31">
<path d="M5.67108 107.526C8.71252 107.526 11.1781 105.06 11.1781 102.019C11.1781 98.9773 8.71252 96.5117 5.67108 96.5117C2.62964 96.5117 0.164062 98.9773 0.164062 102.019C0.164062 105.06 2.62964 107.526 5.67108 107.526Z" fill="#E1E2FE"/>
</g>
<path opacity="0.47" d="M119.311 16.5603C120.881 13.5024 119.674 9.75093 116.616 8.18095C113.558 6.61124 107.682 6.72677 106.112 9.78461C104.542 12.8425 109.249 15.4669 111.168 18.3184C113.844 22.2957 117.741 19.6181 119.311 16.5603Z" fill="#ECF1F7"/>
<path opacity="0.47" d="M105.94 110.545C108.152 111.973 111.103 111.338 112.532 109.125C113.96 106.912 114.317 102.424 112.104 100.995C109.892 99.567 107.535 102.956 105.216 104.203C101.981 105.943 103.727 109.116 105.94 110.545Z" fill="#E1E2FE"/>
<path opacity="0.47" d="M15.6338 2.52888C13.2001 0.268918 9.39547 0.409705 7.13551 2.84335C4.87554 5.277 3.44609 10.7724 5.87974 13.0324C8.31338 15.2924 11.9852 11.6014 15.1393 10.5624C19.5387 9.11325 18.0674 4.78885 15.6338 2.52888Z" fill="#E1E2FE"/>
<path opacity="0.47" d="M2.22042 28.7992C0.0509844 33.5091 -0.541638 38.9391 0.499398 44.0153C1.72306 49.9831 5.43853 54.568 4.14934 60.9345C3.36409 64.8123 3.16751 68.4047 2.76936 72.2417C1.95174 80.1205 7.06719 87.0628 13.4134 90.8114C18.5678 93.8561 24.6106 94.9985 30.5366 94.9174C35.8702 94.8442 41.1943 93.8593 46.3626 92.5351C51.3433 91.2588 56.213 89.5772 61.4337 90.1077C65.7757 90.549 69.6862 92.4261 73.7298 93.8258C83.3836 97.1676 95.0779 97.6389 103.906 92.5517C109.571 89.287 113.537 83.9847 115.295 78.2842C116.701 73.7285 116.879 69.4683 115.826 64.8173C114.744 60.0422 112.918 55.2283 113.485 50.2526C113.88 46.7853 115.466 43.4387 115.176 39.9612C114.982 37.6504 113.965 35.4825 112.721 33.526C108.178 26.3816 100.572 21.5983 92.5264 18.9628C84.9547 16.4826 77.1461 14.6863 69.2631 15.2831C52.9644 16.5168 49.6418 13.9281 32.9852 10.3656C22.232 8.0656 10.2035 16.2642 3.91092 25.7619C3.26883 26.73 2.70542 27.7466 2.22042 28.7992Z" fill="#E1E2FE"/>
<path opacity="0.81" d="M13.4333 36.1406C13.0991 39.9016 14.3675 43.7773 13.307 47.502C12.0375 51.9611 8.36308 55.3013 6.86521 59.6794C4.65182 66.1488 4.75814 73.3979 7.44599 79.702C8.7415 82.7401 10.6338 85.5638 13.218 87.5164C17.2019 90.5266 22.4218 91.1868 27.3309 90.805C34.6371 90.2368 42.3465 87.0737 49.6924 87.9364C53.7461 88.4124 54.9839 92.7997 57.0776 95.6939C59.4454 98.9672 62.6701 101.538 66.2351 103.25C72.8013 106.402 80.6817 106.7 87.3926 103.842C94.5575 100.79 100.802 93.3386 100.392 84.9111C100.202 81.0125 98.6414 77.1402 99.3638 73.3092C100.271 68.5017 103.893 64.1207 106.518 60.2036C109.417 55.8776 111.172 50.7188 111.516 45.4557C111.52 45.396 111.524 45.3362 111.527 45.2768C112.065 36.1972 106.339 27.9162 97.6983 25.0747L79.3138 19.0285C60.6602 12.8933 42.0223 13.0962 24.8707 22.0997C21.1592 24.0481 15.1159 29.853 13.8712 33.8559C13.6364 34.6111 13.5014 35.3735 13.4333 36.1406Z" fill="#E2F5FB"/>
<path opacity="0.58" d="M115.926 96.593C116.58 96.593 117.111 96.0628 117.111 95.4088C117.111 94.7548 116.58 94.2246 115.926 94.2246C115.272 94.2246 114.742 94.7548 114.742 95.4088C114.742 96.0628 115.272 96.593 115.926 96.593Z" fill="#FDBBA0"/>
<path opacity="0.58" d="M61.2233 4.29807C61.8773 4.29807 62.4074 3.76789 62.4074 3.11388C62.4074 2.45987 61.8773 1.92969 61.2233 1.92969C60.5692 1.92969 60.0391 2.45987 60.0391 3.11388C60.0391 3.76789 60.5692 4.29807 61.2233 4.29807Z" fill="#FDBBA0"/>
<path opacity="0.58" d="M18.442 107.512C19.096 107.512 19.6262 106.982 19.6262 106.328C19.6262 105.674 19.096 105.144 18.442 105.144C17.788 105.144 17.2578 105.674 17.2578 106.328C17.2578 106.982 17.788 107.512 18.442 107.512Z" fill="#FDBBA0"/>
<path opacity="0.58" d="M93.1867 112.229C93.6953 112.229 94.1077 111.816 94.1077 111.308C94.1077 110.799 93.6953 110.387 93.1867 110.387C92.678 110.387 92.2656 110.799 92.2656 111.308C92.2656 111.816 92.678 112.229 93.1867 112.229Z" fill="#B7E3C0"/>
<path opacity="0.58" d="M1.34825 92.7883C2.00227 92.7883 2.53245 92.2581 2.53245 91.6041C2.53245 90.9501 2.00227 90.4199 1.34825 90.4199C0.694243 90.4199 0.164062 90.9501 0.164062 91.6041C0.164062 92.2581 0.694243 92.7883 1.34825 92.7883Z" fill="#B7E3C0"/>
<path opacity="0.58" d="M86.632 7.3909C87.1407 7.3909 87.553 6.97854 87.553 6.46987C87.553 5.96119 87.1407 5.54883 86.632 5.54883C86.1233 5.54883 85.7109 5.96119 85.7109 6.46987C85.7109 6.97854 86.1233 7.3909 86.632 7.3909Z" fill="#FDBBA0"/>
<path opacity="0.58" d="M24.6564 16.4535C24.8745 16.4535 25.0512 16.2768 25.0512 16.0588C25.0512 15.8408 24.8745 15.6641 24.6564 15.6641C24.4384 15.6641 24.2617 15.8408 24.2617 16.0588C24.2617 16.2768 24.4384 16.4535 24.6564 16.4535Z" fill="#FDBBA0"/>
<path opacity="0.58" d="M118.932 27.8813C118.768 28.6495 118.012 29.139 117.244 28.975C116.476 28.8111 115.987 28.0553 116.151 27.2874C116.315 26.5193 117.07 26.0298 117.838 26.1937C118.607 26.3577 119.096 27.1132 118.932 27.8813Z" fill="#B7E3C0"/>
<path opacity="0.58" d="M21.3024 4.97304C21.2382 5.27435 20.9419 5.46619 20.6405 5.40198C20.3392 5.33777 20.1474 5.04146 20.2116 4.74015C20.2758 4.43884 20.5721 4.247 20.8734 4.31121C21.1747 4.37542 21.3668 4.67173 21.3024 4.97304Z" fill="#B7E3C0"/>
<path opacity="0.58" d="M110.184 2.62984C110.129 2.88589 109.877 3.04904 109.621 2.99431C109.365 2.93957 109.202 2.68773 109.257 2.43168C109.311 2.17563 109.563 2.01248 109.819 2.06722C110.075 2.12195 110.238 2.37379 110.184 2.62984Z" fill="#FDBBA0"/>
<path opacity="0.58" d="M9.90837 115.687C9.85363 115.944 9.60179 116.107 9.34575 116.052C9.0897 115.997 8.92654 115.745 8.98128 115.489C9.03601 115.233 9.28785 115.07 9.5439 115.125C9.79995 115.18 9.9631 115.431 9.90837 115.687Z" fill="#FDBBA0"/>
<path d="M89.5569 49.9658H20.5332V99.1115H89.5569V49.9658Z" fill="#9F4723"/>
<path d="M96.2759 32.592H83.5078V20.9349C83.5078 18.5843 85.4153 16.6768 87.766 16.6768C88.9413 16.6768 90.0075 17.152 90.7782 17.9227C91.5361 18.6806 92.0178 19.7339 92.0242 20.8964V20.9349L92.0178 28.3338C92.0178 28.3723 92.0178 28.4108 92.0242 28.443V28.6678L92.037 28.6613C92.204 30.8579 94.0345 32.592 96.2759 32.592Z" fill="#86A7FF"/>
<path d="M100.534 25.7588V28.3343C100.534 29.5096 100.058 30.5757 99.2877 31.34C98.5234 32.1107 97.4572 32.586 96.2819 32.586C94.0404 32.586 92.2035 30.8519 92.043 28.6554L100.534 25.7588Z" fill="#D3DFFF"/>
<path d="M87.7654 16.6768C87.6755 16.6768 87.5855 16.6832 87.502 16.6896C87.4442 16.696 87.3864 16.696 87.3351 16.7024C87.2708 16.7089 87.213 16.7153 87.1552 16.7281C87.1167 16.7346 87.0846 16.741 87.046 16.7474C87.0011 16.7538 86.9561 16.7667 86.9112 16.7731C86.8469 16.7859 86.7827 16.7988 86.7185 16.8181C86.6286 16.8437 86.5387 16.8694 86.4487 16.9015C86.4038 16.9144 86.3588 16.9337 86.3139 16.9465C86.2689 16.9594 86.2239 16.9786 86.1854 16.9979C86.1212 17.0236 86.0634 17.0493 86.0056 17.075C85.9542 17.1006 85.9028 17.1199 85.8514 17.152C85.8386 17.1585 85.8193 17.1649 85.8065 17.1777C85.7615 17.2034 85.7166 17.2291 85.6716 17.2548C85.4918 17.3576 85.3184 17.4667 85.1642 17.5952C85.1193 17.6337 85.0679 17.6723 85.0293 17.7044C84.978 17.7493 84.933 17.7879 84.8816 17.8328C84.8302 17.8778 84.7853 17.9227 84.7403 17.9677C84.6119 18.0962 84.4963 18.231 84.3807 18.3787C84.3293 18.443 84.2843 18.5072 84.2394 18.5714C84.0981 18.7898 83.976 19.0146 83.8669 19.2586C83.8412 19.3164 83.8155 19.3807 83.7898 19.4385C83.7191 19.6247 83.6613 19.8174 83.6164 20.0101C83.6035 20.0807 83.5907 20.145 83.5778 20.2092C83.5521 20.3441 83.5329 20.4789 83.5265 20.6138V80.3311H26.6094V23.3177C26.6094 19.6504 29.583 16.6832 33.2439 16.6832H87.7654V16.6768Z" fill="#D3DFFF"/>
<path d="M76.526 22.7646H33.334V25.0383H76.526V22.7646Z" fill="#ADC3FF"/>
<path d="M73.1798 29.4189H33.334V31.6925H73.1798V29.4189Z" fill="#ADC3FF"/>
<path d="M71.0796 36.0791H33.334V38.3527H71.0796V36.0791Z" fill="#ADC3FF"/>
<path d="M76.526 42.7334H33.334V45.007H76.526V42.7334Z" fill="#ADC3FF"/>
<path d="M73.4422 49.4697H50.0254V51.7433H73.4422V49.4697Z" fill="#ADC3FF"/>
<path d="M54.7407 62.2396C54.4838 62.2396 54.2462 62.1496 54.0792 61.9248C53.8801 61.6487 53.8929 61.2697 53.8994 61.0193L54.1177 55.1426L54.4453 55.1554L54.2269 61.0321C54.2141 61.3083 54.2205 61.5652 54.3425 61.7386C54.6187 62.1175 55.2802 61.79 55.4151 61.7193C56.0702 61.3661 56.539 60.711 56.9951 60.0687C57.5024 59.3622 58.0227 58.6236 58.8127 58.2832C59.2815 58.0777 59.6283 58.3796 59.9045 58.6172C60.0586 58.7521 60.2128 58.8805 60.3669 58.9255C60.778 59.0475 61.189 58.9383 61.6257 58.8292C62.0111 58.7264 62.4093 58.6236 62.8203 58.6879C63.1929 58.7457 63.4947 58.8934 63.7902 59.0411C64.2205 59.253 64.593 59.4393 65.1325 59.3044C65.8775 59.1246 66.5647 58.7007 67.2327 58.2897C67.4254 58.174 67.618 58.052 67.8171 57.9364C68.5686 57.4997 69.699 56.9473 70.8229 57.2042L70.7523 57.5189C69.7375 57.2877 68.6906 57.8015 67.9841 58.2126C67.7914 58.3218 67.5988 58.4438 67.4061 58.5594C66.7189 58.9833 66.006 59.42 65.2096 59.6127C64.5545 59.7668 64.092 59.5421 63.6424 59.3237C63.3727 59.1888 63.0965 59.0539 62.769 59.0026C62.4286 58.9512 62.0753 59.0411 61.7092 59.1374C61.2532 59.2595 60.778 59.3815 60.277 59.2338C60.0522 59.1696 59.8724 59.009 59.6925 58.8548C59.4035 58.6044 59.2109 58.4566 58.9475 58.5722C58.241 58.8805 57.7658 59.5485 57.2648 60.2485C56.7895 60.9165 56.295 61.6101 55.5757 61.9955C55.3123 62.1368 55.0105 62.2396 54.7407 62.2396Z" fill="#9F4723"/>
<path opacity="0.3" d="M83.5265 52.021V80.3189H26.6094V49.5547L44.3871 64.3459C45.3698 65.1616 46.6543 65.4763 47.9196 65.2965C48.2856 65.2451 48.6646 65.2258 49.0371 65.2323L61.1565 65.5727C61.574 65.5855 61.9915 65.6369 62.3961 65.7268C63.6549 65.9965 64.9651 65.7525 66.0056 64.9818L83.5265 52.021Z" fill="#86A7FF"/>
<path d="M46.4864 70.3363L46.0111 70.863L24.5917 94.6138L20.5391 99.1096V49.9639L46.4864 70.3363Z" fill="#FE8C00"/>
<path d="M89.5572 49.9639L63.6035 70.3363L89.5572 99.1096V49.9639Z" fill="#FE8C00"/>
<path d="M46.0117 70.862L24.5923 94.6128L20.5332 95.5055V86.7708C31.2397 79.0958 43.2499 70.2005 45.9988 70.0078L46.0117 70.862Z" fill="#D9683B"/>
<path d="M64.0781 70.862L85.4975 94.6128L89.5566 95.5055V86.7708C78.8501 79.0958 66.8398 70.2005 64.091 70.0078L64.0781 70.862Z" fill="#D9683B"/>
<path d="M89.5569 99.1104H20.5332L20.546 92.6429L44.3289 71.0694C45.5749 69.939 47.1998 69.3096 48.889 69.3096H61.0149C62.6719 69.3096 64.2775 69.9197 65.5171 71.018L89.6211 92.4181L89.5569 99.1104Z" fill="#FE8C00"/>
<path opacity="0.4" d="M87.8315 102.834C97.4315 102.834 105.214 95.0516 105.214 85.4516C105.214 75.8516 97.4315 68.0693 87.8315 68.0693C78.2315 68.0693 70.4492 75.8516 70.4492 85.4516C70.4492 95.0516 78.2315 102.834 87.8315 102.834Z" fill="#D9683B"/>
<path d="M93.0678 102.837C102.668 102.837 110.45 95.0545 110.45 85.4545C110.45 75.8546 102.668 68.0723 93.0678 68.0723C83.4679 68.0723 75.6855 75.8546 75.6855 85.4545C75.6855 95.0545 83.4679 102.837 93.0678 102.837Z" fill="#66D64A"/>
<path d="M92.6917 94.8685C91.8631 94.8685 91.0721 94.5201 90.5071 93.8986L84.3584 87.1096C83.831 86.5258 83.8687 85.6218 84.4619 85.0945C85.0457 84.5672 85.9497 84.6049 86.477 85.1981L92.6258 91.9872C92.6352 91.9966 92.6634 92.0248 92.7105 92.0154C92.7576 92.006 92.7764 91.9777 92.7764 91.9589L99.396 76.893C99.7162 76.168 100.554 75.8384 101.279 76.1586C102.004 76.4787 102.334 77.3167 102.014 78.0418L95.3941 93.1077C94.9892 94.0305 94.1606 94.6708 93.1719 94.8308C93.0118 94.8591 92.8517 94.8685 92.6917 94.8685Z" fill="white"/>
</svg>
