<svg width="200" height="193" viewBox="0 0 200 193" fill="none" xmlns="http://www.w3.org/2000/svg">
<g opacity="0.41">
<path d="M198.125 120.537C198.313 117.304 198.228 114.057 197.864 110.841C196.153 95.7318 188.401 81.4842 176.992 71.4313C172.921 67.845 168.29 64.6319 165.641 59.8977C161.18 51.9251 161.518 42.7625 155.982 34.8907C150.439 27.0097 142.361 20.8637 133.252 17.7072C106.092 8.29591 68.0668 23.6194 71.4904 56.343C71.5027 56.4605 71.5159 56.6311 71.5303 56.8469C71.9856 63.6442 66.6506 69.3594 59.8608 69.5204C34.802 70.1151 13.2317 89.4354 8.61598 113.909C5.6476 129.648 10.5081 146.899 22.021 158.033C30.6152 166.344 42.1457 170.91 53.6819 174.047C76.8127 180.338 101.154 181.656 125.003 179.251C147.328 176.999 170.877 170.581 185.315 153.405C193.018 144.243 197.43 132.493 198.125 120.537Z" fill="#E1E2FE"/>
</g>
<g opacity="0.31">
<path d="M85.5664 14.9285C88.5455 13.7063 89.9697 10.3004 88.7474 7.32132C87.5251 4.34226 84.1192 2.9181 81.1402 4.14038C78.1611 5.36266 76.7369 8.76853 77.9592 11.7476C79.1815 14.7267 82.5874 16.1508 85.5664 14.9285Z" fill="#E1E2FE"/>
</g>
<g opacity="0.31">
<path d="M162.129 8.9863C163.791 8.9863 165.138 7.63944 165.138 5.97801C165.138 4.31658 163.791 2.96973 162.129 2.96973C160.468 2.96973 159.121 4.31658 159.121 5.97801C159.121 7.63944 160.468 8.9863 162.129 8.9863Z" fill="#E1E2FE"/>
</g>
<g opacity="0.31">
<path d="M58.9512 25.2648C60.4292 23.6 60.2778 21.0522 58.613 19.5741C56.9482 18.0961 54.4004 18.2475 52.9223 19.9123C51.4443 21.5771 51.5957 24.1249 53.2605 25.603C54.9254 27.081 57.4732 26.9296 58.9512 25.2648Z" fill="#E1E2FE"/>
</g>
<g opacity="0.31">
<path d="M9.45376 177.959C14.5228 177.959 18.6321 173.85 18.6321 168.781C18.6321 163.712 14.5228 159.603 9.45376 159.603C4.38468 159.603 0.275391 163.712 0.275391 168.781C0.275391 173.85 4.38468 177.959 9.45376 177.959Z" fill="#E1E2FE"/>
</g>
<path opacity="0.47" d="M198.853 26.3505C201.47 21.2541 199.459 15.0015 194.362 12.3849C189.266 9.76874 179.472 9.96128 176.855 15.0577C174.239 20.1541 182.083 24.5282 185.281 29.2807C189.742 35.9096 196.236 31.4469 198.853 26.3505Z" fill="#ECF1F7"/>
<path opacity="0.47" d="M176.568 182.993C180.256 185.374 185.174 184.315 187.555 180.627C189.936 176.94 190.53 169.459 186.843 167.078C183.155 164.697 179.227 170.346 175.361 172.425C169.97 175.324 172.88 180.613 176.568 182.993Z" fill="#E1E2FE"/>
<path opacity="0.47" d="M26.0583 2.96643C22.0022 -0.800176 15.6611 -0.56553 11.8945 3.49055C8.12786 7.54663 5.74544 16.7057 9.80152 20.4723C13.8576 24.2389 19.9772 18.0872 25.2342 16.3557C32.5665 13.9404 30.1144 6.73304 26.0583 2.96643Z" fill="#E1E2FE"/>
<path opacity="0.47" d="M3.70071 46.7503C0.084974 54.6002 -0.90273 63.6501 0.832331 72.1105C2.87177 82.0568 9.06422 89.6983 6.91557 100.309C5.60682 106.772 5.27919 112.759 4.6156 119.154C3.25291 132.286 11.7787 143.856 22.3557 150.104C30.9463 155.178 41.0177 157.082 50.8943 156.947C59.7836 156.825 68.6572 155.184 77.271 152.977C85.5722 150.85 93.6883 148.047 102.39 148.931C109.626 149.667 116.144 152.795 122.883 155.128C138.973 160.698 158.463 161.483 173.176 153.004C182.619 147.563 189.228 138.726 192.159 129.225C194.501 121.633 194.799 114.532 193.043 106.781C191.24 98.8219 188.197 90.7988 189.142 82.5059C189.8 76.7271 192.443 71.1495 191.959 65.3535C191.637 61.5023 189.942 57.8892 187.868 54.6283C180.297 42.721 167.62 34.7488 154.211 30.3563C141.591 26.2226 128.577 23.2288 115.438 24.2235C88.2739 26.2796 82.7363 21.9652 54.9753 16.0276C37.0533 12.1943 17.0058 25.8586 6.51821 41.6881C5.44805 43.3017 4.50903 44.996 3.70071 46.7503Z" fill="#E1E2FE"/>
<path opacity="0.81" d="M22.3907 58.984C21.8337 65.2523 23.9477 71.7118 22.1802 77.9196C20.0644 85.3515 13.9404 90.9186 11.444 98.2154C7.75499 108.998 7.93218 121.08 12.4119 131.586C14.5711 136.65 17.725 141.356 22.032 144.61C28.6718 149.627 37.3716 150.728 45.5535 150.091C57.7305 149.144 70.5795 143.873 82.8227 145.31C89.5787 146.104 91.6418 153.416 95.1313 158.239C99.0777 163.695 104.452 167.98 110.394 170.832C121.337 176.086 134.471 176.583 145.656 171.819C157.598 166.734 168.006 154.314 167.322 140.268C167.005 133.771 164.404 127.317 165.608 120.932C167.12 112.919 173.157 105.617 177.532 99.0891C182.363 91.8791 185.288 83.281 185.862 74.5092C185.868 74.4096 185.875 74.3101 185.881 74.2109C186.778 59.0783 177.233 45.2767 162.832 40.5408L132.192 30.4638C101.102 20.2385 70.0391 20.5767 41.4532 35.5826C35.2673 38.8299 25.1951 48.5047 23.1205 55.1761C22.7293 56.4349 22.5043 57.7055 22.3907 58.984Z" fill="#E2F5FB"/>
<path opacity="0.58" d="M193.21 159.738C194.3 159.738 195.184 158.855 195.184 157.765C195.184 156.675 194.3 155.791 193.21 155.791C192.12 155.791 191.236 156.675 191.236 157.765C191.236 158.855 192.12 159.738 193.21 159.738Z" fill="#FDBBA0"/>
<path opacity="0.58" d="M102.038 5.91703C103.128 5.91703 104.012 5.0334 104.012 3.94338C104.012 2.85336 103.128 1.96973 102.038 1.96973C100.948 1.96973 100.064 2.85336 100.064 3.94338C100.064 5.0334 100.948 5.91703 102.038 5.91703Z" fill="#FDBBA0"/>
<path opacity="0.58" d="M30.7373 177.939C31.8273 177.939 32.711 177.056 32.711 175.966C32.711 174.876 31.8273 173.992 30.7373 173.992C29.6473 173.992 28.7637 174.876 28.7637 175.966C28.7637 177.056 29.6473 177.939 30.7373 177.939Z" fill="#FDBBA0"/>
<path opacity="0.58" d="M155.31 185.8C156.158 185.8 156.846 185.112 156.846 184.265C156.846 183.417 156.158 182.729 155.31 182.729C154.463 182.729 153.775 183.417 153.775 184.265C153.775 185.112 154.463 185.8 155.31 185.8Z" fill="#B7E3C0"/>
<path opacity="0.58" d="M2.24904 153.399C3.33906 153.399 4.2227 152.516 4.2227 151.426C4.2227 150.336 3.33906 149.452 2.24904 149.452C1.15903 149.452 0.275391 150.336 0.275391 151.426C0.275391 152.516 1.15903 153.399 2.24904 153.399Z" fill="#B7E3C0"/>
<path opacity="0.58" d="M144.387 11.0692C145.234 11.0692 145.922 10.3819 145.922 9.53409C145.922 8.68629 145.234 7.99902 144.387 7.99902C143.539 7.99902 142.852 8.68629 142.852 9.53409C142.852 10.3819 143.539 11.0692 144.387 11.0692Z" fill="#FDBBA0"/>
<path opacity="0.58" d="M41.0954 26.1732C41.4587 26.1732 41.7533 25.8786 41.7533 25.5153C41.7533 25.152 41.4587 24.8574 41.0954 24.8574C40.732 24.8574 40.4375 25.152 40.4375 25.5153C40.4375 25.8786 40.732 26.1732 41.0954 26.1732Z" fill="#FDBBA0"/>
<path opacity="0.58" d="M198.219 45.2189C197.946 46.4992 196.687 47.3149 195.407 47.0417C194.126 46.7685 193.311 45.5088 193.584 44.229C193.857 42.9488 195.117 42.133 196.397 42.4062C197.677 42.6795 198.493 43.9387 198.219 45.2189Z" fill="#B7E3C0"/>
<path opacity="0.58" d="M35.5027 7.04068C35.3956 7.54287 34.9018 7.8626 34.3996 7.75558C33.8974 7.64857 33.5777 7.15472 33.6847 6.65253C33.7917 6.15035 34.2856 5.83061 34.7878 5.93763C35.2899 6.04464 35.6101 6.5385 35.5027 7.04068Z" fill="#B7E3C0"/>
<path opacity="0.58" d="M183.641 3.13599C183.55 3.56274 183.13 3.83467 182.703 3.74344C182.276 3.65221 182.005 3.23248 182.096 2.80574C182.187 2.37899 182.607 2.10706 183.033 2.19829C183.46 2.28952 183.732 2.70925 183.641 3.13599Z" fill="#FDBBA0"/>
<path opacity="0.58" d="M16.5159 191.565C16.4247 191.991 16.0049 192.263 15.5782 192.172C15.1514 192.081 14.8795 191.661 14.9707 191.234C15.062 190.808 15.4817 190.536 15.9085 190.627C16.3352 190.718 16.6071 191.138 16.5159 191.565Z" fill="#FDBBA0"/>
<path d="M149.262 82.0303H34.2227V163.94H149.262V82.0303Z" fill="#9F4723"/>
<path d="M160.46 53.0751H139.18V33.6468C139.18 29.729 142.359 26.5498 146.277 26.5498C148.236 26.5498 150.012 27.3419 151.297 28.6264C152.56 29.8896 153.363 31.6451 153.374 33.5826V33.6468L153.363 45.9782C153.363 46.0424 153.363 46.1066 153.374 46.1601V46.5348L153.395 46.5241C153.673 50.185 156.724 53.0751 160.46 53.0751Z" fill="#86A7FF"/>
<path d="M167.555 41.6855V45.978C167.555 47.9369 166.763 49.7138 165.479 50.9876C164.205 52.2721 162.428 53.0643 160.469 53.0643C156.733 53.0643 153.672 50.1741 153.404 46.5132L167.555 41.6855Z" fill="#D3DFFF"/>
<path d="M146.276 26.5498C146.126 26.5498 145.977 26.5605 145.837 26.5712C145.741 26.5819 145.645 26.5819 145.559 26.5926C145.452 26.6033 145.356 26.614 145.259 26.6354C145.195 26.6461 145.142 26.6568 145.077 26.6675C145.002 26.6783 144.928 26.6997 144.853 26.7104C144.746 26.7318 144.639 26.7532 144.531 26.7853C144.382 26.8281 144.232 26.8709 144.082 26.9245C144.007 26.9459 143.932 26.978 143.857 26.9994C143.782 27.0208 143.707 27.0529 143.643 27.085C143.536 27.1278 143.44 27.1707 143.343 27.2135C143.258 27.2563 143.172 27.2884 143.086 27.3419C143.065 27.3526 143.033 27.3633 143.011 27.3847C142.937 27.4276 142.862 27.4704 142.787 27.5132C142.487 27.6845 142.198 27.8664 141.941 28.0805C141.866 28.1447 141.78 28.209 141.716 28.2625C141.631 28.3374 141.556 28.4017 141.47 28.4766C141.384 28.5515 141.309 28.6264 141.235 28.7014C141.02 28.9155 140.828 29.1403 140.635 29.3865C140.549 29.4935 140.475 29.6005 140.4 29.7076C140.164 30.0715 139.961 30.4462 139.779 30.8529C139.736 30.9493 139.693 31.0563 139.65 31.1527C139.533 31.4631 139.436 31.7842 139.361 32.1054C139.34 32.2231 139.318 32.3301 139.297 32.4372C139.254 32.662 139.222 32.8868 139.211 33.1116V132.64H44.3496V37.6181C44.3496 31.5059 49.3057 26.5605 55.4072 26.5605H146.276V26.5498Z" fill="#D3DFFF"/>
<path d="M127.543 36.6973H55.5566V40.4866H127.543V36.6973Z" fill="#ADC3FF"/>
<path d="M121.966 47.7871H55.5566V51.5764H121.966V47.7871Z" fill="#ADC3FF"/>
<path d="M118.466 58.8877H55.5566V62.677H118.466V58.8877Z" fill="#ADC3FF"/>
<path d="M127.543 69.9766H55.5566V73.7659H127.543V69.9766Z" fill="#ADC3FF"/>
<path d="M122.405 81.2061H83.377V84.9954H122.405V81.2061Z" fill="#ADC3FF"/>
<path d="M91.2352 102.486C90.807 102.486 90.4109 102.337 90.1326 101.962C89.8008 101.502 89.8222 100.87 89.8329 100.453L90.1969 90.6582L90.7428 90.6796L90.3788 100.474C90.3574 100.934 90.3681 101.363 90.5715 101.652C91.0318 102.283 92.1344 101.737 92.3591 101.619C93.451 101.031 94.2324 99.9389 94.9924 98.8684C95.838 97.691 96.7051 96.46 98.0217 95.8926C98.8032 95.5501 99.3812 96.0532 99.8415 96.4492C100.098 96.674 100.355 96.8881 100.612 96.9631C101.297 97.1664 101.982 96.9845 102.71 96.8025C103.352 96.6312 104.016 96.46 104.701 96.567C105.322 96.6633 105.825 96.9095 106.318 97.1557C107.035 97.509 107.656 97.8194 108.555 97.5946C109.796 97.2949 110.942 96.5884 112.055 95.9033C112.376 95.7106 112.697 95.5073 113.029 95.3146C114.282 94.5867 116.166 93.6661 118.039 94.0943L117.921 94.6188C116.23 94.2335 114.485 95.0898 113.308 95.7749C112.986 95.9569 112.665 96.1602 112.344 96.3529C111.199 97.0594 110.011 97.7873 108.683 98.1084C107.591 98.3653 106.821 97.9907 106.071 97.6267C105.622 97.4019 105.162 97.1771 104.616 97.0915C104.048 97.0059 103.46 97.1557 102.849 97.3163C102.089 97.5197 101.297 97.7231 100.462 97.4769C100.088 97.3698 99.7879 97.1022 99.4882 96.8453C99.0065 96.4278 98.6854 96.1816 98.2465 96.3743C97.0691 96.8881 96.2769 98.0014 95.442 99.1681C94.6499 100.281 93.8256 101.437 92.6268 102.08C92.1879 102.315 91.6848 102.486 91.2352 102.486Z" fill="#9F4723"/>
<path opacity="0.3" d="M139.211 85.4562V132.619H44.3496V81.3457L73.9792 105.998C75.617 107.357 77.7578 107.882 79.8666 107.582C80.4767 107.496 81.1083 107.464 81.7291 107.475L101.928 108.042C102.624 108.064 103.32 108.149 103.994 108.299C106.092 108.749 108.276 108.342 110.01 107.058L139.211 85.4562Z" fill="#86A7FF"/>
<path d="M77.4779 115.984L76.6858 116.862L40.9869 156.447L34.2324 163.94V82.0303L77.4779 115.984Z" fill="#FE8C00"/>
<path d="M149.262 82.0303L106.006 115.984L149.262 163.94V82.0303Z" fill="#FE8C00"/>
<path d="M76.6867 116.862L40.9878 156.447L34.2227 157.935V143.377C52.0668 130.585 72.0839 115.76 76.6653 115.438L76.6867 116.862Z" fill="#D9683B"/>
<path d="M106.799 116.862L142.498 156.447L149.263 157.935V143.377C131.419 130.585 111.402 115.76 106.82 115.438L106.799 116.862Z" fill="#D9683B"/>
<path d="M149.262 163.94H34.2227L34.2441 153.16L73.8822 117.204C75.9589 115.321 78.6671 114.271 81.4823 114.271H101.692C104.454 114.271 107.13 115.288 109.196 117.119L149.369 152.786L149.262 163.94Z" fill="#FE8C00"/>
<path opacity="0.4" d="M146.385 170.138C162.384 170.138 175.355 157.168 175.355 141.168C175.355 125.168 162.384 112.197 146.385 112.197C130.385 112.197 117.414 125.168 117.414 141.168C117.414 157.168 130.385 170.138 146.385 170.138Z" fill="#D9683B"/>
<path d="M155.109 170.138C171.109 170.138 184.08 157.168 184.08 141.168C184.08 125.168 171.109 112.197 155.109 112.197C139.109 112.197 126.139 125.168 126.139 141.168C126.139 157.168 139.109 170.138 155.109 170.138Z" fill="#66D64A"/>
<path d="M154.482 156.861C153.101 156.861 151.783 156.28 150.841 155.244L140.593 143.929C139.715 142.956 139.777 141.45 140.766 140.571C141.739 139.692 143.246 139.755 144.124 140.744L154.372 152.059C154.388 152.074 154.435 152.121 154.514 152.106C154.592 152.09 154.623 152.043 154.623 152.012L165.656 126.902C166.19 125.693 167.586 125.144 168.795 125.678C170.003 126.211 170.553 127.608 170.019 128.816L158.986 153.926C158.311 155.464 156.93 156.531 155.283 156.798C155.016 156.845 154.749 156.861 154.482 156.861Z" fill="white"/>
</svg>
