<svg width="180" height="157" viewBox="0 0 180 157" fill="none" xmlns="http://www.w3.org/2000/svg">
<g opacity="0.41">
<path d="M178.312 93.3186C178.481 90.8577 178.405 88.3857 178.077 85.9378C176.536 74.4361 169.56 63.5905 159.292 55.9379C155.628 53.2079 151.46 50.762 149.076 47.1582C145.061 41.0892 145.366 34.1144 140.383 28.1221C135.394 22.1229 128.124 17.4444 119.926 15.0416C95.482 7.87748 61.2592 19.5421 64.3405 44.4522C64.3515 44.5417 64.3634 44.6716 64.3764 44.8358C64.7861 50.0101 59.9846 54.3607 53.8738 54.4832C31.3208 54.936 11.9076 69.6431 7.75341 88.2729C5.08186 100.254 9.45628 113.386 19.818 121.861C27.5527 128.188 37.9302 131.663 48.3128 134.052C69.1306 138.84 91.0373 139.844 112.502 138.013C132.594 136.299 153.789 131.413 166.783 118.339C173.715 111.364 177.686 102.42 178.312 93.3186Z" fill="#CAE6F5"/>
</g>
<g opacity="0.31">
<path d="M77.0102 12.9229C79.6914 11.8599 80.9731 8.89763 79.873 6.30659C78.773 3.71556 75.7077 2.4769 73.0265 3.53998C70.3454 4.60305 69.0636 7.56529 70.1637 10.1563C71.2638 12.7474 74.329 13.986 77.0102 12.9229Z" fill="#CAE6F5"/>
</g>
<g opacity="0.31">
<path d="M145.916 7.75438C147.412 7.75438 148.624 6.58296 148.624 5.13793C148.624 3.69291 147.412 2.52148 145.916 2.52148C144.421 2.52148 143.209 3.69291 143.209 5.13793C143.209 6.58296 144.421 7.75438 145.916 7.75438Z" fill="#CAE6F5"/>
</g>
<g opacity="0.31">
<path d="M53.0553 21.9134C54.3856 20.4654 54.2493 18.2494 52.7509 16.9639C51.2526 15.6784 48.9596 15.8101 47.6293 17.2581C46.2991 18.7061 46.4354 20.922 47.9337 22.2075C49.432 23.4931 51.7251 23.3614 53.0553 21.9134Z" fill="#CAE6F5"/>
</g>
<g opacity="0.31">
<path d="M8.50858 144.818C13.0708 144.818 16.7691 141.244 16.7691 136.835C16.7691 132.427 13.0708 128.853 8.50858 128.853C3.94641 128.853 0.248047 132.427 0.248047 136.835C0.248047 141.244 3.94641 144.818 8.50858 144.818Z" fill="#CAE6F5"/>
</g>
<path opacity="0.47" d="M178.968 22.8566C181.323 18.424 179.513 12.9859 174.926 10.7101C170.339 8.43464 161.525 8.6021 159.17 13.0347C156.815 17.4673 163.875 21.2716 166.753 25.4051C170.768 31.1705 176.613 27.2892 178.968 22.8566Z" fill="#CAE6F5"/>
<path opacity="0.47" d="M158.91 149.197C162.229 151.268 166.656 150.346 168.799 147.139C170.941 143.932 171.477 137.425 168.158 135.355C164.839 133.284 161.304 138.197 157.824 140.005C152.972 142.526 155.591 147.126 158.91 149.197Z" fill="#CAE6F5"/>
<path opacity="0.47" d="M23.4517 2.51796C19.8012 -0.758036 14.0942 -0.553954 10.7042 2.97381C7.31429 6.50157 5.17011 14.4676 8.82059 17.7436C12.4711 21.0196 17.9787 15.6692 22.71 14.1632C29.3091 12.0625 27.1022 5.79396 23.4517 2.51796Z" fill="#CAE6F5"/>
<path opacity="0.47" d="M3.33064 40.5993C0.0764767 47.4267 -0.812458 55.2978 0.749098 62.6562C2.5846 71.307 8.15781 77.9532 6.22402 87.1819C5.04614 92.8031 4.75128 98.0105 4.15405 103.573C2.92762 114.994 10.6008 125.057 20.1201 130.491C27.8517 134.904 36.916 136.56 45.8049 136.443C53.8053 136.337 61.7915 134.909 69.544 132.989C77.0151 131.139 84.3196 128.702 92.1507 129.471C98.6637 130.111 104.529 132.831 110.595 134.86C125.076 139.705 142.617 140.388 155.859 133.013C164.357 128.281 170.305 120.595 172.943 112.332C175.051 105.728 175.319 99.5523 173.739 92.8104C172.116 85.8884 169.377 78.9103 170.228 71.6976C170.821 66.6714 173.199 61.8204 172.763 56.7794C172.474 53.4298 170.948 50.2873 169.081 47.4511C162.268 37.0948 150.858 30.161 138.79 26.3406C127.432 22.7453 115.719 20.1415 103.895 21.0066C79.4466 22.7949 74.4628 19.0425 49.4779 13.8782C33.348 10.5443 15.3052 22.4287 5.86639 36.1964C4.90325 37.5998 4.05813 39.0734 3.33064 40.5993Z" fill="#CAE6F5"/>
<path opacity="0.58" d="M91.8349 5.08355C92.8159 5.08355 93.6112 4.31501 93.6112 3.36697C93.6112 2.41893 92.8159 1.65039 91.8349 1.65039C90.8539 1.65039 90.0586 2.41893 90.0586 3.36697C90.0586 4.31501 90.8539 5.08355 91.8349 5.08355Z" fill="#FDBBA0"/>
<path opacity="0.58" d="M129.948 9.56574C130.711 9.56574 131.33 8.96799 131.33 8.23063C131.33 7.49326 130.711 6.89551 129.948 6.89551C129.185 6.89551 128.566 7.49326 128.566 8.23063C128.566 8.96799 129.185 9.56574 129.948 9.56574Z" fill="#FDBBA0"/>
<path opacity="0.58" d="M36.9847 22.702C37.3117 22.702 37.5768 22.4458 37.5768 22.1298C37.5768 21.8138 37.3117 21.5576 36.9847 21.5576C36.6577 21.5576 36.3926 21.8138 36.3926 22.1298C36.3926 22.4458 36.6577 22.702 36.9847 22.702Z" fill="#FDBBA0"/>
<path opacity="0.58" d="M178.397 39.2676C178.151 40.3811 177.018 41.0906 175.866 40.8529C174.713 40.6153 173.979 39.5197 174.225 38.4066C174.471 37.2931 175.605 36.5836 176.757 36.8212C177.909 37.0589 178.643 38.1541 178.397 39.2676Z" fill="#B7E3C0"/>
<path opacity="0.58" d="M31.9536 6.06229C31.8572 6.49906 31.4128 6.77715 30.9608 6.68407C30.5088 6.59099 30.2211 6.16147 30.3174 5.72469C30.4137 5.28792 30.8582 5.00983 31.3101 5.10291C31.7621 5.19599 32.0503 5.62551 31.9536 6.06229Z" fill="#B7E3C0"/>
<path opacity="0.58" d="M165.278 2.66488C165.195 3.03604 164.818 3.27255 164.434 3.1932C164.05 3.11386 163.805 2.7488 163.887 2.37764C163.969 2.00648 164.347 1.76997 164.731 1.84931C165.115 1.92866 165.36 2.29372 165.278 2.66488Z" fill="#FDBBA0"/>
<path opacity="0.58" d="M173.89 128.068C174.871 128.068 175.666 127.299 175.666 126.351C175.666 125.403 174.871 124.635 173.89 124.635C172.909 124.635 172.113 125.403 172.113 126.351C172.113 127.299 172.909 128.068 173.89 128.068Z" fill="#FDBBA0"/>
<path opacity="0.58" d="M27.665 143.899C28.646 143.899 29.4413 143.13 29.4413 142.182C29.4413 141.234 28.646 140.466 27.665 140.466C26.6839 140.466 25.8887 141.234 25.8887 142.182C25.8887 143.13 26.6839 143.899 27.665 143.899Z" fill="#FDBBA0"/>
<path opacity="0.58" d="M139.78 150.737C140.543 150.737 141.162 150.139 141.162 149.402C141.162 148.664 140.543 148.066 139.78 148.066C139.017 148.066 138.398 148.664 138.398 149.402C138.398 150.139 139.017 150.737 139.78 150.737Z" fill="#B7E3C0"/>
<path opacity="0.58" d="M2.02434 122.555C3.00535 122.555 3.80063 121.787 3.80063 120.839C3.80063 119.891 3.00535 119.122 2.02434 119.122C1.04332 119.122 0.248047 119.891 0.248047 120.839C0.248047 121.787 1.04332 122.555 2.02434 122.555Z" fill="#B7E3C0"/>
<path opacity="0.58" d="M14.8635 155.749C14.7814 156.12 14.4037 156.357 14.0196 156.277C13.6355 156.198 13.3908 155.833 13.4729 155.462C13.555 155.09 13.9328 154.854 14.3168 154.933C14.7009 155.013 14.9456 155.378 14.8635 155.749Z" fill="#FDBBA0"/>
<path d="M106.2 118.401C105.418 128.607 96.5113 136.245 86.3069 135.465C76.1008 134.682 68.4618 125.776 69.2424 115.571L88.5711 113.316L106.2 118.401Z" fill="#FBC027"/>
<path d="M142.187 112.742L141.863 116.965C141.688 119.253 139.691 120.966 137.404 120.79L38.0383 113.18C35.7495 113.005 34.0369 111.008 34.2115 108.72L34.5359 104.497C34.6478 103.026 35.5337 101.724 36.861 101.078L47.2811 96.0086L48.0435 95.6378C48.3185 95.5035 48.5886 95.3608 48.8521 95.2085C52.4896 93.106 54.8822 89.3336 55.2066 85.1059L57.372 56.8193C58.6136 40.6192 70.7413 27.8571 86.034 25.1549C86.0159 24.7943 86.0209 24.4287 86.0488 24.0598C86.4193 19.2351 90.6299 15.6223 95.4546 15.9928C100.279 16.3616 103.892 20.5722 103.523 25.3969C103.494 25.7675 103.444 26.1297 103.372 26.4821C109.366 28.5207 114.584 32.1302 118.581 36.79C124.387 43.5601 127.611 52.546 126.877 62.1425L124.711 90.4291C124.387 94.6568 126.177 98.7496 129.452 101.382C129.689 101.572 129.933 101.754 130.185 101.929L130.883 102.411L140.409 109.009C141.623 109.85 142.299 111.27 142.187 112.742Z" fill="#FBC027"/>
<path d="M129.453 101.382L71.6758 96.9569C71.6758 96.9569 73.4097 93.7623 77.3222 94.062C82.7233 94.4757 87.8939 94.2927 92.1094 93.9978C96.753 93.6731 101.463 92.186 104.855 88.9982C109.744 84.4006 111.059 77.2607 112.115 70.6331C113.327 63.021 114.54 55.279 113.524 47.6376C112.51 39.9964 106.768 29.4366 94.8165 24.3434C94.8577 24.3467 98.6599 24.6414 103.373 26.4824C109.367 28.521 114.585 32.1305 118.581 36.7903C124.388 43.5604 127.612 52.5463 126.877 62.1428L124.712 90.4295C124.388 94.6571 126.177 98.75 129.453 101.382Z" fill="#EE991F"/>
<path d="M98.1075 24.8835C98.3134 23.1644 97.9676 21.3777 97.108 19.8727C96.1365 18.1733 94.5211 16.8576 92.6719 16.2236C93.5594 16.003 94.4947 15.919 95.4548 15.9931C100.28 16.3619 103.892 20.5725 103.523 25.3973C103.494 25.7678 103.444 26.13 103.372 26.4824L98.1075 24.8835Z" fill="#EE991F"/>
<path d="M142.188 112.742L141.864 116.965C141.69 119.253 139.692 120.966 137.405 120.79L134.927 120.601C136.066 120.009 136.679 118.775 136.919 117.272C137.089 116.205 137.22 114.873 137.308 113.854C137.388 112.911 136.896 112.012 136.058 111.571C132.96 109.937 125.542 106.031 123.792 105.18C121.564 104.097 119.45 102.578 118.244 100.414L118.335 99.2334L127.961 99.9706C128.417 100.477 128.915 100.949 129.453 101.382C129.69 101.572 129.934 101.754 130.186 101.929L130.884 102.411L140.41 109.009C141.624 109.85 142.3 111.27 142.188 112.742Z" fill="#EE991F"/>
<path d="M130.883 102.411L47.2812 96.0084L48.0437 95.6375C48.3187 95.5033 48.5887 95.3606 48.8522 95.2082L129.452 101.381C129.689 101.572 129.933 101.754 130.185 101.928L130.883 102.411Z" fill="#FBD54D"/>
<path d="M106.2 118.401C105.417 128.607 96.5105 136.245 86.3061 135.465C84.4025 135.318 82.5895 134.89 80.9033 134.223C80.9033 134.223 87.2446 135.512 93.754 131.278C96.9172 129.221 99.3807 124.826 99.4696 121.055L69.2498 118.531C69.1707 117.562 69.1658 116.572 69.2415 115.571L106.2 118.401Z" fill="#EE991F"/>
<path d="M87.0309 33.8006C85.6361 31.2664 82.5041 30.2603 79.8958 31.5101C72.4627 35.0719 66.347 41.3882 63.1656 49.0039C62.553 50.4713 62.0425 52.131 62.5909 53.6242C63.3615 55.7316 65.8283 56.5837 67.9937 57.1726C70.7387 57.919 73.9431 58.5866 76.2073 56.8656C78.2705 55.2985 78.6559 52.4269 79.4035 49.947C80.4968 46.3188 82.7347 43.0581 85.674 40.6731C87.7274 39.0078 88.3038 36.1174 87.0309 33.8006Z" fill="#F9E35B"/>
<path d="M73.4211 67.4883C73.9134 65.5156 72.4858 63.5842 70.4554 63.475C68.5683 63.3736 66.6318 63.2939 64.9802 63.0853C64.0647 62.9697 63.0519 62.8773 62.3027 63.4151C61.4876 63.9997 61.2884 65.1057 61.155 66.0988C60.9442 67.647 60.7351 69.1953 60.5259 70.7433C60.2592 72.7117 60.05 74.9153 61.2554 76.4938C62.4278 78.0288 64.669 78.4423 66.5215 77.8943C68.8236 77.2131 70.6003 75.299 71.669 73.1488C72.219 72.0443 72.8941 69.6025 73.4211 67.4883Z" fill="#F9E35B"/>
<path d="M44.7335 102.255C45.104 101.617 44.4173 100.886 43.757 101.214L41.8106 102.179C40.844 102.658 39.8428 103.166 39.1924 104.027C38.2834 105.232 38.2488 106.861 38.2521 108.371C38.2521 108.518 38.2554 108.671 38.267 108.826C38.3312 109.776 39.0837 110.536 40.0338 110.609C41.0153 110.684 41.8995 110.005 42.0675 109.035C42.5038 106.489 43.7323 103.979 44.7335 102.255Z" fill="#F9E35B"/>
<path d="M88.0137 24.7168C88.0977 22.2007 89.3343 19.6994 90.7933 18.5039C91.3383 18.0593 92.1287 18.4034 92.2143 19.123C92.2506 19.426 92.1205 19.7076 91.9311 19.9398C90.0984 22.1924 90.235 24.4006 90.235 24.4006L90.1741 24.4023C89.4941 24.4303 88.8172 24.5225 88.1536 24.6822L88.0137 24.7168Z" fill="#F9E35B"/>
<path d="M55.7749 37.9733C58.9233 31.6443 64.4957 25.8316 71.4447 23.844C72.6138 23.5097 72.1165 21.6852 70.9424 22.0211C63.5406 24.1388 57.5039 30.2595 54.1414 37.0191C53.6013 38.1052 55.2315 39.0641 55.7749 37.9733Z" fill="#352718"/>
<path d="M48.6328 36.7596C52.9669 28.0201 60.7013 19.9513 70.2998 17.2244C71.9152 16.765 71.2285 14.2423 69.6049 14.7034C59.3823 17.6081 51.0057 26.105 46.3752 35.4401C45.6309 36.9426 47.8852 38.2685 48.6328 36.7596Z" fill="#352718"/>
<path d="M131.443 43.0325C129.152 35.8531 124.174 28.8216 117.179 25.6007C116.082 25.0952 115.121 26.7254 116.226 27.2343C122.789 30.2559 127.468 36.7863 129.62 43.5352C129.989 44.69 131.815 44.1965 131.443 43.0325Z" fill="#352718"/>
<path d="M139.371 42.6918C136.222 32.7808 129.313 23.0193 119.65 18.5913C119.003 18.2949 118.249 18.4119 117.862 19.059C117.526 19.6189 117.689 20.5542 118.33 20.8489C127.399 25.0035 133.891 34.0685 136.85 43.3867C137.357 44.9843 139.881 44.3016 139.371 42.6918Z" fill="#352718"/>
<path d="M120.247 151.168C120.247 152.971 106.294 154.434 89.0833 154.434C71.8722 154.434 57.9199 152.971 57.9199 151.168C57.9199 149.365 71.8722 147.903 89.0833 147.903C106.294 147.903 120.247 149.365 120.247 151.168Z" fill="#D5D7D4"/>
</svg>
