<svg width="120" height="106" viewBox="0 0 120 106" fill="none" xmlns="http://www.w3.org/2000/svg">
<g opacity="0.41">
<path d="M118.873 63.0441C118.986 61.4035 118.935 59.7555 118.717 58.1236C117.69 50.4558 113.039 43.2253 106.193 38.1236C103.751 36.3036 100.972 34.673 99.3829 32.2705C96.7063 28.2245 96.9092 23.5746 93.5871 19.5798C90.2614 15.5803 85.4149 12.4613 79.9494 10.8594C63.6534 6.08336 40.8382 13.8598 42.8924 30.4665C42.8997 30.5262 42.9076 30.6128 42.9163 30.7223C43.1895 34.1718 39.9884 37.0722 35.9146 37.1539C20.8793 37.4557 7.93707 47.2605 5.16763 59.6803C3.38661 67.6675 6.30288 76.4221 13.2107 82.0725C18.3672 86.2903 25.2855 88.6074 32.2072 90.1995C46.0857 93.3919 60.6903 94.061 75 92.8403C88.3949 91.6976 102.524 88.4407 111.187 79.7243C115.809 75.0744 118.456 69.1116 118.873 63.0441Z" fill="#CAE6F5"/>
</g>
<g opacity="0.31">
<path d="M51.3375 9.44667C53.125 8.73796 53.9795 6.76313 53.2461 5.03578C52.5127 3.30842 50.4692 2.48265 48.6818 3.19137C46.8943 3.90008 46.0398 5.87491 46.7732 7.60226C47.5066 9.32962 49.5501 10.1554 51.3375 9.44667Z" fill="#CAE6F5"/>
</g>
<g opacity="0.31">
<path d="M97.2757 6.00129C98.2725 6.00129 99.0807 5.22034 99.0807 4.25699C99.0807 3.29364 98.2725 2.5127 97.2757 2.5127C96.2788 2.5127 95.4707 3.29364 95.4707 4.25699C95.4707 5.22034 96.2788 6.00129 97.2757 6.00129Z" fill="#CAE6F5"/>
</g>
<g opacity="0.31">
<path d="M35.3696 15.4396C36.2564 14.4743 36.1655 12.997 35.1666 12.14C34.1677 11.283 32.6391 11.3708 31.7522 12.3361C30.8654 13.3014 30.9563 14.7787 31.9551 15.6357C32.954 16.4928 34.4827 16.405 35.3696 15.4396Z" fill="#CAE6F5"/>
</g>
<g opacity="0.31">
<path d="M5.67109 97.3772C8.71253 97.3772 11.1781 94.9945 11.1781 92.0553C11.1781 89.1161 8.71253 86.7334 5.67109 86.7334C2.62964 86.7334 0.164062 89.1161 0.164062 92.0553C0.164062 94.9945 2.62964 97.3772 5.67109 97.3772Z" fill="#CAE6F5"/>
</g>
<path opacity="0.47" d="M119.311 16.0694C120.881 13.1144 119.674 9.48895 116.616 7.97175C113.558 6.4548 107.682 6.56644 106.112 9.5215C104.542 12.4766 109.249 15.0128 111.168 17.7685C113.844 21.6121 117.741 19.0245 119.311 16.0694Z" fill="#CAE6F5"/>
<path opacity="0.47" d="M105.94 100.296C108.152 101.676 111.103 101.062 112.532 98.9241C113.96 96.7859 114.317 92.4482 112.104 91.0678C109.892 89.6874 107.535 92.9629 105.216 94.168C101.981 95.849 103.727 98.9157 105.94 100.296Z" fill="#CAE6F5"/>
<path opacity="0.47" d="M15.6338 2.51002C13.2002 0.326023 9.39548 0.462078 7.13551 2.81392C4.87554 5.16576 3.44609 10.4765 5.87974 12.6605C8.31339 14.8445 11.9852 11.2775 15.1393 10.2735C19.5388 8.87306 18.0675 4.69402 15.6338 2.51002Z" fill="#CAE6F5"/>
<path opacity="0.47" d="M2.22043 27.8969C0.0509845 32.4485 -0.541639 37.6959 0.499399 42.6015C1.72307 48.3687 5.43854 52.7995 4.14935 58.952C3.36409 62.6995 3.16752 66.171 2.76937 69.8791C1.95175 77.4931 7.0672 84.202 13.4134 87.8246C18.5678 90.767 24.6106 91.8709 30.5366 91.7926C35.8702 91.7219 41.1943 90.77 46.3627 89.4903C51.3434 88.2569 56.2131 86.6319 61.4338 87.1446C65.7758 87.5711 69.6863 89.385 73.7299 90.7377C83.3837 93.9672 95.078 94.4226 103.906 89.5064C109.571 86.3514 113.537 81.2274 115.295 75.7185C116.701 71.316 116.879 67.199 115.826 62.7043C114.744 58.0896 112.918 53.4376 113.485 48.6291C113.88 45.2784 115.466 42.0443 115.176 38.6836C114.982 36.4506 113.965 34.3556 112.721 32.4648C108.178 25.5606 100.572 20.938 92.5265 18.3911C84.9548 15.9943 77.1462 14.2584 69.2631 14.8351C52.9644 16.0273 49.6419 13.5257 32.9852 10.0829C22.232 7.86024 10.2035 15.7832 3.91093 24.9617C3.26883 25.8973 2.70542 26.8797 2.22043 27.8969Z" fill="#CAE6F5"/>
<path opacity="0.58" d="M61.2233 4.22041C61.8773 4.22041 62.4074 3.70805 62.4074 3.07603C62.4074 2.444 61.8773 1.93164 61.2233 1.93164C60.5692 1.93164 60.0391 2.444 60.0391 3.07603C60.0391 3.70805 60.5692 4.22041 61.2233 4.22041Z" fill="#FDBBA0"/>
<path opacity="0.58" d="M86.632 7.20789C87.1407 7.20789 87.553 6.80939 87.553 6.31781C87.553 5.82624 87.1407 5.42773 86.632 5.42773C86.1233 5.42773 85.7109 5.82624 85.7109 6.31781C85.7109 6.80939 86.1233 7.20789 86.632 7.20789Z" fill="#FDBBA0"/>
<path opacity="0.58" d="M24.6564 15.966C24.8745 15.966 25.0512 15.7953 25.0512 15.5846C25.0512 15.3739 24.8745 15.2031 24.6564 15.2031C24.4384 15.2031 24.2617 15.3739 24.2617 15.5846C24.2617 15.7953 24.4384 15.966 24.6564 15.966Z" fill="#FDBBA0"/>
<path opacity="0.58" d="M118.932 27.0091C118.768 27.7514 118.012 28.2244 117.244 28.066C116.476 27.9076 115.987 27.1772 116.151 26.4351C116.315 25.6928 117.07 25.2198 117.838 25.3782C118.607 25.5367 119.096 26.2668 118.932 27.0091Z" fill="#B7E3C0"/>
<path opacity="0.58" d="M21.3024 4.87225C21.2382 5.16344 20.9419 5.34883 20.6405 5.28678C20.3392 5.22473 20.1474 4.93837 20.2116 4.64719C20.2758 4.35601 20.5721 4.17062 20.8734 4.23267C21.1747 4.29472 21.3668 4.58107 21.3024 4.87225Z" fill="#B7E3C0"/>
<path opacity="0.58" d="M110.186 2.60862C110.131 2.85606 109.879 3.01373 109.623 2.96083C109.367 2.90794 109.204 2.66457 109.259 2.41712C109.313 2.16968 109.565 2.01201 109.821 2.06491C110.077 2.1178 110.24 2.36118 110.186 2.60862Z" fill="#FDBBA0"/>
<path opacity="0.58" d="M115.926 86.2106C116.58 86.2106 117.111 85.6983 117.111 85.0663C117.111 84.4342 116.58 83.9219 115.926 83.9219C115.272 83.9219 114.742 84.4342 114.742 85.0663C114.742 85.6983 115.272 86.2106 115.926 86.2106Z" fill="#FDBBA0"/>
<path opacity="0.58" d="M18.442 96.7634C19.096 96.7634 19.6262 96.251 19.6262 95.619C19.6262 94.987 19.096 94.4746 18.442 94.4746C17.788 94.4746 17.2578 94.987 17.2578 95.619C17.2578 96.251 17.788 96.7634 18.442 96.7634Z" fill="#FDBBA0"/>
<path opacity="0.58" d="M93.1867 101.323C93.6953 101.323 94.1077 100.925 94.1077 100.433C94.1077 99.9415 93.6953 99.543 93.1867 99.543C92.678 99.543 92.2656 99.9415 92.2656 100.433C92.2656 100.925 92.678 101.323 93.1867 101.323Z" fill="#B7E3C0"/>
<path opacity="0.58" d="M1.34826 82.5349C2.00227 82.5349 2.53245 82.0225 2.53245 81.3905C2.53245 80.7585 2.00227 80.2461 1.34826 80.2461C0.694244 80.2461 0.164062 80.7585 0.164062 81.3905C0.164062 82.0225 0.694244 82.5349 1.34826 82.5349Z" fill="#B7E3C0"/>
<path opacity="0.58" d="M9.90837 104.664C9.85363 104.912 9.60179 105.069 9.34575 105.017C9.0897 104.964 8.92654 104.72 8.98128 104.473C9.03601 104.225 9.28785 104.068 9.5439 104.121C9.79995 104.173 9.96311 104.417 9.90837 104.664Z" fill="#FDBBA0"/>
<path d="M70.8003 79.7654C70.2788 86.5693 64.3409 91.6615 57.5379 91.1412C50.7339 90.6197 45.6412 84.6823 46.1616 77.8784L59.0474 76.3751L70.8003 79.7654Z" fill="#FBC027"/>
<path d="M94.7909 75.9934L94.5746 78.8086C94.4583 80.3339 93.1267 81.4758 91.6018 81.359L25.3582 76.2854C23.8323 76.1686 22.6906 74.8375 22.807 73.3121L23.0233 70.4969C23.0979 69.5157 23.6885 68.6483 24.5733 68.2175L31.5201 64.8378L32.0284 64.5905C32.2117 64.5011 32.3918 64.4059 32.5674 64.3043C34.9924 62.9027 36.5875 60.3878 36.8037 57.5693L38.2473 38.7116C39.0751 27.9115 47.1602 19.4034 57.3554 17.602C57.3433 17.3615 57.3466 17.1178 57.3652 16.8719C57.6123 13.6554 60.4193 11.2469 63.6358 11.4939C66.8523 11.7398 69.2608 14.5468 69.0149 17.7633C68.9952 18.0103 68.9622 18.2519 68.9139 18.4868C72.9099 19.8458 76.3887 22.2522 79.0531 25.3587C82.9239 29.8721 85.0733 35.8627 84.5837 42.2604L83.1401 61.1181C82.9238 63.9366 84.1171 66.6651 86.3006 68.4197C86.4587 68.5467 86.6212 68.6681 86.7891 68.7845L87.2546 69.1063L93.6053 73.5045C94.4144 74.0651 94.8655 75.0122 94.7909 75.9934Z" fill="#FBC027"/>
<path d="M86.3011 68.4189L47.7832 65.469C47.7832 65.469 48.9392 63.3393 51.5475 63.5391C55.1482 63.8148 58.5953 63.6929 61.4056 63.4963C64.5014 63.2798 67.641 62.2884 69.9025 60.1632C73.1618 57.0982 74.0389 52.3382 74.7426 47.9198C75.5505 42.8451 76.3596 37.6837 75.6823 32.5895C75.0061 27.4953 71.1781 20.4554 63.2104 17.06C63.2378 17.0622 65.7726 17.2587 68.9145 18.486C72.9104 19.8451 76.3893 22.2514 79.0536 25.3579C82.9244 29.8713 85.0738 35.8619 84.5842 42.2596L83.1406 61.1174C82.9244 63.9358 84.1177 66.6644 86.3011 68.4189Z" fill="#EE991F"/>
<path d="M65.405 17.4204C65.5423 16.2743 65.3117 15.0832 64.7387 14.0798C64.091 12.9469 63.0141 12.0698 61.7812 11.6471C62.373 11.5 62.9965 11.444 63.6365 11.4934C66.853 11.7393 69.2616 14.5464 69.0156 17.7629C68.9959 18.0099 68.963 18.2514 68.9147 18.4863L65.405 17.4204Z" fill="#EE991F"/>
<path d="M94.791 75.9934L94.5747 78.8086C94.4584 80.334 93.1268 81.4758 91.6019 81.359L89.9498 81.2324C90.7094 80.8381 91.1178 80.0152 91.2781 79.0134C91.3912 78.3023 91.479 77.4137 91.5372 76.7349C91.591 76.1062 91.2627 75.5069 90.7039 75.2125C88.639 74.1233 83.6935 71.5193 82.5266 70.9521C81.0413 70.2303 79.6317 69.2177 78.8281 67.7748L78.8885 66.9877L85.3061 67.4791C85.6102 67.8167 85.9418 68.1315 86.3007 68.4197C86.4588 68.5467 86.6213 68.6681 86.7892 68.7845L87.2547 69.1063L93.6054 73.5045C94.4145 74.0651 94.8657 75.0122 94.791 75.9934Z" fill="#EE991F"/>
<path d="M87.256 69.1055L31.5215 64.837L32.0298 64.5897C32.2131 64.5003 32.3931 64.4051 32.5688 64.3035L86.302 68.4189C86.4601 68.5459 86.6226 68.6673 86.7905 68.7837L87.256 69.1055Z" fill="#FBD54D"/>
<path d="M70.7997 79.7654C70.2783 86.5693 64.3403 91.6615 57.5374 91.1412C56.2683 91.0435 55.0597 90.758 53.9355 90.3134C53.9355 90.3134 58.1631 91.173 62.5026 88.3504C64.6115 86.9789 66.2538 84.0488 66.3131 81.5349L46.1665 79.8521C46.1138 79.2058 46.1105 78.5459 46.161 77.8784L70.7997 79.7654Z" fill="#EE991F"/>
<path d="M58.0212 23.3648C57.0914 21.6753 55.0034 21.0046 53.2645 21.8378C48.3091 24.2123 44.232 28.4232 42.111 33.5003C41.7027 34.4786 41.3623 35.585 41.7279 36.5805C42.2417 37.9854 43.8862 38.5535 45.3298 38.9461C47.1598 39.4437 49.296 39.8888 50.8055 38.7415C52.181 37.6967 52.4379 35.7823 52.9363 34.129C53.6652 31.7103 55.1571 29.5365 57.1167 27.9464C58.4856 26.8362 58.8698 24.9093 58.0212 23.3648Z" fill="#F9E35B"/>
<path d="M48.9467 45.8239C49.275 44.5088 48.3232 43.2212 46.9696 43.1484C45.7116 43.0808 44.4206 43.0276 43.3195 42.8885C42.7091 42.8115 42.034 42.7499 41.5345 43.1084C40.9911 43.4981 40.8583 44.2355 40.7693 44.8976C40.6288 45.9297 40.4894 46.9619 40.35 47.9939C40.1721 49.3062 40.0327 50.7752 40.8363 51.8276C41.6179 52.8509 43.112 53.1266 44.347 52.7613C45.8817 52.3071 47.0662 51.031 47.7787 49.5975C48.1453 48.8613 48.5954 47.2334 48.9467 45.8239Z" fill="#F9E35B"/>
<path d="M29.821 69.0017C30.068 68.576 29.6102 68.089 29.17 68.3077L27.8724 68.9508C27.228 69.2701 26.5606 69.6089 26.127 70.1828C25.521 70.9858 25.4979 72.0722 25.5001 73.0784C25.5001 73.1768 25.5023 73.279 25.51 73.3819C25.5528 74.0156 26.0545 74.5219 26.6879 74.5704C27.3422 74.6205 27.9317 74.1679 28.0437 73.5212C28.3346 71.8242 29.1535 70.151 29.821 69.0017Z" fill="#F9E35B"/>
<path d="M58.6758 17.3096C58.7318 15.6322 59.5562 13.9646 60.5288 13.1676C60.8922 12.8712 61.4191 13.1007 61.4762 13.5804C61.5004 13.7824 61.4137 13.9701 61.2874 14.1249C60.0656 15.6267 60.1567 17.0988 60.1567 17.0988L60.1161 17.0999C59.6627 17.1186 59.2115 17.18 58.7691 17.2865L58.6758 17.3096Z" fill="#F9E35B"/>
<path d="M37.1846 26.1473C39.2835 21.9279 42.9984 18.0527 47.6311 16.7277C48.4105 16.5049 48.079 15.2885 47.2963 15.5125C42.3617 16.9242 38.3372 21.0047 36.0956 25.5111C35.7355 26.2352 36.8223 26.8744 37.1846 26.1473Z" fill="#352718"/>
<path d="M32.4225 25.3378C35.3119 19.5114 40.4682 14.1323 46.8672 12.3143C47.9441 12.0081 47.4863 10.3263 46.4039 10.6336C39.5889 12.5701 34.0044 18.2347 30.9175 24.4581C30.4213 25.4598 31.9241 26.3437 32.4225 25.3378Z" fill="#352718"/>
<path d="M87.6271 29.5197C86.1001 24.7335 82.7815 20.0458 78.1181 17.8985C77.387 17.5615 76.7459 18.6483 77.4825 18.9875C81.8583 21.002 84.9771 25.3556 86.4119 29.8548C86.6578 30.6247 87.8752 30.2957 87.6271 29.5197Z" fill="#352718"/>
<path d="M92.9138 29.2929C90.8149 22.6855 86.2086 16.1779 79.7668 13.2259C79.3354 13.0283 78.8325 13.1063 78.5746 13.5377C78.3506 13.911 78.4593 14.5345 78.8863 14.731C84.9329 17.5007 89.2604 23.544 91.2331 29.7562C91.5713 30.8212 93.2542 30.3661 92.9138 29.2929Z" fill="#352718"/>
<path d="M80.1644 101.61C80.1644 102.812 70.8629 103.787 59.3888 103.787C47.9148 103.787 38.6133 102.812 38.6133 101.61C38.6133 100.408 47.9148 99.4333 59.3888 99.4333C70.8629 99.4333 80.1644 100.408 80.1644 101.61Z" fill="#D5D7D4"/>
</svg>
