<svg width="121" height="117" viewBox="0 0 121 117" fill="none" xmlns="http://www.w3.org/2000/svg">
<rect x="1" y="1.78418" width="120" height="115.2" fill="white"/>
<path d="M77.4492 9.50865C84.9073 20.2321 74.0792 19.3934 92.4731 15.99C112.282 12.3248 117.672 26.9163 113.919 44.6216C110.441 61.0355 95.4035 57.5401 103.025 73.2128C115.703 99.282 103.398 107.559 69.2666 106.399C53.2949 105.856 41.2434 107.246 31.0804 104.735C22.2003 102.54 12.9512 97.6951 10.3362 91.1117C5.36192 78.5891 11.5353 75.3385 15.4382 66.9625C19.3296 58.6114 16.1046 58.4876 12.451 46.1871C4.44875 19.2458 32.0379 21.6384 37.4444 13.983C51.5093 -5.93241 69.515 -1.8992 77.4492 9.50865Z" fill="#F5F8FF"/>
<path d="M78.4599 87.3171C78.4599 87.5202 78.2953 87.6848 78.0922 87.6848H42.7537C40.1325 87.6848 38.0078 85.9281 38.0078 83.7613V82.4821C38.0078 80.3153 40.1325 78.5586 42.7537 78.5586H78.0922C78.2953 78.5586 78.4599 78.7232 78.4599 78.9263V78.9927C78.4599 79.1945 78.2969 79.3588 78.0951 79.3604L77.6334 79.3636L77.6074 86.9497H78.0922C78.295 86.9494 78.4599 87.114 78.4599 87.3171Z" fill="#E1ECFA"/>
<path d="M53.9371 79.3311L77.6323 79.3625L77.6063 86.9486H53.6919C52.4621 86.9486 51.4648 85.9517 51.4648 84.7215V81.803C51.4648 80.438 52.5718 79.3311 53.9371 79.3311Z" fill="#E1ECFA"/>
<path d="M45.4453 83.3578V82.8842C45.4453 82.5765 45.6946 82.3271 46.0023 82.3271H49.1881C49.4958 82.3271 49.7452 82.5765 49.7452 82.8842V83.3578C49.7452 83.6655 49.4958 83.9148 49.1881 83.9148H46.0023C45.6946 83.9148 45.4453 83.6655 45.4453 83.3578Z" fill="#E1ECFA"/>
<path d="M79.6201 96.5095C79.6201 96.7126 79.4555 96.8772 79.2524 96.8772H43.9138C41.2927 96.8772 39.168 95.1205 39.168 92.9537V91.6745C39.168 89.5077 41.2927 87.751 43.9138 87.751H79.2524C79.4555 87.751 79.6201 87.9156 79.6201 88.1187V88.1851C79.6201 88.3869 79.4571 88.5512 79.2552 88.5528L78.7935 88.556L78.7675 96.1421H79.2524C79.4555 96.1418 79.6201 96.3064 79.6201 96.5095Z" fill="#E1ECFA"/>
<path d="M55.0975 88.5234L78.7927 88.5549L78.7667 96.141H54.8521C53.6222 96.141 52.625 95.1441 52.625 93.9139V90.9953C52.625 89.6304 53.732 88.5234 55.0975 88.5234Z" fill="#E1ECFA"/>
<path d="M46.6055 92.5501V92.0765C46.6055 91.7688 46.8548 91.5195 47.1625 91.5195H50.3483C50.656 91.5195 50.9053 91.7688 50.9053 92.0765V92.5501C50.9053 92.8578 50.656 93.1071 50.3483 93.1071H47.1625C46.8548 93.1071 46.6055 92.8578 46.6055 92.5501Z" fill="#E1ECFA"/>
<path d="M92.088 109.486C92.088 109.783 91.8477 110.023 91.5509 110.023H39.9168C36.0871 110.023 32.9824 107.457 32.9824 104.291V102.421C32.9824 99.2554 36.0871 96.6885 39.9168 96.6885H91.5509C91.8477 96.6885 92.088 96.9291 92.088 97.2256V97.3228C92.088 97.618 91.8499 97.8577 91.5548 97.8599L90.8803 97.8648L90.8424 108.949L91.5509 108.949C91.8474 108.949 92.088 109.189 92.088 109.486Z" fill="#E1ECFA"/>
<path d="M56.0251 97.8223L90.8805 97.8682L90.8426 108.953H56.2007C54.2376 108.953 52.6465 107.361 52.6465 105.398V101.201C52.6465 99.3348 54.159 97.8223 56.0251 97.8223Z" fill="#E1ECFA"/>
<path d="M47.3381 106.925H46.6461C46.1965 106.925 45.832 106.561 45.832 106.111V101.457C45.832 101.007 46.1965 100.643 46.6461 100.643H47.3381C47.7877 100.643 48.1522 101.007 48.1522 101.457V106.111C48.1522 106.561 47.7877 106.925 47.3381 106.925Z" fill="#E1ECFA"/>
<path d="M43.7835 106.953H43.0914C42.6418 106.953 42.2773 106.588 42.2773 106.139V101.484C42.2773 101.034 42.6418 100.67 43.0914 100.67H43.7835C44.233 100.67 44.5975 101.034 44.5975 101.484V106.139C44.5972 106.588 44.233 106.953 43.7835 106.953Z" fill="#E1ECFA"/>
<path d="M95.6164 111.383L59.4121 99.8645C57.2871 99.1884 56.1127 96.9177 56.7888 94.7926L72.6816 44.8399C73.3577 42.7148 75.6284 41.5405 77.7535 42.2165L89.0291 45.8041L95.7184 49.2896L99.8896 49.2594L113.958 53.7354C116.083 54.4114 117.257 56.6822 116.581 58.8072L100.689 108.76C100.012 110.885 97.7414 112.059 95.6164 111.383Z" fill="#E1ECFA"/>
<path d="M95.5734 107.72L61.5636 96.8989C60.3064 96.4991 59.6115 95.1557 60.0116 93.8985L74.6745 47.8115C75.0747 46.5544 76.4178 45.8597 77.6749 46.2595L111.685 57.0802C112.942 57.4803 113.637 58.8234 113.237 60.0805L98.5738 106.168C98.1737 107.425 96.8306 108.12 95.5734 107.72Z" fill="white"/>
<path d="M103.53 49.131L100.303 48.1042C101.019 45.8531 99.7746 43.4479 97.5238 42.7317C95.2729 42.0156 92.8674 43.2599 92.151 45.5107L88.9764 44.5006C88.1707 44.2443 87.3098 44.6896 87.0535 45.4953L86.4955 47.2495C85.9311 49.0238 86.9116 50.9201 88.6863 51.4845L99.6793 54.9819C101.454 55.5466 103.35 54.5657 103.914 52.7913L104.489 50.9843C104.736 50.2078 104.307 49.378 103.53 49.131ZM96.8182 44.9486C97.8446 45.2752 98.4122 46.3722 98.0856 47.3987C97.759 48.4251 96.6619 48.9927 95.6355 48.6661C94.6091 48.3394 94.0415 47.2424 94.3681 46.216C94.6947 45.1895 95.7918 44.6219 96.8182 44.9486Z" fill="#E1ECFA"/>
<path d="M106.741 64.216L77.5875 54.9406C77.1557 54.8032 76.9169 54.3418 77.0546 53.91C77.1919 53.4781 77.6533 53.2394 78.0852 53.3767L107.239 62.6521C107.671 62.7894 107.909 63.2508 107.772 63.6827C107.634 64.1146 107.173 64.3533 106.741 64.216Z" fill="#E1ECFA"/>
<path d="M105.538 67.9932L76.3844 58.7177C75.9525 58.5804 75.7138 58.119 75.8515 57.6871C75.9888 57.2553 76.4502 57.0165 76.8821 57.1542L106.036 66.4296C106.468 66.5669 106.706 67.0283 106.569 67.4602C106.431 67.8921 105.97 68.1308 105.538 67.9932Z" fill="#E1ECFA"/>
<path d="M104.337 71.7695L75.1832 62.4941C74.7514 62.3568 74.5126 61.8954 74.6503 61.4635C74.7876 61.0316 75.249 60.7929 75.6809 60.9306L104.835 70.206C105.266 70.3433 105.505 70.8047 105.368 71.2366C105.23 71.6685 104.768 71.9069 104.337 71.7695Z" fill="#E1ECFA"/>
<path d="M103.136 75.547L73.9821 66.2716C73.5502 66.1343 73.3115 65.6729 73.4491 65.241C73.5864 64.8091 74.0478 64.5704 74.4797 64.7078L103.633 73.9832C104.065 74.1205 104.304 74.5819 104.167 75.0138C104.029 75.4456 103.567 75.6844 103.136 75.547Z" fill="#E1ECFA"/>
<path d="M101.935 79.3242L72.7809 70.0488C72.349 69.9115 72.1103 69.4501 72.2479 69.0182C72.3853 68.5863 72.8467 68.3476 73.2785 68.4852L102.432 77.7607C102.864 77.898 103.103 78.3594 102.965 78.7913C102.828 79.2228 102.366 79.4615 101.935 79.3242Z" fill="#E1ECFA"/>
<path d="M100.734 83.1035L71.5799 73.8281C71.148 73.6908 70.9093 73.2294 71.0466 72.7975C71.1839 72.3656 71.6453 72.1269 72.0772 72.2645L101.231 81.54C101.663 81.6773 101.901 82.1387 101.764 82.5706C101.627 83.0021 101.165 83.2408 100.734 83.1035Z" fill="#E1ECFA"/>
<path d="M99.5304 86.8761L70.3768 77.6007C69.9449 77.4634 69.7062 77.002 69.8435 76.5701C69.9808 76.1383 70.4422 75.8995 70.8741 76.0369L100.028 85.3123C100.46 85.4496 100.698 85.911 100.561 86.3429C100.424 86.7747 99.962 87.0135 99.5304 86.8761Z" fill="#E1ECFA"/>
<path d="M98.3292 90.6533L69.1756 81.3779C68.7437 81.2406 68.505 80.7792 68.6423 80.3473C68.7797 79.9154 69.2411 79.6767 69.6729 79.8143L98.8266 89.0898C99.2585 89.2271 99.4972 89.6885 99.3595 90.1204C99.2225 90.5522 98.7608 90.791 98.3292 90.6533Z" fill="#E1ECFA"/>
<path d="M97.1495 94.3635L67.9959 85.088C67.564 84.9507 67.3253 84.4893 67.4626 84.0574C67.6 83.6256 68.0614 83.3868 68.4932 83.5242L97.6469 92.7996C98.0788 92.9369 98.3175 93.3983 98.1802 93.8302C98.0428 94.2621 97.5814 94.5008 97.1495 94.3635Z" fill="#E1ECFA"/>
<path d="M95.9463 98.1406L66.7926 88.8652C66.3607 88.7279 66.122 88.2665 66.2597 87.8346C66.397 87.4027 66.8584 87.164 67.2903 87.3017L96.4439 96.5771C96.8758 96.7144 97.1145 97.1758 96.9772 97.6077C96.8395 98.0395 96.3781 98.2783 95.9463 98.1406Z" fill="#E1ECFA"/>
<path d="M94.747 101.92L65.5934 92.6445C65.1615 92.5072 64.9228 92.0458 65.0604 91.6139C65.1978 91.182 65.6592 90.9433 66.091 91.081L95.2447 100.356C95.6766 100.494 95.9153 100.955 95.778 101.387C95.6403 101.819 95.1789 102.057 94.747 101.92Z" fill="#E1ECFA"/>
<path d="M20.1999 108.832C20.1999 108.832 16.2709 110.158 15.7245 107.209C15.4078 105.498 12.72 106.929 11.9451 105.834C11.1702 104.74 11.9868 103.211 10.5471 102.571C9.10743 101.931 7.87084 100.83 8.5132 98.9333C9.15556 97.037 6.99008 96.2118 8.59245 94.8953C10.1948 93.5788 12.2419 95.5765 12.7364 97.9707C13.2308 100.365 15.6488 99.1964 15.8705 101.539C16.0922 103.881 18.7034 102.958 18.9363 104.877C19.1699 106.795 22.0618 106.459 20.1999 108.832Z" fill="#E1ECFA"/>
<path d="M17.7291 105.785C17.7256 105.785 17.7218 105.786 17.7179 105.785C17.6951 105.784 15.435 105.64 14.218 103.331C13.3873 101.756 12.9182 101.404 12.2688 100.917C11.9819 100.702 11.6569 100.458 11.2561 100.071C9.96434 98.824 9.90819 96.7387 9.90626 96.6505C9.90562 96.6174 9.93417 96.593 9.97043 96.5959C10.0064 96.5985 10.0362 96.6274 10.0368 96.6604C10.0372 96.6816 10.0943 98.7848 11.3466 99.9942C11.7406 100.375 12.0618 100.616 12.3454 100.828C12.9846 101.307 13.4896 101.686 14.3344 103.289C15.5123 105.524 17.6906 105.665 17.7125 105.667C17.7484 105.669 17.7789 105.697 17.7805 105.73C17.7818 105.759 17.7596 105.782 17.7291 105.785Z" fill="#E1ECFA"/>
<path d="M104.207 108.915C104.207 108.915 108.36 109.871 108.684 106.707C108.871 104.873 111.47 106.225 112.124 105.016C112.778 103.806 111.919 102.234 113.222 101.466C114.526 100.698 115.61 99.4532 114.891 97.4803C114.172 95.5073 116.141 94.4979 114.562 93.1997C112.983 91.9015 111.199 94.1475 110.889 96.7192C110.579 99.2906 108.248 98.1996 108.189 100.699C108.13 103.198 105.091 102.332 104.995 104.382C104.898 106.432 102.319 106.512 104.207 108.915Z" fill="#E1ECFA"/>
<path d="M107.764 106.214C107.767 106.213 107.771 106.213 107.774 106.211C107.795 106.205 109.856 105.56 110.456 102.939C110.866 101.151 111.22 100.689 111.71 100.05C111.927 99.7673 112.172 99.4471 112.455 98.9645C113.367 97.409 112.942 95.2724 112.924 95.1822C112.917 95.1485 112.884 95.1299 112.852 95.1408C112.819 95.1514 112.798 95.1873 112.805 95.221C112.809 95.2425 113.237 97.3977 112.354 98.9058C112.076 99.3803 111.833 99.6967 111.619 99.9759C111.136 100.605 110.755 101.102 110.339 102.922C109.758 105.458 107.772 106.083 107.753 106.089C107.72 106.099 107.698 106.134 107.704 106.168C107.709 106.198 107.735 106.217 107.764 106.214Z" fill="#E1ECFA"/>
<path d="M22.5649 108.919C22.5649 108.919 17.4151 110.148 19.3649 105.525C20.0923 103.8 16.7624 104.011 16.6649 102.654C16.567 101.297 18.1739 100.192 17.2104 98.9881C16.2468 97.7846 15.7286 96.2294 17.3817 94.7043C19.0348 93.1793 17.5088 91.4986 19.7182 90.9208C21.9276 90.3432 22.6878 93.0824 21.7996 95.5511C20.9115 98.0198 23.787 97.9206 22.6775 100.227C21.568 102.532 25.0579 102.912 24.1964 104.822C23.3352 106.732 25.3554 109.401 22.5649 108.919Z" fill="#E1ECFA"/>
<path d="M20.5271 105.433C20.5239 105.431 20.5204 105.429 20.5175 105.426C20.4992 105.413 18.7092 104.029 19.3265 101.404C19.7478 99.6124 19.6044 99.0541 19.4057 98.2812C19.3181 97.9398 19.2187 97.5528 19.1574 97.0029C18.9597 95.2305 20.3905 93.4426 20.4514 93.3672C20.4742 93.3393 20.5156 93.3345 20.5438 93.357C20.5721 93.3794 20.5766 93.4202 20.5538 93.4484C20.539 93.4664 19.0964 95.2702 19.288 96.9884C19.3483 97.5291 19.4465 97.9116 19.5331 98.2488C19.7285 99.0095 19.8829 99.6105 19.4545 101.433C18.8571 103.974 20.5801 105.31 20.5974 105.323C20.6263 105.345 20.6317 105.385 20.6096 105.414C20.59 105.44 20.5551 105.447 20.5271 105.433Z" fill="#E1ECFA"/>
<path d="M25.0254 63.0164L30.2451 62.9567C31.14 46.958 43.6985 33.5836 60.1185 32.1426C78.1312 30.5617 94.0718 43.9297 95.6527 61.9424C97.2336 79.9549 83.8653 95.8955 65.8529 97.4764C60.164 97.9757 54.4312 96.9823 49.274 94.6034C47.9608 93.9976 47.3871 92.4418 47.9928 91.1285C48.5986 89.8149 50.1548 89.2418 51.4681 89.8473C55.7981 91.8447 60.6135 92.6786 65.395 92.2589C80.5306 90.9305 91.7636 77.5359 90.4352 62.4003C89.1069 47.2647 75.7122 36.0317 60.5766 37.3601C46.9013 38.5604 36.413 49.6115 35.4963 62.8967L40.4838 62.8396C41.2144 62.8312 41.6799 63.617 41.3218 64.2536L37.5341 70.9913L33.7463 77.7291C33.3883 78.366 32.4751 78.3762 32.1026 77.748L28.1611 71.0985L24.22 64.4493C23.8475 63.8208 24.2948 63.0247 25.0254 63.0164Z" fill="#FE8C00"/>
<path d="M80.6229 99.4332C80.6229 99.586 80.4991 99.7098 80.3463 99.7098H53.7548C51.7824 99.7098 50.1836 98.3879 50.1836 96.7576V95.795C50.1836 94.1644 51.7824 92.8428 53.7548 92.8428H80.3463C80.4991 92.8428 80.6229 92.9666 80.6229 93.1194V93.1694C80.6229 93.3215 80.5004 93.445 80.3483 93.446L80.0008 93.4486L79.9812 99.157H80.346C80.4991 99.1563 80.6229 99.2805 80.6229 99.4332Z" fill="#FE8C00"/>
<path d="M62.1709 93.4238L80.0011 93.4476L79.9815 99.156H61.9864C61.061 99.156 60.3105 98.4058 60.3105 97.4801V95.2842C60.3105 94.2568 61.1432 93.4238 62.1709 93.4238Z" fill="#F9ECDC"/>
<path d="M55.7812 96.3153V96.2348C55.7812 95.927 56.0306 95.6777 56.3383 95.6777H58.4598C58.7675 95.6777 59.0168 95.927 59.0168 96.2348V96.3153C59.0168 96.623 58.7675 96.8723 58.4598 96.8723H56.3383C56.0306 96.8723 55.7812 96.623 55.7812 96.3153Z" fill="#FE8C00"/>
<path d="M61.3066 94.3154H79.9813" stroke="#FE8C00" stroke-miterlimit="10" stroke-linecap="round"/>
<path d="M62.6543 95.1738H79.982" stroke="#FE8C00" stroke-miterlimit="10" stroke-linecap="round"/>
<path d="M61.3066 96.7344H79.9813" stroke="#FE8C00" stroke-miterlimit="10" stroke-linecap="round"/>
<path d="M61.0137 98.3516H79.981" stroke="#FE8C00" stroke-miterlimit="10" stroke-linecap="round"/>
<path d="M90.4871 109.196C90.4871 109.419 90.3061 109.6 90.0828 109.6H51.2295C48.3479 109.6 46.0117 107.669 46.0117 105.287V103.88C46.0117 101.498 48.3479 99.5664 51.2295 99.5664H90.0831C90.3064 99.5664 90.4874 99.7474 90.4874 99.9707V100.044C90.4874 100.266 90.3083 100.447 90.0863 100.448L89.5787 100.452L89.5502 108.793H90.0834C90.3061 108.792 90.4871 108.973 90.4871 109.196Z" fill="#FE8C00"/>
<path d="M63.3514 100.419L89.5849 100.454L89.5564 108.794H63.4836C62.0064 108.794 60.8086 107.597 60.8086 106.12V102.961C60.8086 101.557 61.947 100.419 63.3514 100.419Z" fill="#F9ECDC"/>
<path d="M56.6115 107.267H56.4937C56.0442 107.267 55.6797 106.902 55.6797 106.453V103.353C55.6797 102.904 56.0442 102.539 56.4937 102.539H56.6115C57.061 102.539 57.4252 102.904 57.4252 103.353V106.453C57.4255 106.902 57.061 107.267 56.6115 107.267Z" fill="#FE8C00"/>
<path d="M53.9376 107.285H53.8199C53.3704 107.285 53.0059 106.921 53.0059 106.471V103.372C53.0059 102.922 53.3704 102.558 53.8199 102.558H53.9376C54.3872 102.558 54.7517 102.922 54.7517 103.372V106.471C54.7513 106.921 54.3872 107.285 53.9376 107.285Z" fill="#FE8C00"/>
<path d="M63.7344 101.714H89.5501" stroke="#FE8C00" stroke-miterlimit="10" stroke-linecap="round"/>
<path d="M67.2598 104.522H89.5663" stroke="#FE8C00" stroke-miterlimit="10" stroke-linecap="round"/>
<path d="M61.6562 105.575H89.5508" stroke="#FE8C00" stroke-miterlimit="10" stroke-linecap="round"/>
<path d="M62.8027 107.933H89.5493" stroke="#FE8C00" stroke-miterlimit="10" stroke-linecap="round"/>
<path d="M37.8809 101.726L37.0293 103.837L39.4078 104.445L40.1586 102.713L37.8809 101.726Z" fill="#E1B39D"/>
<path d="M39.4074 104.441C37.1309 103.399 36.3817 103.067 32.8721 103.247C32.3902 103.291 32.2885 103.953 32.7325 104.146L38.028 106.442C38.775 106.823 39.4074 104.441 39.4074 104.441Z" fill="#2F526E"/>
<path d="M43.7976 102.928L43.4219 105.182L45.8553 105.381L46.204 103.526L43.7976 102.928Z" fill="#E1B39D"/>
<path d="M45.8547 105.381C43.404 104.869 42.5996 104.71 39.2171 105.663C38.757 105.812 38.8045 106.481 39.2803 106.571L44.9528 107.637C45.7652 107.843 45.8547 105.381 45.8547 105.381Z" fill="#315780"/>
<path d="M63.4227 81.0912C63.4227 81.0912 68.4509 80.7915 68.4509 78.3626C68.4509 75.9337 66.195 76.3084 66.8717 73.3013C67.4977 70.5188 66.5338 69.5393 65.1531 68.4888C62.9979 66.8488 64.5804 65.6017 63.2315 63.5321C62.1887 61.9326 58.2502 60.3113 56.2913 63.1063C53.5342 67.0407 53.4555 67.2554 53.4235 68.6678C53.3586 71.4962 56.1142 70.5143 53.375 74.9072C50.6358 79.3001 55.3547 81.4255 59.179 82.356C63.0027 83.2865 63.4227 81.0912 63.4227 81.0912Z" fill="#2F5482"/>
<path d="M59.2225 64.4388C58.9495 64.2858 58.6893 64.1128 58.4467 64.3102C57.7629 64.8665 56.6056 66.0845 56.7625 67.8605C56.9216 69.6615 57.1238 70.522 58.0418 70.5891C58.3398 70.6109 58.5747 70.8483 58.56 71.1467L58.517 72.3843C58.517 72.3843 58.3828 72.5059 58.3334 72.5835L56.9541 75.0006C56.8312 75.1944 56.8462 75.4453 56.9916 75.6227L58.483 77.4423C58.7252 77.7378 59.1904 77.689 59.3663 77.3502L61.8972 72.4725C61.9624 72.3467 61.9149 72.2043 61.8728 72.0689C61.7195 71.5706 60.924 70.5496 62.1058 67.7186C62.1998 67.4937 62.2332 66.6576 61.6075 66.8257C61.4272 66.8924 61.4156 67.2258 61.1249 66.9672C60.6821 66.5735 60.7405 65.2885 59.2225 64.4388Z" fill="#F3D6C1"/>
<path d="M52.7215 85.5942L45.7399 87.1453C44.8576 87.3413 44.1145 87.9323 43.7246 88.748L37.4332 101.912C37.3164 102.157 37.4499 102.447 37.7117 102.518L40.02 103.139C40.2022 103.188 40.3951 103.114 40.4971 102.955L48.8523 89.9717C48.9158 89.8729 49.0169 89.8042 49.1321 89.7811L57.1892 88.1781C57.6114 88.094 57.6663 87.5126 57.2672 87.3513L52.9779 85.6157C52.8967 85.5827 52.8072 85.5753 52.7215 85.5942Z" fill="#315782"/>
<path d="M54.9991 76.6152L53.7262 81.6027C53.68 81.784 53.5735 81.9444 53.4246 82.0577L51.5306 83.4958C51.2055 83.7425 51.1089 84.1888 51.3021 84.5482L51.4673 84.8549C51.6798 85.2493 52.1668 85.4033 52.5673 85.2031L55.1871 83.893C55.3639 83.8047 55.5031 83.6559 55.5801 83.4739L57.9397 77.8753L54.9991 76.6152Z" fill="#ECCBB5"/>
<path d="M56.8292 86.8183C56.757 86.7869 56.6774 86.7798 56.6007 86.7978L50.3745 88.2529C48.929 88.5035 47.7235 89.4962 47.2011 90.8673C46.0098 93.9934 43.8764 101.454 43.4144 103.083C43.363 103.264 43.457 103.452 43.6325 103.52C44.1645 103.724 45.2635 104.143 45.9469 104.376C46.125 104.437 46.3185 104.353 46.3955 104.181C47.0898 102.634 50.2727 95.5393 50.8708 94.2058C50.9302 94.0739 51.1792 93.4813 51.4917 93.4813C53.3405 93.4813 65.0487 94.5915 64.8812 90.0895C64.6489 89.6778 57.8094 87.2476 56.8292 86.8183Z" fill="#315782"/>
<path d="M58.5161 72.3787C58.5161 72.3787 57.7445 73.7055 58.7978 74.0203C60.1548 74.4258 61.4741 73.255 61.7549 72.2507C61.7799 72.1618 61.8078 71.9584 61.8999 71.9533C62.4264 71.9234 63.9913 71.9318 64.7023 73.212C65.3803 74.4326 65.3745 76.4736 65.3469 77.216C65.3411 77.3761 65.2163 77.5051 65.0565 77.517L62.6087 77.6957C62.3462 77.715 62.2227 78.0272 62.4014 78.2203C62.7961 78.6464 63.3226 79.3722 63.6358 80.4439C64.0022 81.6975 64.1912 82.3524 64.5467 84.7514C64.7533 86.1459 64.9163 88.896 64.9741 89.9593C64.9856 90.1733 64.7841 90.3341 64.5778 90.276C63.4619 89.9603 60.398 89.0737 58.8691 88.4281C56.9789 87.6298 53.8223 86.4561 53.8223 86.4561C53.8223 86.4561 56.7235 85.1422 56.4071 82.5381C56.0907 79.9337 55.6707 79.0096 56.0487 77.2873L54.8564 76.9465C54.6976 76.9009 54.6004 76.7418 54.6356 76.5804C54.8779 75.4734 55.3986 72.4397 58.5161 72.3787Z" fill="#FE8C00"/>
<path d="M52.0059 85.2595C52.0059 85.2595 53.1638 84.303 54.2278 84.6765C54.3667 84.7253 54.5159 84.7324 54.6597 84.7009C55.6075 84.4936 59.0122 83.7486 60.3424 83.4576C60.6684 83.3864 60.919 83.1255 60.9777 82.7969L61.8826 77.7527L64.8736 77.5342C64.8736 77.5342 64.2483 83.9267 62.3279 85.6028C62.1961 85.718 62.027 85.7803 61.8521 85.7909C60.6299 85.8653 55.253 86.1929 54.582 86.2337C54.5307 86.2369 54.4823 86.2446 54.4325 86.2574C54.3064 86.2892 54.0533 86.3594 53.8232 86.4595C53.4998 86.6004 53.1221 86.5115 52.8873 86.2481L52.0059 85.2595Z" fill="#F3D6C1"/>
<path d="M43.9863 88.9923C43.9863 88.9923 45.1421 89.2965 46.0745 88.6275C47.0072 87.9585 46.5407 86.9854 46.5407 86.9854" stroke="#264154" stroke-width="0.5" stroke-miterlimit="10" stroke-linecap="round"/>
<path d="M45.998 94.4086L47.1422 90.8339C47.5253 89.6371 48.5059 88.7275 49.7284 88.4348L55.0819 87.1543" stroke="#264154" stroke-width="0.5" stroke-miterlimit="10" stroke-linecap="round"/>
<path d="M61.6133 89.7715C61.6133 89.7715 60.6318 90.9381 61.3518 92.4382" stroke="#264154" stroke-width="0.5" stroke-miterlimit="10" stroke-linecap="round"/>
<path d="M49.1429 89.0654C49.1429 89.0654 50.0189 90.7621 47.4648 91.1087" stroke="#264154" stroke-width="0.5" stroke-miterlimit="10" stroke-linecap="round"/>
<path d="M38.1816 101.669L40.1922 102.304" stroke="#264154" stroke-width="0.5" stroke-miterlimit="10" stroke-linecap="round"/>
<path d="M44.2656 102.888L45.9976 103.469" stroke="#264154" stroke-width="0.5" stroke-miterlimit="10" stroke-linecap="round"/>
<path d="M63.4708 72.709C63.4708 72.709 61.338 72.939 61.8845 77.7503" stroke="#FE8C00" stroke-width="0.5" stroke-miterlimit="10" stroke-linecap="round"/>
<path d="M57.2977 74.0215C57.2977 74.0215 56.0813 75.5109 56.0312 77.1903" stroke="#FE8C00" stroke-width="0.5" stroke-miterlimit="10" stroke-linecap="round"/>
<path d="M45.9972 87.0174L42.5653 81.9921C42.4273 81.7903 42.572 81.5166 42.8165 81.5166H50.0413C50.1462 81.5166 50.2434 81.5705 50.2993 81.6594L53.171 86.2541C53.2265 86.343 53.324 86.3969 53.4289 86.3969H56.7989C56.9667 86.3969 57.1031 86.5329 57.1031 86.7011V86.8461C57.1031 87.0139 56.9671 87.1503 56.7989 87.1503H46.2484C46.1477 87.1499 46.0536 87.1002 45.9972 87.0174Z" fill="#FE8C00"/>
<path d="M48.7208 83.9794C48.9554 84.4661 48.8151 85.0196 48.408 85.2156C48.0008 85.4117 47.4807 85.1762 47.2465 84.6891C47.0119 84.2024 47.1521 83.6489 47.5593 83.4528C47.9665 83.2568 48.4866 83.4926 48.7208 83.9794Z" fill="#FE8C00"/>
<path d="M24.0992 47.736C23.8919 59.8754 5.83458 59.8738 5.62891 47.7356C5.83618 35.5962 23.8935 35.5981 24.0992 47.736Z" fill="#FE8C00"/>
<path d="M25.0912 47.7364C24.8618 61.1801 4.86421 61.1782 4.63672 47.7361C4.86645 34.2927 24.8637 34.2946 25.0912 47.7364Z" stroke="#FE8C00" stroke-width="0.5" stroke-miterlimit="10"/>
<path d="M15.6975 50.7975C15.5412 49.2452 14.0428 50.2902 14.0428 50.2902L14.0219 48.666L12.3079 48.6882C12.3079 48.6882 12.6252 49.0071 12.7173 49.3889C12.8235 49.8295 12.6579 50.3422 11.816 50.3531C11.1589 50.3614 10.8518 49.8057 10.9699 49.3462C11.0617 48.9888 11.3289 48.7007 11.3289 48.7007L9.57031 48.7234C9.62775 53.1747 9.62774 53.1747 14.0787 53.1173L14.0563 51.3638C14.2998 51.7273 15.8213 52.0289 15.6975 50.7975Z" fill="white"/>
<path d="M17.8462 47.0371C16.2743 47.0371 17.3062 48.6847 17.3062 48.6847H15.7051V50.3092C15.7051 50.3092 17.217 49.2838 17.353 50.838C17.4608 52.0711 15.9435 51.7499 15.7051 51.3828V53.1363C20.1567 53.1363 20.1567 53.1363 20.1567 48.6847H18.3701C18.3701 48.6847 19.4752 47.0371 17.8462 47.0371Z" fill="#F9ECD1"/>
<path d="M10.9799 47.4671C10.8618 47.9266 11.1685 48.4827 11.8256 48.4743C12.6676 48.4637 12.8335 47.951 12.7273 47.5105C12.6352 47.1286 12.3182 46.8097 12.3182 46.8097L14.0322 46.7882L14.0113 45.1162C14.0113 45.1162 12.9685 46.0541 12.4375 45.1358C11.8773 44.1668 13.0385 43.2401 13.9995 44.161L13.9767 42.3369C9.5254 42.3924 9.5254 42.3924 9.5809 46.8437L11.3395 46.8219C11.3395 46.8219 11.0716 47.1097 10.9799 47.4671Z" fill="#F9ECD1"/>
<path d="M15.6939 42.4715L15.6974 44.2956C14.7464 43.3648 13.5753 44.2789 14.1255 45.2537C14.6469 46.1774 15.6994 45.2505 15.6994 45.2505L15.7026 46.9228L17.3037 46.9196C17.3037 46.9196 16.2686 45.2742 17.8405 45.271C19.4695 45.2678 18.3673 46.9177 18.3673 46.9177L20.1542 46.9141C20.1455 42.4625 20.2845 42.4622 15.6939 42.4715Z" fill="white"/>
<path d="M33.2676 20.2074C33.4749 32.3468 51.5322 32.3449 51.7379 20.2071C51.5306 8.06798 33.4732 8.06991 33.2676 20.2074Z" fill="#FE8C00"/>
<path d="M32.2754 20.208C32.5051 33.6517 52.5024 33.6497 52.7299 20.2076C52.5002 6.76425 32.5029 6.76649 32.2754 20.208Z" stroke="#FE8C00" stroke-width="0.5" stroke-miterlimit="10"/>
<path d="M48.5291 20.2096V17.8356C48.5291 17.3344 47.9865 17.0212 47.5527 17.2718L45.4967 18.459L43.4406 19.6462C43.0068 19.8968 43.0068 20.5231 43.4406 20.7737L45.4967 21.9605L47.5527 23.1477C47.9865 23.3983 48.5291 23.0851 48.5291 22.584V20.2096Z" fill="white"/>
<path d="M41.7068 20.2096V17.8356C41.7068 17.3344 41.1643 17.0212 40.7305 17.2718L38.6744 18.459L36.6183 19.6462C36.1845 19.8968 36.1845 20.5231 36.6183 20.7737L38.6744 21.9605L40.7305 23.1477C41.1643 23.3983 41.7068 23.0851 41.7068 22.584V20.2096Z" fill="white"/>
<path d="M96.8297 21.5824C96.6224 33.7218 78.565 33.7199 78.3594 21.5821C78.5667 9.44298 96.624 9.4449 96.8297 21.5824Z" fill="#FE8C00"/>
<path d="M97.8217 21.583C97.5923 35.0267 77.5947 35.0247 77.3672 21.5826C77.5966 8.13925 97.5939 8.14149 97.8217 21.583Z" stroke="#FE8C00" stroke-width="0.5" stroke-miterlimit="10"/>
<path d="M86.01 14.9367C89.7416 13.5696 92.5655 17.2027 92.1606 20.093C91.9844 22.9425 88.6501 24.7037 88.953 25.7799C88.2641 25.7799 86.8783 25.7799 86.1897 25.7799C86.1897 25.7799 86.3861 25.2501 85.6661 24.6142C82.9484 22.4725 81.1978 17.0993 86.01 14.9367Z" fill="white"/>
<path d="M88.9532 25.7793C88.9378 27.0858 89.2708 28.6609 87.3707 28.5156C85.8787 28.4668 86.2162 26.7826 86.188 25.7793H88.9532Z" fill="#FE8C00"/>
<path d="M88.1236 25.7796C88.1236 25.7796 88.0735 21.431 88.4566 20.2249C88.8397 19.0188 89.6056 18.088 90.1719 19.1247C91.2616 22.4202 85.4158 23.2467 84.9595 20.3304C84.3567 17.5181 87.5207 17.2784 86.9925 25.7796" stroke="#FE8C00" stroke-miterlimit="10" stroke-linecap="round"/>
<path d="M1.26758 109.602H118.601" stroke="#315782" stroke-miterlimit="10" stroke-linecap="round"/>
</svg>
