<svg width="226" height="220" viewBox="0 0 226 220" fill="none" xmlns="http://www.w3.org/2000/svg">
<rect x="0.5" y="3.91211" width="225" height="216" fill="white"/>
<path d="M143.844 18.396C157.828 38.5025 137.525 36.9299 172.014 30.5485C209.155 23.6763 219.261 51.0353 212.225 84.2328C205.703 115.009 177.508 108.455 191.799 137.841C215.57 186.721 192.498 202.241 128.501 200.065C98.5543 199.046 75.9578 201.654 56.9023 196.945C40.2521 192.83 22.91 183.746 18.0069 171.402C8.68007 147.922 20.2551 141.827 27.5731 126.122C34.8695 110.464 28.8226 110.231 21.9721 87.1681C6.96788 36.6531 58.6975 41.1393 68.8347 26.7855C95.2063 -10.556 128.967 -2.99374 143.844 18.396Z" fill="#F5F8FF"/>
<path d="M145.74 164.28C145.74 164.66 145.432 164.969 145.051 164.969H78.791C73.8765 164.969 69.8926 161.675 69.8926 157.613V155.214C69.8926 151.151 73.8765 147.857 78.791 147.857H145.051C145.432 147.857 145.74 148.166 145.74 148.547V148.671C145.74 149.05 145.435 149.358 145.056 149.361L144.19 149.367L144.142 163.591H145.051C145.431 163.59 145.74 163.899 145.74 164.28Z" fill="#E1ECFA"/>
<path d="M99.7624 149.308L144.191 149.367L144.142 163.59H99.3028C96.9968 163.59 95.127 161.721 95.127 159.415V153.942C95.127 151.383 97.2025 149.308 99.7624 149.308Z" fill="#E1ECFA"/>
<path d="M83.8379 156.858V155.97C83.8379 155.393 84.3053 154.926 84.8823 154.926H90.8557C91.4326 154.926 91.9001 155.393 91.9001 155.97V156.858C91.9001 157.435 91.4326 157.903 90.8557 157.903H84.8823C84.3053 157.903 83.8379 157.435 83.8379 156.858Z" fill="#E1ECFA"/>
<path d="M147.914 181.513C147.914 181.894 147.605 182.202 147.225 182.202H80.9649C76.0503 182.202 72.0664 178.909 72.0664 174.846V172.447C72.0664 168.385 76.0503 165.091 80.9649 165.091H147.225C147.605 165.091 147.914 165.399 147.914 165.78V165.905C147.914 166.283 147.608 166.591 147.23 166.594L146.364 166.6L146.316 180.824H147.225C147.605 180.824 147.914 181.132 147.914 181.513Z" fill="#E1ECFA"/>
<path d="M101.937 166.541L146.365 166.6L146.317 180.824H101.477C99.1706 180.824 97.3008 178.955 97.3008 176.648V171.176C97.3008 168.617 99.3763 166.541 101.937 166.541Z" fill="#E1ECFA"/>
<path d="M86.0117 174.092V173.204C86.0117 172.627 86.4792 172.159 87.0561 172.159H93.0295C93.6065 172.159 94.0739 172.627 94.0739 173.204V174.092C94.0739 174.668 93.6065 175.136 93.0295 175.136H87.0561C86.4792 175.136 86.0117 174.668 86.0117 174.092Z" fill="#E1ECFA"/>
<path d="M171.292 205.845C171.292 206.4 170.841 206.852 170.285 206.852H73.4708C66.2899 206.852 60.4688 202.039 60.4688 196.103V192.598C60.4688 186.662 66.2899 181.849 73.4708 181.849H170.285C170.841 181.849 171.292 182.3 171.292 182.856V183.038C171.292 183.591 170.845 184.041 170.292 184.045L169.027 184.054L168.956 204.837L170.285 204.837C170.841 204.837 171.292 205.288 171.292 205.845Z" fill="#E1ECFA"/>
<path d="M103.675 183.973L169.029 184.059L168.958 204.842H104.004C100.323 204.842 97.3398 201.859 97.3398 198.178V190.307C97.3398 186.809 100.176 183.973 103.675 183.973Z" fill="#E1ECFA"/>
<path d="M87.3865 201.041H86.0888C85.2459 201.041 84.5625 200.357 84.5625 199.515V190.787C84.5625 189.944 85.2459 189.261 86.0888 189.261H87.3865C88.2293 189.261 88.9128 189.944 88.9128 190.787V199.515C88.9128 200.358 88.2293 201.041 87.3865 201.041Z" fill="#E1ECFA"/>
<path d="M80.7205 201.093H79.4228C78.5799 201.093 77.8965 200.409 77.8965 199.566V190.839C77.8965 189.996 78.5799 189.312 79.4228 189.312H80.7205C81.5633 189.312 82.2467 189.996 82.2467 190.839V199.566C82.2461 200.409 81.5633 201.093 80.7205 201.093Z" fill="#E1ECFA"/>
<path d="M177.904 209.406L110.021 187.809C106.037 186.541 103.835 182.283 105.103 178.299L134.902 84.6375C136.169 80.653 140.427 78.4511 144.411 79.7187L165.553 86.4454L178.096 92.9807L185.917 92.9241L212.295 101.317C216.279 102.584 218.481 106.842 217.214 110.826L187.415 204.488C186.146 208.472 181.889 210.674 177.904 209.406Z" fill="#E1ECFA"/>
<path d="M177.824 202.537L114.056 182.249C111.699 181.499 110.395 178.98 111.146 176.623L138.639 90.2098C139.389 87.8527 141.907 86.5502 144.264 87.2998L208.033 107.589C210.39 108.339 211.693 110.857 210.943 113.214L183.45 199.627C182.7 201.985 180.181 203.288 177.824 202.537Z" fill="white"/>
<path d="M192.745 92.6838L186.694 90.7587C188.036 86.5377 185.703 82.0281 181.483 80.6853C177.263 79.3425 172.752 81.6755 171.409 85.8958L165.457 84.0019C163.946 83.5213 162.332 84.3563 161.851 85.8669L160.805 89.156C159.747 92.4829 161.585 96.0384 164.913 97.0966L185.525 103.654C188.852 104.713 192.407 102.874 193.465 99.547L194.543 96.1587C195.006 94.7028 194.201 93.1471 192.745 92.6838ZM180.16 84.8418C182.085 85.4542 183.149 87.5111 182.536 89.4357C181.924 91.3603 179.867 92.4245 177.943 91.8121C176.018 91.1996 174.954 89.1427 175.566 87.2182C176.179 85.2936 178.236 84.2294 180.16 84.8418Z" fill="#E1ECFA"/>
<path d="M198.763 120.968L144.1 103.576C143.29 103.319 142.842 102.454 143.1 101.644C143.358 100.834 144.223 100.387 145.033 100.644L199.696 118.035C200.506 118.293 200.953 119.158 200.696 119.968C200.438 120.778 199.572 121.225 198.763 120.968Z" fill="#E1ECFA"/>
<path d="M196.509 128.05L141.846 110.659C141.036 110.402 140.588 109.536 140.846 108.727C141.104 107.917 141.969 107.469 142.779 107.727L197.442 125.119C198.252 125.376 198.699 126.241 198.442 127.051C198.184 127.861 197.318 128.308 196.509 128.05Z" fill="#E1ECFA"/>
<path d="M194.257 135.132L139.594 117.741C138.784 117.484 138.336 116.618 138.595 115.809C138.852 114.999 139.717 114.551 140.527 114.809L195.19 132.201C196 132.458 196.447 133.323 196.19 134.133C195.932 134.943 195.066 135.39 194.257 135.132Z" fill="#E1ECFA"/>
<path d="M192.003 142.215L137.34 124.823C136.53 124.566 136.083 123.701 136.341 122.891C136.598 122.081 137.463 121.634 138.273 121.891L192.936 139.283C193.746 139.54 194.193 140.405 193.936 141.215C193.678 142.025 192.812 142.472 192.003 142.215Z" fill="#E1ECFA"/>
<path d="M189.751 149.297L135.088 131.906C134.278 131.649 133.831 130.783 134.089 129.974C134.346 129.164 135.211 128.716 136.021 128.974L190.684 146.366C191.494 146.623 191.942 147.488 191.684 148.298C191.426 149.107 190.56 149.555 189.751 149.297Z" fill="#E1ECFA"/>
<path d="M187.497 156.38L132.834 138.989C132.025 138.732 131.577 137.866 131.834 137.057C132.092 136.247 132.957 135.799 133.767 136.057L188.43 153.449C189.24 153.706 189.687 154.571 189.429 155.381C189.172 156.19 188.307 156.638 187.497 156.38Z" fill="#E1ECFA"/>
<path d="M185.246 163.455L130.582 146.064C129.773 145.806 129.325 144.941 129.583 144.131C129.84 143.321 130.705 142.874 131.515 143.131L186.178 160.523C186.988 160.78 187.435 161.645 187.177 162.455C186.92 163.265 186.055 163.713 185.246 163.455Z" fill="#E1ECFA"/>
<path d="M182.992 170.538L128.328 153.146C127.519 152.889 127.071 152.024 127.329 151.214C127.586 150.404 128.451 149.957 129.261 150.215L183.924 167.606C184.734 167.864 185.181 168.729 184.923 169.538C184.666 170.348 183.801 170.796 182.992 170.538Z" fill="#E1ECFA"/>
<path d="M180.779 177.496L126.116 160.105C125.306 159.847 124.858 158.982 125.116 158.172C125.373 157.362 126.238 156.915 127.048 157.172L181.711 174.564C182.521 174.821 182.969 175.686 182.711 176.496C182.454 177.306 181.588 177.754 180.779 177.496Z" fill="#E1ECFA"/>
<path d="M178.524 184.579L123.861 167.187C123.052 166.93 122.604 166.065 122.862 165.255C123.12 164.445 123.985 163.998 124.794 164.256L179.458 181.647C180.267 181.905 180.715 182.77 180.457 183.579C180.199 184.389 179.334 184.837 178.524 184.579Z" fill="#E1ECFA"/>
<path d="M176.273 191.661L121.609 174.269C120.8 174.012 120.352 173.147 120.61 172.337C120.868 171.527 121.733 171.08 122.543 171.338L177.206 188.729C178.015 188.987 178.463 189.852 178.206 190.661C177.947 191.471 177.082 191.918 176.273 191.661Z" fill="#E1ECFA"/>
<path d="M36.4983 204.63C36.4983 204.63 29.1316 207.118 28.107 201.588C27.5132 198.381 22.4735 201.064 21.0206 199.011C19.5677 196.958 21.0988 194.092 18.3994 192.892C15.7 191.692 13.3814 189.627 14.5858 186.071C15.7902 182.516 11.7299 180.968 14.7344 178.5C17.7388 176.032 21.5771 179.777 22.5042 184.266C23.4313 188.756 27.965 186.565 28.3808 190.956C28.7965 195.348 33.6924 193.618 34.1292 197.215C34.5671 200.813 39.9895 200.183 36.4983 204.63Z" fill="#E1ECFA"/>
<path d="M31.8671 198.921C31.8605 198.922 31.8533 198.923 31.8461 198.922C31.8034 198.92 27.5656 198.65 25.2837 194.321C23.7261 191.366 22.8466 190.706 21.6289 189.794C21.0911 189.39 20.4816 188.933 19.7302 188.208C17.3081 185.869 17.2028 181.96 17.1992 181.794C17.198 181.732 17.2516 181.686 17.3196 181.692C17.3869 181.697 17.4429 181.751 17.4441 181.813C17.4447 181.852 17.5518 185.796 19.8999 188.064C20.6387 188.777 21.2409 189.229 21.7727 189.627C22.9711 190.526 23.918 191.236 25.5021 194.241C27.7106 198.431 31.795 198.697 31.8359 198.699C31.9032 198.703 31.9604 198.756 31.9634 198.817C31.9658 198.872 31.9243 198.915 31.8671 198.921Z" fill="#E1ECFA"/>
<path d="M194.011 204.78C194.011 204.78 201.798 206.573 202.405 200.641C202.757 197.201 207.629 199.737 208.855 197.469C210.082 195.201 208.472 192.253 210.915 190.813C213.359 189.374 215.392 187.039 214.044 183.34C212.695 179.641 216.387 177.748 213.427 175.314C210.467 172.88 207.122 177.091 206.54 181.913C205.958 186.734 201.589 184.689 201.478 189.375C201.368 194.061 195.669 192.437 195.489 196.281C195.307 200.125 190.471 200.275 194.011 204.78Z" fill="#E1ECFA"/>
<path d="M200.68 199.719C200.686 199.718 200.693 199.717 200.699 199.714C200.739 199.702 204.603 198.493 205.728 193.579C206.496 190.226 207.16 189.359 208.079 188.161C208.486 187.632 208.946 187.031 209.476 186.126C211.186 183.21 210.39 179.204 210.355 179.035C210.342 178.971 210.281 178.937 210.22 178.957C210.159 178.977 210.119 179.044 210.132 179.107C210.141 179.148 210.943 183.189 209.286 186.016C208.765 186.906 208.31 187.499 207.909 188.023C207.004 189.203 206.289 190.135 205.508 193.546C204.42 198.301 200.696 199.474 200.659 199.485C200.598 199.503 200.557 199.569 200.568 199.633C200.577 199.69 200.625 199.725 200.68 199.719Z" fill="#E1ECFA"/>
<path d="M40.9319 204.791C40.9319 204.791 31.276 207.095 34.932 198.426C36.2959 195.192 30.0524 195.588 29.8695 193.043C29.686 190.499 32.6989 188.427 30.8922 186.17C29.0856 183.913 28.114 180.997 31.2135 178.138C34.313 175.278 31.4517 172.127 35.5944 171.044C39.7371 169.961 41.1623 175.097 39.4971 179.726C37.8318 184.354 43.2235 184.168 41.1431 188.492C39.0627 192.815 45.6065 193.528 43.9911 197.109C42.3764 200.691 46.1642 205.694 40.9319 204.791Z" fill="#E1ECFA"/>
<path d="M37.1112 198.253C37.1052 198.25 37.0986 198.247 37.0932 198.242C37.0589 198.216 33.7025 195.621 34.86 190.7C35.6499 187.341 35.381 186.294 35.0086 184.844C34.8443 184.204 34.6578 183.479 34.5429 182.448C34.1723 179.124 36.8549 175.772 36.9692 175.631C37.0119 175.578 37.0895 175.569 37.1425 175.612C37.1954 175.654 37.2039 175.73 37.1611 175.783C37.1335 175.817 34.4286 179.199 34.7878 182.421C34.9009 183.434 35.085 184.151 35.2474 184.784C35.6138 186.21 35.9032 187.337 35.1 190.754C33.9798 195.518 37.2105 198.023 37.243 198.047C37.2971 198.088 37.3073 198.165 37.2658 198.218C37.2291 198.266 37.1635 198.28 37.1112 198.253Z" fill="#E1ECFA"/>
<path d="M45.5485 118.721L55.3356 118.609C57.0135 88.6116 80.5606 63.5346 111.348 60.8328C145.122 57.8686 175.011 82.9336 177.975 116.708C180.939 150.481 155.873 180.37 122.1 183.334C111.434 184.27 100.685 182.407 91.0148 177.947C88.5524 176.811 87.4767 173.894 88.6125 171.431C89.7484 168.968 92.6662 167.894 95.1286 169.029C103.247 172.774 112.276 174.338 121.242 173.551C149.621 171.06 170.683 145.945 168.192 117.566C165.701 89.1868 140.586 68.1249 112.207 70.6156C86.5659 72.8662 66.9004 93.5869 65.1816 118.497L74.533 118.39C75.9029 118.374 76.7758 119.847 76.1044 121.041L69.0024 133.674L61.9004 146.307C61.229 147.502 59.5168 147.521 58.8183 146.343L51.4281 133.875L44.0385 121.408C43.34 120.229 44.1787 118.737 45.5485 118.721Z" fill="#FE8C00"/>
<path d="M149.791 187.005C149.791 187.291 149.558 187.523 149.272 187.523H99.4127C95.7146 187.523 92.7168 185.045 92.7168 181.988V180.183C92.7168 177.125 95.7146 174.647 99.4127 174.647H149.272C149.558 174.647 149.791 174.88 149.791 175.166V175.26C149.791 175.545 149.561 175.777 149.276 175.778L148.624 175.783L148.587 186.487H149.271C149.558 186.485 149.791 186.718 149.791 187.005Z" fill="#FE8C00"/>
<path d="M115.193 175.739L148.625 175.784L148.588 186.487H114.847C113.112 186.487 111.705 185.081 111.705 183.345V179.227C111.705 177.301 113.266 175.739 115.193 175.739Z" fill="#F9ECDC"/>
<path d="M103.211 181.16V181.009C103.211 180.432 103.678 179.965 104.255 179.965H108.233C108.81 179.965 109.278 180.432 109.278 181.009V181.16C109.278 181.737 108.81 182.205 108.233 182.205H104.255C103.678 182.205 103.211 181.737 103.211 181.16Z" fill="#FE8C00"/>
<path d="M113.572 177.409H148.587" stroke="#FE8C00" stroke-miterlimit="10" stroke-linecap="round"/>
<path d="M116.098 179.021H148.587" stroke="#FE8C00" stroke-miterlimit="10" stroke-linecap="round"/>
<path d="M113.572 181.942H148.587" stroke="#FE8C00" stroke-miterlimit="10" stroke-linecap="round"/>
<path d="M113.023 184.975H148.587" stroke="#FE8C00" stroke-miterlimit="10" stroke-linecap="round"/>
<path d="M168.286 205.308C168.286 205.726 167.947 206.066 167.528 206.066H94.678C89.2749 206.066 84.8945 202.444 84.8945 197.977V195.34C84.8945 190.873 89.2749 187.252 94.678 187.252H167.528C167.947 187.252 168.286 187.591 168.286 188.01V188.147C168.286 188.563 167.951 188.902 167.534 188.905L166.583 188.912L166.529 204.551H167.529C167.947 204.55 168.286 204.889 168.286 205.308Z" fill="#FE8C00"/>
<path d="M117.406 188.849L166.594 188.914L166.541 204.553H117.654C114.884 204.553 112.639 202.307 112.639 199.538V193.615C112.639 190.983 114.773 188.849 117.406 188.849Z" fill="#F9ECDC"/>
<path d="M104.771 201.691H104.55C103.707 201.691 103.023 201.008 103.023 200.165V194.352C103.023 193.51 103.707 192.826 104.55 192.826H104.771C105.613 192.826 106.296 193.51 106.296 194.352V200.165C106.297 201.008 105.613 201.691 104.771 201.691Z" fill="#FE8C00"/>
<path d="M99.7549 201.727H99.5341C98.6912 201.727 98.0078 201.044 98.0078 200.201V194.389C98.0078 193.546 98.6912 192.862 99.5341 192.862H99.7549C100.598 192.862 101.281 193.546 101.281 194.389V200.201C101.281 201.044 100.598 201.727 99.7549 201.727Z" fill="#FE8C00"/>
<path d="M118.123 191.28H166.528" stroke="#FE8C00" stroke-miterlimit="10" stroke-linecap="round"/>
<path d="M124.734 196.547H166.559" stroke="#FE8C00" stroke-miterlimit="10" stroke-linecap="round"/>
<path d="M114.227 198.517H166.529" stroke="#FE8C00" stroke-miterlimit="10" stroke-linecap="round"/>
<path d="M116.379 202.94H166.529" stroke="#FE8C00" stroke-miterlimit="10" stroke-linecap="round"/>
<path d="M69.6494 191.297L68.0527 195.257L72.5125 196.396L73.9203 193.149L69.6494 191.297Z" fill="#E1B39D"/>
<path d="M72.5133 196.392C68.2449 194.437 66.8401 193.814 60.2597 194.151C59.3561 194.234 59.1654 195.476 59.998 195.837L69.927 200.143C71.3276 200.856 72.5133 196.392 72.5133 196.392Z" fill="#2F526E"/>
<path d="M80.7435 193.553L80.0391 197.78L84.6017 198.153L85.2556 194.675L80.7435 193.553Z" fill="#E1B39D"/>
<path d="M84.6014 198.151C80.0063 197.19 78.498 196.893 72.1558 198.679C71.2931 198.959 71.3821 200.213 72.2743 200.381L82.9102 202.381C84.4335 202.767 84.6014 198.151 84.6014 198.151Z" fill="#315780"/>
<path d="M117.542 152.609C117.542 152.609 126.97 152.047 126.97 147.493C126.97 142.938 122.74 143.641 124.009 138.003C125.183 132.786 123.375 130.949 120.787 128.979C116.746 125.904 119.713 123.566 117.184 119.685C115.228 116.686 107.844 113.646 104.171 118.887C99.0011 126.264 98.8537 126.667 98.7935 129.315C98.672 134.618 103.839 132.777 98.7027 141.014C93.5667 149.25 102.415 153.236 109.585 154.98C116.755 156.725 117.542 152.609 117.542 152.609Z" fill="#2F5482"/>
<path d="M109.667 121.384C109.155 121.097 108.667 120.772 108.212 121.142C106.93 122.186 104.76 124.469 105.054 127.799C105.353 131.176 105.732 132.79 107.453 132.915C108.012 132.956 108.452 133.402 108.425 133.961L108.344 136.281C108.344 136.281 108.093 136.509 108 136.655L105.414 141.187C105.183 141.55 105.211 142.021 105.484 142.353L108.28 145.765C108.735 146.319 109.607 146.228 109.937 145.593L114.682 136.447C114.804 136.211 114.715 135.944 114.636 135.69C114.349 134.756 112.857 132.841 115.073 127.533C115.249 127.112 115.312 125.544 114.139 125.859C113.801 125.984 113.779 126.609 113.234 126.124C112.404 125.386 112.513 122.977 109.667 121.384Z" fill="#F3D6C1"/>
<path d="M97.4798 161.052L84.3893 163.961C82.7349 164.328 81.3416 165.436 80.6106 166.966L68.8142 191.649C68.5952 192.107 68.8455 192.651 69.3364 192.784L73.6644 193.949C74.0061 194.041 74.3677 193.902 74.559 193.604L90.225 169.26C90.3441 169.075 90.5336 168.946 90.7496 168.903L105.857 165.897C106.648 165.74 106.751 164.649 106.003 164.347L97.9605 161.093C97.8083 161.031 97.6405 161.017 97.4798 161.052Z" fill="#315782"/>
<path d="M101.75 144.217L99.3636 153.568C99.2769 153.908 99.0772 154.209 98.7981 154.421L95.2467 157.118C94.6373 157.58 94.4562 158.417 94.8184 159.091L95.1282 159.666C95.5265 160.406 96.4397 160.694 97.1906 160.319L102.103 157.863C102.434 157.697 102.695 157.418 102.84 157.077L107.264 146.579L101.75 144.217Z" fill="#ECCBB5"/>
<path d="M105.179 163.346C105.044 163.287 104.894 163.274 104.751 163.307L93.0764 166.036C90.3661 166.505 88.1058 168.367 87.1264 170.938C84.8926 176.799 80.8925 190.788 80.0262 193.842C79.9299 194.181 80.1062 194.534 80.4353 194.661C81.4328 195.045 83.4933 195.83 84.7747 196.267C85.1086 196.382 85.4714 196.223 85.6158 195.901C86.9177 192.999 92.8857 179.698 94.0071 177.197C94.1184 176.95 94.5852 175.839 95.1712 175.839C98.6377 175.839 120.591 177.92 120.276 169.479C119.841 168.707 107.017 164.151 105.179 163.346Z" fill="#315782"/>
<path d="M108.344 136.275C108.344 136.275 106.897 138.762 108.872 139.353C111.416 140.113 113.89 137.918 114.417 136.035C114.464 135.868 114.516 135.487 114.689 135.477C115.676 135.421 118.61 135.437 119.943 137.837C121.214 140.126 121.203 143.952 121.152 145.345C121.141 145.645 120.907 145.887 120.607 145.909L116.018 146.244C115.525 146.28 115.294 146.865 115.629 147.228C116.369 148.027 117.356 149.387 117.943 151.397C118.63 153.747 118.985 154.975 119.651 159.473C120.039 162.088 120.344 167.245 120.453 169.238C120.474 169.64 120.096 169.941 119.71 169.832C117.617 169.24 111.872 167.578 109.006 166.367C105.462 164.871 99.543 162.67 99.543 162.67C99.543 162.67 104.983 160.206 104.39 155.324C103.796 150.44 103.009 148.708 103.718 145.478L101.482 144.839C101.184 144.754 101.002 144.455 101.068 144.153C101.522 142.077 102.499 136.389 108.344 136.275Z" fill="#FE8C00"/>
<path d="M96.1367 160.423C96.1367 160.423 98.3079 158.629 100.303 159.329C100.563 159.421 100.843 159.434 101.113 159.375C102.89 158.986 109.274 157.59 111.768 157.044C112.379 156.91 112.849 156.421 112.959 155.805L114.656 146.347L120.264 145.938C120.264 145.938 119.091 157.923 115.491 161.066C115.243 161.282 114.926 161.399 114.598 161.419C112.307 161.558 102.225 162.173 100.967 162.249C100.871 162.255 100.78 162.269 100.687 162.294C100.45 162.353 99.9756 162.485 99.5443 162.673C98.9378 162.937 98.2297 162.77 97.7893 162.276L96.1367 160.423Z" fill="#F3D6C1"/>
<path d="M81.0977 167.425C81.0977 167.425 83.2647 167.996 85.0129 166.741C86.7618 165.487 85.8871 163.662 85.8871 163.662" stroke="#264154" stroke-width="0.5" stroke-miterlimit="10" stroke-linecap="round"/>
<path d="M84.8711 177.578L87.0164 170.876C87.7348 168.632 89.5733 166.926 91.8654 166.378L101.903 163.977" stroke="#264154" stroke-width="0.5" stroke-miterlimit="10" stroke-linecap="round"/>
<path d="M114.149 168.885C114.149 168.885 112.309 171.072 113.659 173.885" stroke="#264154" stroke-width="0.5" stroke-miterlimit="10" stroke-linecap="round"/>
<path d="M90.7675 167.559C90.7675 167.559 92.4099 170.74 87.6211 171.39" stroke="#264154" stroke-width="0.5" stroke-miterlimit="10" stroke-linecap="round"/>
<path d="M70.2168 191.193L73.9865 192.383" stroke="#264154" stroke-width="0.5" stroke-miterlimit="10" stroke-linecap="round"/>
<path d="M81.623 193.479L84.8705 194.569" stroke="#264154" stroke-width="0.5" stroke-miterlimit="10" stroke-linecap="round"/>
<path d="M117.631 136.893C117.631 136.893 113.632 137.324 114.656 146.345" stroke="#FE8C00" stroke-width="0.5" stroke-miterlimit="10" stroke-linecap="round"/>
<path d="M106.056 139.354C106.056 139.354 103.775 142.146 103.682 145.295" stroke="#FE8C00" stroke-width="0.5" stroke-miterlimit="10" stroke-linecap="round"/>
<path d="M84.8692 163.722L78.4344 154.3C78.1757 153.921 78.447 153.408 78.9054 153.408H92.4519C92.6487 153.408 92.8309 153.509 92.9356 153.676L98.3201 162.291C98.4241 162.458 98.607 162.559 98.8038 162.559H105.122C105.437 162.559 105.693 162.814 105.693 163.129V163.401C105.693 163.716 105.438 163.971 105.122 163.971H85.3403C85.1514 163.971 84.9751 163.877 84.8692 163.722Z" fill="#FE8C00"/>
<path d="M89.9755 158.026C90.4153 158.939 90.1524 159.976 89.389 160.344C88.6255 160.711 87.6503 160.27 87.2111 159.357C86.7714 158.444 87.0343 157.406 87.7977 157.039C88.5612 156.671 89.5364 157.113 89.9755 158.026Z" fill="#FE8C00"/>
<path d="M43.8115 90.0712C43.4229 112.833 9.56532 112.83 9.17969 90.0706C9.56833 67.3092 43.4259 67.3128 43.8115 90.0712Z" fill="#FE8C00"/>
<path d="M45.6705 90.0739C45.2404 115.281 7.7449 115.277 7.31836 90.0733C7.74911 64.8669 45.244 64.8705 45.6705 90.0739Z" stroke="#FE8C00" stroke-width="0.5" stroke-miterlimit="10"/>
<path d="M28.0587 95.8071C27.7657 92.8965 24.9562 94.8559 24.9562 94.8559L24.9171 91.8105L21.7033 91.8521C21.7033 91.8521 22.2983 92.4501 22.4709 93.166C22.6701 93.992 22.3596 94.9534 20.781 94.9738C19.5489 94.9895 18.9732 93.9475 19.1945 93.086C19.3666 92.4158 19.8677 91.8755 19.8677 91.8755L16.5703 91.9182C16.678 100.264 16.678 100.264 25.0236 100.157L24.9815 96.8689C25.4381 97.5505 28.2909 98.116 28.0587 95.8071Z" fill="white"/>
<path d="M32.0868 88.7559C29.1395 88.7559 31.0743 91.8451 31.0743 91.8451H28.0723V94.8911C28.0723 94.8911 30.9071 92.9684 31.1621 95.8826C31.3643 98.1946 28.5193 97.5923 28.0723 96.9041V100.192C36.419 100.192 36.419 100.192 36.419 91.8451H33.0693C33.0693 91.8451 35.1412 88.7559 32.0868 88.7559Z" fill="#F9ECD1"/>
<path d="M19.2132 89.5645C18.9918 90.426 19.567 91.4686 20.7991 91.4529C22.3777 91.4331 22.6887 90.4717 22.4896 89.6457C22.3169 88.9298 21.7225 88.3318 21.7225 88.3318L24.9363 88.2915L24.8972 85.1565C24.8972 85.1565 22.942 86.915 21.9463 85.1932C20.8959 83.3763 23.0731 81.6388 24.875 83.3655L24.8323 79.9453C16.4861 80.0494 16.4861 80.0494 16.5902 88.3956L19.8876 88.3546C19.8876 88.3546 19.3853 88.8943 19.2132 89.5645Z" fill="#F9ECD1"/>
<path d="M28.0511 80.1958L28.0577 83.616C26.2745 81.8707 24.0786 83.5847 25.1104 85.4124C26.088 87.1444 28.0613 85.4064 28.0613 85.4064L28.0673 88.542L31.0694 88.536C31.0694 88.536 29.1286 85.4509 32.0759 85.4449C35.1303 85.4389 33.0637 88.5324 33.0637 88.5324L36.4141 88.5258C36.3979 80.179 36.6584 80.1784 28.0511 80.1958Z" fill="white"/>
<path d="M61.0039 38.4624C61.3925 61.2238 95.2501 61.2201 95.6357 38.4617C95.2471 15.7009 61.3895 15.7046 61.0039 38.4624Z" fill="#FE8C00"/>
<path d="M59.1426 38.4652C59.5733 63.6722 97.0682 63.6686 97.4948 38.4646C97.064 13.2583 59.5691 13.2625 59.1426 38.4652Z" stroke="#FE8C00" stroke-width="0.5" stroke-miterlimit="10"/>
<path d="M89.6158 38.4706V34.0193C89.6158 33.0796 88.5985 32.4924 87.7851 32.9623L83.93 35.1882L80.0749 37.4142C79.2615 37.8841 79.2615 39.0584 80.0749 39.5283L83.93 41.7536L87.7851 43.9796C88.5985 44.4495 89.6158 43.8623 89.6158 42.9226V38.4706Z" fill="white"/>
<path d="M76.8248 38.4706V34.0193C76.8248 33.0796 75.8075 32.4924 74.9941 32.9623L71.139 35.1882L67.2839 37.4142C66.4705 37.8841 66.4705 39.0584 67.2839 39.5283L71.139 41.7536L74.9941 43.9796C75.8075 44.4495 76.8248 43.8623 76.8248 42.9226V38.4706Z" fill="white"/>
<path d="M180.179 41.0405C179.79 63.8019 145.933 63.7983 145.547 41.0399C145.936 18.2791 179.793 18.2827 180.179 41.0405Z" fill="#FE8C00"/>
<path d="M182.038 41.0434C181.608 66.2503 144.112 66.2467 143.686 41.0428C144.116 15.8364 181.611 15.8406 182.038 41.0434Z" stroke="#FE8C00" stroke-width="0.5" stroke-miterlimit="10"/>
<path d="M159.891 28.5805C166.887 26.017 172.182 32.8291 171.423 38.2484C171.093 43.5913 164.841 46.8936 165.409 48.9114C164.117 48.9114 161.519 48.9114 160.228 48.9114C160.228 48.9114 160.596 47.9181 159.246 46.7257C154.15 42.71 150.868 32.6354 159.891 28.5805Z" fill="white"/>
<path d="M165.409 48.9121C165.38 51.3619 166.004 54.3152 162.441 54.0427C159.644 53.9512 160.277 50.7934 160.224 48.9121H165.409Z" fill="#FE8C00"/>
<path d="M163.854 48.9109C163.854 48.9109 163.76 40.7572 164.478 38.4958C165.197 36.2343 166.633 34.489 167.694 36.4328C169.738 42.612 158.777 44.1617 157.921 38.6937C156.791 33.4206 162.723 32.9712 161.733 48.9109" stroke="#FE8C00" stroke-miterlimit="10" stroke-linecap="round"/>
<path d="M1 206.068H221" stroke="#315782" stroke-miterlimit="10" stroke-linecap="round"/>
</svg>
