<svg width="250" height="187" viewBox="0 0 250 187" fill="none" xmlns="http://www.w3.org/2000/svg">
<path d="M250 163.801H0V163.926H250V163.801Z" fill="#EBEBEB"/>
<path d="M157.835 167.206H145.105V167.331H157.835V167.206Z" fill="#EBEBEB"/>
<path d="M227.72 169.911H197.555V170.036H227.72V169.911Z" fill="#EBEBEB"/>
<path d="M142.395 167.266H111.23V167.391H142.395V167.266Z" fill="#EBEBEB"/>
<path d="M91.02 171.006H84.5V171.131H91.02V171.006Z" fill="#EBEBEB"/>
<path d="M127.045 171.006H97.3555V171.131H127.045V171.006Z" fill="#EBEBEB"/>
<path d="M45.4555 168.896H26.2305V169.021H45.4555V168.896Z" fill="#EBEBEB"/>
<path d="M118.5 141.501H21.9555C21.1991 141.499 20.4742 141.198 19.9399 140.663C19.4056 140.127 19.1055 139.402 19.1055 138.646V2.93059C19.1121 2.1786 19.4151 1.45958 19.9487 0.929695C20.4823 0.399815 21.2035 0.101874 21.9555 0.100586H118.5C119.258 0.100586 119.984 0.40138 120.519 0.936796C121.055 1.47221 121.355 2.19839 121.355 2.95559V138.646C121.355 139.403 121.055 140.129 120.519 140.664C119.984 141.2 119.258 141.501 118.5 141.501ZM21.9555 0.200586C21.2323 0.201911 20.5392 0.490118 20.0283 1.00195C19.5174 1.51378 19.2305 2.20741 19.2305 2.93059V138.646C19.2305 139.369 19.5174 140.062 20.0283 140.574C20.5392 141.086 21.2323 141.374 21.9555 141.376H118.5C119.224 141.374 119.918 141.086 120.429 140.575C120.941 140.063 121.229 139.369 121.23 138.646V2.93059C121.229 2.20695 120.941 1.51333 120.429 1.00164C119.918 0.489956 119.224 0.201908 118.5 0.200586H21.9555Z" fill="#EBEBEB"/>
<path d="M226.655 141.501H130.105C129.348 141.499 128.623 141.198 128.088 140.663C127.553 140.128 127.251 139.402 127.25 138.646V2.93059C127.258 2.17814 127.562 1.45912 128.096 0.929382C128.631 0.39964 129.353 0.10186 130.105 0.100586H226.655C227.406 0.103188 228.126 0.40171 228.659 0.93145C229.191 1.46119 229.493 2.17946 229.5 2.93059V138.646C229.5 139.401 229.201 140.126 228.667 140.661C228.134 141.196 227.41 141.498 226.655 141.501ZM130.105 0.200586C129.381 0.201908 128.688 0.489956 128.176 1.00164C127.664 1.51333 127.376 2.20695 127.375 2.93059V138.646C127.376 139.369 127.664 140.063 128.176 140.575C128.688 141.086 129.381 141.374 130.105 141.376H226.655C227.379 141.374 228.072 141.086 228.584 140.575C229.096 140.063 229.384 139.369 229.385 138.646V2.93059C229.384 2.20695 229.096 1.51333 228.584 1.00164C228.072 0.489956 227.379 0.201908 226.655 0.200586H130.105Z" fill="#EBEBEB"/>
<path d="M97.9806 120.436H64.7806L62.7656 97.1855H95.9656L97.9806 120.436Z" fill="#E6E6E6"/>
<path d="M99.6994 120.436H66.4994L64.4844 97.1855H97.6844L99.6994 120.436Z" fill="#F0F0F0"/>
<path d="M71.0397 115.441L69.9297 102.176H93.1447L94.2547 115.441H71.0397Z" fill="white"/>
<path d="M105.446 120.436H101.551V163.801H105.446V120.436Z" fill="#E6E6E6"/>
<path d="M106.676 120.436H103.971V163.801H106.676V120.436Z" fill="#F0F0F0"/>
<path d="M68.9708 125.221H106.676V120.436H68.9708V125.221Z" fill="#F0F0F0"/>
<path d="M70.2993 125.221H66.4043V163.801H70.2993V125.221Z" fill="#E6E6E6"/>
<path d="M71.5292 125.221H68.8242V163.801H71.5292V125.221Z" fill="#F0F0F0"/>
<path d="M42.5747 125.221H38.6797V163.801H42.5747V125.221Z" fill="#E6E6E6"/>
<path d="M43.8046 125.221H41.0996V163.801H43.8046V125.221Z" fill="#F0F0F0"/>
<path d="M80.7954 125.221H76.9004V163.801H80.7954V125.221Z" fill="#E6E6E6"/>
<path d="M82.0194 125.221H79.3145V163.801H82.0194V125.221Z" fill="#F0F0F0"/>
<path d="M68.9697 120.436H38.6797V125.221H68.9697V120.436Z" fill="#E6E6E6"/>
<path d="M181.921 12.3057H64.7559V77.5357H181.921V12.3057Z" fill="#E0E0E0"/>
<path d="M188.356 12.3057H65.3457V77.5357H188.356V12.3057Z" fill="#F5F5F5"/>
<path d="M186.346 75.5254V14.3154L67.3557 14.3154V75.5254H186.346Z" fill="white"/>
<path d="M115.536 75.5254L138.001 14.3154H100.926L78.4609 75.5254H115.536Z" fill="#F5F5F5"/>
<path d="M151.22 75.5254L173.685 14.3154H145.715L123.25 75.5254H151.22Z" fill="#F5F5F5"/>
<path d="M219.056 101.501H209.096V163.801H219.056V101.501Z" fill="#E6E6E6"/>
<path d="M216.434 163.801H219.054V159.006H213.689L216.434 163.801Z" fill="#FAFAFA"/>
<path d="M127.226 101.501H117.266V163.801H127.226V101.501Z" fill="#E6E6E6"/>
<path d="M219.054 101.501H124.939V162.506H219.054V101.501Z" fill="#FAFAFA"/>
<path d="M217.275 121.185H126.725V103.955H217.275V121.185ZM127.225 120.685H216.775V104.455H127.225V120.685Z" fill="#E6E6E6"/>
<path d="M201.335 112.32H144.42C141.78 112.32 139.235 110.19 137.42 106.47L137.25 106.115H208.5L208.33 106.47C206.5 110.19 204 112.32 201.335 112.32ZM138.07 106.6C139.76 109.915 142.07 111.805 144.42 111.805H201.335C203.695 111.805 205.995 109.915 207.685 106.6H138.07Z" fill="#E6E6E6"/>
<path d="M127.559 163.801H124.939V159.006H130.304L127.559 163.801Z" fill="#FAFAFA"/>
<path d="M217.275 140.601H126.725V123.391H217.275V140.601ZM127.225 140.101H216.775V123.891H127.225V140.101Z" fill="#E6E6E6"/>
<path d="M201.335 131.756H144.42C141.78 131.756 139.235 129.621 137.42 125.906L137.25 125.546H208.5L208.33 125.906C206.5 129.601 204 131.756 201.335 131.756ZM138.07 126.046C139.76 129.361 142.07 131.256 144.42 131.256H201.335C203.695 131.256 205.995 129.361 207.685 126.046H138.07Z" fill="#E6E6E6"/>
<path d="M217.275 160.05H126.725V142.82H217.275V160.05ZM127.225 159.55H216.775V143.32H127.225V159.55Z" fill="#E6E6E6"/>
<path d="M201.335 151.185H144.42C141.78 151.185 139.235 149.055 137.42 145.34L137.25 144.98H208.5L208.33 145.34C206.5 149.055 204 151.185 201.335 151.185ZM138.07 145.48C139.76 148.795 142.07 150.685 144.42 150.685H201.335C203.695 150.685 205.995 148.795 207.685 145.48H138.07Z" fill="#E6E6E6"/>
<path d="M60.49 109.74V110.95H59.72L59.08 120.435H49.66L49.025 110.95H48.25V109.74H60.49Z" fill="#E6E6E6"/>
<path d="M57.3891 86.2052C56.6191 80.5552 48.9941 78.9452 39.3191 78.7352C30.1141 78.5402 27.1641 75.2852 27.1641 75.2852C27.1641 75.2852 27.1941 88.4702 40.4591 93.2502C53.0541 97.7802 58.1641 91.8652 57.3891 86.2052Z" fill="#E6E6E6"/>
<path d="M52.69 99.0109C52.85 96.6909 56.56 92.4209 65.485 94.3609C71.935 95.7659 74.335 92.4209 74.335 92.4209C74.335 92.4209 73.735 101.861 64.035 104.696C54.82 107.391 52.405 103.101 52.69 99.0109Z" fill="#E6E6E6"/>
<path d="M54.725 113.301C54.7753 113.302 54.825 113.291 54.8708 113.27C54.9166 113.25 54.9572 113.219 54.99 113.181C55.635 112.416 55.105 110.586 54.375 108.051C53.435 104.801 52.265 100.751 53.255 97.8161C53.8038 96.2658 54.4449 94.7498 55.175 93.2762C56.575 90.3162 57.785 87.7762 56.775 85.0862C56.7593 85.0434 56.7352 85.0041 56.7042 84.9707C56.6731 84.9373 56.6358 84.9103 56.5943 84.8914C56.5528 84.8725 56.508 84.862 56.4624 84.8605C56.4168 84.8591 56.3714 84.8666 56.3288 84.8828C56.2861 84.899 56.2471 84.9235 56.214 84.9549C56.1809 84.9862 56.1543 85.0238 56.1359 85.0655C56.1174 85.1072 56.1073 85.1522 56.1063 85.1978C56.1053 85.2434 56.1134 85.2887 56.13 85.3312C57.035 87.7262 55.94 90.0462 54.55 92.9862C53.8106 94.4835 53.1595 96.0228 52.6 97.5962C51.545 100.736 52.745 104.901 53.71 108.241C54.28 110.241 54.87 112.241 54.465 112.741C54.4329 112.776 54.4083 112.817 54.3927 112.861C54.3772 112.906 54.3712 112.953 54.3749 113C54.3787 113.047 54.3922 113.093 54.4146 113.134C54.437 113.176 54.4678 113.212 54.505 113.241C54.5689 113.287 54.6469 113.308 54.725 113.301Z" fill="#E6E6E6"/>
<path d="M125 186.381C178.541 186.381 221.945 183.846 221.945 180.721C221.945 177.595 178.541 175.061 125 175.061C71.4584 175.061 28.0547 177.595 28.0547 180.721C28.0547 183.846 71.4584 186.381 125 186.381Z" fill="#F5F5F5"/>
<path d="M124.981 153.125H53.9807L50.0957 38.9404H121.096L124.981 153.125Z" fill="#0090DF"/>
<path d="M128.527 149.58H57.5267L53.6367 35.3955H124.637L128.527 149.58Z" fill="#0090DF"/>
<path opacity="0.3" d="M128.527 149.58H57.5267L53.6367 35.3955H124.637L128.527 149.58Z" fill="white"/>
<path d="M104.737 82.3831C112.339 74.6498 112.016 62.0047 104.015 54.1393C96.0138 46.2739 83.3649 46.1668 75.7628 53.9001C68.1608 61.6333 68.4842 74.2785 76.4852 82.1438C84.4863 90.0092 97.1351 90.1163 104.737 82.3831Z" fill="#0090DF"/>
<path d="M106.736 68.1449C106.838 70.8658 106.244 73.5677 105.011 75.9949C103.679 78.6107 101.645 80.8038 99.1371 82.3282C96.6289 83.8525 93.7455 84.6479 90.8105 84.6249C87.8065 84.6087 84.8596 83.8028 82.2655 82.2881C79.6713 80.7734 77.5211 78.6031 76.0305 75.9949C74.6407 73.605 73.8642 70.9081 73.7705 68.1449C73.6783 66.0025 74.0226 63.8636 74.7825 61.8584C75.5424 59.8531 76.7021 58.0232 78.1911 56.48C79.6801 54.9368 81.4673 53.7124 83.4441 52.8812C85.4209 52.05 87.5461 51.6294 89.6905 51.6449C94.1081 51.6762 98.3439 53.408 101.518 56.4807C104.692 59.5533 106.561 63.7307 106.736 68.1449Z" fill="white"/>
<path opacity="0.6" d="M105.001 75.9958C103.67 78.6116 101.636 80.8047 99.1281 82.329C96.6198 83.8534 93.7365 84.6487 90.8015 84.6258C87.7975 84.6096 84.8506 83.8037 82.2565 82.2889C79.6623 80.7742 77.5121 78.6039 76.0215 75.9958C80.2501 73.1128 85.2537 71.5804 90.3715 71.6008C95.5718 71.612 100.656 73.1394 105.001 75.9958Z" fill="#0090DF"/>
<path opacity="0.6" d="M95.3875 67.7348C98.1828 64.8912 98.0639 60.2415 95.1219 57.3493C92.1798 54.4571 87.5287 54.4178 84.7333 57.2614C81.938 60.105 82.0569 64.7547 84.9989 67.6469C87.941 70.539 92.5921 70.5784 95.3875 67.7348Z" fill="#0090DF"/>
<path d="M114.261 108.23H68.971L68.666 99.2305H113.956L114.261 108.23Z" fill="white"/>
<path d="M114.811 124.315H69.5159L69.2109 115.315H114.506L114.811 124.315Z" fill="white"/>
<path d="M97.3311 116.555L86.4161 118.055C86.312 118.067 86.2114 118.101 86.1208 118.153C86.0301 118.206 85.9513 118.277 85.8893 118.361C85.8273 118.446 85.7835 118.542 85.7606 118.644C85.7377 118.747 85.7361 118.853 85.7561 118.955L87.1911 126.27C87.2381 126.485 87.3637 126.674 87.5432 126.801C87.7227 126.928 87.9431 126.983 88.1611 126.955L99.0761 125.455C99.18 125.442 99.2801 125.408 99.3702 125.355C99.4603 125.301 99.5385 125.23 99.5999 125.145C99.6613 125.06 99.7047 124.964 99.7272 124.861C99.7498 124.759 99.7511 124.653 99.7311 124.55L98.3011 117.235C98.2541 117.021 98.1284 116.832 97.9487 116.706C97.769 116.58 97.5486 116.527 97.3311 116.555ZM94.1961 123.965L92.1961 124.23L92.0011 121.87C91.7951 121.781 91.6134 121.644 91.4716 121.47C91.3297 121.296 91.2318 121.09 91.1861 120.87C91.1494 120.7 91.1488 120.524 91.1844 120.354C91.22 120.183 91.291 120.022 91.3928 119.88C91.4946 119.739 91.6249 119.621 91.7753 119.533C91.9258 119.445 92.093 119.39 92.2661 119.37C92.6213 119.325 92.9806 119.414 93.2732 119.62C93.5657 119.827 93.7702 120.136 93.8461 120.485C93.8895 120.697 93.8762 120.916 93.8077 121.12C93.7392 121.325 93.618 121.508 93.4561 121.65L94.1961 123.965Z" fill="#0090DF"/>
<path d="M96.2501 116.16C96.0571 116.185 95.8619 116.136 95.7028 116.024C95.5437 115.913 95.4321 115.745 95.3901 115.555L95.2501 114.84C95.0502 113.865 94.5033 112.994 93.7108 112.391C92.9182 111.788 91.9338 111.493 90.9401 111.56C90.4386 111.589 89.9492 111.725 89.505 111.96C89.0609 112.194 88.6724 112.521 88.366 112.919C88.0596 113.317 87.8424 113.777 87.7292 114.266C87.616 114.755 87.6095 115.263 87.7101 115.755L87.8701 116.58C87.8887 116.672 87.888 116.766 87.8681 116.857C87.8482 116.948 87.8095 117.034 87.7544 117.11C87.6993 117.185 87.6291 117.248 87.5483 117.294C87.4675 117.341 87.3778 117.37 87.2851 117.38C87.0917 117.407 86.8954 117.36 86.7357 117.247C86.5761 117.135 86.465 116.966 86.4251 116.775L86.2901 116.08C86.1528 115.431 86.1482 114.76 86.2767 114.109C86.4051 113.457 86.664 112.839 87.0376 112.29C87.4112 111.741 87.8919 111.274 88.4509 110.915C89.0098 110.557 89.6354 110.316 90.2901 110.205C91.7095 109.967 93.1663 110.284 94.358 111.091C95.5497 111.899 96.3848 113.134 96.6901 114.54L96.8501 115.36C96.8687 115.453 96.8676 115.548 96.8468 115.64C96.826 115.732 96.7859 115.819 96.7293 115.895C96.6726 115.97 96.6006 116.033 96.5181 116.079C96.4355 116.124 96.3441 116.152 96.2501 116.16Z" fill="#0090DF"/>
<path d="M107.336 136.921H77.8512L77.6562 131.061H107.136L107.336 136.921Z" fill="#0090DF"/>
<path d="M93.1108 103.731C93.1196 103.945 93.0849 104.158 93.0088 104.358C92.9327 104.558 92.8169 104.74 92.6682 104.894C92.5195 105.048 92.3412 105.17 92.1439 105.253C91.9467 105.336 91.7347 105.378 91.5208 105.376C91.0799 105.373 90.6572 105.2 90.3399 104.894C90.0226 104.588 89.835 104.171 89.8158 103.731C89.807 103.517 89.8417 103.304 89.9178 103.104C89.9938 102.904 90.1097 102.722 90.2584 102.568C90.4071 102.414 90.5854 102.292 90.7827 102.209C90.9799 102.126 91.1919 102.084 91.4058 102.086C91.847 102.088 92.2704 102.26 92.588 102.567C92.9055 102.873 93.0928 103.29 93.1108 103.731Z" fill="#263238"/>
<path d="M86.0003 103.731C86.0099 103.945 85.9757 104.159 85.8998 104.359C85.824 104.559 85.7082 104.742 85.5593 104.896C85.4105 105.05 85.2319 105.172 85.0343 105.254C84.8368 105.337 84.6244 105.378 84.4103 105.376C83.97 105.372 83.5478 105.2 83.2313 104.893C82.9148 104.587 82.7283 104.171 82.7103 103.731C82.7015 103.517 82.7362 103.304 82.8123 103.104C82.8884 102.904 83.0043 102.722 83.1529 102.568C83.3016 102.414 83.48 102.292 83.6772 102.209C83.8744 102.126 84.0864 102.084 84.3003 102.086C84.7411 102.088 85.1639 102.261 85.4807 102.567C85.7974 102.874 85.9836 103.291 86.0003 103.731Z" fill="#263238"/>
<path d="M78.9359 103.731C78.9447 103.945 78.91 104.158 78.8339 104.358C78.7578 104.558 78.6419 104.74 78.4933 104.894C78.3446 105.048 78.1662 105.17 77.969 105.253C77.7718 105.336 77.5598 105.378 77.3459 105.376C76.9051 105.374 76.4823 105.201 76.1655 104.895C75.8488 104.588 75.6626 104.171 75.6459 103.731C75.6371 103.517 75.6718 103.304 75.7478 103.104C75.8239 102.904 75.9398 102.722 76.0885 102.568C76.2371 102.414 76.4155 102.292 76.6127 102.209C76.81 102.126 77.022 102.084 77.2359 102.086C77.6766 102.088 78.0995 102.261 78.4162 102.567C78.733 102.874 78.9191 103.291 78.9359 103.731Z" fill="#263238"/>
<path d="M100.195 103.731C100.204 103.944 100.169 104.158 100.093 104.358C100.017 104.558 99.9013 104.74 99.7527 104.894C99.604 105.048 99.4256 105.17 99.2284 105.253C99.0312 105.335 98.8192 105.377 98.6053 105.376C98.1645 105.373 97.7417 105.201 97.4249 104.895C97.1082 104.588 96.922 104.171 96.9053 103.731C96.8978 103.518 96.9337 103.305 97.0107 103.106C97.0878 102.908 97.2044 102.726 97.3536 102.574C97.5027 102.422 97.6813 102.301 97.8784 102.22C98.0755 102.138 98.287 102.098 98.5003 102.101C98.9377 102.104 99.3571 102.275 99.6724 102.578C99.9877 102.881 100.175 103.294 100.195 103.731Z" fill="#263238"/>
<path d="M107.282 103.731C107.291 103.945 107.257 104.159 107.181 104.359C107.105 104.559 106.989 104.742 106.841 104.896C106.692 105.05 106.513 105.172 106.316 105.254C106.118 105.337 105.906 105.378 105.692 105.376C105.251 105.372 104.829 105.2 104.513 104.893C104.196 104.587 104.01 104.171 103.992 103.731C103.983 103.517 104.017 103.304 104.094 103.104C104.17 102.904 104.286 102.722 104.434 102.568C104.583 102.414 104.761 102.292 104.958 102.209C105.156 102.126 105.368 102.084 105.582 102.086C106.022 102.088 106.445 102.261 106.762 102.567C107.079 102.874 107.265 103.291 107.282 103.731Z" fill="#263238"/>
<path d="M166.956 59.7402C167.621 60.8102 168.176 61.8302 168.746 62.8952C169.316 63.9602 169.831 65.0302 170.336 66.1252C171.366 68.3425 172.219 70.638 172.886 72.9902C172.976 73.2852 173.041 73.6002 173.116 73.9052L173.226 74.3702L173.281 74.6002L173.346 74.9802C173.458 75.8423 173.406 76.7179 173.191 77.5602C172.845 78.8681 172.32 80.1217 171.631 81.2852C170.397 83.3997 168.905 85.3529 167.191 87.1002L165.086 85.5102C166.142 83.5679 167.082 81.5643 167.901 79.5102C168.265 78.6052 168.522 77.6603 168.666 76.6952C168.712 76.4005 168.698 76.0996 168.626 75.8102L168.426 75.2002C168.346 74.9502 168.271 74.7002 168.176 74.4452C167.415 72.3825 166.535 70.3658 165.541 68.4052C164.541 66.4052 163.466 64.4052 162.391 62.4952L166.956 59.7402Z" fill="#FF8B7B"/>
<path d="M165.62 84.8145L163.32 86.0295L165.96 89.1195C165.96 89.1195 167.61 88.0045 167.685 86.3045L165.62 84.8145Z" fill="#FF8B7B"/>
<path d="M160.234 87.9353L163.059 90.1803L165.959 89.1203L163.319 86.0303L160.234 87.9353Z" fill="#FF8B7B"/>
<path d="M150.575 43.3796C150.52 43.6596 150.325 43.8546 150.145 43.8196C149.965 43.7846 149.86 43.5246 149.915 43.2496C149.97 42.9746 150.165 42.7496 150.35 42.8096C150.535 42.8696 150.63 43.0996 150.575 43.3796Z" fill="#263238"/>
<path d="M150.349 43.8594C149.846 44.6425 149.236 45.3526 148.539 45.9694C148.704 46.1401 148.903 46.2731 149.124 46.3594C149.345 46.4457 149.582 46.4832 149.819 46.4694L150.349 43.8594Z" fill="#FF5652"/>
<path d="M149.449 53.6696V50.3896L153.789 50.8896C153.789 50.8896 153.719 53.7097 151.289 54.5396L149.449 53.6696Z" fill="#FF8B7B"/>
<path d="M150.699 48.0293L153.754 48.9093L153.809 50.9143L149.469 50.3893L150.699 48.0293Z" fill="#FF8B7B"/>
<path opacity="0.2" d="M153.755 48.9093L150.7 48.0293L150.105 49.1693C150.138 50.0676 150.419 50.9393 150.916 51.6877C151.414 52.4362 152.11 53.032 152.925 53.4093C153.45 52.6761 153.757 51.8094 153.81 50.9093L153.755 48.9093Z" fill="black"/>
<path d="M151.905 42.0446C151.937 42.0437 151.968 42.0338 151.995 42.016C152.021 41.9982 152.043 41.9732 152.056 41.9439C152.069 41.9147 152.073 41.8823 152.069 41.8505C152.064 41.8188 152.051 41.789 152.03 41.7646C151.854 41.5662 151.634 41.4128 151.387 41.3171C151.14 41.2215 150.873 41.1863 150.61 41.2146C150.567 41.2219 150.528 41.246 150.503 41.2817C150.478 41.3173 150.468 41.3615 150.475 41.4046C150.482 41.448 150.506 41.4868 150.542 41.5129C150.577 41.539 150.621 41.5504 150.665 41.5446C150.874 41.5241 151.084 41.5538 151.279 41.6312C151.474 41.7086 151.647 41.8315 151.785 41.9896C151.8 42.0063 151.819 42.0197 151.839 42.0292C151.86 42.0386 151.882 42.0439 151.905 42.0446Z" fill="#263238"/>
<path d="M158.294 48.4395C157.794 51.0145 157.484 54.5795 159.294 56.2945C159.294 56.2945 158.594 58.9045 153.794 58.9045C148.539 58.9045 151.269 56.6145 151.269 56.6145C153.454 55.9345 153.434 53.4495 152.934 51.4495L158.294 48.4395Z" fill="#FF8B7B"/>
<path d="M160.27 58.0147C160.74 57.3547 160.72 55.2597 160.22 54.8897C159.415 54.2947 155.96 54.1547 151.315 55.2247C151.815 57.2547 150.74 58.3147 150.74 58.3147L160.27 58.0147Z" fill="#0090DF"/>
<path d="M175.901 176.719C175.758 176.77 175.607 176.791 175.456 176.783C175.304 176.774 175.157 176.736 175.021 176.669C174.969 176.621 174.934 176.559 174.919 176.49C174.905 176.421 174.912 176.349 174.941 176.284C174.956 176.23 174.984 176.18 175.021 176.138C175.058 176.096 175.104 176.062 175.156 176.039C175.631 175.809 176.721 176.254 176.771 176.274C176.785 176.28 176.798 176.291 176.807 176.304C176.816 176.318 176.821 176.333 176.821 176.349C176.82 176.366 176.816 176.381 176.808 176.395C176.8 176.409 176.789 176.421 176.776 176.429C176.494 176.553 176.201 176.65 175.901 176.719ZM175.326 176.154C175.293 176.162 175.261 176.174 175.231 176.189C175.199 176.201 175.171 176.219 175.149 176.244C175.126 176.268 175.11 176.297 175.101 176.329C175.056 176.479 175.101 176.529 175.131 176.544C175.321 176.704 176.021 176.544 176.516 176.359C176.139 176.204 175.732 176.134 175.326 176.154Z" fill="#0090DF"/>
<path d="M176.755 176.435H176.715C176.315 176.32 175.465 175.715 175.455 175.32C175.455 175.257 175.476 175.196 175.515 175.147C175.554 175.098 175.609 175.063 175.67 175.05C175.729 175.028 175.793 175.019 175.856 175.024C175.919 175.029 175.98 175.048 176.035 175.08C176.505 175.32 176.805 176.29 176.815 176.335C176.822 176.347 176.826 176.361 176.826 176.375C176.826 176.389 176.822 176.403 176.815 176.415C176.807 176.423 176.798 176.428 176.787 176.432C176.777 176.435 176.766 176.436 176.755 176.435ZM175.755 175.19H175.715C175.615 175.225 175.615 175.275 175.615 175.3C175.615 175.535 176.185 176.01 176.615 176.2C176.51 175.92 176.28 175.365 175.975 175.2C175.907 175.169 175.83 175.165 175.76 175.19H175.755Z" fill="#0090DF"/>
<path d="M149.93 177.31C149.48 177.31 149.045 177.245 148.9 177.045C148.862 176.991 148.842 176.928 148.842 176.862C148.842 176.797 148.862 176.733 148.9 176.68C148.929 176.631 148.967 176.588 149.012 176.555C149.058 176.521 149.11 176.497 149.165 176.485C149.75 176.325 150.98 177.025 151.03 177.055C151.045 177.062 151.058 177.075 151.065 177.09C151.072 177.106 151.074 177.123 151.07 177.14C151.068 177.157 151.061 177.173 151.049 177.185C151.037 177.198 151.022 177.207 151.005 177.21C150.65 177.275 150.291 177.308 149.93 177.31ZM149.375 176.625C149.322 176.616 149.268 176.616 149.215 176.625C149.181 176.632 149.149 176.645 149.121 176.665C149.092 176.685 149.068 176.71 149.05 176.74C148.99 176.845 149.015 176.895 149.05 176.925C149.215 177.155 150.1 177.16 150.755 177.065C150.327 176.831 149.859 176.682 149.375 176.625Z" fill="#0090DF"/>
<path d="M151 177.21H150.965C150.54 177.02 149.7 176.26 149.765 175.86C149.765 175.765 149.845 175.65 150.075 175.63C150.157 175.62 150.241 175.628 150.32 175.652C150.399 175.676 150.472 175.716 150.535 175.77C150.856 176.153 151.048 176.627 151.085 177.125C151.085 177.139 151.082 177.153 151.076 177.166C151.07 177.179 151.061 177.191 151.05 177.2C151.035 177.208 151.018 177.211 151 177.21ZM150.14 175.785H150.09C149.94 175.785 149.93 175.855 149.93 175.875C149.89 176.115 150.46 176.715 150.895 176.975C150.857 176.574 150.695 176.194 150.43 175.89C150.348 175.82 150.243 175.783 150.135 175.785H150.14Z" fill="#0090DF"/>
<path d="M154.859 177.129H151.344L150.994 168.984H154.509L154.859 177.129Z" fill="#FF8B7B"/>
<path d="M180.675 175.5L177.24 176.245L173.785 168.66L177.225 167.915L180.675 175.5Z" fill="#FF8B7B"/>
<path d="M176.904 175.9L180.769 175.065C180.837 175.051 180.907 175.06 180.969 175.091C181.031 175.122 181.08 175.173 181.109 175.235L182.449 178.145C182.485 178.216 182.503 178.294 182.503 178.373C182.503 178.452 182.484 178.529 182.448 178.6C182.412 178.67 182.36 178.731 182.295 178.777C182.231 178.823 182.157 178.853 182.079 178.865C180.729 179.13 180.054 179.195 178.359 179.56C177.314 179.79 174.954 180.365 173.509 180.675C172.064 180.985 171.569 179.6 172.134 179.345C174.659 178.19 175.709 177.175 176.394 176.23C176.518 176.062 176.7 175.944 176.904 175.9Z" fill="#263238"/>
<path d="M151.37 176.72H155.21C155.28 176.72 155.347 176.744 155.402 176.788C155.456 176.831 155.494 176.892 155.51 176.96L156.205 180.085C156.225 180.16 156.228 180.24 156.212 180.316C156.196 180.393 156.162 180.465 156.114 180.526C156.065 180.587 156.003 180.636 155.932 180.669C155.861 180.702 155.783 180.717 155.705 180.715C154.32 180.69 152.32 180.61 150.58 180.61C148.54 180.61 146.785 180.72 144.395 180.72C142.95 180.72 142.55 179.26 143.155 179.125C145.905 178.525 148.155 178.46 150.53 176.995C150.779 176.828 151.07 176.733 151.37 176.72Z" fill="#263238"/>
<path d="M165.585 57.0994C168.88 57.8544 171.585 66.2694 171.585 66.2694L165 71.3044C163.291 69.4769 162.085 67.2373 161.5 64.8044C160.335 60.3944 162.215 56.3194 165.585 57.0994Z" fill="#0090DF"/>
<path opacity="0.4" d="M165.585 57.0994C168.88 57.8544 171.585 66.2694 171.585 66.2694L165 71.3044C163.291 69.4769 162.085 67.2373 161.5 64.8044C160.335 60.3944 162.215 56.3194 165.585 57.0994Z" fill="black"/>
<path d="M148.25 67.1348C147.43 68.0198 146.61 68.8098 145.75 69.6348C145.325 70.0348 144.895 70.4348 144.455 70.8198L143.79 71.4048L143.625 71.5498L143.34 71.7798C143.046 72.0142 142.722 72.206 142.375 72.3498C141.989 72.5136 141.574 72.5986 141.155 72.5998C140.797 72.6013 140.441 72.5387 140.105 72.4148C139.732 72.2728 139.392 72.0568 139.105 71.7798C138.739 71.4218 138.47 70.976 138.325 70.4848C138.249 70.2427 138.2 69.9928 138.18 69.7398C138.154 69.4437 138.154 69.1459 138.18 68.8498C138.205 68.6098 138.235 68.3998 138.275 68.2048C138.412 67.523 138.606 66.854 138.855 66.2048C139.08 65.5877 139.338 64.9835 139.63 64.3948C139.95 63.7598 140.255 63.2948 140.56 62.7648C141.799 60.7354 143.212 58.8181 144.785 57.0348C146.341 55.262 148.057 53.6352 149.91 52.1748L151.75 54.0698C150.46 55.7998 149.19 57.6548 148.015 59.4798C146.845 61.2945 145.777 63.1723 144.815 65.1048C144.6 65.5748 144.315 66.1048 144.18 66.4848C144.001 66.9262 143.846 67.3769 143.715 67.8348C143.589 68.2472 143.494 68.6683 143.43 69.0948C143.426 69.1614 143.426 69.2282 143.43 69.2948C143.43 69.3348 143.43 69.3548 143.43 69.2498C143.422 69.1376 143.4 69.0268 143.365 68.9198C143.257 68.5653 143.059 68.2449 142.79 67.9898C142.551 67.7701 142.27 67.6002 141.965 67.4898C141.696 67.3881 141.412 67.3356 141.125 67.3348C140.849 67.3315 140.575 67.3842 140.32 67.4898C140.233 67.5251 140.15 67.5669 140.07 67.6148L140.26 67.4398L140.865 66.8898L142.06 65.7698C142.85 65.0248 143.645 64.2298 144.395 63.4898L148.25 67.1348Z" fill="#FF8B7B"/>
<path opacity="0.2" d="M162.761 63.2803C164.551 65.0503 165.136 68.2803 165.261 71.0803L164.971 71.3053C163.262 69.4778 162.056 67.2382 161.471 64.8053C161.406 64.5453 161.346 64.3053 161.301 64.0203L162.761 63.2803Z" fill="black"/>
<path d="M144.754 60.5996C144.034 64.3996 143.584 72.2046 145.669 87.6546H164.499C164.629 84.7696 162.814 70.6796 165.599 57.0746C163.518 56.6751 161.414 56.4095 159.299 56.2796C156.635 56.1268 153.964 56.1268 151.299 56.2796C150.419 56.3596 149.549 56.4896 148.799 56.6246C147.802 56.7996 146.881 57.2734 146.159 57.9832C145.436 58.693 144.946 59.6054 144.754 60.5996Z" fill="#0090DF"/>
<path opacity="0.4" d="M144.754 60.5996C144.034 64.3996 143.584 72.2046 145.669 87.6546H164.499C164.629 84.7696 162.814 70.6796 165.599 57.0746C163.518 56.6751 161.414 56.4095 159.299 56.2796C156.635 56.1268 153.964 56.1268 151.299 56.2796C150.419 56.3596 149.549 56.4896 148.799 56.6246C147.802 56.7996 146.881 57.2734 146.159 57.9832C145.436 58.693 144.946 59.6054 144.754 60.5996Z" fill="black"/>
<path opacity="0.2" d="M147.635 66.2349L144.235 65.4199C144.13 67.4799 144.12 70.0299 144.27 73.1849C145.835 71.4049 147.835 68.6249 147.635 66.2349Z" fill="black"/>
<path opacity="0.2" d="M150.994 168.984L151.174 173.184H154.694L154.514 168.984H150.994Z" fill="black"/>
<path opacity="0.2" d="M177.225 167.915L173.785 168.66L175.565 172.57L179.005 171.825L177.225 167.915Z" fill="black"/>
<path d="M159.965 44.6801C159.065 48.0501 158.705 50.0701 156.625 51.4701C153.5 53.6001 149.6 51.1601 149.5 47.6001C149.39 44.3851 150.885 39.4101 154.5 38.7301C155.294 38.581 156.113 38.6367 156.88 38.8918C157.647 39.147 158.337 39.5932 158.883 40.1885C159.43 40.7838 159.816 41.5085 160.006 42.2943C160.195 43.0802 160.181 43.9012 159.965 44.6801Z" fill="#FF8B7B"/>
<path d="M152.076 44.8046C151.906 44.3546 151.131 40.8695 151.861 39.9645C152.591 39.0595 160.916 39.7145 162.146 40.9245C164.191 42.9245 162.771 44.7246 160.536 47.0396C158.856 48.7796 158.791 50.7396 157.941 51.0396C156.441 51.5396 154.151 51.0696 153.691 49.4846C153.231 47.8996 152.076 44.8046 152.076 44.8046Z" fill="#263238"/>
<path d="M161.135 36.96C158.195 35.71 152.68 37.095 149.7 36.375C149.662 37.4831 150.026 38.5675 150.726 39.4277C151.425 40.288 152.412 40.866 153.505 41.055C155.977 41.5261 158.488 41.7588 161.005 41.75C164.275 41.6 163.635 38.025 161.135 36.96Z" fill="#263238"/>
<path d="M161.594 41.0296C162.668 41.1352 163.749 40.9286 164.709 40.4346C165.259 41.7646 162.234 42.1296 161.594 41.0296Z" fill="#263238"/>
<path d="M153.674 44.9448C153.607 45.8119 153.255 46.6326 152.674 47.2798C151.904 48.1248 151.104 47.5948 150.969 46.5698C150.849 45.6398 151.099 44.0698 152.039 43.6198C152.979 43.1698 153.739 43.8998 153.674 44.9448Z" fill="#FF8B7B"/>
<path d="M152.344 87.6702C152.344 87.6702 156.344 114.545 158.529 124.615C160.924 135.64 173.794 172.115 173.794 172.115L180.089 170.75C180.089 170.75 171.089 141.02 169.089 125.605C167.539 113.765 164.494 87.6602 164.494 87.6602L152.344 87.6702Z" fill="#0090DF"/>
<path d="M172.286 170.02C172.261 170.02 173.461 172.3 173.461 172.3L180.541 170.765L179.946 168.635L172.286 170.02Z" fill="#263238"/>
<path opacity="0.3" d="M154.87 97.2448C159.485 98.1498 158.995 115.36 158.44 124.215C157.11 117.955 155.16 105.915 153.83 97.3698C154.152 97.2107 154.519 97.1666 154.87 97.2448Z" fill="black"/>
<path d="M145.669 87.6704C145.669 87.6704 145.169 113.965 145.569 124.67C145.969 135.825 149.864 172.35 149.864 172.35H155.824C155.824 172.35 156.039 136.475 156.324 125.52C156.614 113.58 158.054 87.6504 158.054 87.6504L145.669 87.6704Z" fill="#0090DF"/>
<path d="M148.721 170C148.691 170 149.055 172.47 149.055 172.47H156.301L156.501 170.265L148.721 170Z" fill="#263238"/>
<path d="M152.125 61.77C153.81 66.315 143.905 71.67 143.905 71.67L139.615 66.17C139.615 66.17 142.5 60.46 146 57.89C150.325 54.72 150.84 58.31 152.125 61.77Z" fill="#0090DF"/>
<path opacity="0.4" d="M152.125 61.77C153.81 66.315 143.905 71.67 143.905 71.67L139.615 66.17C139.615 66.17 142.5 60.46 146 57.89C150.325 54.72 150.84 58.31 152.125 61.77Z" fill="black"/>
<path d="M190.934 27.2656C200.9 27.2656 208.979 22.1169 208.979 15.7656C208.979 9.41435 200.9 4.26562 190.934 4.26562C180.968 4.26562 172.889 9.41435 172.889 15.7656C172.889 22.1169 180.968 27.2656 190.934 27.2656Z" fill="#0090DF"/>
<path d="M184.423 21.5556C183.234 21.5518 182.085 21.1291 181.177 20.3619C180.269 19.5947 179.66 18.532 179.458 17.3606C179.259 16.0918 179.545 14.7945 180.26 13.7272C180.974 12.6598 182.064 11.9006 183.313 11.6006C184.338 11.3645 185.411 11.4555 186.381 11.8609C187.352 12.2663 188.171 12.9656 188.723 13.8606L200.308 11.4706C200.753 11.3731 201.219 11.4472 201.612 11.678C202.005 11.9087 202.296 12.2793 202.428 12.7156C202.489 12.945 202.502 13.1844 202.467 13.419C202.432 13.6537 202.349 13.8788 202.224 14.0805C202.1 14.2822 201.935 14.4563 201.74 14.5921C201.546 14.728 201.326 14.8228 201.093 14.8706L200.793 14.9306C200.749 14.9386 200.706 14.9568 200.67 14.9836C200.634 15.0105 200.604 15.0454 200.583 15.0856C200.565 15.1265 200.555 15.1708 200.555 15.2156C200.555 15.2605 200.565 15.3048 200.583 15.3456L200.788 15.8756C200.857 16.0474 200.863 16.2378 200.807 16.4139C200.75 16.5901 200.634 16.741 200.478 16.8406C200.355 16.9166 200.251 17.0195 200.174 17.1417C200.097 17.2639 200.049 17.402 200.033 17.5456C200.018 17.7105 199.952 17.8664 199.843 17.9912C199.735 18.116 199.589 18.2033 199.428 18.2406L199.193 18.2906C199.03 18.3207 198.862 18.2982 198.713 18.2263C198.564 18.1544 198.441 18.0368 198.363 17.8906C198.259 17.7162 198.104 17.5786 197.918 17.4968C197.732 17.4151 197.526 17.3933 197.327 17.4346C197.128 17.4759 196.947 17.5781 196.81 17.7271C196.672 17.8761 196.584 18.0643 196.558 18.2656C196.544 18.4294 196.479 18.5845 196.371 18.7085C196.263 18.8326 196.118 18.9191 195.958 18.9556L195.723 19.0056C195.56 19.0349 195.392 19.012 195.243 18.9402C195.094 18.8684 194.972 18.7513 194.893 18.6056C194.818 18.4816 194.717 18.3754 194.597 18.2942C194.477 18.2131 194.341 18.1589 194.198 18.1356C194.006 18.1125 193.829 18.02 193.7 17.8754C193.571 17.7309 193.499 17.5443 193.498 17.3506V16.7806C193.496 16.736 193.484 16.6924 193.464 16.6527C193.444 16.613 193.415 16.5782 193.38 16.5507C193.345 16.5232 193.304 16.5036 193.26 16.4932C193.217 16.4828 193.172 16.4819 193.128 16.4906L189.433 17.2506C189.282 18.2743 188.82 19.2267 188.109 19.9782C187.397 20.7297 186.472 21.2438 185.458 21.4506C185.118 21.5203 184.771 21.5554 184.423 21.5556ZM183.423 12.0556C182.289 12.3205 181.297 13.0053 180.648 13.972C179.999 14.9387 179.74 16.1156 179.923 17.2656C180.12 18.3356 180.693 19.2998 181.539 19.9839C182.384 20.668 183.447 21.0268 184.535 20.9954C185.622 20.964 186.662 20.5444 187.467 19.8126C188.272 19.0808 188.789 18.0851 188.923 17.0056V16.8256L192.998 16.0006C193.115 15.9723 193.237 15.9705 193.354 15.9951C193.472 16.0197 193.583 16.0702 193.679 16.143C193.774 16.2158 193.853 16.309 193.908 16.4158C193.963 16.5226 193.994 16.6404 193.998 16.7606V17.3306C193.999 17.3985 194.024 17.4639 194.067 17.5158C194.111 17.5677 194.171 17.603 194.238 17.6156C194.457 17.6469 194.665 17.7276 194.848 17.8515C195.031 17.9753 195.183 18.1392 195.293 18.3306C195.32 18.3846 195.362 18.429 195.415 18.4576C195.468 18.4863 195.528 18.4978 195.588 18.4906L195.818 18.4406C195.876 18.4256 195.928 18.3922 195.966 18.3454C196.004 18.2986 196.026 18.2408 196.028 18.1806C196.06 17.8694 196.189 17.5762 196.398 17.3435C196.607 17.1107 196.885 16.9505 197.191 16.8859C197.497 16.8214 197.816 16.8558 198.101 16.9843C198.387 17.1128 198.624 17.3286 198.778 17.6006C198.804 17.6542 198.846 17.6984 198.898 17.7271C198.949 17.7558 199.009 17.7675 199.068 17.7606L199.308 17.7106C199.366 17.6947 199.416 17.6609 199.453 17.6142C199.49 17.5674 199.511 17.5101 199.513 17.4506C199.538 17.2311 199.612 17.0201 199.731 16.8338C199.85 16.6475 200.01 16.4908 200.198 16.3756C200.253 16.3359 200.293 16.2789 200.312 16.2137C200.332 16.1485 200.328 16.0788 200.303 16.0156L200.098 15.4856C200.056 15.3764 200.038 15.2592 200.045 15.1422C200.053 15.0253 200.086 14.9114 200.142 14.8085C200.198 14.7057 200.276 14.6163 200.371 14.5467C200.465 14.4772 200.573 14.429 200.688 14.4056L200.993 14.3406C201.158 14.3054 201.314 14.2373 201.453 14.1403C201.591 14.0433 201.708 13.9195 201.797 13.7762C201.886 13.6329 201.946 13.4731 201.971 13.3063C201.997 13.1395 201.989 12.9693 201.948 12.8056C201.851 12.491 201.638 12.2249 201.352 12.0607C201.066 11.8966 200.729 11.8465 200.408 11.9206L188.498 14.3956L188.408 14.2406C187.93 13.3888 187.187 12.7158 186.292 12.3234C185.397 11.931 184.399 11.8405 183.448 12.0656L183.423 12.0556ZM184.423 19.6956C183.802 19.7025 183.192 19.5288 182.668 19.1956C182.048 18.7886 181.588 18.1791 181.368 17.471C181.147 16.763 181.178 16.0003 181.457 15.3129C181.735 14.6254 182.243 14.0559 182.895 13.7013C183.546 13.3468 184.301 13.2291 185.029 13.3685C185.758 13.5078 186.415 13.8955 186.89 14.4655C187.365 15.0354 187.627 15.7523 187.632 16.494C187.637 17.2357 187.385 17.9562 186.918 18.5327C186.452 19.1093 185.8 19.5061 185.073 19.6556C184.86 19.6941 184.644 19.7109 184.428 19.7056L184.423 19.6956ZM184.423 13.7906C184.237 13.7917 184.051 13.8101 183.868 13.8456C183.52 13.9198 183.189 14.0619 182.896 14.2637C182.603 14.4656 182.352 14.7233 182.158 15.022C181.964 15.3208 181.831 15.6548 181.766 16.005C181.702 16.3553 181.706 16.7148 181.781 17.0631C181.855 17.4115 181.997 17.7418 182.199 18.0352C182.401 18.3286 182.658 18.5794 182.957 18.7732C183.256 18.9671 183.59 19.1002 183.94 19.1649C184.29 19.2297 184.65 19.2248 184.998 19.1506C185.521 19.0418 186 18.7805 186.375 18.3999C186.749 18.0192 187.003 17.5361 187.103 17.0115C187.204 16.4869 187.147 15.9443 186.94 15.4521C186.732 14.9599 186.384 14.5401 185.938 14.2456C185.495 13.9512 184.975 13.7962 184.443 13.8006L184.423 13.7906Z" fill="white"/>
<path opacity="0.6" d="M176.248 34.0112C179.523 34.0112 182.178 32.3188 182.178 30.2312C182.178 28.1435 179.523 26.4512 176.248 26.4512C172.973 26.4512 170.318 28.1435 170.318 30.2312C170.318 32.3188 172.973 34.0112 176.248 34.0112Z" fill="#0090DF"/>
<path opacity="0.3" d="M166.814 35.5609C168.159 35.5609 169.249 34.867 169.249 34.0109C169.249 33.1549 168.159 32.4609 166.814 32.4609C165.469 32.4609 164.379 33.1549 164.379 34.0109C164.379 34.867 165.469 35.5609 166.814 35.5609Z" fill="#0090DF"/>
</svg>
