<svg width="120" height="90" viewBox="0 0 120 90" fill="none" xmlns="http://www.w3.org/2000/svg">
<path d="M120 78.8613H0V78.9213H120V78.8613Z" fill="#EBEBEB"/>
<path d="M75.7608 80.4951H69.6504V80.5551H75.7608V80.4951Z" fill="#EBEBEB"/>
<path d="M109.305 81.7939H94.8262V81.8539H109.305V81.7939Z" fill="#EBEBEB"/>
<path d="M68.3498 80.5244H53.3906V80.5844H68.3498V80.5244Z" fill="#EBEBEB"/>
<path d="M43.6901 82.3193H40.5605V82.3793H43.6901V82.3193Z" fill="#EBEBEB"/>
<path d="M60.9817 82.3193H46.7305V82.3793H60.9817V82.3193Z" fill="#EBEBEB"/>
<path d="M21.8178 81.3066H12.5898V81.3666H21.8178V81.3066Z" fill="#EBEBEB"/>
<path d="M56.8795 68.1572H10.5379C10.1749 68.1565 9.82694 68.0119 9.57045 67.7549C9.31397 67.498 9.16992 67.1498 9.16992 66.7868V1.64356C9.17308 1.2826 9.31853 0.937471 9.57467 0.683129C9.83081 0.428786 10.177 0.285775 10.5379 0.285156H56.8795C57.243 0.285156 57.5915 0.429537 57.8485 0.686537C58.1055 0.943537 58.2499 1.2921 58.2499 1.65556V66.7868C58.2499 67.1502 58.1055 67.4988 57.8485 67.7558C57.5915 68.0128 57.243 68.1572 56.8795 68.1572ZM10.5379 0.333156C10.1908 0.333792 9.85811 0.472132 9.61288 0.717811C9.36765 0.963489 9.22992 1.29643 9.22992 1.64356V66.7868C9.22992 67.1339 9.36765 67.4668 9.61288 67.7125C9.85811 67.9582 10.1908 68.0965 10.5379 68.0972H56.8795C57.2269 68.0965 57.5598 67.9583 57.8054 67.7126C58.051 67.467 58.1893 67.1341 58.1899 66.7868V1.64356C58.1893 1.29621 58.051 0.963274 57.8054 0.717664C57.5598 0.472054 57.2269 0.333791 56.8795 0.333156H10.5379Z" fill="#EBEBEB"/>
<path d="M108.794 68.1572H62.4505C62.0872 68.1565 61.739 68.0119 61.4822 67.7551C61.2253 67.4982 61.0807 67.15 61.0801 66.7868V1.64356C61.0839 1.28238 61.2298 0.937255 61.4864 0.682979C61.7429 0.428702 62.0893 0.285768 62.4505 0.285156H108.794C109.155 0.286405 109.501 0.429696 109.756 0.683971C110.012 0.938246 110.157 1.28302 110.16 1.64356V66.7868C110.16 67.1494 110.016 67.4972 109.76 67.7541C109.504 68.0109 109.157 68.1559 108.794 68.1572ZM62.4505 0.333156C62.1031 0.333791 61.7702 0.472054 61.5246 0.717664C61.279 0.963274 61.1407 1.29621 61.1401 1.64356V66.7868C61.1407 67.1341 61.279 67.467 61.5246 67.7126C61.7702 67.9583 62.1031 68.0965 62.4505 68.0972H108.794C109.142 68.0965 109.475 67.9583 109.72 67.7126C109.966 67.467 110.104 67.1341 110.105 66.7868V1.64356C110.104 1.29621 109.966 0.963274 109.72 0.717664C109.475 0.472054 109.142 0.333791 108.794 0.333156H62.4505Z" fill="#EBEBEB"/>
<path d="M47.0302 58.0457H31.0942L30.127 46.8857H46.063L47.0302 58.0457Z" fill="#E6E6E6"/>
<path d="M47.8563 58.0457H31.9203L30.9531 46.8857H46.8891L47.8563 58.0457Z" fill="#F0F0F0"/>
<path d="M34.0992 55.6484L33.5664 49.2812H44.7096L45.2424 55.6484H34.0992Z" fill="white"/>
<path d="M50.6137 58.0459H48.7441V78.8611H50.6137V58.0459Z" fill="#E6E6E6"/>
<path d="M51.2047 58.0459H49.9062V78.8611H51.2047V58.0459Z" fill="#F0F0F0"/>
<path d="M33.1067 60.3428H51.2051V58.046H33.1067V60.3428Z" fill="#F0F0F0"/>
<path d="M33.7446 60.3428H31.875V78.8612H33.7446V60.3428Z" fill="#E6E6E6"/>
<path d="M34.3336 60.3428H33.0352V78.8612H34.3336V60.3428Z" fill="#F0F0F0"/>
<path d="M20.436 60.3428H18.5664V78.8612H20.436V60.3428Z" fill="#E6E6E6"/>
<path d="M21.0269 60.3428H19.7285V78.8612H21.0269V60.3428Z" fill="#F0F0F0"/>
<path d="M38.7817 60.3428H36.9121V78.8612H38.7817V60.3428Z" fill="#E6E6E6"/>
<path d="M39.3687 60.3428H38.0703V78.8612H39.3687V60.3428Z" fill="#F0F0F0"/>
<path d="M33.1056 58.0459H18.5664V60.3427H33.1056V58.0459Z" fill="#E6E6E6"/>
<path d="M87.3212 6.14355H31.082V37.454H87.3212V6.14355Z" fill="#E0E0E0"/>
<path d="M90.41 6.14355H31.3652V37.454H90.41V6.14355Z" fill="#F5F5F5"/>
<path d="M89.4453 36.4892V7.1084L32.3301 7.1084V36.4892H89.4453Z" fill="white"/>
<path d="M55.4562 36.4892L66.2394 7.1084H48.4434L37.6602 36.4892H55.4562Z" fill="#F5F5F5"/>
<path d="M72.5858 36.4892L83.369 7.1084H69.9434L59.1602 36.4892H72.5858Z" fill="#F5F5F5"/>
<path d="M105.146 48.957H100.365V78.861H105.146V48.957Z" fill="#E6E6E6"/>
<path d="M103.888 78.8612H105.146V76.5596H102.57L103.888 78.8612Z" fill="#FAFAFA"/>
<path d="M61.0679 48.957H56.2871V78.861H61.0679V48.957Z" fill="#E6E6E6"/>
<path d="M105.146 48.957H59.9707V78.2394H105.146V48.957Z" fill="#FAFAFA"/>
<path d="M104.292 58.4061H60.8281V50.1357H104.292V58.4061ZM61.0681 58.1661H104.052V50.3757H61.0681V58.1661Z" fill="#E6E6E6"/>
<path d="M96.6417 54.1513H69.3225C68.0553 54.1513 66.8337 53.1288 65.9625 51.3432L65.8809 51.1729H100.081L99.9993 51.3432C99.1209 53.1288 97.9209 54.1513 96.6417 54.1513ZM66.2745 51.4057C67.0857 52.9969 68.1945 53.9041 69.3225 53.9041H96.6417C97.7745 53.9041 98.8785 52.9969 99.6897 51.4057H66.2745Z" fill="#E6E6E6"/>
<path d="M61.2283 78.8612H59.9707V76.5596H62.5459L61.2283 78.8612Z" fill="#FAFAFA"/>
<path d="M104.292 67.7247H60.8281V59.4639H104.292V67.7247ZM61.0681 67.4847H104.052V59.7039H61.0681V67.4847Z" fill="#E6E6E6"/>
<path d="M96.6417 63.4798H69.3225C68.0553 63.4798 66.8337 62.455 65.9625 60.6718L65.8809 60.499H100.081L99.9993 60.6718C99.1209 62.4454 97.9209 63.4798 96.6417 63.4798ZM66.2745 60.739C67.0857 62.3302 68.1945 63.2398 69.3225 63.2398H96.6417C97.7745 63.2398 98.8785 62.3302 99.6897 60.739H66.2745Z" fill="#E6E6E6"/>
<path d="M104.292 77.0614H60.8281V68.791H104.292V77.0614ZM61.0681 76.8214H104.052V69.031H61.0681V76.8214Z" fill="#E6E6E6"/>
<path d="M96.6417 72.8055H69.3225C68.0553 72.8055 66.8337 71.7831 65.9625 69.9999L65.8809 69.8271H100.081L99.9993 69.9999C99.1209 71.7831 97.9209 72.8055 96.6417 72.8055ZM66.2745 70.0671C67.0857 71.6583 68.1945 72.5655 69.3225 72.5655H96.6417C97.7745 72.5655 98.8785 71.6583 99.6897 70.0671H66.2745Z" fill="#E6E6E6"/>
<path d="M29.0354 52.9121V53.4929H28.6658L28.3586 58.0457H23.837L23.5322 53.4929H23.1602V52.9121H29.0354Z" fill="#E6E6E6"/>
<path d="M27.5471 41.6156C27.1775 38.9036 23.5175 38.1308 18.8735 38.03C14.4551 37.9364 13.0391 36.374 13.0391 36.374C13.0391 36.374 13.0535 42.7028 19.4207 44.9972C25.4663 47.1716 27.9191 44.3324 27.5471 41.6156Z" fill="#E6E6E6"/>
<path d="M25.2918 47.7618C25.3686 46.6482 27.1494 44.5986 31.4334 45.5298C34.5294 46.2042 35.6814 44.5986 35.6814 44.5986C35.6814 44.5986 35.3934 49.1298 30.7374 50.4906C26.3142 51.7842 25.155 49.725 25.2918 47.7618Z" fill="#E6E6E6"/>
<path d="M26.2679 54.6213C26.292 54.6216 26.3158 54.6165 26.3378 54.6066C26.3598 54.5966 26.3793 54.582 26.3951 54.5637C26.7047 54.1965 26.4503 53.3181 26.0999 52.1013C25.6487 50.5413 25.0871 48.5973 25.5623 47.1885C25.8257 46.4444 26.1334 45.7167 26.4839 45.0093C27.1559 43.5885 27.7367 42.3693 27.2519 41.0781C27.2443 41.0576 27.2327 41.0387 27.2178 41.0227C27.2029 41.0066 27.185 40.9937 27.1651 40.9846C27.1452 40.9756 27.1237 40.9705 27.1018 40.9698C27.0799 40.9691 27.0581 40.9727 27.0376 40.9805C27.0172 40.9883 26.9985 41 26.9826 41.0151C26.9667 41.0301 26.9539 41.0482 26.9451 41.0682C26.9362 41.0882 26.9314 41.1098 26.9309 41.1317C26.9304 41.1536 26.9343 41.1753 26.9423 41.1957C27.3767 42.3453 26.8511 43.4589 26.1839 44.8701C25.8289 45.5888 25.5164 46.3277 25.2479 47.0829C24.7415 48.5901 25.3175 50.5893 25.7807 52.1925C26.0543 53.1525 26.3375 54.1125 26.1431 54.3525C26.1276 54.3691 26.1158 54.3887 26.1084 54.4101C26.1009 54.4315 26.098 54.4542 26.0998 54.4767C26.1016 54.4993 26.1081 54.5213 26.1188 54.5412C26.1296 54.5611 26.1444 54.5786 26.1623 54.5925C26.1929 54.6144 26.2303 54.6246 26.2679 54.6213Z" fill="#E6E6E6"/>
<path d="M60.0004 89.6992C85.7002 89.6992 106.534 88.4829 106.534 86.9824C106.534 85.482 85.7002 84.2656 60.0004 84.2656C34.3006 84.2656 13.4668 85.482 13.4668 86.9824C13.4668 88.4829 34.3006 89.6992 60.0004 89.6992Z" fill="#F5F5F5"/>
<path d="M59.9897 73.7365H25.9097L24.0449 18.9277H58.1249L59.9897 73.7365Z" fill="#0090DF"/>
<path d="M61.6913 72.0354H27.6113L25.7441 17.2266H59.8241L61.6913 72.0354Z" fill="#0090DF"/>
<path opacity="0.3" d="M61.6913 72.0354H27.6113L25.7441 17.2266H59.8241L61.6913 72.0354Z" fill="white"/>
<path d="M50.2726 39.7808C53.9216 36.0689 53.7664 29.9992 49.9259 26.2238C46.0854 22.4484 40.0139 22.397 36.3649 26.109C32.7159 29.8209 32.8712 35.8906 36.7117 39.666C40.5522 43.4414 46.6236 43.4928 50.2726 39.7808Z" fill="#0090DF"/>
<path d="M51.2326 32.9466C51.2817 34.2526 50.9967 35.5495 50.4046 36.7146C49.7655 37.9701 48.7893 39.0228 47.5853 39.7545C46.3814 40.4862 44.9974 40.868 43.5886 40.857C42.1467 40.8492 40.7322 40.4623 39.487 39.7353C38.2418 39.0082 37.2096 37.9665 36.4942 36.7146C35.8271 35.5674 35.4544 34.2729 35.4094 32.9466C35.3651 31.9182 35.5304 30.8915 35.8951 29.929C36.2599 28.9665 36.8166 28.0881 37.5313 27.3474C38.246 26.6066 39.1038 26.0189 40.0527 25.62C41.0016 25.221 42.0217 25.0191 43.051 25.0266C45.1714 25.0416 47.2046 25.8728 48.7282 27.3477C50.2518 28.8226 51.1487 30.8277 51.2326 32.9466Z" fill="white"/>
<path opacity="0.6" d="M50.3987 36.7142C49.7596 37.9698 48.7834 39.0224 47.5794 39.7541C46.3755 40.4858 44.9915 40.8676 43.5827 40.8566C42.1408 40.8488 40.7263 40.462 39.4811 39.7349C38.2359 39.0078 37.2038 37.9661 36.4883 36.7142C38.518 35.3304 40.9197 34.5948 43.3763 34.6046C45.8724 34.61 48.3128 35.3431 50.3987 36.7142Z" fill="#0090DF"/>
<path opacity="0.6" d="M45.7837 32.7492C47.1255 31.3843 47.0684 29.1524 45.6562 27.7642C44.244 26.3759 42.0115 26.357 40.6697 27.7219C39.328 29.0869 39.385 31.3187 40.7972 32.707C42.2094 34.0952 44.4419 34.1141 45.7837 32.7492Z" fill="#0090DF"/>
<path d="M54.8446 52.1872H33.1054L32.959 47.8672H54.6982L54.8446 52.1872Z" fill="white"/>
<path d="M55.1087 59.9079H33.3671L33.2207 55.5879H54.9623L55.1087 59.9079Z" fill="white"/>
<path d="M46.717 56.1834L41.4778 56.9034C41.4278 56.909 41.3795 56.925 41.336 56.9503C41.2925 56.9755 41.2547 57.0095 41.2249 57.0501C41.1952 57.0906 41.1741 57.1369 41.1631 57.186C41.1521 57.2351 41.1514 57.286 41.161 57.3353L41.8498 60.8465C41.8723 60.9496 41.9326 61.0405 42.0188 61.1013C42.1049 61.1622 42.2107 61.1886 42.3154 61.1753L47.5546 60.4553C47.6045 60.449 47.6525 60.4326 47.6958 60.4069C47.739 60.3813 47.7765 60.3471 47.806 60.3063C47.8355 60.2656 47.8563 60.2193 47.8671 60.1702C47.8779 60.1211 47.8786 60.0703 47.869 60.0209L47.1826 56.5097C47.16 56.4069 47.0997 56.3162 47.0134 56.2558C46.9272 56.1953 46.8214 56.1695 46.717 56.1834ZM45.2122 59.7402L44.2522 59.8674L44.1586 58.7346C44.0597 58.6918 43.9725 58.6258 43.9044 58.5423C43.8363 58.4588 43.7893 58.3601 43.7674 58.2546C43.7498 58.1728 43.7495 58.0883 43.7666 58.0064C43.7836 57.9246 43.8177 57.8472 43.8666 57.7793C43.9154 57.7115 43.978 57.6546 44.0502 57.6125C44.1224 57.5703 44.2027 57.5438 44.2858 57.5346C44.4563 57.5126 44.6287 57.5554 44.7692 57.6545C44.9096 57.7536 45.0077 57.9018 45.0442 58.0697C45.065 58.1712 45.0586 58.2763 45.0258 58.3745C44.9929 58.4727 44.9347 58.5605 44.857 58.629L45.2122 59.7402Z" fill="#0090DF"/>
<path d="M46.1991 55.9942C46.1065 56.0059 46.0128 55.9827 45.9364 55.929C45.86 55.8752 45.8065 55.7949 45.7863 55.7038L45.7191 55.3606C45.6232 54.8922 45.3607 54.4745 44.9802 54.185C44.5998 53.8955 44.1273 53.7538 43.6503 53.7862C43.4096 53.7999 43.1747 53.8652 42.9615 53.9778C42.7483 54.0904 42.5618 54.2475 42.4147 54.4385C42.2677 54.6295 42.1634 54.85 42.1091 55.0848C42.0548 55.3197 42.0516 55.5636 42.0999 55.7998L42.1767 56.1958C42.1856 56.2396 42.1853 56.2849 42.1758 56.3287C42.1662 56.3724 42.1476 56.4137 42.1212 56.4498C42.0947 56.486 42.061 56.5162 42.0222 56.5386C41.9835 56.561 41.9404 56.575 41.8959 56.5798C41.8031 56.5927 41.7088 56.5699 41.6322 56.516C41.5556 56.4621 41.5023 56.3811 41.4831 56.2894L41.4183 55.9558C41.3524 55.644 41.3502 55.3221 41.4119 55.0095C41.4735 54.6968 41.5978 54.3999 41.7771 54.1364C41.9565 53.873 42.1872 53.6486 42.4555 53.4766C42.7238 53.3047 43.0241 53.1887 43.3383 53.1358C44.0196 53.0213 44.7189 53.1737 45.2909 53.5611C45.8629 53.9486 46.2638 54.5414 46.4103 55.2166L46.4871 55.6102C46.496 55.6546 46.4955 55.7004 46.4855 55.7446C46.4755 55.7888 46.4563 55.8304 46.4291 55.8667C46.4019 55.9029 46.3674 55.933 46.3277 55.955C46.2881 55.977 46.2442 55.9903 46.1991 55.9942Z" fill="#0090DF"/>
<path d="M51.5198 65.9583H37.367L37.2734 63.1455H51.4238L51.5198 65.9583Z" fill="#0090DF"/>
<path d="M44.6916 50.0269C44.6958 50.1295 44.6792 50.2319 44.6427 50.3279C44.6062 50.4238 44.5505 50.5114 44.4792 50.5852C44.4078 50.6591 44.3222 50.7176 44.2275 50.7574C44.1329 50.7971 44.0311 50.8173 43.9284 50.8165C43.7168 50.8149 43.5139 50.732 43.3616 50.5851C43.2093 50.4382 43.1192 50.2384 43.11 50.0269C43.1058 49.9243 43.1224 49.8219 43.159 49.726C43.1955 49.63 43.2511 49.5425 43.3225 49.4686C43.3938 49.3948 43.4794 49.3362 43.5741 49.2965C43.6688 49.2567 43.7705 49.2366 43.8732 49.2373C44.085 49.2384 44.2883 49.321 44.4407 49.4681C44.5931 49.6152 44.683 49.8153 44.6916 50.0269Z" fill="#263238"/>
<path d="M41.2791 50.0269C41.2836 50.1296 41.2672 50.2321 41.2308 50.3283C41.1944 50.4244 41.1388 50.5121 41.0674 50.586C40.996 50.6599 40.9102 50.7184 40.8154 50.7581C40.7206 50.7977 40.6186 50.8176 40.5159 50.8165C40.3045 50.8148 40.1018 50.7319 39.9499 50.5849C39.798 50.4379 39.7085 50.2381 39.6999 50.0269C39.6956 49.9243 39.7123 49.8219 39.7488 49.726C39.7853 49.63 39.8409 49.5425 39.9123 49.4686C39.9837 49.3948 40.0693 49.3362 40.164 49.2965C40.2586 49.2567 40.3604 49.2366 40.4631 49.2373C40.6746 49.2384 40.8776 49.3211 41.0296 49.4683C41.1817 49.6154 41.271 49.8155 41.2791 50.0269Z" fill="#263238"/>
<path d="M37.8884 50.0269C37.8927 50.1295 37.876 50.2319 37.8395 50.3279C37.803 50.4238 37.7474 50.5114 37.676 50.5852C37.6046 50.6591 37.519 50.7176 37.4243 50.7574C37.3297 50.7971 37.2279 50.8173 37.1252 50.8165C36.9137 50.8154 36.7107 50.7327 36.5587 50.5856C36.4066 50.4385 36.3173 50.2383 36.3092 50.0269C36.305 49.9243 36.3217 49.8219 36.3582 49.726C36.3947 49.63 36.4503 49.5425 36.5217 49.4686C36.593 49.3948 36.6787 49.3362 36.7733 49.2965C36.868 49.2567 36.9698 49.2366 37.0724 49.2373C37.284 49.2384 37.487 49.3211 37.639 49.4683C37.791 49.6154 37.8804 49.8155 37.8884 50.0269Z" fill="#263238"/>
<path d="M48.0933 50.0276C48.0976 50.1302 48.0809 50.2326 48.0444 50.3285C48.0079 50.4245 47.9522 50.5121 47.8809 50.5859C47.8095 50.6597 47.7239 50.7183 47.6292 50.758C47.5346 50.7978 47.4328 50.8179 47.3301 50.8172C47.1186 50.8161 46.9156 50.7334 46.7636 50.5862C46.6115 50.4391 46.5222 50.239 46.5141 50.0276C46.5106 49.9253 46.5278 49.8233 46.5648 49.7279C46.6018 49.6325 46.6577 49.5455 46.7293 49.4724C46.8009 49.3992 46.8866 49.3414 46.9812 49.3023C47.0758 49.2633 47.1774 49.2438 47.2797 49.2452C47.4897 49.2468 47.691 49.3288 47.8424 49.4743C47.9937 49.6199 48.0835 49.8179 48.0933 50.0276Z" fill="#263238"/>
<path d="M51.4939 50.0269C51.4985 50.1296 51.4821 50.2321 51.4457 50.3283C51.4093 50.4244 51.3537 50.5121 51.2822 50.586C51.2108 50.6599 51.1251 50.7184 51.0302 50.7581C50.9354 50.7977 50.8335 50.8176 50.7307 50.8165C50.5193 50.8148 50.3167 50.7319 50.1648 50.5849C50.0129 50.4379 49.9233 50.2381 49.9147 50.0269C49.9105 49.9243 49.9271 49.8219 49.9636 49.726C50.0002 49.63 50.0558 49.5425 50.1272 49.4686C50.1985 49.3948 50.2841 49.3362 50.3788 49.2965C50.4735 49.2567 50.5752 49.2366 50.6779 49.2373C50.8895 49.2384 51.0924 49.3211 51.2445 49.4683C51.3965 49.6154 51.4859 49.8155 51.4939 50.0269Z" fill="#263238"/>
<path d="M80.1385 28.9121C80.4577 29.4257 80.7241 29.9153 80.9977 30.4265C81.2713 30.9377 81.5185 31.4513 81.7609 31.9769C82.2555 33.0412 82.6647 34.143 82.9849 35.2721C83.0281 35.4137 83.0593 35.5649 83.0953 35.7113L83.1481 35.9345L83.1745 36.0449L83.2057 36.2273C83.2598 36.6411 83.2345 37.0614 83.1313 37.4657C82.9656 38.0935 82.7136 38.6952 82.3825 39.2537C81.7902 40.2686 81.0743 41.2062 80.2513 42.0449L79.2409 41.2817C79.748 40.3494 80.1992 39.3877 80.5921 38.4017C80.7671 37.9673 80.8903 37.5138 80.9593 37.0505C80.9813 36.9091 80.9748 36.7646 80.9401 36.6257L80.8441 36.3329C80.8057 36.2129 80.7697 36.0929 80.7241 35.9705C80.359 34.9804 79.9367 34.0124 79.4593 33.0713C78.9793 32.1113 78.4633 31.1513 77.9473 30.2345L80.1385 28.9121Z" fill="#FF8B7B"/>
<path d="M79.4966 40.9482L78.3926 41.5314L79.6598 43.0146C79.6598 43.0146 80.4518 42.4794 80.4878 41.6634L79.4966 40.9482Z" fill="#FF8B7B"/>
<path d="M76.9121 42.4466L78.2681 43.5242L79.6601 43.0154L78.3929 41.5322L76.9121 42.4466Z" fill="#FF8B7B"/>
<path d="M72.275 21.0595C72.2486 21.1939 72.155 21.2875 72.0686 21.2707C71.9822 21.2539 71.9318 21.1291 71.9582 20.9971C71.9846 20.8651 72.0782 20.7571 72.167 20.7859C72.2558 20.8147 72.3014 20.9251 72.275 21.0595Z" fill="#263238"/>
<path d="M72.1676 21.29C71.926 21.666 71.6336 22.0068 71.2988 22.3028C71.3779 22.3848 71.4737 22.4486 71.5798 22.4901C71.6858 22.5315 71.7996 22.5495 71.9132 22.5428L72.1676 21.29Z" fill="#FF5652"/>
<path d="M71.7363 25.9992V24.4248L73.8195 24.6648C73.8195 24.6648 73.7859 26.0184 72.6195 26.4168L71.7363 25.9992Z" fill="#FF8B7B"/>
<path d="M72.3345 23.292L73.8009 23.7144L73.8273 24.6768L71.7441 24.4248L72.3345 23.292Z" fill="#FF8B7B"/>
<path opacity="0.2" d="M73.8028 23.7144L72.3364 23.292L72.0508 23.8392C72.0664 24.2704 72.2011 24.6888 72.44 25.048C72.679 25.4073 73.0128 25.6933 73.4044 25.8744C73.6563 25.5225 73.8036 25.1065 73.8292 24.6744L73.8028 23.7144Z" fill="black"/>
<path d="M72.9141 20.4186C72.9294 20.4182 72.9444 20.4134 72.9572 20.4049C72.97 20.3963 72.9801 20.3843 72.9864 20.3703C72.9926 20.3562 72.9948 20.3407 72.9926 20.3254C72.9905 20.3102 72.984 20.2959 72.9741 20.2842C72.8898 20.189 72.7839 20.1153 72.6653 20.0694C72.5467 20.0235 72.4189 20.0066 72.2925 20.0202C72.2718 20.0237 72.2533 20.0353 72.2412 20.0524C72.2291 20.0695 72.2242 20.0907 72.2277 20.1114C72.2312 20.1322 72.2427 20.1509 72.2597 20.1634C72.2767 20.1759 72.2979 20.1814 72.3189 20.1786C72.419 20.1688 72.52 20.183 72.6136 20.2202C72.7071 20.2573 72.7904 20.3163 72.8565 20.3922C72.8638 20.4002 72.8727 20.4067 72.8826 20.4112C72.8925 20.4157 72.9032 20.4182 72.9141 20.4186Z" fill="#263238"/>
<path d="M75.9818 23.4883C75.7418 24.7243 75.593 26.4355 76.4618 27.2587C76.4618 27.2587 76.1258 28.5115 73.8218 28.5115C71.2994 28.5115 72.6098 27.4123 72.6098 27.4123C73.6586 27.0859 73.649 25.8931 73.409 24.9331L75.9818 23.4883Z" fill="#FF8B7B"/>
<path d="M76.9299 28.0846C77.1555 27.7678 77.1459 26.7622 76.9059 26.5846C76.5195 26.299 74.8611 26.2318 72.6315 26.7454C72.8715 27.7198 72.3555 28.2286 72.3555 28.2286L76.9299 28.0846Z" fill="#0090DF"/>
<path d="M84.4315 85.0631C84.363 85.0872 84.2904 85.0975 84.2179 85.0933C84.1454 85.0892 84.0744 85.0708 84.0091 85.0391C83.9843 85.016 83.9673 84.9859 83.9604 84.9528C83.9536 84.9197 83.9571 84.8853 83.9707 84.8543C83.9782 84.8283 83.9914 84.8043 84.0092 84.784C84.027 84.7637 84.0491 84.7475 84.0739 84.7367C84.3019 84.6263 84.8251 84.8399 84.8491 84.8495C84.8562 84.8524 84.8623 84.8574 84.8666 84.8638C84.8709 84.8702 84.8732 84.8778 84.8731 84.8855C84.873 84.8932 84.871 84.9007 84.8672 84.9075C84.8634 84.9142 84.858 84.9198 84.8515 84.9239C84.7161 84.9833 84.5755 85.0299 84.4315 85.0631ZM84.1555 84.7919C84.1396 84.7956 84.1243 84.8013 84.1099 84.8087C84.0949 84.8141 84.0814 84.8231 84.0706 84.8348C84.0597 84.8464 84.0518 84.8605 84.0475 84.8759C84.0259 84.9479 84.0475 84.9719 84.0619 84.9791C84.1531 85.0559 84.4891 84.9791 84.7267 84.8903C84.5459 84.8155 84.3508 84.7819 84.1555 84.7919Z" fill="#0090DF"/>
<path d="M84.8428 84.9259H84.8235C84.6315 84.8707 84.2236 84.5803 84.2188 84.3907C84.2186 84.3606 84.2287 84.3313 84.2475 84.3077C84.2663 84.2841 84.2925 84.2677 84.322 84.2611C84.3504 84.2505 84.3809 84.2463 84.4112 84.2487C84.4414 84.2512 84.4708 84.2604 84.4972 84.2755C84.7228 84.3907 84.8668 84.8563 84.8716 84.8779C84.8749 84.8838 84.8767 84.8904 84.8767 84.8971C84.8767 84.9039 84.8749 84.9105 84.8716 84.9163C84.8678 84.9201 84.8633 84.9229 84.8583 84.9246C84.8533 84.9262 84.848 84.9267 84.8428 84.9259ZM84.3628 84.3283H84.3435C84.2955 84.3451 84.2956 84.3691 84.2956 84.3811C84.2956 84.4939 84.5692 84.7219 84.7756 84.8131C84.7252 84.6787 84.6148 84.4123 84.4684 84.3331C84.4358 84.3184 84.3989 84.3166 84.3651 84.3283H84.3628Z" fill="#0090DF"/>
<path d="M71.9657 85.3459C71.7497 85.3459 71.5409 85.3147 71.4713 85.2187C71.4531 85.1931 71.4434 85.1625 71.4434 85.1311C71.4434 85.0997 71.4531 85.0691 71.4713 85.0435C71.485 85.02 71.5034 84.9996 71.5252 84.9835C71.5471 84.9674 71.5721 84.956 71.5985 84.9499C71.8793 84.8731 72.4697 85.2091 72.4937 85.2235C72.5011 85.2271 72.507 85.2331 72.5105 85.2405C72.514 85.2479 72.5148 85.2563 72.5129 85.2643C72.512 85.2725 72.5085 85.2802 72.5029 85.2862C72.4973 85.2923 72.4898 85.2964 72.4817 85.2979C72.3115 85.3291 72.1388 85.3452 71.9657 85.3459ZM71.6993 85.0171C71.6739 85.0129 71.648 85.0129 71.6225 85.0171C71.6063 85.0204 71.5909 85.0271 71.5772 85.0365C71.5636 85.046 71.5521 85.0582 71.5433 85.0723C71.5145 85.1227 71.5265 85.1467 71.5433 85.1611C71.6225 85.2715 72.0473 85.2739 72.3617 85.2283C72.1565 85.1161 71.9316 85.0444 71.6993 85.0171Z" fill="#0090DF"/>
<path d="M72.4793 85.2984H72.4625C72.2585 85.2072 71.8553 84.8424 71.8865 84.6504C71.8865 84.6048 71.9249 84.5496 72.0353 84.54C72.0747 84.5354 72.1147 84.539 72.1527 84.5506C72.1907 84.5621 72.2259 84.5814 72.2561 84.6072C72.4099 84.7911 72.5022 85.0186 72.5201 85.2576C72.52 85.2645 72.5185 85.2713 72.5156 85.2775C72.5127 85.2837 72.5085 85.2892 72.5033 85.2937C72.4959 85.2974 72.4876 85.2991 72.4793 85.2984ZM72.0665 84.6144H72.0425C71.9705 84.6144 71.9657 84.648 71.9657 84.6576C71.9465 84.7728 72.2201 85.0608 72.4289 85.1856C72.4105 84.993 72.3325 84.811 72.2057 84.6648C72.1663 84.6313 72.1159 84.6133 72.0641 84.6144H72.0665Z" fill="#0090DF"/>
<path d="M74.3318 85.2592H72.6446L72.4766 81.3496H74.1638L74.3318 85.2592Z" fill="#FF8B7B"/>
<path d="M86.7232 84.4777L85.0744 84.8353L83.416 81.1945L85.0672 80.8369L86.7232 84.4777Z" fill="#FF8B7B"/>
<path d="M84.9147 84.6696L86.7699 84.2688C86.8023 84.2619 86.8361 84.2663 86.8657 84.2811C86.8954 84.2959 86.9191 84.3203 86.9331 84.3504L87.5763 85.7472C87.5934 85.781 87.6023 85.8184 87.6021 85.8563C87.602 85.8942 87.5929 85.9316 87.5756 85.9653C87.5583 85.999 87.5332 86.0282 87.5024 86.0503C87.4717 86.0725 87.4361 86.087 87.3987 86.0928C86.7507 86.22 86.4267 86.2512 85.6131 86.4264C85.1115 86.5368 83.9787 86.8128 83.2851 86.9616C82.5915 87.1104 82.3539 86.4456 82.6251 86.3232C83.8371 85.7688 84.3411 85.2816 84.6699 84.828C84.7293 84.747 84.8164 84.6907 84.9147 84.6696Z" fill="#263238"/>
<path d="M72.6578 85.0625H74.501C74.5344 85.0627 74.5668 85.0742 74.593 85.0951C74.6191 85.116 74.6374 85.1451 74.645 85.1777L74.9786 86.6777C74.9884 86.714 74.9895 86.752 74.9819 86.7888C74.9743 86.8255 74.9582 86.86 74.9349 86.8894C74.9115 86.9189 74.8816 86.9424 74.8475 86.9581C74.8134 86.9739 74.7761 86.9814 74.7386 86.9801C74.0738 86.9681 73.1138 86.9297 72.2786 86.9297C71.2994 86.9297 70.457 86.9825 69.3098 86.9825C68.6162 86.9825 68.4242 86.2817 68.7146 86.2169C70.0346 85.9289 71.1146 85.8977 72.2546 85.1945C72.3743 85.1143 72.5138 85.0686 72.6578 85.0625Z" fill="#263238"/>
<path d="M79.4804 27.6449C81.062 28.0073 82.3604 32.0465 82.3604 32.0465L79.1996 34.4633C78.3792 33.5862 77.8003 32.5111 77.5196 31.3433C76.9604 29.2265 77.8628 27.2705 79.4804 27.6449Z" fill="#0090DF"/>
<path opacity="0.4" d="M79.4804 27.6449C81.062 28.0073 82.3604 32.0465 82.3604 32.0465L79.1996 34.4633C78.3792 33.5862 77.8003 32.5111 77.5196 31.3433C76.9604 29.2265 77.8628 27.2705 79.4804 27.6449Z" fill="black"/>
<path d="M71.1594 32.4621C70.7658 32.8869 70.3722 33.2661 69.9594 33.6621C69.7554 33.8541 69.549 34.0461 69.3378 34.2309L69.0186 34.5117L68.9394 34.5813L68.8026 34.6917C68.6618 34.8041 68.5059 34.8962 68.3394 34.9653C68.1542 35.0439 67.9551 35.0847 67.7538 35.0853C67.5819 35.086 67.4112 35.0559 67.2498 34.9965C67.0709 34.9283 66.9076 34.8246 66.7698 34.6917C66.594 34.5198 66.4651 34.3058 66.3954 34.0701C66.359 33.9538 66.3356 33.8339 66.3258 33.7125C66.3133 33.5703 66.3133 33.4274 66.3258 33.2853C66.3378 33.1701 66.3522 33.0693 66.3714 32.9757C66.4371 32.6484 66.5302 32.3273 66.6498 32.0157C66.7578 31.7194 66.882 31.4294 67.0218 31.1469C67.1754 30.8421 67.3218 30.6189 67.4682 30.3645C68.0629 29.3903 68.7414 28.47 69.4962 27.6141C70.2434 26.7631 71.0669 25.9823 71.9562 25.2812L72.8394 26.1909C72.2202 27.0213 71.6106 27.9117 71.0466 28.7877C70.4853 29.6587 69.9725 30.5601 69.5106 31.4876C69.4074 31.7133 69.2706 31.9677 69.2058 32.1501C69.12 32.3619 69.0455 32.5782 68.9826 32.7981C68.9222 32.996 68.8764 33.1981 68.8458 33.4029C68.8442 33.4348 68.8442 33.4669 68.8458 33.4989C68.8458 33.5181 68.8458 33.5277 68.8458 33.4773C68.8419 33.4234 68.8314 33.3702 68.8146 33.3189C68.7627 33.1487 68.6677 32.9949 68.5386 32.8725C68.4238 32.767 68.2892 32.6854 68.1426 32.6325C68.0138 32.5836 67.8772 32.5584 67.7394 32.5581C67.6069 32.5564 67.4755 32.5818 67.353 32.6325C67.3116 32.6494 67.2715 32.6694 67.233 32.6925L67.3242 32.6084L67.6146 32.3445L68.1882 31.8069C68.5674 31.4493 68.949 31.0677 69.309 30.7125L71.1594 32.4621Z" fill="#FF8B7B"/>
<path opacity="0.2" d="M78.1246 30.6113C78.9838 31.4609 79.2646 33.0113 79.3246 34.3553L79.1854 34.4633C78.365 33.5861 77.7861 32.5111 77.5054 31.3433C77.4742 31.2185 77.4454 31.1033 77.4238 30.9665L78.1246 30.6113Z" fill="black"/>
<path d="M69.4822 29.3249C69.1366 31.1489 68.9206 34.8953 69.9214 42.3113H78.9598C79.0222 40.9265 78.151 34.1633 79.4878 27.6329C78.489 27.4411 77.4789 27.3136 76.4638 27.2513C75.1849 27.178 73.9028 27.178 72.6238 27.2513C72.2014 27.2897 71.7838 27.3521 71.4238 27.4169C70.945 27.5009 70.503 27.7283 70.1563 28.069C69.8096 28.4097 69.5745 28.8477 69.4822 29.3249Z" fill="#0090DF"/>
<path opacity="0.4" d="M69.4822 29.3249C69.1366 31.1489 68.9206 34.8953 69.9214 42.3113H78.9598C79.0222 40.9265 78.151 34.1633 79.4878 27.6329C78.489 27.4411 77.4789 27.3136 76.4638 27.2513C75.1849 27.178 73.9028 27.178 72.6238 27.2513C72.2014 27.2897 71.7838 27.3521 71.4238 27.4169C70.945 27.5009 70.503 27.7283 70.1563 28.069C69.8096 28.4097 69.5745 28.8477 69.4822 29.3249Z" fill="black"/>
<path opacity="0.2" d="M70.8649 32.0299L69.2329 31.6387C69.1825 32.6275 69.1777 33.8515 69.2497 35.3659C70.0009 34.5115 70.9609 33.1771 70.8649 32.0299Z" fill="black"/>
<path opacity="0.2" d="M72.4766 81.3496L72.563 83.3656H74.2526L74.1662 81.3496H72.4766Z" fill="black"/>
<path opacity="0.2" d="M85.0672 80.8369L83.416 81.1945L84.2704 83.0713L85.9216 82.7137L85.0672 80.8369Z" fill="black"/>
<path d="M76.7818 21.6843C76.3498 23.3019 76.177 24.2715 75.1786 24.9435C73.6786 25.9659 71.8066 24.7947 71.7586 23.0859C71.7058 21.5427 72.4234 19.1547 74.1586 18.8283C74.5399 18.7567 74.9331 18.7834 75.3013 18.9059C75.6694 19.0284 76.0003 19.2426 76.2627 19.5283C76.5252 19.814 76.7105 20.1619 76.8013 20.5391C76.8922 20.9163 76.8854 21.3104 76.7818 21.6843Z" fill="#FF8B7B"/>
<path d="M72.9951 21.7438C72.9135 21.5278 72.5415 19.855 72.8919 19.4206C73.2423 18.9862 77.2383 19.3006 77.8287 19.8814C78.8103 20.8414 78.1287 21.7054 77.0559 22.8166C76.2495 23.6518 76.2183 24.5926 75.8103 24.7366C75.0903 24.9766 73.9911 24.751 73.7703 23.9902C73.5495 23.2294 72.9951 21.7438 72.9951 21.7438Z" fill="#263238"/>
<path d="M77.3436 17.9781C75.9324 17.3781 73.2852 18.0429 71.8548 17.6973C71.8366 18.2291 72.0115 18.7496 72.3472 19.1626C72.683 19.5755 73.1568 19.853 73.6812 19.9437C74.8678 20.1698 76.0733 20.2815 77.2812 20.2773C78.8508 20.2053 78.5436 18.4893 77.3436 17.9781Z" fill="#263238"/>
<path d="M77.5645 19.9321C78.08 19.9828 78.5991 19.8836 79.0597 19.6465C79.3237 20.2849 77.8717 20.4601 77.5645 19.9321Z" fill="#263238"/>
<path d="M73.763 21.8104C73.7306 22.2266 73.5619 22.6205 73.283 22.9312C72.9134 23.3368 72.5294 23.0824 72.4646 22.5904C72.407 22.144 72.527 21.3904 72.9782 21.1744C73.4294 20.9584 73.7942 21.3088 73.763 21.8104Z" fill="#FF8B7B"/>
<path d="M73.125 42.3193C73.125 42.3193 75.045 55.2193 76.0938 60.0529C77.2434 65.3449 83.421 82.8529 83.421 82.8529L86.4426 82.1977C86.4426 82.1977 82.1226 67.9273 81.1626 60.5281C80.4186 54.8449 78.957 42.3145 78.957 42.3145L73.125 42.3193Z" fill="#0090DF"/>
<path d="M82.6955 81.8474C82.6835 81.8474 83.2595 82.9418 83.2595 82.9418L86.6579 82.205L86.3723 81.1826L82.6955 81.8474Z" fill="#263238"/>
<path opacity="0.3" d="M74.3371 46.9146C76.5523 47.349 76.3171 55.6098 76.0507 59.8602C75.4123 56.8554 74.4763 51.0762 73.8379 46.9746C73.9926 46.8982 74.1687 46.8771 74.3371 46.9146Z" fill="black"/>
<path d="M69.9213 42.3192C69.9213 42.3192 69.6813 54.9408 69.8733 60.0792C70.0653 65.4336 71.9349 82.9656 71.9349 82.9656H74.7957C74.7957 82.9656 74.8989 65.7456 75.0357 60.4872C75.1749 54.756 75.8661 42.3096 75.8661 42.3096L69.9213 42.3192Z" fill="#0090DF"/>
<path d="M71.3856 81.8369C71.3712 81.8369 71.5464 83.0225 71.5464 83.0225H75.024L75.12 81.9641L71.3856 81.8369Z" fill="#263238"/>
<path d="M73.0185 29.8869C73.8273 32.0685 69.0729 34.6389 69.0729 34.6389L67.0137 31.9989C67.0137 31.9989 68.3985 29.2581 70.0785 28.0245C72.1545 26.5029 72.4017 28.2261 73.0185 29.8869Z" fill="#0090DF"/>
<path opacity="0.4" d="M73.0185 29.8869C73.8273 32.0685 69.0729 34.6389 69.0729 34.6389L67.0137 31.9989C67.0137 31.9989 68.3985 29.2581 70.0785 28.0245C72.1545 26.5029 72.4017 28.2261 73.0185 29.8869Z" fill="black"/>
<path d="M91.6479 13.3242C96.4316 13.3242 100.31 10.8528 100.31 7.80418C100.31 4.75557 96.4316 2.28418 91.6479 2.28418C86.8643 2.28418 82.9863 4.75557 82.9863 7.80418C82.9863 10.8528 86.8643 13.3242 91.6479 13.3242Z" fill="#0090DF"/>
<path d="M88.5241 10.5836C87.9535 10.5817 87.4018 10.3789 86.966 10.0106C86.5301 9.64234 86.238 9.13226 86.1409 8.56997C86.0455 7.96092 86.1828 7.33825 86.5257 6.82591C86.8686 6.31357 87.3919 5.94915 87.9913 5.80517C88.4832 5.69182 88.9983 5.73551 89.4641 5.9301C89.9299 6.12468 90.323 6.46038 90.5881 6.88997L96.1489 5.74277C96.3626 5.69597 96.5861 5.73151 96.7748 5.84229C96.9634 5.95307 97.1033 6.13095 97.1665 6.34038C97.1956 6.45048 97.202 6.56537 97.1852 6.67801C97.1683 6.79065 97.1287 6.89868 97.0688 6.9955C97.0088 7.09232 96.9297 7.17589 96.8363 7.2411C96.743 7.30631 96.6373 7.3518 96.5257 7.37477L96.3817 7.40358C96.3603 7.40741 96.3401 7.41612 96.3226 7.42902C96.3052 7.44192 96.2909 7.45867 96.2809 7.47797C96.272 7.49758 96.2674 7.51885 96.2674 7.54038C96.2674 7.5619 96.272 7.58317 96.2809 7.60277L96.3793 7.85718C96.4123 7.93963 96.4155 8.03101 96.3883 8.11556C96.3611 8.20011 96.3053 8.27254 96.2305 8.32038C96.1715 8.35683 96.1216 8.40625 96.0846 8.46489C96.0476 8.52353 96.0245 8.58984 96.0169 8.65877C96.0099 8.73789 95.978 8.81275 95.9258 8.87267C95.8737 8.93258 95.8039 8.97447 95.7265 8.99237L95.6137 9.01637C95.5355 9.03082 95.4548 9.02 95.3831 8.98548C95.3115 8.95096 95.2527 8.89454 95.2153 8.82437C95.1655 8.74067 95.0908 8.67459 95.0017 8.63535C94.9125 8.59611 94.8133 8.58567 94.7179 8.60549C94.6226 8.6253 94.5358 8.67438 94.4696 8.74588C94.4035 8.81739 94.3613 8.90775 94.3489 9.00437C94.3422 9.08299 94.3107 9.15744 94.259 9.21697C94.2072 9.27651 94.1378 9.31804 94.0609 9.33557L93.9481 9.35957C93.87 9.37364 93.7893 9.36265 93.7178 9.32817C93.6462 9.29369 93.5874 9.23748 93.5497 9.16757C93.5138 9.10805 93.4653 9.05705 93.4077 9.0181C93.3501 8.97914 93.2847 8.95317 93.2161 8.94197C93.1238 8.93087 93.0388 8.88646 92.9769 8.81708C92.915 8.7477 92.8806 8.65813 92.8801 8.56517V8.29157C92.8791 8.27017 92.8736 8.24923 92.8638 8.23018C92.8539 8.21114 92.8401 8.19443 92.8233 8.18122C92.8064 8.168 92.7869 8.15858 92.766 8.1536C92.7452 8.14862 92.7235 8.14821 92.7025 8.15237L90.9289 8.51718C90.8566 9.00854 90.6346 9.46568 90.2932 9.82641C89.9518 10.1871 89.5076 10.4339 89.0209 10.5332C88.8574 10.5666 88.691 10.5835 88.5241 10.5836ZM88.0441 6.02358C87.4998 6.15073 87.0238 6.47941 86.7121 6.94343C86.4004 7.40745 86.276 7.97235 86.3641 8.52437C86.4585 9.03794 86.7336 9.50077 87.1396 9.82914C87.5456 10.1575 88.0557 10.3297 88.5776 10.3147C89.0996 10.2996 89.5989 10.0982 89.9853 9.74694C90.3716 9.39568 90.6195 8.91774 90.6841 8.39957V8.31317L92.6401 7.91718C92.6962 7.9036 92.7547 7.90269 92.8112 7.91451C92.8677 7.92634 92.9208 7.95059 92.9668 7.98552C93.0128 8.02046 93.0504 8.06518 93.0769 8.11646C93.1034 8.16774 93.1182 8.22428 93.1201 8.28197V8.55557C93.1207 8.58815 93.1324 8.61954 93.1534 8.64446C93.1744 8.66938 93.2033 8.6863 93.2353 8.69237C93.3402 8.7074 93.4404 8.74612 93.5281 8.80558C93.6158 8.86504 93.6889 8.94369 93.7417 9.03557C93.7544 9.06147 93.7749 9.08278 93.8003 9.09654C93.8257 9.1103 93.8547 9.11583 93.8833 9.11237L93.9937 9.08837C94.0217 9.08117 94.0466 9.06514 94.0648 9.04266C94.0829 9.02018 94.0934 8.99245 94.0945 8.96358C94.1096 8.81417 94.1719 8.67344 94.2722 8.56174C94.3726 8.45003 94.5059 8.37312 94.6528 8.34213C94.7997 8.31114 94.9527 8.32767 95.0897 8.38934C95.2266 8.451 95.3403 8.5546 95.4145 8.68517C95.4268 8.71088 95.4469 8.7321 95.4718 8.74587C95.4968 8.75964 95.5254 8.76527 95.5537 8.76197L95.6689 8.73797C95.6965 8.73034 95.7208 8.71412 95.7385 8.69168C95.7562 8.66923 95.7663 8.64174 95.7673 8.61317C95.7792 8.5078 95.815 8.40653 95.872 8.31711C95.929 8.22768 96.0056 8.15245 96.0961 8.09718C96.1226 8.0781 96.1419 8.05074 96.151 8.01944C96.1601 7.98813 96.1586 7.95468 96.1465 7.92437L96.0481 7.66997C96.0278 7.61753 96.0191 7.56127 96.0228 7.50513C96.0264 7.449 96.0423 7.39434 96.0693 7.34497C96.0962 7.2956 96.1337 7.25271 96.1789 7.21931C96.2242 7.18591 96.2762 7.16279 96.3313 7.15157L96.4777 7.12038C96.5569 7.10348 96.632 7.07078 96.6983 7.02423C96.7646 6.97767 96.8208 6.91823 96.8636 6.84944C96.9064 6.78066 96.9349 6.70395 96.9473 6.6239C96.9598 6.54385 96.956 6.46212 96.9361 6.38358C96.8893 6.23254 96.787 6.1048 96.6499 6.02601C96.5128 5.94722 96.351 5.9232 96.1969 5.95877L90.4801 7.14677L90.4369 7.07237C90.2072 6.66348 89.8507 6.34046 89.4212 6.15211C88.9916 5.96376 88.5125 5.92033 88.0561 6.02837L88.0441 6.02358ZM88.5241 9.69077C88.226 9.69409 87.9333 9.61071 87.6817 9.45077C87.3841 9.25539 87.1635 8.96283 87.0574 8.62298C86.9514 8.28312 86.9665 7.91701 87.1002 7.58705C87.2339 7.25709 87.4779 6.98371 87.7906 6.81352C88.1033 6.64333 88.4653 6.58686 88.815 6.65375C89.1647 6.72063 89.4804 6.90672 89.7082 7.18029C89.936 7.45387 90.0619 7.79799 90.0644 8.154C90.0669 8.51 89.9458 8.85585 89.7218 9.13259C89.4978 9.40932 89.1848 9.59981 88.8361 9.67157C88.734 9.69006 88.6303 9.6981 88.5265 9.69557L88.5241 9.69077ZM88.5241 6.85637C88.4347 6.85688 88.3455 6.86572 88.2577 6.88277C88.0905 6.91839 87.932 6.98659 87.7911 7.08347C87.6503 7.18036 87.5299 7.30404 87.4369 7.44745C87.3438 7.59086 87.2799 7.7512 87.2489 7.9193C87.2178 8.0874 87.2201 8.25998 87.2557 8.42718C87.2913 8.59437 87.3595 8.75292 87.4564 8.89376C87.5533 9.03461 87.677 9.15499 87.8204 9.24803C87.9638 9.34107 88.1241 9.40496 88.2922 9.43604C88.4603 9.46712 88.6329 9.46479 88.8001 9.42917C89.0511 9.37692 89.281 9.25153 89.4609 9.06881C89.6407 8.88608 89.7624 8.6542 89.8107 8.40241C89.8589 8.15061 89.8316 7.89016 89.732 7.65389C89.6325 7.41763 89.4652 7.21612 89.2513 7.07477C89.0388 6.93347 88.7889 6.85907 88.5337 6.86118L88.5241 6.85637Z" fill="white"/>
<path opacity="0.6" d="M84.6003 16.5614C86.1723 16.5614 87.4467 15.7491 87.4467 14.747C87.4467 13.745 86.1723 12.9326 84.6003 12.9326C83.0283 12.9326 81.7539 13.745 81.7539 14.747C81.7539 15.7491 83.0283 16.5614 84.6003 16.5614Z" fill="#0090DF"/>
<path opacity="0.3" d="M80.0711 17.3064C80.7167 17.3064 81.2399 16.9733 81.2399 16.5624C81.2399 16.1515 80.7167 15.8184 80.0711 15.8184C79.4256 15.8184 78.9023 16.1515 78.9023 16.5624C78.9023 16.9733 79.4256 17.3064 80.0711 17.3064Z" fill="#0090DF"/>
</svg>
