<svg width="220" height="194" viewBox="0 0 220 194" fill="none" xmlns="http://www.w3.org/2000/svg">
<g opacity="0.31">
<path d="M94.7691 15.5504C98.0792 14.238 99.6616 10.5808 98.3035 7.38198C96.9454 4.18314 93.161 2.65391 89.8509 3.96637C86.5408 5.27882 84.9584 8.93595 86.3165 12.1348C87.6746 15.3336 91.4589 16.8629 94.7691 15.5504Z" fill="#E2F5FB"/>
</g>
<g opacity="0.31">
<path d="M179.839 9.16845C181.685 9.16845 183.181 7.72223 183.181 5.93823C183.181 4.15423 181.685 2.70801 179.839 2.70801C177.993 2.70801 176.496 4.15423 176.496 5.93823C176.496 7.72223 177.993 9.16845 179.839 9.16845Z" fill="#E2F5FB"/>
</g>
<g opacity="0.31">
<path d="M65.1959 26.6511C66.8382 24.8635 66.67 22.1277 64.8201 20.5406C62.9703 18.9536 60.1394 19.1161 58.4971 20.9038C56.8548 22.6914 57.023 25.4272 58.8729 27.0143C60.7227 28.6014 63.5536 28.4388 65.1959 26.6511Z" fill="#E2F5FB"/>
</g>
<g opacity="0.31">
<path d="M10.1983 190.607C15.8307 190.607 20.3966 186.194 20.3966 180.751C20.3966 175.308 15.8307 170.896 10.1983 170.896C4.56594 170.896 0 175.308 0 180.751C0 186.194 4.56594 190.607 10.1983 190.607Z" fill="#E2F5FB"/>
</g>
<path opacity="0.47" d="M215.098 35.2081C218.005 29.7358 215.771 23.0219 210.108 20.2123C204.445 17.4031 193.563 17.6098 190.656 23.0822C187.749 28.5546 196.464 33.2514 200.018 38.3545C204.975 45.4724 212.191 40.6805 215.098 35.2081Z" fill="#E2F5FB"/>
<path opacity="0.47" d="M192.885 188.015C196.983 190.571 202.448 189.434 205.093 185.474C207.738 181.514 208.399 173.481 204.302 170.925C200.204 168.369 195.84 174.435 191.545 176.666C185.554 179.779 188.788 185.458 192.885 188.015Z" fill="#E2F5FB"/>
<path opacity="0.47" d="M32.3478 6.3984C27.841 2.35391 20.7952 2.60587 16.61 6.96118C12.4248 11.3165 9.77767 21.1513 14.2845 25.1958C18.7913 29.2403 25.591 22.6348 31.4321 20.7755C39.5793 18.182 36.8546 10.4429 32.3478 6.3984Z" fill="#E2F5FB"/>
<path opacity="0.81" d="M24.5732 58.9812C23.9543 65.0301 26.3032 71.2635 24.3393 77.2539C21.9884 84.4257 15.1839 89.7978 12.41 96.8391C8.31109 107.244 8.50797 118.903 13.4855 129.042C15.8847 133.928 19.389 138.469 24.1746 141.61C31.5523 146.451 41.2189 147.513 50.31 146.899C63.8402 145.985 78.117 140.898 91.7207 142.285C99.2276 143.051 101.52 150.107 105.397 154.762C109.782 160.026 115.754 164.161 122.356 166.914C134.515 171.983 149.109 172.463 161.537 167.866C174.805 162.959 186.37 150.974 185.61 137.42C185.258 131.15 182.368 124.922 183.706 118.76C185.385 111.028 192.093 103.982 196.954 97.6822C202.323 90.7247 205.573 82.4276 206.21 73.9629C206.218 73.8668 206.224 73.7707 206.231 73.6751C207.228 59.0722 196.623 45.7538 180.622 41.1837L146.576 31.4595C112.032 21.5922 77.5166 21.9185 45.754 36.3991C38.8807 39.5327 27.6892 48.8688 25.3841 55.3067C24.9494 56.5213 24.6995 57.7475 24.5732 58.9812Z" fill="#E2F5FB"/>
<path opacity="0.58" d="M113.072 5.87133C114.283 5.87133 115.265 4.92251 115.265 3.75207C115.265 2.58164 114.283 1.63281 113.072 1.63281C111.861 1.63281 110.879 2.58164 110.879 3.75207C110.879 4.92251 111.861 5.87133 113.072 5.87133Z" fill="#FDBBA0"/>
<path opacity="0.58" d="M160.126 11.4089C161.068 11.4089 161.831 10.671 161.831 9.76062C161.831 8.85028 161.068 8.1123 160.126 8.1123C159.184 8.1123 158.42 8.85028 158.42 9.76062C158.42 10.671 159.184 11.4089 160.126 11.4089Z" fill="#FDBBA0"/>
<path opacity="0.58" d="M45.356 27.6218C45.7597 27.6218 46.087 27.3055 46.087 26.9154C46.087 26.5253 45.7597 26.209 45.356 26.209C44.9523 26.209 44.625 26.5253 44.625 26.9154C44.625 27.3055 44.9523 27.6218 45.356 27.6218Z" fill="#FDBBA0"/>
<path opacity="0.58" d="M219.942 48.0748C219.638 49.4495 218.238 50.3255 216.816 50.0321C215.394 49.7387 214.487 48.3861 214.791 47.0119C215.095 45.6372 216.494 44.7613 217.916 45.0547C219.339 45.3481 220.246 46.7001 219.942 48.0748Z" fill="#B7E3C0"/>
<path opacity="0.58" d="M39.1425 7.07964C39.0236 7.61887 38.4749 7.96219 37.9169 7.84728C37.3589 7.73237 37.0036 7.20208 37.1225 6.66285C37.2414 6.12362 37.7902 5.7803 38.3482 5.89521C38.9062 6.01012 39.2619 6.5404 39.1425 7.07964Z" fill="#B7E3C0"/>
<path opacity="0.58" d="M203.742 2.88225C203.641 3.34048 203.175 3.63247 202.7 3.53451C202.226 3.43656 201.924 2.98586 202.025 2.52763C202.127 2.0694 202.593 1.77741 203.067 1.87537C203.542 1.97333 203.844 2.42402 203.742 2.88225Z" fill="#FDBBA0"/>
<path opacity="0.58" d="M214.377 156.039C215.588 156.039 216.57 155.09 216.57 153.92C216.57 152.75 215.588 151.801 214.377 151.801C213.165 151.801 212.184 152.75 212.184 153.92C212.184 155.09 213.165 156.039 214.377 156.039Z" fill="#FDBBA0"/>
<path opacity="0.58" d="M33.8492 175.586C35.0604 175.586 36.0422 174.637 36.0422 173.467C36.0422 172.296 35.0604 171.348 33.8492 171.348C32.6381 171.348 31.6562 172.296 31.6562 173.467C31.6562 174.637 32.6381 175.586 33.8492 175.586Z" fill="#FDBBA0"/>
<path opacity="0.58" d="M172.264 184.031C173.206 184.031 173.97 183.293 173.97 182.383C173.97 181.472 173.206 180.734 172.264 180.734C171.322 180.734 170.559 181.472 170.559 182.383C170.559 183.293 171.322 184.031 172.264 184.031Z" fill="#B7E3C0"/>
<path opacity="0.58" d="M2.19298 149.235C3.40412 149.235 4.38595 148.286 4.38595 147.115C4.38595 145.945 3.40412 144.996 2.19298 144.996C0.981829 144.996 0 145.945 0 147.115C0 148.286 0.981829 149.235 2.19298 149.235Z" fill="#B7E3C0"/>
<path opacity="0.58" d="M18.045 190.217C17.9437 190.675 17.4773 190.967 17.0031 190.869C16.529 190.772 16.2268 190.321 16.3282 189.863C16.4295 189.404 16.8959 189.112 17.3701 189.21C17.8443 189.308 18.1464 189.759 18.045 190.217Z" fill="#FDBBA0"/>
<path d="M133.044 13.7933C133.013 13.7114 132.921 13.6705 132.839 13.696L48.4367 44.852L37.9798 48.7094C37.8979 48.7401 37.857 48.8322 37.8826 48.9141L41.5405 58.8185L85.0974 176.843L180.11 141.778C180.192 141.748 180.233 141.655 180.208 141.574L133.044 13.7933Z" fill="white"/>
<g filter="url(#filter0_d_2940_59720)">
<path d="M133.044 13.7933C133.013 13.7114 132.921 13.6705 132.839 13.696L48.4367 44.852L37.9798 48.7094C37.8979 48.7401 37.857 48.8322 37.8826 48.9141L41.5405 58.8185L85.0974 176.843L180.11 141.778C180.192 141.748 180.233 141.655 180.208 141.574L133.044 13.7933Z" fill="white"/>
</g>
<path d="M136.523 52.6009L60.0912 80.8101L59.0117 77.8889L135.444 49.6797L136.523 52.6009Z" fill="#EFEAFD"/>
<path d="M134.297 46.5833L57.8705 74.7925L56.791 71.8713L133.218 43.6621L134.297 46.5833Z" fill="#EFEAFD"/>
<path d="M137.782 56.0555L61.3535 84.2607L62.4321 87.1835L138.86 58.9782L137.782 56.0555Z" fill="#EFEAFD"/>
<path d="M141.142 65.1272L64.7103 93.3364L63.6309 90.4152L140.063 62.2061L141.142 65.1272Z" fill="#EFEAFD"/>
<path d="M143.383 71.2024L66.9564 99.4116L65.877 96.4904L142.309 68.2812L143.383 71.2024Z" fill="#EFEAFD"/>
<path d="M144.645 74.6502L68.2168 102.855L69.2954 105.778L145.723 77.5729L144.645 74.6502Z" fill="#EFEAFD"/>
<path d="M148.002 83.722L71.5756 111.931L70.4961 109.01L146.928 80.8008L148.002 83.722Z" fill="#EFEAFD"/>
<path d="M150.064 89.2981L73.6322 117.502L72.5527 114.581L148.985 86.377L150.064 89.2981Z" fill="#EFEAFD"/>
<path d="M152.416 95.6849L75.9896 123.894L74.9102 120.973L151.337 92.7637L152.416 95.6849Z" fill="#EFEAFD"/>
<path d="M153.68 99.1316L77.252 127.337L78.3306 130.26L154.759 102.054L153.68 99.1316Z" fill="#EFEAFD"/>
<path d="M161.748 119.437L84.8197 147.825L83.7402 144.904L160.668 116.516L161.748 119.437Z" fill="#EFEAFD"/>
<path d="M133.369 133.812L86.082 151.263L87.1606 154.185L134.448 136.734L133.369 133.812Z" fill="#EFEAFD"/>
<path d="M157.037 108.202L80.6107 136.406L79.5312 133.485L155.958 105.275L157.037 108.202Z" fill="#EFEAFD"/>
<path d="M159.151 113.925L82.724 142.134L81.6445 139.213L158.071 111.004L159.151 113.925Z" fill="#EFEAFD"/>
<path d="M116.776 12.9333C116.73 12.8566 116.633 12.831 116.556 12.8719L38.3543 57.3548L28.6647 62.8647C28.588 62.9107 28.5624 63.0079 28.6033 63.0847L33.8267 72.2626L96.0312 181.621L184.061 131.546C184.138 131.5 184.163 131.403 184.122 131.326L116.776 12.9333Z" fill="white"/>
<path d="M134.591 158.58L177.483 134.182L158.533 89.6376L117.938 18.2705L76.8166 34.3754L40.207 55.1972L41.5423 58.8193L68.759 132.56L92.4099 174.148L134.591 158.58Z" fill="#FCFAFE"/>
<g filter="url(#filter1_d_2940_59720)">
<path d="M116.776 12.9909C116.73 12.9142 116.633 12.8886 116.556 12.9295L28.6647 62.9274C28.588 62.9735 28.5624 63.0707 28.6033 63.1474L96.0312 181.678L184.061 131.604C184.138 131.558 184.163 131.46 184.122 131.384L116.776 12.9909Z" fill="white"/>
</g>
<path d="M126.526 50.6614L55.7118 90.9391L54.1719 88.2327L124.986 47.9551L126.526 50.6614Z" fill="#EFEAFD"/>
<path d="M123.354 45.0774L52.5399 85.3602L51 82.6488L121.815 42.3711L123.354 45.0774Z" fill="#EFEAFD"/>
<path d="M128.34 53.8516L57.5254 94.1309L59.0657 96.8389L129.88 56.5596L128.34 53.8516Z" fill="#EFEAFD"/>
<path d="M133.126 62.2561L62.3114 102.539L60.7715 99.8275L131.586 59.5498L133.126 62.2561Z" fill="#EFEAFD"/>
<path d="M136.329 67.8909L65.5145 108.174L63.9746 105.467L134.789 65.1846L136.329 67.8909Z" fill="#EFEAFD"/>
<path d="M138.139 71.0879L67.3242 111.367L68.8646 114.075L139.679 73.796L138.139 71.0879Z" fill="#EFEAFD"/>
<path d="M142.929 79.4898L72.1141 119.767L70.5742 117.061L141.389 76.7783L142.929 79.4898Z" fill="#EFEAFD"/>
<path d="M145.864 84.6507L75.0497 124.933L73.5098 122.227L144.324 81.9443L145.864 84.6507Z" fill="#EFEAFD"/>
<path d="M149.231 90.5667L78.4168 130.849L76.877 128.143L147.692 87.8604L149.231 90.5667Z" fill="#EFEAFD"/>
<path d="M151.041 93.7637L80.2266 134.043L81.7669 136.751L152.582 96.4718L151.041 93.7637Z" fill="#EFEAFD"/>
<path d="M162.301 112.477L91.0262 153.021L89.4863 150.314L160.761 109.771L162.301 112.477Z" fill="#EFEAFD"/>
<path d="M136.656 131.299L92.8418 156.221L94.3821 158.929L138.196 134.007L136.656 131.299Z" fill="#EFEAFD"/>
<path d="M155.824 102.168L85.0145 142.451L83.4746 139.745L154.284 99.4619L155.824 102.168Z" fill="#EFEAFD"/>
<path d="M158.843 107.471L88.0282 147.754L86.4883 145.042L157.303 104.765L158.843 107.471Z" fill="#EFEAFD"/>
<g filter="url(#filter2_d_2940_59720)">
<path d="M86.3925 34.2206L52.4023 49.42V105.245L87.3083 166.616H122.506L153.841 148.792V78.151L126.527 30.0869L86.3925 34.2206Z" fill="#EFEAFD"/>
<path d="M80.469 33.4609L50.7148 50.3895V102.009L89.381 169.99H116.582L152.153 149.756V75.1813L128.421 33.4609H80.469Z" fill="#EFEAFD"/>
<path d="M152.153 31.7621C152.153 31.6751 152.082 31.6035 151.995 31.6035H62.021H50.8734C50.7865 31.6035 50.7148 31.6751 50.7148 31.7621V42.3214V168.127H151.99C152.077 168.127 152.148 168.055 152.148 167.968V31.7621H152.153Z" fill="#FCFAFE"/>
<path d="M83.7477 31.6035L49.957 50.824V100.684L81.4762 156.099C131.019 143.939 149.595 103.359 151.452 73.9582L127.361 31.6086H83.7477V31.6035Z" fill="#FCFAFE"/>
<path d="M151.995 31.6035C152.082 31.6035 152.153 31.6751 152.153 31.7621L152.368 69.5125C152.153 104.434 127.331 159.681 50.7148 159.681V31.7621C50.7148 31.6751 50.7865 31.6035 50.8734 31.6035H151.995Z" fill="white"/>
<path d="M141.972 69.3715H60.5059V66.2559H141.972V69.3715Z" fill="#EFEAFD"/>
<path d="M141.972 62.9496H60.5059V59.834H141.972V62.9496Z" fill="#EFEAFD"/>
<path d="M132.968 52.2319H72.8047V48.4922H132.968V52.2319Z" fill="#EFEAFD"/>
<path d="M141.977 73.0459H60.5059V76.1615H141.977V73.0459Z" fill="#EFEAFD"/>
<path d="M141.972 82.716H60.5059V79.6055H141.972V82.716Z" fill="#EFEAFD"/>
<path d="M141.972 89.1964H60.5059V86.0859H141.972V89.1964Z" fill="#EFEAFD"/>
<path d="M141.977 92.8691H60.5059V95.9847H141.977V92.8691Z" fill="#EFEAFD"/>
<path d="M141.972 102.543H60.5059V99.4277H141.972V102.543Z" fill="#EFEAFD"/>
<path d="M141.972 108.482H60.5059V105.366H141.972V108.482Z" fill="#EFEAFD"/>
<path d="M141.972 115.286H60.5059V112.171H141.972V115.286Z" fill="#EFEAFD"/>
<path d="M140.99 118.954H60.5059V122.07H140.99V118.954Z" fill="#EFEAFD"/>
<path d="M142.504 140.794H60.5059V137.679H142.504V140.794Z" fill="#EFEAFD"/>
<path d="M110.913 144.47H60.5059V147.585H110.913V144.47Z" fill="#E4D6F6"/>
<path d="M60.5059 144.47V147.585H104.958C106.841 146.593 108.662 145.554 110.417 144.47H60.5059Z" fill="#EFEAFD"/>
<path d="M141.971 112.171V115.287H139.193C139.812 114.253 140.411 113.215 140.984 112.171H141.971Z" fill="#E4D6F6"/>
<path d="M141.28 118.954V122.07H134.676C135.361 121.041 136.016 120.003 136.651 118.954H141.28Z" fill="#E4D6F6"/>
<path d="M142.505 137.679V140.794H115.887C117.273 139.786 118.619 138.748 119.913 137.679H142.505Z" fill="#E4D6F6"/>
<path d="M141.972 128.629H60.5059V125.514H141.972V128.629Z" fill="#E4D6F6"/>
<path d="M60.5059 125.514V128.629H129.361C130.277 127.606 131.167 126.568 132.021 125.514H60.5059Z" fill="#EFEAFD"/>
<path d="M141.972 134.727H60.5059V131.611H141.972V134.727Z" fill="#E4D6F6"/>
<path d="M60.5059 131.611V134.727H123.319C124.434 133.709 125.509 132.67 126.552 131.611H60.5059Z" fill="#EFEAFD"/>
</g>
<path d="M144.511 77.515C144.47 76.0826 144.496 74.6501 144.424 73.2227C144.352 71.821 144.224 70.4192 144.097 69.0226C144.02 68.2091 143.943 67.3957 143.877 66.5823C143.263 65.5949 142.669 64.6024 142.081 63.5997C141.104 61.937 140.152 60.259 139.155 58.6066C138.643 57.7624 138.126 56.9132 137.589 56.0793C137.037 55.4705 136.469 54.8771 135.906 54.2785C135.297 53.6339 134.693 52.9842 134.11 52.3191C133.834 52.0019 133.563 51.6796 133.297 51.3522C133.041 51.035 132.79 50.7178 132.54 50.3955H107.809C107.779 50.4057 107.748 50.4211 107.717 50.4313C106.812 52.5749 105.471 54.4627 103.706 56.1049C102.284 57.6345 100.673 58.847 98.8718 59.7321C98.3448 61.2924 97.6082 62.7249 96.6617 64.0397C96.6566 64.7917 96.6259 65.5489 96.5338 66.306C96.1297 69.703 95.6846 73.0693 95.0297 76.4253C94.9376 76.9062 94.8404 77.3922 94.7484 77.8731C94.6614 79.1061 94.6102 80.339 94.5795 81.5719C94.5591 82.3956 94.5488 83.2244 94.5488 84.048C95.485 84.7694 96.4213 85.4958 97.3575 86.2172C99.7926 88.6677 101.547 91.507 102.632 94.7454C105.118 95.1956 107.492 96.0705 109.743 97.3801L111.058 98.3982C111.61 98.4135 112.158 98.4289 112.71 98.4442C116.793 98.5568 120.896 98.6438 124.973 98.3266C125.505 98.214 126.037 98.0861 126.564 97.9378C128.826 97.3034 131.01 96.4183 133.292 95.8607C133.491 95.6561 133.691 95.4463 133.89 95.2366C135.405 93.6353 136.847 91.9624 138.275 90.2843C138.924 89.5221 139.554 88.724 140.244 87.9975C140.766 87.445 141.334 86.9283 141.912 86.4372C142.853 85.6289 143.841 84.8717 144.813 84.089C144.813 84.0736 144.813 84.0583 144.813 84.0429C144.705 81.8635 144.572 79.6893 144.511 77.515Z" fill="#EFEAFD"/>
<path d="M144.511 77.515C144.47 76.0826 144.496 74.6501 144.424 73.2227C144.352 71.821 144.224 70.4192 144.097 69.0226C144.02 68.2091 143.943 67.3957 143.877 66.5823C143.263 65.5949 142.669 64.6024 142.081 63.5997C141.104 61.937 140.152 60.259 139.155 58.6066C138.643 57.7624 138.126 56.9132 137.589 56.0793C137.037 55.4705 136.469 54.8771 135.906 54.2785C135.297 53.6339 134.693 52.9842 134.11 52.3191C133.834 52.0019 133.563 51.6796 133.297 51.3522C133.041 51.035 132.79 50.7178 132.54 50.3955H107.809C107.779 50.4057 107.748 50.4211 107.717 50.4313C106.812 52.5749 105.471 54.4627 103.706 56.1049C102.284 57.6345 100.673 58.847 98.8718 59.7321C98.3448 61.2924 97.6082 62.7249 96.6617 64.0397C96.6566 64.7917 96.6259 65.5489 96.5338 66.306C96.1297 69.703 95.6846 73.0693 95.0297 76.4253C94.9376 76.9062 94.8404 77.3922 94.7484 77.8731C94.6614 79.1061 94.6102 80.339 94.5795 81.5719C94.5591 82.3956 94.5488 83.2244 94.5488 84.048C95.485 84.7694 96.4213 85.4958 97.3575 86.2172C99.7926 88.6677 101.547 91.507 102.632 94.7454C105.118 95.1956 107.492 96.0705 109.743 97.3801L111.058 98.3982C111.61 98.4135 112.158 98.4289 112.71 98.4442C116.793 98.5568 120.896 98.6438 124.973 98.3266C125.505 98.214 126.037 98.0861 126.564 97.9378C128.826 97.3034 131.01 96.4183 133.292 95.8607C133.491 95.6561 133.691 95.4463 133.89 95.2366C135.405 93.6353 136.847 91.9624 138.275 90.2843C138.924 89.5221 139.554 88.724 140.244 87.9975C140.766 87.445 141.334 86.9283 141.912 86.4372C142.853 85.6289 143.841 84.8717 144.813 84.089C144.813 84.0736 144.813 84.0583 144.813 84.0429C144.705 81.8635 144.572 79.6893 144.511 77.515Z" fill="#EFEAFD"/>
<path d="M144.511 77.515C144.47 76.0826 144.496 74.6501 144.424 73.2227C144.352 71.821 144.224 70.4192 144.097 69.0226C144.02 68.2091 143.943 67.3957 143.877 66.5823C143.263 65.5949 142.669 64.6024 142.081 63.5997C141.104 61.937 140.152 60.259 139.155 58.6066C138.643 57.7624 138.126 56.9132 137.589 56.0793C137.037 55.4705 136.469 54.8771 135.906 54.2785C135.297 53.6339 134.693 52.9842 134.11 52.3191C133.834 52.0019 133.563 51.6796 133.297 51.3522C133.041 51.035 132.79 50.7178 132.54 50.3955H107.809C107.779 50.4057 107.748 50.4211 107.717 50.4313C106.812 52.5749 105.471 54.4627 103.706 56.1049C102.284 57.6345 100.673 58.847 98.8718 59.7321C98.3448 61.2924 97.6082 62.7249 96.6617 64.0397C96.6566 64.7917 96.6259 65.5489 96.5338 66.306C96.1297 69.703 95.6846 73.0693 95.0297 76.4253C94.9376 76.9062 94.8404 77.3922 94.7484 77.8731C94.6614 79.1061 94.6102 80.339 94.5795 81.5719C94.5591 82.3956 94.5488 83.2244 94.5488 84.048C95.485 84.7694 96.4213 85.4958 97.3575 86.2172C99.7926 88.6677 101.547 91.507 102.632 94.7454C105.118 95.1956 107.492 96.0705 109.743 97.3801L111.058 98.3982C111.61 98.4135 112.158 98.4289 112.71 98.4442C116.793 98.5568 120.896 98.6438 124.973 98.3266C125.505 98.214 126.037 98.0861 126.564 97.9378C128.826 97.3034 131.01 96.4183 133.292 95.8607C133.491 95.6561 133.691 95.4463 133.89 95.2366C135.405 93.6353 136.847 91.9624 138.275 90.2843C138.924 89.5221 139.554 88.724 140.244 87.9975C140.766 87.445 141.334 86.9283 141.912 86.4372C142.853 85.6289 143.841 84.8717 144.813 84.089C144.813 84.0736 144.813 84.0583 144.813 84.0429C144.705 81.8635 144.572 79.6893 144.511 77.515Z" fill="#FCFAFE"/>
<path d="M144.511 77.515C144.47 76.0826 144.496 74.6501 144.424 73.2227C144.352 71.821 144.224 70.4192 144.097 69.0226C144.02 68.2091 143.943 67.3957 143.877 66.5823C143.263 65.5949 142.669 64.6024 142.081 63.5997C141.104 61.937 140.152 60.259 139.155 58.6066C138.643 57.7624 138.126 56.9132 137.589 56.0793C137.037 55.4705 136.469 54.8771 135.906 54.2785C135.297 53.6339 134.693 52.9842 134.11 52.3191C133.834 52.0019 133.563 51.6796 133.297 51.3522C133.041 51.035 132.79 50.7178 132.54 50.3955H107.809C107.779 50.4057 107.748 50.4211 107.717 50.4313C106.812 52.5749 105.471 54.4627 103.706 56.1049C102.284 57.6345 100.673 58.847 98.8718 59.7321C98.3448 61.2924 97.6082 62.7249 96.6617 64.0397C96.6566 64.7917 96.6259 65.5489 96.5338 66.306C96.1297 69.703 95.6846 73.0693 95.0297 76.4253C94.9376 76.9062 94.8404 77.3922 94.7484 77.8731C94.6614 79.1061 94.6102 80.339 94.5795 81.5719C94.5591 82.3956 94.5488 83.2244 94.5488 84.048C95.485 84.7694 96.4213 85.4958 97.3575 86.2172C99.7926 88.6677 101.547 91.507 102.632 94.7454C105.118 95.1956 107.492 96.0705 109.743 97.3801L111.058 98.3982C111.61 98.4135 112.158 98.4289 112.71 98.4442C116.793 98.5568 120.896 98.6438 124.973 98.3266C125.505 98.214 126.037 98.0861 126.564 97.9378C128.826 97.3034 131.01 96.4183 133.292 95.8607C133.491 95.6561 133.691 95.4463 133.89 95.2366C135.405 93.6353 136.847 91.9624 138.275 90.2843C138.924 89.5221 139.554 88.724 140.244 87.9975C140.766 87.445 141.334 86.9283 141.912 86.4372C142.853 85.6289 143.841 84.8717 144.813 84.089C144.813 84.0736 144.813 84.0583 144.813 84.0429C144.705 81.8635 144.572 79.6893 144.511 77.515Z" fill="#FCFAFE"/>
<path d="M144.511 77.515C144.47 76.0826 144.496 74.6501 144.424 73.2227C144.352 71.821 144.224 70.4192 144.097 69.0226C144.02 68.2091 143.943 67.3957 143.877 66.5823C143.263 65.5949 142.669 64.6024 142.081 63.5997C141.104 61.937 140.152 60.259 139.155 58.6066C138.643 57.7624 138.126 56.9132 137.589 56.0793C137.037 55.4705 136.469 54.8771 135.906 54.2785C135.297 53.6339 134.693 52.9842 134.11 52.3191C133.834 52.0019 133.563 51.6796 133.297 51.3522C133.041 51.035 132.79 50.7178 132.54 50.3955H107.809C107.779 50.4057 107.748 50.4211 107.717 50.4313C106.812 52.5749 105.471 54.4627 103.706 56.1049C102.284 57.6345 100.673 58.847 98.8718 59.7321C98.3448 61.2924 97.6082 62.7249 96.6617 64.0397C96.6566 64.7917 96.6259 65.5489 96.5338 66.306C96.1297 69.703 95.6846 73.0693 95.0297 76.4253C94.9376 76.9062 94.8404 77.3922 94.7484 77.8731C94.6614 79.1061 94.6102 80.339 94.5795 81.5719C94.5591 82.3956 94.5488 83.2244 94.5488 84.048C95.485 84.7694 96.4213 85.4958 97.3575 86.2172C99.7926 88.6677 101.547 91.507 102.632 94.7454C105.118 95.1956 107.492 96.0705 109.743 97.3801L111.058 98.3982C111.61 98.4135 112.158 98.4289 112.71 98.4442C116.793 98.5568 120.896 98.6438 124.973 98.3266C125.505 98.214 126.037 98.0861 126.564 97.9378C128.826 97.3034 131.01 96.4183 133.292 95.8607C133.491 95.6561 133.691 95.4463 133.89 95.2366C135.405 93.6353 136.847 91.9624 138.275 90.2843C138.924 89.5221 139.554 88.724 140.244 87.9975C140.766 87.445 141.334 86.9283 141.912 86.4372C142.853 85.6289 143.841 84.8717 144.813 84.089C144.813 84.0736 144.813 84.0583 144.813 84.0429C144.705 81.8635 144.572 79.6893 144.511 77.515Z" fill="white"/>
<path d="M96.543 66.2964C96.4407 67.161 96.3333 68.0256 96.2207 68.8851H144.085C144.014 68.1177 143.942 67.3503 143.881 66.5829C143.594 66.1225 143.313 65.657 143.031 65.1914H96.6402C96.6146 65.5546 96.5839 65.9281 96.543 66.2964Z" fill="#EFEAFD"/>
<path d="M139.16 58.6055C138.955 58.2627 138.745 57.9199 138.536 57.5771H102.172C101.159 58.4315 100.059 59.1477 98.8822 59.7258C98.7032 60.2528 98.4985 60.7695 98.2734 61.2708H140.736C140.214 60.3807 139.692 59.4905 139.16 58.6055Z" fill="#EFEAFD"/>
<path d="M95.0398 76.418C95.004 76.5919 94.9733 76.7658 94.9375 76.9398H144.495C144.475 75.7068 144.485 74.4739 144.424 73.2461H95.5975C95.4286 74.3 95.2445 75.359 95.0398 76.418Z" fill="#EFEAFD"/>
<path d="M144.659 81.0186H94.6046C94.5995 81.1976 94.5944 81.3818 94.5893 81.5608C94.5688 82.3845 94.5586 83.2133 94.5586 84.0369C94.8502 84.262 95.1367 84.4871 95.4283 84.7071H144.024C144.29 84.4974 144.556 84.2876 144.823 84.0728C144.823 84.0574 144.823 84.0472 144.823 84.0318C144.766 83.0342 144.71 82.0264 144.659 81.0186Z" fill="#EFEAFD"/>
<path d="M138.285 90.2757C138.725 89.759 139.16 89.2218 139.605 88.7051H99.5117C100.366 89.8664 101.103 91.0942 101.712 92.3988H136.454C137.073 91.6979 137.682 90.9868 138.285 90.2757Z" fill="#EFEAFD"/>
<path d="M111.073 98.3917C111.626 98.4071 112.173 98.4224 112.726 98.4378C116.808 98.5503 120.911 98.6373 124.988 98.3201C125.52 98.2076 126.053 98.0797 126.579 97.9313C127.818 97.5834 129.035 97.1588 130.258 96.7598H108.633C109.011 96.9542 109.39 97.1588 109.763 97.3737L111.073 98.3917Z" fill="#EFEAFD"/>
<path d="M128.774 99.7277L124.102 100.824L130.328 127.352L135 126.256L128.774 99.7277Z" fill="#5D5D89"/>
<path d="M145.744 155.745L132.913 108.479C132.724 107.773 132.007 107.349 131.296 107.513L125.587 108.838C124.881 109.001 124.426 109.697 124.564 110.408L133.634 158.534C134.079 160.887 136.392 162.396 138.725 161.854L142.633 160.943C144.956 160.411 146.368 158.048 145.744 155.745Z" fill="#3F3F63"/>
<path d="M133.271 156.6C133.818 156.636 134.376 156.59 134.934 156.462C138.019 155.746 139.942 152.661 139.221 149.576L132.222 119.474C131.516 116.43 128.503 114.517 125.459 115.156L133.271 156.6Z" fill="#5D5D89"/>
<path d="M124.907 114.181L125.536 118.095C125.582 118.366 125.853 118.545 126.124 118.479L135.026 116.391C135.297 116.325 135.461 116.048 135.384 115.788L134.238 111.997C134.166 111.756 133.911 111.613 133.665 111.674L125.28 113.644C125.029 113.695 124.866 113.936 124.907 114.181Z" fill="#FF1744"/>
<path d="M129.751 103.921L128.768 99.7256L124.098 100.82L124.839 103.977C126.41 104.524 128.149 104.519 129.751 103.921Z" fill="#3F3F63"/>
<path opacity="0.22" d="M134.566 50.8471C147.284 58.7358 151.203 75.4444 143.324 88.1677C135.446 100.891 118.747 104.81 106.029 96.9211C93.3108 89.0323 89.392 72.3237 97.2706 59.6004C105.149 46.8771 121.847 42.9583 134.566 50.8471Z" fill="white"/>
<path d="M147.913 65.9626C149.008 69.7791 149.305 73.7081 148.793 77.6269C148.266 81.6889 146.895 85.5259 144.721 89.0354C140.679 95.5633 134.336 100.122 126.866 101.876C119.397 103.631 111.687 102.367 105.165 98.3208C99.0817 94.5504 94.6513 88.6875 92.6817 81.8117C91.5869 77.9952 91.2902 74.0662 91.8018 70.1474C92.3287 66.0854 93.6998 62.2484 95.874 58.7389C99.9156 52.211 106.259 47.6527 113.729 45.8979C121.198 44.1432 128.908 45.4068 135.43 49.4535C141.513 53.2239 145.944 59.0868 147.913 65.9626ZM97.4804 80.4304C99.1073 86.1091 102.77 90.9539 107.794 94.0695C113.186 97.4153 119.551 98.4538 125.725 97.006C131.9 95.5582 137.139 91.7878 140.475 86.3956C143.994 80.7118 144.956 73.7644 143.114 67.3337C141.488 61.655 137.825 56.8102 132.801 53.6946C127.409 50.3488 121.044 49.3103 114.869 50.7581C108.695 52.2059 103.456 55.9763 100.12 61.3685C96.5954 67.0523 95.6336 73.9997 97.4804 80.4304Z" fill="#5D5D89"/>
<path d="M147.912 65.9619C145.942 59.0861 141.507 53.2232 135.429 49.4528C134.6 48.9412 133.756 48.4705 132.892 48.0459C132.165 48.8951 131.505 49.8058 130.871 50.7164C130.538 51.1922 130.211 51.6731 129.889 52.154C130.886 52.5991 131.858 53.1107 132.805 53.699C137.829 56.8146 141.778 61.5826 143.118 67.338C145.083 75.7742 143.037 81.6984 141.609 84.5224C141.046 85.6326 141.425 86.9883 142.484 87.6483C142.505 87.6636 142.525 87.6738 142.551 87.6892C143.743 88.431 145.313 87.991 145.953 86.7376C146.275 86.1032 146.551 85.5558 146.602 85.4331C147.18 84.1592 147.682 82.8495 148.076 81.5091C148.894 78.721 149.16 75.8612 149.032 72.9656C148.925 70.5918 148.567 68.2384 147.912 65.9619Z" fill="#3F3F63"/>
<path d="M131.2 117.293C129.875 115.554 127.603 114.653 125.337 115.185C125.25 115.206 125.163 115.226 125.076 115.252L125.537 118.102C125.583 118.373 125.854 118.552 126.125 118.485L131.2 117.293Z" fill="#FF597A"/>
<path d="M108.879 93.8187C103.855 90.7031 100.192 85.8584 98.5653 80.1797C96.7236 73.749 97.6854 66.8015 101.205 61.1178C104.454 55.8739 109.534 52.1598 115.484 50.625C115.279 50.6659 115.074 50.712 114.87 50.758C108.695 52.2058 103.456 55.9763 100.121 61.3684C96.6008 67.0522 95.639 73.9997 97.4808 80.4304C99.1076 86.109 102.771 90.9538 107.794 94.0694C113.187 97.4152 119.551 98.4538 125.726 97.006C125.895 96.965 125.726 97.0111 125.895 96.965C119.914 98.2133 114.087 97.052 108.879 93.8187Z" fill="#3F3F63"/>
<path d="M98.0381 65.6171C98.9488 63.1564 100.269 60.844 101.962 58.7822C105.993 53.8863 111.687 50.8526 118 50.2438C122.364 49.8243 126.662 50.5968 130.514 52.4436C131.537 52.9347 132.765 52.6636 133.486 51.7888C133.497 51.7734 133.507 51.7632 133.517 51.7478C134.54 50.5149 134.136 48.6425 132.693 47.9467C128.023 45.6957 122.809 44.7595 117.52 45.2711C109.881 46.0078 102.985 49.681 98.1046 55.6053C96.4164 57.6567 95.0402 59.8873 93.9863 62.2713L98.0381 65.6171Z" fill="#5D5D89"/>
<path d="M105.16 98.3191L107.789 94.0729C107.789 94.0729 99.5167 89.2026 97.4755 80.4339C96.2681 75.231 96.3806 69.8234 98.3042 64.9531C98.7289 63.8736 98.3605 62.6509 97.3987 61.9961C97.3782 61.9807 97.3578 61.9654 97.3373 61.9552C96.043 61.0701 94.2575 61.6073 93.6641 63.0602C92.7432 65.3266 92.114 67.6952 91.7968 70.1458C91.2852 74.0697 91.7763 77.9424 92.6767 81.8101C95.1324 92.354 105.16 98.3191 105.16 98.3191Z" fill="#8383B7"/>
<path d="M133.031 97.9327C132.601 96.8686 132.156 95.7789 131.608 94.7454C131.516 94.7966 131.424 94.8478 131.327 94.8938C125.715 97.8457 119.289 98.4391 113.232 96.5565C110.659 95.7584 108.27 94.5408 106.152 92.9702C105.384 92.4024 104.356 92.3205 103.507 92.7656C101.875 93.6199 101.696 95.8863 103.174 96.9811C105.742 98.8842 108.638 100.358 111.753 101.325C119.059 103.596 126.81 102.895 133.588 99.3498C133.399 98.8791 133.22 98.4033 133.031 97.9327Z" fill="#5D5D89"/>
<path d="M143.114 67.3384C141.487 61.6597 137.824 56.8149 132.8 53.6993C127.408 50.3535 121.044 49.315 114.869 50.7628C114.664 50.8139 114.455 50.8651 114.25 50.9162C120.2 49.7089 126.743 50.6911 131.926 53.9039C136.949 57.0195 140.612 61.8643 142.239 67.543C144.081 73.9737 143.119 80.9211 139.599 86.6049C136.371 91.818 131.808 95.4196 125.904 96.9698C126.139 96.9237 126.047 96.9288 126.283 96.8726C132.458 95.4248 137.134 91.7925 140.474 86.4003C143.994 80.7165 144.956 73.7691 143.114 67.3384Z" fill="#8383B7"/>
<path d="M116.541 85.7404L105.424 74.7975C104.887 74.2705 104.882 73.4059 105.409 72.8688L108.279 69.9527C108.806 69.4155 109.671 69.4104 110.208 69.9373L116.541 76.1736C117.073 76.6955 117.923 76.6955 118.455 76.1736L130.753 64.0643C131.29 63.5373 132.155 63.5424 132.682 64.0796L135.552 66.9957C136.079 67.5329 136.074 68.3974 135.537 68.9244L118.455 85.7404C117.923 86.2622 117.073 86.2622 116.541 85.7404Z" fill="#00E0A8"/>
<defs>
<filter id="filter0_d_2940_59720" x="22.875" y="0.688477" width="172.34" height="193.154" filterUnits="userSpaceOnUse" color-interpolation-filters="sRGB">
<feFlood flood-opacity="0" result="BackgroundImageFix"/>
<feColorMatrix in="SourceAlpha" type="matrix" values="0 0 0 0 0 0 0 0 0 0 0 0 0 0 0 0 0 0 127 0" result="hardAlpha"/>
<feOffset dy="2"/>
<feGaussianBlur stdDeviation="7.5"/>
<feComposite in2="hardAlpha" operator="out"/>
<feColorMatrix type="matrix" values="0 0 0 0 0.262745 0 0 0 0 0.219608 0 0 0 0 0.788235 0 0 0 0.1 0"/>
<feBlend mode="normal" in2="BackgroundImageFix" result="effect1_dropShadow_2940_59720"/>
<feBlend mode="normal" in="SourceGraphic" in2="effect1_dropShadow_2940_59720" result="shape"/>
</filter>
<filter id="filter1_d_2940_59720" x="26.584" y="11.9102" width="159.557" height="172.768" filterUnits="userSpaceOnUse" color-interpolation-filters="sRGB">
<feFlood flood-opacity="0" result="BackgroundImageFix"/>
<feColorMatrix in="SourceAlpha" type="matrix" values="0 0 0 0 0 0 0 0 0 0 0 0 0 0 0 0 0 0 127 0" result="hardAlpha"/>
<feOffset dy="1"/>
<feGaussianBlur stdDeviation="1"/>
<feComposite in2="hardAlpha" operator="out"/>
<feColorMatrix type="matrix" values="0 0 0 0 0.262745 0 0 0 0 0.219608 0 0 0 0 0.788235 0 0 0 0.05 0"/>
<feBlend mode="normal" in2="BackgroundImageFix" result="effect1_dropShadow_2940_59720"/>
<feBlend mode="normal" in="SourceGraphic" in2="effect1_dropShadow_2940_59720" result="shape"/>
</filter>
<filter id="filter2_d_2940_59720" x="45.957" y="27.0869" width="111.885" height="147.902" filterUnits="userSpaceOnUse" color-interpolation-filters="sRGB">
<feFlood flood-opacity="0" result="BackgroundImageFix"/>
<feColorMatrix in="SourceAlpha" type="matrix" values="0 0 0 0 0 0 0 0 0 0 0 0 0 0 0 0 0 0 127 0" result="hardAlpha"/>
<feOffset dy="1"/>
<feGaussianBlur stdDeviation="2"/>
<feComposite in2="hardAlpha" operator="out"/>
<feColorMatrix type="matrix" values="0 0 0 0 0.262745 0 0 0 0 0.219608 0 0 0 0 0.788235 0 0 0 0.1 0"/>
<feBlend mode="normal" in2="BackgroundImageFix" result="effect1_dropShadow_2940_59720"/>
<feBlend mode="normal" in="SourceGraphic" in2="effect1_dropShadow_2940_59720" result="shape"/>
</filter>
</defs>
</svg>
