<svg width="200" height="173" viewBox="0 0 200 173" fill="none" xmlns="http://www.w3.org/2000/svg">
<g opacity="0.41">
<path d="M198.123 103.868C198.311 101.133 198.226 98.3867 197.862 95.6668C196.151 82.8871 188.399 70.8364 176.99 62.3336C172.919 59.3002 168.288 56.5826 165.639 52.5784C161.178 45.8351 161.516 38.0853 155.98 31.4273C150.437 24.7614 142.359 19.5631 133.25 16.8933C106.09 8.93321 68.0648 21.8939 71.4885 49.5718C71.5008 49.6712 71.5139 49.8155 71.5284 49.998C71.9837 55.7472 66.6486 60.5812 59.8588 60.7173C34.8 61.2204 13.2297 77.5616 8.61403 98.2613C5.64565 111.573 10.5061 126.164 22.0191 135.582C30.6132 142.611 42.1438 146.473 53.68 149.127C76.8108 154.447 101.152 155.562 125.001 153.528C147.326 151.623 170.875 146.195 185.313 131.668C193.016 123.918 197.428 113.98 198.123 103.868Z" fill="#E1E2FE"/>
</g>
<g opacity="0.31">
<path d="M85.5664 14.5387C88.5455 13.3575 89.9697 10.0662 88.7474 7.18723C87.5251 4.30831 84.1192 2.93202 81.1402 4.11322C78.1611 5.29441 76.7369 8.58578 77.9592 11.4647C79.1815 14.3436 82.5874 15.7199 85.5664 14.5387Z" fill="#E1E2FE"/>
</g>
<g opacity="0.31">
<path d="M162.129 8.79577C163.791 8.79577 165.138 7.49419 165.138 5.88861C165.138 4.28303 163.791 2.98145 162.129 2.98145C160.468 2.98145 159.121 4.28303 159.121 5.88861C159.121 7.49419 160.468 8.79577 162.129 8.79577Z" fill="#E1E2FE"/>
</g>
<g opacity="0.31">
<path d="M58.9512 24.528C60.4292 22.9191 60.2778 20.457 58.613 19.0286C56.9482 17.6002 54.4004 17.7466 52.9223 19.3554C51.4443 20.9643 51.5957 23.4265 53.2605 24.8548C54.9254 26.2832 57.4732 26.1369 58.9512 24.528Z" fill="#E1E2FE"/>
</g>
<g opacity="0.31">
<path d="M9.45376 172.088C14.5228 172.088 18.6321 168.117 18.6321 163.218C18.6321 158.32 14.5228 154.349 9.45376 154.349C4.38468 154.349 0.275391 158.32 0.275391 163.218C0.275391 168.117 4.38468 172.088 9.45376 172.088Z" fill="#E1E2FE"/>
</g>
<path opacity="0.47" d="M198.853 25.5763C201.47 20.6512 199.459 14.6089 194.362 12.0802C189.266 9.55194 179.472 9.73801 176.855 14.6631C174.239 19.5882 182.083 23.8152 185.281 28.408C189.742 34.814 196.236 30.5014 198.853 25.5763Z" fill="#ECF1F7"/>
<path opacity="0.47" d="M173.568 158.955C177.256 161.255 182.174 160.232 184.555 156.668C186.936 153.104 187.53 145.875 183.843 143.574C180.155 141.274 176.227 146.733 172.361 148.741C166.97 151.543 169.88 156.654 173.568 158.955Z" fill="#E1E2FE"/>
<path opacity="0.47" d="M26.0583 2.97796C22.0022 -0.662031 15.6611 -0.435273 11.8945 3.48446C8.12786 7.40419 5.74544 16.2554 9.80152 19.8954C13.8576 23.5354 19.9772 17.5905 25.2342 15.9171C32.5665 13.583 30.1144 6.61795 26.0583 2.97796Z" fill="#E1E2FE"/>
<path opacity="0.47" d="M3.70071 45.2904C0.084974 52.8764 -0.90273 61.622 0.832331 69.798C2.87177 79.41 9.06422 86.7947 6.91557 97.0488C5.60682 103.295 5.27919 109.081 4.6156 115.261C3.25291 127.951 11.7787 139.132 22.3557 145.17C30.9463 150.074 41.0177 151.914 50.8943 151.783C59.7836 151.665 68.6572 150.079 77.271 147.946C85.5722 145.89 93.6883 143.182 102.39 144.036C109.626 144.747 116.144 147.77 122.883 150.025C138.973 155.407 158.463 156.166 173.176 147.973C182.619 142.714 189.228 134.174 192.159 124.993C194.501 117.655 194.799 110.794 193.043 103.303C191.24 95.6115 188.197 87.8581 189.142 79.844C189.8 74.2594 192.443 68.8694 191.959 63.2683C191.637 59.5465 189.942 56.0548 187.868 52.9035C180.297 41.3965 167.62 33.6923 154.211 29.4474C141.591 25.4527 128.577 22.5595 115.438 23.5208C88.2739 25.5078 82.7363 21.3384 54.9753 15.6004C37.0533 11.896 17.0058 25.1009 6.51821 40.3984C5.44805 41.9577 4.50903 43.595 3.70071 45.2904Z" fill="#E1E2FE"/>
<path opacity="0.81" d="M22.3888 53.6338C21.8318 59.0777 23.9458 64.6877 22.1783 70.0791C20.0625 76.5336 13.9385 81.3684 11.442 87.7055C7.75304 97.0698 7.93023 107.563 12.41 116.688C14.5692 121.085 17.7231 125.172 22.03 127.999C28.6698 132.356 37.3697 133.311 45.5516 132.759C57.7286 131.936 70.5775 127.358 82.8207 128.607C89.5768 129.296 91.6399 135.646 95.1293 139.835C99.0757 144.573 104.45 148.294 110.392 150.772C121.335 155.334 134.469 155.766 145.654 151.629C157.596 147.212 168.004 136.426 167.32 124.228C167.003 118.584 164.402 112.979 165.606 107.434C167.118 100.475 173.155 94.1341 177.53 88.4643C182.361 82.2026 185.286 74.7353 185.86 67.1172C185.867 67.0307 185.873 66.9442 185.879 66.8581C186.776 53.7157 177.231 41.7294 162.83 37.6163L132.19 28.8646C101.1 19.9842 70.0372 20.2778 41.4512 33.3102C35.2653 36.1304 25.1931 44.5328 23.1186 50.3268C22.7274 51.42 22.5024 52.5235 22.3888 53.6338Z" fill="#E2F5FB"/>
<path opacity="0.58" d="M102.038 5.82926C103.128 5.82926 104.012 4.97533 104.012 3.92196C104.012 2.86858 103.128 2.01465 102.038 2.01465C100.948 2.01465 100.064 2.86858 100.064 3.92196C100.064 4.97533 100.948 5.82926 102.038 5.82926Z" fill="#FDBBA0"/>
<path opacity="0.58" d="M144.387 10.8087C145.234 10.8087 145.922 10.1446 145.922 9.32526C145.922 8.50597 145.234 7.8418 144.387 7.8418C143.539 7.8418 142.852 8.50597 142.852 9.32526C142.852 10.1446 143.539 10.8087 144.387 10.8087Z" fill="#FDBBA0"/>
<path opacity="0.58" d="M41.0954 25.4044C41.4587 25.4044 41.7533 25.1197 41.7533 24.7686C41.7533 24.4175 41.4587 24.1328 41.0954 24.1328C40.732 24.1328 40.4375 24.4175 40.4375 24.7686C40.4375 25.1197 40.732 25.4044 41.0954 25.4044Z" fill="#FDBBA0"/>
<path opacity="0.58" d="M198.219 43.8101C197.946 45.0473 196.687 45.8357 195.407 45.5716C194.126 45.3075 193.311 44.0903 193.584 42.8535C193.857 41.6163 195.117 40.8279 196.397 41.092C197.677 41.356 198.493 42.5729 198.219 43.8101Z" fill="#B7E3C0"/>
<path opacity="0.58" d="M35.5027 6.91502C35.3956 7.40032 34.9018 7.70931 34.3996 7.60589C33.8974 7.50247 33.5777 7.02522 33.6847 6.53991C33.7917 6.05461 34.2856 5.74563 34.7878 5.84904C35.2899 5.95246 35.6101 6.42971 35.5027 6.91502Z" fill="#B7E3C0"/>
<path opacity="0.58" d="M183.641 3.14197C183.55 3.55437 183.13 3.81715 182.703 3.72899C182.276 3.64083 182.005 3.23521 182.096 2.82281C182.187 2.41041 182.607 2.14762 183.033 2.23578C183.46 2.32394 183.732 2.72956 183.641 3.14197Z" fill="#FDBBA0"/>
<path opacity="0.58" d="M193.212 134.478C194.302 134.478 195.186 133.624 195.186 132.57C195.186 131.517 194.302 130.663 193.212 130.663C192.122 130.663 191.238 131.517 191.238 132.57C191.238 133.624 192.122 134.478 193.212 134.478Z" fill="#FDBBA0"/>
<path opacity="0.58" d="M30.7393 152.068C31.8293 152.068 32.7129 151.214 32.7129 150.16C32.7129 149.107 31.8293 148.253 30.7393 148.253C29.6493 148.253 28.7656 149.107 28.7656 150.16C28.7656 151.214 29.6493 152.068 30.7393 152.068Z" fill="#FDBBA0"/>
<path opacity="0.58" d="M155.312 159.665C156.16 159.665 156.847 159.001 156.847 158.182C156.847 157.362 156.16 156.698 155.312 156.698C154.465 156.698 153.777 157.362 153.777 158.182C153.777 159.001 154.465 159.665 155.312 159.665Z" fill="#B7E3C0"/>
<path opacity="0.58" d="M2.24904 128.353C3.33906 128.353 4.2227 127.499 4.2227 126.445C4.2227 125.392 3.33906 124.538 2.24904 124.538C1.15903 124.538 0.275391 125.392 0.275391 126.445C0.275391 127.499 1.15903 128.353 2.24904 128.353Z" fill="#B7E3C0"/>
<path opacity="0.58" d="M16.5159 165.235C16.4247 165.647 16.0049 165.91 15.5782 165.822C15.1514 165.734 14.8795 165.328 14.9707 164.916C15.062 164.503 15.4817 164.24 15.9085 164.329C16.3352 164.417 16.6071 164.822 16.5159 165.235Z" fill="#FDBBA0"/>
<path d="M159.531 69.1546C159.531 69.1096 159.531 69.0872 159.508 69.0422C159.261 67.402 158.452 65.964 157.239 64.9305C156.16 64.0317 154.79 63.4476 153.217 63.3577L148.656 63.0656C148.656 63.0431 148.633 63.0431 148.633 63.0207L148.701 51.8089C148.723 48.1015 145.735 45.0683 142.028 45.0458L82.9353 44.6639C80.1042 44.6414 77.3406 43.855 74.914 42.3496L70.2181 39.4512C67.8139 37.9682 65.0278 37.1594 62.1968 37.1369L39.8631 36.9796C36.1558 36.9571 33.1225 39.9455 33.1 43.6528L32.9652 65.672C31.4149 66.9077 30.4488 68.7951 30.4937 70.997L31.1677 92.9488L32.3361 130.763L32.3811 132.314C32.4035 134.471 34.1336 136.358 36.4029 136.965C36.8748 137.077 37.3691 137.167 37.8634 137.167L64.4212 137.324L114.728 137.616L143.466 137.774C144.724 137.774 145.915 137.369 146.881 136.695C147.914 135.954 148.678 134.898 148.903 133.684L159.441 71.379C159.598 70.6375 159.62 69.8736 159.531 69.1546Z" fill="#E0E0FF"/>
<path d="M153.193 47.3372L152.654 128.314C152.631 131.1 150.362 133.324 147.598 133.302L42.0409 132.605C39.2548 132.583 37.0304 130.313 37.0529 127.55L37.6371 39.2035C37.6596 35.4962 40.6928 32.5079 44.4001 32.5304L66.7339 32.6877C69.5649 32.7101 72.3285 33.4965 74.7551 35.0019L79.4511 37.9004C81.8552 39.3833 84.6413 40.1922 87.4723 40.2146L146.565 40.5966C150.227 40.5966 153.215 43.6299 153.193 47.3372Z" fill="#FBD005"/>
<path d="M146.971 49.1798L48.6482 43.5626C46.8732 43.4503 45.3678 44.7085 45.2555 46.3712L41.4358 115.664C41.3459 117.327 42.7165 118.742 44.4916 118.832L142.814 124.449C144.589 124.562 146.094 123.303 146.207 121.641L150.026 52.3478C150.094 50.7076 148.746 49.2921 146.971 49.1798Z" fill="#DBDBDB"/>
<path d="M143.801 48.1468L45.3216 48.5063C43.5466 48.5063 42.1087 49.8544 42.1311 51.517L42.895 120.922C42.9175 122.585 44.378 123.911 46.153 123.911L144.61 123.529C146.385 123.529 147.823 122.181 147.801 120.518L147.037 51.1126C147.037 49.4724 145.576 48.1243 143.801 48.1468Z" fill="#E9E9E9"/>
<path d="M151.149 57.4477L54.1077 40.6637C52.3551 40.3716 50.7149 41.4277 50.4228 43.0679L38.874 111.507C38.6044 113.147 39.7952 114.698 41.5477 115.012L138.589 131.796C140.342 132.088 141.982 131.032 142.274 129.392L153.823 60.9528C154.115 59.3126 152.902 57.7623 151.149 57.4477Z" fill="white"/>
<path d="M163.934 66.9079L153.396 129.213C152.947 131.55 150.587 133.325 147.959 133.302L73.1608 132.876L42.3565 132.696C39.4356 132.673 36.8966 130.449 36.8741 127.843L35.6608 88.5001L34.9868 66.5484C34.9418 62.5265 38.2223 59.4708 42.3565 59.7404L70.1501 61.5154C71.6779 61.6053 73.1833 61.2907 74.509 60.5942L84.3727 55.3815C85.7208 54.6625 87.2486 54.348 88.7989 54.4378L157.687 58.8866C161.912 59.1562 164.72 62.7961 163.934 66.9079Z" fill="#FBD005"/>
<path d="M163.933 66.908L153.395 129.213C152.946 131.55 150.586 133.325 147.958 133.303L42.3554 132.696C39.4345 132.673 36.8955 130.472 36.8731 127.843L36.8281 126.292C87.0004 115.845 129.96 92.0953 156.338 58.7744L157.709 58.8643C161.91 59.1564 164.719 62.7963 163.933 66.908Z" fill="#E4C118"/>
<path d="M168.742 33.5418V105.98C168.742 109.598 165.798 112.541 162.181 112.541H102.28C98.6621 112.541 95.7188 109.598 95.7188 105.98V23.4534C95.7188 19.8359 98.6621 16.8926 102.28 16.8926H152.07L168.742 33.5418Z" fill="#DEDEDE"/>
<path d="M171.999 30.2839V102.723C171.999 106.34 169.056 109.283 165.438 109.283H105.537C101.92 109.283 98.9766 106.34 98.9766 102.723V20.1956C98.9766 16.5781 101.92 13.6348 105.537 13.6348H155.328L171.999 30.2839Z" fill="white"/>
<path d="M171.954 30.2394L171.729 30.2844L158.091 33.6097L157.282 30.2844L155.35 22.2631V18.1289L166.854 25.1391L171.954 30.2394Z" fill="#CCCCCC"/>
<path d="M171.999 30.284H155.35V13.6348L166.854 25.1386L171.954 30.239L171.999 30.284Z" fill="#DEDEDE"/>
<path d="M137.982 38.5295C137.061 38.5295 136.14 38.5295 135.218 38.5295C133.039 38.5295 130.837 38.5295 128.658 38.5295C125.984 38.5295 123.333 38.5295 120.659 38.5295C118.367 38.5295 116.075 38.5295 113.783 38.5295C112.66 38.5295 111.559 38.507 110.436 38.5295C110.413 38.5295 110.413 38.5295 110.391 38.5295C109.222 38.5295 108.099 39.5631 108.144 40.7764C108.189 41.9897 109.132 43.0232 110.391 43.0232C111.312 43.0232 112.233 43.0232 113.154 43.0232C115.334 43.0232 117.536 43.0232 119.715 43.0232C122.389 43.0232 125.04 43.0232 127.714 43.0232C130.006 43.0232 132.298 43.0232 134.589 43.0232C135.713 43.0232 136.814 43.0457 137.937 43.0232C137.96 43.0232 137.96 43.0232 137.982 43.0232C139.15 43.0232 140.274 41.9897 140.229 40.7764C140.184 39.5631 139.24 38.5295 137.982 38.5295Z" fill="#DEDEDE"/>
<path d="M160.585 38.5293C158.967 38.5293 157.327 38.5293 155.709 38.5293C153.126 38.5293 150.542 38.5293 147.935 38.5293C147.351 38.5293 146.744 38.5293 146.16 38.5293C144.992 38.5293 143.868 39.5628 143.913 40.7762C143.958 41.9895 144.902 43.023 146.16 43.023C147.778 43.023 149.418 43.023 151.036 43.023C153.62 43.023 156.204 43.023 158.81 43.023C159.394 43.023 160.001 43.023 160.585 43.023C161.753 43.023 162.877 41.9895 162.832 40.7762C162.787 39.5628 161.843 38.5293 160.585 38.5293Z" fill="#DEDEDE"/>
<path d="M137.982 66.0989C137.061 66.0989 136.14 66.0989 135.218 66.0989C133.039 66.0989 130.837 66.0989 128.658 66.0989C125.984 66.0989 123.333 66.0989 120.659 66.0989C118.367 66.0989 116.075 66.0989 113.783 66.0989C112.66 66.0989 111.559 66.0764 110.436 66.0989C110.413 66.0989 110.413 66.0989 110.391 66.0989C109.222 66.0989 108.099 67.1324 108.144 68.3457C108.189 69.559 109.132 70.5926 110.391 70.5926C111.312 70.5926 112.233 70.5926 113.154 70.5926C115.334 70.5926 117.536 70.5926 119.715 70.5926C122.389 70.5926 125.04 70.5926 127.714 70.5926C130.006 70.5926 132.298 70.5926 134.589 70.5926C135.713 70.5926 136.814 70.615 137.937 70.5926C137.96 70.5926 137.96 70.5926 137.982 70.5926C139.15 70.5926 140.274 69.559 140.229 68.3457C140.184 67.1324 139.24 66.0989 137.982 66.0989Z" fill="#DEDEDE"/>
<path d="M160.585 66.0986C158.967 66.0986 157.327 66.0986 155.709 66.0986C153.126 66.0986 150.542 66.0986 147.935 66.0986C147.351 66.0986 146.744 66.0986 146.16 66.0986C144.992 66.0986 143.868 67.1322 143.913 68.3455C143.958 69.5588 144.902 70.5923 146.16 70.5923C147.778 70.5923 149.418 70.5923 151.036 70.5923C153.62 70.5923 156.204 70.5923 158.81 70.5923C159.394 70.5923 160.001 70.5923 160.585 70.5923C161.753 70.5923 162.877 69.5588 162.832 68.3455C162.787 67.1322 161.843 66.0986 160.585 66.0986Z" fill="#DEDEDE"/>
<path d="M132.994 56.8191C133.915 56.8191 134.837 56.8191 135.758 56.8191C137.937 56.8191 140.139 56.8191 142.319 56.8191C144.992 56.8191 147.644 56.8191 150.318 56.8191C152.609 56.8191 154.901 56.8191 157.193 56.8191C158.316 56.8191 159.417 56.8416 160.541 56.8191C160.563 56.8191 160.563 56.8191 160.586 56.8191C161.754 56.8191 162.877 55.7856 162.832 54.5723C162.788 53.359 161.844 52.3254 160.586 52.3254C159.664 52.3254 158.743 52.3254 157.822 52.3254C155.643 52.3254 153.441 52.3254 151.261 52.3254C148.587 52.3254 145.936 52.3254 143.262 52.3254C140.971 52.3254 138.679 52.3254 136.387 52.3254C135.264 52.3254 134.163 52.3029 133.039 52.3254C133.017 52.3254 133.017 52.3254 132.994 52.3254C131.826 52.3254 130.702 53.359 130.747 54.5723C130.792 55.7856 131.736 56.8191 132.994 56.8191Z" fill="#DEDEDE"/>
<path d="M110.391 56.8189C112.008 56.8189 113.649 56.8189 115.266 56.8189C117.85 56.8189 120.434 56.8189 123.041 56.8189C123.625 56.8189 124.231 56.8189 124.816 56.8189C125.984 56.8189 127.107 55.7854 127.062 54.572C127.017 53.3587 126.074 52.3252 124.816 52.3252C123.198 52.3252 121.558 52.3252 119.94 52.3252C117.356 52.3252 114.772 52.3252 112.166 52.3252C111.582 52.3252 110.975 52.3252 110.391 52.3252C109.222 52.3252 108.099 53.3587 108.144 54.572C108.189 55.7854 109.132 56.8189 110.391 56.8189Z" fill="#DEDEDE"/>
<path d="M132.994 84.365C133.915 84.365 134.837 84.365 135.758 84.365C137.937 84.365 140.139 84.365 142.319 84.365C144.992 84.365 147.644 84.365 150.318 84.365C152.609 84.365 154.901 84.365 157.193 84.365C158.316 84.365 159.417 84.3875 160.541 84.365C160.563 84.365 160.563 84.365 160.586 84.365C161.754 84.365 162.877 83.3315 162.832 82.1182C162.788 80.9049 161.844 79.8713 160.586 79.8713C159.664 79.8713 158.743 79.8713 157.822 79.8713C155.643 79.8713 153.441 79.8713 151.261 79.8713C148.587 79.8713 145.936 79.8713 143.262 79.8713C140.971 79.8713 138.679 79.8713 136.387 79.8713C135.264 79.8713 134.163 79.8488 133.039 79.8713C133.017 79.8713 133.017 79.8713 132.994 79.8713C131.826 79.8713 130.702 80.9049 130.747 82.1182C130.792 83.3315 131.736 84.365 132.994 84.365Z" fill="#DEDEDE"/>
<path d="M110.391 84.3648C112.008 84.3648 113.649 84.3648 115.266 84.3648C117.85 84.3648 120.434 84.3648 123.041 84.3648C123.625 84.3648 124.231 84.3648 124.816 84.3648C125.984 84.3648 127.107 83.3312 127.062 82.1179C127.017 80.9046 126.074 79.8711 124.816 79.8711C123.198 79.8711 121.558 79.8711 119.94 79.8711C117.356 79.8711 114.772 79.8711 112.166 79.8711C111.582 79.8711 110.975 79.8711 110.391 79.8711C109.222 79.8711 108.099 80.9046 108.144 82.1179C108.189 83.3312 109.132 84.3648 110.391 84.3648Z" fill="#DEDEDE"/>
<path d="M78.8896 115.283C78.8896 121.866 76.7776 127.932 73.1602 132.875L42.3558 132.696C39.4349 132.673 36.8959 130.449 36.8735 127.842L35.6602 88.5001C39.682 86.5004 44.1982 85.377 48.984 85.377C65.4984 85.377 78.8896 98.7682 78.8896 115.283Z" fill="#E6E6E6"/>
<path d="M48.9847 142.267C63.888 142.267 75.9694 130.186 75.9694 115.283C75.9694 100.379 63.888 88.2979 48.9847 88.2979C34.0815 88.2979 22 100.379 22 115.283C22 130.186 34.0815 142.267 48.9847 142.267Z" fill="#AED315"/>
<path d="M53.3874 120.473H42.6699V124.068H53.3874V120.473Z" fill="#DEDEDE"/>
<path d="M53.3874 125.259H42.6699V127.64H53.3874V125.259Z" fill="#DEDEDE"/>
<path d="M53.3874 128.854H42.6699V130.044H53.3874V128.854Z" fill="#DEDEDE"/>
<path d="M53.3874 131.258H42.6699V131.617H53.3874V131.258Z" fill="#DEDEDE"/>
<path d="M48.0409 99.5771L36.8516 111.71H42.6709V119.26H53.3884V111.71H59.2302L48.0409 99.5771Z" fill="#DEDEDE"/>
<path d="M54.3542 120.158H43.6367V123.753H54.3542V120.158Z" fill="white"/>
<path d="M54.3542 124.944H43.6367V127.326H54.3542V124.944Z" fill="white"/>
<path d="M54.3542 128.539H43.6367V129.73H54.3542V128.539Z" fill="white"/>
<path d="M54.3542 130.921H43.6367V131.28H54.3542V130.921Z" fill="white"/>
<path d="M48.9843 99.2627L37.7949 111.396H43.6367V118.945H54.3542V111.396H60.1736L48.9843 99.2627Z" fill="white"/>
</svg>
