<svg width="120" height="104" viewBox="0 0 120 104" fill="none" xmlns="http://www.w3.org/2000/svg">
<g opacity="0.41">
<path d="M118.873 62.5695C118.986 60.9289 118.935 59.2809 118.717 57.649C117.69 49.9812 113.039 42.7507 106.193 37.649C103.751 35.829 100.972 34.1984 99.3829 31.7959C96.7063 27.7499 96.9092 23.1 93.5871 19.1052C90.2614 15.1057 85.4149 11.9867 79.9494 10.3848C63.6534 5.60875 40.8382 13.3852 42.8924 29.9919C42.8997 30.0516 42.9076 30.1381 42.9163 30.2477C43.1895 33.6972 39.9884 36.5976 35.9146 36.6793C20.8793 36.9811 7.93707 46.7858 5.16763 59.2057C3.38661 67.1929 6.30288 75.9475 13.2107 81.5979C18.3672 85.8157 25.2855 88.1328 32.2072 89.7248C46.0857 92.9173 60.6903 93.5863 75 92.3657C88.3949 91.223 102.524 87.966 111.187 79.2497C115.809 74.5998 118.456 68.637 118.873 62.5695Z" fill="#E1E2FE"/>
</g>
<g opacity="0.31">
<path d="M51.3395 8.96816C53.1269 8.25944 53.9814 6.28462 53.248 4.55726C52.5147 2.8299 50.4712 2.00413 48.6837 2.71285C46.8963 3.42157 46.0418 5.39639 46.7751 7.12375C47.5085 8.8511 49.552 9.67687 51.3395 8.96816Z" fill="#E1E2FE"/>
</g>
<g opacity="0.31">
<path d="M97.2757 5.52571C98.2725 5.52571 99.0807 4.74476 99.0807 3.78141C99.0807 2.81806 98.2725 2.03711 97.2757 2.03711C96.2788 2.03711 95.4707 2.81806 95.4707 3.78141C95.4707 4.74476 96.2788 5.52571 97.2757 5.52571Z" fill="#E1E2FE"/>
</g>
<g opacity="0.31">
<path d="M35.3696 14.9631C36.2564 13.9978 36.1655 12.5205 35.1666 11.6635C34.1677 10.8064 32.6391 10.8942 31.7522 11.8596C30.8654 12.8249 30.9563 14.3022 31.9551 15.1592C32.954 16.0162 34.4827 15.9284 35.3696 14.9631Z" fill="#E1E2FE"/>
</g>
<g opacity="0.31">
<path d="M5.67109 103.502C8.71253 103.502 11.1781 101.12 11.1781 98.1803C11.1781 95.2411 8.71253 92.8584 5.67109 92.8584C2.62964 92.8584 0.164062 95.2411 0.164062 98.1803C0.164062 101.12 2.62964 103.502 5.67109 103.502Z" fill="#E1E2FE"/>
</g>
<path opacity="0.47" d="M119.311 15.5948C120.881 12.6398 119.674 9.01434 116.616 7.49714C113.558 5.98019 107.682 6.09183 106.112 9.04689C104.542 12.0019 109.249 14.5382 111.168 17.2938C113.844 21.1375 117.741 18.5499 119.311 15.5948Z" fill="#ECF1F7"/>
<path opacity="0.47" d="M104.141 95.6213C106.353 97.0017 109.305 96.3875 110.733 94.2493C112.161 92.1111 112.518 87.7733 110.306 86.393C108.093 85.0126 105.736 88.2881 103.417 89.4932C100.182 91.1742 101.928 94.2409 104.141 95.6213Z" fill="#E1E2FE"/>
<path opacity="0.47" d="M15.6338 2.03541C13.2002 -0.148586 9.39548 -0.0125315 7.13551 2.33931C4.87554 4.69115 3.44609 10.0019 5.87974 12.1859C8.31339 14.3699 11.9852 10.8029 15.1393 9.79893C19.5388 8.39845 18.0675 4.21941 15.6338 2.03541Z" fill="#E1E2FE"/>
<path opacity="0.47" d="M2.22043 27.4223C0.0509844 31.9739 -0.541639 37.2213 0.499399 42.1269C1.72307 47.8941 5.43854 52.3249 4.14935 58.4774C3.36409 62.2249 3.16752 65.6964 2.76937 69.4045C1.95175 77.0185 7.0672 83.7274 13.4134 87.35C18.5678 90.2923 24.6106 91.3963 30.5366 91.318C35.8702 91.2473 41.1943 90.2954 46.3627 89.0157C51.3434 87.7823 56.2131 86.1573 61.4338 86.67C65.7758 87.0965 69.6863 88.9104 73.7299 90.2631C83.3837 93.4926 95.078 93.948 103.906 89.0317C109.571 85.8768 113.537 80.7527 115.295 75.2439C116.701 70.8413 116.879 66.7243 115.826 62.2297C114.744 57.615 112.918 52.963 113.485 48.1545C113.88 44.8037 115.466 41.5697 115.176 38.209C114.982 35.976 113.965 33.881 112.721 31.9902C108.178 25.086 100.572 20.4634 92.5265 17.9165C84.9548 15.5197 77.1462 13.7838 69.2631 14.3605C52.9644 15.5527 49.6418 13.0511 32.9852 9.60828C22.232 7.38563 10.2035 15.3086 3.91093 24.4871C3.26883 25.4227 2.70542 26.4051 2.22043 27.4223Z" fill="#E1E2FE"/>
<path opacity="0.81" d="M13.4333 32.4284C13.0991 35.6947 14.3675 39.0607 13.307 42.2955C12.0375 46.1682 8.36308 49.0691 6.86521 52.8714C4.65182 58.4899 4.75814 64.7857 7.44599 70.2607C8.7415 72.8992 10.6338 75.3515 13.218 77.0473C17.2019 79.6616 22.4218 80.235 27.331 79.9034C34.6372 79.41 42.3465 76.6629 49.6925 77.412C53.7461 77.8255 54.984 81.6358 57.0776 84.1493C59.4455 86.9921 62.6702 89.2248 66.2351 90.7113C72.8014 93.4488 80.6818 93.7079 87.3927 91.2257C94.5576 88.5755 100.803 82.1038 100.392 74.7847C100.202 71.3988 98.6415 68.0358 99.3639 64.7086C100.271 60.5334 103.893 56.7286 106.518 53.3267C109.417 49.5696 111.172 45.0893 111.516 40.5184C111.52 40.4665 111.524 40.4146 111.527 40.363C112.066 32.4775 106.339 25.2857 97.6984 22.8179L79.3139 17.5668C60.6602 12.2385 42.0223 12.4147 24.8707 20.2342C21.1592 21.9263 15.1159 26.9678 13.8712 30.4441C13.6364 31.1001 13.5014 31.7622 13.4333 32.4284Z" fill="#E2F5FB"/>
<path opacity="0.58" d="M61.2233 3.7458C61.8773 3.7458 62.4074 3.23344 62.4074 2.60142C62.4074 1.96939 61.8773 1.45703 61.2233 1.45703C60.5692 1.45703 60.0391 1.96939 60.0391 2.60142C60.0391 3.23344 60.5692 3.7458 61.2233 3.7458Z" fill="#FDBBA0"/>
<path opacity="0.58" d="M86.632 6.73426C87.1407 6.73426 87.553 6.33576 87.553 5.84418C87.553 5.3526 87.1407 4.9541 86.632 4.9541C86.1233 4.9541 85.7109 5.3526 85.7109 5.84418C85.7109 6.33576 86.1233 6.73426 86.632 6.73426Z" fill="#FDBBA0"/>
<path opacity="0.58" d="M24.6564 15.4905C24.8745 15.4905 25.0512 15.3197 25.0512 15.109C25.0512 14.8983 24.8745 14.7275 24.6564 14.7275C24.4384 14.7275 24.2617 14.8983 24.2617 15.109C24.2617 15.3197 24.4384 15.4905 24.6564 15.4905Z" fill="#FDBBA0"/>
<path opacity="0.58" d="M118.932 26.5355C118.768 27.2778 118.012 27.7508 117.244 27.5924C116.476 27.4339 115.987 26.7036 116.151 25.9615C116.315 25.2192 117.07 24.7462 117.838 24.9046C118.607 25.063 119.096 25.7931 118.932 26.5355Z" fill="#B7E3C0"/>
<path opacity="0.58" d="M21.3024 4.39862C21.2382 4.6898 20.9419 4.87519 20.6405 4.81314C20.3392 4.75109 20.1474 4.46474 20.2116 4.17356C20.2758 3.88238 20.5721 3.69699 20.8734 3.75904C21.1747 3.82109 21.3668 4.10744 21.3024 4.39862Z" fill="#B7E3C0"/>
<path opacity="0.58" d="M110.184 2.13303C110.129 2.38047 109.877 2.53814 109.621 2.48525C109.365 2.43235 109.202 2.18898 109.257 1.94154C109.311 1.6941 109.563 1.53642 109.819 1.58932C110.075 1.64222 110.238 1.88559 110.184 2.13303Z" fill="#FDBBA0"/>
<path opacity="0.58" d="M115.926 80.9362C116.58 80.9362 117.111 80.4239 117.111 79.7918C117.111 79.1598 116.58 78.6475 115.926 78.6475C115.272 78.6475 114.742 79.1598 114.742 79.7918C114.742 80.4239 115.272 80.9362 115.926 80.9362Z" fill="#FDBBA0"/>
<path opacity="0.58" d="M18.442 91.4899C19.096 91.4899 19.6262 90.9776 19.6262 90.3456C19.6262 89.7135 19.096 89.2012 18.442 89.2012C17.788 89.2012 17.2578 89.7135 17.2578 90.3456C17.2578 90.9776 17.788 91.4899 18.442 91.4899Z" fill="#FDBBA0"/>
<path opacity="0.58" d="M93.1867 96.0487C93.6953 96.0487 94.1077 95.6502 94.1077 95.1586C94.1077 94.6671 93.6953 94.2686 93.1867 94.2686C92.678 94.2686 92.2656 94.6671 92.2656 95.1586C92.2656 95.6502 92.678 96.0487 93.1867 96.0487Z" fill="#B7E3C0"/>
<path opacity="0.58" d="M1.34826 77.2614C2.00227 77.2614 2.53245 76.7491 2.53245 76.117C2.53245 75.485 2.00227 74.9727 1.34826 74.9727C0.694244 74.9727 0.164062 75.485 0.164062 76.117C0.164062 76.7491 0.694244 77.2614 1.34826 77.2614Z" fill="#B7E3C0"/>
<path opacity="0.58" d="M9.90837 99.3908C9.85363 99.6383 9.60179 99.796 9.34575 99.7431C9.0897 99.6902 8.92654 99.4468 8.98128 99.1994C9.03601 98.9519 9.28785 98.7942 9.5439 98.8471C9.79995 98.9 9.96311 99.1434 9.90837 99.3908Z" fill="#FDBBA0"/>
<path d="M95.718 41.7396C95.718 41.7127 95.718 41.6992 95.7045 41.6722C95.5562 40.6881 95.0709 39.8253 94.3429 39.2052C93.6958 38.6659 92.8735 38.3154 91.9298 38.2615L89.1931 38.0863C89.1931 38.0728 89.1797 38.0728 89.1797 38.0593L89.2201 31.3322C89.2336 29.1078 87.4406 27.2879 85.2162 27.2744L49.7608 27.0452C48.0622 27.0317 46.404 26.5599 44.948 25.6566L42.1305 23.9176C40.688 23.0278 39.0163 22.5425 37.3177 22.529L23.9175 22.4346C21.6931 22.4212 19.8731 24.2142 19.8596 26.4386L19.7787 39.6501C18.8486 40.3915 18.2689 41.5239 18.2958 42.8451L18.7003 56.0162L19.4013 78.7049L19.4282 79.6351C19.4417 80.9293 20.4798 82.0617 21.8414 82.4257C22.1245 82.4931 22.4211 82.547 22.7176 82.547L38.6523 82.6414L68.8366 82.8167L86.079 82.911C86.8339 82.911 87.5484 82.6684 88.1281 82.2639C88.7483 81.8191 89.2066 81.1855 89.3414 80.4575L95.6641 43.0743C95.7585 42.6294 95.7719 42.171 95.718 41.7396Z" fill="#E0E0FF"/>
<path d="M91.9146 28.6488L91.591 77.2348C91.5775 78.9065 90.216 80.2411 88.5578 80.2276L25.2234 79.8097C23.5517 79.7962 22.2171 78.4346 22.2306 76.7765L22.5811 23.7686C22.5946 21.5442 24.4145 19.7512 26.6389 19.7647L40.0392 19.8591C41.7378 19.8726 43.396 20.3444 44.8519 21.2476L47.6695 22.9867C49.112 23.8765 50.7836 24.3618 52.4822 24.3753L87.9376 24.6045C90.1351 24.6045 91.9281 26.4244 91.9146 28.6488Z" fill="#FBD005"/>
<path d="M88.1809 29.7534L29.1874 26.3831C28.1224 26.3157 27.2191 27.0706 27.1517 28.0682L24.8599 69.6441C24.806 70.6417 25.6284 71.491 26.6934 71.5449L85.6868 74.9152C86.7519 74.9826 87.6551 74.2277 87.7225 73.2301L90.0143 31.6542C90.0547 30.6701 89.2459 29.8208 88.1809 29.7534Z" fill="#DBDBDB"/>
<path d="M86.2797 29.1349L27.1918 29.3506C26.1268 29.3506 25.264 30.1595 25.2775 31.1571L25.7358 72.8003C25.7493 73.798 26.6256 74.5933 27.6906 74.5933L86.765 74.3642C87.83 74.3642 88.6928 73.5553 88.6793 72.5577L88.2209 30.9144C88.2209 29.9303 87.3447 29.1215 86.2797 29.1349Z" fill="#E9E9E9"/>
<path d="M90.6869 34.7157L32.4619 24.6453C31.4103 24.47 30.4262 25.1037 30.251 26.0878L23.3217 67.1513C23.1599 68.1355 23.8744 69.0657 24.9259 69.2544L83.151 79.3248C84.2025 79.5001 85.1866 78.8665 85.3619 77.8823L92.2912 36.8188C92.4664 35.8347 91.7384 34.9045 90.6869 34.7157Z" fill="white"/>
<path d="M98.3588 40.3904L92.0361 77.7736C91.7665 79.1757 90.351 80.2407 88.7737 80.2272L43.895 79.9711L25.4123 79.8632C23.6598 79.8497 22.1364 78.5151 22.1229 76.9513L21.3949 53.3458L20.9905 40.1747C20.9635 37.7616 22.9318 35.9282 25.4123 36.0899L42.0885 37.155C43.0052 37.2089 43.9084 37.0202 44.7038 36.6022L50.6221 33.4746C51.4309 33.0432 52.3476 32.8545 53.2778 32.9084L94.611 35.5777C97.1455 35.7394 98.8306 37.9234 98.3588 40.3904Z" fill="#FBD005"/>
<path d="M98.3585 40.3909L92.0359 77.7741C91.7662 79.1762 90.3507 80.2412 88.7734 80.2277L25.4121 79.8637C23.6595 79.8502 22.1362 78.5291 22.1227 76.9518L22.0957 76.0216C52.1991 69.7528 77.975 55.5033 93.8019 35.5107L94.6242 35.5647C97.1452 35.7399 98.8304 37.9239 98.3585 40.3909Z" fill="#E4C118"/>
<path d="M101.245 20.3714V63.8346C101.245 66.005 99.4793 67.771 97.3088 67.771H61.3681C59.1977 67.771 57.4316 66.005 57.4316 63.8346V14.3183C57.4316 12.1479 59.1977 10.3818 61.3681 10.3818H91.2423L101.245 20.3714Z" fill="#DEDEDE"/>
<path d="M103.2 18.4163V61.8795C103.2 64.0499 101.434 65.816 99.2639 65.816H63.3232C61.1527 65.816 59.3867 64.0499 59.3867 61.8795V12.3632C59.3867 10.1928 61.1527 8.42676 63.3232 8.42676H93.1974L103.2 18.4163Z" fill="white"/>
<path d="M103.174 18.3884L103.039 18.4154L94.8556 20.4106L94.3703 18.4154L93.2109 13.6026V11.1221L100.113 15.3282L103.174 18.3884Z" fill="#CCCCCC"/>
<path d="M103.2 18.4163H93.2109V8.42676L100.113 15.3291L103.174 18.3893L103.2 18.4163Z" fill="#DEDEDE"/>
<path d="M82.7885 23.3673C82.2358 23.3673 81.6831 23.3673 81.1303 23.3673C79.8227 23.3673 78.5015 23.3673 77.1938 23.3673C75.5896 23.3673 73.9988 23.3673 72.3946 23.3673C71.0195 23.3673 69.6444 23.3673 68.2693 23.3673C67.5953 23.3673 66.9347 23.3538 66.2606 23.3673C66.2472 23.3673 66.2471 23.3673 66.2337 23.3673C65.5326 23.3673 64.8586 23.9875 64.8855 24.7154C64.9125 25.4434 65.4787 26.0635 66.2337 26.0635C66.7864 26.0635 67.3391 26.0635 67.8918 26.0635C69.1995 26.0635 70.5207 26.0635 71.8283 26.0635C73.4326 26.0635 75.0234 26.0635 76.6276 26.0635C78.0027 26.0635 79.3778 26.0635 80.7529 26.0635C81.4269 26.0635 82.0875 26.077 82.7615 26.0635C82.775 26.0635 82.775 26.0635 82.7885 26.0635C83.4895 26.0635 84.1636 25.4434 84.1366 24.7154C84.1097 23.9875 83.5435 23.3673 82.7885 23.3673Z" fill="#DEDEDE"/>
<path d="M96.3514 23.3672C95.3808 23.3672 94.3967 23.3672 93.426 23.3672C91.8757 23.3672 90.3254 23.3672 88.7615 23.3672C88.411 23.3672 88.0471 23.3672 87.6966 23.3672C86.9955 23.3672 86.3215 23.9873 86.3484 24.7153C86.3754 25.4433 86.9416 26.0634 87.6966 26.0634C88.6672 26.0634 89.6513 26.0634 90.622 26.0634C92.1723 26.0634 93.7226 26.0634 95.2864 26.0634C95.6369 26.0634 96.0009 26.0634 96.3514 26.0634C97.0525 26.0634 97.7265 25.4433 97.6996 24.7153C97.6726 23.9873 97.1064 23.3672 96.3514 23.3672Z" fill="#DEDEDE"/>
<path d="M82.7885 39.9083C82.2358 39.9083 81.6831 39.9083 81.1303 39.9083C79.8227 39.9083 78.5015 39.9083 77.1938 39.9083C75.5896 39.9083 73.9988 39.9083 72.3946 39.9083C71.0195 39.9083 69.6444 39.9083 68.2693 39.9083C67.5953 39.9083 66.9347 39.8949 66.2606 39.9083C66.2472 39.9083 66.2471 39.9083 66.2337 39.9083C65.5326 39.9083 64.8586 40.5285 64.8855 41.2564C64.9125 41.9844 65.4787 42.6046 66.2337 42.6046C66.7864 42.6046 67.3391 42.6046 67.8918 42.6046C69.1995 42.6046 70.5207 42.6046 71.8283 42.6046C73.4326 42.6046 75.0234 42.6046 76.6276 42.6046C78.0027 42.6046 79.3778 42.6046 80.7529 42.6046C81.4269 42.6046 82.0875 42.618 82.7615 42.6046C82.775 42.6046 82.775 42.6046 82.7885 42.6046C83.4895 42.6046 84.1636 41.9844 84.1366 41.2564C84.1097 40.5285 83.5435 39.9083 82.7885 39.9083Z" fill="#DEDEDE"/>
<path d="M96.3514 39.9082C95.3808 39.9082 94.3967 39.9082 93.426 39.9082C91.8757 39.9082 90.3254 39.9082 88.7615 39.9082C88.411 39.9082 88.0471 39.9082 87.6966 39.9082C86.9955 39.9082 86.3215 40.5283 86.3484 41.2563C86.3754 41.9843 86.9416 42.6044 87.6966 42.6044C88.6672 42.6044 89.6513 42.6044 90.622 42.6044C92.1723 42.6044 93.7226 42.6044 95.2864 42.6044C95.6369 42.6044 96.0009 42.6044 96.3514 42.6044C97.0525 42.6044 97.7265 41.9843 97.6996 41.2563C97.6726 40.5283 97.1064 39.9082 96.3514 39.9082Z" fill="#DEDEDE"/>
<path d="M79.7962 34.3428C80.3489 34.3428 80.9016 34.3428 81.4543 34.3428C82.762 34.3428 84.0832 34.3428 85.3908 34.3428C86.9951 34.3428 88.5859 34.3428 90.1901 34.3428C91.5652 34.3428 92.9403 34.3428 94.3154 34.3428C94.9894 34.3428 95.65 34.3563 96.3241 34.3428C96.3375 34.3428 96.3375 34.3428 96.351 34.3428C97.052 34.3428 97.7261 33.7227 97.6991 32.9947C97.6722 32.2667 97.106 31.6466 96.351 31.6466C95.7983 31.6466 95.2456 31.6466 94.6928 31.6466C93.3852 31.6466 92.064 31.6466 90.7563 31.6466C89.1521 31.6466 87.5613 31.6466 85.9571 31.6466C84.582 31.6466 83.2069 31.6466 81.8318 31.6466C81.1578 31.6466 80.4972 31.6331 79.8231 31.6466C79.8097 31.6466 79.8096 31.6466 79.7962 31.6466C79.0951 31.6466 78.4211 32.2667 78.448 32.9947C78.475 33.7227 79.0412 34.3428 79.7962 34.3428Z" fill="#DEDEDE"/>
<path d="M66.2337 34.3427C67.2043 34.3427 68.1884 34.3427 69.1591 34.3427C70.7094 34.3427 72.2597 34.3427 73.8236 34.3427C74.1741 34.3427 74.5381 34.3427 74.8886 34.3427C75.5896 34.3427 76.2636 33.7226 76.2367 32.9946C76.2097 32.2666 75.6435 31.6465 74.8886 31.6465C73.9179 31.6465 72.9338 31.6465 71.9631 31.6465C70.4128 31.6465 68.8625 31.6465 67.2987 31.6465C66.9482 31.6465 66.5842 31.6465 66.2337 31.6465C65.5326 31.6465 64.8586 32.2666 64.8855 32.9946C64.9125 33.7226 65.4787 34.3427 66.2337 34.3427Z" fill="#DEDEDE"/>
<path d="M79.7962 50.8653C80.3489 50.8653 80.9016 50.8653 81.4543 50.8653C82.762 50.8653 84.0832 50.8653 85.3908 50.8653C86.9951 50.8653 88.5859 50.8653 90.1901 50.8653C91.5652 50.8653 92.9403 50.8653 94.3154 50.8653C94.9894 50.8653 95.65 50.8788 96.3241 50.8653C96.3375 50.8653 96.3375 50.8653 96.351 50.8653C97.052 50.8653 97.7261 50.2452 97.6991 49.5172C97.6722 48.7892 97.106 48.1691 96.351 48.1691C95.7983 48.1691 95.2456 48.1691 94.6928 48.1691C93.3852 48.1691 92.064 48.1691 90.7563 48.1691C89.1521 48.1691 87.5613 48.1691 85.9571 48.1691C84.582 48.1691 83.2069 48.1691 81.8318 48.1691C81.1578 48.1691 80.4972 48.1556 79.8231 48.1691C79.8097 48.1691 79.8096 48.1691 79.7962 48.1691C79.0951 48.1691 78.4211 48.7892 78.448 49.5172C78.475 50.2452 79.0412 50.8653 79.7962 50.8653Z" fill="#DEDEDE"/>
<path d="M66.2337 50.8691C67.2043 50.8691 68.1884 50.8691 69.1591 50.8691C70.7094 50.8691 72.2597 50.8691 73.8236 50.8691C74.1741 50.8691 74.5381 50.8691 74.8886 50.8691C75.5896 50.8691 76.2636 50.2489 76.2367 49.521C76.2097 48.793 75.6435 48.1729 74.8886 48.1729C73.9179 48.1729 72.9338 48.1729 71.9631 48.1729C70.4128 48.1729 68.8625 48.1729 67.2987 48.1729C66.9482 48.1729 66.5842 48.1729 66.2337 48.1729C65.5326 48.1729 64.8586 48.793 64.8855 49.521C64.9125 50.2489 65.4787 50.8691 66.2337 50.8691Z" fill="#DEDEDE"/>
<path d="M47.3342 69.418C47.3342 73.368 46.067 77.0079 43.8965 79.9737L25.4139 79.8659C23.6613 79.8524 22.138 78.5178 22.1245 76.954L21.3965 53.3485C23.8096 52.1487 26.5193 51.4746 29.3908 51.4746C39.2994 51.4746 47.3342 59.5094 47.3342 69.418Z" fill="#E6E6E6"/>
<path d="M29.3901 85.6092C38.332 85.6092 45.5809 78.3603 45.5809 69.4184C45.5809 60.4764 38.332 53.2275 29.3901 53.2275C20.4481 53.2275 13.1992 60.4764 13.1992 69.4184C13.1992 78.3603 20.4481 85.6092 29.3901 85.6092Z" fill="#AED315"/>
<path d="M32.034 72.5332H25.6035V74.6902H32.034V72.5332Z" fill="#DEDEDE"/>
<path d="M32.034 75.4062H25.6035V76.8352H32.034V75.4062Z" fill="#DEDEDE"/>
<path d="M32.034 77.5625H25.6035V78.277H32.034V77.5625Z" fill="#DEDEDE"/>
<path d="M32.034 79.0039H25.6035V79.2196H32.034V79.0039Z" fill="#DEDEDE"/>
<path d="M28.8249 59.9961L22.1113 67.2759H25.6029V71.8056H32.0334V67.2759H35.5385L28.8249 59.9961Z" fill="#DEDEDE"/>
<path d="M32.6121 72.3457H26.1816V74.5027H32.6121V72.3457Z" fill="white"/>
<path d="M32.6121 75.2168H26.1816V76.6458H32.6121V75.2168Z" fill="white"/>
<path d="M32.6121 77.375H26.1816V78.0895H32.6121V77.375Z" fill="white"/>
<path d="M32.6121 78.8027H26.1816V79.0184H32.6121V78.8027Z" fill="white"/>
<path d="M29.3894 59.8086L22.6758 67.0884H26.1809V71.6181H32.6114V67.0884H36.103L29.3894 59.8086Z" fill="white"/>
</svg>
