<svg width="120" height="120" viewBox="0 0 120 120" fill="none" xmlns="http://www.w3.org/2000/svg">
<g opacity="0.31">
<path d="M51.7636 14.8061C53.5535 14.0964 54.4092 12.1188 53.6748 10.3891C52.9404 8.65935 50.8941 7.83245 49.1042 8.54214C47.3143 9.25183 46.4586 11.2294 47.193 12.9591C47.9274 14.6888 49.9737 15.5157 51.7636 14.8061Z" fill="#E2F5FB"/>
</g>
<g opacity="0.31">
<path d="M97.7645 11.3557C98.7627 11.3557 99.572 10.5737 99.572 9.609C99.572 8.64433 98.7627 7.8623 97.7645 7.8623C96.7663 7.8623 95.957 8.64433 95.957 9.609C95.957 10.5737 96.7663 11.3557 97.7645 11.3557Z" fill="#E2F5FB"/>
</g>
<g opacity="0.31">
<path d="M35.7732 20.8097C36.6613 19.843 36.5703 18.3637 35.57 17.5055C34.5698 16.6473 33.039 16.7352 32.1509 17.7019C31.2629 18.6685 31.3538 20.1479 32.3541 21.006C33.3544 21.8642 34.8852 21.7763 35.7732 20.8097Z" fill="#E2F5FB"/>
</g>
<g opacity="0.31">
<path d="M6.03413 109.466C9.07976 109.466 11.5487 107.08 11.5487 104.137C11.5487 101.194 9.07976 98.8076 6.03413 98.8076C2.9885 98.8076 0.519531 101.194 0.519531 104.137C0.519531 107.08 2.9885 109.466 6.03413 109.466Z" fill="#E2F5FB"/>
</g>
<path opacity="0.47" d="M116.829 25.4383C118.401 22.4792 117.193 18.8488 114.131 17.3295C111.069 15.8105 105.185 15.9223 103.613 18.8814C102.04 21.8405 106.753 24.3802 108.675 27.1397C111.355 30.9886 115.257 28.3975 116.829 25.4383Z" fill="#E2F5FB"/>
<path opacity="0.47" d="M106.441 112.389C108.657 113.772 111.612 113.157 113.042 111.015C114.473 108.874 114.83 104.531 112.614 103.148C110.399 101.766 108.039 105.046 105.716 106.253C102.477 107.936 104.225 111.007 106.441 112.389Z" fill="#E2F5FB"/>
<path opacity="0.47" d="M18.0103 9.85981C15.5733 7.67281 11.7634 7.80905 9.50031 10.1641C7.23723 12.5192 5.80581 17.8372 8.24281 20.0242C10.6798 22.2112 14.3566 18.6394 17.5152 17.634C21.9206 16.2316 20.4473 12.0468 18.0103 9.85981Z" fill="#E2F5FB"/>
<path opacity="0.81" d="M13.8058 38.2927C13.4711 41.5636 14.7413 44.9342 13.6793 48.1735C12.4081 52.0515 8.72862 54.9564 7.22868 58.7639C5.01225 64.3901 5.11871 70.6945 7.81026 76.1771C9.10755 78.8192 11.0025 81.2749 13.5902 82.973C17.5796 85.5909 22.8067 86.1651 27.7226 85.8331C35.0389 85.339 42.7588 82.5881 50.1149 83.3383C54.1741 83.7523 55.4137 87.5678 57.5102 90.0848C59.8813 92.9316 63.1104 95.1673 66.6803 96.6558C73.2556 99.3971 81.1468 99.6566 87.867 97.1709C95.0418 94.5171 101.295 88.0365 100.884 80.7073C100.694 77.3168 99.1313 73.9491 99.8546 70.6174C100.763 66.4364 104.39 62.6263 107.019 59.2198C109.921 55.4576 111.679 50.971 112.024 46.3938C112.027 46.3419 112.031 46.2899 112.035 46.2382C112.574 38.3419 106.839 31.1402 98.1868 28.669L79.7771 23.4107C61.0977 18.0751 42.4342 18.2516 25.259 26.0817C21.5424 27.7762 15.4907 32.8246 14.2443 36.3058C14.0092 36.9626 13.874 37.6256 13.8058 38.2927Z" fill="#E2F5FB"/>
<path opacity="0.58" d="M116.44 98.8847C117.095 98.8847 117.626 98.3716 117.626 97.7387C117.626 97.1058 117.095 96.5928 116.44 96.5928C115.785 96.5928 115.254 97.1058 115.254 97.7387C115.254 98.3716 115.785 98.8847 116.44 98.8847Z" fill="#FDBBA0"/>
<path opacity="0.58" d="M61.6624 9.57317C62.3173 9.57317 62.8482 9.06011 62.8482 8.42721C62.8482 7.79431 62.3173 7.28125 61.6624 7.28125C61.0075 7.28125 60.4766 7.79431 60.4766 8.42721C60.4766 9.06011 61.0075 9.57317 61.6624 9.57317Z" fill="#FDBBA0"/>
<path opacity="0.58" d="M24.8225 108.455C25.4775 108.455 26.0084 107.942 26.0084 107.309C26.0084 106.676 25.4775 106.163 24.8225 106.163C24.1676 106.163 23.6367 106.676 23.6367 107.309C23.6367 107.942 24.1676 108.455 24.8225 108.455Z" fill="#FDBBA0"/>
<path opacity="0.58" d="M84.6684 113.02C85.1778 113.02 85.5907 112.621 85.5907 112.129C85.5907 111.636 85.1778 111.237 84.6684 111.237C84.159 111.237 83.7461 111.636 83.7461 112.129C83.7461 112.621 84.159 113.02 84.6684 113.02Z" fill="#B7E3C0"/>
<path opacity="0.58" d="M1.70535 95.205C2.36027 95.205 2.89118 94.6919 2.89118 94.059C2.89118 93.4261 2.36027 92.9131 1.70535 92.9131C1.05044 92.9131 0.519531 93.4261 0.519531 94.059C0.519531 94.6919 1.05044 95.205 1.70535 95.205Z" fill="#B7E3C0"/>
<path opacity="0.58" d="M87.1059 12.5658C87.6153 12.5658 88.0282 12.1668 88.0282 11.6745C88.0282 11.1823 87.6153 10.7832 87.1059 10.7832C86.5965 10.7832 86.1836 11.1823 86.1836 11.6745C86.1836 12.1668 86.5965 12.5658 87.1059 12.5658Z" fill="#FDBBA0"/>
<path opacity="0.58" d="M25.0457 21.3333C25.264 21.3333 25.4409 21.1623 25.4409 20.9513C25.4409 20.7404 25.264 20.5693 25.0457 20.5693C24.8274 20.5693 24.6504 20.7404 24.6504 20.9513C24.6504 21.1623 24.8274 21.3333 25.0457 21.3333Z" fill="#FDBBA0"/>
<path opacity="0.58" d="M119.45 32.3932C119.285 33.1366 118.529 33.6102 117.76 33.4516C116.99 33.2929 116.5 32.5616 116.664 31.8185C116.829 31.0751 117.585 30.6015 118.354 30.7601C119.124 30.9188 119.614 31.6499 119.45 32.3932Z" fill="#B7E3C0"/>
<path opacity="0.58" d="M21.6848 10.2267C21.6205 10.5182 21.3237 10.7039 21.022 10.6418C20.7203 10.5796 20.5282 10.2929 20.5925 10.0013C20.6568 9.70971 20.9535 9.52406 21.2552 9.5862C21.5569 9.64834 21.7493 9.93508 21.6848 10.2267Z" fill="#B7E3C0"/>
<path opacity="0.58" d="M110.691 7.95801C110.636 8.20579 110.384 8.36368 110.128 8.31071C109.871 8.25774 109.708 8.01404 109.763 7.76625C109.817 7.51847 110.07 7.36058 110.326 7.41355C110.582 7.46652 110.746 7.71023 110.691 7.95801Z" fill="#FDBBA0"/>
<path opacity="0.58" d="M10.2768 117.364C10.222 117.612 9.96985 117.77 9.71345 117.717C9.45705 117.664 9.29367 117.42 9.34848 117.173C9.40329 116.925 9.65548 116.767 9.91188 116.82C10.1683 116.873 10.3317 117.116 10.2768 117.364Z" fill="#FDBBA0"/>
<path d="M72.4632 13.8555C72.4466 13.8112 72.3968 13.7891 72.3525 13.8029L26.7131 30.6501L21.0586 32.7359C21.0143 32.7525 20.9922 32.8023 21.006 32.8466L22.984 38.2023L46.5368 102.022L97.9138 83.0616C97.958 83.045 97.9801 82.9952 97.9663 82.951L72.4632 13.8555Z" fill="white"/>
<g filter="url(#filter0_d_2940_63015)">
<path d="M72.4632 13.8555C72.4466 13.8112 72.3968 13.7891 72.3525 13.8029L26.7131 30.6501L21.0586 32.7359C21.0143 32.7525 20.9922 32.8023 21.006 32.8466L22.984 38.2023L46.5368 102.022L97.9138 83.0616C97.958 83.045 97.9802 82.9953 97.9663 82.951L72.4632 13.8555Z" fill="white"/>
</g>
<path d="M74.3448 34.8394L33.0153 50.0931L32.4316 48.5135L73.7611 33.2598L74.3448 34.8394Z" fill="#EFEAFD"/>
<path d="M73.1409 31.5845L31.8142 46.8382L31.2305 45.2586L72.5572 30.0049L73.1409 31.5845Z" fill="#EFEAFD"/>
<path d="M75.0247 36.7074L33.6973 51.959L34.2805 53.5394L75.6079 38.2878L75.0247 36.7074Z" fill="#EFEAFD"/>
<path d="M76.8429 41.6108L35.5134 56.8646L34.9297 55.285L76.2592 40.0312L76.8429 41.6108Z" fill="#EFEAFD"/>
<path d="M78.053 44.8989L36.7263 60.1527L36.1426 58.5731L77.4721 43.3193L78.053 44.8989Z" fill="#EFEAFD"/>
<path d="M78.7356 46.7611L37.4082 62.0127L37.9915 63.5931L79.3188 48.3415L78.7356 46.7611Z" fill="#EFEAFD"/>
<path d="M80.5511 51.6675L39.2243 66.9212L38.6406 65.3416L79.9701 50.0879L80.5511 51.6675Z" fill="#EFEAFD"/>
<path d="M81.6671 54.6831L40.3376 69.9341L39.7539 68.3545L81.0834 53.1035L81.6671 54.6831Z" fill="#EFEAFD"/>
<path d="M82.9397 58.1333L41.613 73.387L41.0293 71.8074L82.356 56.5537L82.9397 58.1333Z" fill="#EFEAFD"/>
<path d="M83.6223 59.9984L42.2949 75.25L42.8782 76.8304L84.2056 61.5788L83.6223 59.9984Z" fill="#EFEAFD"/>
<path d="M87.9843 70.978L46.3864 86.3286L45.8027 84.749L87.4006 69.3984L87.9843 70.978Z" fill="#EFEAFD"/>
<path d="M72.6381 78.7521L47.0684 88.1885L47.6516 89.7689L73.2214 80.3325L72.6381 78.7521Z" fill="#EFEAFD"/>
<path d="M85.4378 64.9046L44.111 80.1556L43.5273 78.576L84.8541 63.3223L85.4378 64.9046Z" fill="#EFEAFD"/>
<path d="M86.5804 67.9976L45.2536 83.2513L44.6699 81.6717L85.9966 66.418L86.5804 67.9976Z" fill="#EFEAFD"/>
<path d="M63.6653 13.3913C63.6404 13.3498 63.5879 13.336 63.5464 13.3581L21.2597 37.4117L16.0202 40.391C15.9787 40.4159 15.9649 40.4685 15.987 40.51L18.8115 45.4729L52.4477 104.607L100.049 77.5295C100.09 77.5046 100.104 77.452 100.082 77.4105L63.6653 13.3913Z" fill="white"/>
<path d="M73.2984 92.1467L96.4916 78.9539L86.245 54.8672L64.2939 16.2764L42.0578 24.9849L22.2617 36.244L22.9837 38.2026L37.7008 78.077L50.4897 100.565L73.2984 92.1467Z" fill="#FCFAFE"/>
<g filter="url(#filter1_d_2940_63015)">
<path d="M63.6653 13.4216C63.6404 13.3801 63.5879 13.3663 63.5464 13.3884L16.0202 40.4241C15.9787 40.449 15.9649 40.5015 15.987 40.543L52.4477 104.637L100.049 77.5598C100.09 77.5349 100.104 77.4823 100.082 77.4408L63.6653 13.4216Z" fill="white"/>
</g>
<path d="M68.9372 33.7906L30.6452 55.5702L29.8125 54.1067L68.1045 32.3271L68.9372 33.7906Z" fill="#EFEAFD"/>
<path d="M67.2224 30.772L28.9303 52.5544L28.0977 51.0882L66.3897 29.3086L67.2224 30.772Z" fill="#EFEAFD"/>
<path d="M69.9171 35.5183L31.625 57.2988L32.4579 58.7632L70.75 36.9827L69.9171 35.5183Z" fill="#EFEAFD"/>
<path d="M72.5056 40.0611L34.2135 61.8434L33.3809 60.3773L71.6729 38.5977L72.5056 40.0611Z" fill="#EFEAFD"/>
<path d="M74.238 43.1079L35.946 64.8903L35.1133 63.4269L73.4053 41.6445L74.238 43.1079Z" fill="#EFEAFD"/>
<path d="M75.2178 44.8357L36.9258 66.6162L37.7587 68.0806L76.0508 46.3001L75.2178 44.8357Z" fill="#EFEAFD"/>
<path d="M77.8063 49.3812L39.5143 71.1608L38.6816 69.6974L76.9737 47.915L77.8063 49.3812Z" fill="#EFEAFD"/>
<path d="M79.3942 52.1714L41.1022 73.9538L40.2695 72.4904L78.5616 50.708L79.3942 52.1714Z" fill="#EFEAFD"/>
<path d="M81.2145 55.3706L42.9225 77.153L42.0898 75.6896L80.3819 53.9072L81.2145 55.3706Z" fill="#EFEAFD"/>
<path d="M82.1924 57.0984L43.9004 78.8789L44.7333 80.3433L83.0254 58.5628L82.1924 57.0984Z" fill="#EFEAFD"/>
<path d="M88.2819 67.2183L49.7409 89.1417L48.9082 87.6783L87.4492 65.7549L88.2819 67.2183Z" fill="#EFEAFD"/>
<path d="M74.4144 77.3943L50.7227 90.8701L51.5556 92.3345L75.2474 78.8586L74.4144 77.3943Z" fill="#EFEAFD"/>
<path d="M84.7801 61.6421L46.4909 83.4245L45.6582 81.9611L83.9475 60.1787L84.7801 61.6421Z" fill="#EFEAFD"/>
<path d="M86.4118 64.5103L48.1198 86.2926L47.2871 84.8265L85.5791 63.0469L86.4118 64.5103Z" fill="#EFEAFD"/>
<g filter="url(#filter2_d_2940_63015)">
<path d="M47.2352 24.9012L28.8555 33.1201V63.3067L47.7304 96.492H66.763L83.7069 86.854V48.656L68.9373 22.666L47.2352 24.9012Z" fill="#EFEAFD"/>
<path d="M44.0325 24.4922L27.9434 33.6461V61.5587L48.8515 98.3182H63.5603L82.7948 87.3772V47.0519L69.9617 24.4922H44.0325Z" fill="#EFEAFD"/>
<path d="M82.7948 23.5711C82.7948 23.5241 82.7561 23.4854 82.7091 23.4854H34.057H28.0291C27.9821 23.4854 27.9434 23.5241 27.9434 23.5711V29.2809V97.3086H82.7063C82.7533 97.3086 82.7921 97.2698 82.7921 97.2228V23.5711H82.7948Z" fill="#FCFAFE"/>
<path d="M45.805 23.4854L27.5332 33.8786V60.8396L44.5768 90.8048C71.3663 84.2292 81.4109 62.2864 82.4151 46.3881L69.3883 23.4881H45.805V23.4854Z" fill="#FCFAFE"/>
<path d="M82.7091 23.4854C82.7561 23.4854 82.7948 23.5241 82.7948 23.5711L82.911 43.9841C82.7948 62.8673 69.3724 92.7413 27.9434 92.7413V23.5711C27.9434 23.5241 27.9821 23.4854 28.0291 23.4854H82.7091Z" fill="white"/>
<path d="M77.2879 43.9083H33.2363V42.2236H77.2879V43.9083Z" fill="#EFEAFD"/>
<path d="M77.2879 40.4376H33.2363V38.7529H77.2879V40.4376Z" fill="#EFEAFD"/>
<path d="M72.4192 34.6423H39.8867V32.6201H72.4192V34.6423Z" fill="#EFEAFD"/>
<path d="M77.2907 45.8965H33.2363V47.5812H77.2907V45.8965Z" fill="#EFEAFD"/>
<path d="M77.2879 51.1253H33.2363V49.4434H77.2879V51.1253Z" fill="#EFEAFD"/>
<path d="M77.2879 54.6292H33.2363V52.9473H77.2879V54.6292Z" fill="#EFEAFD"/>
<path d="M77.2907 56.6152H33.2363V58.3H77.2907V56.6152Z" fill="#EFEAFD"/>
<path d="M77.2879 61.8468H33.2363V60.1621H77.2879V61.8468Z" fill="#EFEAFD"/>
<path d="M77.2879 65.0597H33.2363V63.375H77.2879V65.0597Z" fill="#EFEAFD"/>
<path d="M77.2879 68.7374H33.2363V67.0527H77.2879V68.7374Z" fill="#EFEAFD"/>
<path d="M76.7568 70.7236H33.2363V72.4083H76.7568V70.7236Z" fill="#EFEAFD"/>
<path d="M77.5756 82.5333H33.2363V80.8486H77.5756V82.5333Z" fill="#EFEAFD"/>
<path d="M60.4933 84.5186H33.2363V86.2033H60.4933V84.5186Z" fill="#E4D6F6"/>
<path d="M33.2363 84.5186V86.2033H57.2733C58.2913 85.6666 59.2761 85.105 60.225 84.5186H33.2363Z" fill="#EFEAFD"/>
<path d="M77.2873 67.0547V68.7394H75.7852C76.1199 68.1806 76.4436 67.619 76.7534 67.0547H77.2873Z" fill="#E4D6F6"/>
<path d="M76.9151 70.7236V72.4083H73.3438C73.7144 71.8523 74.0685 71.2907 74.4116 70.7236H76.9151Z" fill="#E4D6F6"/>
<path d="M77.575 80.8486V82.5333H63.1816C63.9313 81.9884 64.6589 81.4268 65.3588 80.8486H77.575Z" fill="#E4D6F6"/>
<path d="M77.2879 75.9543H33.2363V74.2695H77.2879V75.9543Z" fill="#E4D6F6"/>
<path d="M33.2363 74.2695V75.9543H70.4688C70.964 75.401 71.4454 74.8394 71.9073 74.2695H33.2363Z" fill="#EFEAFD"/>
<path d="M77.2879 79.2521H33.2363V77.5674H77.2879V79.2521Z" fill="#E4D6F6"/>
<path d="M33.2363 77.5674V79.2521H67.2018C67.8048 78.7016 68.3858 78.14 68.9501 77.5674H33.2363Z" fill="#EFEAFD"/>
</g>
<path d="M78.6628 48.3129C78.6407 47.5384 78.6545 46.7638 78.6158 45.992C78.577 45.234 78.5079 44.476 78.4387 43.7208C78.3972 43.2809 78.3557 42.8411 78.3198 42.4012C77.9878 41.8673 77.6669 41.3306 77.3488 40.7884C76.8204 39.8894 76.3059 38.982 75.7664 38.0885C75.4898 37.632 75.2104 37.1728 74.9199 36.7219C74.6211 36.3927 74.3141 36.0718 74.0098 35.7481C73.6806 35.3995 73.3542 35.0482 73.0388 34.6886C72.8894 34.5171 72.7428 34.3428 72.5989 34.1657C72.4606 33.9942 72.3251 33.8227 72.1895 33.6484H58.8169C58.8003 33.654 58.7837 33.6623 58.7671 33.6678C58.2775 34.8269 57.5527 35.8477 56.5983 36.7357C55.8292 37.5628 54.9578 38.2185 53.9841 38.6971C53.6991 39.5408 53.3008 40.3154 52.789 41.0263C52.7862 41.433 52.7696 41.8424 52.7198 42.2518C52.5013 44.0887 52.2606 45.909 51.9065 47.7237C51.8567 47.9837 51.8042 48.2465 51.7544 48.5066C51.7073 49.1733 51.6797 49.84 51.6631 50.5067C51.652 50.952 51.6465 51.4002 51.6465 51.8456C52.1527 52.2356 52.659 52.6285 53.1652 53.0185C54.482 54.3436 55.4309 55.8789 56.0173 57.6301C57.3618 57.8735 58.6454 58.3465 59.8626 59.0547L60.5735 59.6052C60.8723 59.6135 61.1683 59.6218 61.4671 59.6301C63.6746 59.691 65.8933 59.738 68.0981 59.5665C68.3858 59.5056 68.6735 59.4365 68.9584 59.3563C70.1811 59.0132 71.3624 58.5347 72.5962 58.2331C72.7041 58.1225 72.8119 58.009 72.9198 57.8956C73.7387 57.0298 74.5188 56.1252 75.2906 55.2178C75.6419 54.8056 75.9822 54.374 76.3557 53.9812C76.6378 53.6825 76.9449 53.403 77.2575 53.1375C77.7665 52.7004 78.3004 52.291 78.826 51.8677C78.826 51.8594 78.826 51.8511 78.826 51.8428C78.7679 50.6643 78.696 49.4886 78.6628 48.3129Z" fill="#EFEAFD"/>
<path d="M78.6628 48.3129C78.6407 47.5384 78.6545 46.7638 78.6158 45.992C78.577 45.234 78.5079 44.476 78.4387 43.7208C78.3972 43.2809 78.3557 42.8411 78.3198 42.4012C77.9878 41.8673 77.6669 41.3306 77.3488 40.7884C76.8204 39.8894 76.3059 38.982 75.7664 38.0885C75.4898 37.632 75.2104 37.1728 74.9199 36.7219C74.6211 36.3927 74.3141 36.0718 74.0098 35.7481C73.6806 35.3995 73.3542 35.0482 73.0388 34.6886C72.8894 34.5171 72.7428 34.3428 72.5989 34.1657C72.4606 33.9942 72.3251 33.8227 72.1895 33.6484H58.8169C58.8003 33.654 58.7837 33.6623 58.7671 33.6678C58.2775 34.8269 57.5527 35.8477 56.5983 36.7357C55.8292 37.5628 54.9578 38.2185 53.9841 38.6971C53.6991 39.5408 53.3008 40.3154 52.789 41.0263C52.7862 41.433 52.7696 41.8424 52.7198 42.2518C52.5013 44.0887 52.2606 45.909 51.9065 47.7237C51.8567 47.9837 51.8042 48.2465 51.7544 48.5066C51.7073 49.1733 51.6797 49.84 51.6631 50.5067C51.652 50.952 51.6465 51.4002 51.6465 51.8456C52.1527 52.2356 52.659 52.6285 53.1652 53.0185C54.482 54.3436 55.4309 55.8789 56.0173 57.6301C57.3618 57.8735 58.6454 58.3465 59.8626 59.0547L60.5735 59.6052C60.8723 59.6135 61.1683 59.6218 61.4671 59.6301C63.6746 59.691 65.8933 59.738 68.0981 59.5665C68.3858 59.5056 68.6735 59.4365 68.9584 59.3563C70.1811 59.0132 71.3624 58.5347 72.5962 58.2331C72.7041 58.1225 72.8119 58.009 72.9198 57.8956C73.7387 57.0298 74.5188 56.1252 75.2906 55.2178C75.6419 54.8056 75.9822 54.374 76.3557 53.9812C76.6378 53.6825 76.9449 53.403 77.2575 53.1375C77.7665 52.7004 78.3004 52.291 78.826 51.8677C78.826 51.8594 78.826 51.8511 78.826 51.8428C78.7679 50.6643 78.696 49.4886 78.6628 48.3129Z" fill="#EFEAFD"/>
<path d="M78.6628 48.3129C78.6407 47.5384 78.6545 46.7638 78.6158 45.992C78.577 45.234 78.5079 44.476 78.4387 43.7208C78.3972 43.2809 78.3557 42.8411 78.3198 42.4012C77.9878 41.8673 77.6669 41.3306 77.3488 40.7884C76.8204 39.8894 76.3059 38.982 75.7664 38.0885C75.4898 37.632 75.2104 37.1728 74.9199 36.7219C74.6211 36.3927 74.3141 36.0718 74.0098 35.7481C73.6806 35.3995 73.3542 35.0482 73.0388 34.6886C72.8894 34.5171 72.7428 34.3428 72.5989 34.1657C72.4606 33.9942 72.3251 33.8227 72.1895 33.6484H58.8169C58.8003 33.654 58.7837 33.6623 58.7671 33.6678C58.2775 34.8269 57.5527 35.8477 56.5983 36.7357C55.8292 37.5628 54.9578 38.2185 53.9841 38.6971C53.6991 39.5408 53.3008 40.3154 52.789 41.0263C52.7862 41.433 52.7696 41.8424 52.7198 42.2518C52.5013 44.0887 52.2606 45.909 51.9065 47.7237C51.8567 47.9837 51.8042 48.2465 51.7544 48.5066C51.7073 49.1733 51.6797 49.84 51.6631 50.5067C51.652 50.952 51.6465 51.4002 51.6465 51.8456C52.1527 52.2356 52.659 52.6285 53.1652 53.0185C54.482 54.3436 55.4309 55.8789 56.0173 57.6301C57.3618 57.8735 58.6454 58.3465 59.8626 59.0547L60.5735 59.6052C60.8723 59.6135 61.1683 59.6218 61.4671 59.6301C63.6746 59.691 65.8933 59.738 68.0981 59.5665C68.3858 59.5056 68.6735 59.4365 68.9584 59.3563C70.1811 59.0132 71.3624 58.5347 72.5962 58.2331C72.7041 58.1225 72.8119 58.009 72.9198 57.8956C73.7387 57.0298 74.5188 56.1252 75.2906 55.2178C75.6419 54.8056 75.9822 54.374 76.3557 53.9812C76.6378 53.6825 76.9449 53.403 77.2575 53.1375C77.7665 52.7004 78.3004 52.291 78.826 51.8677C78.826 51.8594 78.826 51.8511 78.826 51.8428C78.7679 50.6643 78.696 49.4886 78.6628 48.3129Z" fill="#FCFAFE"/>
<path d="M78.6628 48.3129C78.6407 47.5384 78.6545 46.7638 78.6158 45.992C78.577 45.234 78.5079 44.476 78.4387 43.7208C78.3972 43.2809 78.3557 42.8411 78.3198 42.4012C77.9878 41.8673 77.6669 41.3306 77.3488 40.7884C76.8204 39.8894 76.3059 38.982 75.7664 38.0885C75.4898 37.632 75.2104 37.1728 74.9199 36.7219C74.6211 36.3927 74.3141 36.0718 74.0098 35.7481C73.6806 35.3995 73.3542 35.0482 73.0388 34.6886C72.8894 34.5171 72.7428 34.3428 72.5989 34.1657C72.4606 33.9942 72.3251 33.8227 72.1895 33.6484H58.8169C58.8003 33.654 58.7837 33.6623 58.7671 33.6678C58.2775 34.8269 57.5527 35.8477 56.5983 36.7357C55.8292 37.5628 54.9578 38.2185 53.9841 38.6971C53.6991 39.5408 53.3008 40.3154 52.789 41.0263C52.7862 41.433 52.7696 41.8424 52.7198 42.2518C52.5013 44.0887 52.2606 45.909 51.9065 47.7237C51.8567 47.9837 51.8042 48.2465 51.7544 48.5066C51.7073 49.1733 51.6797 49.84 51.6631 50.5067C51.652 50.952 51.6465 51.4002 51.6465 51.8456C52.1527 52.2356 52.659 52.6285 53.1652 53.0185C54.482 54.3436 55.4309 55.8789 56.0173 57.6301C57.3618 57.8735 58.6454 58.3465 59.8626 59.0547L60.5735 59.6052C60.8723 59.6135 61.1683 59.6218 61.4671 59.6301C63.6746 59.691 65.8933 59.738 68.0981 59.5665C68.3858 59.5056 68.6735 59.4365 68.9584 59.3563C70.1811 59.0132 71.3624 58.5347 72.5962 58.2331C72.7041 58.1225 72.8119 58.009 72.9198 57.8956C73.7387 57.0298 74.5188 56.1252 75.2906 55.2178C75.6419 54.8056 75.9822 54.374 76.3557 53.9812C76.6378 53.6825 76.9449 53.403 77.2575 53.1375C77.7665 52.7004 78.3004 52.291 78.826 51.8677C78.826 51.8594 78.826 51.8511 78.826 51.8428C78.7679 50.6643 78.696 49.4886 78.6628 48.3129Z" fill="#FCFAFE"/>
<path d="M78.6628 48.3129C78.6407 47.5384 78.6545 46.7638 78.6158 45.992C78.577 45.234 78.5079 44.476 78.4387 43.7208C78.3972 43.2809 78.3557 42.8411 78.3198 42.4012C77.9878 41.8673 77.6669 41.3306 77.3488 40.7884C76.8204 39.8894 76.3059 38.982 75.7664 38.0885C75.4898 37.632 75.2104 37.1728 74.9199 36.7219C74.6211 36.3927 74.3141 36.0718 74.0098 35.7481C73.6806 35.3995 73.3542 35.0482 73.0388 34.6886C72.8894 34.5171 72.7428 34.3428 72.5989 34.1657C72.4606 33.9942 72.3251 33.8227 72.1895 33.6484H58.8169C58.8003 33.654 58.7837 33.6623 58.7671 33.6678C58.2775 34.8269 57.5527 35.8477 56.5983 36.7357C55.8292 37.5628 54.9578 38.2185 53.9841 38.6971C53.6991 39.5408 53.3008 40.3154 52.789 41.0263C52.7862 41.433 52.7696 41.8424 52.7198 42.2518C52.5013 44.0887 52.2606 45.909 51.9065 47.7237C51.8567 47.9837 51.8042 48.2465 51.7544 48.5066C51.7073 49.1733 51.6797 49.84 51.6631 50.5067C51.652 50.952 51.6465 51.4002 51.6465 51.8456C52.1527 52.2356 52.659 52.6285 53.1652 53.0185C54.482 54.3436 55.4309 55.8789 56.0173 57.6301C57.3618 57.8735 58.6454 58.3465 59.8626 59.0547L60.5735 59.6052C60.8723 59.6135 61.1683 59.6218 61.4671 59.6301C63.6746 59.691 65.8933 59.738 68.0981 59.5665C68.3858 59.5056 68.6735 59.4365 68.9584 59.3563C70.1811 59.0132 71.3624 58.5347 72.5962 58.2331C72.7041 58.1225 72.8119 58.009 72.9198 57.8956C73.7387 57.0298 74.5188 56.1252 75.2906 55.2178C75.6419 54.8056 75.9822 54.374 76.3557 53.9812C76.6378 53.6825 76.9449 53.403 77.2575 53.1375C77.7665 52.7004 78.3004 52.291 78.826 51.8677C78.826 51.8594 78.826 51.8511 78.826 51.8428C78.7679 50.6643 78.696 49.4886 78.6628 48.3129Z" fill="white"/>
<path d="M52.7251 42.2479C52.6697 42.7154 52.6116 43.183 52.5508 43.6477H78.4329C78.3942 43.2328 78.3554 42.8178 78.3222 42.4028C78.1673 42.1539 78.0152 41.9021 77.863 41.6504H52.7776C52.7638 41.8468 52.7472 42.0487 52.7251 42.2479Z" fill="#EFEAFD"/>
<path d="M75.7689 38.0873C75.6583 37.9019 75.5449 37.7166 75.4314 37.5312H55.7681C55.2204 37.9932 54.6256 38.3805 53.9894 38.6931C53.8925 38.9781 53.7819 39.2575 53.6602 39.5286H76.621C76.3388 39.0472 76.0566 38.5659 75.7689 38.0873Z" fill="#EFEAFD"/>
<path d="M51.9127 47.7191C51.8934 47.8131 51.8768 47.9072 51.8574 48.0012H78.6552C78.6441 47.3345 78.6497 46.6678 78.6165 46.0039H52.2143C52.123 46.5738 52.0234 47.1464 51.9127 47.7191Z" fill="#EFEAFD"/>
<path d="M78.7434 50.207H51.6772C51.6745 50.3039 51.6717 50.4034 51.6689 50.5003C51.6579 50.9457 51.6523 51.3938 51.6523 51.8392C51.81 51.9609 51.9649 52.0826 52.1226 52.2016H78.4003C78.5442 52.0882 78.688 51.9747 78.8319 51.8585C78.8319 51.8503 78.8319 51.8447 78.8319 51.8364C78.8015 51.297 78.771 50.752 78.7434 50.207Z" fill="#EFEAFD"/>
<path d="M75.2964 55.2135C75.5343 54.9341 75.7694 54.6437 76.0101 54.3643H54.3301C54.7921 54.9922 55.1904 55.6562 55.5196 56.3616H74.306C74.6407 55.9826 74.9699 55.5981 75.2964 55.2135Z" fill="#EFEAFD"/>
<path d="M60.5813 59.6022C60.88 59.6105 61.176 59.6188 61.4748 59.6271C63.6824 59.688 65.901 59.735 68.1058 59.5635C68.3935 59.5026 68.6812 59.4334 68.9661 59.3532C69.6356 59.1651 70.294 58.9355 70.9551 58.7197H59.2617C59.4664 58.8248 59.6711 58.9355 59.8731 59.0517L60.5813 59.6022Z" fill="#EFEAFD"/>
<path d="M70.1533 60.326L67.627 60.9189L70.9936 75.2636L73.5199 74.6707L70.1533 60.326Z" fill="#5D5D89"/>
<path d="M79.3294 90.6168L72.3913 65.0584C72.289 64.6766 71.9017 64.447 71.5172 64.5355L68.4299 65.252C68.0481 65.3406 67.8019 65.7168 67.8766 66.1013L72.7814 92.1245C73.0221 93.397 74.2725 94.2131 75.5339 93.9199L77.6474 93.4275C78.9034 93.1398 79.6669 91.8617 79.3294 90.6168Z" fill="#3F3F63"/>
<path d="M72.5856 91.0775C72.8816 91.0968 73.1831 91.0719 73.4846 91.0028C75.1528 90.6155 76.1929 88.9474 75.8028 87.2792L72.0185 71.002C71.6367 69.356 70.0073 68.3214 68.3613 68.6671L72.5856 91.0775Z" fill="#5D5D89"/>
<path d="M68.062 68.1425L68.4022 70.2588C68.4271 70.4054 68.5738 70.5022 68.7204 70.4662L73.5339 69.3376C73.6805 69.3016 73.769 69.1522 73.7275 69.0111L73.1078 66.9613C73.0691 66.8312 72.9308 66.7538 72.798 66.787L68.2639 67.852C68.1284 67.8797 68.0398 68.0097 68.062 68.1425Z" fill="#FF1744"/>
<path d="M70.6818 62.5936L70.1507 60.3252L67.625 60.9172L68.0261 62.624C68.8754 62.92 69.816 62.9173 70.6818 62.5936Z" fill="#3F3F63"/>
<path opacity="0.22" d="M73.2851 33.8937C80.1623 38.1594 82.2813 47.1943 78.0211 54.0743C73.7609 60.9542 64.7315 63.0733 57.8543 58.8075C50.9771 54.5418 48.8581 45.5069 53.1183 38.6269C57.3785 31.747 66.4079 29.6279 73.2851 33.8937Z" fill="white"/>
<path d="M80.5023 42.0674C81.0943 44.1311 81.2547 46.2556 80.9781 48.3747C80.6932 50.5712 79.9518 52.6459 78.7761 54.5437C76.5906 58.0736 73.1603 60.5384 69.1215 61.4872C65.0826 62.4361 60.9136 61.7528 57.3865 59.5646C54.0973 57.5258 51.7017 54.3556 50.6366 50.6376C50.0446 48.5739 49.8842 46.4493 50.1608 44.3303C50.4457 42.1338 51.1871 40.059 52.3628 38.1613C54.5482 34.6314 57.9785 32.1665 62.0174 31.2177C66.0563 30.2688 70.2252 30.9521 73.7523 33.1403C77.0416 35.1791 79.4372 38.3494 80.5023 42.0674ZM53.2315 49.8906C54.1112 52.9613 56.0919 55.5811 58.8084 57.2658C61.7242 59.075 65.1655 59.6366 68.5045 58.8537C71.8436 58.0708 74.6763 56.032 76.48 53.1162C78.3832 50.0428 78.9033 46.2861 77.9074 42.8088C77.0277 39.7381 75.047 37.1183 72.3304 35.4336C69.4147 33.6244 65.9733 33.0628 62.6343 33.8457C59.2953 34.6286 56.4626 36.6674 54.6589 39.5832C52.7529 42.6566 52.2328 46.4133 53.2315 49.8906Z" fill="#5D5D89"/>
<path d="M80.5018 42.0677C79.4367 38.3497 77.0383 35.1794 73.7518 33.1406C73.3037 32.864 72.8472 32.6095 72.3797 32.3799C71.9869 32.8391 71.63 33.3315 71.287 33.8239C71.1072 34.0812 70.9301 34.3412 70.7559 34.6013C71.2953 34.8419 71.8209 35.1186 72.3327 35.4367C75.0493 37.1214 77.1849 39.6997 77.9097 42.8118C78.972 47.3736 77.8654 50.577 77.0936 52.1041C76.7893 52.7044 76.994 53.4375 77.5666 53.7943C77.5777 53.8026 77.5888 53.8081 77.6026 53.8164C78.2472 54.2176 79.0964 53.9797 79.4422 53.3019C79.6165 52.9589 79.7659 52.6629 79.7936 52.5965C80.1062 51.9077 80.3773 51.1995 80.5903 50.4747C81.0329 48.967 81.1768 47.4206 81.1076 45.8548C81.0495 44.5713 80.8559 43.2987 80.5018 42.0677Z" fill="#3F3F63"/>
<path d="M71.4637 69.8227C70.7472 68.8821 69.5189 68.3952 68.2934 68.6829C68.2464 68.694 68.1994 68.705 68.1523 68.7189L68.4013 70.2597C68.4262 70.4064 68.5728 70.5032 68.7194 70.4672L71.4637 69.8227Z" fill="#FF597A"/>
<path d="M59.3953 57.1299C56.6787 55.4451 54.698 52.8254 53.8183 49.7547C52.8224 46.2774 53.3425 42.5207 55.2457 39.4473C57.0024 36.6117 59.7494 34.6033 62.9667 33.7734C62.856 33.7956 62.7453 33.8205 62.6347 33.8454C59.2957 34.6282 56.4629 36.6671 54.6593 39.5828C52.756 42.6562 52.2359 46.413 53.2318 49.8903C54.1115 52.9609 56.0922 55.5807 58.8088 57.2654C61.7246 59.0746 65.1659 59.6362 68.5049 58.8533C68.5962 58.8312 68.5049 58.8561 68.5962 58.8312C65.3623 59.5062 62.2114 58.8782 59.3953 57.1299Z" fill="#3F3F63"/>
<path d="M53.5328 41.8802C54.0252 40.5496 54.7389 39.2992 55.6546 38.1844C57.8345 35.537 60.9134 33.8965 64.3271 33.5673C66.6868 33.3405 69.0106 33.7582 71.0936 34.7568C71.6469 35.0224 72.3108 34.8758 72.7009 34.4028C72.7064 34.3945 72.712 34.3889 72.7175 34.3806C73.2708 33.7139 73.0522 32.7014 72.2721 32.3252C69.7464 31.108 66.9275 30.6018 64.0671 30.8784C59.9369 31.2768 56.2078 33.263 53.5687 36.4665C52.6558 37.5758 51.9117 38.7819 51.3418 40.071L53.5328 41.8802Z" fill="#5D5D89"/>
<path d="M57.3826 59.5627L58.8045 57.2666C58.8045 57.2666 54.3313 54.633 53.2275 49.8915C52.5746 47.0781 52.6355 44.1541 53.6756 41.5205C53.9052 40.9368 53.7061 40.2756 53.186 39.9215C53.1749 39.9132 53.1639 39.9049 53.1528 39.8994C52.4529 39.4208 51.4874 39.7113 51.1665 40.4969C50.6686 41.7224 50.3283 43.0032 50.1568 44.3283C49.8802 46.4501 50.1458 48.5443 50.6326 50.6356C51.9605 56.3371 57.3826 59.5627 57.3826 59.5627Z" fill="#8383B7"/>
<path d="M72.4552 59.3564C72.2228 58.781 71.9822 58.1918 71.6862 57.633C71.6364 57.6606 71.5866 57.6883 71.534 57.7132C68.4993 59.3094 65.0248 59.6303 61.7494 58.6123C60.3579 58.1807 59.066 57.5223 57.9207 56.673C57.5058 56.366 56.9497 56.3217 56.4905 56.5624C55.6081 57.0244 55.5112 58.2499 56.3107 58.8419C57.6994 59.871 59.2652 60.6677 60.9499 61.1905C64.9003 62.4188 69.0913 62.0398 72.7568 60.1227C72.6544 59.8682 72.5576 59.6109 72.4552 59.3564Z" fill="#5D5D89"/>
<path d="M77.9067 42.8113C77.027 39.7406 75.0462 37.1209 72.3297 35.4361C69.4139 33.6269 65.9726 33.0654 62.6336 33.8482C62.5229 33.8759 62.4095 33.9036 62.2988 33.9312C65.5161 33.2784 69.0543 33.8095 71.8566 35.5468C74.5732 37.2315 76.5539 39.8513 77.4336 42.9219C78.4295 46.3992 77.9094 50.156 76.0062 53.2294C74.2606 56.0483 71.793 57.9958 68.6006 58.834C68.7279 58.8091 68.6781 58.8119 68.8053 58.7815C72.1443 57.9986 74.6728 56.0345 76.4792 53.1187C78.3825 50.0453 78.9025 46.2886 77.9067 42.8113Z" fill="#8383B7"/>
<path d="M63.5379 52.7628L57.5266 46.8456C57.2361 46.5606 57.2334 46.0931 57.5183 45.8026L59.0702 44.2258C59.3552 43.9353 59.8227 43.9326 60.1131 44.2175L63.5379 47.5897C63.8256 47.8719 64.2848 47.8719 64.5725 47.5897L71.2229 41.0417C71.5133 40.7568 71.9808 40.7596 72.2658 41.05L73.8177 42.6269C74.1026 42.9173 74.0999 43.3848 73.8094 43.6698L64.5725 52.7628C64.2848 53.045 63.8256 53.045 63.5379 52.7628Z" fill="#00E0A8"/>
<defs>
<filter id="filter0_d_2940_63015" x="6.00195" y="0.798828" width="106.969" height="118.224" filterUnits="userSpaceOnUse" color-interpolation-filters="sRGB">
<feFlood flood-opacity="0" result="BackgroundImageFix"/>
<feColorMatrix in="SourceAlpha" type="matrix" values="0 0 0 0 0 0 0 0 0 0 0 0 0 0 0 0 0 0 127 0" result="hardAlpha"/>
<feOffset dy="2"/>
<feGaussianBlur stdDeviation="7.5"/>
<feComposite in2="hardAlpha" operator="out"/>
<feColorMatrix type="matrix" values="0 0 0 0 0.262745 0 0 0 0 0.219608 0 0 0 0 0.788235 0 0 0 0.1 0"/>
<feBlend mode="normal" in2="BackgroundImageFix" result="effect1_dropShadow_2940_63015"/>
<feBlend mode="normal" in="SourceGraphic" in2="effect1_dropShadow_2940_63015" result="shape"/>
</filter>
<filter id="filter1_d_2940_63015" x="13.9766" y="12.3779" width="88.1152" height="95.2588" filterUnits="userSpaceOnUse" color-interpolation-filters="sRGB">
<feFlood flood-opacity="0" result="BackgroundImageFix"/>
<feColorMatrix in="SourceAlpha" type="matrix" values="0 0 0 0 0 0 0 0 0 0 0 0 0 0 0 0 0 0 127 0" result="hardAlpha"/>
<feOffset dy="1"/>
<feGaussianBlur stdDeviation="1"/>
<feComposite in2="hardAlpha" operator="out"/>
<feColorMatrix type="matrix" values="0 0 0 0 0.262745 0 0 0 0 0.219608 0 0 0 0 0.788235 0 0 0 0.05 0"/>
<feBlend mode="normal" in2="BackgroundImageFix" result="effect1_dropShadow_2940_63015"/>
<feBlend mode="normal" in="SourceGraphic" in2="effect1_dropShadow_2940_63015" result="shape"/>
</filter>
<filter id="filter2_d_2940_63015" x="23.5332" y="19.666" width="64.1738" height="83.6523" filterUnits="userSpaceOnUse" color-interpolation-filters="sRGB">
<feFlood flood-opacity="0" result="BackgroundImageFix"/>
<feColorMatrix in="SourceAlpha" type="matrix" values="0 0 0 0 0 0 0 0 0 0 0 0 0 0 0 0 0 0 127 0" result="hardAlpha"/>
<feOffset dy="1"/>
<feGaussianBlur stdDeviation="2"/>
<feComposite in2="hardAlpha" operator="out"/>
<feColorMatrix type="matrix" values="0 0 0 0 0.262745 0 0 0 0 0.219608 0 0 0 0 0.788235 0 0 0 0.1 0"/>
<feBlend mode="normal" in2="BackgroundImageFix" result="effect1_dropShadow_2940_63015"/>
<feBlend mode="normal" in="SourceGraphic" in2="effect1_dropShadow_2940_63015" result="shape"/>
</filter>
</defs>
</svg>
