<svg width="120" height="106" viewBox="0 0 120 106" fill="none" xmlns="http://www.w3.org/2000/svg">
<g opacity="0.41">
<path d="M118.875 63.0441C118.988 61.4035 118.937 59.7555 118.719 58.1236C117.692 50.4558 113.041 43.2253 106.195 38.1236C103.753 36.3036 100.974 34.673 99.3848 32.2705C96.7083 28.2245 96.9112 23.5746 93.5891 19.5798C90.2634 15.5803 85.4168 12.4613 79.9514 10.8594C63.6553 6.08336 40.8401 13.8598 42.8943 30.4665C42.9017 30.5262 42.9096 30.6128 42.9183 30.7223C43.1914 34.1718 39.9904 37.0722 35.9165 37.1539C20.8812 37.4557 7.93902 47.2604 5.16959 59.6803C3.38856 67.6675 6.30484 76.4221 13.2126 82.0725C18.3691 86.2903 25.2875 88.6074 32.2092 90.1995C46.0877 93.3919 60.6922 94.061 75.002 92.8403C88.3968 91.6976 102.526 88.4406 111.189 79.7243C115.811 75.0744 118.458 69.1116 118.875 63.0441Z" fill="#CAE6F5"/>
</g>
<g opacity="0.31">
<path d="M51.3395 9.44277C53.1269 8.73405 53.9814 6.75922 53.248 5.03187C52.5147 3.30451 50.4712 2.47874 48.6837 3.18746C46.8963 3.89618 46.0418 5.871 46.7751 7.59836C47.5085 9.32571 49.552 10.1515 51.3395 9.44277Z" fill="#CAE6F5"/>
</g>
<g opacity="0.31">
<path d="M97.2776 6.00032C98.2745 6.00032 99.0826 5.21937 99.0826 4.25602C99.0826 3.29267 98.2745 2.51172 97.2776 2.51172C96.2808 2.51172 95.4727 3.29267 95.4727 4.25602C95.4727 5.21937 96.2808 6.00032 97.2776 6.00032Z" fill="#CAE6F5"/>
</g>
<g opacity="0.31">
<path d="M35.3705 15.4377C36.2574 14.4724 36.1665 12.9951 35.1676 12.1381C34.1687 11.281 32.64 11.3688 31.7532 12.3342C30.8664 13.2995 30.9572 14.7768 31.9561 15.6338C32.955 16.4908 34.4837 16.403 35.3705 15.4377Z" fill="#CAE6F5"/>
</g>
<g opacity="0.31">
<path d="M5.67206 97.3743C8.71351 97.3743 11.1791 94.9916 11.1791 92.0524C11.1791 89.1132 8.71351 86.7305 5.67206 86.7305C2.63062 86.7305 0.165039 89.1132 0.165039 92.0524C0.165039 94.9916 2.63062 97.3743 5.67206 97.3743Z" fill="#CAE6F5"/>
</g>
<path opacity="0.47" d="M119.312 16.0694C120.882 13.1144 119.675 9.48895 116.617 7.97175C113.559 6.4548 107.683 6.56644 106.113 9.5215C104.543 12.4766 109.25 15.0128 111.169 17.7685C113.845 21.6121 117.742 19.0245 119.312 16.0694Z" fill="#CAE6F5"/>
<path opacity="0.47" d="M105.941 100.296C108.153 101.676 111.104 101.062 112.533 98.9241C113.961 96.7859 114.318 92.4482 112.105 91.0678C109.893 89.6874 107.536 92.9629 105.217 94.168C101.982 95.849 103.728 98.9157 105.941 100.296Z" fill="#CAE6F5"/>
<path opacity="0.47" d="M15.6348 2.51002C13.2011 0.326023 9.39645 0.462078 7.13649 2.81392C4.87652 5.16576 3.44707 10.4765 5.88072 12.6605C8.31436 14.8445 11.9862 11.2775 15.1403 10.2735C19.5397 8.87306 18.0684 4.69402 15.6348 2.51002Z" fill="#CAE6F5"/>
<path opacity="0.47" d="M2.22043 27.8969C0.0509844 32.4485 -0.541639 37.6959 0.499399 42.6015C1.72307 48.3687 5.43854 52.7995 4.14935 58.952C3.36409 62.6995 3.16752 66.171 2.76937 69.8791C1.95175 77.4931 7.0672 84.202 13.4134 87.8246C18.5678 90.767 24.6106 91.8709 30.5366 91.7926C35.8702 91.7219 41.1943 90.77 46.3627 89.4903C51.3434 88.2569 56.2131 86.6319 61.4338 87.1446C65.7758 87.5711 69.6863 89.385 73.7299 90.7377C83.3837 93.9672 95.078 94.4226 103.906 89.5063C109.571 86.3514 113.537 81.2273 115.295 75.7185C116.701 71.3159 116.879 67.199 115.826 62.7043C114.744 58.0896 112.918 53.4376 113.485 48.6291C113.88 45.2784 115.466 42.0443 115.176 38.6836C114.982 36.4506 113.965 34.3556 112.721 32.4648C108.178 25.5606 100.572 20.938 92.5265 18.3911C84.9548 15.9943 77.1462 14.2584 69.2631 14.8351C52.9644 16.0273 49.6418 13.5257 32.9852 10.0829C22.232 7.86024 10.2035 15.7832 3.91093 24.9617C3.26883 25.8973 2.70542 26.8797 2.22043 27.8969Z" fill="#CAE6F5"/>
<path opacity="0.58" d="M61.2233 4.22041C61.8773 4.22041 62.4074 3.70805 62.4074 3.07603C62.4074 2.444 61.8773 1.93164 61.2233 1.93164C60.5692 1.93164 60.0391 2.444 60.0391 3.07603C60.0391 3.70805 60.5692 4.22041 61.2233 4.22041Z" fill="#FDBBA0"/>
<path opacity="0.58" d="M86.632 7.20887C87.1407 7.20887 87.553 6.81037 87.553 6.31879C87.553 5.82721 87.1407 5.42871 86.632 5.42871C86.1233 5.42871 85.7109 5.82721 85.7109 6.31879C85.7109 6.81037 86.1233 7.20887 86.632 7.20887Z" fill="#FDBBA0"/>
<path opacity="0.58" d="M24.6574 15.9651C24.8754 15.9651 25.0522 15.7943 25.0522 15.5836C25.0522 15.3729 24.8754 15.2021 24.6574 15.2021C24.4394 15.2021 24.2627 15.3729 24.2627 15.5836C24.2627 15.7943 24.4394 15.9651 24.6574 15.9651Z" fill="#FDBBA0"/>
<path opacity="0.58" d="M118.932 27.0101C118.768 27.7524 118.012 28.2254 117.244 28.067C116.476 27.9086 115.987 27.1782 116.151 26.4361C116.315 25.6938 117.07 25.2208 117.838 25.3792C118.607 25.5376 119.096 26.2678 118.932 27.0101Z" fill="#B7E3C0"/>
<path opacity="0.58" d="M21.3024 4.87323C21.2382 5.16441 20.9419 5.3498 20.6405 5.28775C20.3392 5.2257 20.1474 4.93935 20.2116 4.64817C20.2758 4.35699 20.5721 4.17159 20.8734 4.23365C21.1747 4.2957 21.3668 4.58205 21.3024 4.87323Z" fill="#B7E3C0"/>
<path opacity="0.58" d="M110.185 2.60764C110.13 2.85508 109.878 3.01275 109.622 2.95986C109.366 2.90696 109.203 2.66359 109.258 2.41615C109.312 2.16871 109.564 2.01103 109.82 2.06393C110.076 2.11683 110.239 2.3602 110.185 2.60764Z" fill="#FDBBA0"/>
<path opacity="0.58" d="M115.926 86.2097C116.58 86.2097 117.111 85.6973 117.111 85.0653C117.111 84.4333 116.58 83.9209 115.926 83.9209C115.272 83.9209 114.742 84.4333 114.742 85.0653C114.742 85.6973 115.272 86.2097 115.926 86.2097Z" fill="#FDBBA0"/>
<path opacity="0.58" d="M18.443 96.7644C19.097 96.7644 19.6272 96.252 19.6272 95.62C19.6272 94.9879 19.097 94.4756 18.443 94.4756C17.789 94.4756 17.2588 94.9879 17.2588 95.62C17.2588 96.252 17.789 96.7644 18.443 96.7644Z" fill="#FDBBA0"/>
<path opacity="0.58" d="M93.1867 101.322C93.6953 101.322 94.1077 100.924 94.1077 100.432C94.1077 99.9405 93.6953 99.542 93.1867 99.542C92.678 99.542 92.2656 99.9405 92.2656 100.432C92.2656 100.924 92.678 101.322 93.1867 101.322Z" fill="#B7E3C0"/>
<path opacity="0.58" d="M1.34923 82.5349C2.00324 82.5349 2.53343 82.0225 2.53343 81.3905C2.53343 80.7585 2.00324 80.2461 1.34923 80.2461C0.69522 80.2461 0.165039 80.7585 0.165039 81.3905C0.165039 82.0225 0.69522 82.5349 1.34923 82.5349Z" fill="#B7E3C0"/>
<path opacity="0.58" d="M9.90935 104.664C9.85461 104.912 9.60277 105.069 9.34672 105.017C9.09067 104.964 8.92752 104.72 8.98225 104.473C9.03699 104.225 9.28883 104.068 9.54488 104.121C9.80093 104.173 9.96408 104.417 9.90935 104.664Z" fill="#FDBBA0"/>
<path d="M60.1797 21.7949C56.9417 21.7949 54.3184 24.4183 54.3184 27.6563C54.3184 30.8943 56.9417 33.5176 60.1797 33.5176C63.4177 33.5176 66.0411 30.8943 66.0411 27.6563C66.0411 24.4183 63.4177 21.7949 60.1797 21.7949ZM60.1797 30.1447C58.8006 30.1447 57.6913 29.0354 57.6913 27.6563C57.6913 26.2771 58.8006 25.1678 60.1797 25.1678C61.5589 25.1678 62.6682 26.2771 62.6682 27.6563C62.6682 29.0354 61.5589 30.1447 60.1797 30.1447Z" fill="#FCD329"/>
<path d="M66.0414 27.7787C64.7372 27.329 63.538 27.0741 62.5486 26.9242C62.6235 27.1641 62.6535 27.4039 62.6535 27.6588C62.6535 29.0379 61.5442 30.1472 60.1651 30.1472C58.7859 30.1472 57.6766 29.0379 57.6766 27.6588C57.6766 27.3739 57.7216 27.1191 57.8115 26.8643C56.8521 26.9842 55.6379 27.224 54.3037 27.6588C54.3037 27.6588 54.3037 27.6588 54.3037 27.6738C54.3037 30.9117 56.9271 33.5351 60.1651 33.5351C63.3881 33.5201 65.9815 30.9567 66.0414 27.7787Z" fill="#FCD329"/>
<path d="M66.0414 27.7787C64.7372 27.329 63.538 27.0741 62.5486 26.9242C62.6235 27.1641 62.6535 27.4039 62.6535 27.6588C62.6535 29.0379 61.5442 30.1472 60.1651 30.1472C58.7859 30.1472 57.6766 29.0379 57.6766 27.6588C57.6766 27.3739 57.7216 27.1191 57.8115 26.8643C56.8521 26.9842 55.6379 27.224 54.3037 27.6588C54.3037 27.6588 54.3037 27.6588 54.3037 27.6738C54.3037 30.9117 56.9271 33.5351 60.1651 33.5351C63.3881 33.5201 65.9815 30.9567 66.0414 27.7787Z" fill="#FCD329"/>
<g opacity="0.7">
<path d="M59.1908 22.8135C59.3257 23.2782 58.3513 23.9078 57.3769 24.7923C56.3725 25.6617 55.7579 26.6811 55.4881 26.6212C55.2183 26.5762 55.2782 25.0921 56.4175 23.7879C57.5568 22.4687 59.0709 22.3488 59.1908 22.8135Z" fill="#FCD329"/>
<path d="M60.5252 23.0813C61.0882 23.0813 61.5446 22.8397 61.5446 22.5416C61.5446 22.2436 61.0882 22.002 60.5252 22.002C59.9622 22.002 59.5059 22.2436 59.5059 22.5416C59.5059 22.8397 59.9622 23.0813 60.5252 23.0813Z" fill="#FCD329"/>
</g>
<path d="M59.9998 84.1363C65.05 84.1363 69.1441 80.0422 69.1441 74.992C69.1441 69.9417 65.05 65.8477 59.9998 65.8477C54.9495 65.8477 50.8555 69.9417 50.8555 74.992C50.8555 80.0422 54.9495 84.1363 59.9998 84.1363Z" fill="#FCD329"/>
<path d="M68.9792 76.7009C69.0841 76.1462 69.1441 75.5766 69.1441 74.992C69.1441 69.9401 65.0516 65.8477 59.9998 65.8477C54.9479 65.8477 50.8555 69.9401 50.8555 74.992C50.8555 75.5766 50.9154 76.1462 51.0204 76.7009C55.9823 76.7009 59.9998 76.7009 59.9998 76.7009C59.9998 76.7009 64.0173 76.7009 68.9792 76.7009Z" fill="#FCD329"/>
<path opacity="0.5" d="M68.9792 76.7009C69.0841 76.1462 69.1441 75.5766 69.1441 74.992C69.1441 69.9401 65.0516 65.8477 59.9998 65.8477C54.9479 65.8477 50.8555 69.9401 50.8555 74.992C50.8555 75.5766 50.9154 76.1462 51.0204 76.7009C55.9823 76.7009 59.9998 76.7009 59.9998 76.7009C59.9998 76.7009 64.0173 76.7009 68.9792 76.7009Z" fill="#FCD329"/>
<path opacity="0.5" d="M65.0066 67.3457C65.951 68.7848 66.5057 70.5087 66.5057 72.3526C66.5057 77.4044 62.4132 81.4969 57.3614 81.4969C55.5175 81.4969 53.7936 80.9422 52.3545 79.9978C53.9885 82.4863 56.8067 84.1353 59.9997 84.1353C65.0516 84.1353 69.144 80.0428 69.144 74.9909C69.144 71.7979 67.4951 68.9797 65.0066 67.3457Z" fill="#FCD329"/>
<g opacity="0.7">
<path d="M54.4838 80.0485C55.6906 80.3413 56.8161 79.9721 56.9977 79.2239C57.1793 78.4756 56.3481 77.6316 55.1412 77.3388C53.9344 77.046 52.8089 77.4152 52.6273 78.1634C52.4458 78.9117 53.2769 79.7556 54.4838 80.0485Z" fill="#FCD329"/>
<path d="M58.3926 80.6562C58.8431 80.7655 59.2638 80.6259 59.3321 80.3443C59.4004 80.0627 59.0906 79.7457 58.64 79.6364C58.1895 79.5271 57.7688 79.6668 57.7005 79.9484C57.6322 80.23 57.942 80.5469 58.3926 80.6562Z" fill="#FCD329"/>
</g>
<path d="M84.105 64.473C78.6185 59.4661 78.7684 51.3411 77.8989 44.5054C75.7103 27.1462 60 27.6559 60 27.6559C60 27.6559 44.2898 27.1462 42.1012 44.5054C41.2467 51.3411 41.3816 59.4511 35.895 64.473C34.366 65.8821 32.9419 67.2313 33.0018 69.4799C33.0768 72.2681 35.3404 74.097 37.9038 74.7116C38.7732 74.9215 39.6727 74.9964 40.5571 74.9964C48.6671 74.9964 60 74.9964 60 74.9964C60 74.9964 71.348 74.9964 79.443 74.9964C80.3274 74.9964 81.2268 74.9215 82.0963 74.7116C84.6447 74.097 86.9233 72.2681 86.9982 69.4799C87.0582 67.2462 85.6341 65.8821 84.105 64.473Z" fill="#FCD329"/>
<path opacity="0.5" d="M40.587 55.8242C40.0324 58.1328 39.1929 60.3364 37.8438 62.2552H82.1562C80.807 60.3364 79.9675 58.1328 79.4129 55.8242H40.587Z" fill="#FCD329"/>
<path d="M38.1885 61.7464H81.8113C80.5671 59.8126 79.8026 57.609 79.2929 55.3154H40.6919C40.1972 57.609 39.4327 59.8126 38.1885 61.7464Z" fill="#F7A231"/>
<path opacity="0.2" d="M79.4881 56.0936C79.4282 55.8388 79.3682 55.5839 79.3082 55.3291H40.7072C40.6473 55.5839 40.5873 55.8388 40.5273 56.0936H79.4881Z" fill="#F7A231"/>
<path opacity="0.5" d="M72.7419 74.71C72.2472 74.9199 71.7375 74.9949 71.2279 74.9949C73.7313 74.9949 76.3397 74.9949 78.6782 74.9949C79.5327 74.9949 80.4021 74.9199 81.2266 74.71C83.6851 74.0954 85.8588 72.2666 85.9337 69.4783C85.9937 67.2297 84.6295 65.8805 83.1604 64.4714C77.8987 59.4645 78.0336 51.3396 77.2091 44.5038C75.2454 28.2689 61.9336 27.6693 60.2097 27.6543C60.1797 27.6543 60.1498 27.6543 60.1348 27.6543C61.1691 27.6693 69.1741 28.2539 70.3434 44.5038C70.8381 51.3396 70.7632 59.4645 73.9262 64.4714C74.8106 65.8805 75.6201 67.2297 75.5901 69.4783C75.5302 72.2815 74.226 74.0954 72.7419 74.71Z" fill="#FCD329"/>
<g opacity="0.3">
<path d="M45.2044 69.4802C45.1744 67.2316 45.954 65.8825 46.7934 64.4734C49.8066 59.4665 49.7166 51.3415 50.1963 44.5058C51.3206 28.2409 58.9509 27.6562 59.9103 27.6562C58.726 27.6562 47.0333 28.031 45.3393 44.5058C44.6348 51.3415 44.7547 59.4515 40.2575 64.4734C38.9983 65.8825 37.844 67.2316 37.889 69.4802C37.9489 72.2685 39.8078 74.0974 41.9065 74.712C42.611 74.9219 43.3606 74.9968 44.0801 74.9968C45.7441 74.9968 47.558 74.9968 49.3568 74.9968C48.8621 74.9968 48.3824 74.9219 47.9027 74.712C46.4936 74.0974 45.2494 72.2835 45.2044 69.4802Z" fill="#FCD329"/>
</g>
<path d="M34.0811 72.4199C34.9955 73.5742 36.4046 74.3537 37.9037 74.7135C38.7731 74.9234 39.6726 74.9983 40.557 74.9983C48.667 74.9983 59.9999 74.9983 59.9999 74.9983C59.9999 74.9983 71.3479 74.9983 79.4429 74.9983C80.3273 74.9983 81.2267 74.9234 82.0962 74.7135C83.5953 74.3537 85.0044 73.5742 85.9188 72.4199H34.0811Z" fill="#FCD329"/>
<g opacity="0.8">
<g opacity="0.7">
<path d="M52.7895 66.5015C52.8645 67.1611 48.9669 68.1355 44.065 68.1205C39.163 68.1205 35.2504 67.1611 35.3404 66.5015C35.4153 65.827 39.3129 65.707 44.065 65.707C48.817 65.707 52.7146 65.827 52.7895 66.5015Z" fill="#FCD329"/>
</g>
<g opacity="0.7">
<path d="M61.8884 66.4691C62.0384 67.1137 60.6292 67.9832 58.7104 67.9832C56.7916 67.9832 55.3825 67.1137 55.5324 66.4691C55.6823 65.8095 57.0914 65.5697 58.7104 65.5547C60.3144 65.5697 61.7385 65.8245 61.8884 66.4691Z" fill="#FCD329"/>
</g>
</g>
<g opacity="0.7">
<path d="M52.7298 32.3948C53.3744 33.5791 51.0958 35.7827 49.0121 38.7059C46.8235 41.5991 45.7741 44.7022 44.9796 44.6722C44.2151 44.7172 43.5405 40.6847 45.849 36.5622C48.1576 32.4248 52.1451 31.2106 52.7298 32.3948Z" fill="#FCD329"/>
</g>
<path opacity="0.7" d="M55.5025 32.2279C56.7444 32.2279 57.7511 31.6977 57.7511 31.0436C57.7511 30.3896 56.7444 29.8594 55.5025 29.8594C54.2606 29.8594 53.2539 30.3896 53.2539 31.0436C53.2539 31.6977 54.2606 32.2279 55.5025 32.2279Z" fill="#FCD329"/>
<path d="M75.6051 46.1027C80.8871 46.1027 85.1691 41.8207 85.1691 36.5387C85.1691 31.2566 80.8871 26.9746 75.6051 26.9746C70.323 26.9746 66.041 31.2566 66.041 36.5387C66.041 41.8207 70.323 46.1027 75.6051 46.1027Z" fill="#F94932"/>
<path opacity="0.3" d="M79.5624 27.8467C79.8473 28.7461 79.9972 29.7055 79.9972 30.6949C79.9972 35.9716 75.7098 40.259 70.4331 40.259C69.024 40.259 67.6748 39.9442 66.4756 39.4045C67.6898 43.2871 71.3176 46.1053 75.6049 46.1053C80.8816 46.1053 85.169 41.818 85.169 36.5413C85.169 32.6737 82.8754 29.3457 79.5624 27.8467Z" fill="#F41706"/>
<g opacity="0.7">
<path d="M73.0118 29.6425C73.2366 30.3321 71.7975 31.2915 70.3884 32.6556C68.9343 33.9898 68.0499 35.5488 67.6301 35.4439C67.2104 35.3839 67.2553 33.1653 68.9043 31.1865C70.5683 29.1928 72.8319 28.9529 73.0118 29.6425Z" fill="#FFCCC0"/>
<path d="M74.7889 29.4779C75.458 29.3626 75.9456 28.9516 75.8781 28.56C75.8106 28.1683 75.2135 27.9444 74.5444 28.0597C73.8754 28.175 73.3877 28.586 73.4553 28.9777C73.5228 29.3693 74.1199 29.5933 74.7889 29.4779Z" fill="#FFCCC0"/>
</g>
<path d="M76.9947 35.0165H76.4348V37.0268C76.4348 37.3039 76.2102 37.5285 75.9332 37.5285H75.5176C75.2405 37.5285 75.0159 37.3039 75.0159 37.0268V35.0165H74.4567C74.2363 35.0165 74.1033 34.7727 74.2224 34.5874L75.4911 32.6142C75.6007 32.4437 75.8499 32.4437 75.9596 32.6142L77.2288 34.5873C77.3482 34.7726 77.215 35.0165 76.9947 35.0165Z" fill="white"/>
<path d="M80.9984 39.2155H70.5049V36.8592C70.5049 36.6764 70.6531 36.5283 70.8357 36.5283H71.1434C71.3262 36.5283 71.4743 36.6765 71.4743 36.8592V38.246H80.0287V36.8592C80.0287 36.6764 80.1769 36.5283 80.3595 36.5283H80.6673C80.85 36.5283 80.9981 36.6765 80.9981 36.8592V39.2155H80.9984Z" fill="white"/>
<path d="M76.9947 35.1855H76.4348V37.1958C76.4348 37.4728 76.2102 37.6974 75.9332 37.6974H75.5176C75.2405 37.6974 75.0159 37.4728 75.0159 37.1958V35.1855H74.4567C74.2363 35.1855 74.1033 34.9417 74.2224 34.7563L75.4911 32.7832C75.6007 32.6126 75.8499 32.6126 75.9596 32.7831L77.2288 34.7562C77.3482 34.9417 77.215 35.1855 76.9947 35.1855Z" fill="white"/>
<path d="M80.9984 39.3854H70.5049V37.0291C70.5049 36.8463 70.6531 36.6982 70.8357 36.6982H71.1434C71.3262 36.6982 71.4743 36.8464 71.4743 37.0291V38.4159H80.0287V37.0291C80.0287 36.8463 80.1769 36.6982 80.3595 36.6982H80.6673C80.85 36.6982 80.9981 36.8464 80.9981 37.0291V39.3854H80.9984Z" fill="white"/>
</svg>
