<svg width="200" height="174" viewBox="0 0 200 174" fill="none" xmlns="http://www.w3.org/2000/svg">
<g opacity="0.41">
<path d="M198.123 103.993C198.311 101.258 198.226 98.5117 197.862 95.7918C196.151 83.0121 188.399 70.9614 176.99 62.4586C172.919 59.4252 168.288 56.7076 165.639 52.7034C161.178 45.9601 161.516 38.2103 155.98 31.5523C150.437 24.8864 142.359 19.6881 133.25 17.0183C106.09 9.05821 68.0648 22.0189 71.4885 49.6968C71.5008 49.7962 71.5139 49.9405 71.5284 50.123C71.9837 55.8722 66.6486 60.7062 59.8588 60.8423C34.8 61.3454 13.2297 77.6866 8.61403 98.3863C5.64565 111.698 10.5061 126.289 22.0191 135.707C30.6132 142.736 42.1438 146.598 53.68 149.252C76.8108 154.572 101.152 155.687 125.001 153.653C147.326 151.748 170.875 146.32 185.313 131.793C193.016 124.043 197.428 114.105 198.123 103.993Z" fill="#CAE6F5"/>
</g>
<g opacity="0.31">
<path d="M85.5664 14.6637C88.5455 13.4825 89.9697 10.1912 88.7474 7.31223C87.5251 4.43331 84.1192 3.05702 81.1402 4.23822C78.1611 5.41941 76.7369 8.71078 77.9592 11.5897C79.1815 14.4686 82.5874 15.8449 85.5664 14.6637Z" fill="#CAE6F5"/>
</g>
<g opacity="0.31">
<path d="M162.129 8.92077C163.791 8.92077 165.138 7.61919 165.138 6.01361C165.138 4.40803 163.791 3.10645 162.129 3.10645C160.468 3.10645 159.121 4.40803 159.121 6.01361C159.121 7.61919 160.468 8.92077 162.129 8.92077Z" fill="#CAE6F5"/>
</g>
<g opacity="0.31">
<path d="M58.9512 24.653C60.4292 23.0441 60.2778 20.582 58.613 19.1536C56.9482 17.7252 54.4004 17.8716 52.9223 19.4804C51.4443 21.0893 51.5957 23.5515 53.2605 24.9798C54.9254 26.4082 57.4732 26.2619 58.9512 24.653Z" fill="#CAE6F5"/>
</g>
<g opacity="0.31">
<path d="M9.45376 161.214C14.5228 161.214 18.6321 157.243 18.6321 152.344C18.6321 147.446 14.5228 143.475 9.45376 143.475C4.38468 143.475 0.275391 147.446 0.275391 152.344C0.275391 157.243 4.38468 161.214 9.45376 161.214Z" fill="#CAE6F5"/>
</g>
<path opacity="0.47" d="M198.853 25.7013C201.47 20.7762 199.459 14.7339 194.362 12.2052C189.266 9.67694 179.472 9.86301 176.855 14.7881C174.239 19.7132 182.083 23.9402 185.281 28.533C189.742 34.939 196.236 30.6264 198.853 25.7013Z" fill="#CAE6F5"/>
<path opacity="0.47" d="M176.568 166.08C180.256 168.38 185.174 167.357 187.555 163.793C189.936 160.229 190.53 153 186.843 150.699C183.155 148.399 179.227 153.858 175.361 155.866C169.97 158.668 172.88 163.779 176.568 166.08Z" fill="#CAE6F5"/>
<path opacity="0.47" d="M26.0583 3.10296C22.0022 -0.537031 15.6611 -0.310273 11.8945 3.60946C8.12786 7.52919 5.74544 16.3804 9.80152 20.0204C13.8576 23.6604 19.9772 17.7155 25.2342 16.0421C32.5665 13.708 30.1144 6.74295 26.0583 3.10296Z" fill="#CAE6F5"/>
<path opacity="0.47" d="M3.70071 45.4154C0.084974 53.0014 -0.90273 61.747 0.832331 69.923C2.87177 79.535 9.06422 86.9197 6.91557 97.1738C5.60682 103.42 5.27919 109.206 4.6156 115.386C3.25291 128.076 11.7787 139.257 22.3557 145.295C30.9463 150.199 41.0177 152.039 50.8943 151.908C59.7836 151.79 68.6572 150.204 77.271 148.071C85.5722 146.015 93.6883 143.307 102.39 144.161C109.626 144.872 116.144 147.895 122.883 150.15C138.973 155.532 158.463 156.291 173.176 148.098C182.619 142.839 189.228 134.299 192.159 125.118C194.501 117.78 194.799 110.919 193.043 103.428C191.24 95.7365 188.197 87.9831 189.142 79.969C189.8 74.3844 192.443 68.9944 191.959 63.3933C191.637 59.6715 189.942 56.1798 187.868 53.0285C180.297 41.5215 167.62 33.8173 154.211 29.5724C141.591 25.5777 128.577 22.6845 115.438 23.6458C88.2739 25.6328 82.7363 21.4634 54.9753 15.7254C37.0533 12.021 17.0058 25.2259 6.51821 40.5234C5.44805 42.0827 4.50903 43.72 3.70071 45.4154Z" fill="#CAE6F5"/>
<path opacity="0.58" d="M102.038 5.95426C103.128 5.95426 104.012 5.10033 104.012 4.04696C104.012 2.99358 103.128 2.13965 102.038 2.13965C100.948 2.13965 100.064 2.99358 100.064 4.04696C100.064 5.10033 100.948 5.95426 102.038 5.95426Z" fill="#FDBBA0"/>
<path opacity="0.58" d="M144.387 10.9337C145.234 10.9337 145.922 10.2696 145.922 9.45026C145.922 8.63097 145.234 7.9668 144.387 7.9668C143.539 7.9668 142.852 8.63097 142.852 9.45026C142.852 10.2696 143.539 10.9337 144.387 10.9337Z" fill="#FDBBA0"/>
<path opacity="0.58" d="M41.0954 25.5294C41.4587 25.5294 41.7533 25.2447 41.7533 24.8936C41.7533 24.5425 41.4587 24.2578 41.0954 24.2578C40.732 24.2578 40.4375 24.5425 40.4375 24.8936C40.4375 25.2447 40.732 25.5294 41.0954 25.5294Z" fill="#FDBBA0"/>
<path opacity="0.58" d="M198.219 43.9351C197.946 45.1723 196.687 45.9607 195.407 45.6966C194.126 45.4325 193.311 44.2153 193.584 42.9785C193.857 41.7413 195.117 40.9529 196.397 41.217C197.677 41.481 198.493 42.6979 198.219 43.9351Z" fill="#B7E3C0"/>
<path opacity="0.58" d="M35.5027 7.04002C35.3956 7.52532 34.9018 7.83431 34.3996 7.73089C33.8974 7.62747 33.5777 7.15022 33.6847 6.66491C33.7917 6.17961 34.2856 5.87063 34.7878 5.97404C35.2899 6.07746 35.6101 6.55471 35.5027 7.04002Z" fill="#B7E3C0"/>
<path opacity="0.58" d="M183.641 3.26697C183.55 3.67937 183.13 3.94215 182.703 3.85399C182.276 3.76583 182.005 3.36021 182.096 2.94781C182.187 2.53541 182.607 2.27262 183.033 2.36078C183.46 2.44894 183.732 2.85456 183.641 3.26697Z" fill="#FDBBA0"/>
<path opacity="0.58" d="M193.212 142.603C194.302 142.603 195.186 141.749 195.186 140.695C195.186 139.642 194.302 138.788 193.212 138.788C192.122 138.788 191.238 139.642 191.238 140.695C191.238 141.749 192.122 142.603 193.212 142.603Z" fill="#FDBBA0"/>
<path opacity="0.58" d="M30.7393 160.193C31.8293 160.193 32.7129 159.339 32.7129 158.285C32.7129 157.232 31.8293 156.378 30.7393 156.378C29.6493 156.378 28.7656 157.232 28.7656 158.285C28.7656 159.339 29.6493 160.193 30.7393 160.193Z" fill="#FDBBA0"/>
<path opacity="0.58" d="M155.312 167.79C156.16 167.79 156.847 167.126 156.847 166.307C156.847 165.487 156.16 164.823 155.312 164.823C154.465 164.823 153.777 165.487 153.777 166.307C153.777 167.126 154.465 167.79 155.312 167.79Z" fill="#B7E3C0"/>
<path opacity="0.58" d="M2.24904 136.478C3.33906 136.478 4.2227 135.624 4.2227 134.57C4.2227 133.517 3.33906 132.663 2.24904 132.663C1.15903 132.663 0.275391 133.517 0.275391 134.57C0.275391 135.624 1.15903 136.478 2.24904 136.478Z" fill="#B7E3C0"/>
<path opacity="0.58" d="M16.5159 173.36C16.4247 173.772 16.0049 174.035 15.5782 173.947C15.1514 173.859 14.8795 173.453 14.9707 173.041C15.062 172.628 15.4817 172.365 15.9085 172.454C16.3352 172.542 16.6071 172.947 16.5159 173.36Z" fill="#FDBBA0"/>
<path d="M100.3 35.2373C94.9035 35.2373 90.5312 39.6096 90.5312 45.0062C90.5312 50.4029 94.9035 54.7751 100.3 54.7751C105.697 54.7751 110.069 50.4029 110.069 45.0062C110.069 39.6096 105.697 35.2373 100.3 35.2373ZM100.3 49.1536C98.0016 49.1536 96.1527 47.3048 96.1527 45.0062C96.1527 42.7076 98.0016 40.8588 100.3 40.8588C102.599 40.8588 104.448 42.7076 104.448 45.0062C104.448 47.3048 102.599 49.1536 100.3 49.1536Z" fill="#FCD329"/>
<path d="M110.069 45.2086C107.895 44.4591 105.896 44.0344 104.247 43.7845C104.372 44.1843 104.422 44.584 104.422 45.0087C104.422 47.3073 102.573 49.1562 100.275 49.1562C97.9762 49.1562 96.1274 47.3073 96.1274 45.0087C96.1274 44.534 96.2023 44.1093 96.3522 43.6846C94.7532 43.8844 92.7295 44.2842 90.5059 45.0087C90.5059 45.0087 90.5059 45.0087 90.5059 45.0337C90.5059 50.4304 94.8781 54.8026 100.275 54.8026C105.646 54.7777 109.969 50.5053 110.069 45.2086Z" fill="#FCD329"/>
<path d="M110.069 45.2086C107.895 44.4591 105.896 44.0344 104.247 43.7845C104.372 44.1843 104.422 44.584 104.422 45.0087C104.422 47.3073 102.573 49.1562 100.275 49.1562C97.9762 49.1562 96.1274 47.3073 96.1274 45.0087C96.1274 44.534 96.2023 44.1093 96.3522 43.6846C94.7532 43.8844 92.7295 44.2842 90.5059 45.0087C90.5059 45.0087 90.5059 45.0087 90.5059 45.0337C90.5059 50.4304 94.8781 54.8026 100.275 54.8026C105.646 54.7777 109.969 50.5053 110.069 45.2086Z" fill="#FCD329"/>
<g opacity="0.7">
<path d="M98.6516 36.9343C98.8765 37.7088 97.2525 38.7582 95.6285 40.2323C93.9545 41.6814 92.9302 43.3803 92.4805 43.2804C92.0308 43.2054 92.1307 40.7319 94.0295 38.5583C95.9283 36.3597 98.4517 36.1598 98.6516 36.9343Z" fill="#FCD329"/>
<path d="M100.875 37.3819C101.813 37.3819 102.574 36.9792 102.574 36.4824C102.574 35.9857 101.813 35.583 100.875 35.583C99.9364 35.583 99.1758 35.9857 99.1758 36.4824C99.1758 36.9792 99.9364 37.3819 100.875 37.3819Z" fill="#FCD329"/>
</g>
<path d="M100 139.145C108.417 139.145 115.241 132.322 115.241 123.905C115.241 115.487 108.417 108.664 100 108.664C91.5832 108.664 84.7598 115.487 84.7598 123.905C84.7598 132.322 91.5832 139.145 100 139.145Z" fill="#FCD329"/>
<path d="M114.966 126.753C115.141 125.828 115.241 124.879 115.241 123.905C115.241 115.485 108.42 108.664 100 108.664C91.5805 108.664 84.7598 115.485 84.7598 123.905C84.7598 124.879 84.8597 125.828 85.0346 126.753C93.3044 126.753 100 126.753 100 126.753C100 126.753 106.696 126.753 114.966 126.753Z" fill="#FCD329"/>
<path opacity="0.5" d="M114.966 126.753C115.141 125.828 115.241 124.879 115.241 123.905C115.241 115.485 108.42 108.664 100 108.664C91.5805 108.664 84.7598 115.485 84.7598 123.905C84.7598 124.879 84.8597 125.828 85.0346 126.753C93.3044 126.753 100 126.753 100 126.753C100 126.753 106.696 126.753 114.966 126.753Z" fill="#FCD329"/>
<path opacity="0.5" d="M108.345 111.16C109.919 113.559 110.843 116.432 110.843 119.505C110.843 127.925 104.022 134.745 95.6026 134.745C92.5295 134.745 89.6563 133.821 87.2578 132.247C89.9811 136.394 94.6782 139.143 99.9999 139.143C108.42 139.143 115.24 132.322 115.24 123.902C115.24 118.581 112.492 113.883 108.345 111.16Z" fill="#FCD329"/>
<g opacity="0.7">
<path d="M90.8079 132.333C92.8193 132.821 94.6952 132.206 94.9978 130.959C95.3004 129.712 93.9151 128.305 91.9037 127.817C89.8923 127.329 88.0164 127.945 87.7138 129.192C87.4112 130.439 88.7965 131.845 90.8079 132.333Z" fill="#FCD329"/>
<path d="M97.3223 133.348C98.0732 133.53 98.7743 133.297 98.8882 132.828C99.002 132.359 98.4856 131.83 97.7347 131.648C96.9837 131.466 96.2827 131.699 96.1688 132.168C96.0549 132.637 96.5713 133.166 97.3223 133.348Z" fill="#FCD329"/>
</g>
<path d="M140.175 106.369C131.031 98.0245 131.281 84.4829 129.831 73.09C126.184 44.158 100 45.0075 100 45.0075C100 45.0075 73.8163 44.158 70.1686 73.09C68.7445 84.4829 68.9694 97.9995 59.8251 106.369C57.2766 108.718 54.9031 110.966 55.003 114.714C55.128 119.361 58.9006 122.409 63.1729 123.434C64.622 123.783 66.1211 123.908 67.5952 123.908C81.1118 123.908 100 123.908 100 123.908C100 123.908 118.913 123.908 132.405 123.908C133.879 123.908 135.378 123.783 136.827 123.434C141.074 122.409 144.872 119.361 144.997 114.714C145.097 110.991 142.723 108.718 140.175 106.369Z" fill="#FCD329"/>
<path opacity="0.5" d="M67.6444 91.9541C66.72 95.8017 65.3209 99.4744 63.0723 102.672H136.926C134.678 99.4744 133.278 95.8017 132.354 91.9541H67.6444Z" fill="#FCD329"/>
<path d="M63.6484 101.823H136.353C134.279 98.5998 133.005 94.9271 132.156 91.1045H67.8209C66.9964 94.9271 65.7221 98.5998 63.6484 101.823Z" fill="#F7A231"/>
<path opacity="0.2" d="M132.479 92.4041C132.38 91.9794 132.28 91.5546 132.18 91.1299H67.8448C67.7448 91.5546 67.6449 91.9794 67.5449 92.4041H132.479Z" fill="#F7A231"/>
<path opacity="0.5" d="M121.237 123.431C120.412 123.781 119.563 123.906 118.713 123.906C122.885 123.906 127.233 123.906 131.13 123.906C132.554 123.906 134.004 123.781 135.378 123.431C139.475 122.407 143.098 119.359 143.223 114.711C143.323 110.964 141.049 108.715 138.601 106.367C129.831 98.0219 130.056 84.4803 128.682 73.0874C125.409 46.0292 103.223 45.0299 100.35 45.0049C100.3 45.0049 100.25 45.0049 100.225 45.0049C101.949 45.0299 115.29 46.0043 117.239 73.0874C118.063 84.4803 117.939 98.0219 123.21 106.367C124.684 108.715 126.034 110.964 125.984 114.711C125.884 119.384 123.71 122.407 121.237 123.431Z" fill="#FCD329"/>
<g opacity="0.3">
<path d="M75.341 114.71C75.291 110.963 76.5902 108.714 77.9894 106.366C83.0112 98.0209 82.8613 84.4793 83.6608 73.0864C85.5346 45.9783 98.2517 45.0039 99.8507 45.0039C97.877 45.0039 78.3891 45.6285 75.5659 73.0864C74.3916 84.4793 74.5915 97.9959 67.0962 106.366C64.9975 108.714 63.0737 110.963 63.1486 114.71C63.2485 119.358 66.3466 122.406 69.8444 123.43C71.0187 123.78 72.2679 123.905 73.4672 123.905C76.2405 123.905 79.2636 123.905 82.2617 123.905C81.4372 123.905 80.6377 123.78 79.8382 123.43C77.4897 122.406 75.416 119.383 75.341 114.71Z" fill="#FCD329"/>
</g>
<path d="M56.8027 119.611C58.3268 121.535 60.6753 122.834 63.1738 123.434C64.6229 123.784 66.1219 123.909 67.596 123.909C81.1126 123.909 100.001 123.909 100.001 123.909C100.001 123.909 118.914 123.909 132.406 123.909C133.88 123.909 135.379 123.784 136.828 123.434C139.326 122.834 141.675 121.535 143.199 119.611H56.8027Z" fill="#FCD329"/>
<g opacity="0.8">
<g opacity="0.7">
<path d="M87.9829 109.748C88.1078 110.847 81.6118 112.471 73.4419 112.446C65.272 112.446 58.7511 110.847 58.901 109.748C59.0259 108.624 65.5219 108.424 73.4419 108.424C81.362 108.424 87.8579 108.624 87.9829 109.748Z" fill="#FCD329"/>
</g>
<g opacity="0.7">
<path d="M103.149 109.696C103.399 110.77 101.05 112.219 97.852 112.219C94.654 112.219 92.3055 110.77 92.5553 109.696C92.8052 108.597 95.1537 108.197 97.852 108.172C100.525 108.197 102.899 108.622 103.149 109.696Z" fill="#FCD329"/>
</g>
</g>
<g opacity="0.7">
<path d="M87.8826 52.9067C88.9569 54.8805 85.1593 58.5532 81.6865 63.4252C78.0388 68.2472 76.2898 73.419 74.9657 73.369C73.6915 73.4439 72.5671 66.7231 76.4147 59.8524C80.2623 52.9567 86.9082 50.933 87.8826 52.9067Z" fill="#FCD329"/>
</g>
<path opacity="0.7" d="M92.5055 52.6292C94.5753 52.6292 96.2531 51.7455 96.2531 50.6554C96.2531 49.5653 94.5753 48.6816 92.5055 48.6816C90.4357 48.6816 88.7578 49.5653 88.7578 50.6554C88.7578 51.7455 90.4357 52.6292 92.5055 52.6292Z" fill="#FCD329"/>
<path d="M126.008 75.76C134.812 75.76 141.948 68.6234 141.948 59.82C141.948 51.0165 134.812 43.8799 126.008 43.8799C117.205 43.8799 110.068 51.0165 110.068 59.82C110.068 68.6234 117.205 75.76 126.008 75.76Z" fill="#F94932"/>
<path opacity="0.3" d="M132.604 45.3311C133.079 46.8301 133.329 48.4291 133.329 50.0781C133.329 58.8726 126.183 66.0182 117.389 66.0182C115.04 66.0182 112.792 65.4935 110.793 64.5941C112.817 71.065 118.863 75.7621 126.008 75.7621C134.803 75.7621 141.949 68.6165 141.949 59.822C141.949 53.376 138.126 47.8295 132.604 45.3311Z" fill="#F41706"/>
<g opacity="0.7">
<path d="M121.687 48.3247C122.061 49.474 119.663 51.073 117.314 53.3466C114.891 55.5702 113.417 58.1686 112.717 57.9937C112.018 57.8938 112.093 54.1961 114.841 50.8981C117.614 47.5752 121.387 47.1754 121.687 48.3247Z" fill="#FFCCC0"/>
<path d="M124.649 48.0537C125.764 47.8615 126.577 47.1765 126.464 46.5238C126.352 45.8711 125.357 45.4978 124.242 45.69C123.127 45.8822 122.314 46.5672 122.426 47.22C122.539 47.8727 123.534 48.246 124.649 48.0537Z" fill="#FFCCC0"/>
</g>
<path d="M128.324 57.2834H127.391V60.6339C127.391 61.0956 127.016 61.4699 126.555 61.4699H125.862C125.4 61.4699 125.026 61.0956 125.026 60.6339V57.2834H124.094C123.727 57.2834 123.505 56.877 123.703 56.5682L125.818 53.2796C126.001 52.9954 126.416 52.9954 126.599 53.2795L128.714 56.568C128.913 56.8769 128.691 57.2834 128.324 57.2834Z" fill="white"/>
<path d="M134.997 64.2813H117.508V60.3541C117.508 60.0495 117.755 59.8027 118.059 59.8027H118.572C118.877 59.8027 119.123 60.0497 119.123 60.3541V62.6655H133.381V60.3541C133.381 60.0495 133.628 59.8027 133.932 59.8027H134.445C134.75 59.8027 134.997 60.0497 134.997 60.3541V64.2813H134.997Z" fill="white"/>
<path d="M128.324 57.5647H127.391V60.9151C127.391 61.3769 127.016 61.7512 126.555 61.7512H125.862C125.4 61.7512 125.026 61.3769 125.026 60.9151V57.5647H124.094C123.727 57.5647 123.505 57.1583 123.703 56.8494L125.818 53.5609C126.001 53.2766 126.416 53.2766 126.599 53.5607L128.714 56.8493C128.913 57.1583 128.691 57.5647 128.324 57.5647Z" fill="white"/>
<path d="M134.997 64.5626H117.508V60.6354C117.508 60.3308 117.755 60.084 118.059 60.084H118.572C118.877 60.084 119.123 60.3309 119.123 60.6354V62.9468H133.381V60.6354C133.381 60.3308 133.628 60.084 133.932 60.084H134.445C134.75 60.084 134.997 60.3309 134.997 60.6354V64.5626H134.997Z" fill="white"/>
</svg>
