<svg width="38" height="39" viewBox="0 0 38 39" fill="none" xmlns="http://www.w3.org/2000/svg">
<path d="M4.75 8.8125V27.8125C4.75 28.4424 5.00022 29.0465 5.44562 29.4919C5.89102 29.9373 6.49511 30.1875 7.125 30.1875H30.875C31.5049 30.1875 32.109 29.9373 32.5544 29.4919C32.9998 29.0465 33.25 28.4424 33.25 27.8125V8.8125H4.75ZM4.75 6.4375H33.25C33.8799 6.4375 34.484 6.68772 34.9294 7.13312C35.3748 7.57852 35.625 8.18261 35.625 8.8125V27.8125C35.625 29.0723 35.1246 30.2805 34.2338 31.1713C33.343 32.0621 32.1348 32.5625 30.875 32.5625H7.125C5.86522 32.5625 4.65704 32.0621 3.76624 31.1713C2.87545 30.2805 2.375 29.0723 2.375 27.8125V8.8125C2.375 8.18261 2.62522 7.57852 3.07062 7.13312C3.51602 6.68772 4.12011 6.4375 4.75 6.4375Z" fill="#8DCABE"/>
<path d="M33.5469 8.8125L24.3628 19.31C23.694 20.0745 22.8695 20.6872 21.9446 21.1069C21.0197 21.5267 20.0157 21.7439 19 21.7439C17.9843 21.7439 16.9803 21.5267 16.0554 21.1069C15.1305 20.6872 14.306 20.0745 13.6372 19.31L4.45312 8.8125H33.5469ZM7.6095 8.8125L15.4233 17.7449C15.8691 18.2547 16.4188 18.6632 17.0355 18.9432C17.6522 19.2231 18.3216 19.3679 18.9988 19.3679C19.6761 19.3679 20.3455 19.2231 20.9622 18.9432C21.5788 18.6632 22.1285 18.2547 22.5744 17.7449L30.3905 8.8125H7.6095Z" fill="#8DCABE"/>
</svg>
