<svg width="43" height="42" viewBox="0 0 43 42" fill="none" xmlns="http://www.w3.org/2000/svg">
<circle cx="21.5" cy="21" r="20.3824" stroke="#8DCABE" stroke-width="1.23529"/>
<g clip-path="url(#clip0_7371_16874)">
<path fill-rule="evenodd" clip-rule="evenodd" d="M32.4762 13.1329C32.5282 12.8092 32.4946 12.4771 32.3788 12.1712C32.263 11.8653 32.0692 11.5968 31.8176 11.3937C31.5661 11.1906 31.266 11.0604 30.9485 11.0165C30.6311 10.9726 30.308 11.0167 30.0129 11.1442L9.59495 19.9503C8.17166 20.5643 8.09883 22.6728 9.59495 23.3088C11.0764 23.9417 12.5795 24.5201 14.1012 25.0431C15.4958 25.5152 17.017 25.9518 18.2361 26.0754C18.5693 26.4839 18.9884 26.8765 19.4159 27.2373C20.069 27.7877 20.8547 28.3539 21.6666 28.897C23.2929 29.9855 25.097 31.0263 26.3126 31.7039C27.7657 32.5111 29.5054 31.5816 29.7657 29.9586L32.4762 13.1329ZM11.8839 21.6161L29.9424 13.8288L27.4135 29.533C26.2206 28.8689 24.5024 27.8745 22.9717 26.8496C22.2662 26.3856 21.585 25.8839 20.9311 25.3464C20.7563 25.2002 20.5866 25.0476 20.4224 24.889L25.152 20.0457C25.376 19.8163 25.502 19.5052 25.5021 19.1808C25.5022 18.8563 25.3765 18.5451 25.1526 18.3157C24.9287 18.0862 24.625 17.9572 24.3082 17.957C23.9915 17.9569 23.6877 18.0857 23.4636 18.315L18.2851 23.6195C17.4087 23.5045 16.1884 23.1718 14.8487 22.7193C13.8513 22.379 12.8631 22.0111 11.8851 21.6161H11.8839Z" fill="#8DCABE"/>
</g>
<defs>
<clipPath id="clip0_7371_16874">
<rect width="24" height="24" fill="white" transform="translate(8.5 9)"/>
</clipPath>
</defs>
</svg>
