<svg width="43" height="42" viewBox="0 0 43 42" fill="none" xmlns="http://www.w3.org/2000/svg">
<circle cx="21.5" cy="21" r="20.3235" stroke="#8DCABE" stroke-width="1.35294"/>
<path d="M28.87 18.2749V18.7749C28.87 23.8099 25.05 29.5799 18.06 29.5799C15.9965 29.5844 13.9768 28.9847 12.25 27.8549C12.5499 27.8957 12.8524 27.914 13.155 27.9099C14.8655 27.9146 16.5279 27.3441 17.875 26.2899C17.0803 26.2782 16.3096 26.0163 15.6723 25.5415C15.035 25.0667 14.5635 24.403 14.325 23.6449C14.5617 23.6951 14.803 23.7203 15.045 23.7199C15.3829 23.72 15.7192 23.6746 16.045 23.5849C15.1843 23.4134 14.41 22.948 13.8545 22.2685C13.299 21.589 12.997 20.7376 13 19.8599V19.8099C13.5266 20.1041 14.117 20.2654 14.72 20.2799C13.9173 19.7517 13.3466 18.9369 13.1245 18.002C12.9024 17.0672 13.0456 16.0827 13.525 15.2499C14.4801 16.4247 15.6718 17.3853 17.0225 18.0693C18.3733 18.7532 19.8528 19.1453 21.365 19.2199C21.2901 18.9362 21.2548 18.6434 21.26 18.3499C21.2318 17.5744 21.4434 16.809 21.8659 16.158C22.2883 15.507 22.9011 15.0021 23.6209 14.7119C24.3407 14.4217 25.1324 14.3603 25.8882 14.5363C26.6441 14.7122 27.3273 15.1168 27.845 15.6949C28.6959 15.5232 29.5121 15.2106 30.26 14.7699C29.9764 15.6656 29.373 16.4256 28.565 16.9049C29.3198 16.8009 30.0557 16.5888 30.75 16.2749C30.2468 17.0478 29.6102 17.725 28.87 18.2749V18.2749Z" stroke="#8DCABE" stroke-width="1.5" stroke-linecap="round" stroke-linejoin="round"/>
</svg>
