<svg width="42" height="42" viewBox="0 0 42 42" fill="none" xmlns="http://www.w3.org/2000/svg">
<circle cx="21" cy="21" r="20.3824" stroke="#8DCABE" stroke-width="1.23529"/>
<g clip-path="url(#clip0_7371_16871)">
<path fill-rule="evenodd" clip-rule="evenodd" d="M27.415 22.382C27.117 22.233 25.656 21.515 25.384 21.415C25.112 21.316 24.914 21.267 24.715 21.565C24.517 21.861 23.948 22.531 23.775 22.729C23.601 22.928 23.428 22.952 23.131 22.804C22.834 22.654 21.876 22.341 20.741 21.329C19.858 20.541 19.261 19.568 19.088 19.27C18.915 18.973 19.069 18.812 19.218 18.664C19.352 18.531 19.515 18.317 19.664 18.144C19.813 17.97 19.862 17.846 19.961 17.647C20.061 17.449 20.011 17.276 19.936 17.127C19.862 16.978 19.268 15.515 19.02 14.92C18.779 14.341 18.534 14.42 18.352 14.41C18.178 14.402 17.98 14.4 17.782 14.4C17.584 14.4 17.262 14.474 16.99 14.772C16.717 15.069 15.95 15.788 15.95 17.251C15.95 18.713 17.014 20.126 17.163 20.325C17.312 20.523 19.258 23.525 22.239 24.812C22.949 25.118 23.502 25.301 23.933 25.437C24.645 25.664 25.293 25.632 25.805 25.555C26.375 25.47 27.563 24.836 27.811 24.142C28.058 23.448 28.058 22.853 27.984 22.729C27.91 22.605 27.712 22.531 27.414 22.382H27.415ZM21.993 29.785H21.989C20.2184 29.7854 18.4804 29.3094 16.957 28.407L16.597 28.193L12.855 29.175L13.854 25.527L13.619 25.153C12.6291 23.5774 12.1053 21.7538 12.108 19.893C12.11 14.443 16.544 10.009 21.997 10.009C24.637 10.009 27.119 11.039 28.985 12.907C29.9054 13.8236 30.6349 14.9136 31.1313 16.1139C31.6277 17.3143 31.8811 18.6011 31.877 19.9C31.875 25.35 27.441 29.785 21.993 29.785ZM30.405 11.488C29.3032 10.379 27.9922 9.49958 26.5481 8.90084C25.1039 8.3021 23.5553 7.99592 21.992 8.00004C15.438 8.00004 10.102 13.335 10.1 19.892C10.097 21.9788 10.6444 24.0294 11.687 25.837L10 32L16.304 30.346C18.0479 31.2962 20.0021 31.794 21.988 31.794H21.993C28.547 31.794 33.883 26.459 33.885 19.901C33.8898 18.3383 33.5848 16.7901 32.9874 15.3461C32.3901 13.902 31.5124 12.5907 30.405 11.488Z" fill="#8DCABE"/>
</g>
<defs>
<clipPath id="clip0_7371_16871">
<rect width="24" height="24" fill="white" transform="translate(10 8)"/>
</clipPath>
</defs>
</svg>
