<svg width="24" height="25" viewBox="0 0 24 25" fill="none" xmlns="http://www.w3.org/2000/svg">
<path opacity="0.1" fill-rule="evenodd" clip-rule="evenodd" d="M0 12.5703C0 5.9429 5.37258 0.570312 12 0.570312C18.6274 0.570312 24 5.9429 24 12.5703C24 19.1977 18.6274 24.5703 12 24.5703C5.37258 24.5703 0 19.1977 0 12.5703Z" fill="white"/>
<path fill-rule="evenodd" clip-rule="evenodd" d="M12.0006 6.17041C10.2624 6.17041 10.0443 6.17801 9.36161 6.20908C8.68027 6.24028 8.2152 6.34815 7.80827 6.50641C7.38733 6.66988 7.03026 6.88855 6.67452 7.24442C6.31852 7.60016 6.09985 7.95723 5.93585 8.37803C5.77718 8.7851 5.66918 9.25031 5.63851 9.93138C5.60798 10.6141 5.59998 10.8323 5.59998 12.5705C5.59998 14.3086 5.60771 14.5261 5.63864 15.2088C5.66998 15.8901 5.77784 16.3552 5.93598 16.7621C6.09958 17.1831 6.31825 17.5401 6.67412 17.8959C7.02972 18.2519 7.38679 18.4711 7.80747 18.6345C8.21467 18.7928 8.67987 18.9007 9.36108 18.9319C10.0438 18.9629 10.2618 18.9705 11.9998 18.9705C13.7381 18.9705 13.9555 18.9629 14.6382 18.9319C15.3195 18.9007 15.7851 18.7928 16.1924 18.6345C16.6132 18.4711 16.9697 18.2519 17.3253 17.8959C17.6813 17.5401 17.9 17.1831 18.064 16.7623C18.2213 16.3552 18.3293 15.89 18.3613 15.2089C18.392 14.5262 18.4 14.3086 18.4 12.5705C18.4 10.8323 18.392 10.6142 18.3613 9.93152C18.3293 9.25018 18.2213 8.7851 18.064 8.37817C17.9 7.95723 17.6813 7.60016 17.3253 7.24442C16.9693 6.88842 16.6133 6.66975 16.192 6.50641C15.7839 6.34815 15.3186 6.24028 14.6373 6.20908C13.9546 6.17801 13.7373 6.17041 11.9986 6.17041H12.0006ZM11.4264 7.32374C11.5968 7.32347 11.7869 7.32374 12.0005 7.32374C13.7094 7.32374 13.9119 7.32987 14.5867 7.36054C15.2107 7.38907 15.5494 7.49334 15.775 7.58094C16.0737 7.69694 16.2866 7.83561 16.5105 8.05961C16.7345 8.28361 16.8731 8.49695 16.9894 8.79562C17.077 9.02096 17.1814 9.35963 17.2098 9.98363C17.2405 10.6583 17.2471 10.861 17.2471 12.569C17.2471 14.277 17.2405 14.4797 17.2098 15.1544C17.1813 15.7784 17.077 16.117 16.9894 16.3424C16.8734 16.641 16.7345 16.8537 16.5105 17.0776C16.2865 17.3016 16.0738 17.4402 15.775 17.5562C15.5497 17.6442 15.2107 17.7482 14.5867 17.7768C13.912 17.8074 13.7094 17.8141 12.0005 17.8141C10.2916 17.8141 10.0891 17.8074 9.41439 17.7768C8.79038 17.748 8.45171 17.6437 8.22598 17.5561C7.92731 17.4401 7.71397 17.3014 7.48997 17.0774C7.26597 16.8534 7.1273 16.6406 7.01103 16.3418C6.92343 16.1165 6.81903 15.7778 6.79063 15.1538C6.75996 14.4791 6.75383 14.2765 6.75383 12.5674C6.75383 10.8583 6.75996 10.6567 6.79063 9.98203C6.81916 9.35803 6.92343 9.01936 7.01103 8.79375C7.12703 8.49508 7.26597 8.28175 7.48997 8.05775C7.71397 7.83374 7.92731 7.69507 8.22598 7.57881C8.45158 7.49081 8.79038 7.3868 9.41439 7.35814C10.0048 7.33147 10.2336 7.32347 11.4264 7.32214V7.32374ZM15.4169 8.38642C14.9928 8.38642 14.6488 8.73002 14.6488 9.15416C14.6488 9.57816 14.9928 9.92217 15.4169 9.92217C15.8409 9.92217 16.1849 9.57816 16.1849 9.15416C16.1849 8.73015 15.8409 8.38642 15.4169 8.38642ZM12.0006 9.28376C10.1855 9.28376 8.71389 10.7554 8.71389 12.5705C8.71389 14.3855 10.1855 15.8565 12.0006 15.8565C13.8157 15.8565 15.2868 14.3855 15.2868 12.5705C15.2868 10.7554 13.8157 9.28376 12.0006 9.28376ZM12.0006 10.4371C13.1787 10.4371 14.1339 11.3922 14.1339 12.5705C14.1339 13.7486 13.1787 14.7038 12.0006 14.7038C10.8223 14.7038 9.86721 13.7486 9.86721 12.5705C9.86721 11.3922 10.8223 10.4371 12.0006 10.4371Z" fill="white"/>
</svg>
