<svg width="18" height="19" viewBox="0 0 18 19" fill="none" xmlns="http://www.w3.org/2000/svg">
<path fill-rule="evenodd" clip-rule="evenodd" d="M2.5335 3.84421C2.25 4.24771 2.25 5.44771 2.25 7.84546V9.02596C2.25 13.2545 5.42925 15.3072 7.42425 16.178C7.965 16.4142 8.23575 16.5327 9 16.5327C9.765 16.5327 10.035 16.4142 10.5758 16.178C12.5708 15.3065 15.75 13.2552 15.75 9.02596V7.84546C15.75 5.44696 15.75 4.24771 15.4665 3.84421C15.1838 3.44146 14.0565 3.05521 11.8012 2.28346L11.3715 2.13646C10.1962 1.73371 9.609 1.53271 9 1.53271C8.39175 1.53271 7.80375 1.73371 6.6285 2.13646L6.19875 2.28271C3.9435 3.05521 2.81625 3.44146 2.5335 3.84421ZM11.2943 7.90771C11.3883 7.79577 11.4351 7.65159 11.4247 7.50573C11.4143 7.35988 11.3475 7.22381 11.2384 7.12638C11.1294 7.02895 10.9867 6.97781 10.8406 6.9838C10.6945 6.98979 10.5564 7.05244 10.4557 7.15846L8.19675 9.68896L7.54425 8.95846C7.44453 8.84827 7.30525 8.78202 7.15684 8.77418C7.00843 8.76635 6.86294 8.81756 6.75217 8.91664C6.6414 9.01572 6.57434 9.15462 6.56564 9.30298C6.55695 9.45134 6.60732 9.59712 6.70575 9.70846L7.77675 10.9085C7.82952 10.9676 7.89417 11.0149 7.96649 11.0472C8.0388 11.0796 8.11714 11.0964 8.19637 11.0964C8.27561 11.0964 8.35395 11.0796 8.42626 11.0472C8.49858 11.0149 8.56323 10.9676 8.616 10.9085L11.295 7.90846L11.2943 7.90771Z" fill="#08A081"/>
</svg>
