<svg width="24" height="25" viewBox="0 0 24 25" fill="none" xmlns="http://www.w3.org/2000/svg">
<path opacity="0.1" fill-rule="evenodd" clip-rule="evenodd" d="M0 12.5703C0 5.9429 5.37258 0.570312 12 0.570312C18.6274 0.570312 24 5.9429 24 12.5703C24 19.1977 18.6274 24.5703 12 24.5703C5.37258 24.5703 0 19.1977 0 12.5703Z" fill="white"/>
<path fill-rule="evenodd" clip-rule="evenodd" d="M17.0008 8.44507C17.5515 8.59621 17.9853 9.04152 18.1325 9.60702C18.4 10.6319 18.4 12.7704 18.4 12.7704C18.4 12.7704 18.4 14.9088 18.1325 15.9338C17.9853 16.4993 17.5515 16.9446 17.0008 17.0958C16.0027 17.3704 12 17.3704 12 17.3704C12 17.3704 7.99728 17.3704 6.9991 17.0958C6.44834 16.9446 6.01459 16.4993 5.86739 15.9338C5.59998 14.9088 5.59998 12.7704 5.59998 12.7704C5.59998 12.7704 5.59998 10.6319 5.86739 9.60702C6.01459 9.04152 6.44834 8.59621 6.9991 8.44507C7.99728 8.17041 12 8.17041 12 8.17041C12 8.17041 16.0027 8.17041 17.0008 8.44507ZM10.8 10.9704V14.9704L14 12.9704L10.8 10.9704Z" fill="white"/>
</svg>
