<svg width="105" height="81" viewBox="0 0 105 81" fill="none" xmlns="http://www.w3.org/2000/svg">
<g clip-path="url(#clip0)">
<path d="M64.0003 14.0834C63.1612 15.7857 61.6174 17.053 60.0005 18.0846C58.2851 19.175 56.441 20.0575 54.5087 20.713C54.2428 20.8042 53.9742 20.8914 53.7055 20.9735H42.206C42.1315 20.8901 42.0597 20.8029 41.9906 20.713C41.2686 19.7778 40.8816 18.5939 41.0265 17.4334C41.2167 15.9121 42.3962 14.5132 43.9267 14.1889C45.4572 13.8659 47.2018 14.7607 47.6659 16.2247C47.9226 13.4022 48.2177 10.4612 49.7496 8.05683C51.1365 5.88039 53.5407 4.32263 56.1442 4.0439C57.6757 3.88768 59.2207 4.16476 60.5962 4.84231C60.7225 4.90483 60.8475 4.96996 60.9698 5.03768C61.7954 5.49615 62.5238 6.1049 63.116 6.83119C64.7396 8.84483 65.1373 11.7715 64.0003 14.0834Z" fill="#F2F2F2"/>
<path d="M60.9698 5.03831C60.973 5.0725 60.9671 5.10692 60.9527 5.1382C60.9382 5.16948 60.9157 5.19655 60.8874 5.21676C55.6793 9.37094 51.5602 14.6841 48.8733 20.7136C48.8333 20.7996 48.7948 20.8868 48.7576 20.9741H48.2283C48.2655 20.8868 48.3028 20.7996 48.3414 20.7136C48.8453 19.5622 49.4025 18.4343 50.0128 17.3298C51.3338 14.9451 52.888 12.6917 54.6536 10.6012C56.4189 8.50817 58.3907 6.59077 60.5403 4.87681C60.5574 4.86322 60.5762 4.85183 60.5962 4.84295C60.6336 4.82718 60.6741 4.81986 60.7147 4.82152C60.7554 4.82318 60.7951 4.83379 60.831 4.85256C60.8669 4.87133 60.898 4.89777 60.922 4.92993C60.9461 4.96208 60.9624 4.99913 60.9698 5.03831Z" fill="white"/>
<path d="M61.1893 20.7139H10.5265C10.0901 20.7134 9.66113 20.8243 9.28181 21.0356C9.19096 21.0861 9.10348 21.1422 9.01989 21.2036C8.70341 21.4334 8.4463 21.7327 8.26918 22.0774C8.09207 22.4221 7.99988 22.8027 8 23.1886V48.9776C8.0006 49.6337 8.26697 50.2629 8.74065 50.7268C9.21433 51.1908 9.85661 51.4517 10.5265 51.4523H61.1893C61.8592 51.4517 62.5014 51.1908 62.9751 50.7268C63.4488 50.2628 63.7152 49.6337 63.7158 48.9776V23.1886C63.7152 22.5324 63.4488 21.9033 62.9751 21.4393C62.5014 20.9754 61.8592 20.7145 61.1893 20.7139ZM63.4498 48.9776C63.449 49.5646 63.2105 50.1273 62.7868 50.5423C62.363 50.9574 61.7885 51.191 61.1893 51.1918H10.5265C9.92722 51.191 9.35273 50.9574 8.92898 50.5423C8.50523 50.1273 8.26679 49.5646 8.26595 48.9776V23.1886C8.26783 22.7206 8.42019 22.2652 8.70138 21.8869C8.98256 21.5086 9.37828 21.2267 9.83234 21.0812C9.85098 21.076 9.86824 21.0694 9.88688 21.0642C10.0946 21.0044 10.31 20.9742 10.5265 20.9744H61.1893C61.7885 20.9752 62.363 21.2088 62.7868 21.6238C63.2105 22.0389 63.449 22.6016 63.4498 23.1886V48.9776Z" fill="#0D2823"/>
<path d="M79.4357 54.353C79.6106 54.2413 79.7585 54.0934 79.8687 53.9197C79.979 53.746 80.0491 53.5507 80.074 53.3476C80.0989 53.1445 80.078 52.9385 80.0128 52.7442C79.9477 52.5498 79.8398 52.3719 79.6968 52.2228L80.4909 42.9478L78.2164 43.1928L77.5933 52.22C77.3535 52.4719 77.2164 52.8012 77.2079 53.1455C77.1994 53.4898 77.3201 53.8252 77.5472 54.0881C77.7744 54.351 78.092 54.5232 78.4401 54.572C78.7881 54.6208 79.1424 54.5429 79.4357 54.353Z" fill="#FFB8B8"/>
<path d="M71.3401 76.4757L69.7098 76.4756L68.9343 70.3164L71.3403 70.3165L71.3401 76.4757Z" fill="#FFB8B8"/>
<path d="M68.5454 76.019H71.6894V77.958H66.5659C66.5659 77.7034 66.6171 77.4513 66.7165 77.216C66.816 76.9808 66.9618 76.767 67.1457 76.587C67.3295 76.4069 67.5477 76.2641 67.7879 76.1666C68.028 76.0692 68.2855 76.019 68.5454 76.019Z" fill="#24564C"/>
<path d="M82.9087 76.4757L81.2785 76.4756L80.503 70.3164L82.909 70.3165L82.9087 76.4757Z" fill="#FFB8B8"/>
<path d="M80.1141 76.019H83.2581V77.958H78.1346C78.1346 77.4438 78.3431 76.9506 78.7144 76.587C79.0856 76.2233 79.5891 76.019 80.1141 76.019Z" fill="#24564C"/>
<path d="M71.3677 72.6611C71.35 72.6611 71.3323 72.6603 71.3144 72.6589L69.0071 72.478C68.9156 72.4709 68.8266 72.4452 68.7456 72.4027C68.6647 72.3602 68.5937 72.3017 68.537 72.2309C68.4803 72.1602 68.4392 72.0787 68.4163 71.9916C68.3933 71.9045 68.3891 71.8137 68.4037 71.7249L71.902 50.5311L72.1363 47.5417C72.1467 47.402 72.203 47.2693 72.2969 47.1636C72.3908 47.0579 72.5172 46.9849 72.6571 46.9555L76.1757 46.2016C76.3051 46.1733 76.4401 46.1838 76.5633 46.2316C76.6866 46.2795 76.7922 46.3625 76.8666 46.47L77.7245 47.6983C78.0615 48.1758 78.4276 48.6329 78.8209 49.0671C79.4296 49.7462 80.4646 51.2539 80.5575 53.7215C80.5824 54.5321 80.6684 55.3398 80.8146 56.1381L83.6474 71.0854C83.6618 71.173 83.6577 71.2626 83.6354 71.3486C83.6131 71.4346 83.573 71.5153 83.5177 71.5856C83.4625 71.6559 83.3931 71.7144 83.3139 71.7575C83.2347 71.8006 83.1473 71.8274 83.0571 71.8362L80.8699 71.9985C80.7134 72.0136 80.5566 71.9737 80.4274 71.8859C80.2982 71.7981 80.2052 71.6681 80.1649 71.5192L76.2852 57.3872C76.2776 57.3595 76.2608 57.3351 76.2376 57.3177C76.2143 57.3002 76.1859 57.2908 76.1566 57.2908C76.1273 57.2909 76.0989 57.3004 76.0757 57.3179C76.0525 57.3354 76.0358 57.3599 76.0283 57.3876L72.0099 72.1773C71.9721 72.3159 71.8887 72.4385 71.7726 72.5259C71.6565 72.6134 71.5142 72.6609 71.3677 72.6611Z" fill="#24564C"/>
<path d="M77.5034 36.5968C79.3071 36.5968 80.7694 35.1645 80.7694 33.3977C80.7694 31.631 79.3071 30.1987 77.5034 30.1987C75.6996 30.1987 74.2374 31.631 74.2374 33.3977C74.2374 35.1645 75.6996 36.5968 77.5034 36.5968Z" fill="#FFB8B8"/>
<path d="M71.9679 48.0227L71.9003 43.4543C71.6516 40.5325 72.9726 38.9984 74.1247 38.2267C74.4218 38.0303 74.7565 37.895 75.1086 37.829C75.4606 37.763 75.8227 37.7676 76.1729 37.8427L78.7432 38.387C79.1011 38.4634 79.4395 38.6101 79.7379 38.8182C80.0362 39.0263 80.2884 39.2916 80.4792 39.5979C80.6616 39.8869 80.7814 40.2096 80.8311 40.5458C80.8808 40.8821 80.8593 41.2248 80.768 41.5526C80.5894 42.1662 80.1934 42.6973 79.6511 43.0507C77.4426 44.5778 77.287 47.143 77.2856 47.1688L77.2829 47.2218L71.9679 48.0227Z" fill="#52AF9C"/>
<path d="M80.0115 44.6265H77.751C77.5923 44.6263 77.4402 44.5645 77.328 44.4547C77.2159 44.3448 77.1528 44.1958 77.1526 44.0404V40.1981C77.1526 39.749 77.3347 39.3184 77.6589 39.0008C77.9831 38.6833 78.4228 38.5049 78.8812 38.5049C79.3397 38.5049 79.7794 38.6833 80.1036 39.0008C80.4278 39.3184 80.6099 39.749 80.6099 40.1981V44.0404C80.6097 44.1958 80.5466 44.3448 80.4344 44.4547C80.3223 44.5645 80.1702 44.6263 80.0115 44.6265Z" fill="#52AF9C"/>
<path d="M64.8341 45.3516C64.701 45.5073 64.5357 45.6336 64.3491 45.7222C64.1625 45.8108 63.9589 45.8596 63.7516 45.8655C63.5443 45.8713 63.3382 45.8341 63.1467 45.7563C62.9551 45.6784 62.7826 45.5617 62.6405 45.4138C61.3525 44.0906 63.4581 42.1038 64.751 43.4298C64.7966 43.4756 64.8389 43.5243 64.8776 43.5757L71.397 43.417L72.1752 42.0229L74.5667 42.9325C74.1076 43.6299 73.5804 46.3671 72.3796 46.2339C72.2221 46.238 64.9951 45.3629 64.8341 45.3516Z" fill="#FFB8B8"/>
<path d="M73.5556 44.2968L71.7332 42.9868C71.6054 42.8947 71.5201 42.7567 71.496 42.6031C71.4719 42.4495 71.5111 42.2929 71.6048 42.1675L73.9257 39.0698C74.06 38.8906 74.229 38.739 74.4231 38.6237C74.6173 38.5084 74.8327 38.4317 75.057 38.398C75.2814 38.3643 75.5104 38.3742 75.7309 38.4271C75.9514 38.4801 76.159 38.575 76.342 38.7066C76.5251 38.8381 76.6798 39.0037 76.7975 39.1939C76.9152 39.384 76.9935 39.595 77.0279 39.8148C77.0624 40.0345 77.0523 40.2588 76.9982 40.4748C76.9442 40.6907 76.8472 40.8942 76.7129 41.0734L74.392 44.1711C74.298 44.2962 74.1572 44.3798 74.0004 44.4034C73.8436 44.4269 73.6836 44.3886 73.5556 44.2968Z" fill="#52AF9C"/>
<path d="M78.1576 35.0596C78.263 34.8442 78.2996 34.6027 78.2626 34.3667C78.2256 34.1306 78.1167 33.9109 77.9502 33.7365C77.3358 33.1297 76.3758 33.5344 75.5455 33.475C74.1624 33.376 73.2204 31.7605 73.6333 30.4637C74.0461 29.167 75.5138 28.3623 76.8978 28.4476C78.2819 28.5329 79.535 29.3715 80.3691 30.4567C80.9401 29.5565 82.3429 29.4516 83.2482 30.0318C84.1535 30.612 84.6219 31.6724 84.8155 32.715C85.0091 33.7576 84.9775 34.8291 85.1405 35.8768C85.5357 38.4162 87.209 40.8075 89.6301 41.7946C92.0513 42.7818 95.1496 42.1473 96.7335 40.1C97.0415 42.5811 96.5012 45.0921 95.1971 47.2403C93.893 49.3886 91.8987 51.0528 89.5262 51.9726C88.2142 52.4813 86.7653 52.7513 85.384 52.4686C83.1541 52.0122 81.4196 50.1442 80.6637 48.0392C79.9078 45.9342 79.9983 43.6245 80.3654 41.4223C80.5916 40.0658 80.842 38.4594 79.832 37.5053C79.5485 37.2742 79.2149 37.1095 78.8566 37.0236C78.6666 36.9677 78.4921 36.8701 78.3465 36.7381C78.2009 36.6062 78.0879 36.4434 78.0163 36.2622C77.9446 36.081 77.9161 35.8862 77.9329 35.6926C77.9498 35.499 78.0115 35.3117 78.1134 35.145C78.1298 35.1167 78.1446 35.0882 78.1576 35.0596Z" fill="#24564C"/>
<path d="M89.8821 78.0139H59.5642C59.529 78.0139 59.4952 78.0002 59.4702 77.9758C59.4453 77.9513 59.4313 77.9182 59.4313 77.8837C59.4313 77.8491 59.4453 77.816 59.4702 77.7916C59.4952 77.7671 59.529 77.7534 59.5642 77.7534H89.8821C89.9174 77.7534 89.9512 77.7671 89.9761 77.7916C90.0011 77.816 90.0151 77.8491 90.0151 77.8837C90.0151 77.9182 90.0011 77.9513 89.9761 77.9758C89.9512 78.0002 89.9174 78.0139 89.8821 78.0139Z" fill="#0D2823"/>
<path d="M35.8025 36.0721C35.6008 36.072 35.4023 36.0219 35.2256 35.9264L8.75818 21.6574C8.72728 21.6408 8.70441 21.6128 8.69459 21.5796C8.68477 21.5464 8.68881 21.5108 8.70581 21.4805C8.72282 21.4503 8.7514 21.4279 8.78527 21.4182C8.81914 21.4086 8.85552 21.4126 8.88641 21.4292L35.3538 35.6982C35.4888 35.7712 35.6402 35.8101 35.7944 35.8115C35.9486 35.8128 36.1007 35.7765 36.237 35.7058L63.14 21.8046C63.1555 21.7966 63.1724 21.7916 63.1898 21.79C63.2072 21.7884 63.2248 21.7901 63.2415 21.7952C63.2582 21.8002 63.2737 21.8084 63.2872 21.8194C63.3006 21.8303 63.3117 21.8437 63.3199 21.8589C63.3281 21.874 63.3331 21.8906 63.3347 21.9076C63.3363 21.9247 63.3345 21.9419 63.3293 21.9582C63.3241 21.9746 63.3157 21.9898 63.3045 22.0029C63.2933 22.0161 63.2796 22.027 63.2641 22.0349L36.361 35.9362C36.1889 36.0253 35.9972 36.072 35.8025 36.0721Z" fill="#0D2823"/>
<path d="M16.4527 44.9394H12.7295C12.4474 44.9394 12.1768 44.8297 11.9773 44.6342C11.7778 44.4388 11.6657 44.1738 11.6657 43.8975C11.6657 43.6211 11.7778 43.3561 11.9773 43.1607C12.1768 42.9652 12.4474 42.8555 12.7295 42.8555H16.4527C16.7349 42.8555 17.0055 42.9652 17.205 43.1607C17.4045 43.3561 17.5165 43.6211 17.5165 43.8975C17.5165 44.1738 17.4045 44.4388 17.205 44.6342C17.0055 44.8297 16.7349 44.9394 16.4527 44.9394Z" fill="#0D2823"/>
<path d="M20.8409 48.4565H12.7295C12.4474 48.4565 12.1768 48.3467 11.9773 48.1513C11.7778 47.9559 11.6657 47.6909 11.6657 47.4145C11.6657 47.1382 11.7778 46.8732 11.9773 46.6777C12.1768 46.4823 12.4474 46.3726 12.7295 46.3726H20.8409C21.123 46.3726 21.3936 46.4823 21.5931 46.6777C21.7926 46.8732 21.9046 47.1382 21.9046 47.4145C21.9046 47.6909 21.7926 47.9559 21.5931 48.1513C21.3936 48.3467 21.123 48.4565 20.8409 48.4565Z" fill="#0D2823"/>
<path d="M35.792 40.2509C38.1421 40.2509 40.0471 38.3848 40.0471 36.083C40.0471 33.7811 38.1421 31.915 35.792 31.915C33.442 31.915 31.5369 33.7811 31.5369 36.083C31.5369 38.3848 33.442 40.2509 35.792 40.2509Z" fill="#52AF9C"/>
</g>
<defs>
<clipPath id="clip0">
<rect width="88.8158" height="74.0132" fill="white" transform="translate(8 4)"/>
</clipPath>
</defs>
</svg>
