<svg width="40" height="40" viewBox="0 0 40 40" fill="none" xmlns="http://www.w3.org/2000/svg">
<path d="M35.75 12.9981C36.6783 12.9981 37.5685 13.3669 38.2249 14.0232C38.8812 14.6796 39.25 15.5699 39.25 16.4981V23.4981C39.25 24.4264 38.8812 25.3166 38.2249 25.973C37.5685 26.6294 36.6783 26.9981 35.75 26.9981H33.8915C33.4649 30.3814 31.8182 33.4927 29.2606 35.7481C26.7029 38.0035 23.4101 39.2481 20 39.2481V35.7481C22.7848 35.7481 25.4555 34.6419 27.4246 32.6727C29.3938 30.7036 30.5 28.0329 30.5 25.2481V14.7481C30.5 11.9633 29.3938 9.29263 27.4246 7.3235C25.4555 5.35436 22.7848 4.24812 20 4.24812C17.2152 4.24812 14.5445 5.35436 12.5754 7.3235C10.6062 9.29263 9.5 11.9633 9.5 14.7481V26.9981H4.25C3.32174 26.9981 2.4315 26.6294 1.77513 25.973C1.11875 25.3166 0.75 24.4264 0.75 23.4981V16.4981C0.75 15.5699 1.11875 14.6796 1.77513 14.0232C2.4315 13.3669 3.32174 12.9981 4.25 12.9981H6.1085C6.53555 9.61518 8.18239 6.50434 10.74 4.2493C13.2976 1.99425 16.5902 0.75 20 0.75C23.4098 0.75 26.7024 1.99425 29.26 4.2493C31.8176 6.50434 33.4644 9.61518 33.8915 12.9981H35.75ZM12.58 26.6219L14.435 23.6539C16.1029 24.6987 18.0319 25.2513 20 25.2481C21.9681 25.2513 23.8971 24.6987 25.565 23.6539L27.42 26.6219C25.1962 28.0151 22.6242 28.7521 20 28.7481C17.3758 28.7521 14.8038 28.0151 12.58 26.6219Z" fill="#417465"/>
</svg>
