<svg width="32" height="32" viewBox="0 0 32 32" fill="none" xmlns="http://www.w3.org/2000/svg">
<path d="M29.2062 5.5836L5.5812 29.2086C5.20968 29.5753 4.70868 29.7809 4.18667 29.7809C3.66466 29.7809 3.16365 29.5753 2.79214 29.2086C2.6086 29.0257 2.46297 28.8084 2.3636 28.5691C2.26423 28.3297 2.21308 28.0732 2.21308 27.8141C2.21308 27.555 2.26423 27.2984 2.3636 27.0591C2.46297 26.8198 2.6086 26.6024 2.79214 26.4195L26.4171 2.79453C26.787 2.42468 27.2886 2.2169 27.8117 2.2169C28.3347 2.2169 28.8363 2.42468 29.2062 2.79453C29.576 3.16439 29.7838 3.66601 29.7838 4.18906C29.7838 4.71211 29.576 5.21374 29.2062 5.5836ZM2.82495 12.1133C1.74661 11.0384 1.0745 9.6227 0.923197 8.10765C0.771898 6.59261 1.15078 5.07198 1.99525 3.80505C2.83973 2.53811 4.09749 1.6033 5.55412 1.16001C7.01074 0.716715 8.57603 0.79238 9.9831 1.3741C11.3902 1.95583 12.5519 3.00759 13.2702 4.35007C13.9886 5.69255 14.219 7.24263 13.9223 8.73602C13.6256 10.2294 12.8201 11.5736 11.6431 12.5395C10.4661 13.5054 8.9905 14.0332 7.46792 14.0328C6.60586 14.0335 5.75212 13.8643 4.95547 13.535C4.15881 13.2056 3.43485 12.7225 2.82495 12.1133ZM4.84292 7.47031C4.84188 8.07768 5.05148 8.66661 5.43601 9.13674C5.82055 9.60688 6.35621 9.92912 6.95171 10.0486C7.54722 10.168 8.16571 10.0772 8.7018 9.79174C9.23788 9.50625 9.65838 9.0437 9.89162 8.48291C10.1249 7.92212 10.1564 7.29779 9.98095 6.71634C9.80545 6.13488 9.43376 5.63227 8.92921 5.29416C8.42465 4.95605 7.81847 4.80337 7.21395 4.86213C6.60944 4.92089 6.044 5.18746 5.61401 5.61641C5.36939 5.85917 5.1753 6.14799 5.04295 6.4662C4.9106 6.7844 4.84261 7.12568 4.84292 7.47031ZM31.0929 24.5328C31.0917 26.051 30.5642 27.5218 29.6001 28.6947C28.6361 29.8676 27.2953 30.6699 25.806 30.965C24.3168 31.2601 22.7713 31.0297 21.4328 30.3131C20.0944 29.5965 19.0458 28.438 18.4658 27.0349C17.8857 25.6319 17.8101 24.0712 18.2517 22.6186C18.6934 21.1661 19.625 19.9116 20.8878 19.0689C22.1507 18.2262 23.6667 17.8474 25.1775 17.9971C26.6883 18.1468 28.1004 18.8157 29.1734 19.8898C29.7826 20.4997 30.2657 21.2237 30.5951 22.0204C30.9244 22.817 31.0936 23.6708 31.0929 24.5328ZM27.1554 24.5328C27.1557 24.1882 27.0877 23.8469 26.9554 23.5287C26.823 23.2105 26.6289 22.9217 26.3843 22.6789C25.9563 22.2542 25.3944 21.9908 24.7941 21.9336C24.1939 21.8765 23.5923 22.029 23.0918 22.3654C22.5914 22.7017 22.2229 23.201 22.049 23.7784C21.8752 24.3558 21.9067 24.9755 22.1383 25.5323C22.3698 26.089 22.7871 26.5484 23.3192 26.8321C23.8512 27.1159 24.4651 27.2066 25.0565 27.0888C25.6478 26.971 26.1801 26.652 26.5628 26.186C26.9455 25.72 27.1549 25.1358 27.1554 24.5328Z" fill="#417465"/>
</svg>
