<svg width="35" height="35" viewBox="0 0 35 35" fill="none" xmlns="http://www.w3.org/2000/svg">
<path d="M17.5139 34.5C19.4389 34.5 21.0139 32.925 21.0139 31H14.0139C14.0139 32.925 15.5889 34.5 17.5139 34.5ZM28.0139 24V15.25C28.0139 9.8775 25.1614 5.38 20.1389 4.19V3C20.1389 1.5475 18.9664 0.375 17.5139 0.375C16.0614 0.375 14.8889 1.5475 14.8889 3V4.19C9.88391 5.38 7.01391 9.86 7.01391 15.25V24L3.51391 27.5V29.25H31.5139V27.5L28.0139 24ZM24.5139 25.75H10.5139V15.25C10.5139 10.91 13.1564 7.375 17.5139 7.375C21.8714 7.375 24.5139 10.91 24.5139 15.25V25.75ZM9.77891 3.14L7.27641 0.6375C3.07641 3.84 0.311406 8.775 0.0664062 14.375H3.56641C3.82891 9.7375 6.20891 5.6775 9.77891 3.14ZM31.4614 14.375H34.9614C34.6989 8.775 31.9339 3.84 27.7514 0.6375L25.2664 3.14C28.8014 5.6775 31.1989 9.7375 31.4614 14.375Z" fill="#417465"/>
</svg>
