<svg width="59" height="58" viewBox="0 0 59 58" fill="none" xmlns="http://www.w3.org/2000/svg">
<path d="M58.4998 28.999C58.4998 31.5743 58.1638 34.075 57.5294 36.4512C56.0489 42.031 52.9511 46.9514 48.7584 50.6713C48.4847 50.9201 48.1986 51.1627 47.9125 51.3991C46.8674 52.2699 45.7539 53.0599 44.5845 53.7691C44.0744 54.0801 43.5581 54.3787 43.0294 54.6586C42.8801 54.7395 42.7308 54.8141 42.5753 54.8888C38.6501 56.8793 34.2025 57.999 29.4998 57.999C27.8949 57.999 26.3211 57.8684 24.7846 57.6134C23.6836 57.4392 22.6074 57.1966 21.55 56.898C18.0478 55.9027 14.8194 54.2667 11.9953 52.1269C11.3172 51.6106 10.6641 51.0632 10.0296 50.4909C8.96587 49.5329 7.97058 48.4879 7.06239 47.3806C6.75136 47.0012 6.44656 46.6093 6.16042 46.2112C2.60229 41.3965 0.499756 35.4435 0.499756 28.999C0.499756 12.9812 13.482 -0.000976562 29.4998 -0.000976562C45.5176 -0.000976562 58.4998 12.9812 58.4998 28.999Z" fill="#E8FCF7"/>
<mask id="mask0_17490_66808" style="mask-type:alpha" maskUnits="userSpaceOnUse" x="0" y="-1" width="59" height="59">
<path d="M58.4998 28.999C58.4998 31.5743 58.1638 34.075 57.5294 36.4512C56.0489 42.031 52.9511 46.9514 48.7584 50.6713C48.4847 50.9201 48.1986 51.1627 47.9125 51.3991C46.8674 52.2699 45.7539 53.0599 44.5845 53.7691C44.0744 54.0801 43.5581 54.3787 43.0294 54.6586C42.8801 54.7395 42.7308 54.8141 42.5753 54.8888C38.6501 56.8793 34.2025 57.999 29.4998 57.999C27.8949 57.999 26.3211 57.8684 24.7846 57.6134C23.6836 57.4392 22.6074 57.1966 21.55 56.898C18.0478 55.9027 14.8194 54.2667 11.9953 52.1269C11.3172 51.6106 10.6641 51.0632 10.0296 50.4909C8.96587 49.5329 7.97058 48.4879 7.06239 47.3806C6.75136 47.0012 6.44656 46.6093 6.16042 46.2112C2.60229 41.3965 0.499756 35.4435 0.499756 28.999C0.499756 12.9812 13.482 -0.000976562 29.4998 -0.000976562C45.5176 -0.000976562 58.4998 12.9812 58.4998 28.999Z" fill="#EDDDD6"/>
<path d="M57.0463 36.3222L57.0461 36.323C55.5913 41.8058 52.5472 46.6413 48.4266 50.2973L48.4266 50.2972L48.4221 50.3013C48.1567 50.5426 47.8772 50.7796 47.594 51.0136L47.5924 51.015C46.5673 51.8692 45.4742 52.6448 44.3252 53.3415L44.3242 53.3422C43.8206 53.6493 43.3133 53.9426 42.7954 54.2167L42.7912 54.219C42.6514 54.2947 42.5098 54.3656 42.3589 54.438L42.3588 54.4379L42.3491 54.4428C38.4927 56.3985 34.1224 57.499 29.4998 57.499C27.9221 57.499 26.3757 57.3706 24.8665 57.1201L24.8627 57.1195C23.7829 56.9487 22.726 56.7105 21.6858 56.4168C18.2452 55.4389 15.073 53.8315 12.2976 51.7287C11.6322 51.2219 10.9898 50.6837 10.3645 50.1196L10.3642 50.1193C9.31947 49.1785 8.34152 48.1517 7.44898 47.0635C7.14332 46.6906 6.84522 46.3072 6.56642 45.9194L6.56646 45.9193L6.56253 45.914C3.06581 41.1824 0.999756 35.3329 0.999756 28.999C0.999756 13.2574 13.7581 0.499023 29.4998 0.499023C45.2414 0.499023 57.9998 13.2574 57.9998 28.999C57.9998 31.5307 57.6695 33.988 57.0463 36.3222Z" stroke="#A0A3BD" stroke-opacity="0.4"/>
</mask>
<g mask="url(#mask0_17490_66808)">
<path d="M58.4998 29.0021C58.4998 33.9842 57.2433 38.674 55.0229 42.7666C54.5066 43.7369 53.922 44.6761 53.2938 45.578C51.4838 48.1841 49.2446 50.4792 46.6883 52.3514C46.6758 52.3701 46.6572 52.3763 46.6447 52.3887C46.4768 52.5131 46.3089 52.6375 46.1347 52.7495C42.9875 54.9637 39.38 56.5622 35.4863 57.377C33.5582 57.7875 31.5554 57.999 29.5029 57.999C24.7945 57.999 20.3535 56.8795 16.4225 54.8829C14.1523 53.7384 12.0562 52.3017 10.1778 50.6223C9.17021 49.7142 8.21858 48.7439 7.34158 47.7052C6.94351 47.2387 6.5641 46.7598 6.20335 46.2684C5.23927 44.9747 4.38094 43.6001 3.64078 42.1509C1.63177 38.2013 0.499756 33.7354 0.499756 29.0021C0.499756 12.9861 13.4868 -0.000976562 29.5029 -0.000976562C45.5127 -0.000976562 58.4998 12.9861 58.4998 29.0021Z" fill="#E3F9FA"/>
<path d="M38.2852 22.1216C37.8317 20.094 36.301 18.7107 34.8667 19.0316L34.1197 19.1436C34.0295 19.1504 33.9387 19.1641 33.8492 19.184C32.4149 19.505 31.62 21.4088 32.074 23.4359C32.5274 25.4636 34.0581 26.8468 35.4924 26.5259L36.2394 26.4146C36.3296 26.4077 36.4204 26.394 36.5106 26.3741C37.9443 26.0526 38.7392 24.1487 38.2852 22.1216Z" fill="#BF891A"/>
<path d="M55.0243 42.767C54.5081 43.7373 53.9234 44.6765 53.2952 45.5784C51.4853 48.1845 49.2461 50.4796 46.6898 52.3518C46.6773 52.3704 46.6587 52.3767 46.6462 52.3891C46.4783 52.5135 46.3103 52.6379 46.1362 52.7499C42.989 54.9641 39.3815 56.5626 35.4878 57.3774C33.5597 57.7879 31.5569 57.9994 29.5044 57.9994C24.7959 57.9994 20.355 56.8798 16.424 54.8833C14.1538 53.7388 12.0577 52.302 10.1793 50.6227C9.1717 49.7146 8.22006 48.7443 7.34306 47.7056C6.94499 47.2391 6.56558 46.7602 6.20483 46.2688C10.8137 40.7207 14.8691 39.6011 14.8691 39.6011C14.7385 39.4581 13.3141 37.7787 14.8691 34.7559C16.9154 30.7627 23.2721 28.2935 23.2721 28.2935L34.4927 27.6279C34.4927 27.6279 39.2135 27.97 42.7091 31.988C45.6013 35.297 45.085 37.3993 44.8114 38.0399C44.7616 38.1768 44.7119 38.2452 44.7119 38.2452C44.7119 38.2452 49.5571 39.8375 55.0243 42.767Z" fill="#ECB950"/>
<path d="M44.8099 38.0378C42.4818 39.5101 38.753 41.3536 33.4916 42.5086C23.6518 44.6812 14.8657 39.5996 14.8657 39.5996C14.7338 39.4559 13.3095 37.7803 14.8657 34.7513C16.9126 30.7594 23.2687 28.2932 23.2687 28.2932L34.4911 27.6289C34.4911 27.6289 39.2076 27.9698 42.7088 31.9859C45.5998 35.2967 45.0854 37.3972 44.8099 38.0378Z" fill="#F7D99D"/>
<path d="M24.9013 35.6671C24.9013 35.6671 20.4553 33.3464 20.7209 31.9893C20.9871 30.6321 25.3018 29.7221 28.0653 30.244C30.8294 30.7658 37.3646 30.8467 37.3646 33.2251C37.3646 35.3274 34.3654 37.3501 34.3654 37.3501L28.0653 35.5327L24.9013 35.6671Z" fill="#ECB950"/>
<path d="M24.7461 28.7109L24.9003 35.6691C24.9003 35.6691 26.1997 37.6414 30.2774 37.8821C33.3152 38.0612 34.3651 37.3522 34.3651 37.3522L33.8644 33.8373L33.3711 30.4102L25.9851 28.9566L24.7461 28.7109Z" fill="#F9BB91"/>
<path d="M25.9883 28.9541C26.0101 29.1438 26.0872 29.3665 26.2054 29.6209C27.8393 33.0617 32.1123 33.7166 33.867 33.8348L33.3737 30.4077L25.9883 28.9541Z" fill="black"/>
<path d="M34.5634 14.5115C34.5634 14.5115 38.4085 23.154 37.0768 28.0328C35.7451 32.9116 31.3029 32.1752 28.6421 31.2516C25.9812 30.3279 24.7379 28.7083 24.7379 28.7083C24.7379 28.7083 22.2636 29.5654 20.5899 27.2709C18.9161 24.9764 19.9194 22.3211 21.3313 21.7048C22.7432 21.0884 24.4337 22.0997 24.4337 22.0997L23.0971 19.5894C23.0971 19.5894 28.5631 6.7504 34.5634 14.5115Z" fill="#F9BB91"/>
<path d="M34.2449 25.5632C34.2144 25.5632 34.1833 25.5588 34.1528 25.5495C33.9886 25.4991 33.8972 25.3249 33.9476 25.1607C34.4346 23.5859 33.2516 21.8711 33.2392 21.8536C33.1409 21.7131 33.1745 21.5197 33.315 21.4208C33.455 21.3225 33.649 21.3554 33.7479 21.496C33.8045 21.5763 35.12 23.4752 34.5416 25.3448C34.5005 25.4773 34.378 25.5632 34.2449 25.5632Z" fill="black"/>
<path d="M24.0697 26.1908C23.9901 26.1908 23.9111 26.1591 23.852 26.0969L21.4971 23.6015C21.3839 23.4814 21.3895 23.2917 21.5096 23.1785C21.6296 23.0647 21.8193 23.0703 21.9325 23.191L24.2874 25.6864C24.4006 25.8064 24.395 25.9961 24.2749 26.1093C24.2177 26.1634 24.1437 26.1908 24.0697 26.1908Z" fill="black"/>
<path d="M21.5794 25.5221C21.4339 25.5221 21.3064 25.4157 21.284 25.2677C21.2591 25.1041 21.3717 24.9517 21.5346 24.9269L23.1636 24.6799C23.3297 24.6563 23.4796 24.7676 23.5044 24.9306C23.5293 25.0942 23.4167 25.2465 23.2538 25.2714L21.6248 25.5177C21.6099 25.5208 21.5943 25.5221 21.5794 25.5221Z" fill="black"/>
<path d="M24.4414 22.1007C24.4414 22.1007 25.3358 22.6878 25.9858 21.6709C26.6357 20.654 25.2133 17.6473 25.2133 17.6473C25.2133 17.6473 27.8971 18.2568 29.556 17.3692C31.2148 16.4817 32.029 14.0391 32.029 14.0391C32.029 14.0391 33.2499 16.5831 36.9134 15.4635C40.5769 14.3439 41.2754 9.3581 37.3643 8.33991C33.4533 7.32234 31.3162 9.05207 31.3162 9.05207C31.3162 9.05207 30.8204 5.43339 25.9851 7.22034C21.5796 8.8487 20.8345 14.3676 20.8345 14.3676C20.8345 14.3676 18.1886 14.4907 17.6798 17.368C17.171 20.2453 20.5378 22.3277 20.5378 22.3277C20.5378 22.3277 22.4498 21.2075 24.4414 22.1007Z" fill="black"/>
<path d="M30.3157 22.3295C30.1615 22.3295 30.0278 22.2144 30.0072 22.0583L29.8014 20.443C29.7796 20.2726 29.9003 20.1171 30.0707 20.0947C30.2436 20.0711 30.3972 20.1936 30.419 20.364L30.6249 21.9793C30.6466 22.1498 30.526 22.3052 30.3556 22.3276C30.3419 22.3289 30.3288 22.3295 30.3157 22.3295Z" fill="black"/>
<path d="M35.1089 21.9451C34.9571 21.9451 34.8246 21.8338 34.8016 21.6795L34.5646 20.0686C34.5397 19.8988 34.6567 19.7408 34.8271 19.7153C34.9956 19.6948 35.1549 19.808 35.1798 19.9778L35.4167 21.5887C35.4416 21.7585 35.3247 21.9165 35.1543 21.942C35.1393 21.9438 35.1238 21.9451 35.1089 21.9451Z" fill="black"/>
<path d="M28.8099 19.2344C28.762 19.2344 28.7135 19.2232 28.6681 19.1996C28.5151 19.1212 28.4554 18.9334 28.5337 18.781C29.1339 17.6148 30.6068 17.9183 30.6684 17.9326C30.8363 17.9687 30.9421 18.1329 30.9066 18.3008C30.8711 18.4694 30.7076 18.5751 30.5384 18.5409C30.4936 18.5297 29.4673 18.3257 29.0873 19.0659C29.0319 19.1728 28.9231 19.2344 28.8099 19.2344Z" fill="black"/>
<path d="M33.4936 18.2378C33.4332 18.2378 33.3717 18.2204 33.3182 18.183C33.1764 18.0866 33.1403 17.8926 33.2373 17.7514C33.4836 17.3913 33.8021 17.1841 34.1827 17.1375C34.9503 17.0386 35.6655 17.668 35.6954 17.6942C35.8241 17.808 35.836 18.0033 35.7228 18.132C35.6089 18.2608 35.413 18.2726 35.2836 18.16C35.135 18.03 34.6598 17.706 34.2574 17.7551C34.0596 17.78 33.8935 17.8938 33.7511 18.1028C33.6901 18.1905 33.5925 18.2378 33.4936 18.2378Z" fill="black"/>
<path d="M29.7075 43.5944C20.4841 43.0788 16.9021 40.9641 16.7541 40.8739C16.6073 40.7849 16.5606 40.594 16.6496 40.4472C16.7385 40.3004 16.9282 40.2525 17.0769 40.3421C17.1123 40.3632 20.7024 42.468 29.7249 42.9731C29.8966 42.983 30.0278 43.1292 30.0179 43.3008C30.0086 43.4663 29.8717 43.5944 29.7075 43.5944Z" fill="#BF891A"/>
<path d="M29.9604 54.0845C29.7775 54.0783 29.6432 53.9346 29.6494 53.763L29.9031 46.2936C29.9087 46.1219 30.0537 45.9975 30.2247 45.9932C30.3964 45.9994 30.5307 46.1431 30.5245 46.3147L30.2707 53.7841C30.2651 53.9521 30.1271 54.0845 29.9604 54.0845Z" fill="#BF891A"/>
<path d="M42.1304 51.8264C42.024 51.8264 41.9208 51.7717 41.8623 51.674L38.1385 45.3764C38.0508 45.2284 38.0999 45.0375 38.2479 44.9498C38.3953 44.8639 38.5869 44.9118 38.674 45.0592L42.3978 51.3568C42.4855 51.5048 42.4364 51.6958 42.2883 51.7835C42.2386 51.8127 42.1838 51.8264 42.1304 51.8264Z" fill="#BF891A"/>
<path d="M42.137 39.9095C42.025 39.9095 41.9168 39.8491 41.8614 39.7434C41.7812 39.591 41.8396 39.4032 41.992 39.3229L44.5683 37.9664C44.7207 37.8868 44.9085 37.9446 44.9881 38.0964C45.0684 38.2488 45.0099 38.4366 44.8575 38.5168L42.2813 39.8734C42.2352 39.8983 42.1855 39.9095 42.137 39.9095Z" fill="#BF891A"/>
<path d="M24.1866 28.7308C25.6442 28.5441 26.6118 26.7221 26.3478 24.6613C26.0837 22.6006 24.688 21.0815 23.2304 21.2683C21.7727 21.455 20.8051 23.277 21.0692 25.3377C21.3332 27.3985 22.729 28.9176 24.1866 28.7308Z" fill="#BF891A"/>
<path d="M23.2306 21.2646L22.2224 21.4687L23.1784 28.9306L24.1873 28.7272L25.2882 27.5429L25.6085 23.4055L23.2306 21.2646Z" fill="#BF891A"/>
<path d="M23.1734 28.9359C24.6311 28.7491 25.5986 26.9272 25.3346 24.8664C25.0705 22.8057 23.6748 21.2866 22.2172 21.4733C20.7595 21.6601 19.7919 23.4821 20.056 25.5428C20.3201 27.6035 21.7158 29.1227 23.1734 28.9359Z" fill="white"/>
<path d="M21.4961 12.0186C21.4961 12.0186 20.3834 13.3515 20.0705 14.5258C19.7577 15.7001 21.5813 23.1154 21.5813 23.1154L23.8833 22.5935L21.4961 12.0186Z" fill="white"/>
<path d="M32.1801 28.0048C31.1072 28.0048 30.3353 27.2149 30.0467 26.7272C29.959 26.5798 30.0081 26.3895 30.1555 26.3018C30.3023 26.2135 30.4927 26.2626 30.5816 26.4094C30.6121 26.461 31.346 27.654 32.6043 27.3268C32.7679 27.2814 32.9402 27.3834 32.9837 27.5489C33.0266 27.7156 32.9271 27.8847 32.761 27.9277C32.5595 27.9811 32.3655 28.0048 32.1801 28.0048Z" fill="black"/>
</g>
</svg>
