<svg width="59" height="58" viewBox="0 0 59 58" fill="none" xmlns="http://www.w3.org/2000/svg">
<path d="M58.4998 28.999C58.4998 31.5743 58.1639 34.075 57.5294 36.4512C56.0489 42.031 52.9511 46.9514 48.7584 50.6713C48.4847 50.9201 48.1986 51.1627 47.9125 51.3991C46.8674 52.2699 45.7539 53.06 44.5845 53.7691C44.0744 54.0801 43.5581 54.3787 43.0294 54.6586C42.8801 54.7395 42.7308 54.8141 42.5753 54.8888C38.6501 56.8793 34.2025 57.999 29.4998 57.999C27.8949 57.999 26.3211 57.8684 24.7846 57.6134C23.6836 57.4392 22.6074 57.1966 21.55 56.898C18.0478 55.9027 14.8194 54.2667 11.9953 52.1269C11.3172 51.6106 10.6641 51.0632 10.0296 50.4909C8.96587 49.5329 7.97058 48.4879 7.06239 47.3806C6.75136 47.0012 6.44656 46.6093 6.16042 46.2112C2.60229 41.3965 0.499756 35.4435 0.499756 28.999C0.499756 12.9812 13.482 -0.000976562 29.4998 -0.000976562C45.5176 -0.000976562 58.4998 12.9812 58.4998 28.999Z" fill="#E3F9FA"/>
<path d="M47.9132 51.3982C46.8681 52.269 45.7547 53.059 44.5852 53.7682C44.0751 54.0792 43.5588 54.3778 43.0301 54.6577C42.8808 54.7386 42.7315 54.8132 42.576 54.8879C38.6508 56.8784 34.2032 57.9981 29.5005 57.9981C27.8956 57.9981 26.3218 57.8675 24.7853 57.6125C23.6843 57.4383 22.6082 57.1957 21.5507 56.8971C18.0485 55.9018 14.8201 54.2658 11.996 52.126C11.3179 51.6097 10.6648 51.0623 10.0303 50.49C8.96658 49.532 7.9713 48.487 7.06311 47.3797C6.75208 47.0003 6.44728 46.6084 6.16113 46.2103C8.08949 43.2555 11.3428 39.4859 16.2072 37.5327C17.5571 36.9977 19.0065 36.5996 20.5865 36.3943C20.6798 36.3819 20.7669 36.3694 20.8602 36.3632C21.0033 36.3445 21.1463 36.3321 21.2832 36.3197C21.2956 36.3134 21.3018 36.3134 21.3143 36.3134C21.4387 36.301 21.5569 36.2948 21.6751 36.2886C21.8617 36.2761 22.0421 36.2637 22.2038 36.2575C22.5957 36.2264 22.9938 36.1953 23.3733 36.1828C34.1721 35.766 39.9198 40.052 40.2557 40.307C40.2868 40.3257 40.3055 40.3505 40.3242 40.3754C40.4299 40.4936 40.6912 40.7735 41.0706 41.2152C42.4827 42.845 45.4872 46.5835 47.9132 51.3982Z" fill="#3C9ACF"/>
<path d="M25.3646 21.5796C25.3646 21.5796 27.8105 20.9749 28.957 19.5672C30.1034 18.1595 30.2925 14.6767 30.2925 14.6767C30.2925 14.6767 34.7222 16.9807 35.886 16.7251C37.0505 16.4688 39.3322 11.2535 37.7951 9.00107C36.258 6.748 33.1477 9.53727 33.1477 9.53727C33.1477 9.53727 32.5095 6.31879 29.1088 7.0696C25.1171 7.95105 24.0845 12.0043 24.0845 12.0043C24.0845 12.0043 23.8164 7.60581 21.0395 9.53665C18.2621 11.4675 19.2623 16.5098 19.2623 16.5098C19.2623 16.5098 17.0404 17.4734 17.4851 19.5666C17.9293 21.6592 20.9288 23.674 20.9288 23.674L25.3646 21.5796Z" fill="#E56445"/>
<path d="M24.9663 27.8945L24.384 34.5268C24.384 34.5268 25.4552 36.5348 29.445 37.1793C32.4172 37.6589 33.5263 37.0915 33.5263 37.0915L33.4038 33.6983L33.28 30.389L26.1606 28.2541L24.9663 27.8945Z" fill="#F9BB91"/>
<path d="M26.1641 28.2529C26.1653 28.4352 26.2182 28.6548 26.3078 28.9092C27.5537 32.3479 31.6922 33.406 33.4078 33.6971L33.2841 30.3878L26.1641 28.2529Z" fill="black"/>
<path d="M36.1399 15.3965C36.1399 15.3965 39.0144 24.0069 37.188 28.5112C35.3617 33.0148 31.0658 31.8615 28.5428 30.712C26.0204 29.5624 24.9672 27.8953 24.9672 27.8953C24.9672 27.8953 22.4405 28.4583 21.0346 26.1057C19.6282 23.7531 20.8965 21.3302 22.3515 20.8886C23.8065 20.4463 25.3647 21.5803 25.3647 21.5803L24.3135 19.0572C24.3135 19.0572 31.0509 7.40437 36.1399 15.3965Z" fill="#F9BB91"/>
<path d="M24.8192 25.1875C24.7495 25.1875 24.6792 25.1639 24.6214 25.116L21.7158 22.7143C21.5833 22.6048 21.5646 22.4088 21.6741 22.2763C21.783 22.1438 21.9789 22.1246 22.112 22.2347L25.0176 24.6364C25.1501 24.7459 25.1688 24.9418 25.0593 25.0743C24.9977 25.149 24.9088 25.1875 24.8192 25.1875Z" fill="black"/>
<path d="M30.1027 18.471C30.0256 18.471 29.9485 18.443 29.8888 18.3858C29.7643 18.2676 29.7594 18.0704 29.8769 17.946C30.9238 16.8425 32.1648 17.161 32.6755 17.4844C32.8205 17.5759 32.864 17.7681 32.772 17.9136C32.6805 18.0586 32.4889 18.1015 32.344 18.0107C32.3017 17.9845 31.2797 17.3712 30.3285 18.374C30.2676 18.4386 30.1855 18.471 30.1027 18.471Z" fill="black"/>
<path d="M36.7923 18.7045C36.7152 18.7045 36.6387 18.6765 36.5784 18.6193C35.9221 17.9985 35.1427 18.3387 35.1097 18.3537C34.9536 18.4246 34.7694 18.3555 34.6985 18.1994C34.627 18.0439 34.6942 17.861 34.8497 17.7882C34.897 17.7658 36.0378 17.2514 37.0063 18.1664C37.1314 18.2846 37.1363 18.4812 37.0188 18.6062C36.9572 18.6722 36.8745 18.7045 36.7923 18.7045Z" fill="black"/>
<path d="M35.0822 24.9191C35.043 24.9191 35.0038 24.9117 34.9652 24.8961C34.8066 24.8314 34.7295 24.6498 34.7942 24.4906C35.6862 22.2972 34.1566 21.4972 34.0906 21.4643C33.9376 21.3878 33.8748 21.2011 33.9507 21.0481C34.0266 20.8951 34.2113 20.8316 34.365 20.9063C34.3861 20.9169 36.4849 21.9818 35.3702 24.7251C35.3217 24.8457 35.2053 24.9191 35.0822 24.9191Z" fill="black"/>
<path d="M36.4803 21.888C36.3341 21.888 36.2035 21.7842 36.1749 21.6355L35.8781 20.0791C35.8458 19.9105 35.9572 19.7476 36.1257 19.7152C36.2968 19.6841 36.4573 19.7942 36.4896 19.9622L36.7863 21.5185C36.8187 21.6871 36.7073 21.8501 36.5388 21.8824C36.5195 21.8862 36.4996 21.888 36.4803 21.888Z" fill="black"/>
<path d="M31.5054 21.6156C31.3593 21.6156 31.2286 21.5117 31.2 21.363L30.9033 19.8067C30.871 19.6375 30.9823 19.4751 31.1502 19.4428C31.3232 19.4117 31.4818 19.5218 31.5141 19.6903L31.8109 21.2467C31.8432 21.4153 31.7325 21.5783 31.5639 21.6106C31.544 21.6137 31.5247 21.6156 31.5054 21.6156Z" fill="black"/>
<path d="M33.1427 27.4205C32.9996 27.4205 31.3082 27.3863 30.7036 25.8044C30.642 25.6439 30.7223 25.4642 30.8827 25.4026C31.042 25.341 31.223 25.4212 31.2846 25.5817C31.7462 26.7891 33.0904 26.7904 33.1445 26.7978C33.3168 26.7978 33.4562 26.9359 33.4574 27.1064C33.4587 27.2781 33.3218 27.418 33.1501 27.4199C33.1483 27.4205 33.1458 27.4205 33.1427 27.4205Z" fill="black"/>
<path d="M25.3645 21.5813C25.3645 21.5813 27.9877 21.1253 28.9568 18.9793C29.926 16.8338 29.7835 14.9024 29.7835 14.9024C29.7835 14.9024 31.1079 16.3536 33.4051 16.111C35.7024 15.8678 36.3331 13.5077 36.3331 13.5077L34.2281 11.04C34.2281 11.04 25.5791 12.8651 25.3645 12.5964C25.1499 12.3277 22.0029 17.938 22.0029 17.938L25.3645 21.5813Z" fill="#E56445"/>
<path d="M42.5754 54.8889C38.6502 56.8795 34.2026 57.9992 29.4999 57.9992C27.895 57.9992 26.3212 57.8685 24.7847 57.6135C23.6837 57.4393 22.6075 57.1967 21.5501 56.8981C18.0479 55.9029 14.8195 54.2669 11.9954 52.127C13.2084 44.7433 14.4898 38.6285 15.4851 37.9505C15.709 37.8012 15.9516 37.6581 16.2066 37.5337C17.5378 36.8805 19.1987 36.5571 20.5859 36.3953C20.6792 36.3829 20.7663 36.3705 20.8596 36.3642C21.0027 36.3456 21.1457 36.3331 21.2826 36.3207C21.4132 36.3083 21.5501 36.302 21.6745 36.2896C21.8611 36.2772 22.0415 36.2647 22.2032 36.2585C22.9123 36.2212 23.3664 36.2274 23.3664 36.2274C23.3664 36.2274 23.3664 36.2149 23.3727 36.1838C23.4038 35.7733 23.6837 32.5635 24.5546 32.6319C25.4814 32.7128 27.727 34.2555 30.1033 34.4483C32.4795 34.6412 33.7547 34.4297 34.2274 34.4297C34.7064 34.4297 34.806 36.9739 34.806 36.9739C34.806 36.9739 37.9909 38.0562 40.2551 40.308C40.2862 40.3267 40.3049 40.3516 40.3235 40.3765C40.4293 40.4947 40.6906 40.7746 41.07 41.2162C41.3561 41.577 41.605 41.9565 41.8165 42.367C42.4821 43.6609 42.6438 48.799 42.5754 54.8889Z" fill="#3C9ACF"/>
<path d="M28.4043 37.5936C26.2053 37.5936 23.3993 36.5697 23.2599 36.5187C23.0988 36.4589 23.0161 36.2804 23.0758 36.1193C23.1355 35.9582 23.3141 35.8761 23.4752 35.9352C23.5137 35.9489 27.3474 37.3466 29.3772 36.8757C29.5445 36.8359 29.7112 36.9404 29.7504 37.1084C29.7896 37.2757 29.6857 37.443 29.5184 37.4816C29.1794 37.56 28.8018 37.5936 28.4043 37.5936Z" fill="#196894"/>
<path d="M22.0024 25.1278C21.8911 25.1278 21.7835 25.0681 21.7281 24.9636C21.6473 24.8118 21.7045 24.6234 21.8556 24.5425L23.5234 23.6511C23.6745 23.5702 23.8636 23.6268 23.9445 23.7786C24.0253 23.9304 23.9681 24.1189 23.817 24.1997L22.1492 25.0911C22.1026 25.116 22.0522 25.1278 22.0024 25.1278Z" fill="black"/>
<path d="M31.8665 23.3865H30.386C29.5468 23.3865 28.8669 22.7066 28.8669 21.8674V20.3322C28.8669 20.0218 29.1183 19.7705 29.4287 19.7705H32.8238C33.1342 19.7705 33.3855 20.0218 33.3855 20.3322V21.8674C33.3855 22.706 32.705 23.3865 31.8665 23.3865Z" fill="black"/>
<path d="M38.2111 23.4617H36.7312C35.8921 23.4617 35.2122 22.7818 35.2122 21.9426V20.4074C35.2122 20.097 35.4635 19.8457 35.7739 19.8457H39.1684C39.4788 19.8457 39.7301 20.097 39.7301 20.4074V21.9426C39.7301 22.7818 39.0502 23.4617 38.2111 23.4617Z" fill="black"/>
<path d="M33.3857 22.1766C33.3055 22.1766 33.2252 22.1455 33.1643 22.0839C33.0442 21.962 33.0449 21.7667 33.1662 21.646C33.2084 21.6037 34.2243 20.6171 35.9542 21.0003C36.1221 21.0377 36.2279 21.2037 36.1906 21.3711C36.1532 21.5384 35.9859 21.6435 35.8198 21.6075C34.4314 21.3008 33.6364 22.056 33.6035 22.0877C33.5431 22.1474 33.4647 22.1766 33.3857 22.1766Z" fill="black"/>
<path d="M23.3668 20.8625C23.2244 20.8625 23.0962 20.7642 23.0639 20.6199C23.0259 20.4519 23.1317 20.2858 23.299 20.2479C27.1221 19.3888 29.4548 20.1994 29.5525 20.2336C29.7136 20.2914 29.7976 20.4687 29.7403 20.6304C29.6825 20.7916 29.5046 20.8762 29.3428 20.8195C29.3205 20.8115 27.0668 20.0376 23.4359 20.8544C23.4128 20.86 23.3892 20.8625 23.3668 20.8625Z" fill="black"/>
</svg>
