<svg width="59" height="58" viewBox="0 0 59 58" fill="none" xmlns="http://www.w3.org/2000/svg">
<path d="M58.4996 28.9988C58.4996 34.2053 57.1251 39.0946 54.718 43.3245C54.0214 44.5499 53.2377 45.7194 52.3669 46.8266C51.1416 48.4066 49.7483 49.8497 48.2182 51.1436C47.3599 51.8714 46.4518 52.5556 45.5064 53.1839C44.7103 53.7126 43.8892 54.1978 43.0371 54.6519C42.8505 54.7515 42.6639 54.8448 42.4711 54.9381C41.2831 55.5414 40.0454 56.0577 38.7703 56.487C35.8594 57.4636 32.7433 57.9985 29.5027 57.9985C24.0044 57.9985 18.8606 56.4683 14.4818 53.8059C14.289 53.694 14.0962 53.5696 13.9034 53.4452C13.8536 53.4203 13.8101 53.3892 13.7603 53.3581C11.9255 52.17 10.2337 50.7828 8.71605 49.2215C8.43616 48.9291 8.15627 48.6305 7.8826 48.3257C7.56539 47.9774 7.26061 47.6166 6.96206 47.2496C6.10372 46.1921 5.32002 45.0724 4.61718 43.903C2.00485 39.5424 0.499634 34.4479 0.499634 28.9988C0.499634 12.9811 13.4867 -0.000976562 29.5027 -0.000976562C45.5126 -0.000976562 58.4996 12.9811 58.4996 28.9988Z" fill="#E3F9FA"/>
<path d="M38.1077 14.1182C38.1077 14.1182 44.7138 15.2005 47.1165 23.4874C49.5186 31.7743 48.0986 42.4971 48.0986 42.4971L35.9059 38.8358L36.4358 24.1182L38.1077 14.1182Z" fill="black"/>
<path d="M52.3692 46.8272C51.1439 48.4072 49.7507 49.8503 48.2206 51.1442C47.3622 51.872 46.4541 52.5562 45.5087 53.1845C43.4313 54.5592 41.1735 55.6789 38.7726 56.4875C35.8617 57.4642 32.7456 57.9991 29.5051 57.9991C23.702 57.9991 18.2969 56.2947 13.7627 53.3587C11.9278 52.1705 10.236 50.7834 8.71838 49.2221C8.86766 48.2081 9.06668 47.02 9.32792 45.751C9.45853 45.129 9.6016 44.4821 9.76331 43.8227C10.1863 42.137 10.7149 40.3766 11.3929 38.6846C11.6293 38.0999 11.8843 37.5214 12.1517 36.9615C13.9182 33.3101 16.4807 30.3368 20.1629 29.8391C20.3059 29.8205 20.4552 29.8018 20.5983 29.7831C29.6108 28.6448 38.9095 30.1812 41.1797 30.6042C41.5218 30.6664 41.7022 30.7038 41.7022 30.7038C41.7022 30.7038 45.2537 32.7068 48.4942 37.7889C48.8177 38.2989 49.1411 38.8463 49.4583 39.4186C50.242 40.8493 50.9884 42.4853 51.6166 44.3328C51.8219 44.9113 52.0085 45.5022 52.1764 46.1243C52.2448 46.3544 52.307 46.5908 52.3692 46.8272Z" fill="#E3E377"/>
<path d="M32.4738 26.0989C32.4738 26.0989 36.2393 26.2669 38.4081 21.0106C40.577 15.7543 37.8633 11.6426 37.8633 11.6426L33.1362 14.1183L30.5674 23.5068L32.4738 26.0989Z" fill="black"/>
<path d="M45.5067 53.1844C43.4293 54.5591 41.1714 55.6788 38.7706 56.4875C35.8597 57.4641 32.7436 57.999 29.503 57.999C23.6999 57.999 18.2949 56.2946 13.7606 53.3586C13.7606 44.6188 14.0156 34.6786 15.1663 32.6694C15.9251 31.3382 18.1021 30.4175 20.5962 29.7831C25.1118 28.6323 30.6475 28.4146 30.6475 28.4146C30.6475 28.4146 36.7492 28.2093 41.1777 30.6042C41.9054 30.996 42.5896 31.4626 43.1929 32.01C45.4009 34.013 45.7182 44.003 45.5067 53.1844Z" fill="#E3E377"/>
<path d="M32.3398 23.8271L32.8642 30.0153C32.8642 30.0153 31.8988 31.8887 28.3038 32.4895C25.6255 32.9373 24.6266 32.408 24.6266 32.408L24.7367 29.2421L24.8486 26.1546L31.2638 24.1624L32.3398 23.8271Z" fill="#F9BB91"/>
<path d="M31.2612 24.1621C31.26 24.3325 31.2127 24.5372 31.1319 24.7741C30.0092 27.9823 26.2804 28.97 24.7341 29.2412L24.8461 26.1537L31.2612 24.1621Z" fill="black"/>
<path d="M22.2685 12.163C22.2685 12.163 19.6786 20.198 21.3244 24.4005C22.9701 28.603 26.8414 27.5269 29.1141 26.4545C31.3875 25.3821 32.336 23.8264 32.336 23.8264C32.336 23.8264 34.6124 24.352 35.88 22.1568C37.147 19.9616 36.0044 17.7011 34.6933 17.288C33.3822 16.8756 31.9783 17.9331 31.9783 17.9331L32.9256 15.5787C32.9256 15.5787 26.8544 4.70592 22.2685 12.163Z" fill="#F9BB91"/>
<path d="M32.4742 21.3189C32.3865 21.3189 32.2995 21.2822 32.2379 21.2101C32.1259 21.0795 32.1415 20.8835 32.2721 20.7716L34.89 18.5306C35.0213 18.4199 35.2172 18.4335 35.3285 18.5648C35.4405 18.6954 35.425 18.8913 35.2943 19.0033L32.6764 21.2443C32.6173 21.2947 32.5458 21.3189 32.4742 21.3189Z" fill="black"/>
<path d="M35.0118 21.0714C34.9944 21.0714 34.977 21.0701 34.9596 21.067L33.083 20.7498C32.9132 20.7212 32.7994 20.5607 32.828 20.3909C32.8566 20.2211 33.0208 20.1129 33.1863 20.1359L35.0628 20.4531C35.232 20.4817 35.3464 20.6422 35.3178 20.812C35.2923 20.9638 35.1604 21.0714 35.0118 21.0714Z" fill="black"/>
<path d="M27.7117 15.0547C27.6277 15.0547 27.5437 15.0205 27.4822 14.954C26.6605 14.0565 25.8065 14.559 25.7126 14.6194C25.5696 14.7102 25.3761 14.6704 25.2834 14.5261C25.1914 14.3824 25.2306 14.1914 25.3736 14.0981C25.8426 13.7915 26.9815 13.4855 27.9418 14.5335C28.0581 14.6604 28.0488 14.8569 27.9225 14.9726C27.8628 15.028 27.7876 15.0547 27.7117 15.0547Z" fill="black"/>
<path d="M21.6833 15.2718C21.6025 15.2718 21.5216 15.2407 21.4613 15.1785C21.3412 15.056 21.3431 14.8588 21.4663 14.7388C22.3258 13.8979 22.9926 14.1112 23.0648 14.1392C23.2259 14.1995 23.308 14.3787 23.2476 14.5391C23.1885 14.6971 23.0144 14.7786 22.8564 14.7251C22.8278 14.717 22.4608 14.6349 21.901 15.1835C21.8401 15.242 21.7617 15.2718 21.6833 15.2718Z" fill="black"/>
<path d="M23.1005 21.5994C22.9594 21.5994 22.8319 21.503 22.7983 21.36C22.1632 18.6792 23.735 17.3774 23.8022 17.3233C23.9365 17.2163 24.1312 17.2368 24.2394 17.3706C24.347 17.5037 24.3265 17.699 24.1934 17.8066C24.1387 17.8514 22.8623 18.9324 23.4028 21.2163C23.4427 21.3836 23.3388 21.5509 23.1721 21.5907C23.1478 21.5963 23.1248 21.5994 23.1005 21.5994Z" fill="black"/>
<path d="M21.9629 18.2421C21.9442 18.2421 21.925 18.2409 21.9063 18.2372C21.7371 18.2061 21.6251 18.0437 21.6562 17.8752L21.8976 16.5628L21.5126 16.0814C21.4056 15.947 21.4267 15.7517 21.5611 15.6441C21.6967 15.5371 21.8907 15.5589 21.9984 15.6926L22.4723 16.2847C22.5289 16.355 22.5513 16.4465 22.5357 16.5354L22.2689 17.9877C22.2403 18.137 22.1097 18.2421 21.9629 18.2421Z" fill="black"/>
<path d="M25.8596 23.7739C25.2886 23.7739 24.7885 23.3516 24.763 23.3298C24.6903 23.2664 24.6498 23.1731 24.6554 23.0767C24.661 22.9802 24.7108 22.8913 24.791 22.8372L26.731 21.5161C26.8305 21.4477 26.9605 21.4439 27.065 21.5055C27.1689 21.5677 27.228 21.684 27.2149 21.8041C27.1079 22.8496 26.7845 23.4878 26.2521 23.6999C26.1208 23.7521 25.9883 23.7739 25.8596 23.7739ZM25.538 23.0804C25.696 23.1457 25.8745 23.1818 26.0226 23.1221C26.2116 23.0456 26.364 22.8123 26.4691 22.4466L25.538 23.0804Z" fill="black"/>
<path d="M26.5109 17.9866C26.4923 17.9866 26.4736 17.9847 26.4543 17.9816C26.2852 17.9505 26.1732 17.7882 26.2043 17.6196L26.4431 16.3203L25.9381 15.7742C25.8212 15.648 25.8292 15.4514 25.9555 15.3345C26.0811 15.2175 26.2789 15.2262 26.3946 15.3519L27.0048 16.0124C27.0707 16.0846 27.0999 16.1835 27.0825 16.2799L26.8157 17.7322C26.7883 17.8815 26.6577 17.9866 26.5109 17.9866Z" fill="black"/>
<path d="M31.9822 17.9346L31.2632 18.7688L31.6227 17.567C31.6227 17.567 29.929 17.5558 27.7117 16.1543C25.4949 14.7528 24.9681 11.349 24.9681 11.349C24.9681 11.349 24.0071 11.7987 22.9572 12.6167C21.9073 13.4347 21.6846 14.3106 21.6846 14.3106C21.6846 14.3106 18.9062 6.61089 24.7361 5.6094C30.5659 4.60853 34.7034 9.55068 34.7034 9.55068C34.7034 9.55068 38.0397 10.0141 38.3737 13.2842C38.7071 16.5543 36.4225 19.0904 36.4225 19.0904C36.4225 19.0904 34.9329 16.3782 31.9822 17.9346Z" fill="black"/>
<path d="M24.6279 32.4064L24.2789 35.1891C24.2789 35.1891 31.9629 31.9716 32.4748 30.5273C32.9873 29.0831 24.9706 31.3353 24.9706 31.3353L24.6279 32.4064Z" fill="#F9BB91"/>
<path d="M24.2766 35.502C24.2144 35.502 24.1534 35.484 24.1012 35.4479C24.0104 35.3857 23.9593 35.2812 23.9662 35.173L24.2629 30.1679C24.2728 29.9968 24.4171 29.8612 24.5913 29.8756C24.763 29.8861 24.8936 30.0329 24.8836 30.204L24.6174 34.6872C26.252 33.9129 31.6265 31.2881 32.6049 29.8407C32.7013 29.6983 32.8954 29.6616 33.0366 29.7574C33.179 29.8532 33.2163 30.0466 33.1199 30.189C31.8722 32.0351 24.7101 35.3335 24.4053 35.4728C24.3643 35.4927 24.3207 35.502 24.2766 35.502Z" fill="white"/>
<path d="M49.4574 39.4168C48.4622 39.8273 47.0503 40.3622 45.3336 40.9096C41.4525 42.1597 36.0163 43.4721 30.3936 43.4721C29.8213 43.4721 29.2491 43.4535 28.6707 43.4286C22.5939 43.1238 17.4874 41.4507 14.0603 39.9579C13.0029 39.5039 12.1072 39.0623 11.392 38.6829C11.6283 38.0982 11.8833 37.5197 12.1508 36.96C12.7106 37.2585 13.401 37.6006 14.2033 37.9614C17.475 39.4417 22.6374 41.2579 28.764 41.5626C34.847 41.8612 41.0108 40.3373 45.1719 38.9814C46.5092 38.546 47.6412 38.1293 48.4933 37.7872C48.8167 38.2972 49.1402 38.8446 49.4574 39.4168Z" fill="#C8C84B"/>
<path d="M52.1764 46.1246C50.7769 46.7092 48.4258 47.6422 45.5647 48.569C40.8687 50.0928 34.7981 51.6167 29.2749 51.6167C28.8022 51.6167 28.3357 51.6043 27.8754 51.5856C22.3211 51.3057 17.3888 49.6637 13.7937 48.0652C11.8905 47.2131 10.3666 46.3734 9.32788 45.7514C9.4585 45.1294 9.60156 44.4825 9.76328 43.8232C10.6092 44.3395 12.0086 45.1481 13.8311 46.0002C17.3204 47.636 22.3522 49.4398 27.9687 49.7196C33.7408 50.012 40.5328 48.2642 45.5522 46.5911C48.2081 45.7141 50.3664 44.8557 51.6166 44.3333C51.8218 44.9117 52.0084 45.5026 52.1764 46.1246Z" fill="#C8C84B"/>
<path d="M15.8707 42.5358L14.4837 53.8073C14.2909 53.6953 14.0981 53.5709 13.9053 53.4465L15.255 42.4612C15.2736 42.287 15.4354 42.1688 15.5971 42.1875C15.7712 42.2124 15.8894 42.3679 15.8707 42.5358Z" fill="#46467F"/>
<path d="M43.0425 54.6512C42.8559 54.7507 42.6693 54.844 42.4765 54.9373L41.276 51.0748C41.2201 50.913 41.3134 50.7389 41.4813 50.6891C41.643 50.6331 41.8172 50.7264 41.8669 50.8944L43.0425 54.6512Z" fill="#46467F"/>
</svg>
