<svg width="42" height="42" viewBox="0 0 42 42" fill="none" xmlns="http://www.w3.org/2000/svg">
<rect y="-0.000732422" width="42" height="42.0013" rx="21" fill="#FFF8EC"/>
<path d="M21 33.9992C13.8317 33.9992 8 28.1675 8 20.9992C8 13.8309 13.8317 7.99927 21 7.99927C28.1683 7.99927 34 13.8309 34 20.9992C34 28.1675 28.1682 33.9992 21 33.9992Z" fill="#FF3838"/>
<path d="M33.9964 21.2678L27.4604 14.7998L14.7178 28.0022L20.6287 33.9953C20.7519 33.9987 20.8754 34.0007 20.9994 34.0007C28.0784 34.0007 33.8537 28.3133 33.9964 21.2678Z" fill="#CC1B35"/>
<path d="M27.7644 15.0349C27.0345 14.2434 26.3727 13.7093 25.5812 14.4381L13.749 25.3463C12.9573 26.0762 13.4509 26.7728 14.1806 27.5646C14.9105 28.3566 15.6005 28.9436 16.3924 28.2135L28.2242 17.3057C29.0164 16.5758 28.4944 15.8264 27.7644 15.0349Z" fill="white"/>
<path d="M14.2008 15.0349C14.9307 14.2434 15.5925 13.7093 16.384 14.4381L28.2162 25.3463C29.0079 26.0762 28.5143 26.7728 27.7846 27.5646C27.0547 28.3566 26.3647 28.9436 25.5728 28.2135L13.7409 17.3057C12.9489 16.5758 13.4709 15.8264 14.2008 15.0349Z" fill="white"/>
</svg>
