<svg width="40" height="40" viewBox="0 0 40 40" fill="none" xmlns="http://www.w3.org/2000/svg">
<rect y="0.812256" width="40" height="38.3756" rx="19.1878" fill="#FFF8EC"/>
<path d="M29.1006 31.1878H10.8993C8.69843 31.1878 7.30235 28.8292 8.36117 26.8998L17.4618 10.3148C18.5611 8.3114 21.4391 8.3114 22.5383 10.3148L31.639 26.8998C32.6975 28.8292 31.3015 31.1878 29.1006 31.1878Z" fill="#F3C10A"/>
<path d="M31.6387 26.8996L25.4953 15.7036C23.4817 19.6752 19.0504 24.3899 9.32611 25.141L8.36117 26.8996C7.30235 28.829 8.69843 31.1877 10.8993 31.1877H29.1003C31.3015 31.1877 32.6975 28.829 31.6387 26.8996Z" fill="#FF9D00"/>
<path d="M21.7422 24.0242H18.2586L17.4805 14.1765H22.5203L21.7422 24.0242Z" fill="white"/>
<path d="M21.7422 25.8959H18.2588V28.5695H21.7422V25.8959Z" fill="white"/>
</svg>
