<svg width="160" height="161" viewBox="0 0 160 161" fill="none" xmlns="http://www.w3.org/2000/svg">
<circle cx="80" cy="80.2378" r="80" fill="#DBFFF5"/>
<mask id="mask0_17066_24879" style="mask-type:alpha" maskUnits="userSpaceOnUse" x="0" y="0" width="160" height="161">
<circle cx="80" cy="80.2378" r="80" fill="#D9D9D9"/>
</mask>
<g mask="url(#mask0_17066_24879)">
<path fill-rule="evenodd" clip-rule="evenodd" d="M184.231 67.5083C184.737 71.6035 185 75.7754 185 80.0093C185 92.0793 134.882 166.648 131 177.356H37.5C33.7998 167.15 -11.8113 93.1616 -12 81.7029C-12 81.7029 -9.49427 113.653 14.919 106.717C39.3319 99.7806 34.6118 64.1396 60.6043 45.015C86.5968 25.8907 104.655 45.6299 112.572 70.7359C120.488 95.842 142.838 107.15 162.255 100.214C179.507 94.0506 183.852 79.5244 184.231 67.5083Z" fill="#D0FAEE"/>
<path fill-rule="evenodd" clip-rule="evenodd" d="M184.231 67.5083C184.737 71.6035 185 75.7754 185 80.0093C185 92.0793 134.882 166.648 131 177.356H37.5C33.7998 167.15 -11.8113 93.1616 -12 81.7029C-12 81.7029 -9.49427 113.653 14.919 106.717C39.3319 99.7806 34.6118 64.1396 60.6043 45.015C86.5968 25.8907 104.655 45.6299 112.572 70.7359C120.488 95.842 142.838 107.15 162.255 100.214C179.507 94.0506 183.852 79.5244 184.231 67.5083Z" fill="#D0FAEE"/>
<path fill-rule="evenodd" clip-rule="evenodd" d="M184.231 126.508C184.737 130.603 185 134.775 185 139.009C185 151.079 134.882 225.648 131 236.356H37.5C33.7998 226.15 -11.8113 152.162 -12 140.703C-12 140.703 -9.49427 172.653 14.919 165.717C39.3319 158.781 34.6118 123.14 60.6043 104.015C86.5968 84.8907 104.655 104.63 112.572 129.736C120.488 154.842 142.838 166.15 162.255 159.214C179.507 153.051 183.852 138.524 184.231 126.508Z" fill="#DBFFF5"/>
<path d="M67.114 28.2378V33.2204C67.114 30.4684 64.8834 28.2378 62.1313 28.2378H67.114Z" fill="white"/>
<path d="M110.271 67.6195C110.271 67.6195 114.714 64.9074 114.392 59.2211C114.071 53.5348 109.1 55.0667 109.1 55.0667L110.271 67.6195Z" fill="#FFB1D0"/>
<path d="M41.8518 109.092C46.4151 88.1139 49.4914 82.6713 50.6746 78.6485C51.8578 74.6257 61.7965 51.2091 66.056 51.7955C70.3154 52.3819 69.6055 55.8951 67.9491 62.7757C66.2926 69.6563 62.53 78.6485 62.53 78.6485L62.9641 96.2538L41.8518 109.092Z" fill="#FFB1D0"/>
<path d="M42.3228 107.421L62.7374 87.072L62.5297 78.6482C62.5297 78.6482 63.8344 75.5297 65.2455 71.5608L62.5297 54.489C62.5297 54.489 60.9278 76.1221 60.2323 80.9552L52.6651 84.5583C52.6651 84.5583 47.5724 90.4346 45.1242 96.1211C44.3341 98.662 43.3034 103.537 42.3228 107.421Z" fill="#FE7592"/>
<path d="M110.665 98.9246C110.665 98.9246 114.971 94.2181 116.406 89.3665C117.841 84.515 118.508 82.5921 115.688 80.4384C113.982 79.1348 107.974 90.435 107.974 90.435V101.557L110.665 98.9246Z" fill="#FFB1D0"/>
<path d="M109.959 71.5993C109.959 71.5993 113.817 70.1219 115.252 73.1126C116.688 76.1033 116.547 78.6142 113.536 82.5927C110.524 86.5712 107.974 90.4356 107.974 90.4356L109.959 71.5993Z" fill="#FFB1D0"/>
<path d="M114.392 80.8344C114.392 80.8344 111.299 83.5299 111.042 87.2584C110.785 90.9868 112.055 97.242 112.055 97.242L106.151 104.245L108.596 72.4748L109.959 71.5986C109.959 71.5986 110.141 81.0079 110.913 81.3633C111.686 81.7187 114.392 80.8344 114.392 80.8344Z" fill="#FE7592"/>
<path d="M62.033 135.678L70.0786 140.884C70.0786 140.884 83.3302 135.678 88.5362 129.289C93.7421 122.9 104.391 107.755 104.391 107.755L69.8419 87.8301L60.2324 88.6887L55.8804 111.541L62.033 135.678Z" fill="#FFB1D0"/>
<path d="M104.233 107.664L73.9198 90.1821L63.1455 93.5851L58.6738 96.8716L57.2083 104.567L59.5128 114.357L65.9187 126.202C65.9187 126.202 68.4086 124.598 69.2432 122.408L95.9011 119.585C99.5278 114.629 102.984 109.749 104.053 108.234L104.233 107.664Z" fill="#FE7592"/>
<path d="M40.9331 129.762L25.5525 157.085H64.6377L70.0783 140.884L62.5296 129.762H40.9331Z" fill="#FFB1D0"/>
<path d="M71.1332 17.9578V38.7777H59.9287V17.9578C59.9287 16.4111 60.5561 15.0104 61.5696 13.9969C62.5832 12.9825 63.9846 12.356 65.5313 12.356C68.6255 12.3559 71.1332 14.8637 71.1332 17.9578Z" fill="#ABC2FE"/>
<path d="M59.9289 25.6641V33.1768C59.9289 34.7235 59.3016 36.1241 58.288 37.1377C57.2744 38.1521 55.873 38.7786 54.3263 38.7786C51.2322 38.7786 48.7244 36.2708 48.7244 33.1767V25.6641L59.9289 25.6641Z" fill="white"/>
<path d="M62.515 30.5894V38.7775H54.3262C55.8729 38.7775 57.2742 38.1509 58.2878 37.1366C59.3015 36.1229 59.9288 34.7223 59.9288 33.1756V30.5894H62.515Z" fill="#ABC2FE"/>
<path d="M106.431 118.965H66.2658C64.1929 118.965 62.5125 117.284 62.5125 115.211V30.7064C62.5125 28.6336 64.1929 26.9531 66.2658 26.9531H106.431C108.504 26.9531 110.184 28.6336 110.184 30.7064V115.211C110.184 117.284 108.504 118.965 106.431 118.965Z" stroke="#231F20" stroke-width="1.2386" stroke-miterlimit="10"/>
<path d="M64.6318 112.607V33.3095C64.6318 32.7243 65.1062 32.25 65.6913 32.25H107.006C107.592 32.25 108.066 32.7243 108.066 33.3095V112.607C108.066 113.192 107.592 113.667 107.006 113.667H65.6913C65.1062 113.667 64.6318 113.192 64.6318 112.607Z" stroke="#231F20" stroke-width="1.2386" stroke-miterlimit="10"/>
<path d="M106.431 118.965H66.2658C64.1929 118.965 62.5125 117.284 62.5125 115.211V30.7064C62.5125 28.6336 64.1929 26.9531 66.2658 26.9531H106.431C108.504 26.9531 110.184 28.6336 110.184 30.7064V115.211C110.184 117.284 108.504 118.965 106.431 118.965Z" fill="url(#paint0_linear_17066_24879)"/>
<path d="M64.6318 112.607V33.3095C64.6318 32.7243 65.1062 32.25 65.6913 32.25H107.006C107.592 32.25 108.066 32.7243 108.066 33.3095V112.607C108.066 113.192 107.592 113.667 107.006 113.667H65.6913C65.1062 113.667 64.6318 113.192 64.6318 112.607Z" fill="#D6E3FF"/>
<path d="M86.0748 30.653C86.7312 30.653 87.2633 30.1208 87.2633 29.4644C87.2633 28.808 86.7312 28.2759 86.0748 28.2759C85.4183 28.2759 84.8862 28.808 84.8862 29.4644C84.8862 30.1208 85.4183 30.653 86.0748 30.653Z" stroke="#231F20" stroke-width="1.2386" stroke-miterlimit="10"/>
<path d="M86.0748 30.653C86.7312 30.653 87.2633 30.1208 87.2633 29.4644C87.2633 28.808 86.7312 28.2759 86.0748 28.2759C85.4183 28.2759 84.8862 28.808 84.8862 29.4644C84.8862 30.1208 85.4183 30.653 86.0748 30.653Z" fill="#221473"/>
<path opacity="0.2" d="M110.185 30.7063C110.185 28.9834 109.024 27.5327 107.441 27.0916L72.0566 117.881L87.877 118.631L110.185 48.2897L110.185 30.7063Z" fill="white"/>
<path opacity="0.2" d="M99.3304 26.9531H95.8983L95.8119 27.0823L62.5125 112.521V115.211C62.5125 116.401 63.0669 117.461 63.9309 118.149L70.2561 118.631L99.3304 26.9531Z" fill="white"/>
<path d="M101.472 106.879H71.2259C68.3482 106.879 66.0154 104.546 66.0154 101.669C66.0154 98.7911 68.3482 96.4583 71.2259 96.4583H101.472C104.35 96.4583 106.682 98.7911 106.682 101.669C106.682 104.546 104.35 106.879 101.472 106.879Z" fill="#FEAB00"/>
<path d="M77.9096 103.356V98.4207H80.1706C80.6979 98.4207 81.1039 98.535 81.3886 98.7637C81.6779 98.9924 81.8226 99.305 81.8226 99.7017C81.8226 99.963 81.7573 100.189 81.6266 100.381C81.4959 100.567 81.3139 100.707 81.0806 100.801C81.3606 100.88 81.5753 101.02 81.7246 101.221C81.8786 101.421 81.9556 101.669 81.9556 101.963C81.9556 102.401 81.8016 102.744 81.4936 102.992C81.1903 103.234 80.7749 103.356 80.2476 103.356H77.9096ZM78.9456 100.451H79.9816C80.5136 100.451 80.7796 100.245 80.7796 99.8347C80.7796 99.4287 80.5136 99.2257 79.9816 99.2257H78.9456V100.451ZM78.9456 102.551H80.1006C80.3806 102.551 80.5859 102.497 80.7166 102.39C80.8473 102.282 80.9126 102.119 80.9126 101.9C80.9126 101.685 80.8473 101.524 80.7166 101.417C80.5859 101.309 80.3806 101.256 80.1006 101.256H78.9456V102.551ZM83.8478 103.433C83.5911 103.433 83.3648 103.384 83.1688 103.286C82.9728 103.188 82.8165 103.055 82.6998 102.887C82.5878 102.719 82.5318 102.53 82.5318 102.32C82.5318 102.072 82.5971 101.874 82.7278 101.725C82.8585 101.575 83.0708 101.47 83.3648 101.41C83.6588 101.344 84.0485 101.312 84.5338 101.312H84.7858V101.193C84.7858 100.987 84.7391 100.843 84.6458 100.759C84.5525 100.67 84.3938 100.626 84.1698 100.626C83.9831 100.626 83.7848 100.656 83.5748 100.717C83.3695 100.773 83.1641 100.859 82.9588 100.976L82.6718 100.269C82.7931 100.189 82.9401 100.117 83.1128 100.052C83.2901 99.9864 83.4745 99.9374 83.6658 99.9047C83.8571 99.8674 84.0391 99.8487 84.2118 99.8487C84.7438 99.8487 85.1405 99.97 85.4018 100.213C85.6631 100.451 85.7938 100.822 85.7938 101.326V103.356H84.8068V102.838C84.7368 103.02 84.6178 103.164 84.4498 103.272C84.2865 103.379 84.0858 103.433 83.8478 103.433ZM84.0858 102.726C84.2818 102.726 84.4475 102.658 84.5828 102.523C84.7181 102.387 84.7858 102.212 84.7858 101.998V101.858H84.5408C84.1815 101.858 83.9271 101.89 83.7778 101.956C83.6285 102.016 83.5538 102.124 83.5538 102.278C83.5538 102.408 83.5981 102.516 83.6868 102.6C83.7801 102.684 83.9131 102.726 84.0858 102.726ZM86.8141 104.616L87.4721 103.167L86.0581 99.9187H87.1711L88.0321 102.103L88.9211 99.9187H89.9711L87.8921 104.616H86.8141ZM91.3742 103.433C91.1175 103.433 90.8912 103.384 90.6952 103.286C90.4992 103.188 90.3428 103.055 90.2262 102.887C90.1142 102.719 90.0582 102.53 90.0582 102.32C90.0582 102.072 90.1235 101.874 90.2542 101.725C90.3848 101.575 90.5972 101.47 90.8912 101.41C91.1852 101.344 91.5748 101.312 92.0602 101.312H92.3122V101.193C92.3122 100.987 92.2655 100.843 92.1722 100.759C92.0788 100.67 91.9202 100.626 91.6962 100.626C91.5095 100.626 91.3112 100.656 91.1012 100.717C90.8958 100.773 90.6905 100.859 90.4852 100.976L90.1982 100.269C90.3195 100.189 90.4665 100.117 90.6392 100.052C90.8165 99.9864 91.0008 99.9374 91.1922 99.9047C91.3835 99.8674 91.5655 99.8487 91.7382 99.8487C92.2702 99.8487 92.6668 99.97 92.9282 100.213C93.1895 100.451 93.3202 100.822 93.3202 101.326V103.356H92.3332V102.838C92.2632 103.02 92.1442 103.164 91.9762 103.272C91.8128 103.379 91.6122 103.433 91.3742 103.433ZM91.6122 102.726C91.8082 102.726 91.9738 102.658 92.1092 102.523C92.2445 102.387 92.3122 102.212 92.3122 101.998V101.858H92.0672C91.7078 101.858 91.4535 101.89 91.3042 101.956C91.1548 102.016 91.0802 102.124 91.0802 102.278C91.0802 102.408 91.1245 102.516 91.2132 102.6C91.3065 102.684 91.4395 102.726 91.6122 102.726ZM94.1086 103.356V99.9187H95.1446V100.514C95.308 100.112 95.658 99.8907 96.1946 99.8487L96.5026 99.8277L96.5656 100.717L95.9706 100.78C95.448 100.831 95.1866 101.097 95.1866 101.578V103.356H94.1086Z" fill="white"/>
<path d="M94.3706 77.3041C98.802 72.8726 98.802 65.6879 94.3706 61.2565C89.9392 56.8251 82.7545 56.8251 78.3231 61.2565C73.8917 65.6879 73.8917 72.8726 78.3231 77.304C82.7545 81.7355 89.9392 81.7355 94.3706 77.3041Z" fill="white"/>
<path d="M86.3488 71.3143C89.2614 71.3143 91.6226 68.9531 91.6226 66.0404C91.6226 63.1278 89.2614 60.7666 86.3488 60.7666C83.4361 60.7666 81.075 63.1278 81.075 66.0404C81.075 68.9531 83.4361 71.3143 86.3488 71.3143Z" fill="#00BA88"/>
<path d="M86.3487 80.6267C89.1756 80.6267 91.7607 79.5928 93.7473 77.8828C92.6326 74.8784 89.741 72.7371 86.3487 72.7371C82.9565 72.7371 80.0648 74.8784 78.9502 77.8828C80.9368 79.5928 83.522 80.6267 86.3487 80.6267Z" fill="#00BA88"/>
<path d="M92.6378 84.2421H80.0603C79.661 84.2421 79.3374 83.9185 79.3374 83.5193C79.3374 83.12 79.661 82.7964 80.0603 82.7964H92.6378C93.037 82.7964 93.3607 83.12 93.3607 83.5193C93.3607 83.9185 93.037 84.2421 92.6378 84.2421Z" fill="white"/>
<path d="M90.134 87.2944H82.5632C82.164 87.2944 81.8403 86.9707 81.8403 86.5715C81.8403 86.1723 82.164 85.8486 82.5632 85.8486H90.134C90.5332 85.8486 90.8569 86.1723 90.8569 86.5715C90.8569 86.9707 90.5332 87.2944 90.134 87.2944Z" fill="white"/>
<path d="M66.584 49.8454C66.584 47.7826 68.2562 46.1104 70.319 46.1104H102.947C105.01 46.1104 106.682 47.7825 106.682 49.8454C106.682 51.9081 105.01 53.5804 102.947 53.5804H70.3189C68.2562 53.5804 66.584 51.9082 66.584 49.8454Z" fill="#708FFF"/>
<path d="M102.948 52.086H70.3188C69.084 52.086 68.0789 51.0809 68.0789 49.8455C68.0789 48.6101 69.084 47.6057 70.3188 47.6057H102.948C104.183 47.6057 105.187 48.6102 105.187 49.8455C105.187 51.0809 104.183 52.086 102.948 52.086Z" fill="#3955BF"/>
<path d="M71.1332 12.356V17.9579C71.1332 14.8638 68.6254 12.356 65.5312 12.356H71.1332Z" fill="white"/>
<path d="M71.1333 12.356V52.0857H102.133V18.0557C102.133 14.9079 99.5807 12.356 96.4329 12.356H71.1333V12.356Z" fill="white"/>
<path d="M80.8847 30.2346H74.8495C74.5345 30.2346 74.2791 29.9792 74.2791 29.6642C74.2791 29.3491 74.5344 29.0938 74.8495 29.0938H80.8847C81.1997 29.0938 81.4551 29.3491 81.4551 29.6642C81.455 29.9792 81.1996 30.2346 80.8847 30.2346Z" fill="#7FA0FF"/>
<path d="M89.5906 23.4797H83.5555C83.2405 23.4797 82.9851 23.2243 82.9851 22.9093C82.9851 22.5942 83.2405 22.3389 83.5555 22.3389H89.5907C89.9058 22.3389 90.1611 22.5942 90.1611 22.9093C90.1611 23.2243 89.9057 23.4797 89.5906 23.4797Z" fill="#7FA0FF"/>
<path d="M98.2969 30.2346H96.7145C96.3994 30.2346 96.144 29.9792 96.144 29.6642C96.144 29.3491 96.3994 29.0938 96.7145 29.0938H98.2969C98.6119 29.0938 98.8673 29.3491 98.8673 29.6642C98.8673 29.9792 98.6119 30.2346 98.2969 30.2346Z" fill="#7FA0FF"/>
<path d="M78.1246 32.4797H74.8495C74.5345 32.4797 74.2791 32.2243 74.2791 31.9093C74.2791 31.5943 74.5344 31.3389 74.8495 31.3389H78.1246C78.4397 31.3389 78.6951 31.5942 78.6951 31.9093C78.6951 32.2243 78.4397 32.4797 78.1246 32.4797Z" fill="#7FA0FF"/>
<path d="M84.2336 32.4797H80.0016C79.6866 32.4797 79.4312 32.2243 79.4312 31.9093C79.4312 31.5943 79.6865 31.3389 80.0016 31.3389H84.2336C84.5486 31.3389 84.804 31.5942 84.804 31.9093C84.804 32.2243 84.5486 32.4797 84.2336 32.4797Z" fill="#7FA0FF"/>
<path d="M98.2969 32.4797H96.7145C96.3994 32.4797 96.144 32.2243 96.144 31.9093C96.144 31.5943 96.3994 31.3389 96.7145 31.3389H98.2969C98.6119 31.3389 98.8673 31.5942 98.8673 31.9093C98.8673 32.2243 98.6119 32.4797 98.2969 32.4797Z" fill="#7FA0FF"/>
<path d="M79.7438 34.7248H74.8495C74.5345 34.7248 74.2791 34.4695 74.2791 34.1544C74.2791 33.8394 74.5344 33.584 74.8495 33.584H79.7438C80.0588 33.584 80.3143 33.8393 80.3143 34.1544C80.3143 34.4695 80.0589 34.7248 79.7438 34.7248Z" fill="#7FA0FF"/>
<path d="M82.7247 34.7248H81.6207C81.3056 34.7248 81.0503 34.4695 81.0503 34.1544C81.0503 33.8394 81.3056 33.584 81.6207 33.584H82.7247C83.0397 33.584 83.2951 33.8393 83.2951 34.1544C83.2951 34.4695 83.0397 34.7248 82.7247 34.7248Z" fill="#7FA0FF"/>
<path d="M98.2969 34.7248H96.7145C96.3994 34.7248 96.144 34.4695 96.144 34.1544C96.144 33.8394 96.3994 33.584 96.7145 33.584H98.2969C98.6119 33.584 98.8673 33.8393 98.8673 34.1544C98.8673 34.4695 98.6119 34.7248 98.2969 34.7248Z" fill="#7FA0FF"/>
<path d="M80.8847 36.9694H74.8495C74.5345 36.9694 74.2791 36.7141 74.2791 36.399C74.2791 36.084 74.5344 35.8286 74.8495 35.8286H80.8847C81.1997 35.8286 81.4551 36.084 81.4551 36.399C81.455 36.7141 81.1996 36.9694 80.8847 36.9694Z" fill="#7FA0FF"/>
<path d="M98.2969 36.9694H96.7145C96.3994 36.9694 96.144 36.7141 96.144 36.399C96.144 36.084 96.3994 35.8286 96.7145 35.8286H98.2969C98.6119 35.8286 98.8673 36.084 98.8673 36.399C98.8673 36.7141 98.6119 36.9694 98.2969 36.9694Z" fill="#7FA0FF"/>
<path d="M78.1246 39.2138H74.8495C74.5345 39.2138 74.2791 38.9585 74.2791 38.6434C74.2791 38.3284 74.5344 38.073 74.8495 38.073H78.1246C78.4397 38.073 78.6951 38.3284 78.6951 38.6434C78.6951 38.9585 78.4397 39.2138 78.1246 39.2138Z" fill="#7FA0FF"/>
<path d="M84.2336 39.2138H80.0016C79.6866 39.2138 79.4312 38.9585 79.4312 38.6434C79.4312 38.3284 79.6865 38.073 80.0016 38.073H84.2336C84.5486 38.073 84.804 38.3284 84.804 38.6434C84.804 38.9585 84.5486 39.2138 84.2336 39.2138Z" fill="#7FA0FF"/>
<path d="M98.2969 39.2138H96.7145C96.3994 39.2138 96.144 38.9585 96.144 38.6434C96.144 38.3284 96.3994 38.073 96.7145 38.073H98.2969C98.6119 38.073 98.8673 38.3284 98.8673 38.6434C98.8673 38.9585 98.6119 39.2138 98.2969 39.2138Z" fill="#7FA0FF"/>
<path d="M79.7438 46.8122H74.8495C74.5345 46.8122 74.2791 46.5569 74.2791 46.2418C74.2791 45.9268 74.5344 45.6714 74.8495 45.6714H79.7438C80.0588 45.6714 80.3143 45.9267 80.3143 46.2418C80.3143 46.5569 80.0589 46.8122 79.7438 46.8122Z" fill="#7FA0FF"/>
<path d="M82.7247 46.8122H81.6207C81.3056 46.8122 81.0503 46.5569 81.0503 46.2418C81.0503 45.9268 81.3056 45.6714 81.6207 45.6714H82.7247C83.0397 45.6714 83.2951 45.9267 83.2951 46.2418C83.2951 46.5569 83.0397 46.8122 82.7247 46.8122Z" fill="#7FA0FF"/>
<path d="M98.9871 46.5984C98.9871 45.7275 98.2978 45.5025 97.7312 45.2785V44.2378C97.8509 44.2691 97.9517 44.3286 98.0347 44.4175C98.1671 44.5591 98.3818 44.5864 98.549 44.4883C98.7806 44.3526 98.8277 44.0365 98.6446 43.8402C98.4031 43.5812 98.0847 43.4331 97.7312 43.3899V43.1137C97.7312 42.9595 97.6062 42.8345 97.452 42.8345C97.2977 42.8345 97.1727 42.9595 97.1727 43.1137V43.3959C96.5764 43.5014 96.0708 43.9179 96.0708 44.6356C96.0708 45.4078 96.628 45.7039 97.1727 45.9221V47.0231C97.0204 46.9785 96.8971 46.8994 96.7985 46.7872C96.6631 46.6332 96.442 46.5889 96.2647 46.6917L96.2348 46.7091C96.0139 46.8371 95.9536 47.134 96.1149 47.3317C96.3609 47.6333 96.7251 47.8261 97.1728 47.8863V48.1824C97.1728 48.3367 97.2978 48.4617 97.4521 48.4617C97.6063 48.4617 97.7313 48.3367 97.7313 48.1824V47.894C98.4526 47.806 98.9871 47.3513 98.9871 46.5984ZM96.9246 44.6418C96.9246 44.4731 97.0117 44.3363 97.1728 44.2622V45.0137C96.9915 44.9 96.9246 44.7896 96.9246 44.6418ZM97.7313 47.04V46.1448C97.985 46.2628 98.1272 46.3873 98.1272 46.6046C98.1272 46.797 98.0096 46.9771 97.7313 47.04Z" fill="#7FA0FF"/>
<path d="M98.8669 41.1877H74.2791V41.4944H98.8669V41.1877Z" fill="#7FA0FF"/>
<path d="M98.8669 26.9395H74.2791V27.2461H98.8669V26.9395Z" fill="#7FA0FF"/>
<path d="M92.1748 16.7349H80.9714C80.1118 16.7349 79.415 17.4317 79.415 18.2913C79.415 19.1509 80.1119 19.8477 80.9714 19.8477H92.1748C93.0345 19.8477 93.7313 19.1508 93.7313 18.2913C93.7313 17.4317 93.0345 16.7349 92.1748 16.7349Z" fill="#7FA0FF"/>
<path d="M40.9332 129.762C40.9332 129.762 39.3158 113.671 43.102 105.389C46.8882 97.1066 51.3842 87.8778 53.2773 85.9847C55.1704 84.0916 61.0863 84.8015 67.2389 84.0916C73.3915 83.3817 79.4563 80.542 79.855 84.8015C80.2539 89.061 74.5746 94.1203 68.4221 94.7852C62.2696 95.4501 61.4715 97.6144 61.4715 97.6144L59.3466 104.679C59.3466 104.679 72.4449 122.427 62.0329 135.678L40.9332 129.762Z" fill="#FFB1D0"/>
<path d="M75.6252 82.592C75.6252 82.592 76.1041 85.5382 74.795 86.4445C73.9797 87.0089 72.2593 87.4076 71.077 87.628C70.3777 87.7585 69.6997 87.3132 69.5473 86.6184C69.3398 85.6726 69.1194 84.4178 69.2435 83.7946L75.6252 82.592Z" fill="#FFD4E5"/>
<path d="M71.9081 162.586C71.6425 159.951 69.5847 145.642 56.0136 142.004C41.0483 137.992 25.4113 142.335 25.4113 142.335L20.1088 145.208C19.4417 145.57 18.8708 146.086 18.4439 146.713L7.64258 162.586H71.9081Z" fill="#FFC31B"/>
<path d="M53.9657 145.884C65.9206 150.634 70.8199 160.447 71.7675 162.586H72.1327L76.1526 153.67C76.1526 153.67 75.7214 144.071 59.4901 134.63C43.2588 125.19 30.2682 132.525 30.2682 132.525L25.4116 142.335C25.4116 142.335 40.5032 140.536 53.9657 145.884Z" fill="white"/>
<path d="M34.7635 135.016C33.0298 134.618 30.3406 139.953 33.0919 140.353C35.8431 140.752 37.4672 135.638 34.7635 135.016Z" fill="#FFC31B"/>
</g>
<defs>
<linearGradient id="paint0_linear_17066_24879" x1="75.2954" y1="127.574" x2="96.4897" y2="22.8493" gradientUnits="userSpaceOnUse">
<stop stop-color="#333366"/>
<stop offset="1" stop-color="#5959B3"/>
</linearGradient>
</defs>
</svg>
