<?xml version="1.0" encoding="UTF-8"?>
<svg width="100px" height="100px" viewBox="0 0 100 100" version="1.1" xmlns="http://www.w3.org/2000/svg" xmlns:xlink="http://www.w3.org/1999/xlink">
    <!-- Generator: sketchtool 64 (101010) - https://sketch.com -->
    <title>605534D6-9902-4A33-995A-8729456C79C6</title>
    <desc>Created with sketchtool.</desc>
    <defs>
        <path d="M65.1358333,0 C65.1358333,0 80.1933333,0 85.5975,1.70833987 C91.4975,3.85584809 96.1441667,8.50253253 98.2916667,14.4025551 C100,19.8059091 100,24.8259283 100,34.8643001 L100,65.1360825 C100,75.1752876 100,80.1936401 98.2916667,85.5978275 C96.1441667,91.4978501 91.4975,96.1445345 85.5975,98.2912094 C80.1933333,100.000383 75.175,100.000383 65.1358333,100.000383 L34.8641667,100.000383 C24.825,100.000383 19.8058333,100.000383 14.4025,98.2912094 C8.5025,96.1445345 3.85583333,91.4978501 1.70833333,85.5978275 C0,80.1936401 0,75.1752876 0,65.1360825 L0,34.8643001 C0,24.8259283 0,19.8059091 1.70833333,14.4025551 C3.85583333,8.50253253 8.5025,3.85584809 14.4025,1.70833987 C19.8058333,0 24.825,0 34.8641667,0 L65.1358333,0 Z" id="path-1"></path>
    </defs>
    <g id="LANDING" stroke="none" stroke-width="1" fill="none" fill-rule="evenodd">
        <g id="0.0B-WEB-LANDING-TH-RESPONSIVE" transform="translate(-110.000000, -1348.000000)">
            <g id="R4-Get-HBO" transform="translate(15.000000, 1308.000000)">
                <g id="ICO/APP-ICON" transform="translate(95.000000, 40.000000)">
                    <g id="Group">
                        <mask id="mask-2" fill="white">
                            <use xlink:href="#path-1"></use>
                        </mask>
                        <use id="Icon-Shape" stroke="#404040" stroke-width="0.5" fill="#000000" xlink:href="#path-1"></use>
                        <g id="Group-11" transform="translate(20.605469, 23.219512)">
                            <g id="Group-3" fill="#FFFFFF">
                                <path d="M48.5032163,17.3927757 C51.1601827,17.3927757 53.4057412,15.2097714 53.4057412,12.4797489 C53.4057412,9.74916321 51.1601827,7.59234594 48.5032163,7.59234594 C45.7644202,7.59234594 43.5742309,9.74916321 43.5742309,12.4797489 C43.5742309,15.2097714 45.7644202,17.3927757 48.5032163,17.3927757 L48.5032163,17.3927757 Z M42.2595899,12.4797489 C42.2595899,9.03976659 45.0526252,6.2545542 48.5032163,6.2545542 C51.9539015,6.2545542 54.7480667,9.03976659 54.7480667,12.4797489 C54.7480667,15.94742 51.9539015,18.7302859 48.5032163,18.7302859 C45.0526252,18.7302859 42.2595899,15.94742 42.2595899,12.4797489 L42.2595899,12.4797489 Z M33.4957251,12.4797489 C34.2900089,12.4251221 35.5764003,11.5241565 36.0695437,10.9778892 C35.8786707,11.6329407 35.8786707,13.7084749 36.0695437,14.3639018 C35.5215961,13.5715326 34.2900089,12.6166911 33.4957251,12.4797489 L33.4957251,12.4797489 Z M29.0038548,5.89985589 C29.9903298,5.89985589 30.7846137,6.85666842 30.7846137,7.94732584 C30.7846137,9.03976659 29.9903298,9.99582825 29.0038548,9.99582825 L25.6080679,9.99582825 L25.6080679,5.89985589 L29.0038548,5.89985589 Z M29.0038548,15.1009872 C29.9903298,15.1009872 30.7846137,16.0566734 30.7846137,17.148551 C30.7846137,18.2931781 29.9903298,19.2487705 29.0038548,19.2487705 L25.6080679,19.2487705 L25.6080679,15.1009872 L29.0038548,15.1009872 Z M48.5032163,25.064077 C55.3509126,25.064077 60.937548,19.3874022 60.937548,12.4797489 C60.937548,5.46274818 55.3509126,0.0317060304 48.5032163,0.0317060304 C41.5742553,0.0317060304 38.0687659,5.05530035 37.2204312,7.10098695 C37.2204312,4.07192533 34.1804006,0.440561769 30.6472266,0.440561769 L19.2264895,0.440561769 L19.2264895,24.9547296 L29.8523778,24.9547296 C34.1804006,24.9547296 37.2204312,21.2698657 37.2204312,18.0495166 C38.1778092,20.0411397 41.5742553,25.064077 48.5032163,25.064077 L48.5032163,25.064077 Z M17.8564794,24.9547296 L11.1750788,24.9547296 L11.1750788,15.4553101 L6.84771517,15.4553101 L6.84771517,24.9547296 L1.88330482e-05,24.9547296 L1.88330482e-05,0.440561769 L6.84771517,0.440561769 L6.84771517,9.58528302 L11.1750788,9.58528302 L11.1750788,0.440561769 L17.8564794,0.440561769 L17.8564794,24.9547296 Z" id="Fill-1"></path>
                            </g>
                            <g id="Group-6" transform="translate(5.761719, 28.292683)">
                                <path d="M36.8604106,18.8937088 C33.4447571,18.8937088 30.6742004,16.104125 30.6742004,12.6613468 C30.6742004,9.21800292 33.4447571,6.4282305 36.8604106,6.4282305 C40.2774679,6.4282305 43.0460592,9.21800292 43.0460592,12.6613468 C43.0460592,16.104125 40.2774679,18.8937088 36.8604106,18.8937088 M36.8592875,0.0390528752 C30.4391093,0.0390528752 25.1502136,4.90618498 24.421169,11.1785288 L11.2564392,11.1785288 L11.2564392,16.0727241 L18.3288269,16.0727241 C17.7572896,18.449382 15.7577983,19.9244677 13.0752136,19.9244677 C8.90131632,19.9244677 6.14872843,16.9345031 6.14872843,12.471433 C6.14872843,8.6220468 8.93425903,5.74127792 12.6478943,5.74127792 C14.8995097,5.74127792 16.7950256,6.85831845 17.864447,8.87532815 L24.6856466,8.87532815 C23.3299418,3.94313121 18.2577006,0.344763275 12.8298279,0.344763275 C5.61425171,0.344763275 0.0769755046,5.74127792 0.0769755046,12.7239599 C0.0769755046,19.742852 5.61425171,25.2843009 12.6857035,25.2843009 C18.5690653,25.2843009 23.2989644,21.6364271 24.8736633,16.3385469 C26.436851,21.5157271 31.2106425,25.2843009 36.8592875,25.2843009 C43.7785665,25.2843009 49.3872498,19.6330904 49.3872498,12.6613468 C49.3872498,5.68950895 43.7785665,0.0390528752 36.8592875,0.0390528752" id="Fill-4" fill="#FFFFFF"></path>
                                <path d="M36.8394845,17.5846987 C39.480142,17.5846987 41.7119169,15.3914482 41.7119169,12.6487299 C41.7119169,9.90544584 39.480142,7.73869273 36.8394845,7.73869273 C34.1174996,7.73869273 31.940754,9.90544584 31.940754,12.6487299 C31.940754,15.3914482 34.1174996,17.5846987 36.8394845,17.5846987" id="Fill-7" fill="#00B3FC"></path>
                                <path d="M48.4425708,0.937060673 C48.557028,0.937060673 48.618234,0.87539053 48.618234,0.789768987 L48.618234,0.784394067 C48.618234,0.68509948 48.5490731,0.634273475 48.4371427,0.634273475 L48.2165576,0.634273475 L48.2165576,0.937060673 L48.4425708,0.937060673 Z M47.9902637,0.433232583 L48.4451912,0.433232583 C48.5835132,0.433232583 48.6900155,0.473403043 48.7617033,0.545823027 C48.8175749,0.602118248 48.8468677,0.679818856 48.8468677,0.770909617 L48.8468677,0.776284537 C48.8468677,0.942435594 48.7564624,1.04691651 48.626189,1.09529079 L48.8761605,1.46512305 L48.612806,1.46512305 L48.3947477,1.13282094 L48.3894132,1.13282094 L48.2165576,1.13282094 L48.2165576,1.46512305 L47.9902637,1.46512305 L47.9902637,0.433232583 Z M49.2379688,0.977419726 L49.2379688,0.971950509 C49.2379688,0.497543038 48.87354,0.114226327 48.3894132,0.114226327 C47.9024788,0.114226327 47.5356169,0.502917958 47.5356169,0.977419726 L47.5356169,0.982606053 C47.5356169,1.45710782 47.899952,1.84033023 48.3839852,1.84033023 C48.870826,1.84033023 49.2379688,1.4516386 49.2379688,0.977419726 L49.2379688,0.977419726 Z M47.4236865,0.982606053 L47.4236865,0.977419726 C47.4236865,0.449357345 47.8493213,0.00719939802 48.3894132,0.00719939802 C48.9294116,0.00719939802 49.3496183,0.444076721 49.3496183,0.971950509 L49.3496183,0.977419726 C49.3496183,1.50538781 48.9240771,1.94754576 48.3839852,1.94754576 C47.8440804,1.94754576 47.4236865,1.51066843 47.4236865,0.982606053 L47.4236865,0.982606053 Z" id="Fill-9" fill="#FFFFFF"></path>
                            </g>
                        </g>
                    </g>
                </g>
            </g>
        </g>
    </g>
</svg>