<svg width="136" height="106" viewBox="0 0 136 106" fill="none" xmlns="http://www.w3.org/2000/svg">
<path d="M17.6359 78.239L16.9366 75.4875C15.6967 74.9632 14.4281 74.5092 13.1369 74.1275L13.0487 75.4062L12.6906 73.9974C11.0893 73.5413 10 73.3403 10 73.3403C10 73.3403 11.4715 78.9226 14.5577 83.1903L18.1539 83.8205L15.3601 84.2223C15.7485 84.6884 16.1659 85.1297 16.6098 85.5435C21.0995 89.701 26.1002 91.6085 27.7791 89.804C29.458 87.9995 27.1795 83.1664 22.6898 79.0089C21.298 77.72 19.5495 76.6857 17.7994 75.8717L17.6359 78.239Z" fill="#E6E6E6"/>
<path d="M24.2866 75.2516L25.1137 72.5356C24.3239 71.4474 23.4732 70.4045 22.5656 69.412L21.8275 70.4611L22.2509 69.0705C21.1165 67.8542 20.2881 67.1205 20.2881 67.1205C20.2881 67.1205 18.6554 72.6579 19.0862 77.9028L21.8382 80.2968L19.2383 79.2001C19.3293 79.7994 19.458 80.3924 19.6236 80.9755C21.3128 86.8498 24.6053 91.0614 26.9775 90.3824C29.3497 89.7035 29.9034 84.3911 28.2141 78.5169C27.6904 76.6958 26.7296 74.9088 25.6531 73.3094L24.2866 75.2516Z" fill="#E6E6E6"/>
<path d="M28.4068 60.4374C28.4068 60.4374 27.5001 71.3143 27.3054 73.645C27.1719 75.106 26.8446 76.5429 26.332 77.918C26.332 77.918 25.9426 78.6949 25.9426 79.4718V89.3773C25.9426 89.3773 25.1638 89.3773 25.3585 90.1542C25.5532 90.9311 25.7479 92.2907 25.7479 92.2907H28.6682C28.6682 92.2907 28.4735 91.708 29.0576 91.5138C29.6416 91.3196 29.0576 89.7658 29.0576 89.7658L32.1726 78.1122L36.8451 68.4009C36.8451 68.4009 39.5707 77.1411 40.1548 78.1122C40.1548 78.1122 42.2964 88.9889 42.6857 89.96C43.0751 90.9311 43.2698 90.9311 43.0751 91.3196C42.8804 91.708 42.8804 92.0965 43.0751 92.2907C43.2698 92.4849 46.9689 92.2907 46.9689 92.2907L45.9954 78.5006L44.2432 61.9914L35.2876 59.2722L28.4068 60.4374Z" fill="#532525"/>
<path d="M27.8894 90.737C27.8894 90.737 26.916 87.241 25.3585 89.9601C23.801 92.6793 23.801 93.6504 23.801 93.6504C23.801 93.6504 21.27 97.3407 24.7744 96.9523C28.2788 96.5638 27.5 94.8158 27.5 94.8158C27.5 94.8158 28.8629 94.0389 28.8629 93.4562C28.8629 92.8735 27.8894 90.737 27.8894 90.737Z" fill="#532525"/>
<path d="M43.6592 90.3487C43.6592 90.3487 44.6327 86.8527 46.1902 89.5718C47.7477 92.291 47.7477 93.2621 47.7477 93.2621C47.7477 93.2621 50.2786 96.9524 46.7742 96.564C43.2699 96.1755 44.0486 94.4275 44.0486 94.4275C44.0486 94.4275 42.6858 93.6506 42.6858 93.0679C42.6858 92.4852 43.6592 90.3487 43.6592 90.3487Z" fill="#532525"/>
<path d="M34.5089 34.217C34.5089 34.217 34.8983 36.742 33.7302 37.3247C32.5621 37.9073 36.2611 40.0438 37.2346 40.0438C38.208 40.0438 39.9602 38.1016 39.9602 38.1016C39.9602 38.1016 38.9868 35.1882 39.1814 34.6055L34.5089 34.217Z" fill="#C07933"/>
<path d="M36.6503 36.1595C38.9083 36.1595 40.7388 34.3333 40.7388 32.0807C40.7388 29.8281 38.9083 28.002 36.6503 28.002C34.3923 28.002 32.5619 29.8281 32.5619 32.0807C32.5619 34.3333 34.3923 36.1595 36.6503 36.1595Z" fill="#C07933"/>
<path d="M44.6327 40.4321L39.7656 37.4903C39.7656 37.4903 36.9964 40.6263 34.0005 37.1302L28.8629 38.4898L29.6417 51.6972C29.6417 51.6972 28.4736 56.9413 28.8629 57.9125C29.2523 58.8836 27.8895 59.272 28.2789 59.4663C28.6683 59.6605 28.2789 61.0201 28.2789 61.0201C28.2789 61.0201 35.8717 64.9046 44.2433 61.9912L43.4645 59.4663C43.5705 59.1362 43.5904 58.7846 43.5223 58.4448C43.4541 58.1049 43.3002 57.788 43.0752 57.524C43.0752 57.524 43.8539 56.3587 42.8805 55.3875C42.8805 55.3875 43.2698 53.6395 42.2964 52.8626L42.1017 50.1434L42.6858 48.7838L44.6327 40.4321Z" fill="#CFCCE0"/>
<path d="M34.5581 30.1866C34.5581 30.1866 34.0706 31.239 36.0203 30.818C36.0203 30.818 36.7515 31.239 36.7515 30.6076C36.7515 30.6076 37.7263 31.6599 37.97 31.0285C38.2138 30.3971 38.7012 31.239 38.7012 31.239L39.1886 30.1866L39.676 30.818H41.382C41.382 30.818 41.8694 26.6087 36.0203 27.0296C30.1712 27.4505 33.0487 34.1199 33.0487 34.1199C33.0487 34.1199 33.0958 32.9227 33.5832 33.5541C34.0706 34.1855 34.5581 30.1866 34.5581 30.1866Z" fill="#532525"/>
<path d="M46.3848 48.2014L46.5795 52.2802C46.5795 52.2802 47.3582 59.855 45.8007 63.1568V64.9049C45.8007 64.9049 45.4114 69.3721 43.4645 69.1779C41.5176 68.9836 44.0485 62.7684 44.0485 62.7684L43.6592 54.2224L43.2698 49.3668L46.3848 48.2014Z" fill="#C07933"/>
<path d="M42.491 40.6262L44.4331 40.3114C45.8321 41.6524 46.7851 43.3893 47.1635 45.2876C47.7475 48.3952 47.9422 48.9779 47.9422 48.9779L43.2697 50.1433L40.7388 45.2876L42.491 40.6262Z" fill="#CFCCE0"/>
<path d="M64.8522 38.4102H34.1287V53.636H64.8522V38.4102Z" fill="white"/>
<path d="M37.4837 39.3257C36.6944 38.8522 35.7427 38.8884 35.3809 38.9245C35.5186 39.2601 35.9321 40.1161 36.7214 40.5899C37.5126 41.0647 38.4631 41.0274 38.8244 40.9915C38.6866 40.656 38.2732 39.7996 37.4837 39.3257Z" fill="#86D0C1"/>
<path d="M41.1928 48.7223H36.2595C36.1136 48.7221 35.9692 48.7507 35.8344 48.8062C35.6996 48.8618 35.5771 48.9434 35.4739 49.0462C35.3706 49.149 35.2888 49.2712 35.2329 49.4056C35.1771 49.54 35.1483 49.6841 35.1483 49.8297C35.1483 49.9752 35.1771 50.1193 35.2329 50.2537C35.2888 50.3881 35.3706 50.5103 35.4739 50.6131C35.5771 50.7159 35.6996 50.7975 35.8344 50.8531C35.9692 50.9087 36.1136 50.9372 36.2595 50.937H41.1928C41.3387 50.9372 41.4832 50.9087 41.618 50.8531C41.7528 50.7975 41.8753 50.7159 41.9785 50.6131C42.0817 50.5103 42.1636 50.3881 42.2194 50.2537C42.2753 50.1193 42.304 49.9752 42.304 49.8297C42.304 49.6841 42.2753 49.54 42.2194 49.4056C42.1636 49.2712 42.0817 49.149 41.9785 49.0462C41.8753 48.9434 41.7528 48.8618 41.618 48.8062C41.4832 48.7507 41.3387 48.7221 41.1928 48.7223Z" fill="#86D0C1"/>
<path d="M63.5326 37.0332H35.873C35.5512 37.0332 35.2326 37.0964 34.9354 37.2193C34.6381 37.3421 34.368 37.5222 34.1405 37.7491C33.913 37.9761 33.7325 38.2456 33.6094 38.5421C33.4862 38.8387 33.4229 39.1566 33.4229 39.4775V52.9219C33.4229 53.5702 33.681 54.1919 34.1405 54.6503C34.6 55.1088 35.2232 55.3663 35.873 55.3663H63.5326C64.1825 55.3663 64.8057 55.1088 65.2652 54.6503C65.7247 54.1919 65.9828 53.5702 65.9828 52.9219V39.4775C65.9828 39.1566 65.9194 38.8387 65.7963 38.5421C65.6732 38.2456 65.4927 37.9761 65.2652 37.7491C65.0376 37.5222 64.7675 37.3421 64.4703 37.2193C64.173 37.0964 63.8544 37.0332 63.5326 37.0332ZM35.1887 38.7006C35.2433 38.6908 36.5385 38.4709 37.6109 39.1147C38.6834 39.7584 39.0954 41.0031 39.1124 41.0557L39.1557 41.1899L39.0166 41.2145C38.818 41.2455 38.6173 41.2602 38.4163 41.2585C37.7789 41.2707 37.1498 41.1125 36.5942 40.8004C35.5218 40.1568 35.1098 38.9121 35.0928 38.8595L35.0495 38.7253L35.1887 38.7006ZM41.1928 51.1829H36.2595C35.8997 51.1829 35.5546 51.0403 35.3002 50.7865C35.0458 50.5327 34.9028 50.1884 34.9028 49.8294C34.9028 49.4705 35.0458 49.1262 35.3002 48.8724C35.5546 48.6186 35.8997 48.476 36.2595 48.476H41.1928C41.5526 48.476 41.8977 48.6186 42.1521 48.8724C42.4066 49.1262 42.5495 49.4705 42.5495 49.8294C42.5495 50.1884 42.4066 50.5327 42.1521 50.7865C41.8977 51.0403 41.5526 51.1829 41.1928 51.1829ZM63.6395 50.9368C63.6383 51.328 63.482 51.7029 63.2047 51.9796C62.9274 52.2562 62.5516 52.4122 62.1595 52.4133H58.4595C58.0673 52.4122 57.6915 52.2562 57.4142 51.9796C57.1369 51.7029 56.9806 51.328 56.9795 50.9368V48.7221C56.9806 48.3308 57.1369 47.956 57.4142 47.6793C57.6915 47.4027 58.0673 47.2467 58.4595 47.2456H62.1595C62.5516 47.2467 62.9274 47.4027 63.2047 47.6793C63.482 47.956 63.6383 48.3308 63.6395 48.7221V50.9368Z" fill="#86D0C1"/>
<path d="M59.6309 50.5065H58.0276C57.9131 50.5065 57.8033 50.5518 57.7224 50.6326C57.6414 50.7134 57.5959 50.8229 57.5959 50.9371C57.5959 51.0513 57.6414 51.1609 57.7224 51.2416C57.8033 51.3224 57.9131 51.3678 58.0276 51.3678H59.6309C59.7454 51.3678 59.8552 51.3224 59.9362 51.2416C60.0171 51.1609 60.0626 51.0513 60.0626 50.9371C60.0626 50.8229 60.0171 50.7134 59.9362 50.6326C59.8552 50.5518 59.7454 50.5065 59.6309 50.5065ZM59.6309 51.1217H58.0276C58.0033 51.1217 57.9792 51.117 57.9567 51.1078C57.9342 51.0985 57.9137 51.0849 57.8965 51.0678C57.8793 51.0506 57.8656 51.0303 57.8562 51.0079C57.8469 50.9854 57.8421 50.9614 57.8421 50.9371C57.8421 50.9128 57.8469 50.8888 57.8562 50.8664C57.8656 50.8439 57.8793 50.8236 57.8965 50.8064C57.9137 50.7893 57.9342 50.7757 57.9567 50.7665C57.9792 50.7572 58.0033 50.7525 58.0276 50.7525H59.6309C59.6799 50.7527 59.7269 50.7722 59.7614 50.8068C59.796 50.8414 59.8155 50.8882 59.8155 50.9371C59.8155 50.986 59.796 51.0328 59.7614 51.0674C59.7269 51.102 59.6799 51.1215 59.6309 51.1217Z" fill="#86D0C1"/>
<path d="M62.5912 50.5065H60.9878C60.8733 50.5065 60.7635 50.5518 60.6826 50.6326C60.6016 50.7134 60.5562 50.8229 60.5562 50.9371C60.5562 51.0513 60.6016 51.1609 60.6826 51.2416C60.7635 51.3224 60.8733 51.3678 60.9878 51.3678H62.5912C62.7056 51.3678 62.8154 51.3224 62.8964 51.2416C62.9773 51.1609 63.0228 51.0513 63.0228 50.9371C63.0228 50.8229 62.9773 50.7134 62.8964 50.6326C62.8154 50.5518 62.7056 50.5065 62.5912 50.5065ZM62.5912 51.1217H60.9878C60.9635 51.1217 60.9394 51.117 60.9169 51.1078C60.8944 51.0985 60.8739 51.0849 60.8567 51.0678C60.8395 51.0506 60.8258 51.0303 60.8165 51.0079C60.8071 50.9854 60.8023 50.9614 60.8023 50.9371C60.8023 50.9128 60.8071 50.8888 60.8165 50.8664C60.8258 50.8439 60.8395 50.8236 60.8567 50.8064C60.8739 50.7893 60.8944 50.7757 60.9169 50.7665C60.9394 50.7572 60.9635 50.7525 60.9878 50.7525H62.5912C62.6401 50.7527 62.6871 50.7722 62.7217 50.8068C62.7562 50.8414 62.7757 50.8882 62.7757 50.9371C62.7757 50.986 62.7562 51.0328 62.7217 51.0674C62.6871 51.102 62.6401 51.1215 62.5912 51.1217Z" fill="#86D0C1"/>
<path d="M59.6309 49.3988H58.0276C57.9131 49.3988 57.8033 49.4442 57.7224 49.5249C57.6414 49.6057 57.5959 49.7152 57.5959 49.8294C57.5959 49.9437 57.6414 50.0532 57.7224 50.134C57.8033 50.2147 57.9131 50.2601 58.0276 50.2601H59.6309C59.7454 50.2601 59.8552 50.2147 59.9362 50.134C60.0171 50.0532 60.0626 49.9437 60.0626 49.8294C60.0626 49.7152 60.0171 49.6057 59.9362 49.5249C59.8552 49.4442 59.7454 49.3988 59.6309 49.3988ZM59.6309 50.014H58.0276C58.0033 50.014 57.9793 50.0092 57.9568 50C57.9344 49.9907 57.914 49.9771 57.8968 49.96C57.8796 49.9428 57.866 49.9225 57.8567 49.9001C57.8474 49.8777 57.8426 49.8537 57.8426 49.8294C57.8426 49.8052 57.8474 49.7812 57.8567 49.7588C57.866 49.7364 57.8796 49.7161 57.8968 49.6989C57.914 49.6818 57.9344 49.6682 57.9568 49.6589C57.9793 49.6497 58.0033 49.6449 58.0276 49.6449H59.6309C59.6552 49.6449 59.6793 49.6497 59.7017 49.6589C59.7242 49.6682 59.7446 49.6818 59.7618 49.6989C59.7789 49.7161 59.7926 49.7364 59.8019 49.7588C59.8112 49.7812 59.8159 49.8052 59.8159 49.8294C59.8159 49.8537 59.8112 49.8777 59.8019 49.9001C59.7926 49.9225 59.7789 49.9428 59.7618 49.96C59.7446 49.9771 59.7242 49.9907 59.7017 50C59.6793 50.0092 59.6552 50.014 59.6309 50.014Z" fill="#86D0C1"/>
<path d="M62.5912 49.3988H60.9878C60.8733 49.3988 60.7635 49.4442 60.6826 49.5249C60.6016 49.6057 60.5562 49.7152 60.5562 49.8294C60.5562 49.9437 60.6016 50.0532 60.6826 50.134C60.7635 50.2147 60.8733 50.2601 60.9878 50.2601H62.5912C62.7056 50.2601 62.8154 50.2147 62.8964 50.134C62.9773 50.0532 63.0228 49.9437 63.0228 49.8294C63.0228 49.7152 62.9773 49.6057 62.8964 49.5249C62.8154 49.4442 62.7056 49.3988 62.5912 49.3988ZM62.5912 50.014H60.9878C60.9635 50.014 60.9395 50.0092 60.917 50C60.8946 49.9907 60.8742 49.9771 60.857 49.96C60.8398 49.9428 60.8262 49.9225 60.8169 49.9001C60.8076 49.8777 60.8028 49.8537 60.8028 49.8294C60.8028 49.8052 60.8076 49.7812 60.8169 49.7588C60.8262 49.7364 60.8398 49.7161 60.857 49.6989C60.8742 49.6818 60.8946 49.6682 60.917 49.6589C60.9395 49.6497 60.9635 49.6449 60.9878 49.6449H62.5912C62.6154 49.6449 62.6395 49.6497 62.6619 49.6589C62.6844 49.6682 62.7048 49.6818 62.722 49.6989C62.7391 49.7161 62.7528 49.7364 62.7621 49.7588C62.7714 49.7812 62.7762 49.8052 62.7762 49.8294C62.7762 49.8537 62.7714 49.8777 62.7621 49.9001C62.7528 49.9225 62.7391 49.9428 62.722 49.96C62.7048 49.9771 62.6844 49.9907 62.6619 50C62.6395 50.0092 62.6154 50.014 62.5912 50.014Z" fill="#86D0C1"/>
<path d="M59.6309 48.2916H58.0276C57.9131 48.2916 57.8033 48.337 57.7224 48.4178C57.6414 48.4985 57.5959 48.6081 57.5959 48.7223C57.5959 48.8365 57.6414 48.946 57.7224 49.0268C57.8033 49.1075 57.9131 49.1529 58.0276 49.1529H59.6309C59.7454 49.1529 59.8552 49.1075 59.9362 49.0268C60.0171 48.946 60.0626 48.8365 60.0626 48.7223C60.0626 48.6081 60.0171 48.4985 59.9362 48.4178C59.8552 48.337 59.7454 48.2916 59.6309 48.2916ZM59.6309 48.9068H58.0276C58.0033 48.9069 57.9792 48.9022 57.9567 48.8929C57.9342 48.8837 57.9137 48.8701 57.8965 48.853C57.8793 48.8358 57.8656 48.8154 57.8562 48.793C57.8469 48.7706 57.8421 48.7466 57.8421 48.7223C57.8421 48.698 57.8469 48.674 57.8562 48.6515C57.8656 48.6291 57.8793 48.6087 57.8965 48.5916C57.9137 48.5744 57.9342 48.5609 57.9567 48.5516C57.9792 48.5424 58.0033 48.5376 58.0276 48.5377H59.6309C59.6799 48.5378 59.7269 48.5573 59.7614 48.5919C59.796 48.6265 59.8155 48.6734 59.8155 48.7223C59.8155 48.7711 59.796 48.818 59.7614 48.8526C59.7269 48.8872 59.6799 48.9067 59.6309 48.9068Z" fill="#86D0C1"/>
<path d="M62.5912 48.2916H60.9878C60.8733 48.2916 60.7635 48.337 60.6826 48.4178C60.6016 48.4985 60.5562 48.6081 60.5562 48.7223C60.5562 48.8365 60.6016 48.946 60.6826 49.0268C60.7635 49.1075 60.8733 49.1529 60.9878 49.1529H62.5912C62.7056 49.1529 62.8154 49.1075 62.8964 49.0268C62.9773 48.946 63.0228 48.8365 63.0228 48.7223C63.0228 48.6081 62.9773 48.4985 62.8964 48.4178C62.8154 48.337 62.7056 48.2916 62.5912 48.2916ZM62.5912 48.9068H60.9878C60.9635 48.9069 60.9394 48.9022 60.9169 48.8929C60.8944 48.8837 60.8739 48.8701 60.8567 48.853C60.8395 48.8358 60.8258 48.8154 60.8165 48.793C60.8071 48.7706 60.8023 48.7466 60.8023 48.7223C60.8023 48.698 60.8071 48.674 60.8165 48.6515C60.8258 48.6291 60.8395 48.6087 60.8567 48.5916C60.8739 48.5744 60.8944 48.5609 60.9169 48.5516C60.9394 48.5424 60.9635 48.5376 60.9878 48.5377H62.5912C62.6401 48.5378 62.6871 48.5573 62.7217 48.5919C62.7562 48.6265 62.7757 48.6734 62.7757 48.7223C62.7757 48.7711 62.7562 48.818 62.7217 48.8526C62.6871 48.8872 62.6401 48.9067 62.5912 48.9068Z" fill="#86D0C1"/>
<path d="M25.9425 45.8707C25.9425 45.8707 24.1903 53.2513 26.3319 53.2513C28.4734 53.2513 33.5353 44.8996 33.5353 44.8996C33.5353 44.8996 38.7919 42.1804 36.6503 41.2093C34.5088 40.2381 31.7831 42.7631 31.7831 42.7631L28.6381 47.1191L28.4734 44.8996L25.9425 45.8707Z" fill="#C07933"/>
<path d="M30.0311 39.6551L28.863 38.4897C28.863 38.4897 26.5268 39.8493 26.3321 41.2089C26.1374 42.5685 25.1639 46.8415 25.1639 46.8415L28.7657 47.1328L29.9338 45.3848L30.0311 39.6551Z" fill="#CFCCE0"/>
<path d="M85.3674 36.8923C85.2207 36.4603 83.3815 34.9916 84.5085 34.7448L85.4328 35.9742L89.682 31.7351L90.1094 32.1615L85.3674 36.8923Z" fill="#86D0C1"/>
<path d="M85.3674 51.3076C85.2207 50.8755 83.3815 49.4069 84.5085 49.16L85.4328 50.3895L89.682 46.1504L90.1094 46.5767L85.3674 51.3076Z" fill="#86D0C1"/>
<path d="M85.3674 65.9283C85.2207 65.4963 83.3815 64.0276 84.5085 63.7808L85.4328 65.0102L89.682 60.7711L90.1094 61.1975L85.3674 65.9283Z" fill="#86D0C1"/>
<path d="M98.2382 36.448C98.9624 36.448 99.5495 35.8624 99.5495 35.1399C99.5495 34.4175 98.9624 33.8318 98.2382 33.8318C97.5141 33.8318 96.927 34.4175 96.927 35.1399C96.927 35.8624 97.5141 36.448 98.2382 36.448Z" fill="#395B54"/>
<path d="M124.266 35.0085H103.155V35.2702H124.266V35.0085Z" fill="#395B54"/>
<path d="M98.2382 50.8625C98.9624 50.8625 99.5495 50.2768 99.5495 49.5543C99.5495 48.8319 98.9624 48.2462 98.2382 48.2462C97.5141 48.2462 96.927 48.8319 96.927 49.5543C96.927 50.2768 97.5141 50.8625 98.2382 50.8625Z" fill="#395B54"/>
<path d="M124.266 49.4235H103.155V49.6851H124.266V49.4235Z" fill="#395B54"/>
<path d="M98.2382 65.4832C98.9624 65.4832 99.5495 64.8975 99.5495 64.1751C99.5495 63.4526 98.9624 62.8669 98.2382 62.8669C97.5141 62.8669 96.927 63.4526 96.927 64.1751C96.927 64.8975 97.5141 65.4832 98.2382 65.4832Z" fill="#395B54"/>
<path d="M124.266 64.0442H103.155V64.3058H124.266V64.0442Z" fill="#395B54"/>
<path d="M88.6792 67.877H82.123V61.2056H86.5812V61.4672H82.3853V67.6154H88.417V64.6067H88.6792V67.877Z" fill="#395B54"/>
<path d="M88.6792 53.226H82.123V46.5546H86.5812V46.8162H82.3853V52.9644H88.417V49.9557H88.6792V53.226Z" fill="#395B54"/>
<path d="M88.6792 38.3137H82.123V31.6422H86.5812V31.9038H82.3853V38.052H88.417V35.0433H88.6792V38.3137Z" fill="#395B54"/>
<path opacity="0.1" d="M41.257 97.112C55.135 97.112 66.3853 96.4279 66.3853 95.584C66.3853 94.7401 55.135 94.056 41.257 94.056C27.3791 94.056 16.1288 94.7401 16.1288 95.584C16.1288 96.4279 27.3791 97.112 41.257 97.112Z" fill="#86D0C1"/>
<path opacity="0.1" d="M84.1749 75.2892C84.1022 75.3785 84.0354 75.4655 83.9642 75.5499C83.7015 75.863 83.4265 76.1456 83.1411 76.3958C81.646 77.724 79.803 78.3728 78.0079 78.8134C73.9818 79.8025 69.8714 79.9947 65.7785 80.1832C54.7195 80.6949 43.6336 81.2054 32.6015 80.0266C28.2427 79.5614 23.788 78.7828 19.8382 76.3958C19.272 76.0547 18.717 75.6785 18.1731 75.2672C17.0725 74.4335 16.0155 73.4187 15.1365 72.2068C14.3105 71.0708 13.6407 69.7659 13.2404 68.2823C12.4057 65.1926 12.8474 61.7222 13.8005 58.6937C14.1964 57.4685 14.6428 56.2917 15.1365 55.1719C15.8724 53.4667 16.6839 51.8104 17.4241 50.1065C20.0583 44.0495 21.7771 36.3864 19.3456 30.174C18.6468 28.3892 17.637 26.8223 17.0674 24.9592C16.341 22.5759 16.3969 19.9293 16.6279 17.3586C16.6579 17.0322 16.6897 16.709 16.7231 16.3891C17.1176 12.5772 17.86 8.47024 20.1491 6.09054C22.5268 3.61781 25.9035 3.74267 28.8544 4.62159C33.4435 6.0024 37.6766 8.87665 41.9548 11.4718C46.2329 14.067 50.7087 16.4381 55.4104 16.6927C59.5621 16.9179 64.4048 15.2323 67.1603 10.8512C69.8366 6.59611 74.8674 6.27171 78.4932 8.84238C80.982 10.6063 82.8389 13.7842 83.622 17.3586C83.7806 18.0763 83.8948 18.8196 83.9627 19.5767C84.0255 20.2687 84.046 20.9698 84.0238 21.6688C84.0129 22.014 83.9918 22.3555 83.9627 22.6934C83.3569 29.7468 78.9959 35.3104 76.345 41.611C75.0497 44.6885 74.1351 48.3853 75.0257 51.7039C76.3842 56.7608 81.1085 58.5591 83.9613 62.322C84.4981 63.0069 84.9708 63.8239 85.3634 64.7458C86.7473 68.095 86.2366 72.6181 84.1749 75.2892Z" fill="#86D0C1"/>
<path opacity="0.1" d="M100.685 83.7196C100.602 83.7809 100.526 83.8406 100.444 83.8985C100.143 84.1133 99.8284 84.3072 99.5015 84.4789C97.7896 85.3902 95.6793 85.8354 93.6238 86.1377C89.0138 86.8164 84.3073 86.9483 79.6207 87.0776C66.9577 87.4287 54.264 87.7789 41.6318 86.9701C36.6408 86.6509 31.54 86.1167 27.0173 84.4789C26.369 84.2449 25.7335 83.9867 25.1107 83.7045C23.8505 83.1325 22.6402 82.4363 21.6337 81.6047C20.6879 80.8253 19.9209 79.93 19.4626 78.912C18.5068 76.792 19.0125 74.4109 20.1039 72.333C20.5572 71.4923 21.0684 70.6849 21.6337 69.9165C22.4763 68.7465 23.4055 67.6101 24.2531 66.441C27.2693 62.2851 29.2374 57.0273 26.4533 52.7647C25.6531 51.5401 24.4968 50.465 23.8447 49.1867C23.0128 47.5514 23.0769 45.7355 23.3414 43.9717C23.3758 43.7477 23.4121 43.526 23.4504 43.3065C23.9021 40.691 24.7522 37.8731 27.3733 36.2403C30.0959 34.5437 33.9623 34.6293 37.3412 35.2324C42.5958 36.1798 47.4429 38.1519 52.3416 39.9325C57.2403 41.7131 62.3652 43.3401 67.7488 43.5148C72.5027 43.6693 78.0477 42.5127 81.2029 39.5067C84.2674 36.5872 90.0278 36.3646 94.1795 38.1284C97.0293 39.3387 99.1555 41.5191 100.052 43.9717C100.234 44.4641 100.365 44.9741 100.442 45.4936C100.514 45.9684 100.538 46.4494 100.512 46.929C100.5 47.1659 100.476 47.4002 100.442 47.632C99.7486 52.4716 94.7551 56.289 91.7198 60.612C90.2366 62.7235 89.1893 65.2601 90.2091 67.5371C91.7647 71.0067 97.1741 72.2406 100.441 74.8225C101.055 75.2924 101.597 75.853 102.046 76.4855C103.631 78.7835 103.046 81.8869 100.685 83.7196Z" fill="#86D0C1"/>
<path opacity="0.1" d="M53.3558 94.9414C56.0493 94.9414 58.2328 94.5622 58.2328 94.0944C58.2328 93.6266 56.0493 93.2474 53.3558 93.2474C50.6624 93.2474 48.4789 93.6266 48.4789 94.0944C48.4789 94.5622 50.6624 94.9414 53.3558 94.9414Z" fill="#86D0C1"/>
<path d="M54.4154 84.6641C54.4154 84.6641 55.2056 85.714 54.0497 87.2926C52.8938 88.8711 51.9409 90.2131 52.3224 91.2017C52.3224 91.2017 54.0656 88.2593 55.4892 88.2184C56.9129 88.1775 55.9786 86.4339 54.4154 84.6641Z" fill="#86D0C1"/>
<path opacity="0.1" d="M54.4151 84.6641C54.4841 84.7657 54.5384 84.8768 54.5763 84.9941C55.9611 86.6442 56.6995 88.1848 55.368 88.2228C54.1286 88.2593 52.6402 90.5081 52.2847 91.0762C52.2964 91.1202 52.3103 91.1635 52.3264 91.2061C52.3264 91.2061 54.0696 88.2637 55.4933 88.2228C56.9169 88.1819 55.9784 86.4339 54.4151 84.6641Z" fill="black"/>
<path d="M55.885 86.0019C55.885 86.3713 55.8447 86.6707 55.7943 86.6707C55.7439 86.6707 55.7021 86.3786 55.7021 86.0019C55.7021 85.6251 55.754 85.8062 55.8043 85.8062C55.8547 85.8062 55.885 85.6324 55.885 86.0019Z" fill="#898474"/>
<path d="M56.3903 86.4428C56.0707 86.6194 55.7914 86.726 55.767 86.6808C55.7425 86.6355 55.9829 86.4559 56.3025 86.2792C56.622 86.1025 56.4953 86.231 56.5198 86.2792C56.5443 86.3274 56.7098 86.2661 56.3903 86.4428Z" fill="#898474"/>
<path d="M50.2379 84.6641C50.2379 84.6641 49.4476 85.714 50.6035 87.2926C51.7594 88.8711 52.7123 90.2131 52.3309 91.2017C52.3309 91.2017 50.5877 88.2593 49.164 88.2184C47.7404 88.1775 48.6775 86.4339 50.2379 84.6641Z" fill="#86D0C1"/>
<path opacity="0.1" d="M50.2378 84.6641C50.1688 84.7657 50.1145 84.8768 50.0766 84.9941C48.6918 86.6442 47.9534 88.1848 49.2849 88.2228C50.5257 88.2593 52.0127 90.5081 52.3682 91.0762C52.3572 91.1204 52.3432 91.1638 52.3265 91.2061C52.3265 91.2061 50.5833 88.2637 49.1597 88.2228C47.736 88.1819 48.6774 86.4339 50.2378 84.6641Z" fill="black"/>
<path d="M48.7682 86.0019C48.7682 86.3713 48.8085 86.6707 48.8589 86.6707C48.9093 86.6707 48.951 86.3786 48.951 86.0019C48.951 85.6251 48.8992 85.8062 48.8488 85.8062C48.7984 85.8062 48.7682 85.6324 48.7682 86.0019Z" fill="#898474"/>
<path d="M48.2644 86.4428C48.5839 86.6194 48.8618 86.726 48.8862 86.6808C48.9107 86.6355 48.6703 86.4559 48.3507 86.2792C48.0312 86.1025 48.1579 86.231 48.1334 86.2792C48.1089 86.3274 47.9448 86.2661 48.2644 86.4428Z" fill="#898474"/>
<path d="M49.0201 91.0687C49.0201 91.0687 51.2312 90.9986 51.8991 90.5182C52.567 90.0378 55.2991 89.461 55.4647 90.2335C55.6302 91.0059 58.787 94.0725 56.2909 94.093C53.7949 94.1134 50.4913 93.6987 49.8262 93.2884C49.1612 92.878 49.0201 91.0687 49.0201 91.0687Z" fill="#A8A8A8"/>
<path opacity="0.2" d="M56.3341 93.8243C53.8381 93.8447 50.5345 93.43 49.8694 93.0196C49.3627 92.7057 49.1612 91.5827 49.0936 91.0658H49.0201C49.0201 91.0658 49.1641 92.8736 49.8248 93.2854C50.4855 93.6972 53.7934 94.1105 56.2895 94.09C57.0092 94.09 57.2597 93.8243 57.2453 93.4388C57.146 93.6753 56.871 93.8199 56.3341 93.8243Z" fill="black"/>
<path d="M122.857 90.9828C122.857 90.9828 116.771 90.6104 117.489 94.9372C117.489 94.9372 117.345 95.701 118.029 96.0485C118.029 96.0485 118.04 95.7287 118.653 95.8368C118.872 95.874 119.093 95.8848 119.314 95.8689C119.613 95.8489 119.897 95.7299 120.123 95.5301C120.123 95.5301 121.833 94.8146 122.498 91.9772C122.498 91.9772 122.991 91.3581 122.972 91.1989L121.944 91.637C121.944 91.637 122.295 92.389 122.019 93.014C122.019 93.014 121.986 91.6647 121.789 91.6998C121.748 91.6998 121.255 91.9597 121.255 91.9597C121.255 91.9597 121.859 93.2739 121.398 94.2202C121.398 94.2202 121.571 92.6139 121.062 92.0546L120.342 92.4825C120.342 92.4825 121.047 93.8347 120.569 94.9387C120.569 94.9387 120.692 93.2462 120.191 92.5862L119.536 93.1046C119.536 93.1046 120.198 94.4378 119.793 95.3534C119.793 95.3534 119.742 93.3835 119.393 93.2345C119.393 93.2345 118.817 93.7471 118.733 93.9647C118.733 93.9647 119.186 94.9314 118.905 95.4425C118.905 95.4425 118.733 94.1282 118.59 94.1282C118.59 94.1282 118.014 95.0044 117.96 95.5885C117.96 95.5885 117.985 94.7021 118.452 94.0391C118.123 94.1028 117.819 94.2627 117.578 94.4991C117.578 94.4991 117.667 93.8844 118.586 93.8303C118.586 93.8303 119.058 93.1703 119.185 93.1308C119.185 93.1308 118.263 93.052 117.705 93.3032C117.705 93.3032 118.196 92.719 119.353 92.9863L119.999 92.4518C119.999 92.4518 118.787 92.2824 118.272 92.4693C118.272 92.4693 118.865 91.9553 120.173 92.3233L120.879 91.8969C120.879 91.8969 119.844 91.6705 119.228 91.7509C119.228 91.7509 119.878 91.3946 121.085 91.7801L121.588 91.5508C121.588 91.5508 120.83 91.4048 120.608 91.377C120.387 91.3493 120.375 91.2909 120.375 91.2909C120.855 91.2097 121.348 91.2653 121.799 91.4515C121.799 91.4515 122.875 91.0514 122.857 90.9828Z" fill="#86D0C1"/>
<path opacity="0.1" d="M118.665 97.1643C121.043 97.1643 122.972 96.8335 122.972 96.4254C122.972 96.0173 121.043 95.6865 118.665 95.6865C116.286 95.6865 114.358 96.0173 114.358 96.4254C114.358 96.8335 116.286 97.1643 118.665 97.1643Z" fill="#86D0C1"/>
<path d="M112.194 91.2134C112.194 91.2134 108.763 91.0031 109.172 93.4433C109.151 93.567 109.169 93.6942 109.224 93.8067C109.279 93.9192 109.367 94.0112 109.477 94.0697C109.477 94.0697 109.477 93.8887 109.829 93.95C109.952 93.9702 110.077 93.9766 110.201 93.969C110.369 93.9565 110.529 93.8894 110.657 93.7777C110.657 93.7777 111.621 93.3732 111.997 91.7742C111.997 91.7742 112.274 91.4252 112.264 91.3361L111.688 91.5858C111.688 91.5858 111.885 92.0107 111.729 92.3627C111.729 92.3627 111.711 91.6018 111.6 91.6194C111.577 91.6194 111.299 91.7654 111.299 91.7654C111.299 91.7654 111.639 92.4955 111.383 93.0402C111.383 93.0402 111.479 92.1305 111.193 91.818L110.785 92.0604C110.785 92.0604 111.182 92.8227 110.913 93.4447C110.913 93.4447 110.982 92.4897 110.699 92.1188L110.33 92.4108C110.33 92.4108 110.703 93.1629 110.474 93.6784C110.474 93.6784 110.444 92.5671 110.248 92.4839C110.108 92.6038 109.983 92.7406 109.875 92.8913C109.875 92.8913 110.132 93.4374 109.973 93.7251C109.973 93.7251 109.875 92.9847 109.796 92.9818C109.796 92.9818 109.474 93.4725 109.441 93.8083C109.455 93.4967 109.551 93.1945 109.717 92.9322C109.532 92.9678 109.361 93.0576 109.225 93.1906C109.225 93.1906 109.275 92.8431 109.801 92.8139C109.801 92.8139 110.065 92.4415 110.137 92.4196C110.137 92.4196 109.618 92.3743 109.303 92.516C109.303 92.516 109.58 92.1889 110.232 92.3378L110.597 92.0356C110.597 92.0356 109.913 91.9406 109.624 92.0458C109.624 92.0458 109.957 91.7537 110.696 91.9669L111.092 91.7274C110.787 91.6589 110.474 91.6314 110.162 91.6457C110.162 91.6457 110.529 91.4456 111.208 91.6617L111.496 91.5332C111.496 91.5332 111.064 91.4471 110.945 91.4339C110.825 91.4208 110.813 91.3857 110.813 91.3857C111.083 91.34 111.361 91.3714 111.616 91.4763C111.616 91.4763 112.204 91.2528 112.194 91.2134Z" fill="#86D0C1"/>
<path opacity="0.1" d="M109.831 94.6991C111.172 94.6991 112.259 94.5127 112.259 94.2829C112.259 94.053 111.172 93.8667 109.831 93.8667C108.49 93.8667 107.402 94.053 107.402 94.2829C107.402 94.5127 108.49 94.6991 109.831 94.6991Z" fill="#86D0C1"/>
<path d="M118.725 86.0426C118.725 86.0426 114.584 85.7885 115.072 88.7339C115.047 88.8833 115.069 89.0369 115.135 89.1728C115.201 89.3086 115.308 89.4198 115.44 89.4903C115.44 89.4903 115.44 89.2728 115.865 89.3443C116.014 89.3684 116.164 89.3757 116.314 89.3662C116.518 89.3514 116.711 89.2705 116.866 89.1355C116.866 89.1355 118.03 88.6478 118.482 86.7158C118.482 86.7158 118.817 86.2952 118.805 86.1872L118.105 86.4895C118.105 86.4895 118.344 87.002 118.157 87.427C118.157 87.427 118.134 86.5084 117.998 86.5303C117.972 86.5303 117.636 86.707 117.636 86.707C117.636 86.707 118.047 87.5993 117.736 88.2462C117.736 88.2462 117.854 87.148 117.508 86.7713L117.015 87.0633C117.015 87.0633 117.496 87.9833 117.171 88.7354C117.171 88.7354 117.254 87.5832 116.912 87.1291L116.465 87.481C116.465 87.481 116.917 88.3878 116.642 89.0114C116.642 89.0114 116.606 87.6708 116.369 87.5686C116.369 87.5686 115.979 87.9176 115.92 88.0607C115.92 88.0607 116.229 88.7193 116.036 89.0669C116.036 89.0669 115.92 88.1746 115.823 88.1702C115.823 88.1702 115.435 88.7544 115.392 89.1676C115.41 88.7926 115.525 88.4291 115.725 88.1133C115.502 88.1565 115.295 88.2651 115.131 88.4258C115.131 88.4258 115.191 88.0067 115.822 87.9702C115.822 87.9702 116.143 87.5219 116.229 87.4941C116.229 87.4941 115.602 87.4416 115.222 87.6124C115.222 87.6124 115.556 87.2167 116.344 87.3963L116.785 87.0327C116.785 87.0327 115.959 86.9173 115.609 87.0444C115.609 87.0444 116.012 86.6954 116.904 86.9495L117.384 86.6574C117.384 86.6574 116.68 86.5114 116.261 86.5595C116.261 86.5595 116.703 86.3171 117.525 86.5785L117.867 86.4237C117.867 86.4237 117.351 86.3201 117.199 86.304C117.048 86.2879 117.041 86.2456 117.041 86.2456C117.368 86.1904 117.703 86.2284 118.01 86.3551C118.01 86.3551 118.74 86.0893 118.725 86.0426Z" fill="#86D0C1"/>
<path opacity="0.1" d="M115.874 90.2492C117.493 90.2492 118.806 90.0243 118.806 89.7468C118.806 89.4694 117.493 89.2445 115.874 89.2445C114.254 89.2445 112.941 89.4694 112.941 89.7468C112.941 90.0243 114.254 90.2492 115.874 90.2492Z" fill="#86D0C1"/>
</svg>
