<svg width="136" height="106" viewBox="0 0 136 106" fill="none" xmlns="http://www.w3.org/2000/svg">
<g clip-path="url(#clip0)">
<path opacity="0.1" d="M26.8552 81.9451C29.5226 81.9451 31.6849 81.1763 31.6849 80.2279C31.6849 79.2795 29.5226 78.5106 26.8552 78.5106C24.1878 78.5106 22.0254 79.2795 22.0254 80.2279C22.0254 81.1763 24.1878 81.9451 26.8552 81.9451Z" fill="black"/>
<path opacity="0.1" d="M104.88 89.0447C107.548 89.0447 109.71 88.2759 109.71 87.3275C109.71 86.3791 107.548 85.6102 104.88 85.6102C102.213 85.6102 100.051 86.3791 100.051 87.3275C100.051 88.2759 102.213 89.0447 104.88 89.0447Z" fill="black"/>
<path opacity="0.1" d="M77.1941 26.9781C69.8443 29.8169 61.8773 29.9489 54.4771 27.2764C43.9889 23.4899 30.2917 22.5207 25.2162 39.8725C16.5537 69.5176 34.2757 80.0991 34.2757 80.0991C34.2757 80.0991 46.6485 82.8724 53.4993 87.8836C63.2307 95.0016 75.1485 97.381 86.375 94.0431C93.5542 91.9084 99.7073 88.4063 101.466 82.676C106.386 66.6498 103.263 57.0171 112.167 52.7916C121.071 48.566 116.117 32.9122 109.784 32.557C103.452 32.2017 88.5334 35.8326 83.9183 28.6105C82.2729 26.0464 79.7561 25.9874 77.1941 26.9781Z" fill="black"/>
<path d="M104.685 87.5711C104.685 87.5711 105.973 83.1878 104.443 79.9615C103.791 78.6124 103.594 77.0883 103.882 75.618C104.025 74.9209 104.231 74.2383 104.497 73.5787" stroke="#535461" stroke-width="0.214656" stroke-miterlimit="10"/>
<path d="M103.544 71.5408C103.544 72.0774 104.517 73.6358 104.517 73.6358C104.517 73.6358 105.489 72.0785 105.489 71.5408C105.489 71.2828 105.387 71.0353 105.204 70.8528C105.022 70.6704 104.774 70.5679 104.516 70.5679C104.258 70.5679 104.011 70.6704 103.828 70.8528C103.646 71.0353 103.543 71.2828 103.543 71.5408H103.544Z" fill="#4BAC99"/>
<path d="M101.937 74.5169C102.229 74.9677 103.892 75.7469 103.892 75.7469C103.892 75.7469 103.862 73.9105 103.57 73.4597C103.501 73.3525 103.411 73.2601 103.306 73.1876C103.201 73.1151 103.082 73.0641 102.957 73.0374C102.832 73.0107 102.704 73.0088 102.578 73.0319C102.452 73.055 102.333 73.1027 102.225 73.1721C102.118 73.2415 102.026 73.3313 101.953 73.4365C101.881 73.5416 101.83 73.66 101.803 73.7849C101.776 73.9098 101.774 74.0387 101.798 74.1643C101.821 74.2899 101.868 74.4097 101.938 74.5169H101.937Z" fill="#4BAC99"/>
<path d="M102.006 79.6011C102.486 79.8426 104.315 79.6762 104.315 79.6762C104.315 79.6762 103.362 78.106 102.882 77.8645C102.652 77.7484 102.385 77.7285 102.14 77.8092C101.895 77.8899 101.692 78.0647 101.576 78.2949C101.46 78.5252 101.44 78.7922 101.521 79.0372C101.601 79.2821 101.776 79.485 102.006 79.6011Z" fill="#4BAC99"/>
<path d="M102.926 83.437C103.355 83.759 105.189 83.9007 105.189 83.9007C105.189 83.9007 104.515 82.192 104.083 81.8732C103.876 81.7198 103.616 81.655 103.361 81.6932C103.106 81.7313 102.876 81.8693 102.723 82.0766C102.569 82.284 102.505 82.5438 102.543 82.7989C102.581 83.0541 102.719 83.2836 102.926 83.437Z" fill="#4BAC99"/>
<path d="M105.933 75.8512C105.548 76.2258 103.752 76.6132 103.752 76.6132C103.752 76.6132 104.192 74.8305 104.578 74.4559C104.763 74.2762 105.012 74.1773 105.27 74.181C105.528 74.1847 105.773 74.2908 105.953 74.4758C106.133 74.6608 106.232 74.9097 106.228 75.1676C106.224 75.4256 106.118 75.6714 105.933 75.8512Z" fill="#4BAC99"/>
<path d="M106.952 80.3493C106.472 80.5908 104.643 80.4244 104.643 80.4244C104.643 80.4244 105.596 78.8542 106.076 78.6181C106.306 78.502 106.573 78.482 106.818 78.5628C107.063 78.6435 107.266 78.8182 107.382 79.0485C107.498 79.2788 107.518 79.5457 107.438 79.7907C107.357 80.0357 107.182 80.2385 106.952 80.3547V80.3493Z" fill="#4BAC99"/>
<path d="M107.341 84.8579C106.912 85.1799 105.079 85.3216 105.079 85.3216C105.079 85.3216 105.753 83.6129 106.184 83.2941C106.392 83.1407 106.652 83.0759 106.907 83.1141C107.162 83.1522 107.391 83.2902 107.545 83.4975C107.698 83.7049 107.763 83.9647 107.725 84.2198C107.687 84.475 107.549 84.7045 107.341 84.8579Z" fill="#4BAC99"/>
<path d="M26.8571 80.2408C26.8571 80.2408 29.6144 70.8904 26.342 63.9999C24.9682 61.1096 24.5174 57.8661 25.1474 54.73C25.4511 53.2426 25.8905 51.7861 26.46 50.3789" stroke="#535461" stroke-width="0.214656" stroke-miterlimit="10"/>
<path d="M24.4239 46.0265C24.4239 47.1728 26.4997 50.4978 26.4997 50.4978C26.4997 50.4978 28.5743 47.1707 28.5743 46.0265C28.5743 45.476 28.3556 44.948 27.9663 44.5588C27.5771 44.1695 27.0491 43.9508 26.4986 43.9508C25.9481 43.9508 25.4201 44.1695 25.0308 44.5588C24.6415 44.948 24.4229 45.476 24.4229 46.0265H24.4239Z" fill="#4BAC99"/>
<path d="M20.9928 52.3772C21.6164 53.3432 25.1657 55.0025 25.1657 55.0025C25.1657 55.0025 25.1013 51.0829 24.4778 50.1212C24.1727 49.6732 23.7045 49.3623 23.1733 49.2549C22.642 49.1475 22.0899 49.2522 21.6348 49.5465C21.1796 49.8409 20.8577 50.3015 20.7378 50.8301C20.6178 51.3586 20.7093 51.9131 20.9928 52.3751V52.3772Z" fill="#4BAC99"/>
<path d="M21.1421 63.2304C22.166 63.7466 26.0695 63.3903 26.0695 63.3903C26.0695 63.3903 24.0303 60.0395 23.0118 59.5265C22.7683 59.4037 22.5031 59.3301 22.2313 59.3098C21.9594 59.2896 21.6862 59.323 21.4273 59.4083C21.1684 59.4937 20.9288 59.6291 20.7222 59.807C20.5156 59.9849 20.3461 60.2018 20.2234 60.4452C20.1006 60.6886 20.027 60.9538 20.0067 61.2257C19.9865 61.4976 20.0199 61.7707 20.1052 62.0297C20.2775 62.5526 20.6505 62.9857 21.1421 63.2336V63.2304Z" fill="#4BAC99"/>
<path d="M23.1008 71.4161C24.0227 72.0977 27.9306 72.4057 27.9306 72.4057C27.9306 72.4057 26.4924 68.7565 25.5693 68.0782C25.1267 67.7509 24.5722 67.6128 24.0277 67.6943C23.4832 67.7758 22.9935 68.0703 22.6661 68.5129C22.3388 68.9555 22.2007 69.5101 22.2822 70.0545C22.3637 70.599 22.6582 71.0888 23.1008 71.4161Z" fill="#4BAC99"/>
<path d="M29.5244 55.2204C28.7022 56.0189 24.8706 56.8464 24.8706 56.8464C24.8706 56.8464 25.8087 53.0405 26.6308 52.242C27.0257 51.8577 27.5572 51.6461 28.1082 51.6536C28.6592 51.6612 29.1846 51.8873 29.5689 52.2823C29.9532 52.6772 30.1648 53.2087 30.1573 53.7597C30.1497 54.3107 29.9236 54.8361 29.5286 55.2204H29.5244Z" fill="#4BAC99"/>
<path d="M31.6979 64.8273C30.674 65.3435 26.7705 64.9872 26.7705 64.9872C26.7705 64.9872 28.8097 61.6364 29.8283 61.1234C30.0717 61.0006 30.3369 60.927 30.6088 60.9067C30.8806 60.8865 31.1538 60.92 31.4128 61.0053C31.6717 61.0906 31.9113 61.2261 32.1178 61.404C32.3244 61.5819 32.4939 61.7987 32.6167 62.0421C32.7394 62.2855 32.8131 62.5507 32.8333 62.8226C32.8536 63.0945 32.8201 63.3677 32.7348 63.6266C32.6495 63.8855 32.514 64.1251 32.3361 64.3317C32.1582 64.5382 31.9414 64.7078 31.6979 64.8305V64.8273Z" fill="#4BAC99"/>
<path d="M32.5295 74.4503C31.6075 75.1318 27.6997 75.4399 27.6997 75.4399C27.6997 75.4399 29.1379 71.7907 30.0609 71.1124C30.5036 70.785 31.0581 70.6469 31.6026 70.7285C32.147 70.81 32.6368 71.1044 32.9642 71.5471C33.2915 71.9897 33.4296 72.5443 33.3481 73.0887C33.2666 73.6332 32.9721 74.123 32.5295 74.4503Z" fill="#4BAC99"/>
<path d="M60.6935 57.1759L54.7121 56.401C54.4695 56.3699 54.2828 56.2776 54.2892 56.1971C54.3 56.1166 54.5039 56.079 54.7518 56.1144L60.7203 56.9784C60.8845 57.002 61.009 57.0643 61.0015 57.119C60.994 57.1705 60.8566 57.1974 60.6935 57.1759Z" fill="#4BAC99"/>
<path d="M60.7311 57.278L54.7315 56.6576C54.4878 56.6329 54.2807 56.678 54.2732 56.7585C54.2656 56.839 54.4599 56.9238 54.7025 56.9453L60.7129 57.4819C60.8781 57.4969 61.0134 57.4647 61.0187 57.41C61.023 57.352 60.8953 57.2952 60.7311 57.278Z" fill="#4BAC99"/>
<path d="M69.7315 61.7909L75.7119 61.016C75.9544 60.9849 76.1412 60.8926 76.1347 60.8121C76.124 60.7316 75.9201 60.694 75.6722 60.7294L69.7036 61.5934C69.5394 61.617 69.4149 61.6793 69.4224 61.734C69.43 61.7855 69.5673 61.8124 69.7315 61.7909Z" fill="#4BAC99"/>
<path d="M69.693 61.893L75.6927 61.2726C75.9363 61.2479 76.1434 61.293 76.151 61.3735C76.1585 61.454 75.9642 61.5388 75.7216 61.5603L69.7113 62.0969C69.546 62.1119 69.4107 62.0797 69.4054 62.025C69.4011 61.967 69.5288 61.9102 69.693 61.893Z" fill="#4BAC99"/>
<path d="M49.9476 68.2147H48.489V89.1287H49.9476V68.2147Z" fill="#40414D"/>
<path d="M81.8048 68.2147H80.3462V89.1287H81.8048V68.2147Z" fill="#40414D"/>
<path d="M47.9323 66.5125H81.6333C82.2596 66.5125 82.8601 66.7612 83.303 67.204C83.7458 67.6469 83.9945 68.2474 83.9945 68.8737V69.1871H45.571V68.8737C45.571 68.2474 45.8198 67.6469 46.2626 67.204C46.7054 66.7612 47.306 66.5125 47.9323 66.5125Z" fill="#DFE6F5"/>
<path opacity="0.1" d="M47.8248 66.5125H81.5259C82.1521 66.5125 82.7527 66.7612 83.1955 67.204C83.6383 67.6469 83.8871 68.2474 83.8871 68.8737V69.1871H45.4636V68.8737C45.4636 68.2474 45.7124 67.6469 46.1552 67.204C46.598 66.7612 47.1986 66.5125 47.8248 66.5125Z" fill="black"/>
<path d="M47.9323 66.0253H81.6333C82.2596 66.0253 82.8601 66.274 83.303 66.7169C83.7458 67.1597 83.9945 67.7603 83.9945 68.3865V68.6999H45.571V68.3865C45.571 67.7603 45.8198 67.1597 46.2626 66.7169C46.7054 66.274 47.306 66.0253 47.9323 66.0253Z" fill="#DFE6F5"/>
<path d="M64.7828 64.323C66.3945 64.323 67.701 63.0164 67.701 61.4047C67.701 59.793 66.3945 58.4865 64.7828 58.4865C63.171 58.4865 61.8645 59.793 61.8645 61.4047C61.8645 63.0164 63.171 64.323 64.7828 64.323Z" fill="#FFD77C" stroke="#FFAB50" stroke-width="0.107328" stroke-miterlimit="10"/>
<path d="M64.7826 63.7176C66.06 63.7176 67.0956 62.6821 67.0956 61.4047C67.0956 60.1273 66.06 59.0918 64.7826 59.0918C63.5053 59.0918 62.4697 60.1273 62.4697 61.4047C62.4697 62.6821 63.5053 63.7176 64.7826 63.7176Z" fill="#FFD77C" stroke="#FFAB50" stroke-width="0.107328" stroke-miterlimit="10"/>
<path d="M64.7826 63.1669C65.7559 63.1669 66.5449 62.3778 66.5449 61.4045C66.5449 60.4312 65.7559 59.6422 64.7826 59.6422C63.8093 59.6422 63.0203 60.4312 63.0203 61.4045C63.0203 62.3778 63.8093 63.1669 64.7826 63.1669Z" fill="#FFD77C" stroke="#FFAB50" stroke-width="0.107328" stroke-miterlimit="10"/>
<path d="M64.7829 62.3951C65.33 62.3951 65.7735 61.9516 65.7735 61.4045C65.7735 60.8573 65.33 60.4138 64.7829 60.4138C64.2358 60.4138 63.7922 60.8573 63.7922 61.4045C63.7922 61.9516 64.2358 62.3951 64.7829 62.3951Z" fill="#FFD77C" stroke="#FFAB50" stroke-width="0.107328" stroke-miterlimit="10"/>
<path d="M63.0804 65.9039C64.6921 65.9039 65.9986 64.5973 65.9986 62.9856C65.9986 61.3739 64.6921 60.0674 63.0804 60.0674C61.4687 60.0674 60.1621 61.3739 60.1621 62.9856C60.1621 64.5973 61.4687 65.9039 63.0804 65.9039Z" fill="#FFD77C" stroke="#FFAB50" stroke-width="0.107328" stroke-miterlimit="10"/>
<path d="M63.0805 65.2986C64.3579 65.2986 65.3934 64.263 65.3934 62.9857C65.3934 61.7083 64.3579 60.6727 63.0805 60.6727C61.8031 60.6727 60.7676 61.7083 60.7676 62.9857C60.7676 64.263 61.8031 65.2986 63.0805 65.2986Z" fill="#FFD77C" stroke="#FFAB50" stroke-width="0.107328" stroke-miterlimit="10"/>
<path d="M63.0807 64.7478C64.054 64.7478 64.843 63.9588 64.843 62.9855C64.843 62.0122 64.054 61.2231 63.0807 61.2231C62.1074 61.2231 61.3184 62.0122 61.3184 62.9855C61.3184 63.9588 62.1074 64.7478 63.0807 64.7478Z" fill="#FFD77C" stroke="#FFAB50" stroke-width="0.107328" stroke-miterlimit="10"/>
<path d="M63.0805 63.9763C63.6276 63.9763 64.0711 63.5328 64.0711 62.9856C64.0711 62.4385 63.6276 61.995 63.0805 61.995C62.5334 61.995 62.0898 62.4385 62.0898 62.9856C62.0898 63.5328 62.5334 63.9763 63.0805 63.9763Z" fill="#FFD77C" stroke="#FFAB50" stroke-width="0.107328" stroke-miterlimit="10"/>
<path d="M66.4849 65.9039C68.0966 65.9039 69.4032 64.5973 69.4032 62.9856C69.4032 61.3739 68.0966 60.0674 66.4849 60.0674C64.8732 60.0674 63.5667 61.3739 63.5667 62.9856C63.5667 64.5973 64.8732 65.9039 66.4849 65.9039Z" fill="#FFD77C" stroke="#FFAB50" stroke-width="0.107328" stroke-miterlimit="10"/>
<path d="M66.4848 65.2986C67.7622 65.2986 68.7977 64.263 68.7977 62.9857C68.7977 61.7083 67.7622 60.6727 66.4848 60.6727C65.2074 60.6727 64.1719 61.7083 64.1719 62.9857C64.1719 64.263 65.2074 65.2986 66.4848 65.2986Z" fill="#FFD77C" stroke="#FFAB50" stroke-width="0.107328" stroke-miterlimit="10"/>
<path d="M66.485 64.7478C67.4583 64.7478 68.2473 63.9588 68.2473 62.9855C68.2473 62.0122 67.4583 61.2231 66.485 61.2231C65.5117 61.2231 64.7227 62.0122 64.7227 62.9855C64.7227 63.9588 65.5117 64.7478 66.485 64.7478Z" fill="#FFD77C" stroke="#FFAB50" stroke-width="0.107328" stroke-miterlimit="10"/>
<path d="M66.4848 63.9763C67.0319 63.9763 67.4754 63.5328 67.4754 62.9856C67.4754 62.4385 67.0319 61.995 66.4848 61.995C65.9377 61.995 65.4941 62.4385 65.4941 62.9856C65.4941 63.5328 65.9377 63.9763 66.4848 63.9763Z" fill="#FFD77C" stroke="#FFAB50" stroke-width="0.107328" stroke-miterlimit="10"/>
<path d="M58.7024 62.1355H70.8616V62.7065C70.8616 63.2703 70.7506 63.8285 70.5348 64.3494C70.3191 64.8703 70.0028 65.3435 69.6042 65.7422C69.2055 66.1408 68.7322 66.4571 68.2114 66.6728C67.6905 66.8886 67.1323 66.9996 66.5685 66.9996H62.9955C62.4317 66.9996 61.8735 66.8886 61.3526 66.6728C60.8317 66.4571 60.3585 66.1408 59.9598 65.7422C59.5612 65.3435 59.2449 64.8703 59.0292 64.3494C58.8134 63.8285 58.7024 63.2703 58.7024 62.7065V62.1355Z" fill="#4BAC99"/>
<path opacity="0.1" d="M69.7647 62.1346C69.7331 63.4029 69.2071 64.6086 68.2989 65.4944C67.3908 66.3803 66.1724 66.8762 64.9038 66.8764H62.49C62.8421 66.9568 63.2021 66.9979 63.5633 66.9988H65.9953C66.6343 66.999 67.267 66.8734 67.8574 66.6291C68.4478 66.3848 68.9843 66.0266 69.4362 65.5748C69.8881 65.1231 70.2465 64.5868 70.4911 63.9966C70.7357 63.4063 70.8616 62.7736 70.8616 62.1346H69.7647Z" fill="black"/>
<path d="M81.0764 85.6019V84.1433H49.4618V85.6019H81.0764Z" fill="#40414D"/>
<path d="M37.6082 79.0494H36.332V90.6602H37.6082V79.0494Z" fill="#40414D"/>
<path d="M47.6873 79.0494H46.4111V90.6602H47.6873V79.0494Z" fill="#40414D"/>
<path d="M48.7093 77.1357C48.7093 77.9106 46.0819 78.5395 42.8406 78.5395C39.5993 78.5395 37.0996 77.9116 37.0996 77.1357C37.0996 76.3597 39.5993 75.7318 42.8406 75.7318C46.0819 75.7318 48.7093 76.364 48.7093 77.1357Z" fill="#F6C6CD"/>
<path d="M35.3113 77.1345H48.708V78.3044C48.708 78.6033 48.5893 78.8899 48.3779 79.1013C48.1666 79.3126 47.8799 79.4313 47.581 79.4313H37.2432C36.7308 79.4313 36.2394 79.2278 35.8771 78.8655C35.5148 78.5032 35.3113 78.0118 35.3113 77.4994V77.1345Z" fill="#40414D"/>
<path d="M33.0365 63.7102L33.3129 63.6478C33.5072 63.6039 33.7111 63.6391 33.8795 63.7455C34.048 63.8519 34.1673 64.0209 34.2111 64.2152L37.557 79.0378L37.1382 79.1324C36.7867 79.2117 36.418 79.1482 36.1134 78.9557C35.8087 78.7633 35.593 78.4576 35.5136 78.1061L32.4669 64.609C32.4452 64.5125 32.4427 64.4128 32.4595 64.3154C32.4764 64.218 32.5123 64.1249 32.5652 64.0414C32.6181 63.9579 32.687 63.8857 32.7678 63.8288C32.8487 63.772 32.94 63.7317 33.0365 63.7102Z" fill="#40414D"/>
<path d="M92.1706 90.8662H93.4468V79.2554H92.1706V90.8662Z" fill="#40414D"/>
<path d="M82.0915 90.8662H83.3677V79.2554H82.0915V90.8662Z" fill="#40414D"/>
<path d="M81.0718 77.3419C81.0718 78.1168 83.6992 78.7457 86.9405 78.7457C90.1818 78.7457 92.6815 78.1179 92.6815 77.3419C92.6815 76.5659 90.1807 75.9348 86.9405 75.9348C83.7002 75.9348 81.0718 76.567 81.0718 77.3419Z" fill="#F6C6CD"/>
<path d="M92.5356 79.6388H82.1978C81.8989 79.6388 81.6122 79.5201 81.4009 79.3087C81.1896 79.0974 81.0708 78.8107 81.0708 78.5118V77.342H94.4675V77.7069C94.4675 78.2193 94.264 78.7106 93.9017 79.0729C93.5394 79.4353 93.048 79.6388 92.5356 79.6388Z" fill="#40414D"/>
<path d="M92.6427 79.3383L92.224 79.2437L95.5703 64.419C95.6142 64.2247 95.7334 64.0557 95.9019 63.9493C96.0704 63.8429 96.2742 63.8077 96.4686 63.8516L96.745 63.914C96.9393 63.9579 97.1083 64.0772 97.2147 64.2456C97.3211 64.4141 97.3563 64.6179 97.3124 64.8123L94.2652 78.3115C94.186 78.6627 93.9706 78.9681 93.6664 79.1606C93.3622 79.3531 92.994 79.417 92.6427 79.3383Z" fill="#40414D"/>
<path d="M93.097 72.8222L93.4737 72.703C93.4737 72.703 92.8298 68.4013 92.8362 64.5461C92.8362 64.4388 92.8362 64.3239 92.8362 64.2134C92.8437 63.973 92.8523 63.7347 92.8641 63.5018C92.8791 63.2034 92.8824 62.919 92.8802 62.6432C92.9156 58.9307 91.4527 57.3626 91.4527 57.3626C91.4527 57.3626 89.7355 54.9134 88.7062 54.4369C88.6171 54.1578 88.5152 53.7993 88.425 53.3829C88.4583 53.3603 88.4905 53.3378 88.5216 53.3142C88.9467 52.9989 89.3534 52.6595 89.7398 52.2978C90.2678 51.803 90.7744 51.1998 90.7465 50.5194C90.7494 50.4531 90.7473 50.3867 90.7401 50.3208C90.6424 49.4998 89.7892 48.8815 89.4446 48.1034C89.1548 47.4498 89.2418 46.7221 88.9885 46.0588C88.7352 45.3955 87.8508 44.7784 87.1832 45.1272C86.9374 45.256 86.7893 45.4835 86.5843 45.6563C86.0756 46.0856 85.2556 46.1254 84.5601 45.93C83.8646 45.7347 83.6586 44.9383 82.6862 44.9362C82.7725 44.9651 82.855 45.0044 82.932 45.0531C82.8507 45.0395 82.7685 45.0323 82.6862 45.0317C82.884 45.0943 83.0594 45.2128 83.1912 45.373C83.323 45.5332 83.4056 45.7282 83.4289 45.9343C83.4274 45.9602 83.4245 45.986 83.4203 46.0116C83.0318 46.2209 82.5209 46.1017 82.0551 46.0942C81.5893 46.0867 81.0591 46.3218 81.1052 46.7028C81.0974 46.7461 81.0974 46.7904 81.1052 46.8337C81.1664 47.1224 81.5528 47.3403 81.6 47.6076C81.6 47.6151 81.6 47.6215 81.6 47.629C80.738 48.0598 79.8055 48.3317 78.847 48.4318C78.8159 48.4318 78.8299 48.4694 78.8749 48.5241H78.847C78.6721 48.5424 79.8956 49.5094 80.0352 49.5727C80.546 49.8046 81.1568 49.9752 81.6977 50.1534L81.7449 50.1684C81.5627 50.5918 81.4688 51.048 81.4691 51.5089C81.4691 53.1618 82.6572 54.5506 84.266 54.9434C84.5666 55.2944 84.8821 55.6797 85.1697 56.0629H85.1494C85.1494 56.0629 83.3001 58.5228 83.3591 62.1967C83.3539 62.6571 83.3783 63.1174 83.4321 63.5748C82.2429 63.5072 79.6874 63.1938 77.7437 61.7706C75.1217 59.8526 72.197 60.4279 72.8066 61.5785C73.4162 62.729 76.5384 63.6875 77.0418 63.7841C77.089 63.7926 77.1985 63.8184 77.3552 63.857C76.7348 63.974 76.3098 64.179 76.3356 64.4549C76.386 64.9818 79.0585 66.6605 80.6716 66.756C81.7374 66.8193 83.02 67.1477 84.0321 67.4364C84.1297 69.642 83.5963 70.3032 83.5963 70.3032C83.5963 70.3032 83.7552 70.4008 84.0181 70.5393L83.9054 70.8613C83.2507 71.2391 82.4436 71.633 81.7095 71.7918C80.774 71.984 79.8646 72.2867 79.0005 72.6934L75.3696 74.4482C75.0454 74.5986 74.7648 74.8293 74.5545 75.1183C74.3442 75.4073 74.211 75.7452 74.1675 76.1C74.0881 76.8438 74.3124 77.7732 75.5274 78.5106C75.6025 79.1148 75.9717 79.82 76.9409 80.4661C78.8191 81.7154 83.7552 85.4579 84.427 85.9688C84.4399 86.8822 84.3197 88.7142 83.1928 88.9997C81.7803 89.3582 82.9169 90.717 84.0589 90.6633C84.3299 90.7658 84.6248 90.7875 84.9079 90.7256C86.1185 90.4379 90.5555 88.901 90.8581 86.602C90.8707 86.5024 90.8764 86.402 90.8753 86.3015C90.8929 85.9096 90.7951 85.5211 90.5941 85.1842C90.6415 85.2881 90.6799 85.3958 90.709 85.5062C90.3419 84.6691 89.4479 84.1431 88.7524 83.8469C88.7524 83.8394 88.7524 83.8308 88.7524 83.8233C88.645 83.7814 88.5377 83.7471 88.4497 83.716C88.4515 83.6538 88.4468 83.5915 88.4357 83.5303L81.4777 78.7359C81.4777 78.7359 84.5032 76.2427 87.6297 76.627C90.7562 77.0112 91.2542 76.4434 91.2542 76.4434C91.2542 76.4434 92.8577 74.9183 93.0187 73.1624L93.1195 73.1356C93.1195 73.1356 93.112 73.025 93.097 72.8222Z" fill="url(#paint0_linear)"/>
<path d="M84.5996 85.3098C84.5996 85.3098 84.884 88.4406 83.4609 88.8205C82.0377 89.2005 83.3664 90.7181 84.5041 90.4305C85.6418 90.1428 89.8179 88.6273 90.1023 86.352C90.3868 84.0766 87.256 83.3157 87.256 83.3157L84.5996 85.3098Z" fill="#B8616E"/>
<path opacity="0.05" d="M84.5996 85.3098C84.5996 85.3098 84.884 88.4406 83.4609 88.8205C82.0377 89.2005 83.3664 90.7181 84.5041 90.4305C85.6418 90.1428 89.8179 88.6273 90.1023 86.352C90.3868 84.0766 87.256 83.3157 87.256 83.3157L84.5996 85.3098Z" fill="black"/>
<path d="M85.1719 85.4042C85.1719 85.4042 85.4563 88.535 84.0331 88.9149C82.61 89.2948 83.9387 90.8125 85.0764 90.5248C86.214 90.2372 90.3902 88.7217 90.6746 86.4463C90.959 84.171 87.8283 83.41 87.8283 83.41L85.1719 85.4042Z" fill="#B8616E"/>
<path opacity="0.1" d="M88.1125 83.5068L85.4583 85.4999C85.4583 85.4999 85.4701 85.6352 85.4776 85.8509C86.48 85.5761 88.6641 84.8463 88.6974 83.7043C88.5066 83.6268 88.3112 83.5609 88.1125 83.5068Z" fill="black"/>
<path d="M86.4522 56.2272H85.3135V57.0815H86.4522V56.2272Z" fill="#F8BDC5"/>
<path d="M85.362 70.0316C85.362 70.0316 83.5535 71.4526 82.0681 71.7897C81.1849 71.9808 80.3287 72.2803 79.519 72.6815L76.1028 74.4181C75.7925 74.5742 75.5264 74.8056 75.3287 75.0912C75.1311 75.3768 75.0083 75.7074 74.9715 76.0527C74.8738 77.0187 75.2624 78.2894 77.5807 79.045L84.8865 85.1177L87.164 83.2201L79.3838 77.2441L85.362 73.5434V70.0316Z" fill="#86D0C1"/>
<path opacity="0.1" d="M85.362 70.0316C85.362 70.0316 83.5535 71.4526 82.0681 71.7897C81.1849 71.9808 80.3287 72.2803 79.519 72.6815L76.1028 74.4181C75.7925 74.5742 75.5264 74.8056 75.3287 75.0912C75.1311 75.3768 75.0083 75.7074 74.9715 76.0527C74.8738 77.0187 75.2624 78.2894 77.5807 79.045L84.8865 85.1177L87.164 83.2201L79.3838 77.2441L85.362 73.5434V70.0316Z" fill="black"/>
<path d="M84.3174 63.6759C84.3174 63.6759 80.8067 63.7703 78.3393 61.8727C75.8718 59.9752 73.121 60.544 73.6898 61.6828C74.2586 62.8215 77.2005 63.7703 77.6749 63.8648C78.1493 63.9592 84.9807 65.8578 84.9807 65.8578L84.3174 63.6759Z" fill="#F8BDC5"/>
<path opacity="0.05" d="M84.3174 63.6759C84.3174 63.6759 80.8067 63.7703 78.3393 61.8727C75.8718 59.9752 73.121 60.544 73.6898 61.6828C74.2586 62.8215 77.2005 63.7703 77.6749 63.8648C78.1493 63.9592 84.9807 65.8578 84.9807 65.8578L84.3174 63.6759Z" fill="black"/>
<path d="M84.6973 69.1796L83.5586 72.5958C83.5586 72.5958 77.1543 76.5337 76.6316 77.0553C76.2259 77.461 75.6828 79.0484 77.5804 80.376C79.478 81.7037 84.6963 85.8798 84.6963 85.8798C84.6963 85.8798 88.6814 85.0212 88.3969 83.4113L81.8499 78.6674C81.8499 78.6674 84.6963 76.1988 87.6381 76.5798C90.58 76.9609 91.0544 76.3899 91.0544 76.3899C91.0544 76.3899 93.3319 74.1102 92.572 71.9315C91.8121 69.7527 84.6973 69.1796 84.6973 69.1796Z" fill="#86D0C1"/>
<path d="M83.2742 53.7177C83.2742 53.7177 86.5005 57.2284 86.3105 58.2716C86.1205 59.3148 88.8724 55.2353 88.8724 55.2353C88.8724 55.2353 88.0138 53.1477 88.208 50.8702L83.2742 53.7177Z" fill="#F8BDC5"/>
<path opacity="0.1" d="M86.0895 56.9378C86.3096 56.7054 86.5413 56.4844 86.7839 56.2756C87.2694 55.8775 87.7148 55.4328 88.1137 54.948C88.7781 54.0893 91.2445 57.7943 91.2445 57.7943C91.2445 57.7943 92.7621 59.5019 92.5732 63.5825C92.3843 67.6631 92.8104 73.1186 92.8104 73.1186L92.2362 73.2785C91.7525 73.4399 91.238 73.4866 90.7332 73.4149C90.2283 73.3432 89.7471 73.155 89.3276 72.8653C88.5698 72.3416 87.6103 71.792 86.8805 71.7427C85.4573 71.6482 84.1758 70.8411 84.1758 70.8411C84.1758 70.8411 84.793 69.3707 83.8442 64.6257C82.8954 59.8808 85.3135 56.5085 85.3135 56.5085C85.3135 56.5085 85.5046 57.541 86.0895 56.9378Z" fill="black"/>
<path d="M93.1421 72.6901L92.5732 72.8801L92.2351 72.9928C91.7515 73.1542 91.2369 73.201 90.7321 73.1292C90.2273 73.0575 89.7461 72.8693 89.3265 72.5795C88.5699 72.0568 87.6093 71.5063 86.8794 71.4569C85.4584 71.3614 83.8485 70.3181 83.8485 70.3181C83.8485 70.3181 84.7973 69.0849 83.8485 64.3399C82.8997 59.595 85.3189 56.227 85.3189 56.227C85.3189 56.227 85.5099 57.2541 86.0949 56.6499C86.3145 56.4178 86.5459 56.1971 86.7882 55.9887C87.2737 55.5906 87.7191 55.1459 88.118 54.6611C88.7824 53.8025 91.2488 57.5074 91.2488 57.5074C91.2488 57.5074 92.7664 59.215 92.5775 63.2956C92.5571 63.725 92.5485 64.1672 92.5475 64.6147C92.5335 68.4334 93.1421 72.6901 93.1421 72.6901Z" fill="#FB2525"/>
<path opacity="0.1" d="M87.734 63.3912L87.8284 65.4787C87.8284 65.4787 82.799 65.7632 81.7558 64.7199C80.7126 63.6767 84.6 67.7884 85.4586 68.0407C86.2646 68.2779 88.3457 68.4871 89.4373 68.5086C89.7491 68.5186 90.0571 68.4379 90.3239 68.2761C90.5906 68.1143 90.8046 67.8785 90.9399 67.5974C91.0671 67.3208 91.1082 67.0122 91.0579 66.7119C90.8679 65.4787 91.0579 62.8213 91.0579 62.8213L87.734 63.3912Z" fill="black"/>
<path d="M87.7337 63.2015L87.8281 65.289C87.8281 65.289 82.7987 65.5735 81.7555 64.5302C80.7122 63.487 76.9375 63.7178 77.0116 64.5302C77.0588 65.0518 79.5735 66.7122 81.09 66.8077C82.6066 66.9033 84.5997 67.5987 85.4583 67.851C86.2643 68.0882 88.3454 68.2974 89.437 68.3189C89.7488 68.3289 90.0568 68.2482 90.3236 68.0864C90.5903 67.9246 90.8043 67.6888 90.9396 67.4077C91.0668 67.1311 91.1079 66.8226 91.0576 66.5222C90.8676 65.289 91.0576 62.6316 91.0576 62.6316L87.7337 63.2015Z" fill="#F8BDC5"/>
<path opacity="0.1" d="M88.8724 57.1286C88.8724 57.1286 86.6904 57.413 86.9748 60.6393C87.2592 63.8655 87.6392 64.15 87.6392 64.15C87.6392 64.15 90.8654 63.8656 91.2443 63.77C91.6232 63.6745 91.4343 60.1649 91.4343 60.1649C91.4343 60.1649 91.3388 57.0341 88.8724 57.1286Z" fill="black"/>
<path d="M88.8724 57.0343C88.8724 57.0343 86.6904 57.3187 86.9748 60.545C87.2592 63.7713 87.6392 64.0557 87.6392 64.0557C87.6392 64.0557 90.8654 63.7713 91.2443 63.6758C91.6232 63.5802 91.4343 60.0706 91.4343 60.0706C91.4343 60.0706 91.3388 56.9377 88.8724 57.0343Z" fill="#FB2525"/>
<path opacity="0.1" d="M88.0654 52.9065C87.9162 52.1552 88.2221 51.9233 88.3026 50.9617L83.3655 53.808C83.3655 53.808 83.9311 54.4241 84.574 55.2151C84.8613 55.2878 85.1567 55.3238 85.453 55.3224C86.7463 55.3278 87.4536 53.939 88.0654 52.9065Z" fill="black"/>
<path d="M85.3608 55.231C87.2997 55.231 88.8715 53.6592 88.8715 51.7203C88.8715 49.7814 87.2997 48.2096 85.3608 48.2096C83.4219 48.2096 81.8501 49.7814 81.8501 51.7203C81.8501 53.6592 83.4219 55.231 85.3608 55.231Z" fill="#F8BDC5"/>
<path opacity="0.1" d="M86.246 50.6547C85.7094 50.996 85.7018 51.7677 86.0474 52.3022C86.393 52.8367 86.9887 53.1898 87.5618 53.5225C87.7282 53.6191 87.9117 53.7189 88.0985 53.6975C88.2421 53.6695 88.3751 53.6022 88.4827 53.5032C88.8838 53.1903 89.2665 52.8545 89.629 52.4975C90.1506 51.9845 90.6518 51.3523 90.5703 50.6365C90.4779 49.824 89.6751 49.2122 89.351 48.4427C89.0784 47.7987 89.16 47.0764 88.9217 46.4185C88.6834 45.7605 87.8484 45.152 87.2238 45.4965C86.993 45.6232 86.8535 45.8496 86.6603 46.0203C86.1816 46.4431 85.4099 46.485 84.7552 46.2918C84.1005 46.0986 83.9062 45.3098 82.9929 45.3076C83.4469 45.4675 83.7538 45.9409 83.6841 46.3723C83.3181 46.5795 82.8373 46.4614 82.3961 46.4539C81.955 46.4464 81.4302 46.6932 81.5064 47.0903C81.5729 47.4123 82.0377 47.6517 81.969 47.9736C81.1627 48.3984 80.2838 48.6678 79.3781 48.7679C79.2139 48.7861 80.3644 49.7424 80.4954 49.8057C80.9751 50.0354 81.5515 50.2039 82.0591 50.3799C83.4383 50.8554 84.8507 51.025 86.246 50.6547Z" fill="black"/>
<path d="M86.246 50.5591C85.7094 50.9004 85.7018 51.6721 86.0474 52.2066C86.393 52.7411 86.9887 53.0942 87.5618 53.4269C87.7282 53.5235 87.9117 53.6233 88.0985 53.6019C88.2421 53.5739 88.3751 53.5067 88.4827 53.4076C88.8838 53.0947 89.2665 52.7589 89.629 52.402C90.1506 51.8889 90.6518 51.2568 90.5703 50.5409C90.4779 49.7284 89.6751 49.1166 89.351 48.3471C89.0784 47.7031 89.16 46.9808 88.9217 46.3229C88.6834 45.665 87.8484 45.0564 87.2238 45.4009C86.993 45.5276 86.8535 45.754 86.6603 45.9247C86.1816 46.3476 85.4099 46.3894 84.7552 46.1962C84.1005 46.003 83.9062 45.2142 82.9929 45.212C83.4469 45.372 83.7538 45.8453 83.6841 46.2767C83.3181 46.4839 82.8373 46.3658 82.3961 46.3583C81.955 46.3508 81.4302 46.5976 81.5064 46.9948C81.5729 47.3167 82.0377 47.5561 81.969 47.8781C81.1627 48.3028 80.2838 48.5722 79.3781 48.6723C79.2139 48.6905 80.3644 49.6468 80.4954 49.7102C80.9751 49.9398 81.5515 50.1083 82.0591 50.2844C83.4383 50.7609 84.8507 50.9273 86.246 50.5591Z" fill="#916168"/>
<path opacity="0.1" d="M90.4266 85.0459C90.579 85.3973 90.6321 85.7837 90.5801 86.1632C90.2957 88.4407 86.1206 89.9583 84.9819 90.2417C84.3819 90.3919 83.7283 90.041 83.4546 89.6192C83.6306 90.115 84.3883 90.6034 85.0774 90.4316C86.2161 90.1472 90.3912 88.6285 90.6756 86.3532C90.7378 85.9019 90.6503 85.4427 90.4266 85.0459Z" fill="white"/>
<path d="M60.2725 87.6335C60.1877 87.4424 59.7477 87.07 57.6258 86.9895C56.1726 86.9348 55.6778 86.1674 55.5436 85.4182C56.0212 85.356 56.3947 85.2701 56.5171 85.151C56.5171 85.151 56.5107 85.1166 56.4999 85.0555L56.5171 85.0426C56.4243 84.5022 56.3758 83.9552 56.3722 83.4069C56.3694 82.9377 56.4191 82.4697 56.5203 82.0116C56.5794 81.7088 56.6043 81.4002 56.5944 81.0918C56.6062 79.2673 55.9654 76.0603 55.9654 76.0603L55.8774 73.3953C55.8686 73.0628 55.7703 72.7388 55.593 72.4574C55.4156 72.176 55.1658 71.9476 54.8696 71.7961C54.6588 71.6871 54.4254 71.629 54.1881 71.6266C54.1881 71.6266 50.8244 71.0964 47.7967 70.8076C47.582 70.6348 46.8254 70.169 45.0909 70.4363L44.0928 67.5148C44.0847 67.4795 44.079 67.4436 44.0756 67.4075C44.111 67.0361 44.359 66.4769 45.5149 66.4415L45.7564 66.6562C45.7564 66.6562 45.7993 66.5714 45.8712 66.4415C47.3051 66.4254 55.1165 66.346 55.5189 66.4415C55.9622 66.5489 59.8453 65.6838 59.957 65.5765C61.466 64.105 55.5189 64.8187 55.5189 64.8187C54.934 64.9143 53.044 64.8005 51.1078 64.6427C52.0662 63.2056 52.9678 58.3275 52.9678 58.3275C52.9678 58.3275 56.4023 56.5963 55.4084 55.6229C54.4145 54.6494 51.4147 57.7866 51.4147 57.7866C51.4147 57.7866 50.1944 61.3574 49.6395 62.4393C49.4248 62.8686 49.1469 62.9566 48.8989 62.9072C49.0116 62.8171 49.0846 62.7634 49.0846 62.7634C49.0846 62.7634 46.644 60.8154 46.4218 60.0587C46.3804 59.9348 46.3257 59.8156 46.2587 59.7035C46.1417 59.0176 45.9367 58.3425 45.4365 57.8928C45.3525 57.8027 45.2598 57.721 45.1596 57.6492C45.0244 57.5526 44.8709 57.4689 44.7432 57.3637C44.8151 57.0331 44.8988 56.6897 44.9858 56.357C46.7975 56.1423 48.2056 54.6397 48.2056 52.8151C48.2053 52.54 48.1725 52.2658 48.1079 51.9984C48.3787 52.0162 48.6495 51.9637 48.8939 51.846C49.1384 51.7283 49.3483 51.5493 49.5032 51.3265C49.8692 50.7813 49.8574 50.0386 49.5504 49.4633C49.4235 49.2297 49.2572 49.0198 49.0589 48.8429C48.7426 48.5244 48.3569 48.2834 47.9319 48.1389C47.5638 48.0111 47.157 47.9349 46.8651 47.6849C46.7346 47.5142 46.6159 47.335 46.5098 47.1482C46.3873 46.9649 46.2432 46.7969 46.0805 46.6481C45.5439 46.0953 44.7861 45.7551 44.0144 45.6048C43.0742 45.4213 42.1029 45.4868 41.1466 45.5523C40.7892 45.5769 40.3696 45.6403 40.2086 45.9515C40.0873 46.1855 40.1667 46.4656 40.1506 46.7264C40.1002 47.5561 39.1514 48.0144 38.326 48.2151C37.5007 48.4158 36.5165 48.5896 36.1183 49.3173C35.7566 49.9742 36.011 50.7705 36.1269 51.5079C36.3199 52.8026 36.0325 54.1231 35.3187 55.2204C34.9559 55.7753 34.488 56.269 34.2014 56.8646C33.884 57.5287 33.8102 58.2832 33.9932 58.9962C34.0469 59.2044 34.1241 59.4169 34.0855 59.6294C34.0416 59.8046 33.9554 59.9664 33.8344 60.1006C33.3408 60.71 32.7266 61.2108 32.0303 61.5715C31.334 61.9323 30.5706 62.1451 29.7881 62.1967C29.8538 62.4146 29.9822 62.6083 30.1573 62.7537C30.3797 62.9737 30.6391 63.1528 30.9236 63.2829C31.6731 63.6587 32.4612 63.952 33.2741 64.1576C33.8215 64.296 34.3935 64.3948 34.9506 64.3003C35.5076 64.2059 36.0507 63.8871 36.2793 63.3827C36.4124 63.0907 36.4317 62.7602 36.5498 62.4629C36.7848 61.8683 37.3676 61.483 37.7615 60.9732C37.6289 62.2869 37.5662 63.6067 37.5737 64.9271C37.5737 65.3403 37.5737 65.7128 37.5737 66.0584C37.5737 67.5492 37.4663 68.5774 36.5422 70.4395C36.4321 70.6353 36.3838 70.8598 36.4038 71.0835C36.3837 71.2043 36.3954 71.3284 36.4377 71.4433C36.4801 71.5583 36.5516 71.6603 36.6453 71.7392C36.5809 72.1107 36.5496 72.4871 36.5519 72.8641C36.539 74.2207 36.9973 76.042 39.4272 76.5035L43.7536 76.2889C43.7536 76.2889 49.8552 75.0986 51.5188 75.9669C51.6561 75.9961 51.7793 76.0715 51.8677 76.1805C51.9562 76.2894 52.0047 76.4254 52.005 76.5658C51.9999 76.656 51.9859 76.7456 51.9632 76.833C51.9168 77.1142 51.8992 77.3994 51.9106 77.6842C51.9031 79.5087 52.2959 83.6495 52.2959 83.6495V85.4053C52.019 85.8218 51.6777 86.4379 51.7217 86.8918C51.7217 86.9015 51.7217 86.9122 51.7217 86.9219C51.7217 86.9316 51.7217 86.9487 51.7281 86.9616C51.7346 86.9745 51.7281 86.9852 51.7356 86.997C51.7431 87.0088 51.7421 87.0196 51.7453 87.0314C51.7485 87.0432 51.7539 87.0571 51.7592 87.0689C51.7646 87.0807 51.7668 87.0883 51.771 87.0979C51.7753 87.1076 51.785 87.1258 51.7925 87.1387L51.8054 87.1612C51.8183 87.1819 51.8326 87.2016 51.8483 87.2203C52.4032 87.8642 55.1755 89.1103 56.0642 89.0599C57.0076 89.0062 60.1684 89.1672 60.28 87.7612C60.2942 87.7193 60.2915 87.6735 60.2725 87.6335Z" fill="url(#paint1_linear)"/>
<path d="M52.3863 84.916C52.3863 84.916 51.0983 86.5259 51.635 87.1699C52.1716 87.8139 54.8548 89.0449 55.7134 88.9945C56.6257 88.9408 59.6846 89.1018 59.7919 87.7066C59.7919 87.7066 60.0066 87.0626 57.216 86.9553C54.4255 86.8479 55.2841 83.9501 55.2841 83.9501L52.3863 84.916Z" fill="#BEAEE3"/>
<path opacity="0.1" d="M37.0383 71.3926C37.0383 71.3926 35.7504 75.793 39.6142 76.5443L43.8 76.3297C43.8 76.3297 49.7031 75.1491 51.313 76.0077C51.313 76.0077 51.957 76.115 51.7423 76.9736C51.5276 77.8323 52.0643 83.628 52.0643 83.628V85.5599C52.0643 85.5599 55.7134 85.5599 56.1428 85.1306C56.1428 85.1306 55.8208 83.4133 56.1428 82.0181C56.4647 80.6228 55.6061 76.2223 55.6061 76.2223L55.5213 73.5735C55.515 73.2462 55.4216 72.9265 55.2507 72.6473C55.0798 72.3681 54.8376 72.1395 54.5489 71.985C54.3458 71.8774 54.1198 71.8199 53.8899 71.8176C53.8899 71.8176 46.5916 70.637 44.0158 70.8516C41.4399 71.0663 37.0383 71.3926 37.0383 71.3926Z" fill="black"/>
<path d="M37.0383 71.2854C37.0383 71.2854 35.7504 75.6859 39.6142 76.4372L43.8 76.2225C43.8 76.2225 49.7031 75.0419 51.313 75.9005C51.313 75.9005 51.957 76.0078 51.7423 76.8665C51.5276 77.7251 52.0643 83.5208 52.0643 83.5208V85.4527C52.0643 85.4527 55.7134 85.4527 56.1428 85.0234C56.1428 85.0234 55.8208 83.3062 56.1428 81.9109C56.4647 80.5156 55.6061 76.1152 55.6061 76.1152L55.5213 73.4663C55.515 73.139 55.4216 72.8193 55.2507 72.5401C55.0798 72.2609 54.8376 72.0323 54.5489 71.8779C54.3458 71.7702 54.1198 71.7128 53.8899 71.7104C53.8899 71.7104 46.5916 70.5298 44.0158 70.7445C41.4399 70.9591 37.0383 71.2854 37.0383 71.2854Z" fill="#86D0C1"/>
<path d="M48.093 62.5918C48.093 62.5918 48.9516 63.665 49.4883 62.5918C50.0249 61.5185 51.2055 57.9766 51.2055 57.9766C51.2055 57.9766 54.1034 54.8641 55.0693 55.8301C56.0353 56.796 52.7081 58.5133 52.7081 58.5133C52.7081 58.5133 51.5275 65.0603 50.4542 65.1676C49.3809 65.275 47.771 65.1676 47.771 65.1676L47.2344 63.987L48.093 62.5918Z" fill="#F8BDC5"/>
<path opacity="0.05" d="M48.093 62.5918C48.093 62.5918 48.9516 63.665 49.4883 62.5918C50.0249 61.5185 51.2055 57.9766 51.2055 57.9766C51.2055 57.9766 54.1034 54.8641 55.0693 55.8301C56.0353 56.796 52.7081 58.5133 52.7081 58.5133C52.7081 58.5133 51.5275 65.0603 50.4542 65.1676C49.3809 65.275 47.771 65.1676 47.771 65.1676L47.2344 63.987L48.093 62.5918Z" fill="black"/>
<path d="M44.2293 57.2253C44.2293 57.2253 46.1612 59.4792 46.3758 60.2305C46.5905 60.9818 48.9517 62.9137 48.9517 62.9137C48.9517 62.9137 47.2345 64.2017 47.5564 64.8456C47.8784 65.4896 45.3026 62.6991 45.3026 62.6991L42.2974 58.2986L44.2293 57.2253Z" fill="#EB6475"/>
<path opacity="0.1" d="M44.2293 57.2253C44.2293 57.2253 46.1612 59.4792 46.3758 60.2305C46.5905 60.9818 48.9517 62.9137 48.9517 62.9137C48.9517 62.9137 47.2345 64.2017 47.5564 64.8456C47.8784 65.4896 45.3026 62.6991 45.3026 62.6991L42.2974 58.2986L44.2293 57.2253Z" fill="black"/>
<path d="M45.5173 54.6495C45.5173 54.6495 44.5513 57.762 44.5513 58.9426C44.5513 60.1233 40.4729 58.6207 40.5802 57.9767C40.6875 57.3327 42.9414 54.9715 43.0488 54.0055C43.1561 53.0396 45.5173 54.6495 45.5173 54.6495Z" fill="#F8BDC5"/>
<path opacity="0.1" d="M42.2974 56.7958C42.2974 56.7958 38.541 55.8299 38.0043 61.3036C37.4677 66.7774 38.4336 67.4213 36.8237 70.7485C35.2138 74.0757 47.7712 71.1778 47.7712 71.1778C47.7712 71.1778 47.1272 70.4265 45.088 70.7485L44.122 67.8506C44.122 67.8506 43.8 66.5627 45.6246 66.5627C47.4492 66.5627 46.5906 62.8062 46.5906 62.8062C46.5906 62.8062 45.6246 59.5864 45.088 59.2644C44.5513 58.9424 43.5854 57.0105 42.2974 56.7958Z" fill="black"/>
<path d="M42.2974 56.5812C42.2974 56.5812 38.541 55.6153 38.0043 61.089C37.4677 66.5628 38.4336 67.2067 36.8237 70.5339C35.2138 73.8611 47.7712 70.9632 47.7712 70.9632C47.7712 70.9632 47.1272 70.2119 45.088 70.5339L44.122 67.636C44.122 67.636 43.8 66.3481 45.6246 66.3481C47.4492 66.3481 46.5906 62.5916 46.5906 62.5916C46.5906 62.5916 45.6246 59.3718 45.088 59.0498C44.5513 58.7278 43.5854 56.7959 42.2974 56.5812Z" fill="#EB6475"/>
<path d="M46.054 64.309C46.054 64.309 53.8889 65.1676 55.1769 64.9529C55.1769 64.9529 60.9297 64.2446 59.47 65.7042C59.3627 65.8116 55.6062 66.6702 55.1769 66.5629C54.7476 66.4555 45.6247 66.5629 45.6247 66.5629L45.5173 65.4896L46.054 64.309Z" fill="#F8BDC5"/>
<path opacity="0.1" d="M40.0434 61.6256L45.7318 66.7773C45.7318 66.7773 46.8051 64.6308 47.1271 64.6308C47.4491 64.6308 43.2633 58.2984 43.2633 58.2984C43.2633 58.2984 42.19 57.0105 41.546 57.6544C40.9021 58.2984 38.9702 57.8691 40.0434 61.6256Z" fill="black"/>
<path d="M39.9363 61.411L45.6247 66.5627C45.6247 66.5627 46.6979 64.4162 47.0199 64.4162C47.3419 64.4162 43.1561 58.0838 43.1561 58.0838C43.1561 58.0838 42.0828 56.7959 41.4389 57.4398C40.7949 58.0838 38.863 57.6545 39.9363 61.411Z" fill="#EB6475"/>
<path d="M44.5514 56.5812C46.5075 56.5812 48.0932 54.9955 48.0932 53.0394C48.0932 51.0833 46.5075 49.4976 44.5514 49.4976C42.5953 49.4976 41.0095 51.0833 41.0095 53.0394C41.0095 54.9955 42.5953 56.5812 44.5514 56.5812Z" fill="#F8BDC5"/>
<path opacity="0.1" d="M47.653 52.1497C48.254 52.3869 48.9903 52.1025 49.3445 51.5626C49.6987 51.0228 49.6879 50.2876 49.3896 49.7144C49.0912 49.1413 48.5395 48.7249 47.931 48.5081C47.5618 48.3771 47.1507 48.302 46.8674 48.0315C46.6881 47.8609 46.5819 47.6301 46.4477 47.4219C45.9465 46.6406 45.0524 46.1791 44.1434 45.9977C43.2343 45.8163 42.2941 45.8807 41.3689 45.9451C41.0233 45.9698 40.6176 46.032 40.4609 46.3411C40.344 46.5729 40.4202 46.8509 40.4051 47.1096C40.3568 47.9328 39.4392 48.3889 38.6374 48.5864C37.8357 48.7839 36.9062 48.9696 36.5156 49.6951C36.1657 50.3466 36.4157 51.1365 36.5241 51.8685C36.7095 53.1471 36.4324 54.4499 35.7428 55.5424C35.3918 56.093 34.94 56.5824 34.662 57.1738C34.3545 57.8346 34.2833 58.581 34.4602 59.2881C34.5128 59.4953 34.5869 59.7056 34.5504 59.916C34.5083 60.0889 34.4251 60.2491 34.3078 60.3829C33.8374 60.9847 33.246 61.4812 32.5718 61.8402C31.8975 62.1993 31.1555 62.4128 30.3936 62.4672C30.5159 62.9276 30.9613 63.2185 31.3853 63.4331C32.1087 63.8052 32.8711 64.0961 33.6585 64.3003C34.1876 64.4377 34.7414 64.5354 35.2802 64.442C35.819 64.3486 36.3438 64.032 36.5681 63.5319C36.6969 63.2421 36.7163 62.9147 36.83 62.6185C37.0865 61.9541 37.7702 61.5527 38.1373 60.942C38.4882 60.3582 38.6246 60.2895 38.7136 59.6155C38.8027 58.9414 38.9991 58.2138 39.5529 57.8177C40.1325 57.4024 40.9482 57.4818 41.5922 57.8005C42.2361 58.1193 42.6343 57.9948 43.172 58.4628C44.1153 59.2822 45.1711 59.9624 46.3071 60.4827C46.1998 59.5468 46.027 58.5025 45.2671 57.9454C45.0524 57.7855 44.7809 57.6632 44.6671 57.4185C44.4857 57.0289 44.7959 56.5534 44.6553 56.1466C44.5147 55.7398 43.9802 55.5896 43.743 55.2204C43.5413 54.907 43.596 54.4809 43.7849 54.1589C43.9738 53.8369 44.2722 53.5986 44.5695 53.3733C44.8335 53.1736 45.1011 52.9786 45.3723 52.7883C45.6173 52.6328 45.8373 52.441 46.0248 52.2195C46.1322 52.0724 46.203 51.7505 46.3522 51.6464C46.7278 51.3866 47.3053 52.0134 47.653 52.1497Z" fill="black"/>
<path d="M47.5458 52.0425C48.1469 52.2797 48.8831 51.9953 49.2373 51.4555C49.5915 50.9156 49.5808 50.1804 49.2824 49.6073C48.984 49.0341 48.4324 48.6177 47.8238 48.4009C47.4546 48.27 47.0435 48.1948 46.7602 47.9244C46.5809 47.7537 46.4747 47.523 46.3405 47.3147C45.8393 46.5334 44.9453 46.0719 44.0362 45.8905C43.1271 45.7091 42.1869 45.7735 41.2618 45.8379C40.9162 45.8626 40.5105 45.9248 40.3538 46.2339C40.2368 46.4658 40.313 46.7437 40.298 47.0024C40.2497 47.8256 39.332 48.2818 38.5303 48.4792C37.7285 48.6767 36.7991 48.8624 36.4084 49.5879C36.0585 50.2394 36.3086 51.0294 36.417 51.7613C36.6023 53.0399 36.3253 54.3427 35.6356 55.4352C35.2847 55.9858 34.8328 56.4752 34.5548 57.0666C34.2473 57.7274 34.1761 58.4738 34.353 59.1809C34.4056 59.3881 34.4797 59.5984 34.4432 59.8088C34.4011 59.9817 34.3179 60.1419 34.2006 60.2757C33.7303 60.8775 33.1388 61.374 32.4646 61.7331C31.7904 62.0921 31.0483 62.3057 30.2864 62.36C30.4087 62.8204 30.8541 63.1113 31.2781 63.326C32.0015 63.698 32.7639 63.9889 33.5513 64.1932C34.0804 64.3305 34.6342 64.4282 35.173 64.3348C35.7118 64.2415 36.2367 63.9248 36.461 63.4247C36.5898 63.1349 36.6091 62.8076 36.7228 62.5113C36.9794 61.847 37.663 61.4456 38.0301 60.8349C38.3811 60.251 38.5174 60.1823 38.6065 59.5083C38.6955 58.8343 38.892 58.1066 39.4458 57.7105C40.0253 57.2952 40.841 57.3746 41.485 57.6934C42.129 58.0121 42.5272 57.8876 43.0649 58.3556C44.0082 59.175 45.0639 59.8552 46.1999 60.3755C46.0926 59.4396 45.9198 58.3953 45.1599 57.8383C44.9453 57.6783 44.6737 57.556 44.56 57.3113C44.3786 56.9217 44.6887 56.4462 44.5481 56.0394C44.4075 55.6327 43.8731 55.4824 43.6359 55.1132C43.4341 54.7998 43.4888 54.3737 43.6777 54.0517C43.8666 53.7297 44.165 53.4915 44.4623 53.2661C44.7263 53.0665 44.9939 52.8715 45.2651 52.6811C45.5101 52.5256 45.7302 52.3338 45.9177 52.1123C46.025 51.9653 46.0958 51.6433 46.245 51.5392C46.6207 51.2794 47.1981 51.9062 47.5458 52.0425Z" fill="#916168"/>
<g opacity="0.1">
<path opacity="0.1" d="M55.1617 84.7959C55.1697 84.5103 55.2108 84.2265 55.284 83.9502L55.2304 83.9684C55.1768 84.2409 55.1538 84.5184 55.1617 84.7959Z" fill="white"/>
<path opacity="0.1" d="M55.7134 88.78C54.8548 88.8305 52.1716 87.5994 51.635 86.9554C51.5645 86.8682 51.5212 86.7622 51.5105 86.6506C51.4947 86.7411 51.4976 86.8339 51.5191 86.9232C51.5405 87.0126 51.5799 87.0966 51.635 87.1701C52.1716 87.8141 54.8548 89.0451 55.7134 88.9947C56.6257 88.941 59.6846 89.102 59.7919 87.7067C59.7999 87.6682 59.7946 87.6281 59.7769 87.593C59.5311 88.8788 56.6032 88.7274 55.7134 88.78Z" fill="white"/>
</g>
<path d="M60.0602 56.7423H59.9529V61.1428H60.0602V56.7423Z" fill="#FFD77C" stroke="#FFAB50" stroke-width="0.026832" stroke-miterlimit="10"/>
<path d="M60.1676 56.7423H60.0603V61.1428H60.1676V56.7423Z" fill="#FFD77C" stroke="#FFAB50" stroke-width="0.026832" stroke-miterlimit="10"/>
<path d="M60.2748 56.7423H60.1675V61.1428H60.2748V56.7423Z" fill="#FFD77C" stroke="#FFAB50" stroke-width="0.026832" stroke-miterlimit="10"/>
<path d="M60.3822 56.7423H60.2749V61.1428H60.3822V56.7423Z" fill="#FFD77C" stroke="#FFAB50" stroke-width="0.026832" stroke-miterlimit="10"/>
<path d="M60.4894 56.7423H60.3821V61.1428H60.4894V56.7423Z" fill="#FFD77C" stroke="#FFAB50" stroke-width="0.026832" stroke-miterlimit="10"/>
<path d="M60.5971 56.7423H60.4897V61.1428H60.5971V56.7423Z" fill="#FFD77C" stroke="#FFAB50" stroke-width="0.026832" stroke-miterlimit="10"/>
<path d="M60.7043 56.7423H60.5969V61.1428H60.7043V56.7423Z" fill="#FFD77C" stroke="#FFAB50" stroke-width="0.026832" stroke-miterlimit="10"/>
</g>
<defs>
<linearGradient id="paint0_linear" x1="83.0972" y1="90.7653" x2="83.0972" y2="44.9362" gradientUnits="userSpaceOnUse">
<stop stop-color="#808080" stop-opacity="0.25"/>
<stop offset="0.54" stop-color="#808080" stop-opacity="0.12"/>
<stop offset="1" stop-color="#808080" stop-opacity="0.1"/>
</linearGradient>
<linearGradient id="paint1_linear" x1="11663.4" y1="31341.1" x2="11663.4" y2="13649.1" gradientUnits="userSpaceOnUse">
<stop stop-color="#808080" stop-opacity="0.25"/>
<stop offset="0.54" stop-color="#808080" stop-opacity="0.12"/>
<stop offset="1" stop-color="#808080" stop-opacity="0.1"/>
</linearGradient>
<clipPath id="clip0">
<rect width="97" height="70.5296" fill="white" transform="translate(20 25)"/>
</clipPath>
</defs>
</svg>
