<svg width="136" height="106" viewBox="0 0 136 106" fill="none" xmlns="http://www.w3.org/2000/svg">
<path d="M66.1352 79.4336L58.1255 79.4056C58.1255 79.4056 56.6334 75.3002 58.6031 72.4159C62.6266 66.5258 57.1766 63.4203 55.0914 61.7788C51.945 59.3025 50.5653 56.1129 54.3672 54.0571C58.6686 51.7335 54.9041 45.4976 49.2449 42.2302C43.7043 39.0344 46.2015 27.3631 58.8309 33.1847C66.3724 36.6609 65.1613 44.6473 65.5109 48.8274C65.8605 53.0075 72.0847 53.3719 69.9371 58.4677C68.1017 62.8191 64.6337 65.9869 67.262 68.9927C69.8903 71.9985 70.1525 75.3594 66.1352 79.4336Z" fill="url(#paint0_linear)"/>
<path opacity="0.1" d="M110.657 90.8881C110.575 90.9484 110.5 91.0071 110.42 91.0641C110.124 91.2753 109.815 91.466 109.494 91.6349C107.812 92.5312 105.738 92.969 103.718 93.2664C99.1881 93.9338 94.5633 94.0635 89.9581 94.1907C77.5149 94.536 65.0414 94.8805 52.6284 94.085C47.724 93.7711 42.7117 93.2457 38.2675 91.6349C37.6305 91.4047 37.006 91.1508 36.3941 90.8733C35.1557 90.3107 33.9664 89.6259 32.9773 88.8081C32.048 88.0415 31.2943 87.1609 30.8439 86.1597C29.9048 84.0748 30.4017 81.7329 31.4742 79.6892C31.9196 78.8624 32.4219 78.0683 32.9773 77.3126C33.8054 76.1619 34.7184 75.0443 35.5513 73.8944C38.5152 69.807 40.4492 64.6359 37.7133 60.4436C36.927 59.2392 35.7908 58.1818 35.15 56.9246C34.3326 55.3162 34.3955 53.5303 34.6555 51.7956C34.6892 51.5753 34.7249 51.3572 34.7625 51.1413C35.2064 48.569 36.0418 45.7975 38.6174 44.1916C41.2927 42.523 45.092 42.6073 48.4123 43.2004C53.5758 44.1322 58.3387 46.0718 63.1524 47.823C67.966 49.5743 73.002 51.1744 78.2922 51.3462C82.9636 51.4982 88.4124 50.3607 91.5128 47.4042C94.5241 44.5328 100.185 44.3139 104.264 46.0486C107.065 47.239 109.154 49.3834 110.035 51.7956C110.213 52.2798 110.342 52.7814 110.418 53.2924C110.489 53.7593 110.512 54.2324 110.487 54.7041C110.475 54.9371 110.451 55.1675 110.418 55.3955C109.737 60.1553 104.83 63.9098 101.847 68.1615C100.39 70.2382 99.3606 72.7329 100.363 74.9724C101.891 78.3848 107.207 79.5983 110.417 82.1376C111.021 82.5998 111.553 83.1512 111.994 83.7733C113.551 86.0334 112.977 89.0857 110.657 90.8881Z" fill="#86D0C1"/>
<path d="M100.862 52.1807H89.1116C87.5213 47.8774 86.8305 43.8762 89.1116 40.8727C89.1116 40.1015 89.2635 39.3378 89.5588 38.6253C89.854 37.9128 90.2868 37.2654 90.8323 36.7201C91.3779 36.1747 92.0255 35.7422 92.7383 35.447C93.4511 35.1519 94.215 35 94.9866 35H94.9866C95.9242 34.9993 96.8483 35.2232 97.6816 35.653C98.5148 36.0828 99.2329 36.7059 99.7756 37.4702C100.704 38.7737 100.89 40.454 100.358 41.963C99.4089 44.6524 99.9882 48.3223 100.862 52.1807Z" fill="#532525"/>
<path d="M107.067 94.5703C106.727 94.5703 106.396 94.4613 106.122 94.2594C105.849 94.0575 105.647 93.7732 105.547 93.4483L105.063 91.8757C104.951 91.5118 104.93 91.1261 105.001 90.752L105.33 89.01H107.643L108.602 92.5671C108.666 92.8027 108.674 93.0497 108.627 93.2891C108.58 93.5285 108.478 93.7538 108.329 93.9475C108.181 94.1412 107.99 94.2981 107.771 94.4061C107.552 94.5141 107.311 94.5703 107.067 94.5703Z" fill="#532525"/>
<path d="M90.2185 94.5703C90.5585 94.5703 90.8896 94.4613 91.1631 94.2594C91.4366 94.0575 91.6382 93.7732 91.7382 93.4483L92.2223 91.8757C92.3343 91.5118 92.3558 91.1261 92.285 90.752L91.9553 89.01H89.6428L88.6833 92.5671C88.6197 92.8027 88.6113 93.0497 88.6586 93.2891C88.7059 93.5285 88.8078 93.7538 88.9562 93.9475C89.1047 94.1412 89.2957 94.2981 89.5146 94.4061C89.7335 94.5141 89.9744 94.5703 90.2185 94.5703Z" fill="#532525"/>
<path d="M107.83 89.1975H105.268L94.1429 68.0808L92.0905 89.1975H89.8304C88.6709 75.8999 85.8499 63.2336 89.8304 58.4596L99.1429 59.3343L107.83 89.1975Z" fill="#532525"/>
<path d="M94.6741 44.1838C96.4 44.1838 97.7991 42.7853 97.7991 41.0601C97.7991 39.3348 96.4 37.9363 94.6741 37.9363C92.9482 37.9363 91.5491 39.3348 91.5491 41.0601C91.5491 42.7853 92.9482 44.1838 94.6741 44.1838Z" fill="#F7A46F"/>
<path d="M99.0803 53.0866H92.1428L90.9553 47.5888C93.2592 46.9084 93.8084 45.326 93.3303 43.2155L97.0803 42.9656C97.2929 44.6657 97.6817 46.2509 100.08 46.5267L99.0803 53.0866Z" fill="#F7A46F"/>
<path d="M99.0803 59.9589C95.1443 61.4528 91.9423 61.4062 89.7053 59.3342C90.7148 56.0066 90.7752 51.909 90.3303 47.4014L91.5803 46.8391L92.0178 50.8375L98.2053 50.5251L99.5803 46.1519L100.955 46.4642C101.061 51.8865 100.736 56.7644 99.0803 59.9589Z" fill="#E6E6E6"/>
<path d="M102.705 66.7064L103.44 69.0939C103.5 69.2873 103.513 69.492 103.479 69.6914C103.445 69.8909 103.365 70.0797 103.244 70.2424C103.124 70.4052 102.967 70.5375 102.787 70.6287C102.606 70.7199 102.406 70.7673 102.204 70.7673C102.022 70.7673 101.843 70.7293 101.678 70.6556C101.512 70.582 101.364 70.4744 101.243 70.3398C101.121 70.2052 101.03 70.0466 100.974 69.8743C100.917 69.7021 100.898 69.52 100.917 69.3398L101.205 66.5815L100.018 57.2102L100.893 53.0868H103.08L102.705 66.7064Z" fill="#F7A46F"/>
<path d="M85.2005 66.2097L83.9091 68.3482C83.8044 68.5214 83.7419 68.7168 83.7266 68.9186C83.7113 69.1204 83.7435 69.3229 83.8208 69.51C83.898 69.697 84.0181 69.8633 84.1714 69.9956C84.3247 70.1278 84.5069 70.2222 84.7033 70.2712C84.8791 70.3151 85.0622 70.3215 85.2407 70.2901C85.4192 70.2588 85.5891 70.1902 85.7394 70.089C85.8897 69.9878 86.017 69.8562 86.1132 69.7026C86.2093 69.549 86.2721 69.377 86.2975 69.1976L86.6861 66.4517L90.1088 57.6468L90.799 53.4303L88.1365 52.9048L85.2005 66.2097Z" fill="#F7A46F"/>
<path d="M104.643 53.5865L100.518 53.524V46.3394L101.153 46.4319C101.827 46.5302 102.448 46.8522 102.917 47.3462C103.386 47.8402 103.675 48.4774 103.738 49.1555L104.643 53.5865Z" fill="#E6E6E6"/>
<path d="M87.0181 54.3361L91.1431 54.2737V47.089L90.5079 47.1816C89.8339 47.2798 89.2124 47.6018 88.7435 48.0958C88.2746 48.5898 87.9855 49.227 87.9227 49.9051L87.0181 54.3361Z" fill="#E6E6E6"/>
<path d="M97.5491 39.5606C96.2216 40.3114 93.6705 40.6548 91.7991 40.1229L91.1741 36.8741H97.3616L97.5491 39.5606Z" fill="#532525"/>
<path d="M48.4045 78.1215H28.0505V94.5197H48.4045V78.1215Z" fill="#E6E6E6"/>
<path d="M39.9491 89.762H36.5061V94.4183H39.9491V89.762Z" fill="#86D0C1"/>
<path d="M73.4194 78.6056L73.9612 77.1615L79.0174 74.2734L82.4484 73.5514L73.4194 78.6056Z" fill="#86D0C1"/>
<path d="M54.8197 78.6056L54.278 77.1615L49.2218 74.2734L45.7908 73.5514L54.8197 78.6056Z" fill="#86D0C1"/>
<path d="M73.7806 78.9668H54.4587L52.8335 71.3855H75.4058L73.7806 78.9668Z" fill="#86D0C1"/>
<path opacity="0.1" d="M73.7806 78.9668H54.4587L52.8335 71.3855H75.4058L73.7806 78.9668Z" fill="black"/>
<path d="M73.8706 78.5153H54.3682V94.5196H73.8706V78.5153Z" fill="#86D0C1"/>
<path d="M65.8412 89.7599H62.3982V94.4162H65.8412V89.7599Z" fill="#395B54"/>
<path d="M111.851 94.5389H24V94.318H111.891L111.851 94.5389Z" fill="#395B54"/>
<path d="M68.1702 81.7909H60.0691V84.3215H68.1702V81.7909Z" fill="white"/>
<path d="M42.2244 81.7909H34.1233V84.3215H42.2244V81.7909Z" fill="white"/>
<defs>
<linearGradient id="paint0_linear" x1="52.1215" y1="32.8731" x2="67.8504" y2="78.1629" gradientUnits="userSpaceOnUse">
<stop stop-color="#86D0C1"/>
<stop offset="0.9964" stop-color="#F36F56"/>
</linearGradient>
</defs>
</svg>
