<svg width="136" height="106" viewBox="0 0 136 106" fill="none" xmlns="http://www.w3.org/2000/svg">
<path opacity="0.1" d="M105.376 88.2426C105.303 88.3319 105.236 88.4188 105.165 88.5033C104.902 88.8163 104.627 89.0989 104.342 89.3492C102.847 90.6773 101.004 91.3261 99.2086 91.7668C95.1825 92.7559 91.0721 92.9481 86.9792 93.1366C75.9202 93.6483 64.8343 94.1588 53.8022 92.9799C49.4434 92.5148 44.9887 91.7362 41.0389 89.3492C40.4727 89.008 39.9177 88.6318 39.3738 88.2205C38.2732 87.3869 37.2162 86.3721 36.3372 85.1602C35.5112 84.0242 34.8414 82.7193 34.4411 81.2357C33.6064 78.146 34.0481 74.6756 35.0012 71.6471C35.397 70.4219 35.8435 69.2451 36.3372 68.1253C37.0731 66.4201 37.8845 64.7638 38.6248 63.0598C41.259 57.0029 42.9778 49.3398 40.5463 43.1274C39.8474 41.3426 38.8377 39.7757 38.2681 37.9126C37.5416 35.5292 37.5976 32.8827 37.8286 30.312C37.8586 29.9856 37.8903 29.6624 37.9238 29.3425C38.3182 25.5306 39.0607 21.4236 41.3498 19.0439C43.7275 16.5712 47.1041 16.696 50.055 17.575C54.6441 18.9558 58.8773 21.83 63.1554 24.4252C67.4336 27.0203 71.9094 29.3915 76.6111 29.6461C80.7628 29.8713 85.6055 28.1857 88.361 23.8045C91.0373 19.5495 96.068 19.2251 99.6938 21.7957C102.183 23.5597 104.04 26.7375 104.823 30.312C104.981 31.0296 105.095 31.7729 105.163 32.5301C105.226 33.2221 105.247 33.9231 105.224 34.6221C105.214 34.9673 105.192 35.3089 105.163 35.6467C104.558 42.7002 100.197 48.2638 97.5457 54.5644C96.2504 57.6418 95.3358 61.3387 96.2264 64.6573C97.5849 69.7142 102.309 71.5124 105.162 75.2754C105.699 75.9602 106.171 76.7773 106.564 77.6992C107.948 81.0484 107.437 85.5715 105.376 88.2426Z" fill="#86D0C1"/>
<path d="M54.3772 90.5202C54.6994 90.7355 55.1558 90.7894 55.3438 91.1931C55.2901 91.2739 55.2095 91.4084 55.317 91.5161C55.4781 91.7045 55.4244 92.0544 55.4512 92.2698C55.5318 92.5389 55.4512 92.9427 55.8003 93.0772C56.203 93.2657 56.391 93.8578 56.9012 93.9386C58.0558 94.1001 59.2372 93.9386 60.2576 93.5079C60.6067 93.3464 60.6067 93.1311 60.2307 92.6735C59.9085 92.2967 59.5326 92.0544 59.1567 91.7853C59.0761 91.7314 58.6197 91.4354 58.4586 91.3815C58.4854 91.0316 58.2437 90.7894 58.19 90.4664C58.0021 89.5781 57.8947 88.7437 58.0289 87.9363C58.2974 86.2675 61.0363 79.8345 61.627 78.4617C61.9492 77.6812 61.9761 77.7081 62.1103 78.4887C62.2714 79.4038 62.4863 81.7724 62.5937 81.9609C62.7279 82.2838 62.889 82.3377 63.1038 82.1493C63.3723 82.553 62.9159 83.6566 63.6946 83.4682C63.8288 83.6566 63.7751 83.9257 63.8557 84.1411C63.9362 84.4102 64.1242 84.4102 64.2047 84.168C64.2316 84.1142 64.2584 84.0334 64.2853 83.9796C64.6881 84.3833 64.527 85.0831 64.8492 85.5407C64.8492 86.0521 65.1982 85.783 65.3056 85.5407C65.3862 85.2985 65.4399 84.491 65.3862 84.1411C65.8427 84.1142 65.7353 83.7104 65.7353 83.3874C65.7353 82.7683 65.5473 82.1224 65.413 81.5571C65.9232 81.6379 66.0575 81.611 66.0306 81.2072C65.9769 80.4536 64.0436 74.8011 63.7483 74.3974C63.9094 73.9398 64.7149 72.5671 64.9297 72.2979C65.4936 73.4553 65.4936 74.9626 65.1982 76.1739C65.3593 76.7391 65.7084 77.1429 66.0306 77.6004C66.1917 77.8158 67.4537 79.9152 67.6954 80.8304C67.776 81.1534 67.8297 81.5033 67.8565 81.8801C67.9102 82.6338 68.3667 83.2528 68.85 83.8719C69.9778 85.3254 70.1389 86.2405 70.7028 88.017C71.1324 89.309 71.2398 89.7666 72.1796 89.6858C72.6898 89.6589 72.9851 89.7935 73.0657 90.0896C73.2268 90.6279 73.361 91.2469 74.0055 91.4084C74.7573 91.5969 76.8786 91.3815 77.1202 91.3546C77.7378 91.2469 78.0332 91.1662 77.6573 90.5202C77.4693 90.1972 76.986 89.632 76.3415 89.3359C76.0193 89.0398 74.6231 87.3979 74.1934 86.6174C72.3407 83.3067 72.0185 80.8304 71.9648 78.3272C71.9379 77.2774 72.099 76.0124 72.1527 75.0165C73.5759 75.7163 73.8444 74.8819 73.7907 74.1013C73.7907 73.9129 73.737 73.6976 73.7101 73.5092C75.1869 73.1323 76.4221 72.4594 77.4961 71.302C77.7915 71.1136 78.0332 71.329 78.3554 71.4097C79.3757 71.8942 80.3155 72.1634 81.1479 72.5671C82.8127 73.2131 84.3969 72.9708 85.6321 72.917C86.6256 72.8632 87.5922 72.7017 88.5857 72.6209C91.7542 72.4594 92.9894 72.7555 96.1847 72.0019C97.5809 71.7058 98.7624 71.9211 100.024 72.4056C99.9976 73.1593 99.7827 73.9667 99.7022 74.7742C99.6216 76.5507 99.3531 78.4079 99.5679 80.2382C99.6485 81.5033 98.6281 85.2446 98.1717 86.9942C98.0106 87.5325 97.8494 88.0708 97.6078 88.5822C97.2856 89.4974 97.4467 89.8473 98.0374 90.0626C98.4133 90.1972 98.7892 90.3318 99.0041 90.7086C99.1115 91.0316 99.0846 91.4892 99.3263 91.7045C99.6216 92.0814 100.024 92.2698 100.454 92.3774C101.635 92.6735 102.79 92.6735 103.918 92.2159C104.374 92.0275 104.347 91.8122 103.998 91.3546C103.569 90.7625 102.763 90.1434 102.146 89.9011C102.199 88.9322 101.662 88.1785 101.609 87.2364C102.038 83.7104 102.495 82.4453 103.676 79.673C104.267 78.4348 105.69 77.3582 106.12 76.3085C106.147 76.2546 106.2 76.2815 106.2 76.3085C106.496 77.8158 106.603 79.5115 107.596 80.7496C107.731 80.9111 107.919 82.3377 108.08 83.9527C108.187 85.1101 108.536 88.7437 108.429 90.0357C108.295 90.8701 108.268 91.4354 109.1 91.543C109.261 91.5699 109.449 91.5699 109.637 91.6238C109.745 92.0544 109.771 92.5389 110.121 92.8888C110.335 93.1042 110.631 93.1849 110.926 93.2118C111.544 93.2657 113.745 93.1849 114.202 93.2118C115.652 93.2926 115.276 92.5928 115.034 92.1621C114.632 91.4892 113.557 90.5202 112.913 90.5471C112.698 90.601 112.027 89.9819 111.973 89.5243C111.678 87.0749 111.356 81.3149 111.705 80.8035C112.403 79.8883 112.779 79.1077 112.671 77.9773C112.537 77.2236 113.477 76.47 113.638 75.6355C113.772 73.9937 116.269 73.3208 117.048 71.5443C117.719 70.1716 117.854 69.6871 118.176 68.6104C118.74 66.6725 119.384 66.5648 119.653 64.2231C119.787 63.1195 120.136 62.6081 120.78 61.8006C121.559 60.8316 121.855 60.9393 122.902 61.666C124.029 62.4735 124.942 62.5543 125.667 61.989C125.909 61.7737 126.178 61.6391 126.554 61.8275C126.876 61.989 127.762 62.312 128.03 62.4197C129.078 62.8234 129.722 62.6889 130.205 61.9352C130.34 61.7199 130.957 61.2892 131.145 61.3161C131.36 61.343 131.951 61.0739 132.031 60.6971C132.246 60.1587 132.004 59.6204 131.87 59.1359C132.058 57.7901 131.145 57.0634 130.608 55.6099C130.232 54.2641 129.4 53.3758 129.319 51.9224C129.292 51.5186 129.615 51.1687 129.48 50.8996C129.937 50.4689 130.071 49.8498 130.071 49.2038C130.232 49.0154 130.742 48.9885 130.528 48.6386C130.259 48.5848 130.42 48.2618 130.286 48.1003C130.152 47.8311 129.937 47.7234 129.964 47.4543C133.347 48.9347 132.031 47.4004 135.441 47.2928C136.408 47.2659 135.844 46.8083 135.764 46.5122C134.743 43.9283 133.562 43.0939 130.903 43.5514C130.528 43.6322 130.501 43.4707 130.742 43.2553C132.004 41.9903 133.052 40.3753 133.481 38.5988C133.642 37.9529 133.427 37.7914 133.078 38.3028C132.085 39.7832 130.501 41.1828 129.051 42.2864C128.567 42.6632 127.842 42.7709 127.117 42.717C126.903 42.3671 126.688 41.9095 126.312 41.6135C125.372 41.0482 123.6 41.0213 122.553 41.5327C121.881 41.775 122.15 42.5555 121.452 42.9862C120.163 43.8206 118.23 44.4127 115.625 41.9365C113.88 40.0523 112.403 39.3256 111.033 39.1103C109.933 38.9488 110.04 39.1372 110.792 39.5947C112.564 40.6714 113.933 42.9593 115.41 44.4397C115.195 44.6281 114.981 44.6012 114.712 44.5742C113.799 44.4397 112.752 44.4935 111.839 44.6281C109.449 45.4356 106.442 45.7047 103.998 45.0049C99.9707 44.5204 96.3189 43.1477 90.4653 43.9283C84.1284 44.6281 74.0323 44.4935 68.3935 43.686C66.0038 43.3361 63.2918 44.3589 61.7613 44.8972C59.9622 45.5432 58.5928 46.6468 57.1697 48.0464C55.3438 49.8229 56.2836 54.5063 57.116 58.2746C57.1965 58.7053 57.4114 59.5397 57.4382 59.5666C57.5993 60.7509 58.4049 63.5233 58.4317 65.0306C58.4317 66.1341 59.1835 66.9954 58.7539 68.1528C58.4049 70.6291 57.3845 72.8901 56.3105 75.0703C55.9614 75.7163 56.0419 76.3892 56.1493 77.1159C56.3105 78.5156 56.1225 79.4846 55.666 80.615C55.5049 81.0457 55.317 81.5033 55.317 81.9878C55.4244 84.3295 54.9947 86.6981 54.2697 88.7976C54.0012 89.4974 53.7864 90.1434 54.3772 90.5202ZM131.387 59.0013C131.36 58.14 131.548 59.0282 131.521 59.2705C131.467 59.3782 131.414 59.8088 131.199 59.5397C131.145 59.3512 131.387 59.1897 131.387 59.0013ZM129.829 48.9616C129.641 49.0154 129.48 49.2038 129.265 49.1231C129.239 48.4771 128.97 47.858 128.648 47.3466C128.272 46.5391 128.782 46.7545 128.863 47.1313C129.051 47.8042 129.185 48.6117 129.829 48.9616ZM129.104 50.2266C128.89 50.0382 129.292 49.6076 129.427 49.7422C129.561 49.9844 129.265 50.3074 129.104 50.2266ZM130.823 57.3594C130.554 57.1441 130.178 57.1441 129.91 57.0634C129.641 57.0634 128.567 57.5209 128.379 57.3056C128.541 57.2249 128.702 57.1979 128.89 57.171C128.836 57.1172 128.621 57.1172 128.675 57.0364C130.205 56.6327 130.984 57.1979 130.823 57.3594ZM127.816 61.9352C128.138 61.9083 129.024 62.0698 129.722 61.2623C129.803 61.4238 129.964 61.5315 130.286 61.5045C129.91 61.693 129.641 62.0159 129.265 62.0967C128.621 62.1774 128.245 61.9621 127.816 61.9352ZM127.117 58.6245C127.117 58.5438 127.252 58.5707 127.252 58.6245C127.278 59.5935 127.816 59.5127 128.218 60.0511C128.353 60.2126 128.218 60.8047 127.789 60.6971C128.191 60.2126 128.165 60.1856 127.681 59.755C127.252 59.3243 127.091 59.0282 127.117 58.6245ZM116.645 45.7047C116.86 45.9201 117.344 45.9201 117.666 45.9739C118.068 46.0546 118.149 46.1892 117.719 46.2161C116.806 46.27 116.189 45.5163 115.33 45.3279C115.169 45.2741 114.954 45.2741 114.793 45.2202C114.578 45.1395 114.578 45.1126 114.793 45.1126C115.491 45.1664 116.028 45.2471 116.645 45.7047ZM121.264 47.5081C121.022 47.3466 120.888 47.4004 120.78 46.9698C121.022 47.0236 121.156 47.2928 121.264 47.5081ZM122.66 48.7463C122.338 48.6386 122.123 48.4771 121.72 48.504C121.64 48.3694 121.479 48.3694 121.398 48.2348C121.291 47.6427 121.559 48.181 121.747 48.2618C122.15 48.2348 122.499 48.4233 122.66 48.7463ZM122.204 49.3653C121.371 49.0693 121.022 49.2307 120.351 49.7422C120.217 49.8229 119.76 50.0382 119.68 50.119C119.518 50.2536 119.331 50.3343 119.223 50.5227C119.196 50.5766 119.116 50.5496 119.089 50.5227C118.847 50.0921 119.572 49.8498 119.868 49.6345C119.948 49.5268 120.002 49.3922 120.029 49.2577C120.055 49.1231 120.19 48.8539 120.324 48.8808C120.995 48.9616 122.338 48.6655 122.418 49.1769C122.929 49.3653 123.117 50.0113 123.117 50.4151C122.848 50.0382 122.606 49.6614 122.204 49.3653ZM122.365 50.3881C121.908 50.765 121.344 50.765 121.156 50.3074C121.693 50.7381 122.016 50.5496 122.311 50.0382C122.472 50.119 122.284 50.2536 122.365 50.3881ZM120.915 50.5227C121.532 50.9803 122.042 50.9534 122.526 50.6304C122.553 50.6035 122.66 50.6304 122.66 50.6573C122.687 50.7381 122.714 50.7919 122.714 50.8726C122.767 51.0072 122.741 51.1418 122.472 51.1418C121.828 51.1418 121.21 51.1687 120.915 50.5227ZM110.496 91.5699C111.356 91.5699 112.027 91.3546 112.618 90.7625C112.752 90.8701 112.886 90.9509 112.832 91.1662C112.779 91.5699 110.98 92.0006 110.496 91.5699ZM102.763 67.8568C102.602 67.7491 102.065 66.5379 102.253 66.3225C102.387 66.8609 102.71 67.3454 102.763 67.8568ZM105.663 74.8819C105.18 74.209 104.831 73.1862 104.858 72.9439C104.858 72.5671 104.401 70.7368 104.079 70.1446C103.837 69.6063 103.488 69.5525 103.461 69.1487C103.622 69.1487 103.972 68.7988 104.16 68.2336C104.213 68.8257 104.347 69.391 104.482 69.9562C104.562 70.36 105.019 73.1323 105.771 74.8281C105.797 74.9626 105.744 74.9896 105.663 74.8819ZM103.596 91.4892C103.703 91.5969 103.972 91.866 103.676 91.9199C103.596 91.7584 103.273 91.4892 103.596 91.4892ZM99.4605 90.4125C100.266 90.9509 101.26 90.3856 102.065 90.1972C102.146 90.2241 102.253 90.251 102.28 90.3318C101.501 90.7625 100.266 90.9778 99.3531 90.5471C99.192 90.4395 99.2994 90.3049 99.4605 90.4125ZM100.266 86.5904C99.8364 86.6981 99.5142 86.8596 99.2994 87.2364C99.2457 87.048 99.192 86.8058 99.2457 86.5904C99.6216 86.5097 100.347 86.1598 100.266 86.5904ZM99.6753 71.8673C101.072 72.1903 102.092 73.0785 103.435 73.7514C103.918 73.9937 104.106 73.886 104.589 74.0475C104.697 74.0744 104.777 74.1552 104.858 74.2359C104.911 74.3167 104.911 74.3705 104.777 74.3436C103.891 74.2628 102.253 73.4553 101.313 72.8363C100.642 72.271 101.313 72.4056 99.6753 71.9211C99.5679 71.8673 99.5948 71.8404 99.6753 71.8673ZM76.1267 90.3856C76.4758 90.3318 76.8249 90.6817 77.0934 90.924C77.0128 90.9509 76.8786 91.0047 76.7712 90.9509C76.6101 90.7086 76.3415 90.4664 76.1267 90.3856ZM73.4147 89.8204C74.1129 89.955 74.7842 89.7935 75.4017 89.7127C74.8916 89.955 74.2471 90.1434 73.6027 90.0088C73.5222 89.955 73.2805 89.9819 73.4147 89.8204ZM68.125 81.2072C68.6621 81.7724 68.6621 82.5799 68.85 83.3067C68.2861 82.7414 68.2861 81.907 68.125 81.2072ZM58.9687 92.4851C59.3178 92.5928 59.5595 92.9158 59.7206 93.2657C59.6132 93.3464 59.5058 93.4272 59.3446 93.3733C59.4521 93.0773 59.1567 92.7543 58.9687 92.4851ZM55.854 92.3774C56.579 92.2698 57.4114 92.189 57.9215 91.6776C58.0289 91.6238 58.1363 91.5969 58.2437 91.6507C58.0021 91.9737 56.203 92.6735 55.854 92.3774ZM55.8003 81.7994C55.854 81.1265 56.3105 79.9152 56.5521 78.9193C56.7401 77.8696 56.1225 76.6314 56.4716 75.824C56.7132 76.2815 56.9549 76.3623 57.1428 76.47C57.116 76.9544 56.6058 78.9462 56.6864 79.4846C56.7132 79.8883 57.0623 79.4846 57.2502 79.6191C57.0623 80.0498 56.7401 80.2113 56.4984 80.5612C56.1762 80.938 56.6327 81.7455 56.2567 82.1493C55.7197 82.7953 55.8003 82.1224 55.8003 81.7994Z" fill="url(#paint0_linear)"/>
<path d="M90.5 95C106.792 95 120 94.3284 120 93.5C120 92.6716 104.792 91 88.5 91C72.2076 91 61 92.6716 61 93.5C61 94.3284 74.2076 95 90.5 95Z" fill="#395B54"/>
<path d="M61.5752 94.1407C63.4969 90.9502 64.5092 87.2992 64.5036 83.5795C64.5036 72.213 55.244 62.9987 43.8216 62.9987C32.3993 62.9987 23.1397 72.213 23.1397 83.5795C23.1341 87.2992 24.1464 90.9502 26.0681 94.1407H61.5752Z" fill="#395B54"/>
<path d="M27.9473 86.4681C28.4984 86.4681 28.9451 86.0235 28.9451 85.4751C28.9451 84.9267 28.4984 84.4822 27.9473 84.4822C27.3962 84.4822 26.9495 84.9267 26.9495 85.4751C26.9495 86.0235 27.3962 86.4681 27.9473 86.4681Z" fill="#86D0C1"/>
<path d="M28.5327 77.8682C29.0838 77.8682 29.5305 77.4236 29.5305 76.8753C29.5305 76.3269 29.0838 75.8823 28.5327 75.8823C27.9816 75.8823 27.5349 76.3269 27.5349 76.8753C27.5349 77.4236 27.9816 77.8682 28.5327 77.8682Z" fill="#86D0C1"/>
<path d="M33.4859 70.7964C34.0369 70.7964 34.4837 70.3519 34.4837 69.8035C34.4837 69.2551 34.0369 68.8105 33.4859 68.8105C32.9348 68.8105 32.488 69.2551 32.488 69.8035C32.488 70.3519 32.9348 70.7964 33.4859 70.7964Z" fill="#86D0C1"/>
<path d="M41.3914 67.2735C41.9424 67.2735 42.3892 66.8289 42.3892 66.2805C42.3892 65.7321 41.9424 65.2876 41.3914 65.2876C40.8403 65.2876 40.3936 65.7321 40.3936 66.2805C40.3936 66.8289 40.8403 67.2735 41.3914 67.2735Z" fill="#86D0C1"/>
<path d="M49.991 68.3052C50.5421 68.3052 50.9888 67.8607 50.9888 67.3123C50.9888 66.7639 50.5421 66.3193 49.991 66.3193C49.4399 66.3193 48.9932 66.7639 48.9932 67.3123C48.9932 67.8607 49.4399 68.3052 49.991 68.3052Z" fill="#86D0C1"/>
<path d="M56.8286 73.5976C57.3797 73.5976 57.8264 73.153 57.8264 72.6046C57.8264 72.0562 57.3797 71.6117 56.8286 71.6117C56.2775 71.6117 55.8308 72.0562 55.8308 72.6046C55.8308 73.153 56.2775 73.5976 56.8286 73.5976Z" fill="#86D0C1"/>
<path d="M59.9504 81.6379C60.5015 81.6379 60.9483 81.1933 60.9483 80.6449C60.9483 80.0965 60.5015 79.652 59.9504 79.652C59.3994 79.652 58.9526 80.0965 58.9526 80.6449C58.9526 81.1933 59.3994 81.6379 59.9504 81.6379Z" fill="#86D0C1"/>
<path d="M58.4646 90.13C59.0157 90.13 59.4624 89.6855 59.4624 89.1371C59.4624 88.5887 59.0157 88.1442 58.4646 88.1442C57.9135 88.1442 57.4668 88.5887 57.4668 89.1371C57.4668 89.6855 57.9135 90.13 58.4646 90.13Z" fill="#86D0C1"/>
<path d="M43.8215 82.2257L54.0718 74.4628" stroke="#86D0C1" stroke-width="1.96361" stroke-miterlimit="10"/>
<path d="M50.4134 65.179C50.4134 65.179 44.8087 55.0969 36.3627 52.193C32.8183 50.9736 29.7248 48.6806 27.6096 45.5467C26.6083 44.0587 25.7436 42.4806 25.0266 40.8322" stroke="#535461" stroke-width="0.719278" stroke-miterlimit="10"/>
<path d="M19.7156 38.9658C20.6782 39.9095 25.1595 40.8989 25.1595 40.8989C25.1595 40.8989 24.0629 36.3822 23.0979 35.4337C22.6341 34.9878 22.0158 34.7454 21.3771 34.7591C20.7384 34.7728 20.1308 35.0413 19.6858 35.5067C19.2409 35.972 18.9945 36.5965 19.0001 37.2449C19.0057 37.8934 19.2628 38.5134 19.7156 38.9708V38.9658Z" fill="#86D0C1"/>
<path d="M22.2511 47.1395C23.5658 47.4042 27.8558 45.7556 27.8558 45.7556C27.8558 45.7556 24.5112 42.5697 23.1954 42.3051C22.57 42.1933 21.9263 42.3346 21.4024 42.6988C20.8784 43.0629 20.5158 43.6209 20.3923 44.2532C20.2688 44.8855 20.3942 45.5417 20.7417 46.0812C21.0891 46.6208 21.631 47.0007 22.2511 47.1395Z" fill="#86D0C1"/>
<path d="M31.4805 55.9873C32.7477 55.542 35.6231 51.9221 35.6231 51.9221C35.6231 51.9221 31.154 50.8844 29.8881 51.3297C29.5774 51.4276 29.2894 51.5879 29.041 51.801C28.7925 52.0141 28.5888 52.2757 28.4419 52.5703C28.295 52.8649 28.2079 53.1864 28.1858 53.5158C28.1637 53.8452 28.207 54.1757 28.3131 54.4878C28.4192 54.7999 28.586 55.0872 28.8036 55.3326C29.0212 55.5779 29.2852 55.7765 29.5798 55.9163C29.8745 56.0562 30.1938 56.1345 30.5188 56.1467C30.8439 56.1589 31.168 56.1047 31.472 55.9873H31.4805Z" fill="#86D0C1"/>
<path d="M39.9485 61.0815C41.2717 60.8589 44.7125 57.7855 44.7125 57.7855C44.7125 57.7855 40.481 55.996 39.1578 56.2173C38.5223 56.3238 37.9546 56.6821 37.5794 57.2135C37.2042 57.7448 37.0523 58.4057 37.1572 59.0507C37.262 59.6958 37.615 60.2721 38.1385 60.6529C38.662 61.0338 39.3131 61.1879 39.9485 61.0815Z" fill="#86D0C1"/>
<path d="M31.5891 42.2258C31.5891 43.5863 29.1645 47.5352 29.1645 47.5352C29.1645 47.5352 26.735 43.5887 26.7338 42.2283C26.7265 41.9001 26.784 41.5736 26.9027 41.2682C27.0214 40.9628 27.1991 40.6846 27.4253 40.4498C27.6514 40.2151 27.9215 40.0285 28.2196 39.9012C28.5178 39.7739 28.838 39.7083 29.1614 39.7083C29.4849 39.7083 29.8051 39.7739 30.1033 39.9012C30.4014 40.0285 30.6715 40.2151 30.8976 40.4498C31.1238 40.6846 31.3014 40.9628 31.4202 41.2682C31.5389 41.5736 31.5964 41.9001 31.5891 42.2283V42.2258Z" fill="#86D0C1"/>
<path d="M41.4192 48.3195C41.0183 49.6181 37.5397 52.6482 37.5397 52.6482C37.5397 52.6482 36.3847 48.1402 36.7807 46.8354C36.9935 46.238 37.4253 45.7471 37.9861 45.465C38.5469 45.183 39.1933 45.1316 39.7905 45.3216C40.3877 45.5116 40.8896 45.9283 41.1914 46.4847C41.4933 47.0412 41.5718 47.6945 41.4106 48.3084L41.4192 48.3195Z" fill="#86D0C1"/>
<path d="M50.1721 55.5607C49.9942 56.91 47.07 60.4929 47.07 60.4929C47.07 60.4929 45.1815 56.2533 45.3643 54.904C45.4589 54.264 45.7977 53.6874 46.3075 53.2988C46.8173 52.9102 47.4573 52.7407 48.0892 52.8269C48.7211 52.9131 49.2942 53.2482 49.6848 53.7597C50.0755 54.2711 50.2522 54.918 50.177 55.5607H50.1721Z" fill="#86D0C1"/>
<path opacity="0.25" d="M19.7156 38.9658C20.6782 39.9095 25.1595 40.8989 25.1595 40.8989C25.1595 40.8989 24.0629 36.3822 23.0979 35.4337C22.6341 34.9878 22.0158 34.7454 21.3771 34.7591C20.7384 34.7728 20.1308 35.0413 19.6858 35.5067C19.2409 35.972 18.9945 36.5965 19.0001 37.2449C19.0057 37.8934 19.2628 38.5134 19.7156 38.9708V38.9658Z" fill="black"/>
<path opacity="0.25" d="M22.2511 47.1395C23.5658 47.4042 27.8558 45.7556 27.8558 45.7556C27.8558 45.7556 24.5112 42.5697 23.1954 42.3051C22.57 42.1933 21.9263 42.3346 21.4024 42.6988C20.8784 43.0629 20.5158 43.6209 20.3923 44.2532C20.2688 44.8855 20.3942 45.5417 20.7417 46.0812C21.0891 46.6208 21.631 47.0007 22.2511 47.1395Z" fill="black"/>
<path opacity="0.25" d="M31.4805 55.9873C32.7477 55.542 35.6231 51.9221 35.6231 51.9221C35.6231 51.9221 31.154 50.8844 29.8881 51.3297C29.5774 51.4276 29.2894 51.5879 29.041 51.801C28.7925 52.0141 28.5888 52.2757 28.4419 52.5703C28.295 52.8649 28.2079 53.1864 28.1858 53.5158C28.1637 53.8452 28.207 54.1757 28.3131 54.4878C28.4192 54.7999 28.586 55.0872 28.8036 55.3326C29.0212 55.5779 29.2852 55.7765 29.5798 55.9163C29.8745 56.0562 30.1938 56.1345 30.5188 56.1467C30.8439 56.1589 31.168 56.1047 31.472 55.9873H31.4805Z" fill="black"/>
<path opacity="0.25" d="M39.9485 61.0815C41.2717 60.8589 44.7125 57.7855 44.7125 57.7855C44.7125 57.7855 40.481 55.996 39.1578 56.2173C38.5223 56.3238 37.9546 56.6821 37.5794 57.2135C37.2042 57.7448 37.0523 58.4057 37.1572 59.0507C37.262 59.6958 37.615 60.2721 38.1385 60.6529C38.662 61.0338 39.3131 61.1879 39.9485 61.0815Z" fill="black"/>
<path opacity="0.25" d="M31.5891 42.2258C31.5891 43.5863 29.1645 47.5352 29.1645 47.5352C29.1645 47.5352 26.735 43.5887 26.7338 42.2283C26.7265 41.9001 26.784 41.5736 26.9027 41.2682C27.0214 40.9628 27.1991 40.6846 27.4253 40.4498C27.6514 40.2151 27.9215 40.0285 28.2196 39.9012C28.5178 39.7739 28.838 39.7083 29.1614 39.7083C29.4849 39.7083 29.8051 39.7739 30.1033 39.9012C30.4014 40.0285 30.6715 40.2151 30.8976 40.4498C31.1238 40.6846 31.3014 40.9628 31.4202 41.2682C31.5389 41.5736 31.5964 41.9001 31.5891 42.2283V42.2258Z" fill="black"/>
<path opacity="0.25" d="M41.4192 48.3195C41.0183 49.6181 37.5397 52.6482 37.5397 52.6482C37.5397 52.6482 36.3847 48.1402 36.7807 46.8354C36.9935 46.238 37.4253 45.7471 37.9861 45.465C38.5469 45.183 39.1933 45.1316 39.7905 45.3216C40.3877 45.5116 40.8896 45.9283 41.1914 46.4847C41.4933 47.0412 41.5718 47.6945 41.4106 48.3084L41.4192 48.3195Z" fill="black"/>
<path opacity="0.25" d="M50.1721 55.5607C49.9942 56.91 47.07 60.4929 47.07 60.4929C47.07 60.4929 45.1815 56.2533 45.3643 54.904C45.4589 54.264 45.7977 53.6874 46.3075 53.2988C46.8173 52.9102 47.4573 52.7407 48.0892 52.8269C48.7211 52.9131 49.2942 53.2482 49.6848 53.7597C50.0755 54.2711 50.2522 54.918 50.177 55.5607H50.1721Z" fill="black"/>
<path d="M50.0906 64.9786C50.0906 64.9786 48.9941 53.4545 42.4293 47.3251C39.6769 44.7527 37.764 41.3887 37.0804 37.6487C36.7596 35.8761 36.5997 34.0773 36.6028 32.275" stroke="#535461" stroke-width="0.719278" stroke-miterlimit="10"/>
<path d="M32.4906 28.3879C32.9926 29.6507 36.6978 32.3901 36.6978 32.3901C36.6978 32.3901 37.4958 27.8079 36.9951 26.5452C36.7543 25.9384 36.286 25.4535 35.693 25.1972C35.1001 24.9409 34.4311 24.9342 33.8333 25.1786C33.2355 25.4229 32.7578 25.8983 32.5053 26.5002C32.2528 27.1021 32.2462 27.7811 32.4869 28.3879H32.4906Z" fill="#86D0C1"/>
<path d="M31.5416 36.903C32.6381 37.6858 37.2157 37.9418 37.2157 37.9418C37.2157 37.9418 35.4405 33.6552 34.3439 32.8724C33.8174 32.4952 33.1647 32.3457 32.5296 32.4569C31.8945 32.5681 31.329 32.9309 30.9573 33.4654C30.5857 33.9999 30.4385 34.6623 30.5481 35.307C30.6576 35.9517 31.015 36.5257 31.5416 36.903Z" fill="#86D0C1"/>
<path d="M36.453 48.7856C37.7932 48.9006 41.8676 46.7746 41.8676 46.7746C41.8676 46.7746 38.1965 43.9882 36.8599 43.8744C36.5383 43.8397 36.2131 43.8705 35.9034 43.9651C35.5937 44.0596 35.3057 44.216 35.0564 44.4251C34.807 44.6341 34.6013 44.8917 34.4514 45.1825C34.3014 45.4734 34.2102 45.7917 34.1831 46.1189C34.156 46.446 34.1935 46.7753 34.2935 47.0875C34.3935 47.3997 34.554 47.6885 34.7654 47.9369C34.9768 48.1853 35.235 48.3884 35.5248 48.5341C35.8146 48.6798 36.1302 48.7654 36.453 48.7856Z" fill="#86D0C1"/>
<path d="M42.1601 56.9286C43.4589 57.27 47.8318 55.8749 47.8318 55.8749C47.8318 55.8749 44.6773 52.4985 43.3797 52.1572C42.7603 52.0049 42.1067 52.1058 41.56 52.4383C41.0133 52.7708 40.6172 53.3081 40.4573 53.9343C40.2974 54.5605 40.3865 55.2255 40.7052 55.7856C41.024 56.3458 41.547 56.7563 42.1613 56.9286H42.1601Z" fill="#86D0C1"/>
<path d="M42.0441 36.2524C41.5019 37.4966 37.7078 40.1074 37.7078 40.1074C37.7078 40.1074 37.062 35.5017 37.6042 34.2563C37.7298 33.955 37.9132 33.682 38.1438 33.4534C38.3743 33.2248 38.6474 33.045 38.9471 32.9247C39.2468 32.8043 39.5671 32.7456 39.8894 32.7522C40.2116 32.7588 40.5293 32.8304 40.824 32.9629C41.1187 33.0954 41.3845 33.2861 41.6059 33.5239C41.8272 33.7617 41.9997 34.0419 42.1132 34.3481C42.2268 34.6543 42.2792 34.9804 42.2673 35.3073C42.2554 35.6343 42.1796 35.9555 42.0441 36.2524Z" fill="#86D0C1"/>
<path d="M48.5992 45.8595C47.7146 46.8823 43.3247 48.2217 43.3247 48.2217C43.3247 48.2217 44.0655 43.6309 44.9513 42.6081C45.1616 42.3649 45.417 42.1662 45.703 42.0233C45.989 41.8804 46.2999 41.796 46.618 41.7751C46.9361 41.7541 47.2551 41.797 47.5569 41.9012C47.8587 42.0054 48.1373 42.1689 48.3768 42.3824C48.6164 42.5959 48.8121 42.8551 48.9529 43.1454C49.0937 43.4357 49.1768 43.7513 49.1975 44.0742C49.2181 44.3971 49.1759 44.7209 49.0733 45.0272C48.9706 45.3336 48.8095 45.6164 48.5992 45.8595Z" fill="#86D0C1"/>
<path d="M53.7166 56.0863C53.0148 57.2464 48.9112 59.3192 48.9112 59.3192C48.9112 59.3192 48.877 54.6665 49.5788 53.5064C49.9159 52.9488 50.4573 52.55 51.0841 52.3976C51.7109 52.2452 52.3716 52.3518 52.9209 52.6939C53.4703 53.036 53.8632 53.5856 54.0134 54.2218C54.1635 54.858 54.0585 55.5287 53.7214 56.0863H53.7166Z" fill="#86D0C1"/>
<defs>
<linearGradient id="paint0_linear" x1="125.5" y1="42" x2="39" y2="84.5" gradientUnits="userSpaceOnUse">
<stop stop-color="#8BCCBC"/>
<stop offset="0.430208" stop-color="#C49985"/>
<stop offset="0.9999" stop-color="#D64A2A"/>
<stop offset="1" stop-color="#821919"/>
</linearGradient>
</defs>
</svg>
