<svg width="136" height="106" viewBox="0 0 136 106" fill="none" xmlns="http://www.w3.org/2000/svg">
<path opacity="0.1" d="M111.003 68.8514C110.93 68.9052 110.863 68.9575 110.791 69.0083C110.528 69.1966 110.251 69.3667 109.965 69.5172C108.464 70.3163 106.613 70.7066 104.811 70.9718C100.769 71.5668 96.6417 71.6825 92.5323 71.7959C81.4287 72.1037 70.2981 72.4108 59.2215 71.7016C54.8451 71.4217 50.3724 70.9533 46.4067 69.5172C45.8383 69.312 45.281 69.0856 44.7349 68.8382C43.6299 68.3366 42.5686 67.7261 41.6861 66.997C40.8567 66.3135 40.1842 65.5284 39.7823 64.6358C38.9443 62.7769 39.3877 60.689 40.3447 58.867C40.7421 58.1299 41.1904 57.4218 41.6861 56.7481C42.4249 55.7222 43.2397 54.7257 43.9829 53.7006C46.6277 50.0565 48.3535 45.4461 45.9122 41.7085C45.2105 40.6347 44.1966 39.692 43.6248 38.5711C42.8954 37.1371 42.9516 35.5449 43.1835 33.9982C43.2137 33.8019 43.2455 33.6074 43.2791 33.415C43.6751 31.1216 44.4206 28.6507 46.7189 27.219C49.1062 25.7313 52.4964 25.8064 55.4593 26.3352C60.0668 27.1659 64.317 28.8952 68.6125 30.4565C72.9079 32.0179 77.4017 33.4444 82.1223 33.5976C86.2908 33.7331 91.153 32.719 93.9196 30.0831C96.6067 27.5231 101.658 27.3279 105.298 28.8746C107.797 29.9358 109.661 31.8477 110.448 33.9982C110.607 34.43 110.722 34.8772 110.79 35.3328C110.853 35.7491 110.873 36.1708 110.851 36.5914C110.84 36.7991 110.819 37.0046 110.79 37.2078C110.181 41.4514 105.803 44.7987 103.141 48.5894C101.841 50.4409 100.923 52.6651 101.817 54.6617C103.181 57.7041 107.924 58.786 110.788 61.0499C111.327 61.4619 111.802 61.9535 112.196 62.5081C113.586 64.5231 113.073 67.2444 111.003 68.8514Z" fill="#86D0C1"/>
<path d="M38.9559 62.6373C40.1374 65.1897 39.0103 67.7422 37.9294 69.4577C37.6696 69.4577 37.523 69.5289 37.259 69.5958C34.9044 70.1691 33.8025 69.8762 31.4101 70.0477C30.8947 70.0854 29.3655 69.7004 28.7496 69.5038L27.61 69.1105C27.61 69.1105 25.5863 62.9051 28.7663 61.1895C31.9464 59.474 30.7272 53.2979 30.4632 49.9295C29.7384 40.791 39.6304 41.6195 39.643 29.7988C39.6472 26.6564 38.5997 20.6602 41.2519 18.1538C44.2769 15.3001 46.4849 18.0994 48.4289 15.7144C51.4665 11.9861 56.3979 10.6471 59.3391 14.4842C62.2384 18.271 58.7148 25.8111 49.954 31.87C44.1596 36.9289 44.0716 38.4436 44.5241 42.13C44.8425 44.7117 47.3103 51.4401 43.7992 54.1264C40.284 56.8169 37.6026 59.7208 38.9559 62.6373Z" fill="url(#paint0_linear)"/>
<g opacity="0.5">
<path opacity="0.5" d="M32.6545 70.1439L32.4785 70.123C32.6084 69.0853 32.7508 68.035 32.9059 67.0141C34.0455 59.4279 35.8513 52.2183 38.273 45.5945C40.326 39.9792 42.8524 34.7028 45.7811 29.9117C48.1357 26.058 50.7585 22.4929 53.5824 19.3212C55.5684 17.091 57.6298 15.0741 59.7079 13.3251C60.0724 13.0196 60.4579 12.7309 60.8349 12.4464C61.3335 12.0698 61.8531 11.6848 62.3139 11.2622L62.4312 11.3919C61.9662 11.8187 61.4425 12.212 60.9397 12.5886C60.5668 12.869 60.1813 13.1577 59.821 13.459C57.7471 15.1997 55.6899 17.2123 53.7123 19.4342C50.8968 22.6017 48.2782 26.1542 45.9319 29.9996C43.0116 34.7823 40.4894 40.0503 38.4406 45.6531C36.0189 52.2685 34.2173 59.4614 33.0818 67.0392C32.931 68.0643 32.7844 69.1062 32.6545 70.1439Z" fill="#FCFDFE"/>
<path opacity="0.5" d="M42.6136 35.9791L42.4543 35.9038C45.6637 29.075 42.844 16.4551 42.8147 16.3254L42.9865 16.2877C43.0158 16.4132 45.848 29.0917 42.6136 35.9791Z" fill="#FCFDFE"/>
<path opacity="0.5" d="M35.3149 55.8714L35.1473 55.817C36.7855 50.9214 45.9654 47.1387 46.0575 47.1011L46.1246 47.2643C46.0324 47.3019 36.9238 51.0511 35.3149 55.8714Z" fill="#FCFDFE"/>
<path opacity="0.5" d="M34.6278 58.7291L34.4519 58.704C34.9379 55.3691 33.815 50.5613 31.2927 45.1677C31.167 44.8957 31.167 44.8957 31.1712 44.8622L31.3472 44.8874L31.2592 44.8748L31.343 44.8539C31.3514 44.8748 31.3975 44.9752 31.452 45.0924C33.991 50.5194 35.118 55.3607 34.6278 58.7291Z" fill="#FCFDFE"/>
<path opacity="0.5" d="M32.9182 68.2528L32.759 68.1774C34.326 64.8091 39.6722 63.4826 39.7266 63.4701L39.7685 63.6417C39.7183 63.6542 34.4475 64.9639 32.9182 68.2528Z" fill="#FCFDFE"/>
<path opacity="0.5" d="M32.3905 70.1606C31.7285 67.24 30.2034 64.4156 27.7314 61.5284L27.8655 61.4154C30.3584 64.3277 31.8919 67.1772 32.5622 70.1229L32.3905 70.1606Z" fill="#FCFDFE"/>
<path opacity="0.5" d="M52.0825 21.3295L51.9275 21.2458C53.9218 17.5469 55.162 13.1994 55.5684 11.7725C55.669 11.4252 55.7025 11.3039 55.7235 11.2662L55.8827 11.3416C55.8701 11.3708 55.8114 11.5717 55.7402 11.8186C55.3296 13.2538 54.0894 17.6139 52.0825 21.3295Z" fill="#FCFDFE"/>
<path opacity="0.5" d="M47.9471 26.8653L47.8256 26.7397C50.6369 23.9739 58.5263 24.066 58.8615 24.0702L58.8573 24.2459C58.7735 24.2417 50.7081 24.1538 47.9471 26.8653Z" fill="#FCFDFE"/>
</g>
<path d="M24.9955 84.7429L35.252 87.9523C35.252 87.9523 38.8301 83.3035 37.481 78.8054C34.7283 69.6333 42.9612 67.8634 46.3005 66.6081C51.3366 64.7126 54.3993 61.1894 50.3688 57.0176C45.8103 52.2977 53.1591 45.8413 61.7314 43.95C70.1194 42.1005 71.6696 26.1415 53.1466 28.4764C42.0856 29.8698 40.3845 40.59 38.2394 45.7995C36.0942 51.0089 27.9786 48.9544 28.6573 56.3523C29.2355 62.6706 32.3862 68.1312 27.7984 70.9137C23.2106 73.7005 21.5096 77.9015 24.9955 84.7429Z" fill="url(#paint1_linear)"/>
<g opacity="0.5">
<path opacity="0.5" d="M29.135 87.0818L29.3613 87.1111C29.378 86.973 31.1461 73.0308 37.0746 59.7372C42.5339 47.4897 52.7444 33.3049 70.3708 35.2715L70.3959 35.0456C62.5485 34.171 55.4929 36.3678 49.4303 41.5773C44.5827 45.7365 40.3594 51.8205 36.8651 59.6494C30.924 72.9722 29.1518 86.9437 29.135 87.0818Z" fill="#F4F9F8"/>
<path opacity="0.5" d="M46.9877 43.8619L47.2097 43.9038C48.563 36.4808 54.4706 27.1874 54.5293 27.0953L54.3365 26.974C54.2821 27.0661 48.3452 36.3971 46.9877 43.8619Z" fill="#F4F9F8"/>
<path opacity="0.5" d="M51.123 40.502C59.8377 38.2467 65.9632 42.5565 66.026 42.5984L66.1601 42.4143C66.0972 42.3682 59.888 37.9998 51.0685 40.2802L51.123 40.502Z" fill="#F4F9F8"/>
<path opacity="0.5" d="M33.6725 68.6372C39.2952 59.1974 53.9636 61.0468 54.106 61.0761L54.1689 60.8585C54.0348 60.8167 39.1527 59.0007 33.4797 68.5243L33.6725 68.6372Z" fill="#F4F9F8"/>
<path opacity="0.5" d="M34.963 64.2983L35.1892 64.3192C35.8805 57.3439 30.1824 50.6155 30.128 50.5486L29.9562 50.695C30.0106 50.762 35.6459 57.4192 34.963 64.2983Z" fill="#F4F9F8"/>
<path opacity="0.5" d="M29.688 84.9227C31.2466 81.0522 37.9042 79.6839 37.9713 79.6714L37.9252 79.4496C37.6445 79.504 31.0791 80.8513 29.4744 84.839L29.688 84.9227Z" fill="#F4F9F8"/>
<path opacity="0.5" d="M30.0609 81.6169L30.2872 81.6462C30.7313 78.3782 27.1197 73.4533 25.934 71.834C25.7664 71.6038 25.6198 71.4072 25.603 71.3695L25.3977 71.4616C25.4228 71.5201 25.5192 71.6499 25.7538 71.9679C26.9228 73.5663 30.4925 78.4368 30.0609 81.6169Z" fill="#F4F9F8"/>
</g>
<path d="M53.0115 43.694L42.1327 52.6718C42.5813 53.1619 42.9253 53.7375 43.144 54.3638C43.3626 54.99 43.4514 55.6539 43.4049 56.3152C43.3584 56.9766 43.1776 57.6216 42.8734 58.2115C42.5692 58.8013 42.148 59.3236 41.6352 59.7468C41.1224 60.17 40.5286 60.4853 39.8898 60.6737C39.2511 60.862 38.5805 60.9195 37.9188 60.8426C37.2571 60.7657 36.6179 60.5561 36.0399 60.2264C35.4619 59.8967 34.9571 59.4538 34.5561 58.9244L24.8027 66.9733L40.4372 85.7336L68.646 62.4542L53.0115 43.694Z" fill="#F2F2F2"/>
<path d="M114.939 70.8756C114.939 81.9639 108.314 85.8355 100.143 85.8355C91.9715 85.8355 85.3473 81.9639 85.3473 70.8756C85.3473 59.7873 100.143 45.6812 100.143 45.6812C100.143 45.6812 114.939 59.7873 114.939 70.8756Z" fill="#F2F2F2"/>
<path d="M99.6041 84.1391L99.7556 74.8592L106.062 63.3786L99.7793 73.4035L99.8475 69.2308L104.194 60.9247L99.8655 68.1266V68.1267L99.988 60.622L104.642 54.0093L100.007 59.4418L100.084 45.6809L99.6027 63.8979L99.6423 63.1464L94.9105 55.939L99.5664 64.589L99.1255 72.9705L99.1124 72.748L93.6575 65.1632L99.0958 73.5339L99.0408 74.5821L99.0309 74.5978L99.0353 74.6838L97.9168 95.9483H99.4113L99.5906 84.9648L105.016 76.6146L99.6041 84.1391Z" fill="#395B54"/>
<path d="M87.2721 97.6611C98.6944 97.6611 107.954 96.9741 107.954 96.1266C107.954 95.2791 98.6944 94.592 87.2721 94.592C75.8497 94.592 66.5901 95.2791 66.5901 96.1266C66.5901 96.9741 75.8497 97.6611 87.2721 97.6611Z" fill="#395B54"/>
<path d="M89.4115 12.2439H85.9752V96.6793H89.4115V12.2439Z" fill="#395B54"/>
<path d="M106.092 93.6093C106.092 95.6374 104.88 96.3456 103.386 96.3456C103.351 96.3456 103.316 96.3452 103.282 96.3444C103.213 96.343 103.144 96.3397 103.076 96.3351C101.727 96.2401 100.679 95.4955 100.679 93.6093C100.679 91.6572 103.186 89.1941 103.374 89.0118L103.375 89.0115C103.382 89.0044 103.386 89.001 103.386 89.001C103.386 89.001 106.092 91.5811 106.092 93.6093Z" fill="#86D0C1"/>
<path d="M103.287 96.0353L104.277 94.659L103.285 96.1864L103.282 96.3444C103.213 96.343 103.144 96.3397 103.076 96.3351L103.183 94.3059L103.182 94.2902L103.184 94.2872L103.194 94.0956L102.199 92.5644L103.197 93.9519L103.2 93.9926L103.28 92.4594L102.429 90.8772L103.291 92.1903L103.374 89.0118L103.375 89.001V89.0115L103.361 91.5179L104.209 90.5243L103.357 91.7339L103.335 93.1065L104.127 91.7891L103.332 93.3085L103.319 94.0716L104.468 92.2381L103.315 94.3379L103.287 96.0353Z" fill="#395B54"/>
<path d="M82.0313 92.0907L81.4524 91.6627C81.4524 91.6627 81.0692 93.7927 81.4968 94.1118C81.9244 94.431 83.5279 94.9629 83.5279 95.6011C83.5279 96.2394 87.1625 97.0904 87.2694 96.133C87.3763 95.1756 86.9487 94.6437 86.9487 94.6437C86.9487 94.6437 85.2383 92.9417 85.0245 92.6226C84.8107 92.3035 84.2762 91.6652 84.2762 91.6652L82.0313 92.0907Z" fill="#532525"/>
<path d="M90.5831 65.6034C90.5831 65.6034 90.5671 65.697 90.5393 65.8682C90.5137 66.0204 90.4784 66.2352 90.4356 66.5001C89.9866 69.2265 88.6771 77.2526 88.7659 77.5175C88.8728 77.8366 89.6211 79.0067 88.7659 79.3259C88.6836 79.3567 88.5948 79.4567 88.4997 79.6141C88.3161 79.9532 88.1647 80.3086 88.0475 80.6758C87.5376 82.148 86.9924 84.5042 86.6771 86.136C86.5392 86.853 86.4451 87.4296 86.4173 87.7317C86.4076 87.8015 86.4066 87.8722 86.4141 87.9423C86.521 88.3678 85.7727 89.8571 85.452 90.2826C85.1313 90.7081 84.5968 91.1336 84.7037 91.5591C84.8106 91.9846 82.0313 93.1547 81.7106 92.4101C81.3899 91.6655 81.3899 91.24 81.283 91.0272C81.1761 90.8145 81.0692 89.3252 81.6037 89.1124C82.1382 88.8997 81.8175 85.1765 82.3519 84.4319C82.5305 84.184 82.8031 83.3447 83.0885 82.3352C83.2007 81.9395 83.314 81.5183 83.4252 81.096C83.8763 79.3652 84.2761 77.6238 84.2761 77.6238L84.1692 65.1779L90.0487 64.4332L90.1994 64.7641L90.4998 65.4204L90.5831 65.6034Z" fill="#532525"/>
<path d="M90.9039 86.0274C90.9039 86.0274 91.7591 85.1764 92.1867 86.0274C92.6143 86.8784 93.0419 90.1761 93.7902 90.9207C94.5385 91.6653 95.5006 95.3885 94.4316 95.6012C93.3626 95.814 92.1867 95.2821 92.0798 94.6438C91.9729 94.0056 89.728 90.7079 89.728 90.3888C89.728 90.0697 91.2246 88.8995 91.2246 88.8995L90.9039 86.0274Z" fill="#532525"/>
<path d="M77.7552 59.7526C77.7552 59.7526 79.1449 72.1986 79.4656 73.3688C79.7863 74.5389 81.4967 79.0067 82.0312 79.7513C82.5657 80.4959 85.9864 86.5594 86.414 86.8785C86.8416 87.1976 87.6968 88.0486 87.6968 88.0486C87.6968 88.0486 89.3003 89.6443 89.5141 89.9634C89.7279 90.2825 91.5452 89.3252 91.6521 88.6869C91.759 88.0486 91.5452 86.9849 91.4383 86.5594C91.3314 86.1339 91.6521 85.4956 91.3314 85.1765C91.0107 84.8574 89.4072 83.2617 89.4072 82.5171C89.4072 81.7725 86.6278 77.411 85.5588 76.4537C84.4899 75.4963 84.7037 73.9006 84.7037 73.9006V67.4117L90.5831 65.6033C90.5831 65.6033 90.2624 60.4973 89.5141 60.4973C88.7658 60.4973 78.9311 58.7952 77.7552 59.7526Z" fill="#532525"/>
<path d="M86.4141 41.9879C88.3624 41.9879 89.9418 40.4162 89.9418 38.4774C89.9418 36.5387 88.3624 34.967 86.4141 34.967C84.4659 34.967 82.8865 36.5387 82.8865 38.4774C82.8865 40.4162 84.4659 41.9879 86.4141 41.9879Z" fill="#F7A46F"/>
<path d="M85.2383 41.243C85.2383 41.243 84.8107 42.8386 84.2762 43.2642C83.7417 43.6897 85.6659 45.4981 85.6659 45.4981L89.3004 45.7108L89.9418 43.6897C89.9418 43.6897 88.7659 41.3494 89.0866 39.8601C89.4073 38.3709 85.2383 41.243 85.2383 41.243Z" fill="#F7A46F"/>
<path d="M83.7418 43.0518C83.7418 43.0518 84.7038 43.1581 84.9176 43.4773C85.1314 43.7964 86.628 44.7538 87.8039 44.541C88.9798 44.3283 89.7281 44.0091 89.9419 44.1155C90.1557 44.2219 90.5833 46.4558 90.5833 46.4558L89.4074 49.8598L89.6212 59.2209L89.9419 61.7739C89.9419 61.7739 90.5833 60.9229 88.0177 61.4548C85.4521 61.9867 82.1383 61.0293 81.0693 60.9229C80.0003 60.8165 78.183 60.4974 78.0761 59.8592C77.9692 59.2209 78.3968 56.8806 78.3968 56.8806L80.1072 49.7534L81.1762 45.9239L83.7418 43.0518Z" fill="#395B54"/>
<path d="M84.7528 42.5717C84.7528 42.5717 83.8485 42.0944 83.5278 42.52C83.2071 42.9455 79.145 43.5837 79.145 43.9028C79.145 44.222 78.2898 52.8384 78.5036 53.5831C78.7174 54.3277 78.076 55.1787 78.076 55.1787L77.3277 58.37C77.3277 58.37 75.2966 64.4334 76.1518 64.6462C77.007 64.8589 77.7553 64.6462 78.076 64.6462C78.3967 64.6462 78.2898 60.6039 79.145 59.5401C80.0002 58.4763 81.176 55.817 81.3898 55.2851C81.6036 54.7532 84.2761 47.4132 84.1692 46.5622C84.0623 45.7112 84.7528 42.5717 84.7528 42.5717Z" fill="#D0CDE1"/>
<path d="M89.1934 43.0518C89.1934 43.0518 90.0486 43.0518 90.1555 43.2645C90.2624 43.4773 91.3314 44.8601 91.759 45.1793C92.1866 45.4984 93.6832 46.8813 93.6832 47.2004C93.6832 47.5196 90.5831 49.8598 90.5831 49.8598C90.5831 49.8598 89.3003 56.136 89.9417 58.2635C90.5831 60.3911 91.5452 65.4971 91.1176 65.8162C90.69 66.1354 89.7279 66.2417 89.7279 65.8162C89.7279 65.3907 89.0865 60.8166 88.552 59.8592C88.0175 58.9018 86.414 52.8384 87.0554 51.1363C87.6968 49.4343 89.1934 43.0518 89.1934 43.0518Z" fill="#D0CDE1"/>
<path d="M75.0829 53.5828C75.0829 53.5828 74.976 56.8804 76.1518 58.5824C77.3277 60.2845 78.076 62.1992 78.076 62.1992C78.076 62.1992 80.0002 61.6673 80.3209 61.0291C80.6416 60.3908 82.6727 60.9227 82.6727 60.71C82.6727 60.4972 80.214 59.4334 80.0002 59.2207C79.7864 59.0079 79.0381 59.0079 78.6105 58.5824C78.1829 58.1569 78.076 57.1995 78.076 57.1995L77.6484 54.4338L75.0829 53.5828Z" fill="#F7A46F"/>
<path d="M83.9845 36.3129C83.7131 36.2884 83.4332 36.2614 83.1934 36.1327C82.6559 35.8443 82.5134 35.023 82.9225 34.5719C83.0353 34.4571 83.1615 34.3562 83.2984 34.2712L84.1109 33.7208C84.4703 33.4774 84.8382 33.23 85.2574 33.1152C85.6365 33.0115 86.0369 33.0221 86.4293 33.0464C87.1912 33.0935 87.9577 33.1909 88.6743 33.4526C89.3909 33.7144 90.0593 34.1523 90.4933 34.7771C91.1813 35.7677 91.1907 37.1037 90.8118 38.2473C90.4329 39.3909 89.7131 40.3868 89.0038 41.3624L88.6358 39.5756C88.603 39.4165 88.5607 39.2421 88.4276 39.1479C88.097 38.9138 87.6926 39.3944 87.2869 39.3913C87.0262 39.3893 86.8073 39.1759 86.7085 38.9358C86.6097 38.6957 86.6032 38.4299 86.5803 38.1714C86.5319 37.624 86.3397 36.8624 85.8187 36.5605C85.3333 36.2792 84.5301 36.3623 83.9845 36.3129Z" fill="#532525"/>
<path opacity="0.1" d="M84.1824 65.6889C84.1824 65.6889 84.5434 76.0811 84.7572 76.4002C84.971 76.7193 84.7572 65.6562 84.7572 65.6562L84.1824 65.6889Z" fill="black"/>
<path d="M80.0003 43.9026H79.1451C79.1451 43.9026 75.5106 48.7959 75.9382 49.115C76.3658 49.4341 75.9382 50.2851 75.9382 50.2851L75.083 51.8808C75.083 51.8808 74.014 52.8382 74.3347 53.0509C74.6554 53.2637 75.083 54.1147 75.083 54.1147C75.083 54.1147 77.2209 53.7956 77.8623 55.0721L79.2488 53.3303L80.0003 43.9026Z" fill="#D0CDE1"/>
<path d="M89.728 53.0509C89.728 53.0509 87.3763 53.1573 84.7038 51.4553L82.0313 50.2851C82.0313 50.2851 79.6796 46.6684 79.4658 47.3066C79.252 47.9449 79.7865 49.2214 79.7865 49.2214C79.7865 49.2214 76.5613 50.7067 76.4774 50.903C76.3936 51.0993 78.2899 50.6043 78.2899 50.6043C78.2899 50.6043 77.9692 52.6254 79.7865 52.7318C81.6037 52.8382 82.1382 52.4127 82.1382 52.4127C82.1382 52.4127 89.8349 58.7952 91.1177 56.7741C92.4005 54.7529 89.728 53.0509 89.728 53.0509Z" fill="#F7A46F"/>
<path d="M92.5073 46.7747L93.6832 47.2002V50.3914L94.1108 51.0297C94.1108 51.0297 94.0039 52.3062 93.6832 52.6253C93.3625 52.9445 92.7211 52.8381 92.9349 53.5827C93.0634 54.0682 93.0996 54.5733 93.0418 55.072C93.0418 55.072 91.1176 57.5186 91.0107 57.1995C90.9038 56.8804 89.4072 52.9445 89.1934 52.9445C88.9796 52.9445 91.3314 46.7747 91.3314 46.7747H92.5073Z" fill="#D0CDE1"/>
<path d="M78.4503 62.8907C78.4503 62.8907 77.345 61.8269 77.8977 61.7737C78.4503 61.7205 80.3745 60.6568 80.6952 61.1887C81.0159 61.7205 78.4503 62.8907 78.4503 62.8907Z" fill="#532525"/>
<path d="M61.5752 94.1407C63.4969 90.9502 64.5092 87.2992 64.5036 83.5795C64.5036 72.213 55.244 62.9987 43.8216 62.9987C32.3993 62.9987 23.1397 72.213 23.1397 83.5795C23.1341 87.2992 24.1464 90.9502 26.0681 94.1407H61.5752Z" fill="#395B54"/>
<path d="M43.8216 84.2114C44.9237 84.2114 45.8172 83.3223 45.8172 82.2255C45.8172 81.1287 44.9237 80.2396 43.8216 80.2396C42.7194 80.2396 41.8259 81.1287 41.8259 82.2255C41.8259 83.3223 42.7194 84.2114 43.8216 84.2114Z" fill="#86D0C1"/>
<path d="M27.9474 86.4681C28.4985 86.4681 28.9452 86.0235 28.9452 85.4751C28.9452 84.9267 28.4985 84.4822 27.9474 84.4822C27.3963 84.4822 26.9496 84.9267 26.9496 85.4751C26.9496 86.0235 27.3963 86.4681 27.9474 86.4681Z" fill="#86D0C1"/>
<path d="M28.5327 77.8682C29.0838 77.8682 29.5305 77.4236 29.5305 76.8753C29.5305 76.3269 29.0838 75.8823 28.5327 75.8823C27.9816 75.8823 27.5349 76.3269 27.5349 76.8753C27.5349 77.4236 27.9816 77.8682 28.5327 77.8682Z" fill="#86D0C1"/>
<path d="M33.4857 70.7964C34.0368 70.7964 34.4835 70.3519 34.4835 69.8035C34.4835 69.2551 34.0368 68.8105 33.4857 68.8105C32.9347 68.8105 32.4879 69.2551 32.4879 69.8035C32.4879 70.3519 32.9347 70.7964 33.4857 70.7964Z" fill="#86D0C1"/>
<path d="M41.3914 67.2735C41.9424 67.2735 42.3892 66.8289 42.3892 66.2805C42.3892 65.7321 41.9424 65.2876 41.3914 65.2876C40.8403 65.2876 40.3936 65.7321 40.3936 66.2805C40.3936 66.8289 40.8403 67.2735 41.3914 67.2735Z" fill="#86D0C1"/>
<path d="M49.9911 68.3052C50.5422 68.3052 50.9889 67.8607 50.9889 67.3123C50.9889 66.7639 50.5422 66.3193 49.9911 66.3193C49.44 66.3193 48.9933 66.7639 48.9933 67.3123C48.9933 67.8607 49.44 68.3052 49.9911 68.3052Z" fill="#86D0C1"/>
<path d="M56.8286 73.5976C57.3797 73.5976 57.8264 73.153 57.8264 72.6046C57.8264 72.0562 57.3797 71.6117 56.8286 71.6117C56.2775 71.6117 55.8308 72.0562 55.8308 72.6046C55.8308 73.153 56.2775 73.5976 56.8286 73.5976Z" fill="#86D0C1"/>
<path d="M59.9503 81.6379C60.5014 81.6379 60.9481 81.1933 60.9481 80.6449C60.9481 80.0965 60.5014 79.652 59.9503 79.652C59.3993 79.652 58.9525 80.0965 58.9525 80.6449C58.9525 81.1933 59.3993 81.6379 59.9503 81.6379Z" fill="#86D0C1"/>
<path d="M58.4646 90.13C59.0157 90.13 59.4624 89.6855 59.4624 89.1371C59.4624 88.5887 59.0157 88.1442 58.4646 88.1442C57.9135 88.1442 57.4668 88.5887 57.4668 89.1371C57.4668 89.6855 57.9135 90.13 58.4646 90.13Z" fill="#86D0C1"/>
<path d="M43.8217 82.2257L54.0719 74.4628" stroke="#86D0C1" stroke-width="1.96361" stroke-miterlimit="10"/>
<path d="M53.3047 45.2259C54.0439 45.2259 54.6432 44.6296 54.6432 43.894C54.6432 43.1583 54.0439 42.562 53.3047 42.562C52.5654 42.562 51.9662 43.1583 51.9662 43.894C51.9662 44.6296 52.5654 45.2259 53.3047 45.2259Z" stroke="#395B54" stroke-width="0.981807" stroke-miterlimit="10"/>
<path d="M60.9244 60.7518C61.6636 60.7518 62.2629 60.1554 62.2629 59.4198C62.2629 58.6842 61.6636 58.0879 60.9244 58.0879C60.1852 58.0879 59.5859 58.6842 59.5859 59.4198C59.5859 60.1554 60.1852 60.7518 60.9244 60.7518Z" fill="#395B54"/>
<path d="M38.3993 59.7441C40.5423 59.7441 42.2796 58.0153 42.2796 55.8827C42.2796 53.7502 40.5423 52.0214 38.3993 52.0214C36.2562 52.0214 34.5189 53.7502 34.5189 55.8827C34.5189 58.0153 36.2562 59.7441 38.3993 59.7441Z" fill="#F2F2F2"/>
<defs>
<linearGradient id="paint0_linear" x1="54.5315" y1="10.9427" x2="23.4168" y2="79.0556" gradientUnits="userSpaceOnUse">
<stop stop-color="#8DCABE"/>
<stop offset="1" stop-color="#4BAC99"/>
</linearGradient>
<linearGradient id="paint1_linear" x1="61.8592" y1="30.8049" x2="23.3125" y2="82.4202" gradientUnits="userSpaceOnUse">
<stop offset="0.00359712" stop-color="#417465"/>
<stop offset="1" stop-color="#2A5446"/>
</linearGradient>
</defs>
</svg>
