<svg width="136" height="106" viewBox="0 0 136 106" fill="none" xmlns="http://www.w3.org/2000/svg">
<g clip-path="url(#clip0)">
<g clip-path="url(#clip1)">
<path opacity="0.1" d="M132.704 71.5708C132.582 71.6611 132.47 71.7489 132.351 71.8342C131.91 72.1505 131.449 72.436 130.97 72.6888C128.463 74.0307 125.372 74.6862 122.361 75.1314C115.609 76.1307 108.715 76.3249 101.85 76.5154C83.3026 77.0323 64.7097 77.548 46.2069 76.357C38.8965 75.8871 31.4252 75.1005 24.8007 72.6888C23.8512 72.3442 22.9203 71.9641 22.0081 71.5485C20.1622 70.7063 18.3894 69.681 16.9152 68.4566C15.5298 67.3089 14.4065 65.9905 13.7351 64.4916C12.3352 61.37 13.076 57.8638 14.6745 54.8041C15.3384 53.5662 16.0872 52.3773 16.9152 51.2459C18.1494 49.5231 19.5104 47.8498 20.7519 46.1282C25.1699 40.0088 28.0526 32.2666 23.9746 25.9901C22.8025 24.1869 21.1089 22.6039 20.1537 20.7215C18.9353 18.3136 19.0291 15.6397 19.4166 13.0425C19.4669 12.7127 19.5201 12.3862 19.5762 12.063C20.2378 8.21172 21.483 4.0624 25.3222 1.65814C29.31 -0.84011 34.9732 -0.71396 39.9224 0.174031C47.6191 1.56909 54.7187 4.473 61.894 7.09493C69.0692 9.71685 76.5758 12.1124 84.4613 12.3697C91.4245 12.5973 99.5464 10.8942 104.168 6.46789C108.656 2.16892 117.094 1.84118 123.175 4.43837C127.349 6.22054 130.464 9.43116 131.777 13.0425C132.043 13.7675 132.235 14.5185 132.348 15.2835C132.454 15.9826 132.488 16.6909 132.451 17.3971C132.432 17.7459 132.397 18.0909 132.348 18.4323C131.332 25.5585 124.018 31.1795 119.572 37.5451C117.4 40.6543 115.866 44.3893 117.36 47.7422C119.638 52.8512 127.561 54.668 132.346 58.4698C133.246 59.1617 134.039 59.9872 134.698 60.9186C137.019 64.3024 136.162 68.8722 132.704 71.5708Z" fill="#86D0C1"/>
<path d="M38.4134 54.179C38.4134 54.179 32.8087 44.0969 24.3627 41.193C20.8183 39.9736 17.7248 37.6806 15.6096 34.5467C14.6083 33.0587 13.7436 31.4806 13.0266 29.8322" stroke="#535461" stroke-width="0.719278" stroke-miterlimit="10"/>
<path d="M7.71563 27.9658C8.67818 28.9095 13.1595 29.8989 13.1595 29.8989C13.1595 29.8989 12.0629 25.3822 11.0979 24.4337C10.6341 23.9878 10.0158 23.7454 9.37712 23.7591C8.73843 23.7728 8.13077 24.0413 7.68583 24.5067C7.24089 24.972 6.99451 25.5965 7.00009 26.2449C7.00567 26.8934 7.26276 27.5134 7.71563 27.9708V27.9658Z" fill="#86D0C1"/>
<path d="M10.2511 36.1395C11.5658 36.4042 15.8558 34.7556 15.8558 34.7556C15.8558 34.7556 12.5112 31.5697 11.1954 31.3051C10.57 31.1933 9.92632 31.3346 9.40235 31.6988C8.87839 32.0629 8.51581 32.6209 8.39232 33.2532C8.26882 33.8855 8.39424 34.5417 8.7417 35.0812C9.08915 35.6208 9.63099 36.0007 10.2511 36.1395Z" fill="#86D0C1"/>
<path d="M19.4806 44.9873C20.7478 44.542 23.6232 40.9221 23.6232 40.9221C23.6232 40.9221 19.1541 39.8844 17.8882 40.3297C17.5776 40.4276 17.2895 40.5879 17.0411 40.801C16.7927 41.0141 16.589 41.2757 16.4421 41.5703C16.2952 41.8649 16.2081 42.1864 16.1859 42.5158C16.1638 42.8452 16.2071 43.1757 16.3132 43.4878C16.4193 43.7999 16.5862 44.0872 16.8038 44.3326C17.0214 44.5779 17.2853 44.7765 17.5799 44.9163C17.8746 45.0562 18.1939 45.1345 18.5189 45.1467C18.844 45.1589 19.1681 45.1047 19.4721 44.9873H19.4806Z" fill="#86D0C1"/>
<path d="M27.9485 50.0815C29.2717 49.8589 32.7125 46.7855 32.7125 46.7855C32.7125 46.7855 28.481 44.996 27.1578 45.2173C26.5223 45.3238 25.9546 45.6821 25.5794 46.2135C25.2042 46.7448 25.0523 47.4057 25.1572 48.0507C25.262 48.6958 25.615 49.2721 26.1385 49.6529C26.662 50.0338 27.3131 50.1879 27.9485 50.0815Z" fill="#86D0C1"/>
<path d="M19.589 31.2258C19.589 32.5863 17.1644 36.5352 17.1644 36.5352C17.1644 36.5352 14.7349 32.5887 14.7336 31.2283C14.7264 30.9001 14.7838 30.5736 14.9026 30.2682C15.0213 29.9628 15.199 29.6846 15.4251 29.4498C15.6513 29.2151 15.9214 29.0285 16.2195 28.9012C16.5177 28.7739 16.8379 28.7083 17.1613 28.7083C17.4848 28.7083 17.805 28.7739 18.1031 28.9012C18.4013 29.0285 18.6714 29.2151 18.8975 29.4498C19.1237 29.6846 19.3013 29.9628 19.4201 30.2682C19.5388 30.5736 19.5962 30.9001 19.589 31.2283V31.2258Z" fill="#86D0C1"/>
<path d="M29.4192 37.3195C29.0183 38.6181 25.5397 41.6482 25.5397 41.6482C25.5397 41.6482 24.3847 37.1402 24.7807 35.8354C24.9935 35.238 25.4253 34.7471 25.9861 34.465C26.5469 34.183 27.1933 34.1316 27.7905 34.3216C28.3877 34.5116 28.8896 34.9283 29.1914 35.4847C29.4933 36.0412 29.5718 36.6945 29.4106 37.3084L29.4192 37.3195Z" fill="#86D0C1"/>
<path d="M38.1722 44.5607C37.9943 45.91 35.0702 49.4929 35.0702 49.4929C35.0702 49.4929 33.1816 45.2533 33.3644 43.904C33.459 43.264 33.7978 42.6874 34.3076 42.2988C34.8175 41.9102 35.4574 41.7407 36.0893 41.8269C36.7212 41.9131 37.2943 42.2482 37.685 42.7597C38.0756 43.2711 38.2523 43.918 38.1771 44.5607H38.1722Z" fill="#86D0C1"/>
<path opacity="0.25" d="M7.71563 27.9658C8.67818 28.9095 13.1595 29.8989 13.1595 29.8989C13.1595 29.8989 12.0629 25.3822 11.0979 24.4337C10.6341 23.9878 10.0158 23.7454 9.37712 23.7591C8.73843 23.7728 8.13077 24.0413 7.68583 24.5067C7.24089 24.972 6.99451 25.5965 7.00009 26.2449C7.00567 26.8934 7.26276 27.5134 7.71563 27.9708V27.9658Z" fill="black"/>
<path opacity="0.25" d="M10.2511 36.1395C11.5658 36.4042 15.8558 34.7556 15.8558 34.7556C15.8558 34.7556 12.5112 31.5697 11.1954 31.3051C10.57 31.1933 9.92632 31.3346 9.40235 31.6988C8.87839 32.0629 8.51581 32.6209 8.39232 33.2532C8.26882 33.8855 8.39424 34.5417 8.7417 35.0812C9.08915 35.6208 9.63099 36.0007 10.2511 36.1395Z" fill="black"/>
<path opacity="0.25" d="M19.4806 44.9873C20.7478 44.542 23.6232 40.9221 23.6232 40.9221C23.6232 40.9221 19.1541 39.8844 17.8882 40.3297C17.5776 40.4276 17.2895 40.5879 17.0411 40.801C16.7927 41.0141 16.589 41.2757 16.4421 41.5703C16.2952 41.8649 16.2081 42.1864 16.1859 42.5158C16.1638 42.8452 16.2071 43.1757 16.3132 43.4878C16.4193 43.7999 16.5862 44.0872 16.8038 44.3326C17.0214 44.5779 17.2853 44.7765 17.5799 44.9163C17.8746 45.0562 18.1939 45.1345 18.5189 45.1467C18.844 45.1589 19.1681 45.1047 19.4721 44.9873H19.4806Z" fill="black"/>
<path opacity="0.25" d="M27.9485 50.0815C29.2717 49.8589 32.7125 46.7855 32.7125 46.7855C32.7125 46.7855 28.481 44.996 27.1578 45.2173C26.5223 45.3238 25.9546 45.6821 25.5794 46.2135C25.2042 46.7448 25.0523 47.4057 25.1572 48.0507C25.262 48.6958 25.615 49.2721 26.1385 49.6529C26.662 50.0338 27.3131 50.1879 27.9485 50.0815Z" fill="black"/>
<path opacity="0.25" d="M19.589 31.2258C19.589 32.5863 17.1644 36.5352 17.1644 36.5352C17.1644 36.5352 14.7349 32.5887 14.7336 31.2283C14.7264 30.9001 14.7838 30.5736 14.9026 30.2682C15.0213 29.9628 15.199 29.6846 15.4251 29.4498C15.6513 29.2151 15.9214 29.0285 16.2195 28.9012C16.5177 28.7739 16.8379 28.7083 17.1613 28.7083C17.4848 28.7083 17.805 28.7739 18.1031 28.9012C18.4013 29.0285 18.6714 29.2151 18.8975 29.4498C19.1237 29.6846 19.3013 29.9628 19.4201 30.2682C19.5388 30.5736 19.5962 30.9001 19.589 31.2283V31.2258Z" fill="black"/>
<path opacity="0.25" d="M29.4192 37.3195C29.0183 38.6181 25.5397 41.6482 25.5397 41.6482C25.5397 41.6482 24.3847 37.1402 24.7807 35.8354C24.9935 35.238 25.4253 34.7471 25.9861 34.465C26.5469 34.183 27.1933 34.1316 27.7905 34.3216C28.3877 34.5116 28.8896 34.9283 29.1914 35.4847C29.4933 36.0412 29.5718 36.6945 29.4106 37.3084L29.4192 37.3195Z" fill="black"/>
<path opacity="0.25" d="M38.1722 44.5607C37.9943 45.91 35.0702 49.4929 35.0702 49.4929C35.0702 49.4929 33.1816 45.2533 33.3644 43.904C33.459 43.264 33.7978 42.6874 34.3076 42.2988C34.8175 41.9102 35.4574 41.7407 36.0893 41.8269C36.7212 41.9131 37.2943 42.2482 37.685 42.7597C38.0756 43.2711 38.2523 43.918 38.1771 44.5607H38.1722Z" fill="black"/>
<path d="M38.0906 53.9786C38.0906 53.9786 36.9941 42.4545 30.4293 36.3251C27.6769 33.7527 25.764 30.3887 25.0804 26.6487C24.7596 24.8761 24.5997 23.0773 24.6028 21.275" stroke="#535461" stroke-width="0.719278" stroke-miterlimit="10"/>
<path d="M20.4906 17.3879C20.9926 18.6507 24.6978 21.3901 24.6978 21.3901C24.6978 21.3901 25.4958 16.8079 24.9951 15.5452C24.7543 14.9384 24.286 14.4535 23.693 14.1972C23.1001 13.9409 22.4311 13.9342 21.8333 14.1786C21.2355 14.4229 20.7578 14.8983 20.5053 15.5002C20.2528 16.1021 20.2462 16.7811 20.4869 17.3879H20.4906Z" fill="#86D0C1"/>
<path d="M19.5415 25.903C20.638 26.6858 25.2156 26.9418 25.2156 26.9418C25.2156 26.9418 23.4404 22.6552 22.3438 21.8724C21.8172 21.4952 21.1646 21.3457 20.5295 21.4569C19.8944 21.5681 19.3288 21.9309 18.9572 22.4654C18.5856 22.9999 18.4384 23.6623 18.548 24.307C18.6575 24.9517 19.0149 25.5257 19.5415 25.903Z" fill="#86D0C1"/>
<path d="M24.4529 37.7856C25.7931 37.9006 29.8675 35.7746 29.8675 35.7746C29.8675 35.7746 26.1964 32.9882 24.8598 32.8744C24.5382 32.8397 24.213 32.8705 23.9033 32.9651C23.5936 33.0596 23.3056 33.216 23.0563 33.4251C22.8069 33.6341 22.6012 33.8917 22.4513 34.1825C22.3013 34.4734 22.2101 34.7917 22.183 35.1189C22.1559 35.446 22.1934 35.7753 22.2934 36.0875C22.3934 36.3997 22.5538 36.6885 22.7653 36.9369C22.9767 37.1853 23.2349 37.3884 23.5247 37.5341C23.8145 37.6798 24.1301 37.7654 24.4529 37.7856Z" fill="#86D0C1"/>
<path d="M30.1599 45.9286C31.4588 46.27 35.8316 44.8749 35.8316 44.8749C35.8316 44.8749 32.6772 41.4985 31.3796 41.1572C30.7602 41.0049 30.1066 41.1058 29.5599 41.4383C29.0132 41.7708 28.6171 42.3081 28.4572 42.9343C28.2973 43.5605 28.3863 44.2255 28.7051 44.7856C29.0239 45.3458 29.5469 45.7563 30.1612 45.9286H30.1599Z" fill="#86D0C1"/>
<path d="M30.0442 25.2524C29.502 26.4966 25.7079 29.1074 25.7079 29.1074C25.7079 29.1074 25.0622 24.5017 25.6043 23.2563C25.7299 22.955 25.9133 22.682 26.1439 22.4534C26.3744 22.2248 26.6475 22.045 26.9472 21.9247C27.2469 21.8043 27.5672 21.7456 27.8895 21.7522C28.2117 21.7588 28.5295 21.8304 28.8242 21.9629C29.1189 22.0954 29.3846 22.2861 29.606 22.5239C29.8273 22.7617 29.9998 23.0419 30.1133 23.3481C30.2269 23.6543 30.2793 23.9804 30.2674 24.3073C30.2556 24.6343 30.1797 24.9555 30.0442 25.2524Z" fill="#86D0C1"/>
<path d="M36.5992 34.8595C35.7146 35.8823 31.3247 37.2217 31.3247 37.2217C31.3247 37.2217 32.0655 32.6309 32.9513 31.6081C33.1616 31.3649 33.417 31.1662 33.703 31.0233C33.989 30.8804 34.2999 30.796 34.618 30.7751C34.9361 30.7541 35.2551 30.797 35.5569 30.9012C35.8587 31.0054 36.1373 31.1689 36.3768 31.3824C36.6164 31.5959 36.8121 31.8551 36.9529 32.1454C37.0937 32.4357 37.1768 32.7513 37.1975 33.0742C37.2181 33.3971 37.1759 33.7209 37.0733 34.0272C36.9706 34.3336 36.8095 34.6164 36.5992 34.8595Z" fill="#86D0C1"/>
<path d="M41.7166 45.0863C41.0148 46.2464 36.9112 48.3192 36.9112 48.3192C36.9112 48.3192 36.877 43.6665 37.5788 42.5064C37.9159 41.9488 38.4573 41.55 39.0841 41.3976C39.7109 41.2452 40.3716 41.3518 40.9209 41.6939C41.4703 42.036 41.8632 42.5856 42.0134 43.2218C42.1635 43.858 42.0585 44.5287 41.7214 45.0863H41.7166Z" fill="#86D0C1"/>
<path opacity="0.1" d="M49.7306 104.835C57.2356 104.835 63.3195 104.031 63.3195 103.039C63.3195 102.047 57.2356 101.243 49.7306 101.243C42.2257 101.243 36.1417 102.047 36.1417 103.039C36.1417 104.031 42.2257 104.835 49.7306 104.835Z" fill="#86D0C1"/>
<path opacity="0.1" d="M22.2823 103.618C24.5621 103.618 26.4102 103.297 26.4102 102.9C26.4102 102.504 24.5621 102.183 22.2823 102.183C20.0025 102.183 18.1543 102.504 18.1543 102.9C18.1543 103.297 20.0025 103.618 22.2823 103.618Z" fill="#86D0C1"/>
<path d="M23.179 94.9133C23.179 94.9133 23.8479 95.8026 22.8695 97.1395C21.8911 98.4764 21.0845 99.613 21.4074 100.45C21.4074 100.45 22.8829 97.9582 24.0879 97.9236C25.2929 97.889 24.5022 96.4123 23.179 94.9133Z" fill="#86D0C1"/>
<path opacity="0.1" d="M23.179 94.9133C23.2374 94.9994 23.2834 95.0935 23.3154 95.1928C24.4875 96.5904 25.1126 97.8951 23.9856 97.9273C22.9365 97.9582 21.6767 99.8628 21.3757 100.344C21.3857 100.381 21.3975 100.418 21.4111 100.454C21.4111 100.454 22.8866 97.9619 24.0916 97.9273C25.2966 97.8927 24.5022 96.4123 23.179 94.9133Z" fill="black"/>
<path d="M24.423 96.0463C24.423 96.3592 24.3889 96.6128 24.3463 96.6128C24.3036 96.6128 24.2683 96.3654 24.2683 96.0463C24.2683 95.7272 24.3122 95.8806 24.3548 95.8806C24.3975 95.8806 24.423 95.7334 24.423 96.0463Z" fill="#898474"/>
<path d="M24.8507 96.4199C24.5802 96.5695 24.3438 96.6598 24.3231 96.6215C24.3024 96.5831 24.5059 96.431 24.7764 96.2814C25.0468 96.1317 24.9396 96.2406 24.9603 96.2814C24.981 96.3222 25.1212 96.2702 24.8507 96.4199Z" fill="#898474"/>
<path d="M19.6431 94.9133C19.6431 94.9133 18.9742 95.8026 19.9526 97.1395C20.931 98.4764 21.7376 99.613 21.4147 100.45C21.4147 100.45 19.9392 97.9582 18.7342 97.9236C17.5292 97.889 18.3224 96.4123 19.6431 94.9133Z" fill="#86D0C1"/>
<path opacity="0.1" d="M19.6432 94.9133C19.5848 94.9994 19.5388 95.0935 19.5068 95.1928C18.3347 96.5904 17.7096 97.8951 18.8366 97.9273C19.8869 97.9582 21.1455 99.8628 21.4465 100.344C21.4371 100.381 21.4253 100.418 21.4111 100.454C21.4111 100.454 19.9356 97.9619 18.7306 97.9273C17.5256 97.8927 18.3225 96.4123 19.6432 94.9133Z" fill="black"/>
<path d="M18.3992 96.0463C18.3992 96.3592 18.4333 96.6128 18.4759 96.6128C18.5186 96.6128 18.5539 96.3654 18.5539 96.0463C18.5539 95.7272 18.51 95.8806 18.4674 95.8806C18.4248 95.8806 18.3992 95.7334 18.3992 96.0463Z" fill="#898474"/>
<path d="M17.9727 96.4199C18.2432 96.5695 18.4784 96.6598 18.4991 96.6215C18.5198 96.5831 18.3163 96.431 18.0459 96.2814C17.7754 96.1317 17.8826 96.2406 17.8619 96.2814C17.8412 96.3222 17.7023 96.2702 17.9727 96.4199Z" fill="#898474"/>
<path d="M18.6124 100.338C18.6124 100.338 20.4839 100.279 21.0492 99.8717C21.6146 99.4648 23.9271 98.9763 24.0672 99.6305C24.2074 100.285 26.8793 102.882 24.7666 102.899C22.6539 102.917 19.8576 102.565 19.2947 102.218C18.7318 101.87 18.6124 100.338 18.6124 100.338Z" fill="#A8A8A8"/>
<path opacity="0.2" d="M24.8032 102.672C22.6904 102.689 19.8942 102.338 19.3313 101.99C18.9024 101.724 18.7318 100.773 18.6746 100.335H18.6124C18.6124 100.335 18.7343 101.867 19.2935 102.215C19.8528 102.564 22.6527 102.914 24.7654 102.897C25.3746 102.897 25.5866 102.672 25.5744 102.345C25.4903 102.546 25.2576 102.668 24.8032 102.672Z" fill="black"/>
<path d="M81.1096 100.265C81.1096 100.265 75.9581 99.9495 76.5661 103.614C76.5661 103.614 76.4443 104.261 77.023 104.555C77.023 104.555 77.0328 104.284 77.5518 104.376C77.7365 104.407 77.9242 104.417 78.1111 104.403C78.3641 104.386 78.6047 104.285 78.7958 104.116C78.7958 104.116 80.2433 103.51 80.8062 101.107C80.8062 101.107 81.2229 100.583 81.207 100.448L80.3371 100.819C80.3371 100.819 80.6344 101.456 80.4004 101.985C80.4004 101.985 80.3724 100.842 80.2055 100.872C80.1714 100.872 79.7535 101.092 79.7535 101.092C79.7535 101.092 80.2652 102.205 79.8753 103.007C79.8753 103.007 80.0215 101.646 79.5902 101.173L78.981 101.535C78.981 101.535 79.578 102.68 79.1735 103.615C79.1735 103.615 79.2771 102.182 78.8531 101.623L78.2987 102.062C78.2987 102.062 78.8592 103.191 78.5168 103.966C78.5168 103.966 78.4729 102.298 78.1781 102.172C78.1781 102.172 77.6907 102.606 77.6188 102.79C77.6188 102.79 78.0026 103.609 77.765 104.042C77.765 104.042 77.6188 102.929 77.4982 102.929C77.4982 102.929 77.0108 103.671 76.9645 104.166C76.9645 104.166 76.9865 103.415 77.3812 102.853C77.1026 102.907 76.8455 103.043 76.6417 103.243C76.6417 103.243 76.7172 102.722 77.4945 102.677C77.4945 102.677 77.8942 102.118 78.0014 102.084C78.0014 102.084 77.2216 102.017 76.7489 102.23C76.7489 102.23 77.1644 101.735 78.144 101.962L78.691 101.509C78.691 101.509 77.6651 101.366 77.2289 101.524C77.2289 101.524 77.7309 101.089 78.8384 101.4L79.4355 101.039C79.4355 101.039 78.5594 100.847 78.0379 100.915C78.0379 100.915 78.5887 100.614 79.6097 100.94L80.0361 100.746C80.0361 100.746 79.394 100.622 79.2064 100.599C79.0188 100.575 79.009 100.526 79.009 100.526C79.4153 100.457 79.8325 100.504 80.214 100.662C80.214 100.662 81.1254 100.323 81.1096 100.265Z" fill="#86D0C1"/>
<path opacity="0.1" d="M77.5615 105.5C79.5748 105.5 81.207 105.22 81.207 104.874C81.207 104.529 79.5748 104.249 77.5615 104.249C75.5482 104.249 73.916 104.529 73.916 104.874C73.916 105.22 75.5482 105.5 77.5615 105.5Z" fill="#86D0C1"/>
<path d="M72.0847 100.46C72.0847 100.46 69.18 100.282 69.5261 102.349C69.5086 102.454 69.5242 102.561 69.5705 102.657C69.6169 102.752 69.6918 102.83 69.7844 102.879C69.7844 102.879 69.7844 102.726 70.0829 102.778C70.1867 102.795 70.2922 102.801 70.3972 102.794C70.5397 102.783 70.6752 102.727 70.7835 102.632C70.7835 102.632 71.5998 102.289 71.9178 100.935C71.9178 100.935 72.1517 100.64 72.1432 100.564L71.6558 100.776C71.6558 100.776 71.8228 101.136 71.6912 101.434C71.6912 101.434 71.6753 100.789 71.5815 100.804C71.562 100.804 71.3269 100.928 71.3269 100.928C71.3269 100.928 71.6144 101.546 71.3975 102.007C71.3975 102.007 71.4792 101.237 71.2367 100.972L70.8919 101.178C70.8919 101.178 71.2282 101.823 71.0003 102.35C71.0003 102.35 71.0588 101.541 70.8188 101.227L70.5069 101.474C70.5069 101.474 70.8224 102.111 70.6287 102.548C70.6287 102.548 70.6031 101.607 70.4374 101.536C70.3188 101.638 70.2128 101.754 70.1219 101.881C70.1219 101.881 70.3387 102.344 70.2047 102.588C70.2047 102.588 70.1219 101.96 70.0549 101.958C70.0549 101.958 69.7819 102.374 69.7539 102.658C69.7663 102.394 69.8469 102.138 69.9878 101.916C69.8309 101.946 69.686 102.022 69.5711 102.135C69.5711 102.135 69.6138 101.841 70.0585 101.816C70.0585 101.816 70.2827 101.5 70.3436 101.482C70.3436 101.482 69.9038 101.444 69.6369 101.563C69.6369 101.563 69.8721 101.286 70.424 101.413L70.7323 101.157C70.7323 101.157 70.1535 101.076 69.9086 101.165C69.9086 101.165 70.1913 100.918 70.8164 101.098L71.1514 100.896C70.8932 100.838 70.6285 100.814 70.3643 100.826C70.3643 100.826 70.675 100.657 71.2501 100.84L71.4938 100.731C71.4938 100.731 71.1283 100.658 71.0271 100.647C70.926 100.636 70.915 100.606 70.915 100.606C71.1443 100.568 71.3796 100.594 71.5949 100.683C71.5949 100.683 72.0932 100.494 72.0847 100.46Z" fill="#86D0C1"/>
<path opacity="0.1" d="M70.0841 103.413C71.2193 103.413 72.1396 103.255 72.1396 103.06C72.1396 102.865 71.2193 102.708 70.0841 102.708C68.9489 102.708 68.0287 102.865 68.0287 103.06C68.0287 103.255 68.9489 103.413 70.0841 103.413Z" fill="#86D0C1"/>
<path d="M77.6126 96.081C77.6126 96.081 74.1072 95.8658 74.5203 98.3603C74.4991 98.4868 74.5178 98.6169 74.5738 98.732C74.6298 98.8471 74.7203 98.9412 74.8322 99.001C74.8322 99.001 74.8322 98.8167 75.1916 98.8773C75.3173 98.8976 75.4448 98.9039 75.5718 98.8958C75.744 98.8833 75.9076 98.8148 76.0384 98.7004C76.0384 98.7004 77.0241 98.2873 77.4067 96.6511C77.4067 96.6511 77.6906 96.2949 77.6796 96.2034L77.0875 96.4594C77.0875 96.4594 77.2897 96.8935 77.1313 97.2534C77.1313 97.2534 77.1118 96.4755 76.9973 96.494C76.9754 96.494 76.6903 96.6437 76.6903 96.6437C76.6903 96.6437 77.0387 97.3993 76.7756 97.9472C76.7756 97.9472 76.8755 97.0172 76.5818 96.6981L76.1651 96.9455C76.1651 96.9455 76.5721 97.7246 76.2967 98.3615C76.2967 98.3615 76.3674 97.3857 76.0774 97.0011L75.6997 97.2992C75.6997 97.2992 76.0823 98.0672 75.8496 98.5953C75.8496 98.5953 75.8191 97.4599 75.6181 97.3734C75.6181 97.3734 75.2879 97.669 75.2379 97.7902C75.2379 97.7902 75.4999 98.3479 75.3366 98.6423C75.3366 98.6423 75.2379 97.8866 75.1563 97.8829C75.1563 97.8829 74.8273 98.3776 74.7908 98.7276C74.8065 98.41 74.9039 98.1021 75.0734 97.8347C74.8839 97.8713 74.709 97.9633 74.5702 98.0994C74.5702 98.0994 74.6214 97.7444 75.1551 97.7135C75.1551 97.7135 75.4268 97.3338 75.4999 97.3103C75.4999 97.3103 74.9687 97.2658 74.647 97.4105C74.647 97.4105 74.9297 97.0753 75.5974 97.2274L75.9702 96.9195C75.9702 96.9195 75.2708 96.8218 74.9747 96.9294C74.9747 96.9294 75.3159 96.6338 76.0713 96.849L76.477 96.6016C76.477 96.6016 75.8812 96.478 75.5267 96.5188C75.5267 96.5188 75.9007 96.3135 76.5964 96.5348L76.8864 96.4037C76.8864 96.4037 76.449 96.3159 76.3211 96.3023C76.1932 96.2887 76.1871 96.2529 76.1871 96.2529C76.4636 96.2062 76.7474 96.2383 77.0071 96.3456C77.0071 96.3456 77.6248 96.1205 77.6126 96.081Z" fill="#86D0C1"/>
<path opacity="0.1" d="M75.1989 99.6441C76.5696 99.6441 77.6808 99.4536 77.6808 99.2187C77.6808 98.9837 76.5696 98.7932 75.1989 98.7932C73.8282 98.7932 72.717 98.9837 72.717 99.2187C72.717 99.4536 73.8282 99.6441 75.1989 99.6441Z" fill="#86D0C1"/>
<path d="M132.575 71.8096V11.316H16.6617V68.3392C18.1421 69.5933 19.9222 70.6483 21.7791 71.5152C22.6937 71.9431 23.6278 72.3344 24.5814 72.6889H131.192L132.575 71.8096Z" fill="url(#paint0_linear)"/>
<path d="M132.351 71.8343V13.0475H16.9152V68.4666C18.3894 69.686 20.1622 70.7113 22.0081 71.5585C22.9195 71.9707 23.8503 72.3508 24.8007 72.6988H130.97L132.351 71.8343Z" fill="white"/>
<path d="M132.351 11.4879H16.9164V14.5971H132.351V11.4879Z" fill="#C1C1C1"/>
<path d="M19.2217 13.8466C19.659 13.8466 20.0136 13.4866 20.0136 13.0427C20.0136 12.5987 19.659 12.2388 19.2217 12.2388C18.7843 12.2388 18.4297 12.5987 18.4297 13.0427C18.4297 13.4866 18.7843 13.8466 19.2217 13.8466Z" fill="white"/>
<path d="M21.3539 13.8463C21.7912 13.8463 22.1458 13.4864 22.1458 13.0424C22.1458 12.5984 21.7912 12.2385 21.3539 12.2385C20.9165 12.2385 20.5619 12.5984 20.5619 13.0424C20.5619 13.4864 20.9165 13.8463 21.3539 13.8463Z" fill="white"/>
<path d="M23.4861 13.8463C23.9235 13.8463 24.278 13.4864 24.278 13.0424C24.278 12.5984 23.9235 12.2385 23.4861 12.2385C23.0487 12.2385 22.6941 12.5984 22.6941 13.0424C22.6941 13.4864 23.0487 13.8463 23.4861 13.8463Z" fill="white"/>
<path d="M65.4834 21.4303H46.4153V33.5926H65.4834V21.4303Z" fill="#86D0C1"/>
<path opacity="0.2" d="M39.0816 21.4303H20.0135V33.5926H39.0816V21.4303Z" fill="#C1C1C1"/>
<path opacity="0.2" d="M91.885 21.4303H72.8169V33.5926H91.885V21.4303Z" fill="#C1C1C1"/>
<path opacity="0.2" d="M39.0816 38.8177H20.0135V50.98H39.0816V38.8177Z" fill="#C1C1C1"/>
<path opacity="0.2" d="M65.4834 38.8177H46.4153V50.98H65.4834V38.8177Z" fill="#C1C1C1"/>
<path opacity="0.2" d="M91.885 38.8177H72.8169V50.98H91.885V38.8177Z" fill="#C1C1C1"/>
<path opacity="0.2" d="M39.0816 56.2041H20.0135V68.3664H39.0816V56.2041Z" fill="#C1C1C1"/>
<path opacity="0.2" d="M65.4834 56.2041H46.4153V68.3664H65.4834V56.2041Z" fill="#C1C1C1"/>
<path opacity="0.2" d="M91.885 56.2041H72.8169V68.3664H91.885V56.2041Z" fill="#C1C1C1"/>
<path d="M48.6456 88.1541C48.5106 88.4448 48.411 88.7538 48.3492 89.0733C48.2506 89.5873 48.2075 90.1125 48.2208 90.6377C48.2287 91.0013 48.2564 91.2393 48.2564 91.2393L46.0359 92.927C46.0359 92.927 46.0487 92.7294 46.0705 92.439C46.1278 91.6661 46.2473 90.2316 46.3599 90.046C46.4379 89.9172 46.4922 89.3997 46.5268 88.9194C46.5614 88.439 46.5752 88.0176 46.5752 88.0176C46.5752 88.0176 49.2471 86.9107 48.6456 88.1541Z" fill="#F9B776"/>
<path d="M53.8897 89.3648C53.8897 89.3648 53.8897 89.8342 53.8739 90.3801C53.8581 90.9259 53.8285 91.5701 53.7662 91.8703C53.7089 92.1454 53.705 92.6508 53.7158 93.117C53.7307 93.6629 53.7662 94.1541 53.7662 94.1541C53.7662 94.1541 51.4993 91.7851 51.7304 91.5974C51.7926 91.5471 51.8539 91.3452 51.9102 91.0766C51.9793 90.7491 52.0416 90.3124 52.088 89.9412C52.1433 89.4991 52.1779 89.1432 52.1779 89.1432L53.8897 89.3648Z" fill="#F9B776"/>
<path d="M58.5312 66.1441C57.6264 68.3275 57.256 70.9171 57.256 70.9171L56.9271 73.1005C56.9271 73.1005 57.092 74.0546 56.9271 74.4182C56.7621 74.7817 56.4332 75.3734 56.4332 75.3734C56.4332 75.3734 56.6801 77.6005 56.4332 77.8276C56.1863 78.0546 56.4332 79.4182 56.4332 79.4182L55.6104 84.0033L54.4586 89.9117C53.3484 90.9127 51.8707 89.6398 51.8707 89.6398L52.1966 85.7763C52.1966 85.7763 52.6905 79.0077 52.4851 78.7304C52.2796 78.4531 52.567 77.5939 52.567 77.5939C52.567 77.5939 52.8555 76.7752 52.65 76.4575C52.4446 76.1398 52.6905 75.4575 52.6905 75.4575C52.6905 75.4575 52.6085 72.6845 52.8555 72.0481C53.1024 71.4116 52.8555 67.4749 52.8555 67.4749L52.7567 66.2489L52.6994 65.5699L52.6945 65.5033C52.6945 65.5033 52.6569 65.7751 52.5957 66.1965C52.4139 67.4793 52.0267 70.1376 51.8736 70.6845C51.7695 71.0787 51.6282 71.4596 51.4518 71.821C51.4518 71.821 51.6652 73.1845 51.4518 73.5481C51.2385 73.9116 51.4193 74.321 51.4193 74.321C51.4193 74.321 51.6247 75.4575 51.0073 75.9116C50.39 76.3658 51.0073 76.5939 51.0073 76.5939C51.0073 76.5939 50.5549 77.6856 50.391 78.1387C50.227 78.5918 50.391 79.2304 50.391 79.2304L50.062 82.9116C50.062 82.9116 49.7736 84.4564 49.8151 85.5023C49.8566 86.5481 49.4447 88.9564 49.4447 88.9564C49.4447 88.9564 46.2779 88.9564 45.7899 88.547C45.302 88.1376 46.6048 84.1442 46.6048 84.1442C46.6048 84.1442 46.9752 77.1441 46.8923 76.9629C46.8093 76.7817 46.8923 75.4171 47.1807 75.1452C47.4691 74.8734 47.1807 74.3265 47.1807 74.3265C47.1807 74.3265 47.0987 73.2348 47.1807 72.9629C47.2627 72.6911 47.1679 71.7806 47.1679 71.7806C47.1679 71.7806 46.8923 69.5535 46.8518 68.2806C46.8113 67.0077 46.6048 64.1452 46.6048 64.1452C46.6048 64.1452 46.8202 62.3745 46.8528 61.5317C46.8646 61.2216 46.9901 60.8341 47.1491 60.4694C47.3271 60.0577 47.5318 59.6608 47.7615 59.2817C47.7615 59.2817 57.5059 56.0982 57.9149 56.4148C58.0235 56.4989 58.1816 57.0699 58.3376 57.8963C58.7722 60.2052 59.197 64.5393 58.5312 66.1441Z" fill="#444053"/>
<path d="M48.4767 92.7567C48.1629 93.5479 48.005 94.4038 48.0134 95.2676C48.0259 95.9759 47.8634 96.6746 47.5433 97.2884C47.4969 97.3748 47.4448 97.4573 47.3872 97.5351C47.3872 97.5351 45.8443 97.5209 45.304 97.0264C45.2433 96.9733 45.1937 96.9062 45.1588 96.8298C44.8496 96.1486 45.7603 93.5405 45.7603 93.5405C46.2384 91.5296 47.2094 90.4554 47.2094 90.4554C48.939 89.9608 48.4767 92.7567 48.4767 92.7567Z" fill="#444053"/>
<path d="M47.3319 93.7917L47.2242 98.1956H47.7418C47.7418 98.1956 47.8258 94.3321 48.0569 93.7917C48.2881 93.2513 47.3319 93.7917 47.3319 93.7917Z" fill="#444053"/>
<path d="M54.105 96.796C54.0876 96.8043 54.0694 96.8101 54.0507 96.8135C53.784 96.8648 52.8012 96.8353 52.251 96.8135C52.1502 96.8098 52.0546 96.763 51.9844 96.683C51.9142 96.6029 51.8748 96.4959 51.8746 96.3844C51.8746 96.2207 51.8746 96.0209 51.8628 95.808C51.8371 95.1355 51.764 94.3353 51.5457 94.1552C51.1595 93.8277 50.8543 92.7163 51.5457 91.3091C51.5457 91.3091 52.8713 90.1901 53.8275 93.5537C53.8275 93.5537 53.9203 94.5133 54.3362 94.8539C54.752 95.1945 54.2907 96.6989 54.105 96.796Z" fill="#444053"/>
<path opacity="0.1" d="M54.0488 96.8134C53.7821 96.8648 52.7992 96.8353 52.249 96.8134C52.1482 96.8098 52.0527 96.763 51.9824 96.6829C51.9122 96.6029 51.8729 96.4959 51.8727 96.3844C51.8727 96.2207 51.8727 96.0209 51.8608 95.808C52.0278 94.9936 52.2678 94.1552 52.577 93.9641C52.579 93.963 53.5144 93.8462 54.0488 96.8134Z" fill="black"/>
<path d="M51.7136 93.8648L51.9625 97.5297H52.2786V93.5526L51.7136 93.8648Z" fill="#444053"/>
<path d="M60.8108 32.0836L59.4949 32.556L59.0173 31.7521C58.6518 31.1337 58.1449 30.2878 57.7709 29.6731C57.1105 28.5922 57.9744 26.9448 57.9744 26.9448C57.9744 26.9448 58.1303 25.2913 58.6859 24.7818C59.2415 24.2722 59.3963 26.9448 59.3963 26.9448C61.6272 27.9738 60.4319 30.3942 60.4319 30.3942L60.6488 31.3539L60.8108 32.0836Z" fill="#F9B776"/>
<path opacity="0.1" d="M60.8108 32.0837L59.4949 32.5561L59.0173 31.7522V31.6817C59.0173 31.6817 59.7715 31.1561 60.6512 31.354L60.8108 32.0837Z" fill="black"/>
<path d="M58.6859 37.5006L59.3451 36.9341L59.0149 31.8362C59.0149 31.8362 60.7207 30.6514 61.9829 32.5053C61.9829 32.5053 61.9318 33.6382 61.9829 33.9474C62.0341 34.2565 61.6284 34.5657 61.9829 34.8737C62.3375 35.1816 61.9829 36.2131 61.9829 36.2131C61.9829 36.2131 62.3838 36.9341 62.6372 37.1394C62.8906 37.3447 63.1453 39.0453 62.6372 39.4052C62.1291 39.7651 61.1763 40.59 61.1763 40.9499C61.1763 41.3098 59.9579 42.1866 59.9579 42.1866L58.8882 40.7508L58.6859 37.5006Z" fill="#FF6484"/>
<path d="M44.4305 68.4467C41.9718 67.388 42.5176 64.802 42.9806 63.4997C43.0731 63.2358 43.1818 62.9781 43.3059 62.7279L44.6851 61.8783C44.6851 61.8783 44.9666 62.6067 45.2675 63.5838C45.9657 65.8569 46.7686 69.4547 44.4305 68.4467Z" fill="#F9B776"/>
<path opacity="0.1" d="M47.8104 92.0428C47.6439 92.3721 47.521 92.7223 47.4449 93.0842C46.6952 93.0642 45.9469 93.006 45.203 92.9098C45.2444 92.378 45.2627 91.8883 45.2627 91.8883C45.2627 91.8883 48.5524 90.6342 47.8104 92.0428Z" fill="black"/>
<path opacity="0.1" d="M54.2789 93.4144C54.2789 93.4144 54.2789 93.9462 54.2594 94.5645C53.387 94.7908 52.4903 94.3382 52.0565 94.0698C52.1247 93.5689 52.1674 93.1658 52.1674 93.1658L54.2789 93.4144Z" fill="black"/>
<path d="M53.3263 36.9843C54.9076 36.9843 56.1895 35.6474 56.1895 33.9984C56.1895 32.3493 54.9076 31.0125 53.3263 31.0125C51.745 31.0125 50.4631 32.3493 50.4631 33.9984C50.4631 35.6474 51.745 36.9843 53.3263 36.9843Z" fill="#F9B776"/>
<path opacity="0.1" d="M59.7654 57.7674C59.3621 57.9776 59.0916 58.1223 59.0916 58.1223C59.0916 58.1223 53.4102 60.8518 51.7946 60.6972C50.5445 60.5736 47.3535 60.6441 45.9633 60.6787C46.1828 60.2123 46.4353 59.7626 46.7187 59.3331C46.7187 59.3331 58.7395 55.728 59.2439 56.0866C59.3779 56.1843 59.5729 56.8287 59.7654 57.7674Z" fill="black"/>
<path d="M50.1631 37.7578C50.1631 37.7578 46.0595 36.9391 45.2944 37.4486C44.5292 37.9582 43.8749 40.2808 43.8749 42.3919C43.8749 44.5031 43.5204 46.6662 43.3169 47.2833C43.1134 47.9005 46.5128 52.8957 46.5128 52.8957L45.2944 60.4659C45.2944 60.4659 50.168 60.3113 51.7909 60.4659C53.4138 60.6205 59.0929 57.891 59.0929 57.891C59.0929 57.891 62.441 56.089 63.1514 56.0359C63.8617 55.9827 61.7307 52.0708 61.7307 52.0708C61.7307 52.0708 58.4325 45.7386 58.9905 44.7084C59.5485 43.6782 59.9579 42.1854 59.9579 42.1854L59.3487 36.9341C59.3487 36.9341 57.6668 35.6714 56.9053 36.2378C56.1438 36.8042 54.3264 37.4486 54.3264 37.4486L50.1631 37.7578Z" fill="#FF6484"/>
<path opacity="0.1" d="M44.6596 46.9235L43.3876 47.2833L43.0354 52.129C43.0354 52.129 43.4923 53.4164 43.0354 53.8283C42.5785 54.2401 42.4774 63.0458 42.4774 63.0458C42.4774 63.0458 43.9493 64.1267 45.6733 63.3031C45.6733 63.3031 45.4199 62.3248 46.1814 58.7716C46.9429 55.2184 46.9417 53.4164 46.9417 53.4164C46.9417 53.4164 46.9417 48.9876 47.2974 48.2666C47.6532 47.5455 47.2974 45.7436 47.2974 45.7436C47.2974 45.7436 46.5871 44.7653 46.6371 44.4054C46.687 44.0455 44.6596 46.9235 44.6596 46.9235Z" fill="black"/>
<path opacity="0.1" d="M45.2676 63.5876C44.5205 63.8429 43.7075 63.8129 42.9806 63.5035C43.0731 63.2396 43.1818 62.9819 43.3059 62.7317L44.6852 61.8821C44.6852 61.8821 44.9715 62.6105 45.2676 63.5876Z" fill="black"/>
<path d="M44.5828 46.9235L43.3144 47.2834L42.9599 52.129C42.9599 52.129 43.4168 53.4164 42.9599 53.8283C42.503 54.2401 42.4019 63.0458 42.4019 63.0458C42.4019 63.0458 43.8749 64.1255 45.5977 63.2981C45.5977 63.2981 45.3443 62.3199 46.1046 58.7667C46.8649 55.2134 46.8661 53.4115 46.8661 53.4115C46.8661 53.4115 46.8661 48.9827 47.2207 48.2616C47.5752 47.5406 47.2207 45.7386 47.2207 45.7386C47.2207 45.7386 46.5103 44.7604 46.5615 44.4005C46.6127 44.0406 44.5828 46.9235 44.5828 46.9235Z" fill="#FF6484"/>
<path opacity="0.1" d="M57.5698 47.6952C57.5698 47.6952 56.9107 53.4622 54.9819 54.5444C54.9819 54.5444 59.2939 53.3088 57.5698 47.6952Z" fill="black"/>
<path opacity="0.1" d="M47.8811 48.2109C47.8811 48.2109 50.2643 49.3945 49.7087 50.2182C49.1531 51.0419 47.8811 48.2109 47.8811 48.2109Z" fill="black"/>
<path opacity="0.1" d="M47.8811 50.5793C47.8811 50.5793 49.4029 52.176 49.0995 52.7424C48.7961 53.3089 47.8811 50.5793 47.8811 50.5793Z" fill="black"/>
<path opacity="0.1" d="M60.1565 37.3461C60.1565 37.3461 60.7535 38.375 60.8108 39.0454C60.868 39.7157 60.1565 37.3461 60.1565 37.3461Z" fill="black"/>
<path opacity="0.1" d="M60.1565 35.9558C60.1565 35.9558 60.4562 35.6973 61.2214 35.9558C61.9865 36.2143 60.1565 35.9558 60.1565 35.9558Z" fill="black"/>
<path opacity="0.1" d="M57.2275 66.0524C55.9706 66.2334 54.6889 66.0667 53.5175 65.57L52.8778 67.2322L52.8071 66.463C52.9119 65.8174 53.1154 65.126 53.5175 64.9517C53.5175 64.9517 54.9259 66.0907 57.2275 66.0524Z" fill="black"/>
<path opacity="0.1" d="M46.821 68.2155C46.821 68.2155 49.9414 68.8722 50.8162 68.7559L46.821 68.2155Z" fill="black"/>
<path opacity="0.1" d="M47.1451 69.0454C47.1451 69.0454 48.4769 68.9873 49.1421 69.2581L47.1451 69.0454Z" fill="black"/>
<path opacity="0.1" d="M47.2975 69.6057C47.9051 69.7367 48.5219 69.8195 49.1422 69.8531L47.2975 69.6057Z" fill="black"/>
<path opacity="0.1" d="M47.2206 76.6921C47.2778 76.6538 49.884 76.0355 50.2081 76.4794L47.2206 76.6921Z" fill="black"/>
<path opacity="0.1" d="M47.2206 77.5034C47.2206 77.5034 49.4844 77.2326 49.5417 77.5034C49.5989 77.7743 47.2206 77.5034 47.2206 77.5034Z" fill="black"/>
<path opacity="0.1" d="M47.2206 78.237C47.2206 78.237 49.6367 77.73 49.9218 77.8537C50.2069 77.9773 47.2206 78.237 47.2206 78.237Z" fill="black"/>
<path opacity="0.1" d="M47.3352 95.5391L44.5962 97.4511C44.5962 97.4511 44.612 97.2273 44.6388 96.8983C45.248 95.3771 46.0412 94.5744 46.0412 94.5744C46.659 94.4112 47.0488 94.562 47.2913 94.8576C47.3011 95.2682 47.3352 95.5391 47.3352 95.5391Z" fill="black"/>
<path opacity="0.1" d="M46.4506 102.385C46.3935 102.483 46.3291 102.576 46.2581 102.664C46.2581 102.664 44.3549 102.648 43.6885 102.088C44.0162 100.987 45.0616 97.6566 45.5514 98.223C46.012 98.7548 46.3324 101.314 46.4506 102.385Z" fill="black"/>
<path opacity="0.1" d="M54.1266 98.8402C54.1266 98.8402 51.3304 96.1564 51.6155 95.9437C51.6923 95.8868 51.7678 95.658 51.8373 95.3538C52.3746 95.2585 53.2993 95.4861 54.0645 97.6652C54.0828 98.2836 54.1266 98.8402 54.1266 98.8402Z" fill="black"/>
<path d="M52.4411 29.5261C51.8413 29.5715 51.2608 29.7613 50.7472 30.0797C50.6149 30.1611 50.4827 30.2599 50.4278 30.4059C50.3802 30.5323 50.4001 30.6749 50.402 30.8094C50.4199 31.9677 49.1504 32.8441 49.1901 34.0023C49.206 34.461 49.4327 34.8888 49.4744 35.3475C49.5438 36.1116 49.0995 36.8145 48.6737 37.4481C49.1123 37.4743 49.544 37.3287 49.8804 37.0412C50.3296 38.5642 50.3876 40.1789 50.049 41.7313H50.6579C50.7181 41.727 50.7785 41.7348 50.8358 41.7541C50.8893 41.7795 50.9372 41.8156 50.9766 41.8604C51.5459 42.4375 51.9274 43.289 51.7099 44.076L53.0058 43.5816C53.3159 43.4632 53.6306 43.3428 53.9004 43.1478C54.1701 42.9527 54.3963 42.6696 54.4531 42.3373C54.4882 42.1355 54.4769 41.8947 54.6402 41.7777C54.7207 41.7341 54.8065 41.7018 54.8954 41.6815C55.2512 41.5537 55.4085 41.1353 55.4813 40.7587C55.5706 40.2962 55.5991 39.8237 55.5659 39.3536C55.5084 38.5666 55.2796 37.7676 55.468 36.9995C55.5745 36.5683 55.8112 36.1668 55.8304 35.7215C55.8614 34.9877 55.2974 34.3554 55.2135 33.6257C55.1546 33.1172 55.3351 32.6033 55.2763 32.0941C55.2435 31.8317 55.1491 31.5812 55.0009 31.3638C54.8528 31.1464 54.6554 30.9684 54.4253 30.8451C54.266 30.7617 54.0948 30.7059 53.9374 30.6144C53.5784 30.4018 53.3489 30.0205 53.023 29.7582C52.697 29.4958 52.1542 29.397 51.9089 29.738L52.4411 29.5261Z" fill="#925978"/>
<g opacity="0.1">
<path opacity="0.1" d="M48.7874 28.1123C48.7826 28.16 48.7802 28.2079 48.7803 28.2558C48.7838 28.2088 48.7862 28.1605 48.7874 28.1123Z" fill="black"/>
<path opacity="0.1" d="M57.643 33.063C57.6868 32.4075 57.8306 31.7496 57.777 31.0966C57.7368 31.752 57.593 32.41 57.643 33.063Z" fill="black"/>
<path opacity="0.1" d="M47.0806 36.3219C47.0099 35.5551 46.6578 34.8378 46.5749 34.0723C46.5584 34.2126 46.5523 34.354 46.5567 34.4952C46.5859 35.33 46.9941 36.1104 47.0769 36.9415C47.0971 36.7356 47.0983 36.5281 47.0806 36.3219Z" fill="black"/>
<path opacity="0.1" d="M58.1303 39.368C58.0163 39.8713 57.9752 40.3887 58.0085 40.9041C58.0207 40.6035 58.0615 40.3049 58.1303 40.0124C58.3265 39.2196 58.7627 38.4812 58.798 37.6625C58.8038 37.5171 58.7973 37.3715 58.7785 37.2272C58.6835 37.963 58.3046 38.6482 58.1303 39.368Z" fill="black"/>
<path opacity="0.1" d="M47.8287 39.4349C47.3205 39.8672 46.6915 40.1268 46.0303 40.177C45.8914 40.3971 45.7477 40.6123 45.6051 40.8251C46.4133 40.8732 47.2089 40.6055 47.8287 40.0768C48.2738 41.5802 48.5124 43.1388 48.5378 44.7085C48.5739 42.9238 48.3347 41.1445 47.8287 39.4349Z" fill="black"/>
<path opacity="0.1" d="M58.1535 46.2729C58.0195 46.9655 57.7295 47.7348 57.074 47.9685C56.9099 48.0057 56.7517 48.0656 56.6037 48.1466C56.3028 48.3618 56.3235 48.8071 56.2589 49.1756C56.1541 49.7866 55.7387 50.306 55.2403 50.6597C54.742 51.0134 54.1633 51.241 53.5918 51.4587L51.3134 52.3244C51.3016 52.5566 51.2648 52.7867 51.2037 53.0108L53.5918 52.1018C54.1633 51.8841 54.7432 51.6627 55.2403 51.3041C55.7374 50.9454 56.1541 50.4247 56.2589 49.8138C56.3235 49.4427 56.3028 49 56.6037 48.7848C56.752 48.7047 56.9102 48.6453 57.074 48.6079C57.7295 48.373 58.0195 47.6037 58.1535 46.9111C58.2923 46.1904 58.3499 45.456 58.3253 44.722C58.3093 45.2429 58.2518 45.7615 58.1535 46.2729Z" fill="black"/>
<path opacity="0.1" d="M49.8525 48.295C49.78 48.2123 49.6917 48.1454 49.593 48.0984C49.4874 48.0633 49.3761 48.049 49.2652 48.0563H48.2698C48.2308 48.2715 48.1894 48.4867 48.1479 48.7007H49.2701C49.381 48.6929 49.4923 48.7071 49.5979 48.7427C49.6965 48.7893 49.7848 48.8558 49.8574 48.9381C50.625 49.7148 51.2062 50.7611 51.3061 51.8346C51.4291 50.5509 50.7736 49.23 49.8525 48.295Z" fill="black"/>
</g>
<path opacity="0.1" d="M44.2855 52.5099C44.2855 52.5099 45.192 52.124 45.3943 52.5099C45.5965 52.8958 44.2855 52.5099 44.2855 52.5099Z" fill="black"/>
<path opacity="0.1" d="M44.606 53.1715C44.606 53.1715 45.5124 52.7856 45.7159 53.1715C45.9194 53.5574 44.606 53.1715 44.606 53.1715Z" fill="black"/>
<path opacity="0.1" d="M100.788 3.23765C100.788 3.23765 96.152 2.95444 96.699 6.25163C96.699 6.25163 96.5906 6.83415 97.1109 7.09881C97.1109 7.09881 97.1194 6.85146 97.586 6.9368C97.7522 6.96519 97.9211 6.97349 98.0892 6.96153C98.3162 6.94558 98.5318 6.85482 98.7033 6.70305C98.7033 6.70305 100.006 6.15764 100.513 3.99579C100.513 3.99579 100.888 3.52335 100.878 3.40214L100.096 3.74225C100.096 3.74225 100.363 4.31487 100.152 4.79102C100.152 4.79102 100.128 3.76204 99.9766 3.78677C99.9461 3.78677 99.5708 3.98466 99.5708 3.98466C99.5708 3.98466 100.03 4.98272 99.6829 5.7087C99.6829 5.7087 99.8145 4.47936 99.4271 4.05763L98.8739 4.39031C98.8739 4.39031 99.4112 5.42053 99.0469 6.26153C99.0469 6.26153 99.1407 4.97159 98.7582 4.46947L98.2586 4.86399C98.2586 4.86399 98.7642 5.87442 98.4596 6.57195C98.4596 6.57195 98.4194 5.06929 98.1538 4.95675C98.1538 4.95675 97.7176 5.34756 97.6518 5.50834C97.6518 5.50834 97.9966 6.2504 97.7822 6.63379C97.7822 6.63379 97.6506 5.63449 97.5385 5.62954C97.5385 5.62954 97.1036 6.29245 97.0585 6.74262C97.0796 6.32256 97.2086 5.9154 97.4325 5.56152C97.1816 5.60974 96.9502 5.7319 96.7673 5.91276C96.7673 5.91276 96.8343 5.44403 97.5397 5.40198C97.5397 5.40198 97.8992 4.89986 97.9954 4.86894C97.9954 4.86894 97.2936 4.80957 96.8684 5.00127C96.8684 5.00127 97.2425 4.55851 98.1246 4.75392L98.6119 4.34579C98.6119 4.34579 97.6884 4.22211 97.2961 4.35939C97.2961 4.35939 97.7469 3.96858 98.7448 4.25303L99.2808 3.92777C99.2808 3.92777 98.4938 3.75462 98.0247 3.81769C98.0247 3.81769 98.5193 3.54684 99.438 3.83996L99.8218 3.66557C99.8218 3.66557 99.2443 3.55055 99.0762 3.532C98.908 3.51345 98.8983 3.46645 98.8983 3.46645C99.2636 3.40473 99.6387 3.44756 99.9814 3.59013C99.9814 3.59013 100.801 3.2896 100.788 3.23765Z" fill="#86D0C1"/>
<path opacity="0.1" d="M94.1806 0.563721C94.1806 0.563721 90.2817 3.12505 92.6466 5.45139C92.6466 5.45139 92.8988 5.98567 93.4727 5.88672C93.4727 5.88672 93.3362 5.6839 93.7615 5.46994C93.9122 5.39289 94.0533 5.29781 94.1818 5.18672C94.3554 5.03727 94.4765 4.83455 94.5266 4.60915C94.5266 4.60915 95.2577 3.38476 94.4048 1.33917C94.4048 1.33917 94.4316 0.733156 94.3487 0.64411L93.9174 1.38616C93.9174 1.38616 94.4669 1.6867 94.5754 2.19624C94.5754 2.19624 93.9552 1.38369 93.8443 1.49376C93.8224 1.51602 93.6323 1.89818 93.6323 1.89818C93.6323 1.89818 94.5863 2.42504 94.7289 3.2178C94.7289 3.2178 94.1197 2.14801 93.558 2.04288L93.3045 2.63653C93.3045 2.63653 94.3402 3.1436 94.5376 4.04025C94.5376 4.04025 93.8589 2.94448 93.2582 2.7701L93.0877 3.38847C93.0877 3.38847 94.0868 3.90297 94.2464 4.64997C94.2464 4.64997 93.3374 3.46515 93.0572 3.53689C93.0572 3.53689 92.9354 4.11321 92.9744 4.27894C92.9744 4.27894 93.6835 4.66481 93.7371 5.10757C93.7371 5.10757 93.0475 4.38159 92.9585 4.44219C92.9585 4.44219 92.9951 5.23743 93.2229 5.63072C92.9951 5.27957 92.8616 4.87416 92.8355 4.45456C92.6615 4.64427 92.5463 4.88166 92.504 5.13725C92.504 5.13725 92.2847 4.71923 92.8294 4.26163C92.8294 4.26163 92.8294 3.64325 92.8842 3.55791C92.8842 3.55791 92.2847 3.92894 92.0532 4.34201C92.0532 4.34201 92.0971 3.76074 92.9244 3.39218L93.0828 2.76762C93.0828 2.76762 92.264 3.22028 92.0313 3.57028C92.0313 3.57028 92.1665 2.98406 93.1352 2.61303L93.3789 2.02804C93.3789 2.02804 92.6478 2.3632 92.3018 2.69589C92.3018 2.69589 92.5455 2.17893 93.4544 1.86355L93.6615 1.49253C93.6615 1.49253 93.1291 1.7473 92.9829 1.83387C92.8367 1.92044 92.8013 1.88829 92.8013 1.88829C93.0595 1.61869 93.3864 1.42728 93.7456 1.33546C93.7456 1.33546 94.222 0.59835 94.1806 0.563721Z" fill="#86D0C1"/>
<path opacity="0.1" d="M88.2469 3.548C88.2469 3.548 85.9161 7.6293 89.0632 8.61005C89.0632 8.61005 89.5275 8.96994 89.9941 8.61005C89.9941 8.61005 89.7833 8.49379 90.066 8.10669C90.1642 7.96852 90.246 7.81908 90.3097 7.66145C90.3977 7.44818 90.4153 7.21166 90.3596 6.98742C90.3596 6.98742 90.4632 5.5602 88.7879 4.12927C88.7879 4.12927 88.5442 3.57768 88.4224 3.53687L88.37 4.4026C88.37 4.4026 88.9938 4.41744 89.3191 4.82186C89.3191 4.82186 88.4029 4.38281 88.3566 4.52998C88.3468 4.55966 88.348 4.98758 88.348 4.98758C88.348 4.98758 89.4434 5.02097 89.9307 5.66161C89.9307 5.66161 88.9073 4.99006 88.3627 5.15331L88.4016 5.79889C88.4016 5.79889 89.5506 5.77416 90.1269 6.48282C90.1269 6.48282 89.0303 5.81868 88.4211 5.93989L88.543 6.5694C88.543 6.5694 89.6639 6.5694 90.1391 7.16057C90.1391 7.16057 88.7988 6.5224 88.5807 6.71162C88.5807 6.71162 88.7282 7.283 88.8403 7.41534C88.8403 7.41534 89.6444 7.43265 89.8905 7.80244C89.8905 7.80244 88.9511 7.47223 88.8988 7.56869C88.8988 7.56869 89.2874 8.26004 89.6664 8.50492C89.3068 8.29803 89.0066 7.99966 88.7952 7.63919C88.7251 7.88824 88.7285 8.15268 88.8049 8.3998C88.8049 8.3998 88.4224 8.12895 88.7026 7.46975C88.7026 7.46975 88.4224 6.91816 88.4382 6.81798C88.4382 6.81798 88.0727 7.42771 88.0483 7.89891C88.0483 7.89891 87.8266 7.36092 88.3992 6.65226L88.2615 6.02151C88.2615 6.02151 87.734 6.80191 87.6828 7.22117C87.6828 7.22117 87.5414 6.63618 88.2396 5.86073L88.1933 5.22875C88.1933 5.22875 87.6889 5.86568 87.5329 6.31957C87.5329 6.31957 87.5159 5.74819 88.1872 5.04695L88.2055 4.62027C88.2055 4.62027 87.84 5.09147 87.7535 5.23864C87.6669 5.38582 87.6158 5.36479 87.6158 5.36479C87.7256 5.00536 87.9314 4.68385 88.2104 4.43599C88.2104 4.43599 88.2981 3.55913 88.2469 3.548Z" fill="#86D0C1"/>
<path d="M108.259 50.0722C107.914 50.0722 107.577 50.176 107.291 50.3705C107.004 50.565 106.78 50.8414 106.648 51.1648C106.516 51.4882 106.482 51.844 106.549 52.1873C106.616 52.5306 106.782 52.846 107.026 53.0935C107.27 53.341 107.581 53.5096 107.919 53.5778C108.257 53.6461 108.608 53.6111 108.926 53.4771C109.245 53.3432 109.517 53.1163 109.709 52.8253C109.9 52.5343 110.003 52.1921 110.003 51.842C110.001 51.3731 109.817 50.9237 109.491 50.5921C109.164 50.2604 108.721 50.0736 108.259 50.0722ZM103.161 36.1847V37.9545H104.905L108.044 44.4079L106.731 46.5759C106.588 46.8324 106.513 47.1222 106.513 47.4169C106.513 48.6017 107.311 49.1867 108.393 49.1867H118.588V47.485H108.606C108.577 47.4868 108.548 47.4823 108.521 47.4718C108.494 47.4613 108.469 47.445 108.448 47.4241C108.428 47.4032 108.412 47.3781 108.401 47.3504C108.391 47.3227 108.387 47.2931 108.388 47.2636C108.411 47.187 108.442 47.1132 108.481 47.0434L109.352 45.6471H115.847C116.161 45.6497 116.47 45.5644 116.739 45.4005C117.008 45.2367 117.227 45.0006 117.373 44.7183L120.513 39.2382C120.574 39.0991 120.604 38.9479 120.6 38.7955C120.599 38.6816 120.576 38.5691 120.531 38.4647C120.486 38.3603 120.421 38.2661 120.339 38.1877C120.258 38.1093 120.162 38.0482 120.057 38.0082C119.952 37.9681 119.84 37.9499 119.728 37.9545H106.824L105.995 36.1847H103.161ZM116.843 50.0722C116.498 50.0725 116.161 50.1765 115.875 50.3711C115.588 50.5657 115.365 50.8422 115.233 51.1656C115.101 51.489 115.067 51.8448 115.134 52.1881C115.202 52.5313 115.368 52.8465 115.612 53.0939C115.856 53.3413 116.166 53.5097 116.504 53.5779C116.843 53.6461 117.193 53.611 117.512 53.477C117.83 53.343 118.102 53.1162 118.294 52.8252C118.485 52.5342 118.588 52.192 118.588 51.842C118.586 51.3729 118.402 50.9233 118.075 50.5916C117.748 50.26 117.305 50.0732 116.843 50.0722Z" fill="#86D0C1"/>
<path d="M114.612 41.081H113.15V39.5969H112.053V41.081H110.591V42.1941H112.053V43.6782H113.15V42.1941H114.612V41.081Z" fill="white"/>
</g>
</g>
<defs>
<linearGradient id="paint0_linear" x1="74.6178" y1="72.6889" x2="74.6178" y2="11.316" gradientUnits="userSpaceOnUse">
<stop stop-color="#808080" stop-opacity="0.25"/>
<stop offset="0.54" stop-color="#808080" stop-opacity="0.12"/>
<stop offset="1" stop-color="#808080" stop-opacity="0.1"/>
</linearGradient>
<clipPath id="clip0">
<rect width="136" height="106" rx="53" fill="white"/>
</clipPath>
<clipPath id="clip1">
<rect width="136" height="106" fill="white" transform="translate(0 -0.5)"/>
</clipPath>
</defs>
</svg>
