<svg width="24" height="25" viewBox="0 0 24 25" fill="none" xmlns="http://www.w3.org/2000/svg">
<path d="M7.5 8.77441C7.89397 8.77441 8.28407 8.69682 8.64805 8.54605C9.01203 8.39529 9.34274 8.17431 9.62132 7.89573C9.8999 7.61716 10.1209 7.28644 10.2716 6.92246C10.4224 6.55849 10.5 6.16838 10.5 5.77441C10.5 5.38045 10.4224 4.99034 10.2716 4.62636C10.1209 4.26239 9.8999 3.93167 9.62132 3.65309C9.34274 3.37452 9.01203 3.15354 8.64805 3.00278C8.28407 2.85201 7.89397 2.77441 7.5 2.77441C6.70435 2.77441 5.94129 3.09048 5.37868 3.65309C4.81607 4.2157 4.5 4.97876 4.5 5.77441C4.5 6.57006 4.81607 7.33313 5.37868 7.89573C5.94129 8.45834 6.70435 8.77441 7.5 8.77441ZM16.5 8.77441C16.894 8.77441 17.2841 8.69682 17.6481 8.54605C18.012 8.39529 18.3427 8.17431 18.6213 7.89573C18.8999 7.61716 19.1209 7.28644 19.2716 6.92246C19.4224 6.55849 19.5 6.16838 19.5 5.77441C19.5 5.38045 19.4224 4.99034 19.2716 4.62636C19.1209 4.26239 18.8999 3.93167 18.6213 3.65309C18.3427 3.37452 18.012 3.15354 17.6481 3.00278C17.2841 2.85201 16.894 2.77441 16.5 2.77441C15.7044 2.77441 14.9413 3.09048 14.3787 3.65309C13.8161 4.2157 13.5 4.97876 13.5 5.77441C13.5 6.57006 13.8161 7.33313 14.3787 7.89573C14.9413 8.45834 15.7044 8.77441 16.5 8.77441ZM2 11.4974C2 11.2711 2.04457 11.0471 2.13116 10.8381C2.21774 10.629 2.34466 10.4391 2.50466 10.2791C2.66465 10.1191 2.85459 9.99216 3.06364 9.90557C3.27268 9.81898 3.49673 9.77441 3.723 9.77441H8.535C8.18343 10.3822 7.99885 11.0722 8 11.7744C7.99933 12.342 8.11976 12.9032 8.35325 13.4205C8.58674 13.9379 8.92792 14.3994 9.354 14.7744H8.223C7.74667 14.7742 7.27862 14.899 6.86563 15.1364C6.45264 15.3737 6.10915 15.7153 5.8695 16.1269C4.2585 15.8109 3.2795 15.0254 2.7095 14.1429C2 13.0444 2 11.9094 2 11.7129V11.4979V11.4974ZM15.777 14.7744C16.2533 14.7742 16.7214 14.899 17.1344 15.1364C17.5474 15.3737 17.8908 15.7153 18.1305 16.1269C19.7415 15.8109 20.7205 15.0254 21.2905 14.1429C22 13.0444 22 11.9094 22 11.7129V11.4979C22.0001 11.2716 21.9555 11.0475 21.869 10.8384C21.7824 10.6293 21.6555 10.4393 21.4955 10.2792C21.3355 10.1192 21.1456 9.99224 20.9365 9.90562C20.7274 9.819 20.5033 9.77441 20.277 9.77441H15.465C15.8166 10.3822 16.0011 11.0722 16 11.7744C16.0007 12.342 15.8802 12.9032 15.6468 13.4205C15.4133 13.9379 15.0721 14.3994 14.646 14.7744H15.777ZM15 11.7744C15 12.5701 14.6839 13.3331 14.1213 13.8957C13.5587 14.4583 12.7956 14.7744 12 14.7744C11.2044 14.7744 10.4413 14.4583 9.87868 13.8957C9.31607 13.3331 9 12.5701 9 11.7744C9 10.9788 9.31607 10.2157 9.87868 9.65309C10.4413 9.09048 11.2044 8.77441 12 8.77441C12.7956 8.77441 13.5587 9.09048 14.1213 9.65309C14.6839 10.2157 15 10.9788 15 11.7744ZM6.5 17.4974C6.5 17.0404 6.68153 16.6022 7.00465 16.2791C7.32778 15.9559 7.76603 15.7744 8.223 15.7744H15.777C16.234 15.7744 16.6722 15.9559 16.9953 16.2791C17.3185 16.6022 17.5 17.0404 17.5 17.4974V17.7129C17.5 17.9099 17.5 19.0444 16.7905 20.1429C16.049 21.2909 14.6165 22.2744 12 22.2744C9.3835 22.2744 7.951 21.2909 7.2095 20.1429C6.5 19.0444 6.5 17.9094 6.5 17.7129V17.4974Z" fill="#58A596"/>
</svg>
