<svg width="28" height="29" viewBox="0 0 28 29" fill="none" xmlns="http://www.w3.org/2000/svg">
<path d="M10.5002 21.8305C10.8307 21.8305 11.108 21.7185 11.332 21.4945C11.556 21.2705 11.6676 20.9936 11.6668 20.6638C11.6668 20.3333 11.5548 20.056 11.3308 19.832C11.1068 19.608 10.8299 19.4964 10.5002 19.4972C10.1696 19.4972 9.89233 19.6092 9.66833 19.8332C9.44433 20.0572 9.33272 20.334 9.3335 20.6638C9.3335 20.9944 9.4455 21.2717 9.6695 21.4957C9.8935 21.7197 10.1704 21.8313 10.5002 21.8305ZM14.0002 21.8305C14.3307 21.8305 14.608 21.7185 14.832 21.4945C15.056 21.2705 15.1676 20.9936 15.1668 20.6638C15.1668 20.3333 15.0548 20.056 14.8308 19.832C14.6068 19.608 14.3299 19.4964 14.0002 19.4972C13.6696 19.4972 13.3923 19.6092 13.1683 19.8332C12.9443 20.0572 12.8327 20.334 12.8335 20.6638C12.8335 20.9944 12.9455 21.2717 13.1695 21.4957C13.3935 21.7197 13.6704 21.8313 14.0002 21.8305ZM17.5002 21.8305C17.8307 21.8305 18.108 21.7185 18.332 21.4945C18.556 21.2705 18.6676 20.9936 18.6668 20.6638C18.6668 20.3333 18.5548 20.056 18.3308 19.832C18.1068 19.608 17.8299 19.4964 17.5002 19.4972C17.1696 19.4972 16.8923 19.6092 16.6683 19.8332C16.4443 20.0572 16.3327 20.334 16.3335 20.6638C16.3335 20.9944 16.4455 21.2717 16.6695 21.4957C16.8935 21.7197 17.1704 21.8313 17.5002 21.8305ZM10.5002 18.3305C10.8307 18.3305 11.108 18.2185 11.332 17.9945C11.556 17.7705 11.6676 17.4936 11.6668 17.1638C11.6668 16.8333 11.5548 16.556 11.3308 16.332C11.1068 16.108 10.8299 15.9964 10.5002 15.9972C10.1696 15.9972 9.89233 16.1092 9.66833 16.3332C9.44433 16.5572 9.33272 16.834 9.3335 17.1638C9.3335 17.4944 9.4455 17.7717 9.6695 17.9957C9.8935 18.2197 10.1704 18.3313 10.5002 18.3305ZM14.0002 18.3305C14.3307 18.3305 14.608 18.2185 14.832 17.9945C15.056 17.7705 15.1676 17.4936 15.1668 17.1638C15.1668 16.8333 15.0548 16.556 14.8308 16.332C14.6068 16.108 14.3299 15.9964 14.0002 15.9972C13.6696 15.9972 13.3923 16.1092 13.1683 16.3332C12.9443 16.5572 12.8327 16.834 12.8335 17.1638C12.8335 17.4944 12.9455 17.7717 13.1695 17.9957C13.3935 18.2197 13.6704 18.3313 14.0002 18.3305ZM17.5002 18.3305C17.8307 18.3305 18.108 18.2185 18.332 17.9945C18.556 17.7705 18.6676 17.4936 18.6668 17.1638C18.6668 16.8333 18.5548 16.556 18.3308 16.332C18.1068 16.108 17.8299 15.9964 17.5002 15.9972C17.1696 15.9972 16.8923 16.1092 16.6683 16.3332C16.4443 16.5572 16.3327 16.834 16.3335 17.1638C16.3335 17.4944 16.4455 17.7717 16.6695 17.9957C16.8935 18.2197 17.1704 18.3313 17.5002 18.3305ZM8.16683 14.8305H19.8335V13.6638C19.8335 12.0499 19.2646 10.674 18.1267 9.53615C16.9888 8.39826 15.6133 7.82971 14.0002 7.83049C12.3863 7.83049 11.0104 8.39943 9.8725 9.53732C8.73461 10.6752 8.16605 12.0507 8.16683 13.6638V14.8305ZM9.97516 13.0805C10.1307 12.0888 10.583 11.2574 11.332 10.5862C12.081 9.91493 12.9704 9.57971 14.0002 9.58049C15.0307 9.58049 15.9205 9.9161 16.6695 10.5873C17.4185 11.2585 17.8704 12.0896 18.0252 13.0805H9.97516ZM4.66683 26.4972C4.02516 26.4972 3.47566 26.2685 3.01833 25.8112C2.561 25.3538 2.33272 24.8047 2.3335 24.1638V5.49715C2.3335 4.85549 2.56216 4.30599 3.0195 3.84865C3.47683 3.39132 4.02594 3.16304 4.66683 3.16382H23.3335C23.9752 3.16382 24.5247 3.39249 24.982 3.84982C25.4393 4.30715 25.6676 4.85626 25.6668 5.49715V24.1638C25.6668 24.8055 25.4382 25.355 24.9808 25.8123C24.5235 26.2697 23.9744 26.4979 23.3335 26.4972H4.66683ZM4.66683 24.1638H23.3335V5.49715H4.66683V24.1638Z" fill="#00BA88"/>
</svg>
