<svg width="21" height="21" viewBox="0 0 21 21" fill="none" xmlns="http://www.w3.org/2000/svg">
<path fill-rule="evenodd" clip-rule="evenodd" d="M8.6375 3.32892C8.87198 3.06704 9.15906 2.85755 9.47999 2.71413C9.80091 2.57071 10.1485 2.49658 10.5 2.49658C10.8515 2.49658 11.1991 2.57071 11.52 2.71413C11.8409 2.85755 12.128 3.06704 12.3625 3.32892L12.9458 3.98059C13.0292 4.07384 13.1325 4.14714 13.248 4.19503C13.3636 4.24292 13.4884 4.26419 13.6133 4.25725L14.4883 4.20892C14.8392 4.18965 15.1902 4.24457 15.5184 4.37009C15.8466 4.49561 16.1447 4.68891 16.3932 4.93739C16.6417 5.18587 16.835 5.48394 16.9605 5.81216C17.086 6.14038 17.1409 6.49138 17.1217 6.84225L17.0733 7.71725C17.0665 7.84201 17.0879 7.9667 17.1357 8.0821C17.1836 8.19749 17.2569 8.30065 17.35 8.38392L18.0025 8.96725C18.2645 9.20174 18.4741 9.48887 18.6176 9.80987C18.7611 10.1309 18.8353 10.4785 18.8353 10.8302C18.8353 11.1818 18.7611 11.5295 18.6176 11.8505C18.4741 12.1715 18.2645 12.4586 18.0025 12.6931L17.35 13.2764C17.2567 13.3598 17.1835 13.4631 17.1356 13.5786C17.0877 13.6942 17.0664 13.819 17.0733 13.9439L17.1217 14.8189C17.1409 15.1698 17.086 15.5208 16.9605 15.849C16.835 16.1772 16.6417 16.4753 16.3932 16.7238C16.1447 16.9723 15.8466 17.1656 15.5184 17.2911C15.1902 17.4166 14.8392 17.4715 14.4883 17.4523L13.6133 17.4039C13.4886 17.3971 13.3639 17.4184 13.2485 17.4663C13.1331 17.5142 13.0299 17.5874 12.9467 17.6806L12.3633 18.3331C12.1288 18.5951 11.8417 18.8047 11.5207 18.9482C11.1997 19.0917 10.852 19.1659 10.5004 19.1659C10.1488 19.1659 9.80113 19.0917 9.48012 18.9482C9.15911 18.8047 8.87199 18.5951 8.6375 18.3331L8.05416 17.6806C7.9708 17.5873 7.86751 17.514 7.75196 17.4661C7.63641 17.4183 7.51156 17.397 7.38666 17.4039L6.51166 17.4523C6.16079 17.4715 5.8098 17.4166 5.48157 17.2911C5.15335 17.1656 4.85528 16.9723 4.6068 16.7238C4.35832 16.4753 4.16502 16.1772 4.0395 15.849C3.91398 15.5208 3.85906 15.1698 3.87833 14.8189L3.92666 13.9439C3.93348 13.8192 3.91215 13.6945 3.86426 13.5791C3.81637 13.4637 3.74314 13.3605 3.65 13.2773L2.99833 12.6939C2.73631 12.4594 2.52671 12.1723 2.38321 11.8513C2.2397 11.5303 2.16553 11.1826 2.16553 10.831C2.16553 10.4794 2.2397 10.1317 2.38321 9.81071C2.52671 9.4897 2.73631 9.20258 2.99833 8.96809L3.65 8.38475C3.74325 8.30139 3.81655 8.1981 3.86444 8.08255C3.91234 7.967 3.9336 7.84215 3.92666 7.71725L3.87833 6.84225C3.85906 6.49138 3.91398 6.14038 4.0395 5.81216C4.16502 5.48394 4.35832 5.18587 4.6068 4.93739C4.85528 4.68891 5.15335 4.49561 5.48157 4.37009C5.8098 4.24457 6.16079 4.18965 6.51166 4.20892L7.38666 4.25725C7.51142 4.26406 7.63611 4.24274 7.75151 4.19484C7.8669 4.14695 7.97006 4.07373 8.05333 3.98059L8.63666 3.32892H8.6375ZM13.5892 7.74142C13.7454 7.89769 13.8332 8.10962 13.8332 8.33059C13.8332 8.55156 13.7454 8.76348 13.5892 8.91975L8.58916 13.9198C8.432 14.0716 8.22149 14.1555 8.003 14.1536C7.7845 14.1518 7.57549 14.0641 7.42098 13.9096C7.26648 13.7551 7.17884 13.5461 7.17694 13.3276C7.17504 13.1091 7.25903 12.8986 7.41083 12.7414L12.4108 7.74142C12.5671 7.5852 12.779 7.49743 13 7.49743C13.221 7.49743 13.4329 7.5852 13.5892 7.74142ZM8.41667 7.49725C8.08514 7.49725 7.7672 7.62895 7.53278 7.86337C7.29836 8.09779 7.16667 8.41573 7.16667 8.74725V8.75559C7.16667 9.08711 7.29836 9.40505 7.53278 9.63947C7.7672 9.87389 8.08514 10.0056 8.41667 10.0056H8.425C8.75652 10.0056 9.07446 9.87389 9.30888 9.63947C9.5433 9.40505 9.675 9.08711 9.675 8.75559V8.74725C9.675 8.41573 9.5433 8.09779 9.30888 7.86337C9.07446 7.62895 8.75652 7.49725 8.425 7.49725H8.41667ZM12.5833 11.6639C12.2518 11.6639 11.9339 11.7956 11.6994 12.03C11.465 12.2645 11.3333 12.5824 11.3333 12.9139V12.9223C11.3333 13.2538 11.465 13.5717 11.6994 13.8061C11.9339 14.0406 12.2518 14.1723 12.5833 14.1723H12.5917C12.9232 14.1723 13.2411 14.0406 13.4755 13.8061C13.71 13.5717 13.8417 13.2538 13.8417 12.9223V12.9139C13.8417 12.5824 13.71 12.2645 13.4755 12.03C13.2411 11.7956 12.9232 11.6639 12.5917 11.6639H12.5833Z" fill="white"/>
</svg>
