<svg width="36" height="19" viewBox="0 0 36 19" fill="none" xmlns="http://www.w3.org/2000/svg">
<path d="M34.7034 10.0423C34.657 10.0423 34.6102 10.0362 34.5641 10.0234L29.8182 8.71717H6.31622L1.43405 10.0244C1.22311 10.081 0.998804 10.0006 0.871571 9.82301C0.744338 9.64525 0.740491 9.40729 0.861986 9.22561C0.919793 9.13918 2.30998 7.08504 5.12171 5.0139C7.71249 3.10561 12.0499 0.830811 18.0008 0.830811C23.9517 0.830811 28.2891 3.10561 30.8799 5.0139C33.6916 7.08504 35.0818 9.13911 35.1396 9.22561C35.2614 9.40785 35.2572 9.64672 35.1289 9.82448C35.0287 9.96347 34.8692 10.0423 34.7034 10.0423ZM18.0008 1.88066C15.5074 1.88066 13.1028 2.2958 10.8538 3.11442C9.05278 3.77004 7.34535 4.68489 5.77901 5.83363C4.41451 6.83428 3.39356 7.84277 2.7187 8.59364L6.11138 7.6853C6.15561 7.67347 6.20123 7.66746 6.24707 7.66746H29.8891C29.9362 7.66746 29.983 7.67383 30.0283 7.68629L33.2687 8.57818C32.5938 7.82898 31.5777 6.82756 30.2225 5.8337C28.6562 4.68496 26.9488 3.77011 25.1476 3.11449C22.8987 2.2958 20.4941 1.88066 18.0008 1.88066Z" fill="#00BA88"/>
<path d="M32.2109 12.1942H3.71434C3.58563 12.1942 3.4614 12.1469 3.36531 12.0614L0.949285 9.91005C0.732751 9.71724 0.713574 9.38545 0.906313 9.16898C1.09926 8.95252 1.43107 8.93334 1.64739 9.12601L3.91428 11.1445H32.0157L34.3605 9.12068C34.5799 8.93137 34.9112 8.95559 35.1008 9.17507C35.2901 9.39454 35.2658 9.72593 35.0464 9.91538L32.5539 12.0667C32.4585 12.149 32.3368 12.1942 32.2109 12.1942Z" fill="#00BA88"/>
<path d="M18.001 8.62144C17.711 8.62144 17.4761 8.3865 17.4761 8.09655V1.3557C17.4761 1.06575 17.711 0.830811 18.001 0.830811C18.2909 0.830811 18.5259 1.06575 18.5259 1.3557V8.09655C18.5259 8.38643 18.2909 8.62144 18.001 8.62144Z" fill="#00BA88"/>
<path d="M22.2778 8.62154C21.9879 8.62154 21.7529 8.3866 21.7529 8.09665V1.88573C21.7529 1.59578 21.9879 1.36084 22.2778 1.36084C22.5678 1.36084 22.8027 1.59578 22.8027 1.88573V8.09665C22.8027 8.38653 22.5677 8.62154 22.2778 8.62154Z" fill="#00BA88"/>
<path d="M26.3164 8.62205C26.0264 8.62205 25.7915 8.38711 25.7915 8.09716V3.17943C25.7915 2.88948 26.0264 2.65454 26.3164 2.65454C26.6063 2.65454 26.8413 2.88948 26.8413 3.17943V8.09716C26.8413 8.38704 26.6063 8.62205 26.3164 8.62205Z" fill="#00BA88"/>
<path d="M30.355 8.62141C30.065 8.62141 29.8301 8.38647 29.8301 8.09652V5.45311C29.8301 5.16316 30.065 4.92822 30.355 4.92822C30.6449 4.92822 30.8799 5.16316 30.8799 5.45311V8.09652C30.8799 8.3864 30.6449 8.62141 30.355 8.62141Z" fill="#00BA88"/>
<path d="M13.7436 8.62154C13.4537 8.62154 13.2188 8.3866 13.2188 8.09665V1.88573C13.2188 1.59578 13.4537 1.36084 13.7436 1.36084C14.0336 1.36084 14.2685 1.59578 14.2685 1.88573V8.09665C14.2685 8.38653 14.0336 8.62154 13.7436 8.62154Z" fill="#00BA88"/>
<path d="M9.70409 8.62205C9.41414 8.62205 9.1792 8.38711 9.1792 8.09716V3.17943C9.1792 2.88948 9.41414 2.65454 9.70409 2.65454C9.99404 2.65454 10.229 2.88948 10.229 3.17943V8.09716C10.229 8.38704 9.99404 8.62205 9.70409 8.62205Z" fill="#00BA88"/>
<path d="M5.66551 8.62141C5.37557 8.62141 5.14062 8.38647 5.14062 8.09652V5.45311C5.14062 5.16316 5.37557 4.92822 5.66551 4.92822C5.95546 4.92822 6.1904 5.16316 6.1904 5.45311V8.09652C6.1904 8.3864 5.95539 8.62141 5.66551 8.62141Z" fill="#00BA88"/>
<path d="M34.0131 18.6248C33.7231 18.6248 33.4882 18.3898 33.4882 18.0999V14.3609L31.7833 11.973C31.6149 11.7371 31.6695 11.4092 31.9054 11.2408C32.1413 11.0724 32.4692 11.127 32.6376 11.3629L34.4402 13.8877C34.5038 13.9767 34.5379 14.0834 34.5379 14.1927V18.0998C34.5379 18.3898 34.303 18.6248 34.0131 18.6248Z" fill="#00BA88"/>
<path d="M2.11571 18.6248C1.82576 18.6248 1.59082 18.3899 1.59082 18.0999V14.1929C1.59082 14.0934 1.61903 13.9961 1.67222 13.9121L3.27076 11.3873C3.42584 11.1424 3.75001 11.0694 3.99503 11.2246C4.23997 11.3797 4.31283 11.704 4.15774 11.9489L2.6406 14.3451V18.0999C2.6406 18.3899 2.40559 18.6248 2.11571 18.6248Z" fill="#00BA88"/>
<path d="M34.9733 14.883H1.02684C0.736894 14.883 0.501953 14.6481 0.501953 14.3581C0.501953 14.0682 0.736894 13.8333 1.02684 13.8333H34.9733C35.2633 13.8333 35.4982 14.0682 35.4982 14.3581C35.4982 14.6481 35.2632 14.883 34.9733 14.883Z" fill="#00BA88"/>
<path d="M34.9733 18.8303H1.02684C0.736894 18.8303 0.501953 18.5954 0.501953 18.3054C0.501953 18.0155 0.736894 17.7805 1.02684 17.7805H34.9733C35.2633 17.7805 35.4982 18.0155 35.4982 18.3054C35.4982 18.5954 35.2632 18.8303 34.9733 18.8303Z" fill="#00BA88"/>
<path d="M5.86962 18.7142C5.57967 18.7142 5.34473 18.4792 5.34473 18.1893V14.4575C5.34473 14.1676 5.57967 13.9326 5.86962 13.9326C6.15956 13.9326 6.39451 14.1676 6.39451 14.4575V18.1893C6.39451 18.4791 6.15949 18.7142 5.86962 18.7142Z" fill="#00BA88"/>
<path d="M7.58788 18.7142C7.29793 18.7142 7.06299 18.4792 7.06299 18.1893V14.4575C7.06299 14.1676 7.29793 13.9326 7.58788 13.9326C7.87783 13.9326 8.11277 14.1676 8.11277 14.4575V18.1893C8.11277 18.4791 7.87783 18.7142 7.58788 18.7142Z" fill="#00BA88"/>
<path d="M28.4121 18.7142C28.1221 18.7142 27.8872 18.4792 27.8872 18.1893V14.4575C27.8872 14.1676 28.1221 13.9326 28.4121 13.9326C28.702 13.9326 28.937 14.1676 28.937 14.4575V18.1893C28.937 18.4791 28.702 18.7142 28.4121 18.7142Z" fill="#00BA88"/>
<path d="M30.1304 18.7142C29.8404 18.7142 29.6055 18.4792 29.6055 18.1893V14.4575C29.6055 14.1676 29.8404 13.9326 30.1304 13.9326C30.4203 13.9326 30.6552 14.1676 30.6552 14.4575V18.1893C30.6552 18.4791 30.4203 18.7142 30.1304 18.7142Z" fill="#00BA88"/>
<path d="M13.6846 18.7146C13.3946 18.7146 13.1597 18.4797 13.1597 18.1898V14.458C13.1597 14.168 13.3946 13.9331 13.6846 13.9331C13.9745 13.9331 14.2094 14.168 14.2094 14.458V18.1898C14.2094 18.4796 13.9745 18.7146 13.6846 18.7146Z" fill="#00BA88"/>
<path d="M15.4028 18.7146C15.1129 18.7146 14.8779 18.4797 14.8779 18.1898V14.458C14.8779 14.168 15.1129 13.9331 15.4028 13.9331C15.6928 13.9331 15.9277 14.168 15.9277 14.458V18.1898C15.9277 18.4796 15.6927 18.7146 15.4028 18.7146Z" fill="#00BA88"/>
<path d="M20.5918 18.7146C20.3018 18.7146 20.0669 18.4797 20.0669 18.1898V14.458C20.0669 14.168 20.3018 13.9331 20.5918 13.9331C20.8817 13.9331 21.1167 14.168 21.1167 14.458V18.1898C21.1167 18.4796 20.8817 18.7146 20.5918 18.7146Z" fill="#00BA88"/>
<path d="M22.31 18.7146C22.0201 18.7146 21.7852 18.4797 21.7852 18.1898V14.458C21.7852 14.168 22.0201 13.9331 22.31 13.9331C22.6 13.9331 22.8349 14.168 22.8349 14.458V18.1898C22.8349 18.4796 22.5999 18.7146 22.31 18.7146Z" fill="#00BA88"/>
<path d="M30.2147 14.7636C30.099 14.7636 29.9833 14.7255 29.8876 14.6492L26.691 12.1021C26.4643 11.9214 26.4269 11.5912 26.6076 11.3645C26.7882 11.1378 27.1185 11.1005 27.3452 11.2812L30.2157 13.5684L33.1047 11.2802C33.3318 11.1002 33.6621 11.1385 33.842 11.3658C34.022 11.5931 33.9836 11.9232 33.7564 12.1031L30.5406 14.6502C30.4451 14.7258 30.3299 14.7636 30.2147 14.7636Z" fill="#00BA88"/>
<path d="M24.0642 14.7636C23.9486 14.7636 23.8328 14.7255 23.7371 14.6492L20.5406 12.1021C20.3139 11.9214 20.2765 11.5912 20.4572 11.3645C20.6378 11.1378 20.9681 11.1005 21.1948 11.2812L24.0652 13.5684L26.9543 11.2802C27.1816 11.1002 27.5117 11.1387 27.6916 11.3658C27.8716 11.5931 27.8332 11.9232 27.606 12.1031L24.3901 14.6502C24.2946 14.7258 24.1794 14.7636 24.0642 14.7636Z" fill="#00BA88"/>
<path d="M17.9143 14.7636C17.7986 14.7636 17.6829 14.7255 17.5872 14.6492L14.3907 12.1021C14.164 11.9214 14.1266 11.5912 14.3073 11.3645C14.4879 11.1378 14.8182 11.1005 15.0449 11.2812L17.9153 13.5684L20.8044 11.2802C21.0317 11.1002 21.3617 11.1387 21.5417 11.3658C21.7217 11.5931 21.6833 11.9232 21.4561 12.1031L18.2402 14.6502C18.1447 14.7258 18.0295 14.7636 17.9143 14.7636Z" fill="#00BA88"/>
<path d="M11.764 14.7636C11.6483 14.7636 11.5325 14.7255 11.4368 14.6492L8.24026 12.1021C8.01358 11.9214 7.97622 11.5912 8.15692 11.3645C8.33748 11.1378 8.66781 11.1005 8.8945 11.2812L11.7649 13.5684L14.654 11.2802C14.8814 11.1002 15.2114 11.1387 15.3913 11.3658C15.5713 11.5931 15.5329 11.9232 15.3057 12.1031L12.0898 14.6502C11.9944 14.7258 11.8792 14.7636 11.764 14.7636Z" fill="#00BA88"/>
<path d="M5.61504 14.7636C5.49935 14.7636 5.38359 14.7255 5.28792 14.6492L2.09134 12.1021C1.86466 11.9214 1.82729 11.5912 2.00799 11.3645C2.18855 11.1378 2.51889 11.1005 2.74557 11.2812L5.61601 13.5684L8.50507 11.2802C8.73238 11.1002 9.06244 11.1387 9.24238 11.3658C9.42238 11.5931 9.38402 11.9232 9.15677 12.1031L5.94089 14.6502C5.84543 14.7258 5.73023 14.7636 5.61504 14.7636Z" fill="#00BA88"/>
</svg>
