<svg width="28" height="29" viewBox="0 0 28 29" fill="none" xmlns="http://www.w3.org/2000/svg">
<path d="M24.4123 7.83516C20.7548 2.16516 13.2648 0.485162 7.47229 4.00266C1.81979 7.52016 -0.000205755 15.1852 3.65729 20.8377L3.95479 21.2927L2.72979 25.8777L7.31479 24.6527L7.76979 24.9502C9.74729 26.0177 11.8998 26.6302 14.0348 26.6302C16.3273 26.6302 18.6198 26.0177 20.5973 24.7927C26.2498 21.1177 27.9298 13.6102 24.4123 7.80016V7.83516ZM21.2098 19.6302C20.5973 20.5402 19.8273 21.1527 18.7598 21.3102C18.1473 21.3102 17.3773 21.6077 14.3323 20.4002C11.7423 19.1752 9.58979 17.1802 8.06729 14.8877C7.15729 13.8202 6.68479 12.4377 6.54479 11.0552C6.54479 9.83016 6.99979 8.76266 7.76979 7.99266C8.06729 7.69516 8.38229 7.53766 8.67979 7.53766H9.44979C9.74729 7.53766 10.0623 7.53766 10.2198 8.15016C10.5173 8.92016 11.2873 10.7577 11.2873 10.9152C11.4448 11.0727 11.3748 12.2452 10.6748 12.9102C10.2898 13.3477 10.2198 13.3652 10.3773 13.6802C10.9898 14.5902 11.7598 15.5177 12.5123 16.2877C13.4223 17.0577 14.3498 17.6702 15.4173 18.1252C15.7148 18.2827 16.0298 18.2827 16.1873 17.9677C16.3448 17.6702 17.0973 16.9002 17.4123 16.5852C17.7098 16.2877 17.8673 16.2877 18.1823 16.4277L20.6323 17.6527C20.9298 17.8102 21.2448 17.9502 21.4023 18.1077C21.5598 18.5627 21.5598 19.1752 21.2448 19.6302H21.2098Z" fill="white"/>
</svg>
