<svg width="30" height="31" viewBox="0 0 30 31" fill="none" xmlns="http://www.w3.org/2000/svg">
<path d="M0.643622 15.2344C0.642919 17.774 1.3065 20.2537 2.56829 22.4394L0.522949 29.9073L8.16538 27.9034C10.2792 29.0542 12.6475 29.6572 15.0543 29.6573H15.0606C23.0056 29.6573 29.4731 23.1922 29.4765 15.2457C29.478 11.3951 27.9798 7.77422 25.2578 5.05007C22.5362 2.32615 18.9166 0.825244 15.06 0.823486C7.11401 0.823486 0.647019 7.28825 0.643739 15.2344" fill="url(#paint0_linear_19020_15921)"/>
<path d="M0.129265 15.2298C0.128445 17.8608 0.815809 20.4292 2.12259 22.6932L0.00390625 30.4288L7.92037 28.3531C10.1016 29.5423 12.5575 30.1694 15.0565 30.1703H15.0629C23.293 30.1703 29.9928 23.4726 29.9963 15.2417C29.9977 11.2527 28.4456 7.5017 25.6263 4.67995C22.8067 1.85856 19.0576 0.303642 15.0629 0.302002C6.83139 0.302002 0.132545 6.99874 0.129265 15.2298ZM4.84369 22.3033L4.5481 21.8341C3.30553 19.8583 2.64968 17.5752 2.65062 15.2307C2.65331 8.38929 8.22112 2.82324 15.0676 2.82324C18.3831 2.82464 21.4991 4.11713 23.8427 6.46216C26.1862 8.80742 27.4758 11.925 27.4749 15.2408C27.4719 22.0822 21.904 27.649 15.0629 27.649H15.058C12.8305 27.6478 10.6458 27.0496 8.74059 25.9191L8.28719 25.6503L3.5894 26.8819L4.84369 22.3032V22.3033Z" fill="url(#paint1_linear_19020_15921)"/>
<path d="M11.3303 8.98909C11.0507 8.36781 10.7565 8.35527 10.4907 8.34437C10.273 8.335 10.0242 8.33571 9.77559 8.33571C9.52674 8.33571 9.12243 8.42931 8.78068 8.80246C8.43858 9.17596 7.47461 10.0785 7.47461 11.9143C7.47461 13.7502 8.81173 15.5243 8.99813 15.7735C9.18476 16.0222 11.5795 19.91 15.3721 21.4056C18.5241 22.6485 19.1655 22.4013 19.8496 22.339C20.5338 22.2769 22.0574 21.4366 22.3682 20.5653C22.6792 19.6941 22.6792 18.9474 22.586 18.7913C22.4927 18.6359 22.2439 18.5425 21.8707 18.356C21.4975 18.1693 19.663 17.2666 19.321 17.1421C18.9789 17.0177 18.7302 16.9556 18.4813 17.3292C18.2325 17.7022 17.518 18.5425 17.3002 18.7913C17.0826 19.0408 16.8648 19.0718 16.4918 18.8852C16.1184 18.698 14.9167 18.3044 13.491 17.0334C12.3818 16.0443 11.6329 14.823 11.4152 14.4493C11.1975 14.0763 11.3919 13.8741 11.579 13.6882C11.7466 13.521 11.9523 13.2525 12.139 13.0347C12.3251 12.8168 12.3872 12.6613 12.5116 12.4124C12.6361 12.1634 12.5738 11.9455 12.4806 11.7588C12.3872 11.5722 11.6621 9.72684 11.3303 8.98909Z" fill="white"/>
<defs>
<linearGradient id="paint0_linear_19020_15921" x1="1448.2" y1="2909.21" x2="1448.2" y2="0.823486" gradientUnits="userSpaceOnUse">
<stop stop-color="#1FAF38"/>
<stop offset="1" stop-color="#60D669"/>
</linearGradient>
<linearGradient id="paint1_linear_19020_15921" x1="1499.62" y1="3012.98" x2="1499.62" y2="0.302002" gradientUnits="userSpaceOnUse">
<stop stop-color="#F9F9F9"/>
<stop offset="1" stop-color="white"/>
</linearGradient>
</defs>
</svg>
