<svg width="211" height="180" viewBox="0 0 211 180" fill="none" xmlns="http://www.w3.org/2000/svg">
<path d="M39.0396 118.549L38.1348 114.989C36.5304 114.311 34.889 113.723 33.2183 113.229L33.1041 114.884L32.6408 113.061C30.5689 112.471 29.1594 112.211 29.1594 112.211C29.1594 112.211 31.0633 119.434 35.0567 124.956L39.7099 125.771L36.095 126.291C36.5975 126.894 37.1376 127.465 37.712 128.001C43.5212 133.38 49.9917 135.849 52.1641 133.514C54.3365 131.179 51.3883 124.925 45.579 119.546C43.7781 117.878 41.5157 116.54 39.2511 115.486L39.0396 118.549Z" fill="#E6E6E6"/>
<path d="M47.6451 114.683L48.7152 111.169C47.6933 109.761 46.5925 108.412 45.4182 107.127L44.4631 108.485L45.0111 106.686C43.5432 105.112 42.4713 104.162 42.4713 104.162C42.4713 104.162 40.3587 111.327 40.9161 118.114L44.477 121.211L41.113 119.792C41.2307 120.568 41.3972 121.335 41.6115 122.09C43.7972 129.69 48.0574 135.14 51.1268 134.261C54.1963 133.383 54.9127 126.509 52.727 118.908C52.0494 116.552 50.8061 114.24 49.4132 112.17L47.6451 114.683Z" fill="#E6E6E6"/>
<path d="M52.9764 95.5155C52.9764 95.5155 51.8031 109.589 51.5512 112.605C51.3784 114.495 50.9549 116.355 50.2916 118.134C50.2916 118.134 49.7878 119.139 49.7878 120.144V132.961C49.7878 132.961 48.7802 132.961 49.0321 133.967C49.284 134.972 49.5359 136.731 49.5359 136.731H53.3145C53.3145 136.731 53.0626 135.977 53.8184 135.726C54.5741 135.475 53.8184 133.464 53.8184 133.464L57.8489 118.385L63.8948 105.82C63.8948 105.82 67.4215 117.129 68.1773 118.385C68.1773 118.385 70.9483 132.459 71.4521 133.715C71.9559 134.972 72.2078 134.972 71.9559 135.475C71.704 135.977 71.704 136.48 71.9559 136.731C72.2078 136.982 76.9942 136.731 76.9942 136.731L75.7346 118.888L73.4674 97.5262L61.8795 94.0078L52.9764 95.5155Z" fill="#532525"/>
<path d="M52.3069 134.721C52.3069 134.721 51.0474 130.197 49.0321 133.715C47.0168 137.234 47.0168 138.49 47.0168 138.49C47.0168 138.49 43.7419 143.265 48.2763 142.763C52.8107 142.26 51.8031 139.998 51.8031 139.998C51.8031 139.998 53.5665 138.993 53.5665 138.239C53.5665 137.485 52.3069 134.721 52.3069 134.721Z" fill="#532525"/>
<path d="M72.7117 134.218C72.7117 134.218 73.9713 129.694 75.9865 133.213C78.0018 136.731 78.0018 137.988 78.0018 137.988C78.0018 137.988 81.2767 142.763 76.7423 142.26C72.2079 141.758 73.2155 139.496 73.2155 139.496C73.2155 139.496 71.4521 138.49 71.4521 137.737C71.4521 136.983 72.7117 134.218 72.7117 134.218Z" fill="#532525"/>
<path d="M60.8719 61.5881C60.8719 61.5881 61.3757 64.8552 59.8643 65.6092C58.3528 66.3631 63.1391 69.1275 64.3987 69.1275C65.6582 69.1275 67.9254 66.6144 67.9254 66.6144C67.9254 66.6144 66.6658 62.8447 66.9178 62.0908L60.8719 61.5881Z" fill="#C07933"/>
<path d="M63.6428 64.1013C66.5645 64.1013 68.933 61.7385 68.933 58.8237C68.933 55.909 66.5645 53.5461 63.6428 53.5461C60.7212 53.5461 58.3527 55.909 58.3527 58.8237C58.3527 61.7385 60.7212 64.1013 63.6428 64.1013Z" fill="#C07933"/>
<path d="M73.9712 69.6302L67.6737 65.8238C67.6737 65.8238 64.0905 69.8816 60.214 65.3579L53.5665 67.1171L54.5741 84.2064C54.5741 84.2064 53.0626 90.9919 53.5665 92.2484C54.0703 93.505 52.3069 94.0076 52.8107 94.259C53.3145 94.5103 52.8107 96.2695 52.8107 96.2695C52.8107 96.2695 62.6352 101.296 73.4674 97.526L72.4597 94.259C72.5969 93.8319 72.6226 93.377 72.5344 92.9372C72.4463 92.4975 72.2472 92.0874 71.9559 91.7458C71.9559 91.7458 72.9636 90.2379 71.704 88.9814C71.704 88.9814 72.2078 86.7196 70.9483 85.7143L70.6964 82.1959L71.4521 80.4367L73.9712 69.6302Z" fill="#CFCCE0"/>
<path d="M60.9356 56.3732C60.9356 56.3732 60.3049 57.7349 62.8277 57.1902C62.8277 57.1902 63.7737 57.7349 63.7737 56.9179C63.7737 56.9179 65.0351 58.2796 65.3504 57.4626C65.6658 56.6456 66.2965 57.7349 66.2965 57.7349L66.9272 56.3732L67.5579 57.1902H69.7653C69.7653 57.1902 70.3959 51.7436 62.8277 52.2883C55.2594 52.8329 58.9826 61.4626 58.9826 61.4626C58.9826 61.4626 59.0435 59.9135 59.6742 60.7305C60.3049 61.5475 60.9356 56.3732 60.9356 56.3732Z" fill="#532525"/>
<path d="M76.2384 79.6829L76.4903 84.9604C76.4903 84.9604 77.498 94.7617 75.4827 99.034V101.296C75.4827 101.296 74.9789 107.076 72.4598 106.825C69.9407 106.573 73.2155 98.5314 73.2155 98.5314L72.7117 87.4736L72.2079 81.1907L76.2384 79.6829Z" fill="#C07933"/>
<path d="M71.2002 69.8817L73.7132 69.4744C75.5234 71.2095 76.7565 73.4569 77.2461 75.9132C78.0018 79.9342 78.2537 80.6881 78.2537 80.6881L72.2079 82.196L68.933 75.9132L71.2002 69.8817Z" fill="#CFCCE0"/>
<path d="M100.134 67.0137H60.3802V86.7147H100.134V67.0137Z" fill="white"/>
<path d="M64.7211 68.1984C63.6998 67.5856 62.4683 67.6324 62.0002 67.6792C62.1785 68.1135 62.7134 69.2211 63.7347 69.8341C64.7585 70.4484 65.9884 70.4002 66.4558 70.3537C66.2776 69.9196 65.7426 68.8115 64.7211 68.1984Z" fill="#86D0C1"/>
<path d="M69.5204 80.3569H63.1371C62.9483 80.3567 62.7614 80.3936 62.587 80.4656C62.4125 80.5375 62.254 80.643 62.1205 80.7761C61.987 80.9091 61.881 81.0671 61.8088 81.2411C61.7365 81.415 61.6993 81.6015 61.6993 81.7898C61.6993 81.9781 61.7365 82.1645 61.8088 82.3385C61.881 82.5124 61.987 82.6704 62.1205 82.8035C62.254 82.9366 62.4125 83.0421 62.587 83.114C62.7614 83.1859 62.9483 83.2228 63.1371 83.2226H69.5204C69.7092 83.2228 69.8961 83.1859 70.0705 83.114C70.2449 83.0421 70.4035 82.9366 70.537 82.8035C70.6705 82.6704 70.7765 82.5124 70.8487 82.3385C70.921 82.1645 70.9582 81.9781 70.9582 81.7898C70.9582 81.6015 70.921 81.415 70.8487 81.2411C70.7765 81.0671 70.6705 80.9091 70.537 80.7761C70.4035 80.643 70.2449 80.5375 70.0705 80.4656C69.8961 80.3936 69.7092 80.3567 69.5204 80.3569Z" fill="#86D0C1"/>
<path d="M98.4263 65.2322H62.637C62.2206 65.2322 61.8084 65.314 61.4238 65.4729C61.0391 65.6319 60.6896 65.8648 60.3952 66.1585C60.1008 66.4522 59.8673 66.8009 59.708 67.1846C59.5487 67.5683 59.4667 67.9796 59.4667 68.395V85.7909C59.4667 86.6298 59.8007 87.4342 60.3952 88.0274C60.9898 88.6205 61.7962 88.9537 62.637 88.9537H98.4263C99.2672 88.9537 100.074 88.6205 100.668 88.0274C101.263 87.4342 101.597 86.6298 101.597 85.7909V68.395C101.597 67.9796 101.515 67.5683 101.355 67.1846C101.196 66.8009 100.962 66.4522 100.668 66.1585C100.374 65.8648 100.024 65.6319 99.6396 65.4729C99.2549 65.314 98.8427 65.2322 98.4263 65.2322ZM61.7515 67.3897C61.8222 67.3769 63.498 67.0924 64.8857 67.9254C66.2734 68.7583 66.8065 70.3689 66.8285 70.437L66.8846 70.6106L66.7045 70.6425C66.4476 70.6825 66.1878 70.7015 65.9278 70.6994C65.103 70.7151 64.289 70.5105 63.5702 70.1066C62.1826 69.2739 61.6495 67.6633 61.6275 67.5952L61.5714 67.4216L61.7515 67.3897ZM69.5204 83.5407H63.1371C62.6715 83.5407 62.225 83.3562 61.8958 83.0278C61.5666 82.6994 61.3817 82.254 61.3817 81.7895C61.3817 81.325 61.5666 80.8796 61.8958 80.5512C62.225 80.2227 62.6715 80.0382 63.1371 80.0382H69.5204C69.986 80.0382 70.4325 80.2227 70.7617 80.5512C71.0909 80.8796 71.2758 81.325 71.2758 81.7895C71.2758 82.254 71.0909 82.6994 70.7617 83.0278C70.4325 83.3562 69.986 83.5407 69.5204 83.5407ZM98.5646 83.2223C98.5631 83.7286 98.3609 84.2136 98.002 84.5716C97.6432 84.9296 97.157 85.1313 96.6496 85.1328H91.8621C91.3546 85.1313 90.8684 84.9296 90.5096 84.5716C90.1508 84.2136 89.9486 83.7286 89.9471 83.2223V80.3567C89.9486 79.8504 90.1508 79.3654 90.5096 79.0074C90.8684 78.6494 91.3546 78.4477 91.8621 78.4462H96.6496C97.157 78.4477 97.6432 78.6494 98.002 79.0074C98.3609 79.3654 98.5631 79.8504 98.5646 80.3567V83.2223Z" fill="#86D0C1"/>
<path d="M93.3781 82.6655H91.3035C91.1553 82.6655 91.0133 82.7242 90.9085 82.8287C90.8038 82.9332 90.7449 83.075 90.7449 83.2227C90.7449 83.3705 90.8038 83.5123 90.9085 83.6168C91.0133 83.7213 91.1553 83.78 91.3035 83.78H93.3781C93.5262 83.78 93.6683 83.7213 93.773 83.6168C93.8778 83.5123 93.9366 83.3705 93.9366 83.2227C93.9366 83.075 93.8778 82.9332 93.773 82.8287C93.6683 82.7242 93.5262 82.6655 93.3781 82.6655ZM93.3781 83.4616H91.3035C91.272 83.4616 91.2408 83.4555 91.2117 83.4436C91.1826 83.4316 91.1561 83.414 91.1338 83.3918C91.1115 83.3696 91.0938 83.3433 91.0817 83.3143C91.0697 83.2853 91.0635 83.2542 91.0635 83.2227C91.0635 83.1913 91.0697 83.1602 91.0817 83.1312C91.0938 83.1022 91.1115 83.0758 91.1338 83.0537C91.1561 83.0315 91.1826 83.0139 91.2117 83.0019C91.2408 82.99 91.272 82.9839 91.3035 82.9839H93.3781C93.4414 82.9841 93.5022 83.0093 93.5469 83.0541C93.5917 83.0989 93.6168 83.1595 93.6168 83.2227C93.6168 83.286 93.5917 83.3466 93.5469 83.3914C93.5022 83.4362 93.4414 83.4614 93.3781 83.4616Z" fill="#86D0C1"/>
<path d="M97.2081 82.6655H95.1335C94.9854 82.6655 94.8433 82.7242 94.7385 82.8287C94.6338 82.9332 94.575 83.075 94.575 83.2227C94.575 83.3705 94.6338 83.5123 94.7385 83.6168C94.8433 83.7213 94.9854 83.78 95.1335 83.78H97.2081C97.3562 83.78 97.4983 83.7213 97.603 83.6168C97.7078 83.5123 97.7666 83.3705 97.7666 83.2227C97.7666 83.075 97.7078 82.9332 97.603 82.8287C97.4983 82.7242 97.3562 82.6655 97.2081 82.6655ZM97.2081 83.4616H95.1335C95.102 83.4616 95.0708 83.4555 95.0417 83.4436C95.0126 83.4316 94.9861 83.414 94.9638 83.3918C94.9415 83.3696 94.9238 83.3433 94.9118 83.3143C94.8997 83.2853 94.8935 83.2542 94.8935 83.2227C94.8935 83.1913 94.8997 83.1602 94.9118 83.1312C94.9238 83.1022 94.9415 83.0758 94.9638 83.0537C94.9861 83.0315 95.0126 83.0139 95.0417 83.0019C95.0708 82.99 95.102 82.9839 95.1335 82.9839H97.2081C97.2715 82.9841 97.3322 83.0093 97.3769 83.0541C97.4217 83.0989 97.4468 83.1595 97.4468 83.2227C97.4468 83.286 97.4217 83.3466 97.3769 83.3914C97.3322 83.4362 97.2715 83.4614 97.2081 83.4616Z" fill="#86D0C1"/>
<path d="M93.3781 81.2324H91.3035C91.1553 81.2324 91.0133 81.2911 90.9085 81.3956C90.8038 81.5001 90.7449 81.6419 90.7449 81.7896C90.7449 81.9374 90.8038 82.0792 90.9085 82.1837C91.0133 82.2882 91.1553 82.3469 91.3035 82.3469H93.3781C93.5262 82.3469 93.6683 82.2882 93.773 82.1837C93.8778 82.0792 93.9366 81.9374 93.9366 81.7896C93.9366 81.6419 93.8778 81.5001 93.773 81.3956C93.6683 81.2911 93.5262 81.2324 93.3781 81.2324ZM93.3781 82.0284H91.3035C91.272 82.0284 91.2409 82.0223 91.2119 82.0103C91.1828 81.9983 91.1564 81.9807 91.1342 81.9585C91.112 81.9363 91.0944 81.91 91.0823 81.881C91.0703 81.8521 91.0641 81.821 91.0641 81.7896C91.0641 81.7583 91.0703 81.7272 91.0823 81.6983C91.0944 81.6693 91.112 81.643 91.1342 81.6208C91.1564 81.5986 91.1828 81.581 91.2119 81.569C91.2409 81.557 91.272 81.5508 91.3035 81.5508H93.3781C93.4095 81.5508 93.4406 81.557 93.4697 81.569C93.4987 81.581 93.5251 81.5986 93.5473 81.6208C93.5696 81.643 93.5872 81.6693 93.5992 81.6983C93.6112 81.7272 93.6174 81.7583 93.6174 81.7896C93.6174 81.821 93.6112 81.8521 93.5992 81.881C93.5872 81.91 93.5696 81.9363 93.5473 81.9585C93.5251 81.9807 93.4987 81.9983 93.4697 82.0103C93.4406 82.0223 93.4095 82.0284 93.3781 82.0284Z" fill="#86D0C1"/>
<path d="M97.2081 81.2324H95.1335C94.9854 81.2324 94.8433 81.2911 94.7385 81.3956C94.6338 81.5001 94.575 81.6419 94.575 81.7896C94.575 81.9374 94.6338 82.0792 94.7385 82.1837C94.8433 82.2882 94.9854 82.3469 95.1335 82.3469H97.2081C97.3562 82.3469 97.4983 82.2882 97.603 82.1837C97.7078 82.0792 97.7666 81.9374 97.7666 81.7896C97.7666 81.6419 97.7078 81.5001 97.603 81.3956C97.4983 81.2911 97.3562 81.2324 97.2081 81.2324ZM97.2081 82.0284H95.1335C95.1021 82.0284 95.0709 82.0223 95.0419 82.0103C95.0128 81.9983 94.9865 81.9807 94.9642 81.9585C94.942 81.9363 94.9244 81.91 94.9123 81.881C94.9003 81.8521 94.8941 81.821 94.8941 81.7896C94.8941 81.7583 94.9003 81.7272 94.9123 81.6983C94.9244 81.6693 94.942 81.643 94.9642 81.6208C94.9865 81.5986 95.0128 81.581 95.0419 81.569C95.0709 81.557 95.1021 81.5508 95.1335 81.5508H97.2081C97.2395 81.5508 97.2706 81.557 97.2997 81.569C97.3287 81.581 97.3551 81.5986 97.3773 81.6208C97.3996 81.643 97.4172 81.6693 97.4292 81.6983C97.4413 81.7272 97.4475 81.7583 97.4475 81.7896C97.4475 81.821 97.4413 81.8521 97.4292 81.881C97.4172 81.91 97.3996 81.9363 97.3773 81.9585C97.3551 81.9807 97.3287 81.9983 97.2997 82.0103C97.2706 82.0223 97.2395 82.0284 97.2081 82.0284Z" fill="#86D0C1"/>
<path d="M93.3781 79.7996H91.3035C91.1553 79.7996 91.0133 79.8583 90.9085 79.9628C90.8038 80.0673 90.7449 80.209 90.7449 80.3568C90.7449 80.5046 90.8038 80.6463 90.9085 80.7508C91.0133 80.8553 91.1553 80.914 91.3035 80.914H93.3781C93.5262 80.914 93.6683 80.8553 93.773 80.7508C93.8778 80.6463 93.9366 80.5046 93.9366 80.3568C93.9366 80.209 93.8778 80.0673 93.773 79.9628C93.6683 79.8583 93.5262 79.7996 93.3781 79.7996ZM93.3781 80.5956H91.3035C91.272 80.5957 91.2408 80.5896 91.2117 80.5776C91.1826 80.5656 91.1561 80.5481 91.1338 80.5259C91.1115 80.5037 91.0938 80.4773 91.0817 80.4483C91.0697 80.4193 91.0635 80.3882 91.0635 80.3568C91.0635 80.3254 91.0697 80.2943 91.0817 80.2652C91.0938 80.2362 91.1115 80.2099 91.1338 80.1877C91.1561 80.1655 91.1826 80.1479 91.2117 80.136C91.2408 80.124 91.272 80.1179 91.3035 80.118H93.3781C93.4414 80.1181 93.5022 80.1434 93.5469 80.1881C93.5917 80.2329 93.6168 80.2936 93.6168 80.3568C93.6168 80.42 93.5917 80.4807 93.5469 80.5254C93.5022 80.5702 93.4414 80.5954 93.3781 80.5956Z" fill="#86D0C1"/>
<path d="M97.2081 79.7996H95.1335C94.9854 79.7996 94.8433 79.8583 94.7385 79.9628C94.6338 80.0673 94.575 80.209 94.575 80.3568C94.575 80.5046 94.6338 80.6463 94.7385 80.7508C94.8433 80.8553 94.9854 80.914 95.1335 80.914H97.2081C97.3562 80.914 97.4983 80.8553 97.603 80.7508C97.7078 80.6463 97.7666 80.5046 97.7666 80.3568C97.7666 80.209 97.7078 80.0673 97.603 79.9628C97.4983 79.8583 97.3562 79.7996 97.2081 79.7996ZM97.2081 80.5956H95.1335C95.102 80.5957 95.0708 80.5896 95.0417 80.5776C95.0126 80.5656 94.9861 80.5481 94.9638 80.5259C94.9415 80.5037 94.9238 80.4773 94.9118 80.4483C94.8997 80.4193 94.8935 80.3882 94.8935 80.3568C94.8935 80.3254 94.8997 80.2943 94.9118 80.2652C94.9238 80.2362 94.9415 80.2099 94.9638 80.1877C94.9861 80.1655 95.0126 80.1479 95.0417 80.136C95.0708 80.124 95.102 80.1179 95.1335 80.118H97.2081C97.2715 80.1181 97.3322 80.1434 97.3769 80.1881C97.4217 80.2329 97.4468 80.2936 97.4468 80.3568C97.4468 80.42 97.4217 80.4807 97.3769 80.5254C97.3322 80.5702 97.2715 80.5954 97.2081 80.5956Z" fill="#86D0C1"/>
<path d="M49.7878 76.6671C49.7878 76.6671 47.5206 86.217 50.2916 86.217C53.0627 86.217 59.6123 75.4105 59.6123 75.4105C59.6123 75.4105 66.4139 71.8921 63.6429 70.6356C60.8719 69.379 57.3451 72.6461 57.3451 72.6461L53.2758 78.2825L53.0626 75.4105L49.7878 76.6671Z" fill="#C07933"/>
<path d="M55.078 68.6251L53.5665 67.1172C53.5665 67.1172 50.5436 68.8764 50.2917 70.6356C50.0398 72.3948 48.7802 77.9237 48.7802 77.9237L53.4406 78.3006L54.952 76.0388L55.078 68.6251Z" fill="#CFCCE0"/>
<path d="M126.679 65.0499C126.489 64.4909 124.109 62.5906 125.568 62.2712L126.764 63.862L132.262 58.377L132.815 58.9286L126.679 65.0499Z" fill="#86D0C1"/>
<path d="M126.679 83.7018C126.489 83.1428 124.109 81.2425 125.568 80.9231L126.764 82.5139L132.262 77.0288L132.815 77.5805L126.679 83.7018Z" fill="#86D0C1"/>
<path d="M126.679 102.62C126.489 102.061 124.109 100.16 125.568 99.841L126.764 101.432L132.262 95.9468L132.815 96.4984L126.679 102.62Z" fill="#86D0C1"/>
<path d="M143.333 64.4746C144.27 64.4746 145.029 63.7168 145.029 62.782C145.029 61.8472 144.27 61.0894 143.333 61.0894C142.396 61.0894 141.636 61.8472 141.636 62.782C141.636 63.7168 142.396 64.4746 143.333 64.4746Z" fill="#395B54"/>
<path d="M177.011 62.6125H149.695V62.9511H177.011V62.6125Z" fill="#395B54"/>
<path d="M143.333 83.1264C144.27 83.1264 145.029 82.3686 145.029 81.4338C145.029 80.499 144.27 79.7412 143.333 79.7412C142.396 79.7412 141.636 80.499 141.636 81.4338C141.636 82.3686 142.396 83.1264 143.333 83.1264Z" fill="#395B54"/>
<path d="M177.011 81.2642H149.695V81.6027H177.011V81.2642Z" fill="#395B54"/>
<path d="M143.333 102.044C144.27 102.044 145.029 101.287 145.029 100.352C145.029 99.417 144.27 98.6592 143.333 98.6592C142.396 98.6592 141.636 99.417 141.636 100.352C141.636 101.287 142.396 102.044 143.333 102.044Z" fill="#395B54"/>
<path d="M177.011 100.182H149.695V100.521H177.011V100.182Z" fill="#395B54"/>
<path d="M130.964 105.142H122.481V96.5093H128.25V96.8478H122.82V104.803H130.625V100.91H130.964V105.142Z" fill="#395B54"/>
<path d="M130.964 86.1846H122.481V77.5522H128.25V77.8908H122.82V85.846H130.625V81.953H130.964V86.1846Z" fill="#395B54"/>
<path d="M130.964 66.8887H122.481V58.2563H128.25V58.5949H122.82V66.5501H130.625V62.6571H130.964V66.8887Z" fill="#395B54"/>
<path opacity="0.1" d="M69.6036 142.97C87.5606 142.97 102.118 142.084 102.118 140.992C102.118 139.901 87.5606 139.015 69.6036 139.015C51.6467 139.015 37.0897 139.901 37.0897 140.992C37.0897 142.084 51.6467 142.97 69.6036 142.97Z" fill="#86D0C1"/>
<path opacity="0.1" d="M125.136 114.732C125.042 114.848 124.955 114.96 124.863 115.069C124.523 115.474 124.167 115.84 123.798 116.164C121.864 117.882 119.479 118.722 117.156 119.292C111.947 120.572 106.628 120.821 101.332 121.065C87.0228 121.727 72.6785 122.387 58.4038 120.862C52.7639 120.26 46.9998 119.253 41.8891 116.164C41.1565 115.722 40.4384 115.236 39.7346 114.703C38.3105 113.625 36.9429 112.312 35.8055 110.744C34.7367 109.274 33.87 107.585 33.3521 105.666C32.272 101.668 32.8436 97.1774 34.0768 93.2588C34.589 91.6735 35.1667 90.1508 35.8055 88.7018C36.7577 86.4954 37.8077 84.3524 38.7655 82.1476C42.1739 74.3103 44.3979 64.395 41.2518 56.3566C40.3475 54.0472 39.0409 52.0198 38.304 49.609C37.364 46.5251 37.4364 43.1007 37.7353 39.7745C37.7741 39.3521 37.8152 38.9339 37.8584 38.52C38.3688 33.5877 39.3295 28.2736 42.2914 25.1945C45.368 21.9949 49.7371 22.1565 53.5553 23.2938C59.4933 25.0804 64.9706 28.7995 70.5062 32.1574C76.0418 35.5153 81.8331 38.5834 87.9167 38.9128C93.2888 39.2043 99.5547 37.0232 103.12 31.3543C106.583 25.8486 113.092 25.4289 117.784 28.7551C121.004 31.0376 123.407 35.1494 124.42 39.7745C124.626 40.703 124.773 41.6648 124.861 42.6445C124.942 43.5399 124.969 44.447 124.94 45.3515C124.926 45.7981 124.899 46.24 124.861 46.6772C124.077 55.8038 118.434 63.0027 115.004 71.1551C113.328 75.1371 112.145 79.9206 113.297 84.2146C115.055 90.7578 121.168 93.0845 124.859 97.9535C125.554 98.8397 126.166 99.8969 126.674 101.09C128.464 105.423 127.803 111.276 125.136 114.732Z" fill="#86D0C1"/>
<path opacity="0.1" d="M146.499 125.641C146.391 125.72 146.292 125.797 146.187 125.872C145.798 126.15 145.39 126.401 144.967 126.623C142.752 127.802 140.022 128.378 137.362 128.77C131.397 129.648 125.307 129.818 119.243 129.986C102.858 130.44 86.4335 130.893 70.0884 129.847C63.6305 129.434 57.0304 128.742 51.1784 126.623C50.3396 126.32 49.5173 125.986 48.7115 125.621C47.0809 124.881 45.5148 123.98 44.2125 122.904C42.9887 121.896 41.9963 120.737 41.4033 119.42C40.1666 116.677 40.821 113.596 42.2331 110.907C42.8196 109.82 43.481 108.775 44.2125 107.781C45.3028 106.267 46.505 104.796 47.6018 103.283C51.5046 97.9061 54.0512 91.1029 50.4487 85.5875C49.4133 84.0029 47.9172 82.6119 47.0733 80.9578C45.997 78.8418 46.0799 76.4922 46.4222 74.21C46.4666 73.9202 46.5136 73.6333 46.5632 73.3493C47.1476 69.965 48.2476 66.3189 51.6391 64.2062C55.1619 62.0109 60.1647 62.1217 64.5367 62.902C71.3359 64.1279 77.6076 66.6797 83.9461 68.9837C90.2846 71.2876 96.9158 73.3927 103.882 73.6188C110.033 73.8187 117.208 72.3222 121.29 68.4327C125.256 64.655 132.709 64.367 138.081 66.6493C141.768 68.2153 144.52 71.0366 145.68 74.21C145.915 74.8471 146.084 75.507 146.185 76.1792C146.278 76.7936 146.308 77.4159 146.275 78.0365C146.259 78.343 146.228 78.6462 146.185 78.9462C145.287 85.2082 138.826 90.1476 134.898 95.7412C132.979 98.4734 131.624 101.755 132.944 104.702C134.956 109.191 141.956 110.788 146.183 114.128C146.978 114.736 147.678 115.462 148.26 116.28C150.31 119.254 149.554 123.269 146.499 125.641Z" fill="#86D0C1"/>
<path opacity="0.1" d="M85.2583 140.161C88.7435 140.161 91.5687 139.67 91.5687 139.065C91.5687 138.46 88.7435 137.969 85.2583 137.969C81.7732 137.969 78.9479 138.46 78.9479 139.065C78.9479 139.67 81.7732 140.161 85.2583 140.161Z" fill="#86D0C1"/>
<path d="M86.6292 126.863C86.6292 126.863 87.6518 128.221 86.1561 130.264C84.6605 132.306 83.4274 134.043 83.921 135.322C83.921 135.322 86.1766 131.515 88.0187 131.462C89.8608 131.409 88.6519 129.153 86.6292 126.863Z" fill="#86D0C1"/>
<path opacity="0.1" d="M86.6292 126.863C86.7185 126.994 86.7888 127.138 86.8378 127.29C88.6296 129.425 89.5851 131.418 87.8622 131.467C86.2586 131.515 84.3327 134.425 83.8726 135.16C83.8878 135.216 83.9058 135.273 83.9266 135.328C83.9266 135.328 86.1822 131.52 88.0243 131.467C89.8664 131.415 88.652 129.153 86.6292 126.863Z" fill="black"/>
<path d="M88.5309 128.594C88.5309 129.072 88.4787 129.459 88.4135 129.459C88.3483 129.459 88.2943 129.081 88.2943 128.594C88.2943 128.106 88.3614 128.34 88.4266 128.34C88.4917 128.34 88.5309 128.116 88.5309 128.594Z" fill="#898474"/>
<path d="M89.1846 129.164C88.7711 129.393 88.4098 129.531 88.3781 129.472C88.3465 129.414 88.6575 129.181 89.071 128.953C89.4845 128.724 89.3206 128.89 89.3523 128.953C89.3839 129.015 89.5981 128.936 89.1846 129.164Z" fill="#898474"/>
<path d="M81.224 126.863C81.224 126.863 80.2015 128.221 81.6971 130.264C83.1927 132.306 84.4258 134.043 83.9322 135.322C83.9322 135.322 81.6766 131.515 79.8345 131.462C77.9925 131.409 79.205 129.153 81.224 126.863Z" fill="#86D0C1"/>
<path opacity="0.1" d="M81.224 126.863C81.1347 126.994 81.0644 127.138 81.0154 127.29C79.2236 129.425 78.2681 131.418 79.991 131.467C81.5965 131.515 83.5205 134.425 83.9806 135.16C83.9662 135.217 83.9482 135.273 83.9266 135.328C83.9266 135.328 81.671 131.52 79.8289 131.467C77.9868 131.415 79.2049 129.153 81.224 126.863Z" fill="black"/>
<path d="M79.3223 128.594C79.3223 129.072 79.3745 129.459 79.4397 129.459C79.5049 129.459 79.5589 129.081 79.5589 128.594C79.5589 128.106 79.4918 128.34 79.4266 128.34C79.3614 128.34 79.3223 128.116 79.3223 128.594Z" fill="#898474"/>
<path d="M78.6704 129.164C79.0839 129.393 79.4434 129.531 79.475 129.472C79.5067 129.414 79.1956 129.181 78.7821 128.953C78.3687 128.724 78.5326 128.89 78.5009 128.953C78.4692 129.015 78.2569 128.936 78.6704 129.164Z" fill="#898474"/>
<path d="M79.6482 135.15C79.6482 135.15 82.5091 135.06 83.3733 134.438C84.2376 133.816 87.7727 133.07 87.9869 134.069C88.2011 135.069 92.2857 139.037 89.056 139.063C85.8263 139.09 81.5517 138.553 80.6912 138.022C79.8307 137.491 79.6482 135.15 79.6482 135.15Z" fill="#A8A8A8"/>
<path opacity="0.2" d="M89.1119 138.716C85.8822 138.742 81.6076 138.206 80.7471 137.675C80.0915 137.268 79.8307 135.815 79.7432 135.146H79.6482C79.6482 135.146 79.8344 137.486 80.6894 138.019C81.5443 138.551 85.8245 139.086 89.0542 139.06C89.9855 139.06 90.3095 138.716 90.2909 138.217C90.1624 138.523 89.8066 138.71 89.1119 138.716Z" fill="black"/>
<path d="M175.187 135.039C175.187 135.039 167.312 134.557 168.241 140.155C168.241 140.155 168.055 141.144 168.94 141.593C168.94 141.593 168.955 141.18 169.748 141.319C170.031 141.368 170.317 141.382 170.603 141.361C170.99 141.335 171.358 141.181 171.65 140.923C171.65 140.923 173.863 139.997 174.723 136.325C174.723 136.325 175.36 135.524 175.336 135.318L174.006 135.885C174.006 135.885 174.46 136.858 174.103 137.667C174.103 137.667 174.06 135.921 173.805 135.966C173.753 135.966 173.114 136.303 173.114 136.303C173.114 136.303 173.896 138.003 173.3 139.228C173.3 139.228 173.524 137.149 172.864 136.426L171.933 136.979C171.933 136.979 172.846 138.729 172.227 140.157C172.227 140.157 172.386 137.967 171.737 137.113L170.89 137.784C170.89 137.784 171.747 139.509 171.223 140.694C171.223 140.694 171.156 138.145 170.706 137.952C170.706 137.952 169.96 138.616 169.851 138.897C169.851 138.897 170.437 140.148 170.074 140.809C170.074 140.809 169.851 139.109 169.666 139.109C169.666 139.109 168.921 140.242 168.85 140.998C168.85 140.998 168.884 139.851 169.487 138.993C169.061 139.076 168.668 139.283 168.357 139.589C168.357 139.589 168.472 138.793 169.661 138.723C169.661 138.723 170.272 137.869 170.435 137.818C170.435 137.818 169.243 137.716 168.521 138.041C168.521 138.041 169.156 137.285 170.653 137.631L171.49 136.94C171.49 136.94 169.921 136.72 169.255 136.962C169.255 136.962 170.022 136.297 171.715 136.773L172.628 136.222C172.628 136.222 171.289 135.929 170.491 136.033C170.491 136.033 171.333 135.572 172.894 136.07L173.546 135.774C173.546 135.774 172.564 135.585 172.278 135.549C171.991 135.513 171.976 135.437 171.976 135.437C172.597 135.332 173.235 135.404 173.818 135.645C173.818 135.645 175.211 135.128 175.187 135.039Z" fill="#86D0C1"/>
<path opacity="0.1" d="M169.763 143.037C172.841 143.037 175.336 142.609 175.336 142.081C175.336 141.553 172.841 141.125 169.763 141.125C166.685 141.125 164.19 141.553 164.19 142.081C164.19 142.609 166.685 143.037 169.763 143.037Z" fill="#86D0C1"/>
<path d="M161.391 135.337C161.391 135.337 156.95 135.065 157.479 138.222C157.453 138.383 157.477 138.547 157.547 138.693C157.618 138.838 157.733 138.957 157.874 139.033C157.874 139.033 157.874 138.799 158.331 138.878C158.489 138.904 158.651 138.913 158.811 138.903C159.029 138.887 159.236 138.8 159.402 138.655C159.402 138.655 160.65 138.132 161.136 136.063C161.136 136.063 161.493 135.611 161.48 135.496L160.735 135.819C160.735 135.819 160.99 136.369 160.789 136.824C160.789 136.824 160.765 135.84 160.622 135.862C160.592 135.862 160.232 136.051 160.232 136.051C160.232 136.051 160.672 136.996 160.34 137.701C160.34 137.701 160.465 136.524 160.094 136.119L159.567 136.433C159.567 136.433 160.081 137.419 159.733 138.224C159.733 138.224 159.823 136.989 159.456 136.509L158.979 136.887C158.979 136.887 159.461 137.86 159.165 138.527C159.165 138.527 159.126 137.089 158.873 136.981C158.691 137.136 158.529 137.313 158.39 137.508C158.39 137.508 158.722 138.215 158.517 138.587C158.517 138.587 158.39 137.629 158.288 137.625C158.288 137.625 157.871 138.26 157.828 138.695C157.847 138.292 157.97 137.901 158.185 137.561C157.945 137.607 157.724 137.723 157.548 137.896C157.548 137.896 157.614 137.446 158.293 137.408C158.293 137.408 158.636 136.926 158.729 136.898C158.729 136.898 158.057 136.839 157.649 137.023C157.649 137.023 158.008 136.599 158.852 136.792L159.323 136.401C159.323 136.401 158.439 136.278 158.064 136.414C158.064 136.414 158.496 136.036 159.452 136.312L159.964 136.002C159.569 135.914 159.165 135.878 158.761 135.896C158.761 135.896 159.236 135.638 160.115 135.917L160.487 135.751C160.487 135.751 159.929 135.64 159.774 135.622C159.62 135.605 159.603 135.56 159.603 135.56C159.953 135.501 160.313 135.542 160.642 135.677C160.642 135.677 161.404 135.388 161.391 135.337Z" fill="#86D0C1"/>
<path opacity="0.1" d="M158.332 139.848C160.068 139.848 161.475 139.606 161.475 139.309C161.475 139.012 160.068 138.771 158.332 138.771C156.597 138.771 155.19 139.012 155.19 139.309C155.19 139.606 156.597 139.848 158.332 139.848Z" fill="#86D0C1"/>
<path d="M169.841 128.647C169.841 128.647 164.483 128.318 165.114 132.129C165.082 132.322 165.11 132.521 165.196 132.697C165.282 132.873 165.42 133.016 165.591 133.108C165.591 133.108 165.591 132.826 166.14 132.919C166.332 132.95 166.527 132.959 166.721 132.947C166.985 132.928 167.235 132.823 167.435 132.648C167.435 132.648 168.942 132.017 169.527 129.518C169.527 129.518 169.96 128.973 169.944 128.834L169.039 129.225C169.039 129.225 169.348 129.888 169.106 130.438C169.106 130.438 169.076 129.249 168.901 129.278C168.867 129.278 168.431 129.506 168.431 129.506C168.431 129.506 168.964 130.661 168.562 131.498C168.562 131.498 168.714 130.077 168.266 129.589L167.629 129.967C167.629 129.967 168.251 131.158 167.83 132.131C167.83 132.131 167.938 130.64 167.494 130.052L166.917 130.508C166.917 130.508 167.502 131.681 167.146 132.488C167.146 132.488 167.1 130.753 166.792 130.621C166.792 130.621 166.288 131.073 166.211 131.258C166.211 131.258 166.612 132.11 166.362 132.56C166.362 132.56 166.211 131.405 166.086 131.4C166.086 131.4 165.583 132.155 165.528 132.69C165.552 132.205 165.701 131.734 165.96 131.326C165.67 131.382 165.403 131.522 165.19 131.73C165.19 131.73 165.269 131.188 166.084 131.141C166.084 131.141 166.5 130.561 166.612 130.525C166.612 130.525 165.8 130.457 165.308 130.678C165.308 130.678 165.74 130.166 166.761 130.398L167.331 129.928C167.331 129.928 166.261 129.778 165.809 129.943C165.809 129.943 166.33 129.491 167.485 129.82L168.105 129.442C168.105 129.442 167.195 129.253 166.653 129.315C166.653 129.315 167.224 129.002 168.288 129.34L168.731 129.14C168.731 129.14 168.063 129.006 167.867 128.985C167.671 128.964 167.662 128.909 167.662 128.909C168.085 128.838 168.519 128.887 168.916 129.051C168.916 129.051 169.86 128.707 169.841 128.647Z" fill="#86D0C1"/>
<path opacity="0.1" d="M166.152 134.09C168.247 134.09 169.946 133.799 169.946 133.44C169.946 133.081 168.247 132.79 166.152 132.79C164.056 132.79 162.357 133.081 162.357 133.44C162.357 133.799 164.056 134.09 166.152 134.09Z" fill="#86D0C1"/>
</svg>
