<svg width="140" height="167" viewBox="0 0 140 167" fill="none" xmlns="http://www.w3.org/2000/svg">
<g clip-path="url(#clip0_20993_87714)">
<path d="M72.4037 164.32C111.04 162.991 141.283 130.593 139.954 91.9574C138.625 53.3215 106.227 23.0782 67.5912 24.4072C28.9553 25.7361 -1.28791 58.134 0.0410265 96.7699C1.36997 135.406 33.7679 165.649 72.4037 164.32Z" fill="#E9FAF5"/>
<path fill-rule="evenodd" clip-rule="evenodd" d="M53.2889 166.862C68.9957 166.862 81.8023 154.051 81.8023 138.349C81.8023 122.646 68.9914 109.835 53.2889 109.835C37.5864 109.835 24.7754 122.646 24.7754 138.349C24.7754 154.051 37.5864 166.862 53.2889 166.862Z" fill="#FF935F"/>
<path fill-rule="evenodd" clip-rule="evenodd" d="M65.6366 164.057C75.2016 159.454 81.8016 149.673 81.8016 138.349C81.8016 126.446 74.5057 116.25 64.1455 111.975C54.5805 116.578 47.9805 126.359 47.9805 137.683C47.9805 149.587 55.2763 159.783 65.6366 164.053V164.057Z" fill="#A4434C"/>
<path fill-rule="evenodd" clip-rule="evenodd" d="M96.2685 112.705C99.8559 111.322 103.889 113.107 105.276 116.699C106.659 120.286 104.874 124.319 101.287 125.702C101.243 125.719 86.6776 131.204 81.6552 146.332C80.445 149.976 76.5118 151.951 72.8682 150.741C69.2246 149.53 67.2493 145.597 68.4595 141.954C75.5825 120.498 96.2123 112.731 96.2728 112.705H96.2685Z" fill="#A4434C"/>
<path fill-rule="evenodd" clip-rule="evenodd" d="M94.9806 93.8735C98.4211 92.1576 102.605 93.558 104.321 96.9984C106.037 100.439 104.636 104.623 101.196 106.339C101.157 106.36 87.1661 113.194 83.5917 128.723C82.7316 132.466 79.0015 134.8 75.2585 133.94C71.5155 133.08 69.1815 129.35 70.0416 125.607C75.1115 103.577 94.9201 93.8994 94.9763 93.8691L94.9806 93.8735Z" fill="#FFA562"/>
<path fill-rule="evenodd" clip-rule="evenodd" d="M41.3805 73.2092C44.8253 73.7365 47.2155 76.9868 46.6882 80.4316L38.4285 134.381L25.8984 132.462L34.1581 78.5125C34.6854 75.0678 37.9357 72.6776 41.3805 73.2049V73.2092Z" fill="#FF935F"/>
<path d="M52.2975 52.7999H88.6687C94.508 52.7999 99.2495 57.5413 99.2495 63.3806V138.202C99.2495 144.041 94.508 148.783 88.6687 148.783H52.2975C46.4582 148.783 41.7168 144.041 41.7168 138.202V63.3806C41.7168 57.5413 46.4582 52.7999 52.2975 52.7999Z" fill="#474747"/>
<path fill-rule="evenodd" clip-rule="evenodd" d="M88.6689 57.3641C91.9711 57.3641 94.6854 59.9055 94.6854 62.9959V133.046C94.6854 136.136 91.9711 138.677 88.6689 138.677H52.2977C48.9956 138.677 46.2812 136.136 46.2812 133.046V62.9959C46.2812 59.9055 48.9956 57.3641 52.2977 57.3641H88.6689Z" fill="#E9FAF5"/>
<path fill-rule="evenodd" clip-rule="evenodd" d="M51.2871 117.819C51.2871 118.964 52.2207 119.897 53.3661 119.897H63.8301C64.9755 119.897 65.9091 118.964 65.9091 117.819C65.9091 116.673 64.9755 115.74 63.8301 115.74H53.3661C52.2207 115.74 51.2871 116.673 51.2871 117.819Z" fill="#50A8BA"/>
<path fill-rule="evenodd" clip-rule="evenodd" d="M54.7793 117.819C54.7793 118.964 55.7129 119.897 56.8583 119.897H58.2759C59.4213 119.897 60.3549 118.964 60.3549 117.819C60.3549 116.673 59.4213 115.74 58.2759 115.74H56.8583C55.7129 115.74 54.7793 116.673 54.7793 117.819Z" fill="#8AE9FC"/>
<path fill-rule="evenodd" clip-rule="evenodd" d="M56.3606 109.472C59.7275 106.888 64.5554 107.523 67.1401 110.89C69.7248 114.257 69.0894 119.085 65.7224 121.67C65.6835 121.7 51.9692 132.056 51.3728 149.634C51.2301 153.87 47.6773 157.185 43.4459 157.042C39.2101 156.9 35.895 153.347 36.0376 149.116C36.8848 124.177 56.3044 109.516 56.3606 109.472Z" fill="#FF935F"/>
<path fill-rule="evenodd" clip-rule="evenodd" d="M60.9998 120.425C63.7358 120.425 65.966 118.19 65.966 115.454C65.966 112.718 63.7358 110.488 60.9998 110.488C58.2639 110.488 56.0293 112.718 56.0293 115.454C56.0293 118.19 58.2595 120.425 60.9998 120.425Z" fill="#FFB48F"/>
<path d="M49.1262 66.445C49.1262 65.6501 48.4828 65.0057 47.6891 65.0057C46.8954 65.0057 46.252 65.6501 46.252 66.445V71.8218C46.252 72.6167 46.8954 73.2611 47.6891 73.2611C48.4828 73.2611 49.1262 72.6167 49.1262 71.8218V66.445Z" fill="#8DCABE"/>
<path d="M94.5051 77.942C94.5051 77.1471 93.8617 76.5027 93.068 76.5027C92.2743 76.5027 91.6309 77.1471 91.6309 77.942V83.3188C91.6309 84.1137 92.2743 84.7581 93.068 84.7581C93.8617 84.7581 94.5051 84.1137 94.5051 83.3188V77.942Z" fill="#8DCABE"/>
<path d="M49.1262 77.7475C49.1262 76.9526 48.4828 76.3082 47.6891 76.3082C46.8954 76.3082 46.252 76.9526 46.252 77.7475V92.685C46.252 93.4799 46.8954 94.1243 47.6891 94.1243C48.4828 94.1243 49.1262 93.4799 49.1262 92.685V77.7475Z" fill="#8DCABE"/>
<path d="M94.5051 89.2445C94.5051 88.4496 93.8617 87.8052 93.068 87.8052C92.2743 87.8052 91.6309 88.4496 91.6309 89.2445V104.182C91.6309 104.977 92.2743 105.621 93.068 105.621C93.8617 105.621 94.5051 104.977 94.5051 104.182V89.2445Z" fill="#8DCABE"/>
<path d="M68.204 92.2355L65.3838 89.4153C65.146 89.1775 64.8491 89.0643 64.4929 89.0755C64.1359 89.0859 63.8386 89.21 63.6009 89.4477C63.3631 89.6854 63.2443 89.9879 63.2443 90.3553C63.2443 90.7227 63.3631 91.0253 63.6009 91.263L67.2963 94.9585C67.534 95.1962 67.8366 95.315 68.204 95.315C68.5714 95.315 68.8739 95.1962 69.1116 94.9585L76.4702 87.5999C76.7079 87.3622 76.8216 87.0648 76.8112 86.7078C76.7999 86.3517 76.6755 86.0548 76.4377 85.817C76.2 85.5793 75.8975 85.4605 75.5301 85.4605C75.1627 85.4605 74.8602 85.5793 74.6224 85.817L68.204 92.2355ZM70.0193 102.868C68.2256 102.868 66.5399 102.527 64.9623 101.846C63.3847 101.166 62.0124 100.242 60.8455 99.0753C59.6785 97.9084 58.7548 96.5361 58.0745 94.9585C57.3933 93.3809 57.0527 91.6952 57.0527 89.9015C57.0527 88.1078 57.3933 86.4221 58.0745 84.8445C58.7548 83.2669 59.6785 81.8946 60.8455 80.7277C62.0124 79.5607 63.3847 78.6366 64.9623 77.9554C66.5399 77.2751 68.2256 76.9349 70.0193 76.9349C71.813 76.9349 73.4987 77.2751 75.0763 77.9554C76.6539 78.6366 78.0262 79.5607 79.1931 80.7277C80.3601 81.8946 81.2838 83.2669 81.9641 84.8445C82.6453 86.4221 82.9859 88.1078 82.9859 89.9015C82.9859 91.6952 82.6453 93.3809 81.9641 94.9585C81.2838 96.5361 80.3601 97.9084 79.1931 99.0753C78.0262 100.242 76.6539 101.166 75.0763 101.846C73.4987 102.527 71.813 102.868 70.0193 102.868ZM70.0193 100.275C72.8936 100.275 75.3412 99.2647 77.3623 97.2445C79.3825 95.2234 80.3926 92.7758 80.3926 89.9015C80.3926 87.0272 79.3825 84.5796 77.3623 82.5585C75.3412 80.5383 72.8936 79.5282 70.0193 79.5282C67.145 79.5282 64.6978 80.5383 62.6776 82.5585C60.6566 84.5796 59.646 87.0272 59.646 89.9015C59.646 92.7758 60.6566 95.2234 62.6776 97.2445C64.6978 99.2647 67.145 100.275 70.0193 100.275Z" fill="#417465"/>
</g>
<defs>
<clipPath id="clip0_20993_87714">
<rect width="140" height="166.862" fill="white"/>
</clipPath>
</defs>
</svg>
