<svg width="172" height="226" viewBox="0 0 172 226" fill="none" xmlns="http://www.w3.org/2000/svg">
<path d="M34.3364 57.5967L31.2157 51.7145C31.2157 51.7145 10.5991 44.4667 10.3382 44.2484C10.0773 44.03 0.481559 36.0267 0.481559 36.0267L14.3327 38.4336L35.9186 46.8785L34.3364 57.5967Z" fill="#F4566D"/>
<path d="M43.5405 37.1301L0.481793 36.0264L35.9189 46.8781L43.5405 37.1301Z" fill="#FD7583"/>
<path d="M31.2158 51.7145L23.1807 62.1127L0.481897 36.0263L31.2158 51.7145Z" fill="#FD7583"/>
<path d="M108.796 84.5736C110.208 85.3321 111.608 86.1795 112.957 87.0927L113.319 87.3375L112.829 88.0611L112.468 87.8163C111.143 86.9199 109.769 86.0879 108.383 85.3433L107.998 85.1363L108.411 84.3667L108.796 84.5736Z" fill="#4CB7D8"/>
<path d="M131.161 143.193L131.239 142.763L132.099 142.918L132.021 143.348C131.734 144.938 131.402 146.535 131.034 148.095L130.934 148.521L130.083 148.32L130.184 147.895C130.548 146.349 130.878 144.767 131.161 143.193Z" fill="#4CB7D8"/>
<path d="M132.348 133.671L132.378 133.235L133.25 133.294L133.22 133.73C133.114 135.317 132.957 136.94 132.754 138.556L132.7 138.99L131.833 138.881L131.888 138.447C132.088 136.848 132.243 135.241 132.348 133.671Z" fill="#4CB7D8"/>
<path d="M132.377 124.09L132.348 123.655L133.221 123.597L133.249 124.033C133.353 125.608 133.403 127.24 133.396 128.883L133.394 129.32L132.52 129.317L132.522 128.88C132.529 127.257 132.48 125.645 132.377 124.09Z" fill="#4CB7D8"/>
<path d="M90.1033 79.8167C91.6733 79.7393 93.3168 79.8034 94.9888 80.0079L95.4224 80.0614L95.3165 80.9287L94.8827 80.8759C93.2605 80.6774 91.6667 80.6147 90.1467 80.6901L89.7103 80.7113L89.6672 79.8385L90.1033 79.8167Z" fill="#4CB7D8"/>
<path d="M99.7747 80.9495C101.305 81.361 102.862 81.8839 104.391 82.5037L104.796 82.6675L104.469 83.4777L104.064 83.314C102.563 82.707 101.044 82.1956 99.5481 81.7937L99.1262 81.6804L99.3529 80.8364L99.7747 80.9495Z" fill="#4CB7D8"/>
<path d="M89.8882 87.8802C89.3631 86.4031 88.7418 84.924 88.0402 83.4833L87.8489 83.0903L88.6346 82.7078L88.8261 83.1004C89.5412 84.5701 90.1758 86.0797 90.7114 87.587L90.8577 87.9988L90.0343 88.2911L89.8882 87.8802Z" fill="#4CB7D8"/>
<path d="M119.807 93.9137C118.692 92.7857 117.508 91.6997 116.287 90.6855L115.951 90.4063L116.51 89.7344L116.845 90.0135C118.088 91.0458 119.293 92.1513 120.429 93.2993L120.736 93.6098L120.115 94.2244L119.807 93.9137Z" fill="#4CB7D8"/>
<path d="M79.8914 71.7728C78.8098 70.6557 77.6238 69.5777 76.3673 68.5687L76.0265 68.295L76.5737 67.6135L76.9141 67.887C78.1993 68.9192 79.4119 70.0218 80.5191 71.1646L80.8233 71.4786L80.1955 72.0861L79.8914 71.7728Z" fill="#4CB7D8"/>
<path d="M130.996 114.63L130.896 114.205L131.747 114.005L131.847 114.431C132.208 115.972 132.511 117.578 132.746 119.204L132.809 119.637L131.944 119.762L131.881 119.33C131.65 117.728 131.352 116.147 130.996 114.63Z" fill="#4CB7D8"/>
<path d="M129.685 110.038C129.169 108.517 128.574 107.026 127.918 105.607L127.734 105.21L128.528 104.844L128.711 105.24C129.38 106.687 129.986 108.207 130.512 109.757L130.653 110.171L129.825 110.452L129.685 110.038Z" fill="#4CB7D8"/>
<path d="M125.675 101.4C124.849 100.043 123.937 98.7251 122.964 97.4841L122.694 97.1402L123.382 96.6009L123.651 96.9448C124.646 98.2131 125.578 99.5591 126.422 100.945L126.649 101.318L125.903 101.773L125.675 101.4Z" fill="#4CB7D8"/>
<path d="M72.4846 65.7973C71.1774 64.9672 69.7797 64.1729 68.3304 63.4373L67.9408 63.2393L68.3365 62.4605L68.726 62.6582C70.1999 63.4063 71.6222 64.2143 72.9529 65.0598L73.322 65.2942L72.8536 66.0317L72.4846 65.7973Z" fill="#4CB7D8"/>
<path d="M72.0002 93.9358L72.1301 93.5186L72.9643 93.7781L72.8344 94.1953C72.3594 95.7212 72.0485 97.2784 71.9105 98.8235L71.8719 99.2589L71.0013 99.1811L71.0403 98.7459C71.1835 97.139 71.5068 95.5209 72.0002 93.9358Z" fill="#4CB7D8"/>
<path d="M76.5215 111.392C77.2099 111.886 77.972 112.292 78.7868 112.6C78.7875 112.601 78.7883 112.601 78.7892 112.601C79.4089 112.836 80.0722 113.018 80.7604 113.143L81.1901 113.221L81.0339 114.08L80.6042 114.002C79.8645 113.868 79.1496 113.671 78.4802 113.419C78.4794 113.418 78.4787 113.418 78.4777 113.418C77.592 113.083 76.7622 112.641 76.0122 112.103L75.6571 111.848L76.1664 111.138L76.5215 111.392Z" fill="#4CB7D8"/>
<path d="M91.2158 92.4569L91.1202 92.0304L91.9725 91.8388L92.0681 92.2653C92.4317 93.8857 92.6849 95.5067 92.8198 97.0832L92.8573 97.5186L91.9866 97.5932L91.9495 97.158C91.8175 95.6206 91.5705 94.0389 91.2158 92.4569Z" fill="#4CB7D8"/>
<path d="M40.3375 55.1779L40.7723 55.2169C42.3736 55.361 43.9924 55.5483 45.5845 55.7737L46.0169 55.8349L45.8943 56.7001L45.4619 56.6389C43.8846 56.4158 42.2807 56.2303 40.6945 56.0875L40.2593 56.0483L40.3375 55.1779Z" fill="#4CB7D8"/>
<path d="M50.3616 56.5767C51.9653 56.8902 53.5564 57.248 55.0895 57.6398L55.5127 57.7479L55.2964 58.5944L54.8735 58.4862C53.3557 58.0985 51.7815 57.7446 50.1942 57.4343L49.7653 57.3503L49.933 56.4926L50.3616 56.5767Z" fill="#4CB7D8"/>
<path d="M59.0618 59.6822L59.3315 58.851L59.7468 58.9856C61.3069 59.4918 62.8185 60.0412 64.3058 60.6465L64.7106 60.8111L64.3814 61.6205L63.977 61.4562C62.5071 60.8591 61.0167 60.3172 59.4774 59.8171L59.0618 59.6822Z" fill="#4CB7D8"/>
<path d="M71.1228 103.23L71.9856 103.09L72.0557 103.521C72.3209 105.156 72.8125 106.642 73.5168 107.936L73.7258 108.32L72.9581 108.737L72.7497 108.354C71.9978 106.973 71.4744 105.394 71.1929 103.661L71.1228 103.23Z" fill="#4CB7D8"/>
<path d="M91.9822 101.902L92.0159 101.467L92.887 101.534L92.8533 101.97C92.7182 103.707 92.4193 105.331 91.9651 106.797L91.8356 107.214L91.0007 106.956L91.1303 106.538C91.5654 105.134 91.8522 103.574 91.9822 101.902Z" fill="#4CB7D8"/>
<path d="M82.7303 75.0465L83.4218 74.5122L83.6893 74.8581C84.6851 76.1469 85.6201 77.4888 86.4681 78.8467L86.6994 79.2174L85.9583 79.6801L85.7264 79.3096C84.894 77.9764 83.9758 76.6582 82.9975 75.3922L82.7303 75.0465Z" fill="#4CB7D8"/>
<path d="M85.3745 113.168C86.7714 112.837 88.0085 112 89.0518 110.679L89.3226 110.337L90.0081 110.879L89.7372 111.221C88.5691 112.7 87.1688 113.641 85.5759 114.018L85.1508 114.119L84.9494 113.269L85.3745 113.168Z" fill="#4CB7D8"/>
<path d="M80.3253 82.6372L80.7041 82.4195C82.0929 81.6222 83.6243 80.9958 85.2559 80.5579L85.6782 80.4449L85.9045 81.2888L85.4826 81.4022C83.924 81.8203 82.4624 82.4176 81.1394 83.1776L80.7607 83.3954L80.3253 82.6372Z" fill="#4CB7D8"/>
<path d="M74.9424 87.7902C75.5086 86.9531 76.1424 86.1671 76.8251 85.454L77.1273 85.1385L77.7581 85.7426L77.4559 86.0582C76.807 86.7361 76.2048 87.4833 75.6657 88.2798C75.3251 88.7832 74.9982 89.3135 74.6948 89.8554L74.481 90.2366L73.7188 89.8096L73.9323 89.4285C74.248 88.8647 74.5881 88.3137 74.9424 87.7902Z" fill="#4CB7D8"/>
<circle cx="131.001" cy="170" r="25" fill="#EEFCF9"/>
<path d="M131.996 150.484C128.041 150.484 124.175 151.658 120.886 153.856C117.598 156.054 115.035 159.177 113.522 162.832C112.009 166.486 111.613 170.507 112.385 174.386C113.157 178.266 115.061 181.829 117.858 184.626C120.655 187.423 124.218 189.327 128.098 190.099C131.977 190.871 135.998 190.475 139.652 188.962C143.307 187.449 146.43 184.886 148.628 181.597C150.826 178.309 152 174.443 152 170.488C152 167.861 151.483 165.259 150.478 162.832C149.472 160.405 147.999 158.2 146.141 156.343C144.284 154.485 142.079 153.012 139.652 152.006C137.225 151.001 134.623 150.484 131.996 150.484ZM144.623 165.656C144.62 165.695 144.609 165.733 144.59 165.768C144.572 165.803 144.547 165.833 144.517 165.858C144.461 165.901 144.393 165.923 144.323 165.923C144.309 165.923 143.84 165.866 143.84 165.866C143.801 165.862 143.764 165.851 143.73 165.833C143.695 165.814 143.665 165.79 143.641 165.759C143.616 165.729 143.598 165.695 143.587 165.658C143.576 165.62 143.573 165.581 143.577 165.543C143.577 165.543 143.634 164.882 143.634 164.545C143.635 162.423 142.838 160.378 141.401 158.816C141.163 158.548 140.849 158.36 140.502 158.275C140.154 158.189 139.789 158.212 139.454 158.339C139.119 158.466 138.831 158.691 138.627 158.986C138.423 159.28 138.314 159.629 138.313 159.987L138.306 176.416C138.304 178.19 137.809 179.929 136.877 181.438C135.945 182.947 134.612 184.168 133.026 184.964C131.733 185.616 130.3 185.944 128.852 185.919H128.809C127.561 185.92 126.325 185.675 125.172 185.198C124.019 184.721 122.971 184.021 122.088 183.139C121.205 182.257 120.505 181.209 120.027 180.057C119.549 178.904 119.303 177.668 119.303 176.42C119.303 176.047 119.368 175.312 119.368 175.312C119.369 175.272 119.38 175.233 119.398 175.197C119.417 175.162 119.443 175.13 119.474 175.106C119.53 175.063 119.598 175.04 119.668 175.041C119.675 175.041 120.151 175.094 120.151 175.094C120.228 175.104 120.298 175.143 120.347 175.203C120.396 175.263 120.42 175.34 120.414 175.417C120.414 175.421 120.354 176.081 120.354 176.418C120.353 178.541 121.152 180.586 122.59 182.148C122.829 182.414 123.142 182.602 123.49 182.687C123.837 182.772 124.202 182.749 124.537 182.623C124.871 182.496 125.159 182.27 125.363 181.976C125.567 181.683 125.677 181.334 125.678 180.976V164.552C125.681 162.772 126.179 161.028 127.116 159.516C128.054 158.004 129.395 156.782 130.988 155.989C131.623 155.659 132.3 155.416 133.001 155.269C133.701 155.116 134.416 155.041 135.133 155.045C136.14 155.041 137.142 155.196 138.101 155.503C139.607 155.989 140.968 156.845 142.059 157.992C143.76 159.789 144.701 162.173 144.686 164.648C144.683 164.985 144.623 165.656 144.623 165.656Z" fill="#08A081"/>
</svg>
