<svg width="20" height="20" viewBox="0 0 20 20" fill="none" xmlns="http://www.w3.org/2000/svg">
<path d="M5.00002 4.00006C4.80224 4.00006 4.6089 4.05871 4.44445 4.16859C4.28 4.27847 4.15182 4.43465 4.07614 4.61738C4.00045 4.80011 3.98065 5.00117 4.01923 5.19515C4.05782 5.38913 4.15306 5.56732 4.29291 5.70717C4.43276 5.84702 4.61095 5.94226 4.80493 5.98085C4.99891 6.01943 5.19997 5.99963 5.3827 5.92394C5.56543 5.84825 5.7216 5.72008 5.83149 5.55563C5.94137 5.39118 6.00002 5.19784 6.00002 5.00006C6.00002 4.73485 5.89466 4.48049 5.70712 4.29296C5.51959 4.10542 5.26523 4.00006 5.00002 4.00006ZM19.71 9.78006L10.23 0.320062C10.1368 0.219525 10.0239 0.139238 9.89828 0.0841882C9.7727 0.0291387 9.63713 0.000503586 9.50002 6.24907e-05H3.50002C3.36841 -0.000698402 3.23795 0.0245267 3.11611 0.0742913C2.99427 0.124056 2.88346 0.197381 2.79002 0.290062L0.290017 2.78006C0.197335 2.8735 0.12401 2.98432 0.0742455 3.10616C0.0244809 3.22799 -0.000744179 3.35846 1.67143e-05 3.49006V9.49006C0.0037002 9.75483 0.107283 10.0084 0.290017 10.2001L9.78002 19.7001C9.97165 19.8828 10.2253 19.9864 10.49 19.9901C10.6216 19.9908 10.7521 19.9656 10.8739 19.9158C10.9958 19.8661 11.1066 19.7927 11.2 19.7001L19.71 11.1901C19.8027 11.0966 19.876 10.9858 19.9258 10.864C19.9756 10.7421 20.0008 10.6117 20 10.4801C19.9938 10.2188 19.8904 9.96917 19.71 9.78006ZM10.49 17.5901L2.00002 9.09006V3.90006L3.90002 2.00006H9.08002L17.58 10.4901L10.49 17.5901Z" fill="#2F2A32" fill-opacity="0.8"/>
</svg>
