<svg width="16" height="20" viewBox="0 0 16 20" fill="none" xmlns="http://www.w3.org/2000/svg">
<path d="M5 12.0001L11 6.00006M5.5 6.50006H5.51M10.5 11.5001H10.51M15 19.0001V3.00006C15 2.46963 14.7893 1.96092 14.4142 1.58585C14.0391 1.21077 13.5304 1.00006 13 1.00006H3C2.46957 1.00006 1.96086 1.21077 1.58579 1.58585C1.21071 1.96092 1 2.46963 1 3.00006V19.0001L4.5 17.0001L8 19.0001L11.5 17.0001L15 19.0001ZM6 6.50006C6 6.63267 5.94732 6.75985 5.85355 6.85361C5.75979 6.94738 5.63261 7.00006 5.5 7.00006C5.36739 7.00006 5.24021 6.94738 5.14645 6.85361C5.05268 6.75985 5 6.63267 5 6.50006C5 6.36745 5.05268 6.24028 5.14645 6.14651C5.24021 6.05274 5.36739 6.00006 5.5 6.00006C5.63261 6.00006 5.75979 6.05274 5.85355 6.14651C5.94732 6.24028 6 6.36745 6 6.50006ZM11 11.5001C11 11.6327 10.9473 11.7598 10.8536 11.8536C10.7598 11.9474 10.6326 12.0001 10.5 12.0001C10.3674 12.0001 10.2402 11.9474 10.1464 11.8536C10.0527 11.7598 10 11.6327 10 11.5001C10 11.3675 10.0527 11.2403 10.1464 11.1465C10.2402 11.0527 10.3674 11.0001 10.5 11.0001C10.6326 11.0001 10.7598 11.0527 10.8536 11.1465C10.9473 11.2403 11 11.3675 11 11.5001Z" stroke="#2F2A32" stroke-opacity="0.8" stroke-width="2" stroke-linecap="round" stroke-linejoin="round"/>
</svg>
