<svg width="105" height="81" viewBox="0 0 105 81" fill="none" xmlns="http://www.w3.org/2000/svg">
<g clip-path="url(#clip0)">
<g clip-path="url(#clip1)">
<path d="M68.0173 17.3334L13.553 32.8579L14.9956 37.7018L69.4599 22.1774L68.0173 17.3334Z" fill="#2A6156"/>
<path d="M20.0609 55.1081L12.0332 28.1533C11.9737 27.9535 11.9978 27.7387 12.1002 27.5562C12.2025 27.3737 12.3748 27.2385 12.5791 27.1803L65.723 12.0321C65.9273 11.9741 66.1467 11.9977 66.3332 12.0978C66.5197 12.1979 66.6579 12.3663 66.7176 12.5661L73.8295 36.4461L73.6094 36.5088L66.4976 12.6288C66.4548 12.4862 66.3561 12.366 66.2229 12.2945C66.0897 12.223 65.933 12.2061 65.7871 12.2474L12.6432 27.3956C12.4973 27.4371 12.3742 27.5337 12.3011 27.6641C12.228 27.7944 12.2108 27.9479 12.2533 28.0906L20.2809 55.0454L20.0609 55.1081Z" fill="#2A6156"/>
<path d="M62.0662 36.5564C61.905 36.5563 61.7481 36.505 61.6192 36.4104C61.4902 36.3157 61.396 36.1828 61.3507 36.0314L60.0043 31.5104C59.9492 31.3248 59.9717 31.1255 60.0667 30.9561C60.1617 30.7867 60.3215 30.6611 60.5111 30.6069L65.1323 29.2896C65.322 29.2358 65.5257 29.2578 65.6989 29.3507C65.872 29.4437 66.0004 29.6001 66.0558 29.7855L67.4023 34.3065C67.4573 34.4921 67.4348 34.6914 67.3398 34.8608C67.2448 35.0302 67.085 35.1558 66.8955 35.21L62.2742 36.5273C62.2067 36.5466 62.1366 36.5564 62.0662 36.5564Z" fill="#52AF9C"/>
<path d="M19.9359 28.2358C19.9221 28.1893 19.9056 28.1437 19.8866 28.099C19.7574 27.7922 19.5169 27.5429 19.2112 27.3991C18.9055 27.2552 18.5563 27.227 18.2307 27.3197C17.905 27.4125 17.6259 27.6197 17.4469 27.9016C17.2679 28.1835 17.2017 28.5201 17.2611 28.8468C17.2694 28.8945 17.2805 28.9417 17.2943 28.9881C17.378 29.2676 17.552 29.513 17.7902 29.6876C18.0284 29.8622 18.318 29.9567 18.6157 29.9568C18.7456 29.9571 18.8749 29.9389 18.9996 29.903C19.3495 29.803 19.6445 29.5713 19.8201 29.2587C19.9956 28.9462 20.0372 28.5783 19.9359 28.2358ZM18.9354 29.6877C18.6436 29.7706 18.3302 29.7368 18.0638 29.5939C17.7974 29.451 17.5998 29.2105 17.5143 28.9253C17.5009 28.8788 17.4902 28.8317 17.4822 28.784C17.4392 28.5148 17.4979 28.2396 17.6474 28.0097C17.7968 27.7797 18.0267 27.6109 18.2941 27.5348C18.5615 27.4587 18.8481 27.4805 19.1002 27.5961C19.3524 27.7117 19.5529 27.9132 19.6643 28.1629C19.685 28.2067 19.7023 28.2521 19.7159 28.2986C19.8004 28.584 19.7658 28.8906 19.6194 29.1511C19.4731 29.4116 19.2271 29.6046 18.9354 29.6877V29.6877Z" fill="#52AF9C"/>
<path d="M16.5629 29.197C16.4895 28.9506 16.4966 28.688 16.583 28.4457C16.6695 28.2034 16.831 27.9935 17.0452 27.8452C16.8445 27.8356 16.6445 27.8731 16.4616 27.9545C16.2788 28.0359 16.1185 28.1589 15.9941 28.3131C15.8697 28.4674 15.7847 28.6485 15.7464 28.8414C15.708 29.0343 15.7173 29.2334 15.7735 29.422C15.8297 29.6107 15.9311 29.7835 16.0694 29.926C16.2077 30.0686 16.3787 30.1767 16.5684 30.2415C16.758 30.3062 16.9608 30.3257 17.1597 30.2983C17.3586 30.2709 17.5479 30.1974 17.7119 30.0839C17.4498 30.0714 17.1983 29.9792 16.9924 29.8202C16.7864 29.6613 16.6363 29.4434 16.5629 29.197Z" fill="#52AF9C"/>
<path d="M52.1889 34.7533C52.1645 34.6675 52.123 34.5872 52.0669 34.5171C52.0108 34.447 51.9411 34.3884 51.8618 34.3447C51.7825 34.3009 51.6951 34.2729 51.6048 34.2622C51.5144 34.2515 51.4228 34.2584 51.3351 34.2824L43.7265 36.3644L42.9071 36.5887H48.0528L48.8722 36.3644L51.7087 35.5886C51.8855 35.54 52.0354 35.4247 52.1254 35.2681C52.2154 35.1115 52.2382 34.9263 52.1889 34.7533Z" fill="#A37474"/>
<path d="M46.8061 33.1985C46.7565 33.0254 46.6387 32.8787 46.4786 32.7906C46.3185 32.7025 46.1291 32.6803 45.9522 32.7287L34.5354 35.8523C34.3759 35.8965 34.2378 35.9951 34.1459 36.1301C34.0541 36.2652 34.0146 36.4279 34.0346 36.5889H36.9902L37.8108 36.3647L46.3259 34.0349C46.5028 33.9861 46.6528 33.8707 46.7428 33.7139C46.8328 33.557 46.8556 33.3717 46.8061 33.1985Z" fill="#A37474"/>
<path d="M76.1978 36.3647H20.844C20.6313 36.365 20.4274 36.4477 20.277 36.5949C20.1266 36.742 20.042 36.9415 20.0417 37.1496V69.2155C20.042 69.4236 20.1266 69.6231 20.277 69.7702C20.4274 69.9174 20.6313 70.0001 20.844 70.0003H76.1978C76.4105 70.0001 76.6144 69.9173 76.7648 69.7702C76.9152 69.6231 76.9998 69.4236 77 69.2155V37.1496C76.9998 36.9415 76.9152 36.742 76.7648 36.5949C76.6144 36.4478 76.4105 36.365 76.1978 36.3647ZM76.7708 69.2155C76.7708 69.3642 76.7104 69.5067 76.6029 69.6118C76.4955 69.717 76.3497 69.776 76.1978 69.7761H20.844C20.692 69.776 20.5463 69.717 20.4389 69.6118C20.3314 69.5067 20.271 69.3642 20.271 69.2155V37.1496C20.271 37.0009 20.3314 36.8584 20.4389 36.7532C20.5463 36.6481 20.692 36.589 20.844 36.589H76.1978C76.3497 36.589 76.4955 36.6481 76.6029 36.7532C76.7104 36.8584 76.7707 37.0009 76.7708 37.1496V69.2155Z" fill="#2A6156"/>
<path d="M26.23 40.7372C25.958 40.7372 25.6921 40.6583 25.4659 40.5105C25.2398 40.3626 25.0635 40.1525 24.9594 39.9067C24.8553 39.6608 24.8281 39.3903 24.8812 39.1293C24.9342 38.8683 25.0652 38.6286 25.2575 38.4405C25.4499 38.2523 25.6949 38.1242 25.9617 38.0722C26.2285 38.0203 26.505 38.047 26.7563 38.1488C27.0076 38.2506 27.2224 38.4231 27.3735 38.6443C27.5246 38.8656 27.6052 39.1257 27.6052 39.3918C27.6048 39.7485 27.4598 40.0905 27.202 40.3427C26.9442 40.5949 26.5946 40.7368 26.23 40.7372ZM26.23 38.2706C26.0033 38.2706 25.7817 38.3364 25.5933 38.4596C25.4048 38.5828 25.2579 38.7579 25.1712 38.9627C25.0844 39.1676 25.0617 39.393 25.106 39.6105C25.1502 39.828 25.2593 40.0278 25.4196 40.1846C25.5799 40.3414 25.7841 40.4482 26.0064 40.4914C26.2287 40.5347 26.4591 40.5125 26.6686 40.4276C26.878 40.3428 27.057 40.1991 27.1829 40.0147C27.3088 39.8303 27.376 39.6136 27.376 39.3918C27.3757 39.0946 27.2548 38.8096 27.04 38.5994C26.8251 38.3892 26.5338 38.271 26.23 38.2706Z" fill="#52AF9C"/>
<path d="M24.0924 39.392C24.0924 39.1353 24.1743 38.8851 24.3265 38.6761C24.4788 38.4672 24.6939 38.3098 24.9419 38.2261C24.752 38.162 24.5492 38.1433 24.3504 38.1714C24.1516 38.1995 23.9626 38.2737 23.799 38.3877C23.6355 38.5018 23.5021 38.6524 23.4101 38.8271C23.3181 39.0018 23.2701 39.1955 23.2701 39.392C23.2701 39.5885 23.3181 39.7822 23.4101 39.9569C23.5021 40.1315 23.6355 40.2822 23.799 40.3963C23.9626 40.5103 24.1516 40.5845 24.3504 40.6126C24.5492 40.6407 24.752 40.622 24.9419 40.5579C24.6939 40.4741 24.4788 40.3168 24.3265 40.1079C24.1743 39.8989 24.0924 39.6486 24.0924 39.392Z" fill="#52AF9C"/>
<path d="M31.8048 55.288C31.5313 55.2877 31.2691 55.1813 31.0758 54.9921C30.8824 54.803 30.7736 54.5465 30.7733 54.2789V51.2517C30.7733 50.9841 30.882 50.7275 31.0754 50.5382C31.2688 50.349 31.5312 50.2427 31.8048 50.2427C32.0783 50.2427 32.3407 50.349 32.5341 50.5382C32.7275 50.7275 32.8362 50.9841 32.8362 51.2517V54.2789C32.8359 54.5465 32.7271 54.803 32.5337 54.9921C32.3404 55.1813 32.0782 55.2877 31.8048 55.288Z" fill="#52AF9C"/>
<path d="M34.5552 55.288C34.2818 55.2877 34.0196 55.1813 33.8262 54.9921C33.6329 54.803 33.5241 54.5465 33.5238 54.2789V51.2517C33.5238 50.9841 33.6325 50.7275 33.8259 50.5382C34.0193 50.349 34.2817 50.2427 34.5552 50.2427C34.8288 50.2427 35.0911 50.349 35.2846 50.5382C35.478 50.7275 35.5867 50.9841 35.5867 51.2517V54.2789C35.5864 54.5465 35.4776 54.803 35.2842 54.9921C35.0909 55.1813 34.8287 55.2877 34.5552 55.288Z" fill="#52AF9C"/>
<path d="M37.3057 55.288C37.0323 55.2877 36.7701 55.1813 36.5767 54.9921C36.3834 54.803 36.2746 54.5465 36.2743 54.2789V51.2517C36.2743 50.9841 36.383 50.7275 36.5764 50.5382C36.7698 50.349 37.0322 50.2427 37.3057 50.2427C37.5793 50.2427 37.8416 50.349 38.0351 50.5382C38.2285 50.7275 38.3372 50.9841 38.3372 51.2517V54.2789C38.3369 54.5465 38.2281 54.803 38.0347 54.9921C37.8414 55.1813 37.5792 55.2877 37.3057 55.288Z" fill="#52AF9C"/>
<path d="M41.5461 55.288C41.2726 55.2877 41.0105 55.1813 40.8171 54.9921C40.6237 54.803 40.515 54.5465 40.5146 54.2789V51.2517C40.5146 50.9841 40.6233 50.7275 40.8167 50.5382C41.0102 50.349 41.2725 50.2427 41.5461 50.2427C41.8196 50.2427 42.082 50.349 42.2754 50.5382C42.4689 50.7275 42.5775 50.9841 42.5775 51.2517V54.2789C42.5772 54.5465 42.4684 54.803 42.2751 54.9921C42.0817 55.1813 41.8195 55.2877 41.5461 55.288Z" fill="#52AF9C"/>
<path d="M44.2966 55.288C44.0231 55.2877 43.761 55.1813 43.5676 54.9921C43.3742 54.803 43.2654 54.5465 43.2651 54.2789V51.2517C43.2651 50.9841 43.3738 50.7275 43.5672 50.5382C43.7607 50.349 44.023 50.2427 44.2966 50.2427C44.5701 50.2427 44.8325 50.349 45.0259 50.5382C45.2193 50.7275 45.328 50.9841 45.328 51.2517V54.2789C45.3277 54.5465 45.2189 54.803 45.0256 54.9921C44.8322 55.1813 44.57 55.2877 44.2966 55.288Z" fill="#52AF9C"/>
<path d="M47.0471 55.288C46.7736 55.2877 46.5114 55.1813 46.3181 54.9921C46.1247 54.803 46.0159 54.5465 46.0156 54.2789V51.2517C46.0156 50.9841 46.1243 50.7275 46.3177 50.5382C46.5112 50.349 46.7735 50.2427 47.0471 50.2427C47.3206 50.2427 47.583 50.349 47.7764 50.5382C47.9698 50.7275 48.0785 50.9841 48.0785 51.2517V54.2789C48.0782 54.5465 47.9694 54.803 47.7761 54.9921C47.5827 55.1813 47.3205 55.2877 47.0471 55.288Z" fill="#52AF9C"/>
<path d="M51.2874 55.288C51.014 55.2877 50.7518 55.1813 50.5584 54.9921C50.3651 54.803 50.2563 54.5465 50.256 54.2789V51.2517C50.256 50.9841 50.3647 50.7275 50.5581 50.5382C50.7515 50.349 51.0139 50.2427 51.2874 50.2427C51.561 50.2427 51.8233 50.349 52.0167 50.5382C52.2102 50.7275 52.3188 50.9841 52.3188 51.2517V54.2789C52.3185 54.5465 52.2098 54.803 52.0164 54.9921C51.823 55.1813 51.5609 55.2877 51.2874 55.288Z" fill="#52AF9C"/>
<path d="M54.0379 55.288C53.7644 55.2877 53.5023 55.1813 53.3089 54.9921C53.1156 54.803 53.0068 54.5465 53.0065 54.2789V51.2517C53.0065 50.9841 53.1151 50.7275 53.3086 50.5382C53.502 50.349 53.7644 50.2427 54.0379 50.2427C54.3115 50.2427 54.5738 50.349 54.7672 50.5382C54.9607 50.7275 55.0693 50.9841 55.0693 51.2517V54.2789C55.069 54.5465 54.9603 54.803 54.7669 54.9921C54.5735 55.1813 54.3114 55.2877 54.0379 55.288Z" fill="#52AF9C"/>
<path d="M56.7884 55.288C56.5149 55.2877 56.2528 55.1813 56.0594 54.9921C55.866 54.803 55.7573 54.5465 55.757 54.2789V51.2517C55.757 50.9841 55.8656 50.7275 56.0591 50.5382C56.2525 50.349 56.5148 50.2427 56.7884 50.2427C57.0619 50.2427 57.3243 50.349 57.5177 50.5382C57.7112 50.7275 57.8198 50.9841 57.8198 51.2517V54.2789C57.8195 54.5465 57.7108 54.803 57.5174 54.9921C57.324 55.1813 57.0619 55.2877 56.7884 55.288Z" fill="#52AF9C"/>
<path d="M61.0288 55.288C60.7553 55.2877 60.4931 55.1813 60.2998 54.9921C60.1064 54.803 59.9976 54.5465 59.9973 54.2789V51.2517C59.9973 50.9841 60.106 50.7275 60.2994 50.5382C60.4928 50.349 60.7552 50.2427 61.0288 50.2427C61.3023 50.2427 61.5647 50.349 61.7581 50.5382C61.9515 50.7275 62.0602 50.9841 62.0602 51.2517V54.2789C62.0599 54.5465 61.9511 54.803 61.7577 54.9921C61.5644 55.1813 61.3022 55.2877 61.0288 55.288Z" fill="#52AF9C"/>
<path d="M63.7792 55.288C63.5058 55.2877 63.2436 55.1813 63.0503 54.9921C62.8569 54.803 62.7481 54.5465 62.7478 54.2789V51.2517C62.7478 50.9841 62.8565 50.7275 63.0499 50.5382C63.2433 50.349 63.5057 50.2427 63.7792 50.2427C64.0528 50.2427 64.3151 50.349 64.5086 50.5382C64.702 50.7275 64.8107 50.9841 64.8107 51.2517V54.2789C64.8104 54.5465 64.7016 54.803 64.5082 54.9921C64.3149 55.1813 64.0527 55.2877 63.7792 55.288Z" fill="#52AF9C"/>
<path d="M66.5297 55.288C66.2563 55.2877 65.9941 55.1813 65.8007 54.9921C65.6074 54.803 65.4986 54.5465 65.4983 54.2789V51.2517C65.4983 50.9841 65.607 50.7275 65.8004 50.5382C65.9938 50.349 66.2562 50.2427 66.5297 50.2427C66.8033 50.2427 67.0656 50.349 67.2591 50.5382C67.4525 50.7275 67.5612 50.9841 67.5612 51.2517V54.2789C67.5608 54.5465 67.4521 54.803 67.2587 54.9921C67.0654 55.1813 66.8032 55.2877 66.5297 55.288Z" fill="#52AF9C"/>
<path d="M38.7977 66.5186H23.9633C23.7795 66.5186 23.6032 66.4472 23.4733 66.3201C23.3433 66.1929 23.2703 66.0204 23.2703 65.8406C23.2703 65.6608 23.3433 65.4883 23.4733 65.3612C23.6032 65.234 23.7795 65.1626 23.9633 65.1626H38.7977C38.9815 65.1626 39.1578 65.234 39.2878 65.3612C39.4177 65.4883 39.4907 65.6608 39.4907 65.8406C39.4907 66.0204 39.4177 66.1929 39.2878 66.3201C39.1578 66.4472 38.9815 66.5186 38.7977 66.5186Z" fill="#E6E6E6"/>
<path d="M34.0415 63.6036H28.7193C28.5355 63.6036 28.3592 63.5322 28.2292 63.405C28.0993 63.2779 28.0262 63.1054 28.0262 62.9256C28.0262 62.7458 28.0993 62.5733 28.2292 62.4461C28.3592 62.319 28.5355 62.2476 28.7193 62.2476H34.0415C34.2254 62.2476 34.4016 62.319 34.5316 62.4461C34.6616 62.5733 34.7346 62.7458 34.7346 62.9256C34.7346 63.1054 34.6616 63.2779 34.5316 63.405C34.4016 63.5322 34.2254 63.6036 34.0415 63.6036Z" fill="#E6E6E6"/>
<path d="M76.7295 43.0669H20.2297V43.2911H76.7295V43.0669Z" fill="#2A6156"/>
</g>
<g clip-path="url(#clip2)">
<path d="M77.4382 48.9884C76.4251 48.4894 75.4011 48.3847 74.3685 48.6737C73.3368 48.9624 72.5942 49.5616 72.1432 50.4772C71.635 51.5089 71.5984 52.4969 72.0315 53.4423C72.4668 54.3888 73.1652 55.1021 74.1308 55.5778C75.1125 56.0613 76.1133 56.1902 77.1324 55.9701C78.1524 55.7471 78.9189 55.114 79.4342 54.0679C79.8852 53.1523 79.9178 52.2034 79.5333 51.217C79.1485 50.2313 78.4518 49.4877 77.4366 48.9876" fill="#52AF9C"/>
<path d="M98.9664 31.3881C98.7312 29.5143 97.9563 27.7268 96.6625 26.0709C95.3747 24.4272 93.6116 23.0471 91.4203 21.9677C89.0612 20.8057 86.7186 20.2647 84.4603 20.3615C82.199 20.4589 80.2066 21.0316 78.5388 22.0633C76.8631 23.1004 75.6439 24.3729 74.9171 25.8483C74.5296 26.635 74.4959 27.5312 74.814 28.5086C75.1332 29.4918 75.7719 30.2241 76.7115 30.6869C78.3148 31.4766 79.8705 31.0741 81.3354 29.5029C82.5937 28.2264 83.7917 27.3704 84.8939 26.9549C85.9314 26.5631 87.2155 26.7376 88.7085 27.473C89.9964 28.1074 90.8348 28.9692 91.2747 30.1105C91.7073 31.2356 91.6632 32.3007 91.1385 33.366C90.8735 33.9039 90.5098 34.3251 90.0328 34.658C89.5287 35.0054 88.9778 35.2814 88.3943 35.4811C87.7779 35.6911 86.791 35.9761 85.458 36.3335C83.9052 36.7501 82.62 37.1515 81.6424 37.5291C80.6227 37.9197 79.667 38.4987 78.7976 39.2465C77.9255 40.0011 77.1609 41.0375 76.5246 42.3292C75.9818 43.4312 75.8688 44.4359 76.1898 45.3161C76.5073 46.1873 77.1113 46.8488 77.9875 47.2804C79.6626 48.1056 81.1661 47.7084 82.3231 46.1497C82.8326 45.5158 83.198 45.0776 83.4172 44.8341C83.6164 44.6125 83.8515 44.4 84.1161 44.2027C84.3736 44.0105 84.724 43.8218 85.1603 43.6415C85.6172 43.4489 86.205 43.2487 86.9045 43.0459C89.5046 42.3212 91.3532 41.7809 92.4001 41.4374C93.4795 41.0842 94.5371 40.5402 95.5424 39.8228C96.5744 39.0902 97.4278 38.0484 98.0771 36.7302C98.8996 35.063 99.1977 33.2633 98.9648 31.3846" fill="#52AF9C"/>
</g>
</g>
<defs>
<clipPath id="clip0">
<rect width="104.065" height="80" fill="white" transform="translate(0.467529 0.570312)"/>
</clipPath>
<clipPath id="clip1">
<rect width="65" height="58" fill="white" transform="translate(12 12)"/>
</clipPath>
<clipPath id="clip2">
<rect width="38" height="38" fill="white" transform="translate(74.3513 13.5601) rotate(26.2237)"/>
</clipPath>
</defs>
</svg>
