<svg width="105" height="81" viewBox="0 0 105 81" fill="none" xmlns="http://www.w3.org/2000/svg">
<g clip-path="url(#clip0)">
<path d="M58.4108 69.3511C57.7746 68.4504 56.9135 67.7913 55.8308 67.5447C54.8867 67.3296 53.916 67.3662 52.9563 67.3737L40.8218 67.4683C39.7826 67.4764 38.7862 68.3868 38.8344 69.4778C38.8824 70.5596 39.7079 71.4959 40.8218 71.4873C44.3764 71.4595 47.9309 71.4318 51.4855 71.4041C52.3235 71.3976 53.162 71.3823 54 71.3851C54.1882 71.3857 54.3756 71.3957 54.5636 71.3979C54.6092 71.3984 54.6421 71.398 54.6653 71.397C54.6711 71.3988 54.676 71.4004 54.6836 71.4025C54.7817 71.4298 54.8823 71.4485 54.981 71.4744C54.9464 71.4754 55.0449 71.5376 55.0944 71.5587C55.1012 71.5722 55.1157 71.5963 55.1399 71.6334C55.1737 71.6975 55.2737 71.892 55.2778 71.8858C55.4281 72.27 55.5521 72.6641 55.6488 73.0655C55.8798 73.9506 55.9305 74.1356 55.9638 74.9659C56.0058 76.0149 56.8478 77.0254 57.9512 76.9754C58.9919 76.9283 59.9836 76.0909 59.9385 74.9659C59.8626 73.0702 59.5335 70.9408 58.4108 69.3511Z" fill="#E6E6E6"/>
<path d="M41.5351 73.8848C41.3072 72.4883 41.0837 71.0908 40.8513 69.6951C40.6156 68.2792 40.1341 66.9826 39.0443 66.0533C38.7531 65.805 38.4512 65.5732 38.148 65.3421C38.0414 65.2609 37.935 65.1795 37.8296 65.0965C37.8233 65.0915 37.8193 65.0884 37.8138 65.0841C37.8023 65.074 37.7884 65.0621 37.7697 65.0461C37.3155 64.6574 36.8766 64.2514 36.4586 63.8199C36.0873 63.4367 35.7323 63.0371 35.3935 62.6212C35.3088 62.5173 35.2252 62.4125 35.1428 62.3067C35.1286 62.2885 35.0521 62.1887 35.0018 62.1235C34.955 62.0583 34.8694 61.9405 34.855 61.92C34.7587 61.7822 34.664 61.6431 34.5711 61.5027C33.9381 60.5438 33.39 59.5303 32.9331 58.4741C32.8878 58.3693 32.8436 58.2639 32.8004 58.1579C32.7888 58.1256 32.7738 58.084 32.7539 58.0287C32.6619 57.7727 32.57 57.517 32.4858 57.258C32.307 56.7078 32.1532 56.1495 32.0245 55.5831C31.9609 55.3034 31.9036 55.0223 31.8527 54.7398C31.8264 54.5945 31.8019 54.4489 31.779 54.303C31.7752 54.2788 31.7529 54.1214 31.7398 54.0324C31.7301 53.943 31.712 53.7848 31.7096 53.7604C31.695 53.6133 31.6821 53.4661 31.6708 53.3187C31.6454 52.9872 31.6282 52.6551 31.6193 52.3224C31.604 51.7311 31.6144 51.1399 31.6507 50.5488C31.6713 50.2167 31.7006 49.8854 31.7368 49.5547C31.739 49.5344 31.7407 49.5182 31.7422 49.5037C31.7444 49.4889 31.747 49.4721 31.75 49.4513C31.7768 49.2685 31.8049 49.086 31.8364 48.9041C31.9556 48.2134 32.1106 47.5295 32.3008 46.8553C32.3909 46.5364 32.4887 46.2201 32.5943 45.9064C32.6414 45.7672 32.6899 45.6284 32.74 45.4902C32.7367 45.4992 32.8868 45.1115 32.8888 45.0985C33.4844 43.6756 34.4586 42.3785 34.4599 40.7622C34.4608 39.6679 33.5452 38.6196 32.4725 38.6702C31.9377 38.6906 31.4316 38.9201 31.0609 39.3103C30.6902 39.7006 30.4838 40.2211 30.4852 40.7622C30.4852 40.7868 30.485 40.8078 30.485 40.8281C30.475 40.8622 30.4666 40.8906 30.4591 40.9158C30.3429 41.171 30.2006 41.4135 30.0732 41.6623C29.7241 42.3435 29.4261 43.0469 29.143 43.7608C28.6797 44.9232 28.325 46.1269 28.0836 47.3562C27.559 50.0497 27.5183 52.8166 27.9634 55.5247C28.734 60.2737 31.2751 64.8196 34.8078 67.8753C35.1144 68.1404 35.4284 68.3967 35.7454 68.6477C35.8766 68.7516 36.0089 68.8536 36.1418 68.9549C36.2047 69.0028 36.465 69.2104 36.3505 69.1098C36.5967 69.3223 36.7004 69.4292 36.7636 69.5857C36.7728 69.6218 36.7853 69.6708 36.8022 69.7378C36.8468 69.9143 36.8891 70.0904 36.9243 70.2694C37.2318 71.8332 37.4455 73.4232 37.7024 74.9971C37.8789 76.0785 39.1956 76.7823 40.1471 76.4582C41.2546 76.081 41.7243 75.0435 41.5351 73.8848Z" fill="#E6E6E6"/>
<path d="M58.6117 77.9412C57.7771 77.9434 56.9757 77.6107 56.3833 77.0162C55.7909 76.4217 55.4559 75.6139 55.4518 74.77V72.4778C53.0783 72.7464 44.9506 72.6842 42.6209 72.3057V74.6783C42.6146 75.5216 42.2789 76.3281 41.687 76.9221C41.0951 77.5162 40.2949 77.8495 39.4609 77.8495C38.6269 77.8495 37.8268 77.5162 37.2348 76.9221C36.6429 76.3281 36.3072 75.5216 36.301 74.6783V70.0199C33.1455 68.2475 30.5149 65.6557 28.6808 62.5121C26.8467 59.3685 25.8754 55.787 25.8672 52.1372C25.8672 45.879 28.6723 40.041 33.5632 36.1201C36.7432 33.5621 40.6069 32.0238 44.658 31.7026C45.2079 31.659 45.7611 31.637 46.3024 31.637C48.2094 31.637 56.813 31.9348 58.9717 32.5628L63.8939 27.6243C63.9663 27.5507 64.0587 27.5006 64.1593 27.4803C64.26 27.46 64.3643 27.4705 64.4591 27.5104C64.5545 27.5488 64.6363 27.6155 64.6935 27.7017C64.7508 27.7879 64.781 27.8897 64.7801 27.9935V28.7787L65.7385 27.8189C65.8107 27.7453 65.9031 27.6951 66.0037 27.6747C66.1043 27.6544 66.2086 27.6649 66.3032 27.7049C66.3988 27.7433 66.4806 27.8099 66.538 27.8962C66.5953 27.9825 66.6255 28.0842 66.6246 28.1882V36.9626C69.0945 39.214 70.977 42.0466 72.1053 45.2096C73.2335 48.3725 73.5727 51.768 73.0927 55.0952C72.6128 58.4223 71.3285 61.5784 69.3537 64.2837C67.379 66.989 64.7747 69.16 61.7717 70.6042V74.77C61.7676 75.6139 61.4326 76.4217 60.8402 77.0162C60.2478 77.6107 59.4464 77.9434 58.6117 77.9412ZM55.7002 72.1929V74.77C55.7065 75.5466 56.016 76.2892 56.5614 76.8362C57.1067 77.3831 57.8437 77.6899 58.6117 77.6899C59.3798 77.6899 60.1168 77.3831 60.6621 76.8362C61.2075 76.2892 61.517 75.5466 61.5232 74.77V70.4456L61.5942 70.4115C64.9637 68.7948 67.8242 66.2655 69.858 63.1044C72.4497 59.0706 73.5275 54.232 72.8964 49.4643C72.2653 44.6966 69.967 40.3148 66.4175 37.1121L66.3762 37.0746V28.1882C66.3771 28.1342 66.3616 28.0812 66.3318 28.0364C66.302 27.9916 66.2593 27.9571 66.2095 27.9375C66.1601 27.9161 66.1053 27.9104 66.0525 27.921C65.9998 27.9316 65.9514 27.9581 65.9137 27.997L64.5316 29.381V27.9935C64.5325 27.9395 64.517 27.8866 64.4872 27.8417C64.4574 27.7969 64.4148 27.7624 64.365 27.7429C64.3154 27.7215 64.2606 27.7158 64.2077 27.7265C64.1548 27.7372 64.1064 27.7637 64.0687 27.8027L59.0411 32.8469L58.9697 32.8243C56.9629 32.1892 48.2238 31.8881 46.3024 31.8881C45.7676 31.8881 45.2209 31.91 44.6775 31.9531C40.6756 32.2703 36.8589 33.79 33.7176 36.3169C28.8864 40.1899 26.1156 45.9561 26.1156 52.1372C26.1239 55.7547 27.09 59.304 28.9135 62.4164C30.737 65.5288 33.3515 68.0908 36.4853 69.8361L36.5494 69.872V74.6783C36.5558 75.4548 36.8654 76.1974 37.4107 76.7442C37.956 77.291 38.6929 77.5978 39.4609 77.5978C40.2289 77.5978 40.9658 77.291 41.5111 76.7442C42.0565 76.1974 42.366 75.4548 42.3724 74.6783V72.005L42.5196 72.033C44.6133 72.4313 53.4293 72.4941 55.5599 72.2115L55.7002 72.1929Z" fill="#3F3D56"/>
<path d="M41.7725 17.9604L28.0174 22.1401C27.5799 22.2736 27.2127 22.5772 26.9964 22.9842C26.7802 23.3913 26.7326 23.8685 26.8641 24.311C26.9956 24.7535 27.2955 25.1252 27.6978 25.3443C28.1001 25.5634 28.5721 25.612 29.0099 25.4796L41.0471 21.8211L41.2993 21.7445C41.3503 20.4306 41.7028 19.1467 42.329 17.9943C42.2504 17.9586 42.1664 17.9365 42.0806 17.929C41.9768 17.9189 41.8722 17.9295 41.7725 17.9604Z" fill="#86D0C1"/>
<path d="M28.7719 26.3694C28.5893 26.3689 28.4115 26.3104 28.2636 26.2022C28.1156 26.094 28.005 25.9416 27.9474 25.7664L27.0873 23.142C27.0514 23.0324 27.0372 22.9167 27.0454 22.8016C27.0537 22.6864 27.0844 22.5741 27.1356 22.4709C27.1869 22.3677 27.2577 22.2758 27.3441 22.2003C27.4305 22.1248 27.5308 22.0672 27.6392 22.0309L38.8345 18.2795C38.9429 18.2432 39.0573 18.2288 39.1711 18.2372C39.285 18.2456 39.3961 18.2765 39.4982 18.3283C39.6002 18.3801 39.6912 18.4518 39.7658 18.5391C39.8405 18.6264 39.8974 18.7278 39.9333 18.8374L40.7935 21.4617C40.865 21.6776 40.8507 21.9131 40.7535 22.1185C40.6563 22.3238 40.4838 22.4828 40.2726 22.5618C40.2623 22.5657 40.2519 22.5694 40.2413 22.5729L29.0463 26.3242C28.9578 26.354 28.8652 26.3693 28.7719 26.3694Z" fill="#2F2E41"/>
<path d="M49.7381 13.2998C47.4786 13.3007 45.308 14.1905 43.6859 15.781C42.0638 17.3714 41.1174 19.5376 41.047 21.8212C41.0446 21.9103 41.0433 22.0008 41.0433 22.0912C41.0433 23.83 41.5533 25.5297 42.5087 26.9754C43.4641 28.4212 44.822 29.548 46.4108 30.2134C47.9995 30.8788 49.7478 31.0529 51.4344 30.7137C53.121 30.3744 54.6702 29.5371 55.8862 28.3076C57.1022 27.0781 57.9303 25.5117 58.2658 23.8063C58.6013 22.1009 58.4291 20.3333 57.771 18.7269C57.1129 17.1205 55.9985 15.7474 54.5687 14.7814C53.1388 13.8154 51.4578 13.2998 49.7381 13.2998ZM49.7381 30.6314C47.4987 30.629 45.3517 29.7285 43.7682 28.1274C42.1847 26.5263 41.2941 24.3555 41.2918 22.0912C41.2918 21.9744 41.2942 21.8589 41.2992 21.7446C41.3665 20.0717 41.9186 18.4557 42.8869 17.0975C43.8552 15.7393 45.197 14.6989 46.7455 14.1056C48.2939 13.5123 49.9807 13.3924 51.596 13.7606C53.2113 14.1288 54.684 14.9691 55.8308 16.1768C56.9776 17.3845 57.7481 18.9064 58.0463 20.5533C58.3446 22.2002 58.1574 23.8995 57.5082 25.4397C56.859 26.9799 55.7763 28.2932 54.3948 29.2163C53.0134 30.1393 51.394 30.6315 49.7381 30.6314Z" fill="#3F3D56"/>
<path d="M57.0666 22.0905C57.0666 24.0557 56.2944 25.9405 54.9201 27.3301C53.5458 28.7197 51.6817 29.5004 49.7381 29.5004C47.7945 29.5004 45.9305 28.7197 44.5561 27.3301C43.1818 25.9405 42.4097 24.0557 42.4097 22.0905C42.4097 21.8557 42.4208 21.6246 42.4419 21.396C42.6185 19.4994 43.5108 17.7443 44.9335 16.4954C46.3562 15.2464 48.1999 14.5995 50.0819 14.6888C51.964 14.7782 53.7396 15.5971 55.0403 16.9754C56.3409 18.3536 57.0665 20.1855 57.0666 22.0905Z" fill="#E6E6E6"/>
<path d="M51.9205 22.5828C51.7428 22.3467 51.5092 22.1597 51.2411 22.039C50.9104 21.8981 50.5689 21.7847 50.22 21.6999V19.6829C50.7563 19.7647 51.2593 19.9966 51.672 20.3523L52.077 19.4795C51.8441 19.2697 51.5767 19.1027 51.287 18.9859C50.9658 18.8544 50.6287 18.767 50.2846 18.7259V17.7036H49.3468V18.736C48.9847 18.7771 48.6354 18.8957 48.3221 19.0839C48.0391 19.2532 47.8008 19.4894 47.6277 19.7721C47.4625 20.048 47.3769 20.3651 47.3806 20.6877C47.3644 21.0372 47.4646 21.3821 47.665 21.6673C47.8495 21.9142 48.0932 22.1096 48.373 22.2349C48.7089 22.38 49.0563 22.4964 49.4114 22.5828V24.5157C48.7786 24.4674 48.1755 24.2241 47.6836 23.8187L47.2787 24.6928C47.5538 24.9227 47.8666 25.1021 48.2029 25.2228C48.5714 25.3561 48.9564 25.4373 49.3469 25.4639V26.4774H50.2846V25.4451C50.8055 25.3875 51.294 25.161 51.677 24.7995C51.8457 24.636 51.979 24.4387 52.0683 24.2204C52.1577 24.002 52.2013 23.7673 52.1962 23.5311C52.2118 23.1927 52.1147 22.8588 51.9205 22.5828ZM49.4114 21.4864C49.183 21.4164 48.9706 21.3011 48.7866 21.1473C48.7137 21.0818 48.6561 21.0007 48.6179 20.9099C48.5797 20.8191 48.5618 20.7209 48.5656 20.6224C48.5588 20.3987 48.6401 20.1814 48.7916 20.0183C48.9596 19.8471 49.1763 19.7334 49.4114 19.693V21.4864ZM50.8088 24.159C50.6503 24.3233 50.444 24.432 50.22 24.4692V22.8064C50.4341 22.8645 50.6344 22.9657 50.8088 23.104C50.8749 23.1611 50.9275 23.2326 50.9625 23.313C50.9976 23.3935 51.0142 23.4809 51.0113 23.5687C51.0199 23.7843 50.9476 23.9951 50.8088 24.159Z" fill="#86D0C1"/>
<path d="M29.1711 37.0054C28.9791 37.005 28.7925 36.9407 28.6404 36.8222C28.4882 36.7038 28.379 36.5379 28.3296 36.3503L27.8613 34.5581C27.8027 34.3328 27.8348 34.0933 27.9506 33.8919C28.0665 33.6906 28.2566 33.5439 28.4792 33.4841L43.253 29.5368C43.4759 29.478 43.7128 29.5109 43.9119 29.6282C44.1109 29.7456 44.2559 29.9378 44.3151 30.163L44.7118 31.6813L44.6375 31.6872C40.8485 31.9851 37.2232 33.3741 34.1904 35.6899L34.1689 35.7004L29.3917 36.9764C29.3197 36.9956 29.2456 37.0053 29.1711 37.0054Z" fill="#2F2E41"/>
<path d="M26.7244 45.8589C24.9913 45.6 23.3339 44.9664 21.865 44.0011C21.1373 43.5233 20.4636 42.9662 19.856 42.3398C19.2563 41.7213 18.6826 41.0184 18.3856 40.1948C18.0998 39.4328 18.1146 38.5889 18.4268 37.8375C18.7347 37.0908 19.3229 36.498 20.0625 36.1891C20.8064 35.8891 21.7053 35.857 22.4294 36.1855C22.7744 36.3384 23.0729 36.5814 23.2944 36.8896C23.3973 37.0316 23.4736 37.1916 23.5193 37.3616C23.5617 37.5156 23.5655 37.6778 23.5305 37.8337C23.488 37.9893 23.4131 38.1339 23.3109 38.2579C23.2086 38.3819 23.0813 38.4823 22.9375 38.5524C22.621 38.7166 22.2781 38.8223 21.9249 38.8647C21.5697 38.9137 21.0593 38.9582 20.7737 38.6699C20.715 38.6128 20.6687 38.5439 20.638 38.4676C20.6166 38.4091 20.6092 38.3464 20.6166 38.2845C20.6125 38.3118 20.6338 38.2251 20.6326 38.2286C20.6281 38.2414 20.6086 38.2726 20.6364 38.2247C20.645 38.2089 20.6547 38.1936 20.6653 38.1791C20.6559 38.1914 20.6351 38.212 20.6722 38.1767C20.7028 38.1428 20.7421 38.1183 20.7857 38.1058C20.8029 38.1007 20.8204 38.0967 20.8376 38.0919C20.8814 38.0798 20.7939 38.0926 20.8388 38.0911C20.8561 38.0906 20.8736 38.091 20.8908 38.0902C20.9348 38.0882 20.8474 38.0781 20.8896 38.0888C20.9059 38.093 20.9221 38.097 20.9382 38.1022C20.9733 38.1133 20.9134 38.0762 20.9372 38.104C20.965 38.1366 20.908 38.0723 20.9396 38.1038C20.9553 38.1195 20.9702 38.136 20.984 38.1534C21.0389 38.2081 21.1128 38.2388 21.1899 38.2388C21.267 38.2388 21.3409 38.2081 21.3958 38.1534C21.4488 38.0973 21.4783 38.0227 21.4783 37.9452C21.4783 37.8677 21.4488 37.7931 21.3958 37.737C21.1087 37.3772 20.5416 37.4661 20.2511 37.7702C19.8807 38.1581 20.0274 38.7728 20.3877 39.1113C20.7956 39.4944 21.3733 39.5211 21.8979 39.4568C22.3413 39.4139 22.7734 39.2904 23.1735 39.0923C23.5709 38.8949 23.8818 38.5553 24.0459 38.1393C24.12 37.9174 24.1466 37.682 24.124 37.4488C24.1014 37.2157 24.03 36.99 23.9147 36.7869C23.4515 35.9063 22.4923 35.4549 21.5442 35.3767C21.0561 35.338 20.5652 35.3976 20.1 35.552C19.6348 35.7064 19.2046 35.9526 18.8341 36.2763C18.12 36.9263 17.6803 37.8289 17.6058 38.7975C17.5231 39.8017 17.9084 40.777 18.4703 41.5874C19.0584 42.4109 19.7603 43.1448 20.5545 43.7668C22.107 45.0201 23.9282 45.8886 25.8722 46.3026C26.1034 46.3509 26.3359 46.3923 26.5696 46.4267C26.6439 46.4449 26.7224 46.4338 26.7889 46.3956C26.8555 46.3574 26.9051 46.295 26.9277 46.221C26.9477 46.1458 26.9376 46.0656 26.8995 45.9978C26.8614 45.93 26.7985 45.8801 26.7244 45.8589L26.7244 45.8589Z" fill="#3F3D56"/>
<path d="M54.4712 33.0639C51.9321 33.0277 49.401 33.0928 46.8778 33.2594C46.0154 33.3163 45.2692 33.6245 45.2692 34.1425C45.2692 34.5756 46.0095 35.083 46.8778 35.0257C49.3997 34.8592 51.9308 34.794 54.4712 34.8302C56.5423 34.8598 56.5411 33.0934 54.4712 33.0639Z" fill="#CCCCCC"/>
<path d="M50.7183 34.7431C50.4439 34.7431 43.9978 34.7328 43.9978 33.8325C43.9978 32.9322 50.4439 32.9219 50.7183 32.9219C50.9927 32.9219 57.4388 32.9322 57.4388 33.8325C57.4388 34.7328 50.9927 34.7431 50.7183 34.7431ZM44.2499 33.8325C44.4263 34.1054 46.7957 34.492 50.7183 34.492C54.6409 34.492 57.0104 34.1054 57.1868 33.8325C57.0104 33.5596 54.6409 33.1731 50.7183 33.1731C46.7957 33.1731 44.4263 33.5596 44.2499 33.8325V33.8325Z" fill="#3F3D56"/>
<path d="M71.1702 58.4105C72.5971 58.3704 74.3731 58.3203 75.7412 57.3098C76.1487 56.9965 76.4834 56.597 76.722 56.1392C76.9606 55.6813 77.0973 55.1763 77.1225 54.6594C77.1505 53.8613 76.8653 53.1647 76.3195 52.6984C75.6049 52.0878 74.5614 51.9446 73.4369 52.2788L74.602 43.6698L73.7467 43.5513L72.377 53.6723L73.0913 53.3409C73.9193 52.9569 75.056 52.7615 75.7623 53.365C75.9357 53.5228 76.0708 53.7189 76.1571 53.938C76.2434 54.1572 76.2786 54.3936 76.2598 54.6287C76.2389 55.0134 76.1363 55.389 75.9589 55.73C75.7815 56.071 75.5336 56.3694 75.232 56.6048C74.1673 57.3912 72.7517 57.4926 71.1461 57.538L71.1702 58.4105Z" fill="#3F3D56"/>
<path d="M68.8054 44.4121H64.1559V45.285H68.8054V44.4121Z" fill="#3F3D56"/>
<path d="M31.2751 41.0207C31.0682 41.0201 30.8682 40.9449 30.7111 40.8087C30.5539 40.6726 30.4499 40.4843 30.4176 40.2776L30.1338 38.4463C30.0983 38.2159 30.1547 37.9808 30.2905 37.7924C30.4263 37.6041 30.6305 37.4779 30.8582 37.4416L45.9537 35.05C46.1815 35.0142 46.414 35.0712 46.6003 35.2085C46.7866 35.3458 46.9114 35.5522 46.9473 35.7825L47.2311 37.6138C47.2665 37.8442 47.2102 38.0793 47.0744 38.2676C46.9386 38.456 46.7344 38.5822 46.5067 38.6185L31.4112 41.01C31.3662 41.0171 31.3207 41.0207 31.2751 41.0207Z" fill="#2F2E41"/>
<path d="M25.0278 19.5593C28.5263 19.5593 31.3625 16.6917 31.3625 13.1542C31.3625 9.61671 28.5263 6.74902 25.0278 6.74902C21.5292 6.74902 18.693 9.61671 18.693 13.1542C18.693 16.6917 21.5292 19.5593 25.0278 19.5593Z" fill="#86D0C1"/>
<path d="M28.6145 14.8114C28.8169 14.7398 29.0019 14.6252 29.1569 14.4753C29.2594 14.3684 29.3376 14.2402 29.386 14.0995C29.4344 13.9589 29.4518 13.8092 29.4369 13.6611C29.4283 13.5555 29.3957 13.4533 29.3415 13.3626C29.2874 13.2719 29.2133 13.1951 29.1249 13.1381C28.8956 12.9956 28.5927 13.0009 28.2869 13.1443L28.2516 10.644L28.0032 10.6476L28.0447 13.5869L28.2337 13.4615C28.453 13.3164 28.7681 13.2111 28.9947 13.3521C29.0508 13.3894 29.0976 13.4393 29.1315 13.4979C29.1654 13.5565 29.1854 13.6222 29.1901 13.6899C29.2006 13.8002 29.1874 13.9116 29.1514 14.0163C29.1155 14.1211 29.0577 14.2168 28.9819 14.2969C28.7126 14.5671 28.314 14.6576 27.8591 14.7404L27.9032 14.9876C28.145 14.9505 28.383 14.8915 28.6145 14.8114Z" fill="#2F2E41"/>
<path d="M30.8095 10.4688L29.4866 10.6714L29.5238 10.9197L30.8467 10.7171L30.8095 10.4688Z" fill="#2F2E41"/>
<path d="M26.634 11.108L25.3111 11.3105L25.3483 11.5589L26.6712 11.3563L26.634 11.108Z" fill="#2F2E41"/>
<path d="M29.2141 40.9094C28.9863 40.9089 28.764 40.8383 28.5769 40.7069C28.3897 40.5756 28.2466 40.3897 28.1665 40.1741L23.7988 28.3473C23.265 26.8968 23.322 25.2914 23.9573 23.8834C24.5927 22.4753 25.7545 21.3796 27.1878 20.8366L30.7392 19.4958C30.8765 19.4436 31.0227 19.4194 31.1693 19.4245C31.316 19.4297 31.4601 19.4641 31.5936 19.5258C31.7266 19.5859 31.8465 19.6722 31.9463 19.7798C32.046 19.8873 32.1235 20.0138 32.1743 20.1519L40.265 35.5976C40.3175 35.7369 40.3423 35.8853 40.3378 36.0343C40.3334 36.1833 40.2999 36.33 40.2392 36.4658C40.1785 36.6017 40.0919 36.724 39.9842 36.8259C39.8766 36.9277 39.7501 37.0071 39.612 37.0593L29.6048 40.8376C29.4799 40.885 29.3475 40.9093 29.2141 40.9094Z" fill="#2F2E41"/>
<path d="M29.6617 19.9021L37.6894 30.7564L32.2574 20.016C32.2126 19.8907 32.1437 19.7755 32.0548 19.6771C31.966 19.5787 31.8588 19.499 31.7394 19.4424C31.62 19.3859 31.4908 19.3537 31.3591 19.3477C31.2275 19.3417 31.0959 19.362 30.972 19.4074L29.6617 19.9021Z" fill="#E6E6E6"/>
<path d="M42.3725 28.1452L28.0391 27.2117C27.8132 27.197 27.5924 27.1374 27.3892 27.0364C27.186 26.9354 27.0045 26.7949 26.8551 26.623C26.7056 26.451 26.5911 26.251 26.5181 26.0343C26.4451 25.8176 26.415 25.5885 26.4295 25.3601C26.4441 25.1317 26.503 24.9084 26.6029 24.7029C26.7028 24.4975 26.8417 24.314 27.0118 24.1629C27.1818 24.0118 27.3796 23.896 27.5939 23.8221C27.8082 23.7483 28.0348 23.7179 28.2608 23.7326L42.5941 24.6661C42.6999 24.673 42.8034 24.7008 42.8985 24.7481C42.9936 24.7954 43.0786 24.8612 43.1486 24.9418C43.2186 25.0223 43.2723 25.1159 43.3065 25.2174C43.3407 25.3189 43.3547 25.4262 43.3479 25.5332L43.2301 27.383C43.2163 27.5991 43.1182 27.8008 42.9574 27.9437C42.7966 28.0866 42.5862 28.1591 42.3725 28.1452Z" fill="#86D0C1"/>
<path d="M38.5424 28.744C38.5235 28.744 38.5045 28.7434 38.4855 28.7421H38.4855L26.7157 27.9756C26.6018 27.9682 26.4904 27.9381 26.3879 27.8872C26.2854 27.8363 26.1939 27.7654 26.1185 27.6787C26.0431 27.592 25.9854 27.4911 25.9486 27.3818C25.9117 27.2726 25.8966 27.157 25.9039 27.0418L26.1052 23.8822C26.1125 23.7669 26.1422 23.6543 26.1926 23.5507C26.243 23.4471 26.3131 23.3546 26.3988 23.2783C26.4846 23.2021 26.5844 23.1437 26.6925 23.1065C26.8006 23.0693 26.9148 23.054 27.0288 23.0614L38.7985 23.8279C39.0285 23.8431 39.2432 23.95 39.3954 24.125C39.5476 24.3001 39.6249 24.529 39.6103 24.7617L39.4091 27.9214C39.398 28.0907 39.3388 28.2531 39.2386 28.3893C39.1385 28.5254 39.0016 28.6294 38.8444 28.6888C38.7478 28.7254 38.6455 28.744 38.5424 28.744Z" fill="#2F2E41"/>
<path d="M24.9552 8.89532C25.7886 8.17061 26.933 8.81891 27.8887 8.70542C28.803 8.59684 29.525 7.76756 29.7094 6.88656C29.9246 5.85872 29.397 4.82898 28.6193 4.18814C27.7675 3.48626 26.6379 3.28477 25.5674 3.41462C24.3405 3.56345 23.2184 4.14171 22.2116 4.84115C21.2397 5.49537 20.346 6.2611 19.5483 7.12304C18.8339 7.92076 18.2287 8.87161 18.0354 9.94505C17.8598 10.9206 17.9939 12.0016 18.5642 12.828C18.8667 13.2516 19.272 13.5892 19.741 13.8083C20.2301 14.0511 20.7518 14.2247 21.2256 14.4993C21.942 14.9144 22.6383 15.7751 22.4139 16.6709C22.3658 16.8665 22.2709 17.0472 22.1374 17.1971C21.9771 17.377 21.688 17.1392 21.8487 16.9588C22.131 16.6419 22.1199 16.2193 21.9694 15.841C21.7905 15.4147 21.4737 15.0625 21.071 14.842C20.575 14.5553 20.0274 14.3783 19.5191 14.1172C19.0325 13.8786 18.6101 13.5247 18.288 13.0856C17.6795 12.2307 17.4975 11.1181 17.6355 10.0889C17.7849 8.97506 18.3508 7.96295 19.0603 7.1148C19.8324 6.19178 20.7809 5.41046 21.7498 4.70855C22.7894 3.9554 23.9381 3.31866 25.2091 3.08836C26.3108 2.88873 27.5051 3.01164 28.4685 3.61873C29.3679 4.18541 30.0575 5.16021 30.1261 6.24945C30.1507 6.74505 30.0443 7.23834 29.8177 7.67854C29.5912 8.11875 29.2528 8.48997 28.8372 8.754C28.4108 9.01199 27.9151 9.12811 27.42 9.08598C26.8906 9.05172 26.3608 8.88782 25.8281 8.93333C25.587 8.94812 25.3573 9.04197 25.1737 9.20065C24.9916 9.35898 24.7746 9.05236 24.9552 8.89532V8.89532Z" fill="#2F2E41"/>
</g>
<defs>
<clipPath id="clip0">
<rect width="92" height="75" fill="white" transform="translate(6 3)"/>
</clipPath>
</defs>
</svg>
