<svg width="28" height="38" viewBox="0 0 28 38" fill="none" xmlns="http://www.w3.org/2000/svg">
<path d="M24.5 13H22.75V9.5C22.75 4.67 18.83 0.75 14 0.75C9.17 0.75 5.25 4.67 5.25 9.5H8.75C8.75 6.595 11.095 4.25 14 4.25C16.905 4.25 19.25 6.595 19.25 9.5V13H3.5C1.575 13 0 14.575 0 16.5V34C0 35.925 1.575 37.5 3.5 37.5H24.5C26.425 37.5 28 35.925 28 34V16.5C28 14.575 26.425 13 24.5 13ZM24.5 34H3.5V16.5H24.5V34ZM14 28.75C15.925 28.75 17.5 27.175 17.5 25.25C17.5 23.325 15.925 21.75 14 21.75C12.075 21.75 10.5 23.325 10.5 25.25C10.5 27.175 12.075 28.75 14 28.75Z" fill="#417465"/>
</svg>
