<svg width="120" height="30" viewBox="0 0 120 30" fill="none" xmlns="http://www.w3.org/2000/svg">
<g clip-path="url(#clip0_15478_33885)">
<path d="M37.3965 12.9337C37.3965 12.2771 37.9303 11.89 38.9029 11.89C40.0671 11.89 40.7703 12.4966 40.8936 13.4203H44.7331C44.4664 10.7497 42.5205 8.80908 39.0258 8.80908C35.531 8.80908 33.5123 10.7026 33.5123 13.007C33.5123 17.9844 40.8922 16.407 40.8922 18.5938C40.8922 19.2004 40.3351 19.6846 39.2653 19.6846C38.1226 19.6846 37.2746 19.0543 37.178 18.1049H33.0757C33.2695 20.7283 35.6991 22.7423 39.3162 22.7423C42.7162 22.7423 44.8035 20.9687 44.8035 18.6148C44.7302 13.5679 37.3965 15.0944 37.3965 12.9337Z" fill="white"/>
<path d="M59.3958 15.5571C59.3958 11.4296 56.6048 8.80908 52.6448 8.80908C48.6848 8.80908 45.7976 11.4796 45.7976 15.7771C45.7976 20.0746 48.6615 22.7451 52.6453 22.7451C56.0218 22.7451 58.4257 20.705 59.0819 18.0606H54.6616C54.4794 18.4745 54.1744 18.8222 53.7878 19.0567C53.4012 19.2911 52.9523 19.4008 52.5009 19.3709C51.1677 19.3709 50.0763 18.5472 49.9299 16.7736H59.3275C59.3747 16.37 59.3993 15.964 59.4007 15.5576L59.3958 15.5571ZM49.951 14.4663C50.01 13.8135 50.3175 13.2081 50.8092 12.7747C51.3009 12.3412 51.9399 12.1126 52.5952 12.1357C53.9528 12.1357 55.1455 12.9856 55.1455 14.4663H49.951Z" fill="white"/>
<path d="M70.1772 9.00599V10.9214C69.4473 9.7311 68.0164 8.81079 66 8.81079C62.6707 8.81079 60.0261 11.4813 60.0261 15.7526C60.0261 20.0239 62.6707 22.7464 65.9779 22.7464C66.8002 22.7846 67.6185 22.6104 68.3543 22.2408C69.0897 21.8711 69.7179 21.3184 70.1782 20.6357V22.5531H74.3288V9.00599H70.1772ZM67.2138 19.1307C65.6601 19.1307 64.2504 17.9147 64.2504 15.754C64.2504 13.5934 65.6601 12.4269 67.2138 12.4269C68.7674 12.4269 70.1772 13.6172 70.1772 15.7774C70.1772 17.9376 68.7935 19.1278 67.2138 19.1278V19.1307Z" fill="white"/>
<path d="M84.3537 15.8033L89.9877 9.00569H84.8636L80.7601 14.5168V4.58252H76.6089V22.5513H80.7601V16.8703L84.8876 22.5513H90.0349L84.3537 15.8033Z" fill="white"/>
<path d="M100.112 9.00513V16.3602C100.112 18.2067 99.0896 19.2241 97.4888 19.2241C95.888 19.2241 94.8884 18.2067 94.8884 16.3602V9.00513H90.7638V16.9173C90.7638 20.5358 92.8745 22.6979 96.0054 22.6979C96.8001 22.7208 97.588 22.5515 98.3032 22.2045C99.0179 21.8576 99.6388 21.3431 100.112 20.7049V22.5513H104.263V9.00513H100.112Z" fill="white"/>
<path d="M114.778 8.85863C113.989 8.83398 113.205 8.99705 112.491 9.33441C111.777 9.67181 111.153 10.1739 110.671 10.7993V9.00531H106.521V22.5495H110.671V15.1963C110.671 13.3499 111.694 12.3324 113.271 12.3324C114.848 12.3324 115.868 13.3499 115.868 15.1963V22.5495H119.996V14.634C119.996 10.9931 117.908 8.85628 114.775 8.85628L114.778 8.85863Z" fill="white"/>
<path d="M14.7331 0.484375C11.8188 0.48494 8.97023 1.3496 6.54734 2.96902C4.12445 4.58845 2.23615 6.88991 1.12117 9.58247C0.00619246 12.275 -0.285388 15.2376 0.283294 18.0959C0.851975 20.9541 2.25538 23.5796 4.31608 25.6403C6.37675 27.7009 9.00221 29.1043 11.8604 29.6731C14.7187 30.2417 17.6814 29.9501 20.3739 28.8352C23.0664 27.7202 25.3679 25.8319 26.9873 23.409C28.6068 20.9861 29.4714 18.1375 29.472 15.2232C29.472 13.2877 29.0907 11.3711 28.35 9.58291C27.6093 7.7947 26.5237 6.16991 25.1551 4.80128C23.7864 3.43265 22.1616 2.347 20.3734 1.6063C18.5852 0.865607 16.6687 0.484375 14.7331 0.484375ZM24.0365 11.6632C24.0341 11.6921 24.0259 11.7202 24.0124 11.7458C23.9989 11.7713 23.9804 11.794 23.958 11.8123C23.917 11.8436 23.8667 11.8604 23.8152 11.8599C23.8047 11.8599 23.4595 11.818 23.4595 11.818C23.431 11.8153 23.4034 11.807 23.3782 11.7936C23.353 11.7801 23.3307 11.7617 23.3127 11.7396C23.2946 11.7174 23.2812 11.6919 23.2731 11.6645C23.2651 11.6371 23.2626 11.6083 23.2657 11.5799C23.2657 11.5799 23.3076 11.0933 23.3076 10.8448C23.3081 9.28117 22.721 7.77446 21.6626 6.62348C21.4872 6.42651 21.2561 6.28745 20.9999 6.22473C20.7436 6.16195 20.4745 6.17841 20.2278 6.27198C19.9812 6.36555 19.7688 6.53178 19.6187 6.74869C19.4686 6.96555 19.3879 7.22294 19.3872 7.48672L19.382 19.5916C19.3806 20.8987 19.0162 22.1796 18.3293 23.2916C17.6425 24.4036 16.6602 25.303 15.4921 25.8893C14.5392 26.3702 13.4835 26.6118 12.4163 26.593H12.3849C11.4653 26.5937 10.5546 26.4132 9.70487 26.0618C8.85515 25.7103 8.08293 25.1949 7.43248 24.5449C6.78199 23.8949 6.26598 23.1231 5.91394 22.2736C5.56185 21.4241 5.38065 20.5136 5.38065 19.594C5.38065 19.3193 5.42829 18.7779 5.42829 18.7779C5.42952 18.7484 5.43718 18.7196 5.45079 18.6933C5.46435 18.6671 5.48345 18.6441 5.50684 18.626C5.54756 18.5942 5.598 18.5774 5.64968 18.5784C5.65493 18.5784 6.00535 18.6175 6.00535 18.6175C6.06204 18.6247 6.11381 18.6534 6.14991 18.6977C6.18597 18.7421 6.2036 18.7985 6.19913 18.8555C6.19913 18.8579 6.15483 19.3445 6.15483 19.5931C6.15458 21.1571 6.74284 22.6641 7.8027 23.8144C7.97835 24.0108 8.20946 24.1494 8.46548 24.2119C8.72149 24.2743 8.99047 24.2577 9.23686 24.1643C9.48329 24.0708 9.69554 23.9048 9.84575 23.6882C9.99591 23.4717 10.0769 23.2147 10.0781 22.9511V10.8496C10.0798 9.53841 10.4466 8.25372 11.1376 7.13939C11.8285 6.0251 12.8162 5.12533 13.9899 4.54094C14.4579 4.29745 14.9568 4.11885 15.473 4.01006C15.9891 3.89777 16.516 3.84253 17.0442 3.84532C17.7864 3.8422 18.5244 3.95612 19.231 4.18289C20.341 4.541 21.3435 5.17135 22.1473 6.01646C23.4006 7.34044 24.094 9.09741 24.0827 10.9205C24.0809 11.169 24.0365 11.6632 24.0365 11.6632Z" fill="white"/>
</g>
<defs>
<clipPath id="clip0_15478_33885">
<rect width="120" height="29.472" fill="white" transform="translate(0 0.484375)"/>
</clipPath>
</defs>
</svg>
