<svg width="40" height="41" viewBox="0 0 40 41" fill="none" xmlns="http://www.w3.org/2000/svg">
<rect y="0.5" width="40" height="40" rx="20" fill="white"/>
<path fill-rule="evenodd" clip-rule="evenodd" d="M16 15.5C16 14.4391 16.4214 13.4217 17.1716 12.6716C17.9217 11.9214 18.9391 11.5 20 11.5C21.0609 11.5 22.0783 11.9214 22.8284 12.6716C23.5786 13.4217 24 14.4391 24 15.5C24 16.5609 23.5786 17.5783 22.8284 18.3284C22.0783 19.0786 21.0609 19.5 20 19.5C18.9391 19.5 17.9217 19.0786 17.1716 18.3284C16.4214 17.5783 16 16.5609 16 15.5ZM16 21.5C14.6739 21.5 13.4021 22.0268 12.4645 22.9645C11.5268 23.9021 11 25.1739 11 26.5C11 27.2956 11.3161 28.0587 11.8787 28.6213C12.4413 29.1839 13.2044 29.5 14 29.5H26C26.7956 29.5 27.5587 29.1839 28.1213 28.6213C28.6839 28.0587 29 27.2956 29 26.5C29 25.1739 28.4732 23.9021 27.5355 22.9645C26.5979 22.0268 25.3261 21.5 24 21.5H16Z" fill="#D9D9D9"/>
</svg>
