<svg width="59" height="58" viewBox="0 0 59 58" fill="none" xmlns="http://www.w3.org/2000/svg">
<path d="M58.4998 29.0021C58.4998 32.7403 57.7907 36.3167 56.5032 39.6007C55.9372 41.05 55.253 42.4432 54.4569 43.768C53.8598 44.7819 53.1942 45.7522 52.4727 46.6852C52.1804 47.0708 51.8756 47.444 51.5522 47.8109C49.7609 49.9257 47.6648 51.7792 45.3323 53.2968C44.7103 53.7011 44.0759 54.0867 43.4228 54.4413C41.1712 55.679 38.7393 56.6244 36.1767 57.2215C34.0309 57.7316 31.798 57.999 29.4966 57.999C29.0053 57.999 28.5201 57.9866 28.0412 57.9617C24.5394 57.7875 21.2056 56.9976 18.1517 55.6852C18.0708 55.6541 17.9962 55.6231 17.9153 55.5857C17.3306 55.3369 16.7584 55.0633 16.1924 54.7709C15.247 54.2858 14.3327 53.7447 13.4557 53.16C13.3375 53.0791 13.2193 52.9983 13.1011 52.9112C12.0437 52.1959 11.0362 51.406 10.0907 50.5414C10.0534 50.5103 10.0223 50.4855 10.0036 50.4606C9.92901 50.3984 9.85438 50.33 9.77975 50.2553C9.12666 49.6582 8.50468 49.0238 7.91379 48.3645C7.88891 48.3334 7.85781 48.3023 7.83293 48.2712C7.39754 47.7798 6.97458 47.276 6.57029 46.7598C2.76997 41.8586 0.499756 35.6947 0.499756 29.0021C0.499756 12.986 13.4868 -0.000976562 29.4966 -0.000976562C45.5127 -0.000976562 58.4998 12.986 58.4998 29.0021Z" fill="#E3F9FA"/>
<path d="M36.1762 57.2221C34.0304 57.7321 31.7975 57.9996 29.4961 57.9996C29.0048 57.9996 28.5196 57.9871 28.0407 57.9623C23.7801 57.7508 19.7683 56.625 16.1919 54.7715L19.7869 35.6206L27.1264 32.1748L35.6289 33.3317L36.1762 57.2221Z" fill="white"/>
<path d="M22.9852 31.9004L17.9161 55.5855C17.3314 55.3368 16.7592 55.0631 16.1932 54.7708C15.2477 54.2856 14.3334 53.7445 13.4564 53.1598C13.3382 53.0789 13.2201 52.9981 13.1019 52.911C12.0445 52.1957 11.0369 51.4058 10.0915 50.5412C10.0542 50.5101 10.0231 50.4853 10.0044 50.4604C9.92977 50.3982 9.85514 50.3298 9.7805 50.2551C9.12742 49.658 8.50544 49.0236 7.91455 48.3643C7.88967 48.3332 7.85857 48.3021 7.83369 48.271C7.3983 47.7796 6.97533 47.2758 6.57104 46.7596C9.23314 41.4541 14.5262 37.1313 16.2553 35.6261C19.838 32.5099 22.9852 31.9004 22.9852 31.9004Z" fill="#F7734F"/>
<path d="M21.6658 12.8871C21.6658 12.8871 21.779 7.56474 29.7049 6.83701C37.6308 6.10992 40.3166 13.4033 39.893 14.1802C39.4694 14.957 38.8027 15.2419 38.8027 15.2419C38.8027 15.2419 38.9942 20.5617 35.7724 21.5221C32.5505 22.483 28.9467 20.4199 28.9467 20.4199L21.6658 12.8871Z" fill="#F8CC98"/>
<path d="M31.1838 26.0215L31.18 32.5598C31.18 32.5598 29.9995 34.4388 26.1743 34.7473C23.3244 34.9768 22.3242 34.3324 22.3242 34.3324L22.7236 31.021L23.1173 27.7916L30.025 26.2765L31.1838 26.0215Z" fill="#F9BB91"/>
<path d="M30.0197 26.2764C30.0029 26.4549 29.9351 26.6657 29.8294 26.9071C28.364 30.1725 24.364 30.8741 22.7183 31.0202L23.112 27.7909L30.0197 26.2764Z" fill="black"/>
<path d="M21.667 12.8879C21.667 12.8879 18.2305 21.0838 19.5803 25.6392C20.93 30.1946 25.0873 29.4128 27.5684 28.4916C30.0488 27.5698 31.184 26.0236 31.184 26.0236C31.184 26.0236 33.5251 26.7787 35.0509 24.5893C36.5766 22.3999 35.5801 19.9263 34.2416 19.3764C32.9031 18.826 31.3357 19.81 31.3357 19.81L32.5405 17.4253C32.5405 17.4253 27.1454 5.47634 21.667 12.8879Z" fill="#F9BB91"/>
<path d="M22.1912 23.2817C22.0612 23.2817 21.9399 23.199 21.8958 23.069C21.3123 21.3162 22.514 19.4982 22.5656 19.4216C22.6614 19.2792 22.853 19.2413 22.9967 19.3371C23.1391 19.4322 23.177 19.6257 23.0819 19.7681C23.0707 19.7843 21.9996 21.412 22.486 22.8718C22.5401 23.0348 22.4518 23.2108 22.2895 23.2655C22.2571 23.2767 22.2242 23.2817 22.1912 23.2817Z" fill="black"/>
<path d="M31.757 23.6734C31.6823 23.6734 31.6083 23.6466 31.5486 23.5931C31.4211 23.4774 31.4111 23.2815 31.5262 23.154L33.687 20.7625C33.8021 20.635 33.9992 20.6256 34.1261 20.7401C34.2536 20.8558 34.2636 21.0517 34.1485 21.1792L31.9877 23.5707C31.9268 23.6385 31.8422 23.6734 31.757 23.6734Z" fill="black"/>
<path d="M34.0862 22.9949C34.0732 22.9949 34.0595 22.9943 34.0458 22.9924L32.5107 22.794C32.3409 22.7716 32.2203 22.6161 32.242 22.4457C32.2644 22.2759 32.4162 22.1521 32.591 22.177L34.1261 22.3754C34.2959 22.3978 34.4165 22.5533 34.3947 22.7244C34.373 22.8805 34.2399 22.9949 34.0862 22.9949Z" fill="black"/>
<path d="M25.8167 20.1647C25.8055 20.1647 25.7943 20.164 25.7831 20.1628C25.6127 20.1448 25.4883 19.9918 25.507 19.8207L25.6681 18.3C25.6861 18.1289 25.8404 18.0027 26.0102 18.0238C26.1806 18.0418 26.305 18.1949 26.2863 18.3659L26.1252 19.8866C26.1078 20.0459 25.9735 20.1647 25.8167 20.1647Z" fill="black"/>
<path d="M21.3037 19.9008C21.2907 19.9008 21.2776 19.9002 21.2645 19.8983C21.0947 19.8772 20.9734 19.7217 20.9946 19.5507L21.1849 18.033C21.2061 17.8626 21.364 17.7376 21.5326 17.7631C21.7024 17.7842 21.8237 17.9397 21.8025 18.1108L21.6122 19.6284C21.5923 19.7864 21.458 19.9008 21.3037 19.9008Z" fill="black"/>
<path d="M27.166 17.2257C27.0559 17.2257 26.9489 17.1666 26.8923 17.0627C26.5272 16.3891 25.5793 16.5987 25.5388 16.6087C25.3709 16.6466 25.2049 16.544 25.165 16.3773C25.1259 16.21 25.2291 16.0433 25.3952 16.0035C25.4549 15.9892 26.845 15.6726 27.4384 16.7667C27.5205 16.9178 27.4645 17.1063 27.3134 17.1884C27.2667 17.2139 27.2163 17.2257 27.166 17.2257Z" fill="black"/>
<path d="M20.5568 16.8991C20.4834 16.8991 20.41 16.8736 20.3509 16.8214C20.2228 16.7076 20.2097 16.5123 20.3235 16.3835C20.6818 15.9761 21.5737 15.3728 22.3736 16.0016C22.5092 16.108 22.5322 16.3033 22.4265 16.4383C22.3201 16.5751 22.1254 16.5962 21.9898 16.4911C21.4493 16.0663 20.8162 16.7648 20.7894 16.7946C20.7278 16.8637 20.642 16.8991 20.5568 16.8991Z" fill="black"/>
<path d="M29.3846 33.8464C29.3224 33.6847 29.142 33.5976 28.9803 33.6598C25.6154 34.9349 22.4432 34.0454 22.4121 34.033C22.3251 34.0081 22.238 34.0206 22.1633 34.0641C22.0887 34.1139 22.0389 34.1823 22.0203 34.2694L17.5669 55.4293C17.6789 55.4852 17.797 55.535 17.9152 55.5848C17.9961 55.6221 18.0707 55.6532 18.1516 55.6843L22.5614 34.711C23.4882 34.9162 26.2373 35.3578 29.198 34.2445C29.3597 34.1823 29.4406 34.0019 29.3846 33.8464Z" fill="white"/>
<path d="M32.6661 20.3942C32.6661 20.3942 30.078 19.9196 29.2551 18.091C28.0279 15.3636 29.6631 14.1998 29.6631 14.1998C29.6631 14.1998 27.7848 14.6203 26.2398 13.808C24.3278 12.8029 24.0087 11.2784 24.0087 11.2784L21.6669 12.8881C21.6669 12.8881 20.974 9.4348 23.1329 8.79788C25.2919 8.16159 27.8171 10.142 27.8171 10.142L35.7312 16.1591L34.988 19.9252C34.988 19.9252 34.5451 19.7548 32.6661 20.3942Z" fill="black"/>
<path d="M24.7776 25.7895C24.6893 25.7895 24.601 25.7808 24.512 25.7627C23.742 25.6079 23.255 24.8142 23.2351 24.78C23.1903 24.7066 23.1785 24.617 23.2021 24.5343C23.2251 24.451 23.2823 24.3819 23.3595 24.3421L26.2038 22.8861C26.2909 22.8425 26.3941 22.8413 26.4806 22.883C26.5689 22.9253 26.6311 23.0067 26.6498 23.1025C26.6616 23.1616 26.9222 24.5536 25.6583 25.476C25.3747 25.685 25.0786 25.7895 24.7776 25.7895ZM23.9746 24.7265C24.1307 24.8982 24.3634 25.0997 24.6364 25.1538C24.8529 25.1967 25.0674 25.1395 25.2926 24.9753C25.8524 24.566 26.0135 24.0349 26.0502 23.6642L23.9746 24.7265Z" fill="black"/>
<path d="M24.78 8.91544C24.78 8.91544 28.2694 9.31475 30.3928 13.9641C32.1288 17.7638 32.6649 20.3935 32.6649 20.3935L35.7724 21.5231L36.6991 14.0704L29.5749 8.41786C29.5749 8.41786 26.6385 7.42889 24.78 8.91544Z" fill="#F8CC98"/>
<path d="M54.4564 43.7682C53.8593 44.782 53.1938 45.7523 52.4722 46.6853C52.1799 47.0709 51.8751 47.4441 51.5517 47.8111C49.7604 49.9258 47.6643 51.7793 45.3319 53.297C44.7099 53.7013 44.0754 54.0869 43.4224 54.4414C39.2862 56.7117 34.5467 57.9992 29.4962 57.9992C29.0048 57.9992 28.5196 57.9867 28.0407 57.9619C27.2259 47.0274 27.2135 33.9844 31.1817 30.1592C33.4333 27.9885 45.9228 33.0328 54.4564 43.7682Z" fill="#F7734F"/>
<path d="M32.9292 20.618C32.7762 20.618 32.6425 20.5042 32.622 20.3481C32.599 20.1783 32.7184 20.0215 32.8888 19.9985C32.9081 19.9954 34.8624 19.7168 36.2923 18.2483C37.6613 16.842 38.3044 15.5103 38.3112 15.4966C38.3853 15.3411 38.5712 15.2758 38.7255 15.3498C38.881 15.4238 38.9463 15.6092 38.8723 15.7641C38.8449 15.8225 38.1781 17.2033 36.7376 18.6818C35.1528 20.3089 33.0592 20.6031 32.9703 20.6149C32.9566 20.6174 32.9435 20.618 32.9292 20.618Z" fill="#46467F"/>
<path d="M32.006 17.6116C31.8742 17.6116 31.7523 17.5271 31.7094 17.3952C31.6571 17.2316 31.7479 17.0568 31.9109 17.004C31.9401 16.9946 34.8703 16.0511 36.3742 15.0497C37.9877 13.9768 39.509 13.899 39.5731 13.8965C39.7292 13.8934 39.8891 14.0222 39.8972 14.1932C39.9052 14.3643 39.7721 14.5098 39.6004 14.5179C39.5868 14.5191 38.1804 14.5956 36.7188 15.5678C35.1421 16.6177 32.2231 17.5575 32.1 17.5973C32.0689 17.6067 32.0378 17.6116 32.006 17.6116Z" fill="#46467F"/>
<path d="M30.6047 14.1167C30.5145 14.1167 30.4255 14.0775 30.3639 14.0022C30.2551 13.8691 30.2744 13.6738 30.4075 13.565C30.5543 13.4449 34.0666 10.6267 38.9629 11.4651C39.1321 11.4944 39.2459 11.6555 39.2173 11.824C39.188 11.9938 39.0226 12.1064 38.8584 12.0784C34.2345 11.2854 30.8354 14.0178 30.8012 14.0458C30.7434 14.0937 30.6737 14.1167 30.6047 14.1167Z" fill="#46467F"/>
<path d="M27.818 10.4553C27.7191 10.4553 27.6221 10.4087 27.5617 10.321C27.4641 10.1798 27.4989 9.98698 27.6401 9.88871C27.7925 9.78359 31.4267 7.31555 36.6172 8.58254C36.7839 8.62296 36.8865 8.79152 36.8455 8.95759C36.805 9.1249 36.6346 9.22753 36.4698 9.18586C31.5605 7.99227 28.0301 10.3751 27.994 10.3993C27.9411 10.4367 27.8789 10.4553 27.818 10.4553Z" fill="#46467F"/>
</svg>
