<svg width="59" height="58" viewBox="0 0 59 58" fill="none" xmlns="http://www.w3.org/2000/svg">
<path d="M58.4997 28.9989C58.4997 33.4084 57.5158 37.5875 55.7551 41.3265C55.2762 42.3415 54.7453 43.3228 54.1575 44.2679C53.2876 45.6739 52.301 46.9996 51.2057 48.2296C50.9987 48.4653 50.7862 48.6982 50.5662 48.9261C50.517 48.9805 50.4652 49.0349 50.4134 49.0893C50.3046 49.2032 50.1959 49.3172 50.0845 49.4285C49.5848 49.9308 49.0669 50.4175 48.531 50.8836C48.3937 51.0027 48.2539 51.1219 48.1142 51.2384C48.0055 51.3316 47.8942 51.4222 47.7803 51.5155C47.4022 51.8237 47.0138 52.1214 46.6151 52.4114C46.5866 52.4347 46.5581 52.4554 46.5296 52.4762C46.3147 52.6315 46.0971 52.7869 45.8771 52.9371C45.7011 53.0562 45.5224 53.178 45.3437 53.2944C45.3022 53.3229 45.2582 53.3488 45.2142 53.3746C44.7352 53.6879 44.2433 53.9831 43.7435 54.2628C43.697 54.2913 43.6503 54.3172 43.6011 54.3431C43.5338 54.382 43.4639 54.4207 43.394 54.4571H43.3914C43.3655 54.4726 43.3396 54.4855 43.3138 54.5011C43.1299 54.602 42.9435 54.7004 42.7571 54.7963C42.7467 54.8014 42.7363 54.8065 42.7261 54.8118C42.6045 54.8739 42.4827 54.9361 42.3609 54.9931C42.0166 55.1667 41.6697 55.3323 41.3174 55.4902C41.0818 55.5963 40.8436 55.6974 40.6028 55.7957V55.7983C40.5277 55.8293 40.4527 55.8603 40.3749 55.8888H40.3724C40.1834 55.9691 39.9917 56.0442 39.8002 56.1141C38.2802 56.6941 36.6982 57.1473 35.0669 57.4631C34.9581 57.4865 34.8495 57.5071 34.7407 57.5252C34.36 57.5951 33.9743 57.6572 33.5885 57.7091V57.7116C33.5109 57.722 33.4331 57.7324 33.3555 57.7427C33.2752 57.7531 33.1976 57.7635 33.1173 57.7737C33.0835 57.7789 33.0499 57.7814 33.0163 57.7867C31.8641 57.9265 30.6911 57.999 29.5001 57.999H29.451C29.2931 57.999 29.1377 57.9965 28.9823 57.9939C28.7881 57.9913 28.594 57.9835 28.4023 57.9758C28.2988 57.9758 28.1951 57.9707 28.0916 57.9654C27.5582 57.9395 27.0299 57.9006 26.5043 57.8438C26.2764 57.823 26.0486 57.7971 25.8233 57.766C25.7353 57.7584 25.6524 57.7454 25.5669 57.735H25.5644C25.554 57.7324 25.541 57.7324 25.5307 57.7299C23.643 57.471 21.8151 57.0308 20.0646 56.4274C19.3422 56.1789 18.6328 55.9018 17.9362 55.5989C17.6255 55.4642 17.3174 55.3245 17.0118 55.1795C16.9393 55.1432 16.8643 55.107 16.7917 55.0733C16.6001 54.9776 16.411 54.8843 16.2246 54.7859C16.0899 54.7185 15.9553 54.6486 15.8233 54.5761C15.7974 54.5632 15.7742 54.5502 15.7482 54.5372C15.6473 54.4828 15.5437 54.4259 15.4453 54.3689C15.3884 54.3379 15.3314 54.3041 15.2745 54.2731C14.9871 54.1126 14.7023 53.9468 14.4226 53.7759C14.3061 53.706 14.1895 53.6335 14.0755 53.5583C13.8995 53.4497 13.7233 53.3357 13.5499 53.2166C13.5008 53.1881 13.4515 53.1545 13.4024 53.1207H13.3998C13.3454 53.0845 13.291 53.0508 13.2393 53.0119C13.0374 52.8773 12.838 52.7375 12.6412 52.5924C12.5972 52.5639 12.5557 52.5328 12.5117 52.5018C12.5092 52.4992 12.5066 52.4992 12.5041 52.4967C12.5015 52.4941 12.5015 52.4941 12.4989 52.4915C12.4394 52.4475 12.3746 52.4035 12.3151 52.3568C12.2064 52.2791 12.1002 52.1989 11.9939 52.116C11.2353 51.5438 10.5051 50.9328 9.806 50.2854C9.53414 50.0369 9.26999 49.7805 9.00853 49.5189C8.96453 49.4749 8.9231 49.4335 8.8791 49.3895C8.77813 49.2885 8.6797 49.1876 8.58656 49.084C7.88748 48.3616 7.22973 47.5977 6.61097 46.8055C2.78135 41.891 0.500244 35.713 0.500244 28.999C0.500244 12.9817 13.483 -0.000976561 29.5003 -0.000976561C45.517 -0.00111897 58.4997 12.9816 58.4997 28.9989Z" fill="#E3F9FA"/>
<path d="M20.1937 47.3492L17.9359 55.5987C17.3558 55.3475 16.7836 55.0757 16.2244 54.7857C16.0897 54.7184 15.9551 54.6484 15.8231 54.576C15.6962 54.5086 15.5693 54.4412 15.445 54.3688C15.3881 54.3377 15.3311 54.304 15.2741 54.2729C14.9868 54.1124 14.7019 53.9467 14.4222 53.7758C14.3057 53.7059 14.1891 53.6334 14.0752 53.5582C13.8992 53.4495 13.723 53.3356 13.5496 53.2164C13.5004 53.1879 13.4512 53.1543 13.402 53.1206H13.3995C13.3451 53.0844 13.2907 53.0506 13.239 53.0118C13.0371 52.8772 12.8377 52.7373 12.6408 52.5922C12.5968 52.5637 12.5554 52.5327 12.5114 52.5017C12.5088 52.4991 12.5063 52.4991 12.5037 52.4965C12.5012 52.494 12.5012 52.494 12.4986 52.4914C12.4391 52.4474 12.3743 52.4034 12.3148 52.3567C12.2061 52.2789 12.0999 52.1988 11.9936 52.1159C11.235 51.5437 10.5047 50.9326 9.80566 50.2852C10.3961 47.9289 11.1624 45.8653 11.9341 44.2808C15.2923 37.3932 17.0116 36.21 17.0116 36.21L20.1937 47.3492Z" fill="#00BA88"/>
<path d="M42.7568 54.7965C42.7464 54.8016 42.736 54.8067 42.7258 54.812C42.6042 54.8741 42.4824 54.9363 42.3607 54.9933C42.0163 55.1669 41.6694 55.3325 41.3171 55.4904C41.0816 55.5965 40.8433 55.6976 40.6025 55.7959V55.7984C40.5275 55.8295 40.4524 55.8605 40.3746 55.889H40.3721C40.1831 55.9693 39.9914 56.0444 39.7999 56.1143C38.28 56.6943 36.698 57.1475 35.0667 57.4633C34.9579 57.4867 34.8492 57.5073 34.7404 57.5254C34.2044 57.6238 33.6633 57.7067 33.117 57.7741C31.931 57.9216 30.7244 57.9994 29.4997 57.9994H29.4506C29.2926 57.9994 29.1373 57.9968 28.9819 57.9942C28.7877 57.9917 28.5935 57.9838 28.4019 57.9761C28.2983 57.9761 28.1947 57.971 28.0912 57.9657C27.2263 57.9243 26.3744 57.8441 25.5304 57.7302C23.6428 57.4713 21.8148 57.0311 20.0644 56.4277C20.0592 56.3967 20.0539 56.3657 20.0488 56.3346C19.4507 52.7536 16.9572 36.4775 16.9572 36.4775L24.7017 33.5439C24.7017 33.5439 26.9698 36.1694 29.8336 36.1694C32.6974 36.1694 37.4694 33.4248 37.4694 33.4248L42.6013 36.0478C42.6015 36.0474 42.6714 48.0228 42.7568 54.7965Z" fill="white"/>
<path d="M26.5038 57.8444C26.1776 57.8133 25.8539 57.7744 25.5302 57.7304C23.6426 57.4715 21.8146 57.0313 20.0642 56.428C19.3417 56.1795 18.6324 55.9023 17.9357 55.5994C17.3557 55.3482 16.7835 55.0764 16.2243 54.7864C16.0896 54.7191 15.955 54.6492 15.823 54.5767C15.7971 54.5637 15.7738 54.5508 15.7479 54.5378L16.9182 36.2367L24.7017 33.5439C24.7017 33.5439 25.8876 48.2976 26.5038 57.8444Z" fill="#00BA88"/>
<path d="M43.7431 54.2627C43.6007 54.3456 43.4583 54.4232 43.3134 54.501C43.1295 54.6019 42.9431 54.7003 42.7567 54.7962C42.7463 54.8013 42.7359 54.8064 42.7256 54.8117C42.604 54.8738 42.4822 54.936 42.3605 54.993C42.0161 55.1666 41.6693 55.3322 41.3169 55.4901C41.0814 55.5962 40.8431 55.6974 40.6023 55.7956V55.7982C40.5273 55.8292 40.4522 55.8603 40.3745 55.8887H40.3719C40.183 55.9691 39.9913 56.0441 39.7997 56.114C38.2798 56.6941 36.6978 57.1472 35.0665 57.4631C34.9577 57.4864 34.8491 57.5071 34.7403 57.5252C34.2042 57.6236 33.6631 57.7064 33.1168 57.7738C33.0831 57.7789 33.0495 57.7815 33.0159 57.7867C33.6295 48.2427 34.8232 33.3828 34.8232 33.3828L42.5651 36.3165L43.7431 54.2627Z" fill="#00BA88"/>
<path d="M50.5663 48.926C50.5171 48.9804 50.4653 49.0348 50.4135 49.0892C50.3047 49.2031 50.196 49.3171 50.0846 49.4284C49.5849 49.9307 49.067 50.4175 48.5311 50.8836C48.3938 51.0026 48.254 51.1218 48.1143 51.2383C48.0056 51.3316 47.8943 51.4221 47.7804 51.5154C47.4023 51.8236 47.0139 52.1214 46.6152 52.4113C46.5867 52.4347 46.5582 52.4553 46.5297 52.4761C46.3148 52.6315 46.0972 52.7868 45.8772 52.9371C45.7012 53.0561 45.5225 53.1779 45.3437 53.2944C45.3023 53.3229 45.2583 53.3488 45.2143 53.3746C44.5981 53.7759 43.9637 54.1514 43.3137 54.5008L41.6204 50.3192L42.4542 36.3164C42.4542 36.3164 46.5219 40.6173 49.8801 47.5047C50.0976 47.9525 50.3306 48.4263 50.5663 48.926Z" fill="#00BA88"/>
<path d="M30.4771 8.81128C28.4623 8.22712 23.7115 9.43943 21.5852 13.9822C19.4593 18.5237 21.0046 25.0457 21.0536 26.3527C21.1005 27.6021 19.9411 29.0653 19.5559 30.2507C19.0266 31.8799 18.7553 33.6557 19.4091 35.2931C20.0347 36.8597 21.3857 38.0065 22.7306 39.0247C24.0424 40.018 25.4234 40.9673 26.9886 41.4756C31.1692 42.8331 36.7537 42.2222 39.9008 38.9666C41.3022 37.5169 42.8486 36.4537 42.8486 35.3905C42.8486 34.3273 41.1572 34.7623 40.7706 33.3125C40.384 31.8628 37.7261 24.7105 37.6778 22.4391C37.6295 20.1677 38.5961 15.4802 37.0012 13.1121C35.4064 10.7443 32.3535 9.35528 30.4771 8.81128Z" fill="#63534C"/>
<path d="M28.0556 12.7541C27.2433 12.8488 26.4448 13.0413 25.7122 13.3814C23.7521 14.2911 22.9315 16.142 22.5332 18.0687C22.0778 20.2714 21.523 22.6736 22.1087 24.8992C22.4275 26.1111 23.0887 27.2277 23.9214 28.1976C25.2523 29.7482 26.8454 30.4517 29.0073 30.4468C31.1258 30.4421 33.7998 29.2673 34.8504 27.5608C35.8798 25.8892 35.6434 23.8086 35.4782 21.965C35.272 19.6654 34.9229 17.1394 33.7193 15.0966C33.2223 14.2532 32.5105 13.4936 31.5853 13.0838C30.7629 12.7195 29.8272 12.6527 28.9195 12.688C28.6312 12.6994 28.3426 12.7206 28.0556 12.7541Z" fill="#F9BB91"/>
<path d="M26.615 18.954C26.1811 18.7915 25.8346 18.7189 24.9381 18.7681C23.7856 18.8315 23.4661 19.3831 23.4095 19.5038C23.408 19.5072 23.4119 19.5101 23.4149 19.5077C23.5206 19.4182 24.091 19.3822 24.181 19.373C24.6284 19.327 25.0328 19.317 25.5864 19.3667C25.9266 19.3973 26.7907 19.6494 26.851 19.3856C26.9096 19.1282 26.7207 18.9936 26.615 18.954Z" fill="#181E23"/>
<path d="M30.6812 19.1048C31.1205 18.958 31.7306 18.916 32.3817 18.9805C32.9955 19.0413 33.7935 19.6073 33.8744 19.7715C33.8798 19.7823 33.868 19.7937 33.8573 19.7878C33.6578 19.6789 32.7851 19.5841 32.6738 19.571C32.2456 19.5205 31.8111 19.5231 31.3836 19.5791C31.2477 19.5969 30.4985 19.7989 30.4527 19.5586C30.4031 19.2992 30.5741 19.1406 30.6812 19.1048Z" fill="#181E23"/>
<path d="M28.8975 21.5655C29.0523 21.9814 29.0499 22.4161 28.851 22.8197C28.7573 23.01 28.627 23.1781 28.4615 23.3114C28.2876 23.4516 28.0814 23.4865 28.2678 23.8248C28.3377 23.9518 28.5441 24.0742 28.6525 24.1704C28.8259 24.3245 28.5559 24.5638 28.384 24.4112C28.068 24.1308 27.527 23.7291 27.9213 23.2794C28.1026 23.0726 28.3449 22.9832 28.491 22.7323C28.6683 22.4279 28.6993 22.0597 28.5767 21.7303C28.4965 21.515 28.8167 21.3484 28.8975 21.5655Z" fill="#E5A87F"/>
<path d="M26.7209 21.0195C26.4912 20.568 25.9499 20.364 25.4714 20.3395C24.8796 20.3092 24.375 20.5442 23.9731 20.9745C23.7725 21.1894 24.1546 21.4886 24.3477 21.2528C24.844 20.6468 26.0188 20.3462 26.5356 21.1343C26.604 21.239 26.7776 21.131 26.7209 21.0195Z" fill="#262223"/>
<path d="M23.347 20.6289C23.5036 20.9395 23.8605 21.3104 24.2341 21.3106C24.2954 21.3106 24.323 21.2291 24.2611 21.2015C24.1017 21.1301 23.9431 21.0974 23.795 20.9948C23.6436 20.89 23.521 20.752 23.4304 20.5913C23.402 20.5404 23.3198 20.5749 23.347 20.6289Z" fill="#262223"/>
<path d="M23.7271 20.4842C23.7902 20.6589 23.9033 20.8114 24.0517 20.9224C24.1702 21.011 24.3856 21.1158 24.5302 21.039C24.5571 21.0248 24.5653 20.9853 24.5377 20.966C24.4289 20.8893 24.2741 20.8755 24.1542 20.8117C24.001 20.7301 23.8846 20.604 23.8104 20.4466C23.7851 20.3925 23.7071 20.4287 23.7271 20.4842Z" fill="#262223"/>
<path d="M24.1828 20.2353C24.2178 20.4988 24.3535 20.8319 24.6439 20.8925C24.7077 20.9058 24.7279 20.819 24.6863 20.7833C24.596 20.7055 24.4966 20.6611 24.4197 20.5644C24.3403 20.4647 24.2957 20.3457 24.2655 20.2226C24.2525 20.1706 24.1753 20.1805 24.1828 20.2353Z" fill="#262223"/>
<path d="M24.5525 20.1594C24.4746 20.4025 24.8761 20.6902 25.0843 20.696C25.1139 20.6969 25.1301 20.6613 25.1055 20.6415C25.0232 20.5748 24.9199 20.5379 24.8357 20.4713C24.7289 20.3867 24.6505 20.3001 24.6126 20.1664C24.6052 20.1395 24.5633 20.126 24.5525 20.1594Z" fill="#262223"/>
<path d="M30.1589 21.2451C30.3962 20.7968 30.9453 20.6007 31.4288 20.5834C32.027 20.5618 32.5339 20.8041 32.935 21.2404C33.1353 21.4583 32.7459 21.752 32.5535 21.5133C32.0592 20.8999 30.8758 20.5819 30.3448 21.3626C30.2744 21.4663 30.1004 21.3558 30.1589 21.2451Z" fill="#262223"/>
<path d="M33.5748 20.9039C33.413 21.2122 33.0483 21.578 32.671 21.5728C32.609 21.5719 32.582 21.49 32.6448 21.4633C32.8065 21.3942 32.9673 21.3637 33.118 21.2635C33.2722 21.1608 33.3975 21.0246 33.491 20.8652C33.5204 20.8146 33.6029 20.8503 33.5748 20.9039Z" fill="#262223"/>
<path d="M33.1904 20.7545C33.1246 20.9284 33.0086 21.0793 32.8576 21.188C32.7368 21.2749 32.5179 21.3764 32.373 21.2976C32.3459 21.283 32.3381 21.2434 32.3661 21.2244C32.4769 21.1494 32.6335 21.1379 32.7553 21.0758C32.911 20.9965 33.0299 20.8718 33.1068 20.7156C33.133 20.6618 33.2113 20.6991 33.1904 20.7545Z" fill="#262223"/>
<path d="M32.7335 20.4986C32.6951 20.7616 32.5541 21.0928 32.2603 21.1491C32.1958 21.1615 32.1763 21.0743 32.2186 21.0393C32.3107 20.9629 32.4117 20.9198 32.4904 20.8242C32.5718 20.7257 32.6182 20.6074 32.6502 20.4848C32.6638 20.4329 32.7415 20.4439 32.7335 20.4986Z" fill="#262223"/>
<path d="M32.3622 20.4166C32.4381 20.6608 32.0293 20.9426 31.8189 20.9455C31.7892 20.9459 31.7731 20.9101 31.7981 20.8905C31.882 20.8251 31.9867 20.7897 32.0726 20.7243C32.1814 20.6413 32.2617 20.5558 32.3014 20.4227C32.3094 20.3959 32.3518 20.3831 32.3622 20.4166Z" fill="#262223"/>
<path d="M23.1319 23.3501C22.9421 23.641 22.8805 24.0378 23.0588 24.3358C23.1361 24.4651 23.252 24.5672 23.3762 24.6524C23.7691 24.9215 24.2747 25.0342 24.7368 24.9194C25.1991 24.8046 25.6039 24.452 25.7463 23.9976C25.7775 23.8982 25.7964 23.7937 25.7869 23.69C25.7746 23.5573 25.7161 23.4329 25.6459 23.3196C25.4831 23.0569 25.2483 22.8354 24.9665 22.7087C24.2661 22.3935 23.535 22.7322 23.1319 23.3501Z" fill="#FF9B87"/>
<path d="M34.3589 23.9278C34.4682 24.2575 34.4265 24.6568 34.178 24.8995C34.0702 25.0047 33.9321 25.0739 33.7904 25.1245C33.3418 25.2844 32.8243 25.2643 32.4066 25.0355C31.9889 24.8066 31.6874 24.3623 31.6656 23.8867C31.6609 23.7827 31.6692 23.6768 31.7048 23.5789C31.7505 23.4536 31.8388 23.3484 31.9356 23.2567C32.1601 23.0442 32.4436 22.8898 32.7485 22.8393C33.5062 22.7137 34.1267 23.2275 34.3589 23.9278Z" fill="#FF9B87"/>
<path d="M21.9691 28.7776C23.2313 31.8385 25.9432 34.1708 29.1735 34.9236C29.4655 34.9917 29.5901 34.5421 29.2976 34.4739C26.2382 33.7611 23.6186 31.5632 22.4189 28.6536C22.3059 28.38 21.8546 28.4999 21.9691 28.7776Z" fill="#44322C"/>
<path d="M36.4207 18.7819C36.4352 20.9232 36.2374 23.0544 35.8238 25.1556C35.7662 25.4487 36.2154 25.5743 36.2735 25.2795C36.6949 23.1381 36.9019 20.9643 36.887 18.7817C36.8851 18.4819 36.4187 18.4812 36.4207 18.7819Z" fill="#44322C"/>
<path d="M36.9872 26.8971C36.9746 29.8702 35.826 32.7738 33.7414 34.9042C32.7785 35.8884 31.6428 36.6956 30.3976 37.283C28.946 37.9677 27.2822 38.4151 25.6896 38.0094C25.3986 37.9353 25.2745 38.3849 25.5655 38.4591C28.5615 39.2223 31.8954 37.403 33.9659 35.3403C36.1998 33.1147 37.4401 30.0431 37.4534 26.8972C37.4549 26.597 36.9885 26.5966 36.9872 26.8971Z" fill="#44322C"/>
<path d="M22.6601 34.6357C23.5838 35.7749 25.0675 36.2926 26.5018 36.0242C26.7965 35.9691 26.6716 35.5195 26.3778 35.5745C25.0987 35.814 23.8048 35.311 22.9898 34.3061C22.8008 34.0728 22.4726 34.4046 22.6601 34.6357Z" fill="#44322C"/>
<path d="M19.9742 35.4929C21.945 38.687 25.1435 41.0236 28.7887 41.9215C29.08 41.9932 29.2044 41.5437 28.9127 41.4717C25.3833 40.6025 22.2864 38.3519 20.377 35.2575C20.2196 35.0026 19.816 35.2366 19.9742 35.4929Z" fill="#44322C"/>
<path d="M27.5364 40.7529C28.6403 41.0499 29.8559 40.372 30.8613 39.9765C31.9567 39.5457 33.0403 39.0822 34.0954 38.5597C36.2159 37.5095 38.2147 36.2027 39.8783 34.5088C40.0888 34.2945 39.7592 33.9645 39.5486 34.179C37.9854 35.7707 36.1237 37.0075 34.1414 38.0159C33.1517 38.5194 32.1343 38.9674 31.104 39.3811C30.5923 39.5866 30.0774 39.7842 29.5605 39.976C28.9524 40.2018 28.3164 40.4795 27.6604 40.3031C27.3702 40.2253 27.2465 40.6749 27.5364 40.7529Z" fill="#44322C"/>
<path d="M16.9821 36.7866C17.3597 38.4751 17.6555 40.1798 17.8663 41.8972C17.8848 42.0477 18.1236 42.0496 18.105 41.8972C17.8915 40.1585 17.5946 38.4327 17.2122 36.7233C17.1787 36.5734 16.9486 36.6368 16.9821 36.7866Z" fill="#178769"/>
<path d="M43.5548 39.5078C43.5548 40.7011 43.5548 41.8943 43.5548 43.0875C43.5548 43.241 43.7935 43.2413 43.7935 43.0875C43.7935 41.8943 43.7935 40.7011 43.7935 39.5078C43.7935 39.3543 43.5548 39.354 43.5548 39.5078Z" fill="#178769"/>
<path d="M18.2417 49.235C17.83 51.2132 17.382 53.1888 17.0145 55.1775C16.942 55.1412 16.8669 55.105 16.7943 55.0713C17.1594 53.0982 17.6022 51.1356 18.0113 49.1703C18.0424 49.0201 18.2728 49.0849 18.2417 49.235Z" fill="#178769"/>
<path d="M21.3481 38.5516C21.464 41.9314 23.5224 44.8665 25.5005 47.4586C25.5924 47.5791 25.7998 47.4603 25.7065 47.3382C23.7569 44.7837 21.701 41.8841 21.5868 38.5516C21.5815 38.3985 21.3428 38.3978 21.3481 38.5516Z" fill="#178769"/>
<path d="M25.8252 57.7655C25.7372 57.7578 25.6543 57.7449 25.5688 57.7345H25.5663C25.2167 56.388 24.8309 55.0468 24.4115 53.7184C23.9739 52.3229 23.4975 50.9402 22.9874 49.5704C22.5007 48.2628 21.8067 46.9242 21.8507 45.4948C21.8507 45.4404 21.8871 45.3991 21.9387 45.3809C22.4825 45.179 23.0132 44.9329 23.5571 44.7284C23.5932 44.7129 23.627 44.6999 23.6631 44.687C23.8081 44.6326 23.8704 44.863 23.7279 44.9174C23.715 44.9225 23.702 44.9278 23.6892 44.9329C23.1481 45.1323 22.625 45.3756 22.0864 45.5776C22.0734 46.9965 22.7881 48.3481 23.2697 49.6506C23.7771 51.0202 24.251 52.4029 24.6886 53.7986C25.1001 55.1115 25.4781 56.4347 25.8252 57.7655Z" fill="#178769"/>
<path d="M36.8127 41.1676C35.9856 43.2398 34.8113 45.1539 33.3407 46.8317C33.2398 46.9468 33.4079 47.1163 33.5094 47.0005C35.0087 45.2899 36.1996 43.3436 37.0428 41.2311C37.0998 41.0884 36.869 41.0265 36.8127 41.1676Z" fill="#178769"/>
<path d="M37.7454 47.195C37.0593 48.4171 36.2334 49.5615 35.63 50.8304C35.2364 51.6563 35.0085 52.5522 34.7471 53.4249C34.4674 54.3673 34.1981 55.3125 33.9547 56.2628C33.8331 56.734 33.706 57.2182 33.5895 57.7076V57.7102C33.5119 57.7206 33.4342 57.731 33.3566 57.7412C33.6983 56.1412 34.1566 54.5641 34.6253 53.0002C34.8997 52.0888 35.1637 51.1955 35.604 50.3462C36.1685 49.256 36.8728 48.2462 37.4787 47.1794C36.5233 46.6617 35.5394 46.1877 34.5787 45.6725C34.5088 45.6362 34.4363 45.5974 34.3664 45.5586C34.3534 45.5507 34.3405 45.5456 34.3275 45.5379C34.1929 45.4629 34.3146 45.2582 34.4493 45.3307C34.4701 45.341 34.4881 45.3514 34.5088 45.3618C34.5787 45.4006 34.6487 45.4395 34.7186 45.4757C35.705 46.0091 36.7201 46.4933 37.704 47.0319C37.761 47.0628 37.7766 47.1406 37.7454 47.195Z" fill="#178769"/>
<path d="M26.8508 26.5811C27.7979 27.4127 29.4295 27.5375 30.3396 26.5033C30.4703 26.3548 30.2811 26.1044 30.1512 26.252C29.7254 26.7359 29.0901 26.8253 28.5527 26.8462C27.9518 26.8696 27.4876 26.7152 26.9852 26.2742C26.8417 26.148 26.7079 26.4556 26.8508 26.5811Z" fill="#F98073"/>
</svg>
