<svg width="59" height="58" viewBox="0 0 59 58" fill="none" xmlns="http://www.w3.org/2000/svg">
<path d="M58.4998 28.999C58.4998 32.8931 57.7347 36.6067 56.3415 39.9969C55.3214 42.4789 53.9655 44.7929 52.3297 46.8768C48.5729 51.6728 43.3358 55.2558 37.3026 56.9353C34.8208 57.632 32.2023 57.999 29.5029 57.999C28.4766 57.999 27.4628 57.9493 26.4614 57.8435C25.8083 57.7751 25.1614 57.6818 24.5208 57.5698C23.8117 57.4454 23.1151 57.2961 22.4247 57.1219C22.2941 57.0908 22.1572 57.0597 22.0266 57.0224C20.9195 56.73 19.831 56.3693 18.7799 55.9463C16.9264 55.2122 15.1599 54.2854 13.5179 53.1968C13.0078 52.8609 12.504 52.5063 12.0189 52.1393C11.0486 51.4053 10.1281 50.6153 9.2573 49.7631C7.18609 47.7476 5.42586 45.4274 4.03262 42.877C1.78104 38.7528 0.499756 34.0252 0.499756 28.999C0.499756 12.9812 13.4868 -0.000976562 29.5029 -0.000976562C45.519 -0.000976562 58.4998 12.9812 58.4998 28.999Z" fill="#E3F9FA"/>
<path d="M22.3603 16.4293C22.3603 16.4293 19.5856 18.757 19.3238 21.0928C19.0613 23.4286 19.0613 23.4286 19.0613 23.4286C19.0613 23.4286 15.7355 24.4911 14.731 28.5102C13.3683 33.9662 17.0865 35.8634 17.0865 35.8634L45.9689 38.9818C45.9689 38.9818 49.3631 36.0065 48.6839 31.226C48.0047 26.4449 45.2064 24.924 45.2064 24.924C45.2064 24.924 45.6673 21.8505 44.1204 18.7626C42.3359 15.1995 38.6712 15.1641 38.6712 15.1641L22.3603 16.4293Z" fill="black"/>
<path d="M52.3318 46.878C48.575 51.674 43.3379 55.257 37.3047 56.9365C34.823 57.6332 32.2044 58.0002 29.505 58.0002C28.4787 58.0002 27.4649 57.9505 26.4635 57.8447C25.8104 57.7763 25.1636 57.683 24.5229 57.571C23.8139 57.4466 23.1172 57.2973 22.4268 57.1231C22.2962 57.092 22.1594 57.0609 22.0288 57.0236C20.9216 56.7312 19.8332 56.3704 18.782 55.9474C16.9285 55.2134 15.1621 54.2866 13.52 53.198C13.5822 51.6491 13.688 50.772 13.688 50.772L18.3715 35.9983L18.8318 34.5427C19.1054 33.6718 19.6652 32.944 20.4054 32.4588C20.7848 32.2038 21.214 32.0172 21.6742 31.9176C22.5326 31.7186 23.6024 31.5009 24.8152 31.2956C25.1947 31.2396 25.5741 31.1774 25.9784 31.1214C27.2348 30.9472 28.6156 30.8104 30.0399 30.7482C30.8982 30.7108 31.7566 30.7046 32.6212 30.7357C33.0068 30.7482 33.3924 30.7668 33.778 30.7917C34.2259 30.829 34.6675 30.8726 35.1153 30.9223C35.6129 30.9845 36.1043 31.0592 36.5956 31.1587C37.7152 31.3702 38.8099 31.6688 39.8486 32.0731C42.604 33.1493 44.9986 35.3638 46.9703 37.8458C49.4831 41.012 51.3118 44.6199 52.3318 46.878Z" fill="#FB7F7F"/>
<path d="M33.8635 29.4043C33.8635 29.4043 35.8943 30.0699 36.5101 31.0148C37.2005 32.0741 35.9092 34.8647 32.2358 37.0344C29.5525 38.6193 27.2867 39.1798 27.2867 39.1798C27.2867 39.1798 24.9499 35.9476 24.5014 33.9826C24.053 32.0175 25.6981 29.4404 25.6981 29.4404L33.8635 29.4043Z" fill="white"/>
<path d="M23.1135 20.0614C23.1135 20.0614 20.671 16.3303 20.6903 14.5002C20.7096 12.6702 26.8106 6.22198 33.1916 8.01473C39.5725 9.80748 41.2475 17.5371 40.4389 20.9801C38.3571 29.8462 30.5774 27.1975 30.5774 27.1975C30.5774 27.1975 18.6091 25.5908 23.1135 20.0614Z" fill="black"/>
<path d="M25.6866 29.2831L25.7072 29.4448L26.2141 32.4807L26.6016 34.8623C26.6016 34.8623 26.4647 35.4438 29.2288 34.9251C32.9315 34.2154 33.941 32.4652 33.941 32.4652L33.4191 26.835L32.3133 27.1883L25.6866 29.2831Z" fill="#F9BB91"/>
<path d="M25.6957 29.444L26.2026 32.4799C27.9902 32.0395 31.1977 30.8527 32.1855 27.8367C32.2601 27.5923 32.3024 27.3752 32.3036 27.1992L25.7019 29.3961L25.6957 29.444Z" fill="black"/>
<path d="M22.7431 14.9783C22.7431 14.9783 20.2352 23.3486 22.0278 27.6625C23.821 31.9764 27.8035 30.7796 30.1328 29.6207C32.4622 28.4618 33.4107 26.832 33.4107 26.832C33.4107 26.832 35.778 27.3272 37.0425 25.0281C38.307 22.729 37.0754 20.4144 35.7095 20.0156C34.3437 19.6169 32.9137 20.7416 32.9137 20.7416L33.8436 18.2845C33.8436 18.2845 27.3289 7.16281 22.7431 14.9783Z" fill="#F9BB91"/>
<path d="M24.3048 25.0898C24.1873 25.0898 24.0741 25.022 24.0218 24.9075C23.268 23.2518 24.2557 21.3479 24.2974 21.2677C24.3782 21.1153 24.5667 21.0574 24.7172 21.1377C24.869 21.2173 24.9274 21.4057 24.8478 21.5575C24.8385 21.5743 23.9621 23.2748 24.5878 24.6494C24.6587 24.8055 24.5903 24.9902 24.4336 25.0612C24.3919 25.0811 24.3484 25.0898 24.3048 25.0898Z" fill="black"/>
<path d="M33.6913 24.4784C33.6273 24.4784 33.5638 24.4591 33.5085 24.4187C33.3692 24.3173 33.3393 24.1232 33.4401 23.9845L35.3041 21.4219C35.4049 21.2826 35.6002 21.2528 35.7383 21.3535C35.8776 21.4549 35.9075 21.649 35.8067 21.7877L33.9426 24.3502C33.8817 24.4342 33.7871 24.4784 33.6913 24.4784Z" fill="black"/>
<path d="M35.9014 23.572C35.8939 23.572 34.3732 23.5372 34.3732 23.5372C34.2021 23.5334 34.0659 23.391 34.0697 23.2187C34.074 23.0477 34.2121 22.9102 34.3881 22.9152L35.9089 22.95C36.0799 22.9537 36.2161 23.0962 36.2124 23.2685C36.208 23.4376 36.0699 23.572 35.9014 23.572Z" fill="black"/>
<path d="M26.1108 28.029C26.0187 28.029 25.9273 28.0147 25.8365 27.9861C25.1517 27.7709 24.7579 26.7988 24.715 26.688C24.6559 26.5369 24.7237 26.3659 24.8699 26.2956L27.8424 24.8656C27.9556 24.8115 28.0893 24.8302 28.182 24.9123C28.2759 24.9944 28.3113 25.1244 28.2734 25.2426C28.2473 25.3228 27.6216 27.2093 26.6705 27.8468C26.4914 27.9675 26.3011 28.029 26.1108 28.029ZM25.416 26.7235C25.5665 27.0071 25.7954 27.3218 26.0237 27.3934C26.0902 27.4139 26.1835 27.4251 26.3241 27.3312C26.7502 27.0451 27.1383 26.3484 27.3976 25.7706L25.416 26.7235Z" fill="black"/>
<path d="M28.5379 18.6513C28.4397 18.6513 28.342 18.6041 28.2817 18.5164C27.8538 17.8938 26.9282 18.2116 26.9189 18.2147C26.7547 18.2713 26.5793 18.1873 26.5215 18.0256C26.4643 17.8639 26.5495 17.686 26.7112 17.6288C26.7684 17.6083 28.0982 17.1524 28.7948 18.1643C28.8919 18.3055 28.8564 18.499 28.7146 18.5966C28.6605 18.6339 28.5983 18.6513 28.5379 18.6513Z" fill="black"/>
<path d="M21.7386 18.6196C21.6658 18.6196 21.5924 18.5941 21.5333 18.5424C21.4046 18.4292 21.3915 18.2333 21.5047 18.1046C21.5669 18.0337 22.1317 17.4117 22.8426 17.4092C23.2021 17.4092 23.5299 17.5678 23.798 17.8688C23.9124 17.997 23.9012 18.1941 23.7725 18.308C23.6443 18.4218 23.4478 18.4106 23.334 18.2824C23.1828 18.1126 23.0261 18.0256 22.8469 18.0312C22.48 18.0318 22.0906 18.3807 21.9718 18.5151C21.9103 18.5841 21.825 18.6196 21.7386 18.6196Z" fill="black"/>
<path d="M32.9119 20.7388C32.9119 20.7388 29.2186 19.4064 27.6449 17.0706C26.0713 14.7348 25.8642 13.4888 25.8642 13.4888C25.8642 13.4888 25.5663 15.1914 24.3522 15.7381C23.1381 16.2849 22.3581 16.4299 22.3581 16.4299L21.8499 18.8608L21.6639 13.2443C21.6639 13.2443 24.8541 10.9757 25.3125 10.9166C25.7709 10.8582 31.6872 11.1536 32.066 11.4591C32.4448 11.7645 34.8438 16.023 34.8438 16.023L35.23 18.036L32.9119 20.7388Z" fill="black"/>
<path d="M28.4963 20.5948C28.3787 20.5948 28.2662 20.5276 28.2139 20.4132C28.0908 20.1451 27.9415 19.9971 27.7568 19.961C27.3892 19.8889 26.9078 20.2421 26.7547 20.3852C26.6291 20.5021 26.4319 20.4953 26.315 20.3703C26.1981 20.2453 26.2043 20.0487 26.3299 19.9312C26.4095 19.8565 27.136 19.2047 27.8756 19.3502C28.1443 19.4031 28.5187 19.5853 28.7793 20.1551C28.8508 20.3112 28.7824 20.4953 28.6263 20.5674C28.584 20.5855 28.5405 20.5948 28.4963 20.5948Z" fill="black"/>
<path d="M22.2836 20.6144C22.2463 20.6144 22.2096 20.6081 22.1729 20.5938C22.0118 20.5329 21.9316 20.3531 21.9931 20.192C22.2214 19.5912 22.5318 19.2721 22.9155 19.2435C23.5406 19.1944 23.9723 19.9513 24.0208 20.0372C24.1054 20.1864 24.0525 20.3755 23.9032 20.4601C23.7546 20.5453 23.5643 20.4912 23.4797 20.3432C23.3627 20.1398 23.1177 19.8425 22.9616 19.8636C22.8764 19.8705 22.724 20.0185 22.5734 20.4135C22.5274 20.5385 22.4086 20.6144 22.2836 20.6144Z" fill="black"/>
<path d="M33.6804 29.8047C33.6804 29.8047 29.7265 33.5316 27.4114 33.5534C25.0958 33.5751 25.4205 31.6495 25.4205 31.6495L25.8024 36.0923L27.8474 36.7628L32.9602 34.7022L35.83 31.4903L33.6804 29.8047Z" fill="white"/>
<path d="M29.4994 36.9873C29.4994 36.9873 31.2329 39.3592 31.5856 43.0809C31.9376 46.802 29.7774 50.9847 29.7774 50.9847C29.7774 50.9847 26.3136 47.0564 25.8552 44.0911C25.3968 41.1258 26.9829 36.9157 26.9829 36.9157C26.9829 36.9157 25.413 40.4876 25.0249 42.6735C24.6367 44.8593 24.1012 47.6685 24.1012 47.6685C24.1012 47.6685 21.9995 44.8817 22.1252 41.5737C22.2508 38.2656 25.8036 36.0928 25.8036 36.0928L29.4994 36.9873Z" fill="white"/>
<path d="M29.0601 38.0782C28.1053 38.0782 26.8744 37.7455 26.699 37.6963C26.6766 37.6895 26.6648 37.6851 26.6542 37.6802C26.5846 37.6491 26.5267 37.5925 26.495 37.5178C26.2854 37.0233 25.2747 34.5118 25.9271 33.6093C26.054 33.4345 26.2947 33.2299 26.7401 33.2697C27.0927 33.2983 27.3714 33.4644 27.5449 33.7505C28.0643 34.6038 27.4852 36.4132 27.1991 37.1826C27.8708 37.3437 29.0153 37.5582 29.544 37.4052C30.1031 37.2435 30.4204 35.3179 30.1971 34.2306C30.1622 34.0621 30.2705 33.8979 30.439 33.8637C30.6032 33.827 30.7718 33.9364 30.8066 34.1056C31.0081 35.0865 30.8763 37.6677 29.7169 38.0036C29.5297 38.0558 29.3039 38.0782 29.0601 38.0782ZM26.6374 33.8867C26.4931 33.8867 26.4521 33.9439 26.431 33.9731C26.1703 34.3333 26.4272 35.4939 26.7749 36.5065C27.0654 35.6021 27.2818 34.5143 27.0131 34.0727C26.9434 33.9582 26.8433 33.9016 26.6891 33.8885C26.6704 33.8873 26.653 33.8867 26.6374 33.8867Z" fill="#F7734F"/>
<path d="M28.9475 43.121C28.6807 43.121 28.4481 43.0078 28.2764 42.7938C27.4504 41.7657 28.2173 38.2223 28.3081 37.8223C28.338 37.6874 28.4537 37.5891 28.5911 37.5798C28.723 37.5648 28.8561 37.6538 28.9034 37.7838C29.1434 38.4425 30.3028 41.7781 29.6 42.7858C29.4476 43.0041 29.2237 43.1198 28.9519 43.121C28.9506 43.121 28.9494 43.121 28.9475 43.121ZM28.6931 39.1403C28.4904 40.4515 28.3977 41.9523 28.7609 42.4045C28.8157 42.4717 28.8698 42.499 28.9481 42.499C29.0265 42.499 29.0595 42.4735 29.09 42.43C29.3835 42.0083 29.0931 40.5012 28.6931 39.1403Z" fill="#F7734F"/>
<path d="M22.4284 57.121C22.2978 57.0899 22.1609 57.0588 22.0303 57.0215C20.9232 56.7291 19.8347 56.3683 18.7836 55.9454C16.93 55.2113 15.1636 54.2845 13.5216 53.1959C13.0115 52.86 12.5077 52.5054 12.0226 52.1384C11.0523 51.4044 10.1318 50.6144 9.26099 49.7622C9.27343 49.6813 9.29208 49.6004 9.31074 49.5196C10.8968 42.3411 13.9072 37.9246 16.3951 35.3617C18.6467 33.0477 20.8025 32.2266 20.8025 32.2266C20.7776 32.3012 20.4318 32.3759 20.4069 32.4567C20.1644 33.3525 20.0524 34.6277 20.0462 36.1766C20.0275 41.52 21.2466 50.0794 22.4284 57.121Z" fill="#FB7F7F"/>
</svg>
