<svg width="190" height="70" viewBox="0 0 190 70" fill="none" xmlns="http://www.w3.org/2000/svg">
<path d="M190 -25H0V95H190V-25Z" fill="#E4F4F1"/>
<g opacity="0.81">
<g opacity="0.47">
<path d="M167.776 26.9428C167.052 19.1171 163.57 11.2785 157.54 5.67664C148.143 -3.05216 133.929 -5.25224 121.471 -3.23432C116.253 -2.38904 111.078 -0.891923 105.736 -1.36328C97.943 -2.0504 91.079 -6.76208 83.9841 -10.2159C74.3265 -14.917 63.2559 -17.4474 52.9885 -15.4018C41.3474 -13.0825 31.8025 -4.3208 30.6638 7.30408C30.1477 12.5716 35.3915 21.8512 33.7367 26.8432C32.0581 31.9062 19.8029 47.4148 20.1051 59.2108C20.4061 70.9629 23.2287 74.6181 27.2172 80.5907H30.4054H150.55H157.465C159.948 74.5389 167.853 69.2099 164.945 61.2628C162.622 54.9131 162.975 50.1719 165.417 44.2612C167.591 39.0009 168.306 32.6745 167.776 26.9428Z" fill="#A5D1EF"/>
</g>
</g>
<g opacity="0.41">
<path d="M14.5349 30.6687C13.3739 28.2615 14.276 25.3135 16.5505 24.0845C18.8246 22.8555 23.1898 22.9565 24.3508 25.3639C25.5121 27.7711 22.0116 29.8265 20.5812 32.0657C18.5862 35.1883 15.696 33.0761 14.5349 30.6687Z" fill="#A5D1EF"/>
</g>
<g opacity="0.41">
<path d="M173.685 47.4791C175.093 48.5903 175.383 50.6994 174.333 52.1898C173.283 53.6802 170.561 55.0228 169.153 53.9114C167.745 52.7999 169.314 50.4052 169.553 48.5637C169.887 45.995 172.277 46.3677 173.685 47.4791Z" fill="#A5D1EF"/>
</g>
<g opacity="0.43">
<path d="M153.408 73.6674C154.677 66.8036 152.643 60.9491 152.135 54.219C151.655 47.8472 153.735 42.4885 154.89 36.4199C155.917 31.0189 155.575 24.9016 154.285 19.5932C152.525 12.346 148.47 5.63533 142.629 1.54429C133.526 -4.83011 121.387 -4.07964 111.332 0.305165C107.121 2.14164 103.042 4.58557 98.5321 5.20357C91.954 6.10501 85.5515 3.02101 79.1435 1.17061C70.4207 -1.34795 60.8452 -1.53491 52.6151 2.44045C43.2836 6.94765 36.6488 17.1222 37.424 28.3285C37.7751 33.4062 39.572 38.4172 38.9362 43.4615C38.2909 48.5776 35.4969 52.8575 34.0177 57.676C31.9989 64.2524 31.815 73.918 35.0609 80.5912H151.223C152.225 78.4093 152.963 76.0727 153.408 73.6674Z" fill="#A5D1EF"/>
</g>
<g opacity="0.47">
<path d="M131.808 52.9258C131.437 48.8907 129.654 44.8488 126.564 41.9602C121.75 37.4592 114.467 36.3248 108.085 37.3654C105.412 37.8012 102.761 38.5733 100.024 38.3302C96.0314 37.9757 92.5149 35.5464 88.8801 33.7656C83.9322 31.3414 78.2606 30.0368 73.0004 31.0916C67.0364 32.2875 62.1463 36.8052 61.5629 42.7995C61.2984 45.5156 63.985 50.3004 63.1371 52.8747C62.277 55.4854 55.9987 63.4822 56.1532 69.5648C56.3075 75.6245 57.7535 77.5092 59.7969 80.5892H61.4304H122.983H126.526C127.798 77.4687 128.795 74.9727 127.305 70.8747C126.115 67.6006 129.349 64.904 130.6 61.8562C131.713 59.1435 132.08 55.8814 131.808 52.9258Z" fill="#A5D1EF"/>
</g>
<g opacity="0.7">
<path d="M126.362 32.1913H63.6396V3.75732H126.362V32.1913ZM63.8296 32.0113H126.172V3.93732H63.8296V32.0113Z" fill="white"/>
<g opacity="0.39">
<path d="M123.403 30.1596H66.4863V5.78467H123.403V30.1596ZM66.9502 30.0064H122.94V5.93779H66.9502V30.0064Z" fill="white"/>
</g>
<path d="M65.9498 9.89594L65.9473 9.69194L123.881 9.60962L123.883 9.81362L65.9498 9.89594Z" fill="white"/>
<path d="M65.9605 10.7248L65.958 10.5205L123.891 10.4382L123.893 10.6425L65.9605 10.7248Z" fill="white"/>
<path d="M65.9713 11.5275L65.9688 11.3233L123.902 11.241L123.905 11.4452L65.9713 11.5275Z" fill="white"/>
<path d="M65.982 12.3278L65.9795 12.1236L123.912 12.0413L123.915 12.2455L65.982 12.3278Z" fill="white"/>
<path d="M65.9935 13.2665L65.9912 13.0623L123.924 12.98L123.926 13.1842L65.9935 13.2665Z" fill="white"/>
<path d="M66.0025 13.9308L66 13.7266L123.933 13.6445L123.936 13.8485L66.0025 13.9308Z" fill="white"/>
<g opacity="0.29">
<path d="M123.325 22.9365L123.196 22.89L76.0879 5.86987L91.619 5.93635L123.325 18.1147V22.9365ZM77.1304 6.05395L123.135 22.6752V18.2356L91.5645 6.10963L77.1304 6.05395Z" fill="white"/>
<path d="M123.634 23.199L123.505 23.1524L75.3789 5.7644L91.762 5.834L123.634 18.0759V23.199ZM76.4216 5.94848L123.444 22.9378V18.1974L91.7078 6.00752L76.4216 5.94848ZM123.016 22.6729L122.887 22.6263L76.7971 5.97417L91.476 6.03728L123.016 18.152V22.6729ZM77.8395 6.15825L122.826 22.4118V18.2732L91.4215 6.21056L77.8395 6.15825Z" fill="white"/>
</g>
<g opacity="0.29">
<path d="M123.901 27.5412C123.889 27.5412 123.878 27.5393 123.866 27.535L65.9419 5.93567C65.8933 5.91743 65.8692 5.86511 65.8885 5.81903C65.9075 5.77271 65.9622 5.75015 66.0116 5.76815L123.936 27.3674C123.984 27.3857 124.008 27.438 123.989 27.4841C123.975 27.5196 123.939 27.5412 123.901 27.5412Z" fill="white"/>
<path d="M123.666 27.6134L123.635 27.6019L65.459 5.90855L66.2124 5.68823L66.2436 5.69975L124.42 27.3931L123.666 27.6134ZM66.0328 5.92943L123.674 27.4231L123.846 27.3727L66.2048 5.87903L66.0328 5.92943Z" fill="white"/>
</g>
</g>
<path d="M24.903 80.5896H28.5565H166.231H174.155C176.941 74.8227 179.062 70.2365 176.023 62.7843L16.9199 62.7319C17.7017 71.8889 20.7506 75.3094 24.903 80.5896Z" fill="#7E88E6"/>
<path d="M17.0142 63.684H176.367C176.2 63.2198 176.012 62.7449 175.803 62.2579C175.734 62.0988 175.674 61.9404 175.618 61.7827H16.8516C16.8949 62.4442 16.9491 63.0775 17.0142 63.684Z" fill="#5574D8"/>
<path opacity="0.32" d="M176.33 63.5828H17C17.1915 65.4068 17.4798 66.9922 17.8525 68.4118H177.455C177.329 66.9226 176.975 65.3314 176.33 63.5828Z" fill="#5574D8"/>
<path d="M17.5364 -10.6852L23.094 -1.14378L21.3202 -1.08114L23.6093 -5.9673L24.1616 -7.14618L24.7605 -6.0525L30.0232 3.55806C30.0769 3.65598 30.0364 3.7767 29.933 3.82758C29.8345 3.87606 29.7139 3.84294 29.6564 3.7551L23.6514 -5.45658L24.8025 -5.54178L23.1217 -0.438417L22.313 2.01678L21.3478 -0.375777L17.2413 -10.5554C17.2091 -10.6351 17.2512 -10.7243 17.3353 -10.7548C17.4123 -10.7829 17.4977 -10.7517 17.5364 -10.6852Z" fill="#FF8383"/>
<path d="M12.5418 6.29686L17.766 8.92006L16.2531 9.79966L16.1361 7.06006L16.0811 5.77222L17.095 6.45046L21.8703 9.64509C21.9655 9.70893 21.9883 9.83398 21.9209 9.92422C21.8596 10.0065 21.7449 10.0317 21.6527 9.98734L16.4373 7.48534L17.3962 6.87573L18.1557 9.5215L19.0215 12.5376L16.6428 10.4009L12.352 6.54718C12.2862 6.48814 12.2834 6.38974 12.346 6.32734C12.3976 6.2755 12.4782 6.26518 12.5418 6.29686Z" fill="#FF8383"/>
<path d="M173.32 -8.09474L169.213 2.08486L168.248 4.47742L167.44 2.02222L165.759 -3.08089L166.91 -2.9957L160.905 6.21622C160.844 6.31006 160.714 6.33935 160.615 6.28127C160.52 6.22607 160.488 6.1111 160.538 6.01918L165.801 -3.59138L166.4 -4.68506L166.952 -3.50618L169.241 1.37998L167.467 1.31734L173.025 -8.2241C173.068 -8.29874 173.167 -8.32586 173.246 -8.28482C173.319 -8.24762 173.349 -8.16554 173.32 -8.09474Z" fill="#FF8383"/>
<path d="M178.209 9.00982L173.919 12.8637L171.54 15.0005L172.406 11.9844L173.165 9.33862L174.124 9.94822L168.909 12.4502C168.804 12.5001 168.677 12.4608 168.624 12.3619C168.576 12.2721 168.607 12.1641 168.691 12.1077L173.466 8.9131L174.48 8.23486L174.425 9.5227L174.308 12.2623L172.795 11.3827L178.019 8.7595C178.1 8.71942 178.199 8.74822 178.241 8.82406C178.277 8.88742 178.261 8.96302 178.209 9.00982Z" fill="#FF8383"/>
<path d="M62.6934 35.991L51.1807 46.3786H138.818L127.775 35.991H62.6934Z" fill="#00C097"/>
<path d="M138.818 46.3784H51.1807V48.2106H138.818V46.3784Z" fill="#353148"/>
<path d="M131.912 40.303H58.0873C57.9472 40.303 57.834 40.1957 57.834 40.063C57.834 39.9303 57.9472 39.823 58.0873 39.823H131.912C132.052 39.823 132.165 39.9303 132.165 40.063C132.165 40.1957 132.052 40.303 131.912 40.303Z" fill="white"/>
<path d="M91.2749 35.9902H90.1709V27.8479C90.1709 27.6295 90.3579 27.4526 90.5884 27.4526H90.8577C91.0882 27.4526 91.2749 27.6298 91.2749 27.8479V35.9902Z" fill="#353148"/>
<path d="M91.2754 28.3796L99.6394 37.5851V43.3962L91.2754 33.2651V28.3796Z" fill="white"/>
<path d="M99.8286 46.3782H98.7246V37.1668C98.7246 37.0036 98.8642 36.8711 99.0367 36.8711H99.5165C99.6888 36.8711 99.8286 37.0033 99.8286 37.1668V46.3782Z" fill="#353148"/>
<path opacity="0.28" d="M103.249 19.5461C102.145 18.2438 100.035 17.8418 98.313 17.8075C93.0006 17.7022 87.3077 19.1777 82.9501 22.0963C81.6842 22.9442 80.2283 23.9774 79.4609 25.2785C83.1999 23.4924 87.2725 22.1964 91.4585 22.0934C90.5503 22.446 88.912 23.6206 88.1343 24.1879C90.0156 23.5594 90.8604 23.233 94.5766 24.0727C96.6349 24.5378 98.8685 24.7675 100.965 24.4157C101.661 24.2988 102.365 24.1044 102.918 23.6878C103.768 23.0484 104.139 21.9238 103.921 20.9172C103.804 20.3758 103.568 19.9231 103.249 19.5461Z" fill="#FF8400"/>
<path opacity="0.82" d="M99.7161 19.819C98.9505 18.9159 97.4875 18.637 96.2928 18.6133C92.6083 18.5401 88.6601 19.5634 85.6376 21.5878C84.7596 22.1758 83.7498 22.8925 83.2178 23.7949C85.8109 22.5562 88.6356 21.6572 91.5388 21.5859C90.9087 21.8305 89.7725 22.645 89.2332 23.0384C90.5378 22.6026 91.1238 22.3762 93.7012 22.9585C95.1288 23.281 96.6779 23.4404 98.132 23.1963C98.6149 23.1152 99.1028 22.9806 99.4866 22.6914C100.076 22.2478 100.333 21.4678 100.182 20.7697C100.101 20.3946 99.9378 20.0806 99.7161 19.819Z" fill="#FF8400"/>
<path d="M98.2954 20.8441C98.4244 21.4655 97.9975 22.0684 97.3416 22.1905C96.6858 22.3127 96.0494 21.9083 95.9204 21.2869C95.7915 20.6656 96.2184 20.0629 96.8742 19.9405C97.5301 19.8181 98.1665 20.2228 98.2954 20.8441Z" fill="white"/>
<path opacity="0.64" d="M98.2955 20.8442C98.2598 20.6726 98.1826 20.5197 98.0797 20.3877C98.0952 20.4321 98.1131 20.4755 98.123 20.5226C98.252 21.1439 97.8251 21.7466 97.1692 21.869C96.6947 21.9575 96.2332 21.7677 95.9639 21.4219C96.1516 21.964 96.7358 22.3036 97.3417 22.1906C97.9976 22.0684 98.4247 21.4655 98.2955 20.8442Z" fill="#353148"/>
<path d="M57.8422 47.2937H56.3633V72.6713H57.8422V47.2937Z" fill="#353148"/>
<path d="M68.4421 47.2937H66.9629V70.3433H68.4421V47.2937Z" fill="#353148"/>
<path d="M132.157 72.6707H133.636V47.293H132.157V72.6707Z" fill="#353148"/>
<path d="M121.557 70.3445H123.036V47.2949H121.557V70.3445Z" fill="#353148"/>
<path d="M132.622 53.577H57.4993C57.0795 53.577 56.7393 53.2546 56.7393 52.857C56.7393 52.4593 57.0795 52.137 57.4993 52.137H132.622C133.042 52.137 133.382 52.4593 133.382 52.857C133.382 53.2546 133.042 53.577 132.622 53.577Z" fill="#353148"/>
<path d="M132.623 61.3803H57.4993C57.2118 61.3803 56.9491 61.2267 56.8201 60.9836C56.6912 60.7402 56.718 60.4489 56.8893 60.2305L67.0925 47.2412C67.3428 46.9222 67.8193 46.8562 68.1558 47.0936C68.4925 47.3307 68.5624 47.7819 68.3116 48.1009L59.0117 59.9403H131.101L121.689 48.0637C121.437 47.7459 121.505 47.2945 121.841 47.0557C122.176 46.8174 122.653 46.8812 122.905 47.1994L133.23 60.2283C133.403 60.4462 133.431 60.7383 133.302 60.9824C133.174 61.2262 132.911 61.3803 132.623 61.3803Z" fill="#353148"/>
<path opacity="0.51" d="M156.088 74.646C167.287 74.646 176.366 73.4071 176.366 71.8788C176.366 70.3505 167.287 69.1116 156.088 69.1116C144.888 69.1116 135.81 70.3505 135.81 71.8788C135.81 73.4071 144.888 74.646 156.088 74.646Z" fill="#5574D8"/>
<path d="M146.18 63.4883L146.544 65.9317L146.025 66.7513C145.001 67.5767 143.542 67.7106 142.37 67.0876L142.999 66.5003L142.271 64.4132L146.18 63.4883Z" fill="#F98178"/>
<path d="M142.483 66.5713L141.465 68.3428C141.435 68.3687 140.896 69.0407 140.86 69.0575C140.436 69.4581 139.952 69.7974 139.423 70.0645C138.499 70.5313 137.352 71.2237 137.454 71.8955C137.487 72.1173 138.909 72.3957 139.135 72.3376L147.768 69.6789C147.824 69.6645 147.943 69.6078 148.025 69.4823C148.43 68.8619 148.071 68.1229 147.671 67.4994L146.915 66.0328C146.818 65.8453 146.548 65.8168 146.411 65.9795C146.41 65.9807 146.409 65.9819 146.408 65.9831C145.588 66.9522 144.419 67.0681 143.267 66.4765C143.237 66.484 143.114 66.4398 142.984 66.394C142.794 66.327 142.58 66.4026 142.483 66.5713Z" fill="#FF8200"/>
<path d="M139.575 69.9833C140.045 69.7296 140.477 69.4181 140.86 69.0564C140.896 69.0396 141.435 68.3676 141.465 68.3417L141.947 67.5031L142.483 66.5703C142.501 66.5393 142.523 66.5115 142.548 66.4872C142.54 66.4947 142.533 66.5021 142.526 66.5103C142.572 66.4416 142.645 66.3252 142.713 66.1961C142.829 65.9741 143.171 65.9676 143.282 66.1918C143.286 66.1995 143.29 66.2074 143.293 66.2155C143.33 66.3058 143.364 66.4133 143.387 66.5347C143.538 67.3474 143.167 68.7982 139.502 70.0882C139.502 70.0882 139.528 70.0505 139.575 69.9833Z" fill="#FA9E00"/>
<path d="M143.044 68.0545C143.03 68.0545 143.015 68.0514 143.002 68.0452L141.909 67.5306C141.862 67.5085 141.843 67.4545 141.866 67.4099C141.89 67.3652 141.947 67.3477 141.994 67.3693L143.087 67.8836C143.134 67.906 143.153 67.9597 143.129 68.0044C143.113 68.0363 143.079 68.0545 143.044 68.0545Z" fill="#EAEAEA"/>
<path d="M142.596 68.7109C142.581 68.7109 142.567 68.7078 142.554 68.7015L141.461 68.187C141.414 68.1649 141.395 68.1109 141.418 68.0662C141.442 68.0216 141.499 68.0038 141.546 68.0257L142.638 68.5402C142.685 68.5626 142.704 68.6163 142.681 68.661C142.664 68.6926 142.631 68.7109 142.596 68.7109Z" fill="#EAEAEA"/>
<path d="M142.086 69.3835C142.072 69.3835 142.057 69.3804 142.044 69.3741L140.951 68.8596C140.904 68.8375 140.885 68.7835 140.908 68.7388C140.932 68.6942 140.989 68.6764 141.036 68.6983L142.129 69.2128C142.176 69.2352 142.195 69.2889 142.171 69.3336C142.155 69.3652 142.121 69.3835 142.086 69.3835Z" fill="#EAEAEA"/>
<path d="M146.143 69.3661C145.989 69.3661 145.838 69.328 145.701 69.2529C145.498 69.1408 145.352 68.9603 145.292 68.7448C145.231 68.529 145.263 68.3039 145.381 68.1107C145.499 67.9177 145.69 67.7797 145.917 67.7226C146.145 67.665 146.383 67.6953 146.587 67.8076C146.79 67.9197 146.936 68.1001 146.996 68.3157C147.057 68.5312 147.025 68.7565 146.907 68.9495C146.789 69.1427 146.598 69.2807 146.371 69.3378C146.295 69.3568 146.219 69.3661 146.143 69.3661ZM146.145 67.8743C146.085 67.8743 146.025 67.8817 145.966 67.8966C145.788 67.9417 145.638 68.0497 145.546 68.2014C145.453 68.3529 145.428 68.5293 145.475 68.6985C145.523 68.8679 145.637 69.0095 145.797 69.0973C145.957 69.1852 146.143 69.2085 146.321 69.1638C146.5 69.1187 146.65 69.0107 146.742 68.859C146.835 68.7076 146.86 68.5309 146.812 68.362C146.765 68.1925 146.651 68.0509 146.491 67.9631C146.384 67.9043 146.265 67.8743 146.145 67.8743Z" fill="#EAEAEA"/>
<path d="M148.135 69.186C148.135 69.186 149.804 70.2908 147.565 70.8905C145.326 71.4905 139.441 72.9353 139.441 72.9353C139.441 72.9353 137.83 72.9886 137.428 71.8311C137.428 71.8311 138.526 72.8571 141.726 71.2531C144.926 69.649 144.35 70.1571 146.338 69.9106C148.327 69.6639 148.135 69.186 148.135 69.186Z" fill="white"/>
<path d="M147.964 36.4236L137.346 47.0053C136.335 48.2715 137.146 50.1996 137.618 51.7229L141.799 65.3211C141.893 65.6273 142.215 65.8176 142.547 65.7634L146.38 65.1377C146.726 65.0576 146.947 64.7372 146.887 64.4048L145.268 51.7277L159.008 44.467C161.08 43.3721 162.116 41.0936 161.53 38.9153L160.688 35.8049L147.964 36.4236Z" fill="#30293A"/>
<path d="M170.556 59.9583L172.441 61.6615L172.57 62.6098C172.306 63.8587 171.251 64.8207 169.923 65.0208L170.032 64.1904L168.095 62.9806L170.556 59.9583Z" fill="#F98178"/>
<path d="M169.675 64.5484L170.036 66.5368C170.03 66.5742 170.047 67.4183 170.03 67.4524C169.959 68.0159 169.802 68.5665 169.562 69.0865C169.142 69.9957 168.696 71.2127 169.215 71.6802C169.386 71.8345 170.684 71.2177 170.824 71.0389L175.855 63.8812C175.89 63.837 175.946 63.7225 175.928 63.5761C175.84 62.8518 175.074 62.4829 174.353 62.2285L172.8 61.5222C172.601 61.432 172.37 61.5683 172.369 61.7769C172.369 61.7783 172.369 61.78 172.369 61.7814C172.36 63.0232 171.519 63.8008 170.228 64.0139C170.21 64.0369 170.084 64.0749 169.952 64.1152C169.759 64.1745 169.641 64.3588 169.675 64.5484Z" fill="#FFB1A8"/>
<path d="M169.675 64.5484L170.036 66.5368C170.03 66.5742 170.047 67.4183 170.03 67.4524C169.959 68.0159 169.802 68.5665 169.562 69.0865C169.142 69.9957 168.696 71.2127 169.215 71.6802C169.386 71.8345 170.684 71.2177 170.824 71.0389L175.855 63.8812C175.89 63.837 175.946 63.7225 175.928 63.5761C175.84 62.8518 175.074 62.4829 174.353 62.2285L172.8 61.5222C172.601 61.432 172.37 61.5683 172.369 61.7769C172.369 61.7783 172.369 61.78 172.369 61.7814C172.36 63.0232 171.519 63.8008 170.228 64.0139C170.21 64.0369 170.084 64.0749 169.952 64.1152C169.759 64.1745 169.641 64.3588 169.675 64.5484Z" fill="#FF8200"/>
<path d="M169.64 68.9392C169.843 68.4643 169.978 67.9658 170.041 67.4567C170.058 67.4227 170.041 66.5786 170.047 66.5411L169.876 65.5999L169.685 64.5527C169.679 64.5179 169.678 64.4834 169.681 64.4498C169.68 64.4599 169.68 64.4702 169.68 64.4805C169.67 64.3999 169.652 64.2652 169.62 64.1243C169.566 63.8819 169.83 63.6758 170.064 63.7862C170.072 63.79 170.08 63.7941 170.088 63.7984C170.176 63.8476 170.273 63.9119 170.37 63.9938C171.021 64.5424 171.681 65.8977 169.651 69.064C169.651 69.064 169.647 69.0199 169.64 68.9392Z" fill="#FA9E00"/>
<path d="M169.843 65.6426C169.799 65.6426 169.76 65.6136 169.75 65.5711C169.739 65.5226 169.772 65.4749 169.824 65.4645L171.018 65.2255C171.069 65.2164 171.119 65.2466 171.13 65.2951C171.141 65.3436 171.108 65.3913 171.057 65.4017L169.863 65.6407C169.856 65.6419 169.849 65.6426 169.843 65.6426Z" fill="#EAEAEA"/>
<path d="M169.922 66.4207C169.878 66.4207 169.839 66.3917 169.829 66.3492C169.818 66.3007 169.851 66.2529 169.903 66.2426L171.096 66.0038C171.147 65.9947 171.198 66.0249 171.209 66.0734C171.22 66.1219 171.187 66.1697 171.135 66.18L169.942 66.4188C169.935 66.42 169.929 66.4207 169.922 66.4207Z" fill="#EAEAEA"/>
<path d="M169.962 67.2489C169.918 67.2489 169.879 67.2198 169.869 67.1773C169.858 67.1289 169.891 67.0811 169.943 67.0708L171.137 66.832C171.188 66.8236 171.239 66.8531 171.249 66.9016C171.26 66.9501 171.227 66.9978 171.176 67.0082L169.982 67.2469C169.975 67.2481 169.969 67.2489 169.962 67.2489Z" fill="#EAEAEA"/>
<path d="M173.828 64.7688C173.644 64.7688 173.459 64.7146 173.301 64.603C173.112 64.469 172.99 64.2739 172.956 64.0531C172.923 63.8321 172.982 63.612 173.123 63.4334C173.264 63.2546 173.47 63.1387 173.703 63.1068C173.936 63.0751 174.169 63.131 174.357 63.2647C174.747 63.5405 174.827 64.0651 174.536 64.4342C174.363 64.6534 174.097 64.7688 173.828 64.7688ZM173.831 63.2779C173.798 63.2779 173.764 63.2803 173.731 63.2846C173.548 63.3096 173.386 63.4008 173.275 63.541C173.164 63.6811 173.118 63.8539 173.144 64.027C173.171 64.2005 173.267 64.3534 173.415 64.4582C173.72 64.6745 174.155 64.6152 174.384 64.326C174.612 64.0366 174.549 63.6247 174.243 63.4085C174.123 63.323 173.979 63.2779 173.831 63.2779Z" fill="#EAEAEA"/>
<path d="M175.821 63.28C175.821 63.28 177.854 63.1663 176.49 64.9521C175.126 66.7382 171.456 71.3289 171.456 71.3289C171.456 71.3289 170.227 72.3172 169.153 71.6455C169.153 71.6455 170.687 71.8051 172.147 68.6668C173.607 65.5286 173.488 66.2654 174.886 64.9036C176.285 63.5419 175.821 63.28 175.821 63.28Z" fill="white"/>
<path d="M171.931 59.9914L162.291 51.2564L161.662 40.6702L158.361 39.6471L161.659 40.6693C161.724 40.094 161.688 39.5017 161.53 38.9158L160.688 35.8054L147.964 36.4241L152.772 51.3241C153.505 53.4773 155.844 55.1146 157.751 56.4764C161.898 59.4382 168.532 64.1273 168.532 64.1273L171.951 60.3757C172.053 60.2629 172.045 60.0941 171.931 59.9914Z" fill="#353148"/>
<path d="M160.864 21.3442L163.76 15.482C163.98 15.0337 163.733 14.5045 163.235 14.3561C159.02 13.1012 157.556 11.5297 150.493 11.779C146.815 11.9089 142.511 12.7419 140.005 14.9353C138.992 15.8225 137.831 16.5461 136.744 17.3513C136.483 17.5443 136.425 17.8957 136.61 18.1553L140.437 23.5174C140.73 23.9261 141.336 23.9969 141.726 23.6681L144.199 21.5811L145.269 36.482C145.353 37.316 146.149 37.9249 147.042 37.8377L160.127 36.5602C161.322 36.4436 162.069 35.2928 161.625 34.2512L159.125 21.3032L160.066 21.6476C160.375 21.7609 160.723 21.6281 160.864 21.3442Z" fill="#FA9E00"/>
<path opacity="0.63" d="M159.124 21.3032L155.983 20.3125L159.671 24.1364L159.124 21.3032Z" fill="#FF8400"/>
<path opacity="0.32" d="M158.412 30.0533C156.983 30.7587 155.555 31.4671 154.122 32.1653C154.02 32.2152 153.915 32.2668 153.835 32.3455C153.717 32.4617 153.664 32.6345 153.698 32.7927C153.732 32.9508 153.852 33.09 154.009 33.1529C154.193 33.2263 154.405 33.1959 154.595 33.1373C154.845 33.0603 155.092 32.9787 155.343 32.9035C155.59 32.8296 155.769 33.1258 155.578 33.2907C154.88 33.8904 154.182 34.4895 153.483 35.0878C153.345 35.2056 153.199 35.3386 153.174 35.5128C153.14 35.7509 153.402 35.9813 153.65 35.9311C153.751 35.9107 153.839 35.8548 153.924 35.7999C154.455 35.4564 155.002 35.1339 155.518 34.7695C155.919 34.4861 156.22 34.3618 156.492 34.1326C156.402 34.2079 156.26 34.3085 156.171 34.3839C155.631 34.8401 155.098 35.3016 154.54 35.7358C154.453 35.8032 154.382 35.9119 154.345 36.0127C154.321 36.079 154.319 36.1527 154.341 36.2194C154.364 36.2861 154.413 36.3461 154.48 36.3775C154.557 36.4145 154.652 36.4097 154.734 36.3828C154.875 36.3367 155.01 36.2698 155.13 36.1863C155.474 35.9463 155.815 35.7036 156.16 35.4646C156.511 35.2212 156.851 34.9445 157.218 34.7239C157.116 34.7851 157.029 34.8802 156.944 34.9594C156.764 35.1257 156.589 35.2959 156.416 35.4679C156.242 35.6405 156.012 35.8248 155.995 36.0797C155.988 36.1875 156.034 36.3084 156.138 36.3514C156.186 36.3713 156.241 36.3723 156.293 36.3634C156.463 36.3341 156.596 36.2105 156.722 36.1056C156.844 36.0034 156.966 35.9014 157.088 35.7994C157.335 35.593 157.582 35.3861 157.826 35.1763C157.967 35.058 158.109 34.9399 158.25 34.8216L157.853 35.3878C157.697 35.6028 157.54 36.0533 157.789 36.1659C157.931 36.2307 158.103 36.1865 158.192 36.0622L160.974 32.7274L160.743 32.7348C160.787 32.6983 160.83 32.6619 160.874 32.6254L160.974 32.7271L161.252 32.3227L160.104 26.3782L158.412 30.0533Z" fill="#FF8400"/>
<path opacity="0.63" d="M144.198 21.5813L145.845 20.1919L144.495 25.7174L144.198 21.5813Z" fill="#FF8400"/>
<path opacity="0.63" d="M149.586 16.7411L150.095 16.6672C152.02 16.3871 153.354 14.6656 153.058 12.8413L152.884 11.7657C152.163 11.7445 151.371 11.7472 150.493 11.7781C148.818 11.8374 147.014 12.0448 145.309 12.4576L145.548 13.9336C145.843 15.7576 147.66 17.0212 149.586 16.7411Z" fill="#FF8400"/>
<path d="M167.122 17.8147L163.517 15.9734L160.863 21.3455L162.678 22.3622L159.214 30.0544C157.785 30.7598 156.357 31.4683 154.924 32.1664C154.822 32.2163 154.717 32.268 154.637 32.3467C154.519 32.4628 154.465 32.6356 154.5 32.7938C154.534 32.9519 154.654 33.0912 154.811 33.154C154.995 33.2275 155.207 33.197 155.397 33.1384C155.647 33.0614 155.894 32.9798 156.145 32.9047C156.392 32.8307 156.571 33.1269 156.38 33.2918C155.682 33.8915 154.984 34.4906 154.285 35.0889C154.147 35.2067 154.001 35.3397 153.976 35.5139C153.942 35.752 154.204 35.9824 154.452 35.9323C154.552 35.9119 154.64 35.8559 154.725 35.801C155.257 35.4575 155.804 35.135 156.32 34.7707C156.721 34.4872 157.022 34.3629 157.293 34.1337C157.204 34.2091 157.062 34.3096 156.973 34.385C156.433 34.8412 155.9 35.3027 155.341 35.7369C155.254 35.8043 155.183 35.9131 155.147 36.0139C155.122 36.0801 155.12 36.1538 155.143 36.2205C155.166 36.2872 155.215 36.3472 155.281 36.3787C155.359 36.4156 155.453 36.4108 155.535 36.3839C155.677 36.3379 155.812 36.2709 155.931 36.1874C156.275 35.9474 156.617 35.7047 156.961 35.4657C157.313 35.2223 157.652 34.9456 158.02 34.7251C157.918 34.7863 157.831 34.8813 157.745 34.9605C157.566 35.1268 157.39 35.297 157.217 35.4691C157.043 35.6416 156.814 35.8259 156.796 36.0808C156.789 36.1886 156.835 36.3095 156.94 36.3525C156.988 36.3724 157.042 36.3734 157.094 36.3645C157.265 36.3352 157.398 36.2116 157.523 36.1067C157.645 36.0045 157.768 35.9025 157.89 35.8005C158.137 35.5941 158.384 35.3872 158.628 35.1775C158.769 35.0592 158.91 34.9411 159.051 34.8227L158.654 35.3889C158.498 35.6039 158.342 36.0544 158.59 36.167C158.733 36.2318 158.904 36.1876 158.993 36.0633L161.776 32.7285L165.027 27.9969L165.046 28.0127L168.506 22.7745C169.644 21.0532 169.009 18.779 167.122 17.8147Z" fill="#F98178"/>
<path opacity="0.57" d="M163.267 21.1531L160.863 21.3458L162.678 22.3627L163.267 21.1531Z" fill="#E05757"/>
<path d="M148.928 33.1625C148.732 32.8659 148.456 32.5006 148.118 32.1814C148.018 31.7828 147.71 30.7155 147.178 30.2168C146.517 29.5968 145.3 29.6165 145.3 29.6165L144.055 29.0981L139.305 24.7114L140.554 23.6516L136.721 18.3137L133.579 20.6129C131.964 21.949 131.876 24.3 133.388 25.741L141.841 32.5083L141.859 32.4838L144.35 34.9416C144.581 35.2666 145.047 35.3523 145.389 35.1332C145.489 35.0693 145.516 34.9409 145.448 34.8464L145.333 34.6844L145.634 35.1077C145.846 35.406 146.274 35.4848 146.589 35.2836L146.654 35.2419C146.886 35.0936 146.948 34.7952 146.791 34.5752L146.376 33.9915L146.947 34.7948C147.134 35.0571 147.51 35.1262 147.787 34.9493L147.873 34.8941C148.155 34.7139 148.23 34.3512 148.04 34.0841L147.632 33.512L147.937 33.9396C148.111 34.1842 148.462 34.2488 148.72 34.0839C149.04 33.8794 149.133 33.4721 148.928 33.1625Z" fill="#F98178"/>
<path opacity="0.57" d="M147.377 33.3902C147.339 33.3324 147.356 33.2561 147.416 33.2179C147.477 33.179 147.561 33.1946 147.602 33.253L148.141 34.0178C148.187 34.0692 148.166 34.1549 148.105 34.194C148.043 34.2329 147.96 34.2173 147.919 34.1589L147.379 33.3943C147.378 33.3929 147.377 33.3914 147.377 33.3902Z" fill="#E05757"/>
<path opacity="0.57" d="M146.808 34.8629C146.808 34.8622 146.808 34.862 146.807 34.8612L146.177 33.8643C146.139 33.8041 146.16 33.7263 146.223 33.6903C146.287 33.6543 146.363 33.68 146.407 33.734L147.037 34.7309C147.075 34.7912 147.054 34.8689 146.991 34.9049C146.928 34.9407 146.847 34.9217 146.808 34.8629Z" fill="#E05757"/>
<path opacity="0.57" d="M139.946 24.1656L138.252 23.2473L139.305 24.7092L139.946 24.1656Z" fill="#E05757"/>
<path opacity="0.57" d="M144.938 34.2901C144.9 34.2323 144.917 34.156 144.977 34.1178C145.039 34.0789 145.122 34.0945 145.163 34.1529L145.67 34.8719C145.715 34.9261 145.695 35.0085 145.633 35.0478C145.572 35.0865 145.489 35.0709 145.448 35.0128L144.94 34.2937C144.94 34.2923 144.939 34.2913 144.938 34.2901Z" fill="#E05757"/>
<path opacity="0.57" d="M146.146 30.4936L148.124 32.2024C148.124 32.2024 146.635 30.3688 146.146 30.4936Z" fill="#E05757"/>
<path d="M147.617 30.1513L148.164 30.4796C149.882 31.5101 152.156 31.0263 153.244 29.3989L154.6 27.3706C155.688 25.7432 155.177 23.5887 153.459 22.5581L152.912 22.2298C151.194 21.1993 148.92 21.6831 147.832 23.3105L146.476 25.3388C145.388 26.966 145.899 29.1207 147.617 30.1513Z" fill="#6AC3D3"/>
<path opacity="0.46" d="M149.937 30.4898C149.319 30.4898 148.712 30.3244 148.177 30.0033L148.06 29.9337C146.522 29.0107 146.063 27.0734 147.037 25.6156L148.173 23.916C149.147 22.4584 151.192 22.0231 152.731 22.9463L152.847 23.016C153.592 23.4631 154.109 24.1586 154.303 24.9741C154.496 25.7896 154.342 26.6277 153.87 27.334L152.734 29.0337C152.262 29.7398 151.528 30.2296 150.667 30.413C150.425 30.4641 150.18 30.4898 149.937 30.4898ZM148.162 29.7813L148.278 29.8509C148.98 30.2723 149.814 30.4094 150.626 30.2368C151.437 30.0643 152.129 29.6025 152.574 28.937L153.71 27.2373C154.155 26.5718 154.299 25.7819 154.117 25.0132C153.935 24.2445 153.447 23.5891 152.745 23.1676L152.629 23.098C151.178 22.2278 149.251 22.6375 148.333 24.0119L147.197 25.7116C146.279 27.0856 146.712 28.9113 148.162 29.7813Z" fill="white"/>
<path d="M147.889 30.3156C146.788 29.6549 146.143 28.5694 146.041 27.4268L151.225 30.7313C150.141 31.051 148.923 30.9358 147.889 30.3156Z" fill="#121936"/>
<path d="M150.03 31.0241C149.256 31.0241 148.491 30.8182 147.822 30.4172C146.721 29.7565 146.026 28.6702 145.916 27.4371L145.894 27.1877L151.516 30.7719L151.263 30.8463C150.859 30.9653 150.443 31.0241 150.03 31.0241ZM147.958 30.2144C148.844 30.7455 149.911 30.9121 150.926 30.685L146.2 27.6725C146.371 28.7237 147.001 29.6403 147.958 30.2144Z" fill="#121936"/>
<path d="M147.695 31.8318L148.793 29.9721C148.958 29.691 148.863 29.337 148.576 29.165L148.571 29.1618C148.291 28.9943 147.924 29.0555 147.721 29.3032L146.516 30.8133L147.695 31.8318Z" fill="#121936"/>
<path d="M148.738 -2.16462C148.303 -2.50326 147.705 -2.64126 147.123 -2.48406C146.832 -2.40558 146.58 -2.26278 146.377 -2.07702C145.925 -2.79822 145.005 -3.17214 144.113 -2.93166C143.275 -2.70534 142.717 -2.00334 142.668 -1.22262C142.465 -1.23678 142.257 -1.2279 142.048 -1.18782C140.775 -0.943979 139.95 0.264182 140.206 1.51098C140.389 2.40858 141.084 3.07866 141.933 3.29442L142.117 4.99338C142.22 5.93586 143.109 6.62154 144.104 6.52506L151.83 5.7765L151.707 4.64706C151.902 4.66626 152.128 4.68642 152.388 4.69122C152.388 4.69122 153.583 -1.84062 148.738 -2.16462Z" fill="#121936"/>
<path d="M151.183 6.43514C151.174 6.38282 151.16 6.33242 151.149 6.2813C151.224 6.27026 151.298 6.25515 151.369 6.23355C152.017 6.03771 152.453 5.41898 152.386 4.73522C152.385 4.72634 152.385 4.7177 152.384 4.70882C152.293 3.92186 151.566 3.35403 150.763 3.44043L150.733 3.44355L150.618 3.45578C148.858 4.09658 149.012 4.83674 149.046 4.93634C149.047 4.93802 149.048 4.93994 149.048 4.94186C149.052 4.95194 149.05 4.9493 149.046 4.93634C148.935 4.6685 148.622 4.36874 148.574 4.0697C148.469 3.41666 148.798 2.67554 148.522 2.06234C148.429 1.85522 148.299 1.6685 148.146 1.50146C147.792 1.85282 147.293 2.07266 146.74 2.07266C146.4 2.07266 146.081 1.9901 145.804 1.84538C145.474 2.08898 145.06 2.23562 144.609 2.23562C144.36 2.23562 144.123 2.18954 143.903 2.10866C143.568 2.57354 143.013 2.88242 142.381 2.90858L142.498 3.90866L142.616 4.91643L143.03 8.46002C143.03 8.46026 143.03 8.46026 143.03 8.4605L143.05 8.62635C143.22 10.0824 144.412 11.185 145.845 11.3254L146.181 13.3445C146.451 14.9664 148.013 16.0733 149.67 15.8165C151.326 15.5597 152.449 14.0369 152.179 12.4147L151.183 6.43514Z" fill="#F98178"/>
<path d="M145.845 11.3283C145.845 11.3283 148.001 11.3581 149.536 9.61206C149.536 9.61206 149.069 11.9607 146.187 13.0561L145.845 11.3283Z" fill="#E05757"/>
<path d="M151.172 5.34994C151.162 5.34994 151.152 5.34851 151.142 5.34515L150.63 5.18002C150.581 5.16418 150.554 5.11354 150.57 5.06674L150.847 4.27067C150.863 4.22339 150.917 4.1977 150.967 4.2133C151.016 4.2289 151.044 4.27978 151.027 4.32706L150.78 5.03866L151.203 5.17499C151.253 5.19107 151.279 5.24218 151.262 5.28898C151.249 5.32642 151.212 5.34994 151.172 5.34994Z" fill="#E05757"/>
<path d="M146.009 9.40064C146.024 9.39584 146.038 9.38624 146.048 9.37256C146.071 9.33944 146.062 9.2948 146.027 9.27248C145.878 9.17696 145.511 9.05768 145.19 9.2888C145.157 9.31304 145.15 9.3584 145.176 9.38984C145.201 9.42152 145.249 9.428 145.282 9.40352C145.595 9.17792 145.928 9.38312 145.942 9.392C145.963 9.40544 145.987 9.4076 146.009 9.40064Z" fill="#E05757"/>
<path d="M145.439 4.09511C145.523 3.99599 145.671 3.93791 145.81 3.87431C145.952 3.81287 146.093 3.74783 146.213 3.68711C146.334 3.62639 146.47 3.55223 146.603 3.47519C146.737 3.40151 146.872 3.31751 147.004 3.30815C147.13 3.29759 147.239 3.39503 147.198 3.60287C147.163 3.80279 146.949 4.10879 146.55 4.31063C146.151 4.51007 145.768 4.50455 145.578 4.41815C145.378 4.33103 145.358 4.18919 145.439 4.09511Z" fill="#121936"/>
<path d="M143.963 4.25625C143.867 4.20321 143.735 4.20033 143.607 4.19049C143.477 4.18305 143.348 4.17273 143.236 4.16001C143.123 4.14729 142.995 4.12833 142.867 4.10649C142.741 4.08729 142.61 4.06065 142.505 4.09065C142.404 4.11825 142.351 4.22457 142.448 4.37361C142.538 4.51833 142.8 4.69425 143.172 4.73721C143.544 4.77849 143.838 4.66593 143.958 4.54497C144.085 4.42161 144.056 4.30617 143.963 4.25625Z" fill="#121936"/>
<path d="M143.718 5.38134C143.813 5.48958 143.797 5.65038 143.683 5.74038C143.569 5.83038 143.399 5.81525 143.304 5.70701C143.209 5.59877 143.225 5.43798 143.339 5.34798C143.454 5.25822 143.624 5.2731 143.718 5.38134Z" fill="#121936"/>
<path d="M146.643 5.05306C146.749 5.17498 146.732 5.3557 146.603 5.45674C146.475 5.55778 146.284 5.54098 146.177 5.41906C146.07 5.29714 146.088 5.11642 146.217 5.01538C146.345 4.91458 146.536 4.93114 146.643 5.05306Z" fill="#121936"/>
<path d="M145.404 6.76785C145.429 6.75993 145.445 6.73713 145.443 6.71169C145.44 6.68193 145.412 6.66009 145.381 6.66273L144.858 6.70713C144.513 6.73641 144.204 6.45801 144.169 6.08697L144.164 6.03561C144.149 5.88129 144.252 5.74569 144.394 5.73369C144.555 5.72001 144.699 5.64129 144.8 5.51169C144.9 5.38401 144.946 5.22201 144.931 5.05569L144.855 4.29849C144.852 4.26873 144.824 4.24689 144.793 4.24977C144.762 4.25313 144.738 4.27905 144.742 4.30881L144.817 5.06601C144.83 5.20569 144.792 5.34153 144.709 5.44761C144.627 5.55201 144.512 5.61537 144.384 5.62617C144.18 5.64345 144.03 5.83161 144.051 6.04545L144.055 6.09681C144.096 6.52761 144.461 6.84969 144.869 6.81513L145.391 6.77073C145.396 6.77001 145.4 6.76905 145.404 6.76785Z" fill="#E05757"/>
<path d="M144.809 6.90724C144.608 6.90724 144.416 6.83332 144.26 6.6958C144.089 6.54484 143.983 6.33485 143.961 6.10421L143.956 6.05332C143.931 5.78956 144.12 5.55772 144.376 5.53612C144.476 5.52772 144.567 5.47708 144.632 5.39356C144.702 5.305 144.734 5.19148 144.723 5.0734L144.647 4.31668C144.639 4.23892 144.7 4.1686 144.782 4.15996C144.826 4.15588 144.864 4.16788 144.895 4.19212C144.927 4.2166 144.946 4.2514 144.95 4.2898L145.025 5.047C145.043 5.23564 144.99 5.41948 144.877 5.56517C144.759 5.71565 144.591 5.80708 144.403 5.82316C144.356 5.82724 144.325 5.85293 144.306 5.87405C144.271 5.91389 144.254 5.96981 144.259 6.02717L144.264 6.079C144.294 6.40036 144.556 6.64277 144.85 6.61733L145.373 6.57293C145.413 6.56981 145.452 6.58108 145.484 6.60604C145.515 6.63076 145.534 6.66532 145.538 6.70396C145.544 6.76972 145.502 6.83092 145.436 6.85276L145.399 6.8602L144.877 6.90437C144.855 6.90629 144.832 6.90724 144.809 6.90724Z" fill="#E05757"/>
<path d="M146.066 7.46765C146.022 7.46765 145.983 7.43909 145.973 7.39709C145.962 7.34861 145.994 7.30061 146.045 7.28957L147.094 7.06781C147.193 7.04693 147.275 6.98981 147.326 6.90701C147.376 6.82421 147.388 6.72797 147.358 6.63653C147.343 6.58901 147.371 6.53861 147.421 6.52397C147.472 6.50885 147.524 6.53597 147.54 6.58349C147.585 6.72149 147.566 6.87245 147.49 6.99725C147.413 7.12205 147.284 7.21181 147.136 7.24349L146.087 7.46525C146.079 7.46693 146.073 7.46765 146.066 7.46765Z" fill="#E05757"/>
<path opacity="0.51" d="M40.7292 75.1123C51.9285 75.1123 61.0073 73.8734 61.0073 72.3451C61.0073 70.8168 51.9285 69.5779 40.7292 69.5779C29.53 69.5779 20.4512 70.8168 20.4512 72.3451C20.4512 73.8734 29.53 75.1123 40.7292 75.1123Z" fill="#5574D8"/>
<path d="M49.7777 6.38628L49.9829 6.3294L50.0313 5.32884C50.1028 3.849 48.6395 2.57796 46.7631 2.48988L46.5829 2.48148C46.2683 2.16636 45.8473 1.96428 45.3748 1.94412L43.5936 1.8678C42.2241 1.809 40.9597 2.361 40.0343 3.28836C37.3515 3.10956 34.961 4.80324 34.598 7.22004L33.9492 11.5396C35.8143 11.7908 37.5288 10.6451 37.7789 8.97996L38.056 7.13508C38.116 6.735 38.3119 6.3834 38.5951 6.11004C38.5642 6.29892 38.5406 6.49044 38.5302 6.68604C38.4869 7.497 38.9163 8.21292 39.5671 8.54556L39.2809 10.214C39.0724 11.4292 39.9433 12.5744 41.226 12.7717L42.1656 12.9164C43.4482 13.114 44.6571 12.2888 44.8653 11.0737L45.1729 9.28116C45.2527 8.81508 45.1729 8.36004 44.973 7.96404C45.4556 7.62756 45.8799 7.20588 46.2227 6.71484C46.8122 6.86004 47.4349 6.8946 48.052 6.81276L48.3178 10.4418C50.5532 8.433 50.4394 7.15788 49.7777 6.38628Z" fill="#121936"/>
<path d="M44.585 5.94849C44.3762 7.25289 43.1552 8.22224 41.734 8.15744L40.3515 8.09457C39.6589 8.22633 39.114 8.78577 39.0679 9.48345L39.0656 9.51801C39.0109 10.3494 39.684 11.0718 40.5613 11.1236L41.2015 11.1615L40.555 15.9298C40.4247 17.294 41.7661 18.1928 43.2291 18.3183L43.2899 18.3236C44.7532 18.4491 46.0569 17.4354 46.1871 16.0712L46.3046 14.8405C48.0245 14.5794 49.3352 13.1662 49.3246 11.4642L49.2947 6.62264C49.2945 6.5876 49.2899 6.55377 49.2886 6.51897L48.7227 6.67569C47.2822 7.07433 45.728 6.79881 44.585 5.94849Z" fill="#FFA698"/>
<path d="M46.3009 14.8489C46.3009 14.8489 43.1657 14.7198 42.7434 13.6223C42.7434 13.6223 42.4477 15.2164 46.1317 16.3768L46.3009 14.8489Z" fill="#FF6969"/>
<path d="M40.4538 10.1167C40.4082 10.1167 40.3641 10.0932 40.3415 10.0522C40.3091 9.99337 40.3334 9.92089 40.3952 9.89017L40.8163 9.68209L40.4094 9.15865C40.3679 9.10537 40.38 9.03025 40.436 8.99089C40.4925 8.95177 40.5718 8.96281 40.6131 9.01633L41.1079 9.65233C41.1299 9.68041 41.1378 9.71641 41.1294 9.75049C41.121 9.78457 41.0972 9.81361 41.0645 9.82993L40.5123 10.1028C40.4938 10.1124 40.4738 10.1167 40.4538 10.1167Z" fill="#FC6969"/>
<path d="M48.7124 9.70171C48.7023 9.86347 48.5554 9.98659 48.3849 9.97699C48.2141 9.96739 48.0842 9.82819 48.0943 9.66667C48.1047 9.50491 48.2511 9.38179 48.4219 9.39139C48.5926 9.40099 48.7228 9.53995 48.7124 9.70171Z" fill="#121936"/>
<path d="M45.8726 9.53497C45.8625 9.69673 45.7158 9.81985 45.545 9.81025C45.3743 9.80065 45.2443 9.66145 45.2545 9.49993C45.2646 9.33817 45.4115 9.21505 45.582 9.22465C45.7528 9.23449 45.883 9.37345 45.8726 9.53497Z" fill="#121936"/>
<path d="M46.488 12.9331C46.4531 12.9331 46.4186 12.9194 46.3933 12.8927C46.3469 12.8433 46.3515 12.7675 46.4039 12.7233C46.7913 12.3962 47.2432 12.6335 47.2627 12.6436C47.3235 12.6763 47.3448 12.7495 47.3103 12.8073C47.2756 12.8649 47.1984 12.8846 47.1378 12.8524C47.1224 12.844 46.8219 12.6919 46.5724 12.9023C46.5481 12.9232 46.5179 12.9331 46.488 12.9331Z" fill="#FC6969"/>
<path d="M46.3469 8.23547C46.2833 8.14619 46.1622 8.08787 46.049 8.02475C45.9335 7.96379 45.819 7.89971 45.7217 7.84067C45.6241 7.78163 45.5145 7.71011 45.4073 7.63667C45.2994 7.56563 45.1917 7.48619 45.0808 7.46963C44.9744 7.45259 44.8755 7.52795 44.8951 7.70627C44.9105 7.87763 45.0699 8.15003 45.3926 8.34635C45.7156 8.54075 46.0396 8.56067 46.2068 8.49971C46.3814 8.43899 46.4092 8.32043 46.3469 8.23547Z" fill="#121936"/>
<path d="M47.8101 8.27083C47.8878 8.21059 48.0054 8.19019 48.1181 8.16427C48.2321 8.14027 48.3459 8.11363 48.4439 8.08699C48.5422 8.06035 48.6539 8.02627 48.7641 7.98979C48.8743 7.95571 48.9866 7.91419 49.0846 7.92691C49.1791 7.93795 49.2424 8.02531 49.1783 8.17147C49.1193 8.31259 48.9121 8.50483 48.587 8.59339C48.262 8.68027 47.9828 8.61955 47.858 8.52787C47.7267 8.43451 47.7348 8.32771 47.8101 8.27083Z" fill="#121936"/>
<path d="M47.125 10.8348C47.1179 10.8348 47.1108 10.8345 47.1037 10.8345L46.5299 10.8172C46.46 10.8151 46.405 10.7599 46.4073 10.6934C46.4096 10.6274 46.4663 10.5736 46.538 10.5775L47.1118 10.5948C47.2243 10.5996 47.3239 10.5602 47.4019 10.4882C47.4802 10.4164 47.5227 10.32 47.5225 10.217L47.522 10.0804C47.5217 9.96813 47.4363 9.87429 47.3193 9.85749L47.1995 9.8402C47.1159 9.82796 47.0535 9.761 47.0508 9.68132L47.0201 8.78229C47.0178 8.71605 47.0728 8.6606 47.1425 8.65844C47.144 8.6582 47.1455 8.6582 47.1468 8.6582C47.2149 8.6582 47.2712 8.70933 47.2734 8.77437L47.3018 9.6122L47.3573 9.62013C47.5987 9.65493 47.7745 9.84813 47.7753 10.0795L47.7758 10.216C47.7763 10.385 47.7064 10.5427 47.5787 10.6603C47.4556 10.7731 47.2952 10.8348 47.125 10.8348Z" fill="#FC6969"/>
<path d="M45.8672 11.8259C45.8556 11.8259 45.8436 11.8245 45.8317 11.8211L44.5983 11.4806C44.3272 11.4057 44.1704 11.1208 44.2487 10.8455L44.2922 10.6922C44.3102 10.6281 44.3791 10.5909 44.4473 10.6074C44.5149 10.6247 44.5549 10.6905 44.5367 10.7546L44.4931 10.9079C44.4513 11.0555 44.5319 11.2122 44.6689 11.2502L45.9024 11.5907C45.9698 11.6092 46.0083 11.6759 45.9888 11.7395C45.9726 11.7918 45.9219 11.8259 45.8672 11.8259Z" fill="#FC6969"/>
<path d="M60.1811 28.9554H60.1816C60.0392 28.5591 59.8277 28.1715 59.5353 27.8163L51.8667 17.9785C51.3972 17.3893 50.1942 16.6218 49.4782 16.5102C49.4212 16.5013 49.3637 16.497 49.3065 16.4912C49.2974 16.4898 49.2893 16.4874 49.2801 16.4859C48.4391 16.3525 45.3704 16.2591 44.861 16.2215C42.8214 16.0705 39.9995 15.8766 39.3492 15.8288C39.3363 15.8279 39.3231 15.8269 39.3102 15.8259C38.1798 15.6723 36.9975 16.0731 36.1266 16.8251C35.6356 17.2489 35.228 17.7486 34.8391 18.2562C34.4449 18.7707 33.9785 19.2474 33.5514 19.7427C32.6105 20.834 31.6697 21.9253 30.7288 23.0166C30.7288 23.1042 30.4481 23.3423 30.3855 23.4147C30.2596 23.5607 30.1337 23.7068 30.0078 23.8527C29.7565 24.1441 29.5037 24.4345 29.2541 24.7273C28.8387 25.2147 28.4278 25.6825 28.2028 26.2844C27.991 26.8518 27.9464 27.4837 28.1392 28.0568C28.4019 28.8385 29.0621 29.4119 29.7975 29.8045L34.2532 26.9113C34.2499 26.9091 34.2458 26.9075 34.2425 26.9053L33.3224 26.325L33.5512 26.1409L36.7406 24.1381C36.1825 27.7407 35.4281 32.7882 35.0745 35.1618C35.0129 35.5743 35.3949 35.8112 35.8464 35.9195C36.0159 35.96 46.2721 37.4245 49.2568 37.8503C49.6893 37.9119 50.0814 37.6064 50.1019 37.1926C50.1969 35.283 50.4467 30.2351 50.6134 26.6367L54.3592 29.9881L54.5872 30.243L53.6494 30.8583C53.6458 30.8605 53.642 30.8624 53.6385 30.8646L57.8362 33.8461C59.9153 33.0207 60.8542 30.8485 60.1811 28.9554Z" fill="#4C30A8"/>
<path d="M46.0298 16.6565L40.5958 16.3029C40.2559 16.2809 39.9967 15.9991 40.02 15.677C40.0433 15.3549 40.3407 15.1094 40.6807 15.1315L46.1147 15.485C46.4547 15.5071 46.7138 15.7889 46.6905 16.1109C46.6672 16.4333 46.3698 16.6788 46.0298 16.6565Z" fill="#3C2291"/>
<path d="M50.6131 26.6364L48.6465 24.5532L50.453 30.0228L50.6131 26.6364Z" fill="#3C2291"/>
<path d="M44.4443 20.601C44.5793 20.5165 44.7012 20.4085 44.8 20.2854C44.8521 20.2204 44.8863 20.1381 44.8739 20.0572C44.8633 19.9883 44.8192 19.9261 44.7599 19.8851C44.7009 19.8441 44.6269 19.8229 44.5537 19.8239C44.4425 19.8251 44.3123 19.8546 44.2183 19.911C43.6136 20.2732 42.9896 20.6044 42.369 20.9428C42.2664 20.9987 42.1222 21.0942 42.0196 21.1501C42.3317 20.9795 42.5486 20.7505 42.9547 20.4817C43.4768 20.1359 43.9672 19.749 44.4734 19.3825C44.5545 19.324 44.6373 19.2633 44.689 19.18C44.8159 18.9748 44.6687 18.6695 44.422 18.6256C44.2411 18.5934 44.0638 18.6827 43.9039 18.7686C43.0925 19.2049 42.2806 19.6405 41.4681 20.0749C41.2454 20.194 41.0081 19.941 41.1578 19.7447C41.3103 19.5448 41.4684 19.3499 41.6227 19.1512C41.7397 19.0005 41.836 18.8212 41.8203 18.6347C41.8068 18.4753 41.7063 18.3246 41.5598 18.2449C41.4134 18.1653 41.2254 18.1585 41.0734 18.2279C40.9703 18.2749 40.8867 18.3522 40.8051 18.4281C39.637 19.5143 38.7103 20.8129 37.5361 21.8934L30.2645 25.7725C29.0084 26.4426 28.6343 27.9959 29.4662 29.1112C29.4824 29.1328 29.4986 29.1546 29.5151 29.1762C30.5016 30.4849 32.4728 30.6897 33.7549 29.6353L39.481 24.9265L43.4056 23.2655C43.5566 23.2249 43.6536 23.0862 43.6339 22.9389C43.5997 22.6825 43.1039 22.6821 42.8417 22.7541L42.1562 22.9312C42.3175 22.8424 42.4787 22.7531 42.64 22.6643C42.9243 22.5124 43.2062 22.3569 43.4882 22.2009C43.6275 22.1238 43.7669 22.0465 43.9062 21.9697C44.0491 21.891 44.2132 21.8109 44.2953 21.6681C44.3201 21.6249 44.3361 21.5757 44.3315 21.5267C44.3214 21.4204 44.2155 21.3417 44.1063 21.3148C43.8094 21.2413 43.5181 21.4461 43.2696 21.5401C43.0854 21.6097 42.9116 21.6997 42.7383 21.7912C42.6253 21.8507 42.4842 21.9011 42.3804 21.982C42.7138 21.7233 43.094 21.507 43.4449 21.2701C43.7772 21.0453 44.1041 20.8139 44.4443 20.601Z" fill="#3C2291"/>
<path d="M44.4443 20.9088C44.5793 20.8243 44.7012 20.7163 44.8 20.5932C44.8521 20.5281 44.8863 20.4458 44.8739 20.3649C44.8633 20.2961 44.8192 20.2339 44.7599 20.1929C44.7009 20.1518 44.6269 20.1307 44.5537 20.1317C44.4425 20.1329 44.3123 20.1624 44.2183 20.2188C43.6136 20.5809 42.9896 20.9121 42.369 21.2505C42.2664 21.3065 42.1222 21.4017 42.0196 21.4579C42.3317 21.2875 42.5486 21.0583 42.9547 20.7895C43.4768 20.4437 43.9672 20.0568 44.4734 19.6903C44.5545 19.6317 44.6373 19.571 44.689 19.4877C44.8159 19.2825 44.6687 18.9773 44.422 18.9333C44.2411 18.9014 44.0638 18.9905 43.9039 19.0764C43.0925 19.5127 42.2806 19.9483 41.4681 20.3827C41.2454 20.5017 41.0081 20.2488 41.1578 20.0525C41.3103 19.8525 41.4684 19.6577 41.6227 19.4589C41.7397 19.3082 41.836 19.1289 41.8203 18.9425C41.8068 18.7831 41.7063 18.6326 41.5598 18.5527C41.4134 18.473 41.2254 18.4665 41.0734 18.5357C40.9703 18.5825 40.8867 18.66 40.8051 18.7358C39.637 19.8221 38.7103 21.1207 37.5361 22.2012L30.2645 26.0801C29.0084 26.7501 28.6343 28.3034 29.4662 29.4187C29.4824 29.4403 29.4986 29.4621 29.5151 29.4837C30.5016 30.7925 32.4728 30.9972 33.7549 29.9429L39.481 25.2341L43.4056 23.573C43.5566 23.5325 43.6536 23.3937 43.6339 23.2464C43.5997 22.9901 43.1039 22.9896 42.8417 23.0616L42.1562 23.2387C42.3175 23.1499 42.4787 23.0606 42.64 22.9718C42.9243 22.8199 43.2062 22.6644 43.4882 22.5084C43.6275 22.4313 43.7669 22.3541 43.9062 22.2773C44.0491 22.1985 44.2132 22.1186 44.2953 21.9756C44.3201 21.9324 44.3361 21.8832 44.3315 21.8342C44.3214 21.7279 44.2155 21.6492 44.1063 21.6223C43.8094 21.5489 43.5181 21.7536 43.2696 21.8477C43.0854 21.9173 42.9116 22.0073 42.7383 22.0987C42.6253 22.1582 42.4842 22.2086 42.3804 22.2895C42.7138 22.0308 43.094 21.8145 43.4449 21.5777C43.7772 21.3528 44.1041 21.1217 44.4443 20.9088Z" fill="#FFA698"/>
<path d="M58.3062 31.7959C57.9302 30.6996 57.1667 29.85 56.2299 29.141C56.1734 29.0983 56.1151 29.0548 56.0459 29.0344C55.8337 28.9711 55.4162 29.1537 55.2016 29.2017C54.2974 29.404 53.3933 29.6064 52.4894 29.8087C51.3172 30.071 50.145 30.3333 48.9726 30.5956C47.9112 30.8332 46.8499 31.0706 45.7885 31.3082C45.217 31.4361 44.6454 31.564 44.0739 31.692C44.0516 31.697 44.0291 31.702 44.0068 31.7071L42.9656 31.362C42.9656 31.362 42.1025 30.5726 41.1864 30.5983C40.4492 30.6189 39.4709 31.192 39.1159 31.4157C38.6463 31.4308 38.188 31.5182 37.8363 31.6068C37.469 31.6994 37.2473 32.0522 37.3327 32.4028C37.4016 32.686 37.7001 32.8627 37.999 32.7972L38.5219 32.6829L37.8227 32.8358C37.4961 32.9073 37.2924 33.216 37.3679 33.5253L37.391 33.6201C37.465 33.9237 37.7849 34.1131 38.1054 34.043L39.0873 33.8282L38.3739 33.9842C38.1051 34.043 37.9377 34.2969 37.9995 34.5516L38.017 34.6236C38.1011 34.9689 38.4649 35.1842 38.8294 35.1045L39.1486 35.0347C39.0328 35.0599 38.9609 35.1693 38.9875 35.279C39.0792 35.6551 39.4752 35.8896 39.8721 35.8029L44.4504 35.5634L44.4544 35.4902C44.4544 35.4902 57.8254 33.8464 57.835 33.8452C58.616 33.7492 58.557 32.8238 58.4407 32.2804C58.406 32.117 58.3609 31.9552 58.3062 31.7959Z" fill="#FFA698"/>
<path opacity="0.57" d="M38.7904 32.7601C38.8588 32.7426 38.9006 32.6766 38.8844 32.6108C38.8677 32.5436 38.7967 32.5021 38.7258 32.5177L37.7943 32.7248C37.7251 32.733 37.6793 32.8078 37.6957 32.875C37.7125 32.9422 37.7834 32.9838 37.8543 32.9679L38.7858 32.7608C38.7876 32.761 38.7889 32.7606 38.7904 32.7601Z" fill="#FC6969"/>
<path opacity="0.57" d="M38.1568 34.1834C38.1575 34.1831 38.158 34.1831 38.1588 34.1829L39.3198 33.8656C39.39 33.8464 39.43 33.7773 39.41 33.7108C39.39 33.6443 39.3163 33.6141 39.2466 33.6254L38.0856 33.9426C38.0154 33.9618 37.9754 34.031 37.9954 34.0974C38.0151 34.1632 38.0873 34.2011 38.1568 34.1834Z" fill="#FC6969"/>
<path opacity="0.57" d="M39.9082 34.9618C39.9766 34.9443 40.0184 34.8783 40.0022 34.8126C39.9855 34.7454 39.9146 34.7038 39.8434 34.7197L38.9679 34.9148C38.8972 34.9258 38.8534 34.9978 38.8696 35.065C38.8863 35.1322 38.9572 35.1738 39.0284 35.1579L39.9039 34.9628C39.9055 34.9626 39.9067 34.9621 39.9082 34.9618Z" fill="#FC6969"/>
<path opacity="0.57" d="M41.7339 31.456L39.0967 31.4277C39.0967 31.4277 41.4691 31.0542 41.7339 31.456Z" fill="#FC6969"/>
<path opacity="0.32" d="M40.8018 30.5376L40.284 30.432C38.2963 30.0268 37.0315 28.1719 37.4591 26.2888L37.9612 24.0772C38.3888 22.1942 40.3468 20.9959 42.3345 21.401L42.8523 21.5066C44.8399 21.9117 46.1048 23.7667 45.6772 25.6497L45.1751 27.8613C44.7477 29.7444 42.7897 30.9427 40.8018 30.5376Z" fill="#3C2291"/>
<path d="M40.9669 30.7587L40.449 30.6531C38.4614 30.248 37.1965 28.3931 37.6241 26.51L38.1262 24.2984C38.5539 22.4154 40.5119 21.2171 42.4995 21.6222L43.0173 21.7278C45.005 22.1329 46.2699 23.9879 45.8422 25.8709L45.3401 28.0825C44.9125 29.9658 42.9545 31.1639 40.9669 30.7587Z" fill="#6AC3D3"/>
<path opacity="0.46" d="M41.6567 30.3226C41.4348 30.3226 41.2101 30.3005 40.9846 30.2547L40.6398 30.1846C39.8061 30.0147 39.0922 29.5472 38.6291 28.8685C38.1663 28.1897 38.0102 27.3809 38.1898 26.5909L38.6788 24.4385C38.8579 23.6487 39.3511 22.9721 40.0678 22.5337C40.784 22.0952 41.6377 21.9473 42.4717 22.1173L42.8165 22.1876C43.6502 22.3575 44.3643 22.825 44.8272 23.5037C45.29 24.1825 45.4461 24.9913 45.2664 25.7813L44.7778 27.9334C44.456 29.3506 43.1286 30.3226 41.6567 30.3226ZM41.794 22.2289C41.2225 22.2289 40.6621 22.3841 40.1706 22.6849C39.4968 23.0972 39.0329 23.7334 38.8642 24.4762L38.3753 26.6285C38.2066 27.3716 38.3535 28.1321 38.7887 28.7705C39.2239 29.4089 39.8955 29.8484 40.6798 30.0082L41.0246 30.0783C42.6419 30.409 44.2437 29.4289 44.5923 27.8953L45.081 25.7432C45.2497 25.0001 45.103 24.2393 44.6676 23.6012C44.2323 22.9628 43.5608 22.5233 42.7764 22.3635L42.4316 22.2932C42.2196 22.2502 42.006 22.2289 41.794 22.2289Z" fill="white"/>
<path d="M40.7081 30.705C41.9639 30.9608 43.208 30.6195 44.1124 29.8832L38.0605 28.8159C38.589 29.7488 39.5296 30.465 40.7081 30.705Z" fill="#121936"/>
<path d="M41.5492 30.9105C41.2612 30.9105 40.9709 30.8815 40.6813 30.8224C39.5117 30.5841 38.5158 29.8735 37.9491 28.8727L37.8242 28.6521L44.3957 29.8111L44.1953 29.9743C43.4432 30.5863 42.5111 30.9103 41.5492 30.9105ZM38.3094 28.9819C38.8563 29.8029 39.7268 30.3823 40.7348 30.5877C41.8246 30.8099 42.9329 30.5786 43.8178 29.9531L38.3094 28.9819Z" fill="#121936"/>
<path d="M39.8613 31.4554L40.3224 29.8738C40.4116 29.5685 40.7363 29.382 41.0634 29.4485L41.0695 29.4497C41.3879 29.5145 41.6017 29.7982 41.5632 30.1046L41.394 31.4554H39.8613Z" fill="#121936"/>
<path d="M51.4267 63.5898L53.0387 65.1626L53.1193 66.0086C52.8409 67.109 51.8688 67.929 50.6827 68.0639L50.8091 67.3302L49.1328 66.1938L51.4267 63.5898Z" fill="#FFA698"/>
<path d="M50.4794 67.6356L50.7279 69.4125C50.7213 69.4457 50.7058 70.1957 50.6896 70.2254C50.6068 70.7234 50.4472 71.2073 50.2156 71.6611C49.8106 72.4548 49.3705 73.5209 49.8149 73.9529C49.9616 74.0952 51.1355 73.5895 51.2662 73.4354L55.9906 67.2425C56.0228 67.2043 56.077 67.1047 56.0664 66.9739C56.0137 66.3278 55.3472 65.9757 54.7159 65.7269L53.3623 65.0498C53.1893 64.9632 52.9798 65.0769 52.9709 65.262C52.9709 65.2634 52.9706 65.2646 52.9706 65.2661C52.9185 66.3684 52.1438 67.0315 50.9896 67.1793C50.9726 67.1993 50.8599 67.2288 50.7411 67.2605C50.567 67.3063 50.4558 67.4664 50.4794 67.6356Z" fill="#3C2291"/>
<path d="M50.2812 71.528C50.4778 71.1128 50.6159 70.6748 50.6909 70.2248C50.7071 70.195 50.7226 69.445 50.7291 69.4119L50.6116 68.5707L50.4806 67.6349C50.4763 67.604 50.4766 67.5732 50.4809 67.5432C50.4796 67.5521 50.4786 67.5612 50.4781 67.5704C50.4728 67.4986 50.4611 67.3784 50.4383 67.2524C50.399 67.0354 50.6407 66.8612 50.8447 66.9668C50.8518 66.9704 50.8586 66.9742 50.8654 66.9785C50.9417 67.0251 51.0255 67.0853 51.1089 67.1612C51.6667 67.6692 52.2033 68.8942 50.2866 71.6393C50.2866 71.6393 50.2845 71.5997 50.2812 71.528Z" fill="#481EF3"/>
<path d="M50.5833 68.6183C50.5377 68.6183 50.4977 68.5874 50.4896 68.5437C50.481 68.4947 50.5157 68.4482 50.5674 68.4398L51.6359 68.2665C51.6894 68.2579 51.7368 68.2912 51.7456 68.3399C51.7545 68.3889 51.7198 68.4355 51.6681 68.4441L50.5995 68.6174C50.594 68.6181 50.5884 68.6183 50.5833 68.6183Z" fill="#EAEAEA"/>
<path d="M50.6253 69.3142C50.5797 69.3142 50.5397 69.2832 50.5316 69.2395C50.523 69.1906 50.5577 69.1438 50.6094 69.1354L51.6779 68.9621C51.7316 68.9554 51.7787 68.9868 51.7876 69.0358C51.7965 69.0847 51.7618 69.1313 51.7101 69.1397L50.6415 69.313C50.636 69.3137 50.6304 69.3142 50.6253 69.3142Z" fill="#EAEAEA"/>
<path d="M50.6312 70.0481C50.5856 70.0481 50.5456 70.0171 50.5375 69.9734C50.5288 69.9245 50.5633 69.8779 50.6152 69.8695L51.6838 69.6962C51.7375 69.6874 51.7846 69.721 51.7935 69.7697C51.8023 69.8186 51.7676 69.8652 51.716 69.8739L50.6474 70.0471C50.6418 70.0476 50.6365 70.0481 50.6312 70.0481Z" fill="#EAEAEA"/>
<path d="M54.1874 67.9774C54.0063 67.9774 53.8322 67.9191 53.6893 67.8099C53.5247 67.6834 53.4213 67.5036 53.399 67.3037C53.3767 67.104 53.438 66.9079 53.5718 66.7515C53.705 66.5955 53.8948 66.4975 54.1056 66.4764C54.3181 66.4553 54.5233 66.5131 54.6887 66.6399C55.029 66.901 55.0819 67.3755 54.8065 67.6983C54.673 67.8543 54.4833 67.9522 54.2723 67.9733C54.2441 67.9759 54.2158 67.9774 54.1874 67.9774ZM54.1902 66.6521C54.1689 66.6521 54.1474 66.6533 54.1258 66.6555C53.9652 66.6713 53.8211 66.7457 53.7195 66.8645C53.6179 66.9836 53.5713 67.1326 53.588 67.2847C53.6047 67.4369 53.6833 67.5735 53.8087 67.6697L53.8089 67.6699C53.9343 67.7662 54.0937 67.8099 54.2522 67.7943C54.4129 67.7782 54.557 67.7038 54.6586 67.585C54.8678 67.3399 54.8278 66.9787 54.5689 66.78C54.4607 66.6965 54.328 66.6521 54.1902 66.6521Z" fill="#EAEAEA"/>
<path d="M55.9818 66.7078C55.9818 66.7078 57.7901 66.6721 56.5153 68.2138C55.2406 69.7556 51.8173 73.7132 51.8173 73.7132C51.8173 73.7132 50.6907 74.551 49.7617 73.9201C49.7617 73.9201 51.1176 74.1111 52.5263 71.372C53.9351 68.6329 53.8029 69.283 55.0936 68.119C56.3841 66.9553 55.9818 66.7078 55.9818 66.7078Z" fill="white"/>
<path d="M36.8105 36.0842L48.913 38.5826L45.4469 52.0116L52.0379 63.0993C52.1253 63.2465 52.1078 63.4296 51.9938 63.5597L49.3462 66.5753C49.1015 66.8539 48.6521 66.859 48.4016 66.5849C46.7057 64.7285 40.8545 58.404 38.2931 55.554C37.5075 54.6797 37.0695 53.5745 37.0532 52.4263L36.8105 36.0842Z" fill="#30293A"/>
<path d="M36.163 35.9883L25.1952 43.8171C25.0305 43.946 24.8755 44.0885 24.7577 44.2572C23.9736 45.3812 24.4456 47.1152 24.687 48.4935L26.9389 64.2663C26.9923 64.6407 27.3718 64.8922 27.7615 64.8113L32.2933 63.8708C32.4567 63.8369 32.5776 63.7068 32.589 63.5487C32.7321 61.5569 31.9787 49.3364 31.9787 49.3364L45.6648 44.0367C47.1972 43.4432 48.6255 42.1428 48.9637 40.6208C48.9789 40.5521 49.4534 37.8423 49.4534 37.8423C49.4554 37.7998 36.163 35.9883 36.163 35.9883Z" fill="#353148"/>
<path d="M31.515 64.0334L31.8147 66.0322L31.3541 66.7608C30.4451 67.495 29.1496 67.6154 28.1074 67.0627L28.6657 66.5402L28.041 64.7546L31.515 64.0334Z" fill="#FFA698"/>
<path d="M28.2077 66.6024L27.304 68.1772C27.2779 68.2003 26.7996 68.7979 26.768 68.8128C26.3913 69.1689 25.9619 69.4711 25.4924 69.7087C24.6719 70.1241 23.6532 70.7404 23.7439 71.3373C23.7738 71.5341 25.0372 71.7804 25.2386 71.7288L32.9062 69.359C32.9559 69.3463 33.0618 69.2959 33.1345 69.1843C33.4935 68.6328 33.1738 67.9764 32.8181 67.4229L32.1447 66.1207C32.0586 65.9541 31.8187 65.9292 31.6963 66.0739C31.6956 66.0748 31.6945 66.076 31.6938 66.077C30.9665 66.9388 29.9281 67.0428 28.9036 66.5181C28.8777 66.5248 28.768 66.4857 28.6523 66.4449C28.4833 66.3849 28.2938 66.4521 28.2077 66.6024Z" fill="#3C2291"/>
<path d="M25.6278 69.6372C26.0448 69.4114 26.4286 69.1344 26.7688 68.8126C26.8005 68.7977 27.2791 68.2001 27.3049 68.177L27.7328 67.4316L28.2085 66.6022C28.2242 66.5746 28.2438 66.5501 28.2658 66.5282C28.2592 66.5347 28.2529 66.5414 28.2468 66.5486C28.2871 66.4874 28.3524 66.384 28.4125 66.2695C28.5156 66.0722 28.8193 66.066 28.9184 66.2652C28.9217 66.2722 28.925 66.2791 28.928 66.2863C28.9607 66.3665 28.9911 66.462 29.0114 66.5698C29.1464 67.2917 28.8186 68.581 25.5635 69.7303C25.563 69.7303 25.586 69.6972 25.6278 69.6372Z" fill="#481EF3"/>
<path d="M28.7079 67.9291C28.6935 67.9291 28.6793 67.9259 28.6656 67.9197L27.6943 67.4635C27.6475 67.4414 27.6282 67.3874 27.6515 67.3427C27.6748 67.2981 27.7321 67.2806 27.7789 67.3022L28.7502 67.7584C28.7973 67.7805 28.8163 67.8345 28.793 67.8791C28.7766 67.9108 28.7429 67.9291 28.7079 67.9291Z" fill="#EAEAEA"/>
<path d="M28.3105 68.5135C28.296 68.5135 28.2819 68.5104 28.2682 68.5042L27.2969 68.0482C27.2498 68.0261 27.2308 67.9721 27.2541 67.9275C27.2774 67.8828 27.3349 67.8653 27.3815 67.8869L28.3528 68.3429C28.3999 68.365 28.4189 68.419 28.3956 68.4636C28.3789 68.4953 28.3454 68.5135 28.3105 68.5135Z" fill="#EAEAEA"/>
<path d="M27.8574 69.1112C27.8429 69.1112 27.8287 69.108 27.8151 69.1018L26.8438 68.6458C26.7967 68.6237 26.7777 68.5697 26.801 68.5251C26.8243 68.4807 26.8815 68.4629 26.9284 68.4845L27.8997 68.9405C27.9468 68.9626 27.9658 69.0166 27.9425 69.0612C27.9258 69.0929 27.8921 69.1112 27.8574 69.1112Z" fill="#EAEAEA"/>
<path d="M31.4627 69.0929C31.1116 69.0929 30.7896 68.8704 30.6948 68.5344C30.5821 68.1336 30.8347 67.7203 31.2577 67.6133C31.6811 67.5074 32.1168 67.7457 32.2298 68.1465C32.3425 68.5473 32.0902 68.9604 31.6671 69.0674C31.5987 69.0847 31.5303 69.0929 31.4627 69.0929ZM30.8785 68.4878C30.9646 68.7929 31.2962 68.9741 31.6182 68.8932C31.9402 68.8116 32.132 68.4977 32.0461 68.1926C31.9602 67.8876 31.6286 67.7059 31.3066 67.7868C30.9849 67.8686 30.7926 68.183 30.8785 68.4878Z" fill="#EAEAEA"/>
<path d="M33.2321 68.9207C33.2321 68.9207 34.7158 69.9006 32.7272 70.4355C30.7385 70.9705 25.5117 72.2595 25.5117 72.2595C25.5117 72.2595 24.0804 72.3083 23.7217 71.2801C23.7217 71.2801 24.6988 72.1909 27.5399 70.7629C30.3813 69.3349 29.8701 69.7868 31.6368 69.566C33.4033 69.3452 33.2321 68.9207 33.2321 68.9207Z" fill="white"/>
</svg>
