<svg width="43" height="42" viewBox="0 0 43 42" fill="none" xmlns="http://www.w3.org/2000/svg">
<circle cx="21.5" cy="21" r="20.3235" stroke="#8DCABE" stroke-width="1.35294"/>
<g clip-path="url(#clip0_7371_16868)">
<path d="M21.5 15.8889C20.4891 15.8889 19.5009 16.1887 18.6604 16.7503C17.8199 17.3119 17.1648 18.1101 16.7779 19.0441C16.3911 19.978 16.2899 21.0057 16.4871 21.9971C16.6843 22.9886 17.1711 23.8993 17.8859 24.6141C18.6007 25.3289 19.5114 25.8157 20.5029 26.0129C21.4943 26.2101 22.522 26.1089 23.4559 25.7221C24.3899 25.3352 25.1881 24.6801 25.7497 23.8396C26.3113 22.9991 26.6111 22.0109 26.6111 21C26.6111 19.6444 26.0726 18.3444 25.1141 17.3859C24.1556 16.4274 22.8556 15.8889 21.5 15.8889ZM21.5 23.4444C21.0165 23.4444 20.5439 23.3011 20.1419 23.0325C19.74 22.7639 19.4266 22.3821 19.2416 21.9354C19.0566 21.4888 19.0082 20.9973 19.1025 20.5231C19.1968 20.0489 19.4297 19.6134 19.7715 19.2715C20.1134 18.9297 20.5489 18.6968 21.0231 18.6025C21.4973 18.5082 21.9888 18.5566 22.4354 18.7416C22.8821 18.9266 23.2639 19.24 23.5325 19.6419C23.8011 20.0439 23.9444 20.5165 23.9444 21C23.9415 21.6474 23.683 22.2675 23.2253 22.7253C22.7675 23.183 22.1474 23.4415 21.5 23.4444ZM26.8333 9H16.1667C14.3986 9 12.7029 9.70238 11.4526 10.9526C10.2024 12.2029 9.5 13.8986 9.5 15.6667V26.3333C9.5 28.1014 10.2024 29.7971 11.4526 31.0474C12.7029 32.2976 14.3986 33 16.1667 33H26.8333C28.6014 33 30.2971 32.2976 31.5474 31.0474C32.7976 29.7971 33.5 28.1014 33.5 26.3333V15.6667C33.5 13.8986 32.7976 12.2029 31.5474 10.9526C30.2971 9.70238 28.6014 9 26.8333 9ZM30.8333 26.3333C30.8333 27.3942 30.4119 28.4116 29.6618 29.1618C28.9116 29.9119 27.8942 30.3333 26.8333 30.3333H16.1667C15.1058 30.3333 14.0884 29.9119 13.3382 29.1618C12.5881 28.4116 12.1667 27.3942 12.1667 26.3333V15.6667C12.1667 14.6058 12.5881 13.5884 13.3382 12.8382C14.0884 12.0881 15.1058 11.6667 16.1667 11.6667H26.8333C27.8942 11.6667 28.9116 12.0881 29.6618 12.8382C30.4119 13.5884 30.8333 14.6058 30.8333 15.6667V26.3333ZM29.0556 15.2222C29.0556 15.5738 28.9513 15.9175 28.7559 16.2099C28.5606 16.5023 28.283 16.7301 27.9581 16.8647C27.6333 16.9992 27.2758 17.0344 26.931 16.9658C26.5861 16.8972 26.2693 16.7279 26.0207 16.4793C25.7721 16.2307 25.6028 15.9139 25.5342 15.569C25.4656 15.2242 25.5008 14.8667 25.6353 14.5419C25.7699 14.2171 25.9977 13.9394 26.2901 13.7441C26.5825 13.5487 26.9262 13.4444 27.2778 13.4444C27.7493 13.4444 28.2015 13.6317 28.5349 13.9651C28.8683 14.2985 29.0556 14.7507 29.0556 15.2222Z" fill="#8DCABE"/>
</g>
<defs>
<clipPath id="clip0_7371_16868">
<rect width="24" height="24" fill="white" transform="translate(9.5 9)"/>
</clipPath>
</defs>
</svg>
