<svg width="40" height="40" viewBox="0 0 40 40" fill="none" xmlns="http://www.w3.org/2000/svg">
<rect width="40" height="40" rx="20" fill="#E9FAF5"/>
<path d="M20 32C13.3831 32 8 26.6169 8 20C8 13.3831 13.3831 8 20 8C26.6169 8 32 13.3831 32 20C32 26.6169 26.6169 32 20 32Z" fill="#00BA88"/>
<path d="M26.4739 14.6479L15.623 25.4988L21.9637 31.8394C27.5946 30.9087 31.9155 26.044 31.9986 20.1727L26.4739 14.6479Z" fill="#0F9E77"/>
<path d="M26.7156 14.8812C26.0224 14.1296 25.3939 13.6225 24.6423 14.3145L16.9599 21.397L15.0205 19.1789C14.3474 18.4102 13.6683 18.8469 12.8983 19.5199C12.1284 20.1928 11.5592 20.8472 12.2328 21.6172L14.236 23.9082L15.8709 25.7782C16.3113 26.2818 17.0803 26.3232 17.5722 25.8698L19.3985 24.1861L27.1523 17.0379C27.9045 16.3447 27.4088 15.633 26.7156 14.8812Z" fill="white"/>
</svg>
