<svg width="24" height="25" viewBox="0 0 24 25" fill="none" xmlns="http://www.w3.org/2000/svg">
<path opacity="0.1" fill-rule="evenodd" clip-rule="evenodd" d="M0 12.5703C0 5.9429 5.37258 0.570312 12 0.570312C18.6274 0.570312 24 5.9429 24 12.5703C24 19.1977 18.6274 24.5703 12 24.5703C5.37258 24.5703 0 19.1977 0 12.5703Z" fill="white"/>
<path d="M17.52 7H6.48C6.2145 7 6 7.2145 6 7.48V18.52C6 18.7855 6.2145 19 6.48 19H17.52C17.7855 19 18 18.7855 18 18.52V7.48C18 7.2145 17.7855 7 17.52 7ZM9.5595 17.2255H7.779V11.4985H9.5595V17.2255ZM8.67 10.7155C8.46589 10.7155 8.26636 10.655 8.09665 10.5416C7.92694 10.4282 7.79467 10.267 7.71656 10.0784C7.63845 9.88986 7.61801 9.68236 7.65783 9.48217C7.69765 9.28198 7.79594 9.09809 7.94027 8.95377C8.08459 8.80944 8.26848 8.71115 8.46867 8.67133C8.66886 8.63151 8.87636 8.65195 9.06493 8.73006C9.2535 8.80817 9.41468 8.94044 9.52808 9.11015C9.64147 9.27986 9.702 9.47939 9.702 9.6835C9.7005 10.2535 9.2385 10.7155 8.67 10.7155ZM16.2255 17.2255H14.4465V14.44C14.4465 13.7755 14.4345 12.922 13.521 12.922C12.5955 12.922 12.453 13.645 12.453 14.392V17.2255H10.6755V11.4985H12.3825V12.2815H12.4065C12.6435 11.8315 13.224 11.356 14.091 11.356C15.894 11.356 16.2255 12.5425 16.2255 14.0845V17.2255Z" fill="white"/>
</svg>
