<svg width="24" height="25" viewBox="0 0 24 25" fill="none" xmlns="http://www.w3.org/2000/svg">
<path fill-rule="evenodd" clip-rule="evenodd" d="M5.00846 11.2651C5.00846 10.6465 5.01591 10.0278 5.02339 9.40631L5.02339 9.4063C5.02719 9.09121 5.03099 8.77538 5.03384 8.45844C5.03384 5.05314 7.16556 2.57031 10.1094 2.57031H13.8906C16.8344 2.57031 18.9662 5.05314 18.9662 8.45844C18.9915 9.82252 19 11.1866 19 12.5605C19 13.9344 18.9915 15.3181 18.9662 16.6822C18.9662 20.0875 16.8344 22.5703 13.8906 22.5703H10.1094C7.16556 22.5703 5.03384 20.0875 5.03384 16.6724C5.01692 15.3868 5 14.0718 5 12.7371L5.00846 11.2651ZM13.28 20.2106V20.3706C13.28 21.0442 12.7168 21.5706 12 21.5706C11.3003 21.5706 10.72 21.0442 10.72 20.3706V20.2106C10.72 19.5546 11.3003 19.0106 12 19.0106C12.7168 19.0106 13.28 19.5546 13.28 20.2106ZM7.01671 9.01396C7.01136 9.41794 7.00604 9.82006 7.00604 10.2222L7 11.179C7 12.0465 7.01208 12.9013 7.02417 13.7369C7.02417 15.9567 8.54683 17.5706 10.6495 17.5706H13.3505C15.4532 17.5706 16.9758 15.9567 16.9758 13.7433C16.994 12.8566 17 11.9572 17 11.0642C17 10.1711 16.994 9.28449 16.9758 8.39784C16.9758 6.18439 15.4532 4.57056 13.3505 4.57056H10.6495C8.54683 4.57056 7.02417 6.18439 7.02417 8.39784C7.02214 8.60385 7.01942 8.80914 7.01671 9.01396Z" fill="#4BAC99"/>
</svg>
