<svg width="24" height="25" viewBox="0 0 24 25" fill="none" xmlns="http://www.w3.org/2000/svg">
<path opacity="0.1" fill-rule="evenodd" clip-rule="evenodd" d="M0 12.5703C0 5.9429 5.37258 0.570312 12 0.570312C18.6274 0.570312 24 5.9429 24 12.5703C24 19.1977 18.6274 24.5703 12 24.5703C5.37258 24.5703 0 19.1977 0 12.5703Z" fill="white"/>
<path fill-rule="evenodd" clip-rule="evenodd" d="M11.6406 10.3243L11.6658 10.7395L11.2461 10.6886C9.71843 10.4937 8.38383 9.83276 7.25067 8.72267L6.69668 8.17186L6.55399 8.57861C6.25181 9.48533 6.44487 10.4429 7.0744 11.0869C7.41015 11.4428 7.33461 11.4937 6.75544 11.2818C6.55399 11.214 6.37772 11.1632 6.36093 11.1886C6.30218 11.2479 6.50363 12.0191 6.66311 12.3241C6.88134 12.7478 7.32621 13.1631 7.81305 13.4088L8.22434 13.6037L7.73751 13.6122C7.26746 13.6122 7.25067 13.6207 7.30103 13.7986C7.46891 14.3494 8.13201 14.9341 8.87066 15.1883L9.39108 15.3663L8.93781 15.6375C8.26631 16.0273 7.4773 16.2476 6.68829 16.2645C6.31057 16.273 6 16.3069 6 16.3323C6 16.4171 7.02404 16.8916 7.61999 17.0781C9.40786 17.6289 11.5315 17.3916 13.1263 16.451C14.2595 15.7815 15.3926 14.4511 15.9214 13.1631C16.2068 12.4767 16.4922 11.2225 16.4922 10.6208C16.4922 10.231 16.5174 10.1802 16.9874 9.71413C17.2644 9.44296 17.5246 9.14637 17.575 9.06163C17.6589 8.90062 17.6505 8.90062 17.2224 9.04468C16.509 9.2989 16.4083 9.26501 16.7608 8.88367C17.021 8.61251 17.3316 8.12101 17.3316 7.97695C17.3316 7.95153 17.2057 7.9939 17.063 8.07017C16.9119 8.15491 16.5761 8.28202 16.3243 8.35829L15.8711 8.50234L15.4598 8.2227C15.2331 8.07017 14.9142 7.90069 14.7463 7.84984C14.3182 7.73121 13.6635 7.74816 13.2774 7.88374C12.2282 8.26507 11.5651 9.24806 11.6406 10.3243Z" fill="white"/>
</svg>
