<svg width="24" height="25" viewBox="0 0 24 25" fill="none" xmlns="http://www.w3.org/2000/svg">
<path fill-rule="evenodd" clip-rule="evenodd" d="M12 2.0166C6.477 2.0166 2 6.4936 2 12.0166C2 13.9066 2.525 15.6766 3.438 17.1846L2.546 20.2166C2.49478 20.3907 2.49141 20.5753 2.53624 20.7512C2.58107 20.927 2.67245 21.0875 2.80076 21.2158C2.92907 21.3442 3.08958 21.4355 3.26542 21.4804C3.44125 21.5252 3.62592 21.5218 3.8 21.4706L6.832 20.5786C8.39068 21.5217 10.1782 22.0191 12 22.0166C17.523 22.0166 22 17.5396 22 12.0166C22 6.4936 17.523 2.0166 12 2.0166ZM9.738 14.2796C11.761 16.3016 13.692 16.5686 14.374 16.5936C15.411 16.6316 16.421 15.8396 16.814 14.9206C16.8636 14.8063 16.8816 14.6807 16.8661 14.5571C16.8507 14.4334 16.8023 14.3162 16.726 14.2176C16.178 13.5176 15.437 13.0146 14.713 12.5146C14.5618 12.4101 14.3761 12.3682 14.1947 12.3976C14.0133 12.4271 13.8503 12.5256 13.74 12.6726L13.14 13.5876C13.1085 13.6368 13.0593 13.6721 13.0026 13.6862C12.9459 13.7003 12.8859 13.6922 12.835 13.6636C12.428 13.4306 11.835 13.0346 11.409 12.6086C10.983 12.1826 10.611 11.6166 10.402 11.2356C10.3761 11.1872 10.3686 11.131 10.3809 11.0775C10.3932 11.024 10.4245 10.9768 10.469 10.9446L11.393 10.2586C11.5249 10.1439 11.61 9.9848 11.6321 9.81146C11.6542 9.63813 11.6118 9.46271 11.513 9.3186C11.065 8.6626 10.543 7.8286 9.786 7.2756C9.68831 7.20481 9.57386 7.16066 9.45393 7.14751C9.334 7.13436 9.21271 7.15266 9.102 7.2006C8.182 7.5946 7.386 8.6046 7.424 9.6436C7.449 10.3256 7.716 12.2566 9.738 14.2796Z" fill="#4BAC99"/>
</svg>
