<svg width="24" height="25" viewBox="0 0 24 25" fill="none" xmlns="http://www.w3.org/2000/svg">
<path d="M4.93206 4.56018C4.07958 4.56018 3.26201 4.89883 2.65922 5.50162C2.05642 6.10442 1.71777 6.92198 1.71777 7.77447V8.41732H22.2858V7.77447C22.2858 6.92198 21.9471 6.10442 21.3443 5.50162C20.7415 4.89883 19.924 4.56018 19.0715 4.56018H4.93206ZM1.71777 16.7745V9.70304H22.2858V16.7745C22.2858 17.6269 21.9471 18.4445 21.3443 19.0473C20.7415 19.6501 19.924 19.9888 19.0715 19.9888H4.93292C4.08043 19.9888 3.26287 19.6501 2.66007 19.0473C2.05728 18.4445 1.71863 17.6269 1.71863 16.7745H1.71777ZM15.6429 14.4173C15.4724 14.4173 15.3089 14.4851 15.1883 14.6056C15.0678 14.7262 15.0001 14.8897 15.0001 15.0602C15.0001 15.2307 15.0678 15.3942 15.1883 15.5147C15.3089 15.6353 15.4724 15.703 15.6429 15.703H18.6429C18.8134 15.703 18.9769 15.6353 19.0975 15.5147C19.218 15.3942 19.2858 15.2307 19.2858 15.0602C19.2858 14.8897 19.218 14.7262 19.0975 14.6056C18.9769 14.4851 18.8134 14.4173 18.6429 14.4173H15.6429Z" fill="#58A596"/>
</svg>
