<svg width="24" height="25" viewBox="0 0 24 25" fill="none" xmlns="http://www.w3.org/2000/svg">
<path fill-rule="evenodd" clip-rule="evenodd" d="M6 7.27441C6 5.94833 6.52678 4.67656 7.46447 3.73888C8.40215 2.8012 9.67392 2.27441 11 2.27441C12.3261 2.27441 13.5979 2.8012 14.5355 3.73888C15.4732 4.67656 16 5.94833 16 7.27441C16 8.6005 15.4732 9.87227 14.5355 10.8099C13.5979 11.7476 12.3261 12.2744 11 12.2744C9.67392 12.2744 8.40215 11.7476 7.46447 10.8099C6.52678 9.87227 6 8.6005 6 7.27441ZM4.822 14.9454C6.425 13.9684 8.605 13.2744 11 13.2744C11.447 13.2744 11.887 13.2984 12.316 13.3444C12.4878 13.3628 12.6518 13.4255 12.7922 13.5261C12.9326 13.6268 13.0445 13.7622 13.117 13.919C13.1895 14.0758 13.2202 14.2487 13.206 14.4209C13.1918 14.593 13.1332 14.7586 13.036 14.9014C12.3586 15.8956 11.9975 17.0714 12 18.2744C12 19.1944 12.207 20.0644 12.575 20.8414C12.6467 20.9928 12.6792 21.1597 12.6696 21.327C12.66 21.4942 12.6085 21.6563 12.5199 21.7984C12.4313 21.9406 12.3085 22.0582 12.1626 22.1405C12.0167 22.2228 11.8525 22.2671 11.685 22.2694C11.459 22.2724 11.23 22.2744 11 22.2744C8.771 22.2744 6.665 22.1344 5.087 21.7164C4.302 21.5084 3.563 21.2104 3.003 20.7604C2.41 20.2844 2 19.6194 2 18.7744C2 17.9874 2.358 17.2514 2.844 16.6354C3.338 16.0104 4.021 15.4354 4.822 14.9454ZM17.5 16.2744C17.1022 16.2744 16.7206 16.4325 16.4393 16.7138C16.158 16.9951 16 17.3766 16 17.7744C16 18.1722 16.158 18.5538 16.4393 18.8351C16.7206 19.1164 17.1022 19.2744 17.5 19.2744C17.8978 19.2744 18.2794 19.1164 18.5607 18.8351C18.842 18.5538 19 18.1722 19 17.7744C19 17.3766 18.842 16.9951 18.5607 16.7138C18.2794 16.4325 17.8978 16.2744 17.5 16.2744ZM14 17.7744C14.0004 17.2419 14.1223 16.7165 14.3564 16.2382C14.5905 15.7599 14.9307 15.3414 15.351 15.0144C15.7713 14.6875 16.2607 14.4607 16.7819 14.3515C17.3031 14.2422 17.8423 14.2533 18.3586 14.3839C18.8748 14.5146 19.3544 14.7613 19.7609 15.1053C20.1674 15.4493 20.4901 15.8815 20.7043 16.369C20.9185 16.8565 21.0187 17.3865 20.9971 17.9186C20.9756 18.4507 20.8329 18.9708 20.58 19.4394L21.414 20.2744C21.5095 20.3667 21.5857 20.477 21.6381 20.599C21.6905 20.721 21.7181 20.8522 21.7192 20.985C21.7204 21.1178 21.6951 21.2495 21.6448 21.3724C21.5945 21.4953 21.5203 21.6069 21.4264 21.7008C21.3325 21.7947 21.2208 21.869 21.098 21.9192C20.9751 21.9695 20.8434 21.9948 20.7106 21.9937C20.5778 21.9925 20.4466 21.9649 20.3246 21.9125C20.2026 21.8601 20.0922 21.7839 20 21.6884L19.165 20.8534C18.6318 21.1418 18.0329 21.2867 17.4269 21.274C16.8208 21.2614 16.2285 21.0915 15.7078 20.7812C15.1872 20.4708 14.756 20.0305 14.4567 19.5034C14.1573 18.9764 13.9999 18.3806 14 17.7744Z" fill="#58A596"/>
</svg>
