<svg width="20" height="20" viewBox="0 0 20 20" fill="none" xmlns="http://www.w3.org/2000/svg">
<path d="M4.375 9.375H16.875C17.0408 9.375 17.1997 9.44085 17.3169 9.55806C17.4342 9.67527 17.5 9.83424 17.5 10C17.5 10.1658 17.4342 10.3247 17.3169 10.4419C17.1997 10.5592 17.0408 10.625 16.875 10.625H4.375C4.20924 10.625 4.05027 10.5592 3.93306 10.4419C3.81585 10.3247 3.75 10.1658 3.75 10C3.75 9.83424 3.81585 9.67527 3.93306 9.55806C4.05027 9.44085 4.20924 9.375 4.375 9.375Z" fill="#2D2D2D"/>
<path d="M4.63377 10.0001L9.81752 15.1826C9.93488 15.2999 10.0008 15.4591 10.0008 15.6251C10.0008 15.791 9.93488 15.9502 9.81752 16.0676C9.70016 16.1849 9.54099 16.2508 9.37502 16.2508C9.20905 16.2508 9.04988 16.1849 8.93252 16.0676L3.30752 10.4426C3.24931 10.3845 3.20314 10.3155 3.17163 10.2396C3.14012 10.1637 3.1239 10.0823 3.1239 10.0001C3.1239 9.91785 3.14012 9.83645 3.17163 9.76052C3.20314 9.68458 3.24931 9.61561 3.30752 9.55756L8.93252 3.93256C9.04988 3.8152 9.20905 3.74927 9.37502 3.74927C9.54099 3.74927 9.70016 3.8152 9.81752 3.93256C9.93488 4.04992 10.0008 4.20909 10.0008 4.37506C10.0008 4.54103 9.93488 4.7002 9.81752 4.81756L4.63377 10.0001Z" fill="#2D2D2D"/>
</svg>
