<svg width="20" height="20" viewBox="0 0 20 20" fill="none" xmlns="http://www.w3.org/2000/svg">
<path d="M10.0001 3.33317C8.23197 3.33317 6.53628 4.03555 5.28604 5.28579C4.03579 6.53604 3.33341 8.23173 3.33341 9.99984C3.33341 11.7679 4.03579 13.4636 5.28604 14.7139C6.53628 15.9641 8.23197 16.6665 10.0001 16.6665C11.7682 16.6665 13.4639 15.9641 14.7141 14.7139C15.9644 13.4636 16.6667 11.7679 16.6667 9.99984C16.6667 8.23173 15.9644 6.53604 14.7141 5.28579C13.4639 4.03555 11.7682 3.33317 10.0001 3.33317ZM1.66675 9.99984C1.66675 5.39734 5.39758 1.6665 10.0001 1.6665C14.6026 1.6665 18.3334 5.39734 18.3334 9.99984C18.3334 14.6023 14.6026 18.3332 10.0001 18.3332C5.39758 18.3332 1.66675 14.6023 1.66675 9.99984ZM13.8867 7.294C14.0517 7.44082 14.1517 7.64713 14.1647 7.86761C14.1776 8.08808 14.1026 8.30469 13.9559 8.46984L9.51175 13.4698C9.43356 13.5578 9.33763 13.6282 9.23026 13.6765C9.1229 13.7247 9.00653 13.7496 8.88883 13.7496C8.77113 13.7496 8.65477 13.7247 8.5474 13.6765C8.44003 13.6282 8.3441 13.5578 8.26591 13.4698L6.04425 10.9698C5.90601 10.8036 5.83783 10.59 5.8541 10.3744C5.87037 10.1588 5.96981 9.95793 6.13143 9.81427C6.29305 9.67061 6.50418 9.5954 6.72023 9.60452C6.93628 9.61365 7.14032 9.70639 7.28925 9.86317L8.88925 11.6623L12.7109 7.36234C12.8579 7.19747 13.0642 7.09766 13.2847 7.08485C13.5052 7.07204 13.7217 7.14726 13.8867 7.294Z" fill="#00BA88"/>
</svg>
