<svg width="21" height="20" viewBox="0 0 21 20" fill="none" xmlns="http://www.w3.org/2000/svg">
<path d="M15.75 4.75852C15.6729 4.68127 15.5813 4.61998 15.4805 4.57816C15.3797 4.53634 15.2716 4.51482 15.1625 4.51482C15.0534 4.51482 14.9453 4.53634 14.8445 4.57816C14.7437 4.61998 14.6521 4.68127 14.575 4.75852L10.5 8.82519L6.425 4.75019C6.34785 4.67303 6.25626 4.61183 6.15546 4.57008C6.05465 4.52833 5.94661 4.50684 5.8375 4.50684C5.72839 4.50684 5.62035 4.52833 5.51955 4.57008C5.41875 4.61183 5.32715 4.67303 5.25 4.75019C5.17285 4.82734 5.11165 4.91893 5.0699 5.01973C5.02814 5.12054 5.00665 5.22858 5.00665 5.33769C5.00665 5.4468 5.02814 5.55484 5.0699 5.65564C5.11165 5.75644 5.17285 5.84803 5.25 5.92519L9.325 10.0002L5.25 14.0752C5.17285 14.1523 5.11165 14.2439 5.0699 14.3447C5.02814 14.4455 5.00665 14.5536 5.00665 14.6627C5.00665 14.7718 5.02814 14.8798 5.0699 14.9806C5.11165 15.0814 5.17285 15.173 5.25 15.2502C5.32715 15.3273 5.41875 15.3885 5.51955 15.4303C5.62035 15.472 5.72839 15.4935 5.8375 15.4935C5.94661 15.4935 6.05465 15.472 6.15546 15.4303C6.25626 15.3885 6.34785 15.3273 6.425 15.2502L10.5 11.1752L14.575 15.2502C14.6522 15.3273 14.7437 15.3885 14.8446 15.4303C14.9454 15.472 15.0534 15.4935 15.1625 15.4935C15.2716 15.4935 15.3797 15.472 15.4805 15.4303C15.5813 15.3885 15.6729 15.3273 15.75 15.2502C15.8272 15.173 15.8884 15.0814 15.9301 14.9806C15.9719 14.8798 15.9934 14.7718 15.9934 14.6627C15.9934 14.5536 15.9719 14.4455 15.9301 14.3447C15.8884 14.2439 15.8272 14.1523 15.75 14.0752L11.675 10.0002L15.75 5.92519C16.0667 5.60852 16.0667 5.07519 15.75 4.75852Z" fill="#66738F"/>
</svg>
