<svg width="14" height="8" viewBox="0 0 14 8" fill="none" xmlns="http://www.w3.org/2000/svg">
<path d="M3.66666 7.3333C2.74444 7.3333 1.95822 7.00818 1.308 6.35796C0.657773 5.70774 0.332884 4.92174 0.333329 3.99996C0.333329 3.07774 0.65844 2.29152 1.30866 1.64129C1.95888 0.991073 2.74488 0.666184 3.66666 0.666628H5.66666C5.85555 0.666628 6.014 0.730628 6.142 0.858628C6.27 0.986628 6.33377 1.14485 6.33333 1.33329C6.33333 1.52218 6.26933 1.68063 6.14133 1.80863C6.01333 1.93663 5.85511 2.00041 5.66666 1.99996H3.66666C3.11111 1.99996 2.63888 2.19441 2.25 2.5833C1.86111 2.97218 1.66666 3.44441 1.66666 3.99996C1.66666 4.55552 1.86111 5.02774 2.25 5.41663C2.63888 5.80552 3.11111 5.99996 3.66666 5.99996H5.66666C5.85555 5.99996 6.014 6.06396 6.142 6.19196C6.27 6.31996 6.33377 6.47818 6.33333 6.66663C6.33333 6.85552 6.26933 7.01396 6.14133 7.14196C6.01333 7.26996 5.85511 7.33374 5.66666 7.3333H3.66666ZM5 4.66663C4.81111 4.66663 4.65266 4.60263 4.52466 4.47463C4.39666 4.34663 4.33288 4.18841 4.33333 3.99996C4.33333 3.81107 4.39733 3.65263 4.52533 3.52463C4.65333 3.39663 4.81155 3.33285 5 3.33329H9C9.18888 3.33329 9.34733 3.39729 9.47533 3.5253C9.60333 3.6533 9.66711 3.81152 9.66666 3.99996C9.66666 4.18885 9.60266 4.3473 9.47466 4.4753C9.34666 4.6033 9.18844 4.66707 9 4.66663H5ZM8.33333 7.3333C8.14444 7.3333 7.986 7.2693 7.858 7.1413C7.73 7.0133 7.66622 6.85507 7.66666 6.66663C7.66666 6.47774 7.73066 6.31929 7.85866 6.1913C7.98666 6.0633 8.14488 5.99952 8.33333 5.99996H10.3333C10.8889 5.99996 11.3611 5.80552 11.75 5.41663C12.1389 5.02774 12.3333 4.55552 12.3333 3.99996C12.3333 3.44441 12.1389 2.97218 11.75 2.5833C11.3611 2.19441 10.8889 1.99996 10.3333 1.99996H8.33333C8.14444 1.99996 7.986 1.93596 7.858 1.80796C7.73 1.67996 7.66622 1.52174 7.66666 1.33329C7.66666 1.14441 7.73066 0.985962 7.85866 0.857962C7.98666 0.729962 8.14488 0.666184 8.33333 0.666628H10.3333C11.2556 0.666628 12.0418 0.99174 12.692 1.64196C13.3422 2.29218 13.6671 3.07818 13.6667 3.99996C13.6667 4.92218 13.3416 5.70841 12.6913 6.35863C12.0411 7.00885 11.2551 7.33374 10.3333 7.3333H8.33333Z" fill="#D9D9D9"/>
</svg>
