<svg width="20" height="20" viewBox="0 0 20 20" fill="none" xmlns="http://www.w3.org/2000/svg">
<path d="M16.625 17.5C16.875 17.5 17.0833 17.4167 17.25 17.25C17.4167 17.0833 17.5 16.875 17.5 16.625V13.25C17.5 13.0556 17.4375 12.8853 17.3125 12.7392C17.1875 12.5931 17.0278 12.4994 16.8333 12.4583L13.9583 11.875C13.7639 11.8472 13.5658 11.8647 13.3642 11.9275C13.1625 11.9903 12.9994 12.0839 12.875 12.2083L10.9167 14.1667C9.86111 13.5278 8.89222 12.7708 8.01 11.8958C7.12778 11.0208 6.39528 10.0833 5.8125 9.08333L7.83333 7.04167C7.95833 6.91667 8.03806 6.77417 8.0725 6.61417C8.10695 6.45417 8.11056 6.27722 8.08333 6.08333L7.54167 3.16667C7.51389 2.97222 7.42361 2.8125 7.27083 2.6875C7.11806 2.5625 6.94444 2.5 6.75 2.5H3.375C3.125 2.5 2.91667 2.58333 2.75 2.75C2.58333 2.91667 2.5 3.125 2.5 3.375C2.5 5.16667 2.89944 6.91333 3.69833 8.615C4.49722 10.3167 5.55278 11.8236 6.865 13.1358C8.17722 14.4481 9.68417 15.5036 11.3858 16.3025C13.0875 17.1014 14.8339 17.5006 16.625 17.5ZM5.02083 7.5C4.78472 6.95833 4.60417 6.40972 4.47917 5.85417C4.35417 5.29861 4.25694 4.73611 4.1875 4.16667H6.04167L6.39583 6.125L5.02083 7.5ZM12.4792 14.9583L13.875 13.5625L15.8333 13.9583V15.7917C15.2639 15.75 14.6978 15.6597 14.135 15.5208C13.5722 15.3819 13.0203 15.1944 12.4792 14.9583Z" fill="#00BA88"/>
</svg>
