<svg width="14" height="14" viewBox="0 0 14 14" fill="none" xmlns="http://www.w3.org/2000/svg">
<path d="M6.97083 10.5C7.175 10.5 7.34766 10.4294 7.48883 10.2882C7.63 10.1471 7.70039 9.97461 7.7 9.77083C7.7 9.56667 7.62961 9.394 7.48883 9.25283C7.34805 9.11167 7.17539 9.04128 6.97083 9.04167C6.76666 9.04167 6.59419 9.11225 6.45341 9.25342C6.31264 9.39458 6.24205 9.56705 6.24166 9.77083C6.24166 9.975 6.31225 10.1477 6.45341 10.2888C6.59458 10.43 6.76705 10.5004 6.97083 10.5ZM6.44583 8.25417H7.525C7.525 7.93333 7.56155 7.68055 7.63466 7.49583C7.70778 7.31111 7.91427 7.05833 8.25416 6.7375C8.50694 6.48472 8.70625 6.244 8.85208 6.01533C8.99791 5.78667 9.07083 5.51211 9.07083 5.19167C9.07083 4.64722 8.87152 4.22917 8.47291 3.9375C8.0743 3.64583 7.60278 3.5 7.05833 3.5C6.50416 3.5 6.05441 3.64583 5.70908 3.9375C5.36375 4.22917 5.12322 4.57917 4.9875 4.9875L5.95 5.36667C5.99861 5.19167 6.10808 5.00208 6.27841 4.79792C6.44875 4.59375 6.70872 4.49167 7.05833 4.49167C7.36944 4.49167 7.60278 4.57683 7.75833 4.74717C7.91389 4.9175 7.99166 5.10455 7.99166 5.30833C7.99166 5.50278 7.93333 5.68517 7.81666 5.8555C7.7 6.02583 7.55416 6.18372 7.37916 6.32917C6.95139 6.70833 6.68889 6.99514 6.59166 7.18958C6.49444 7.38403 6.44583 7.73889 6.44583 8.25417ZM7 12.8333C6.19305 12.8333 5.43472 12.6801 4.725 12.3737C4.01528 12.0672 3.39791 11.6517 2.87291 11.1271C2.34791 10.6021 1.93239 9.98472 1.62633 9.275C1.32028 8.56528 1.16705 7.80694 1.16666 7C1.16666 6.19305 1.31989 5.43472 1.62633 4.725C1.93278 4.01528 2.3483 3.39792 2.87291 2.87292C3.39791 2.34792 4.01528 1.93239 4.725 1.62633C5.43472 1.32028 6.19305 1.16705 7 1.16667C7.80694 1.16667 8.56527 1.31989 9.275 1.62633C9.98472 1.93278 10.6021 2.3483 11.1271 2.87292C11.6521 3.39792 12.0678 4.01528 12.3742 4.725C12.6807 5.43472 12.8337 6.19305 12.8333 7C12.8333 7.80694 12.6801 8.56528 12.3737 9.275C12.0672 9.98472 11.6517 10.6021 11.1271 11.1271C10.6021 11.6521 9.98472 12.0678 9.275 12.3742C8.56527 12.6807 7.80694 12.8337 7 12.8333Z" fill="#C8CBDF"/>
</svg>
