<svg width="20" height="20" viewBox="0 0 20 20" fill="none" xmlns="http://www.w3.org/2000/svg">
<path d="M10.0007 14.584C10.2604 14.584 10.4782 14.496 10.6542 14.32C10.8302 14.144 10.9179 13.9264 10.9173 13.6673V10.0007C10.9173 9.74093 10.8293 9.52307 10.6533 9.34707C10.4773 9.17107 10.2598 9.08337 10.0007 9.08398C9.74093 9.08398 9.52307 9.17198 9.34707 9.34798C9.17107 9.52398 9.08337 9.74154 9.08398 10.0007V13.6673C9.08398 13.927 9.17198 14.1449 9.34798 14.3209C9.52398 14.4969 9.74154 14.5846 10.0007 14.584ZM10.0007 7.25065C10.2604 7.25065 10.4782 7.16265 10.6542 6.98665C10.8302 6.81065 10.9179 6.5931 10.9173 6.33398C10.9173 6.07426 10.8293 5.8564 10.6533 5.6804C10.4773 5.5044 10.2598 5.41671 10.0007 5.41732C9.74093 5.41732 9.52307 5.50532 9.34707 5.68132C9.17107 5.85732 9.08337 6.07487 9.08398 6.33398C9.08398 6.59371 9.17198 6.81157 9.34798 6.98757C9.52398 7.16357 9.74154 7.25126 10.0007 7.25065ZM10.0007 19.1673C8.7326 19.1673 7.54093 18.9265 6.42565 18.445C5.31037 17.9634 4.34023 17.3105 3.51523 16.4861C2.69023 15.6611 2.03726 14.6909 1.55632 13.5757C1.07537 12.4604 0.834595 11.2687 0.833984 10.0007C0.833984 8.7326 1.07476 7.54093 1.55632 6.42565C2.03787 5.31037 2.69085 4.34023 3.51523 3.51523C4.34023 2.69023 5.31037 2.03726 6.42565 1.55632C7.54093 1.07537 8.7326 0.834595 10.0007 0.833984C11.2687 0.833984 12.4604 1.07476 13.5757 1.55632C14.6909 2.03787 15.6611 2.69085 16.4861 3.51523C17.3111 4.34023 17.9643 5.31037 18.4459 6.42565C18.9275 7.54093 19.1679 8.7326 19.1673 10.0007C19.1673 11.2687 18.9265 12.4604 18.445 13.5757C17.9634 14.6909 17.3105 15.6611 16.4861 16.4861C15.6611 17.3111 14.6909 17.9643 13.5757 18.4459C12.4604 18.9275 11.2687 19.1679 10.0007 19.1673ZM10.0007 17.334C12.0479 17.334 13.7819 16.6236 15.2027 15.2027C16.6236 13.7819 17.334 12.0479 17.334 10.0007C17.334 7.95343 16.6236 6.2194 15.2027 4.79857C13.7819 3.37773 12.0479 2.66732 10.0007 2.66732C7.95343 2.66732 6.2194 3.37773 4.79857 4.79857C3.37773 6.2194 2.66732 7.95343 2.66732 10.0007C2.66732 12.0479 3.37773 13.7819 4.79857 15.2027C6.2194 16.6236 7.95343 17.334 10.0007 17.334Z" fill="black"/>
</svg>
