<svg width="15" height="16" viewBox="0 0 15 16" fill="none" xmlns="http://www.w3.org/2000/svg">
<path d="M4.15028 6.52529L7.33403 9.70904C7.3558 9.73086 7.38166 9.74818 7.41014 9.76C7.43861 9.77181 7.46914 9.77789 7.49997 9.77789C7.53079 9.77789 7.56132 9.77181 7.58979 9.76C7.61827 9.74818 7.64413 9.73086 7.6659 9.70904L10.8497 6.52529C10.8825 6.49251 10.9049 6.45071 10.914 6.40519C10.9231 6.35967 10.9184 6.31248 10.9006 6.2696C10.8829 6.22672 10.8528 6.19009 10.8141 6.16434C10.7755 6.13859 10.7301 6.12489 10.6837 6.12497H4.31622C4.2698 6.12489 4.2244 6.13859 4.18578 6.16434C4.14716 6.19009 4.11706 6.22672 4.09929 6.2696C4.08151 6.31248 4.07687 6.35967 4.08595 6.40519C4.09503 6.45071 4.11742 6.49251 4.15028 6.52529Z" fill="#66738F"/>
</svg>
