<svg width="80" height="55" viewBox="0 0 80 55" fill="none" xmlns="http://www.w3.org/2000/svg">
<path d="M64.5 20.9667C63.3803 15.2924 60.3254 10.1829 55.8569 6.51086C51.3884 2.83882 45.7837 0.832067 40 0.833375C30.3667 0.833375 22 6.30004 17.8333 14.3C12.9341 14.8295 8.40335 17.1507 5.11163 20.8178C1.8199 24.4848 -0.000572339 29.239 1.34976e-07 34.1667C1.34976e-07 45.2 8.96667 54.1667 20 54.1667H63.3333C72.5333 54.1667 80 46.7 80 37.5C80 28.7 73.1667 21.5667 64.5 20.9667ZM46.6667 30.8334V44.1667H33.3333V30.8334H23.3333L40 14.1667L56.6667 30.8334H46.6667Z" fill="#8DCABE"/>
</svg>
